<?xml version="1.0" encoding="UTF-8" standalone="no"?>
<svg
   xmlns:dc="http://purl.org/dc/elements/1.1/"
   xmlns:cc="http://creativecommons.org/ns#"
   xmlns:rdf="http://www.w3.org/1999/02/22-rdf-syntax-ns#"
   xmlns:svg="http://www.w3.org/2000/svg"
   xmlns="http://www.w3.org/2000/svg"
   xmlns:xlink="http://www.w3.org/1999/xlink"
   xmlns:sodipodi="http://sodipodi.sourceforge.net/DTD/sodipodi-0.dtd"
   xmlns:inkscape="http://www.inkscape.org/namespaces/inkscape"
   height="24"
   width="24"
   version="1.1"
   id="svg51"
   sodipodi:docname="lc_underline.svg"
   inkscape:version="0.92.4 (unknown)"
   inkscape:export-filename="/home/rizmut/Dokumen/Rizmut/Github/libreoffice-style-elementary/images_elementary/cmd/nl/lc_underline.png"
   inkscape:export-xdpi="96"
   inkscape:export-ydpi="96">
  <metadata
     id="metadata57">
    <rdf:RDF>
      <cc:Work
         rdf:about="">
        <dc:format>image/svg+xml</dc:format>
        <dc:type
           rdf:resource="http://purl.org/dc/dcmitype/StillImage" />
        <dc:title />
      </cc:Work>
    </rdf:RDF>
  </metadata>
  <defs
     id="defs55">
    <radialGradient
       inkscape:collect="always"
       xlink:href="#a"
       id="radialGradient1120"
       cx="10.918949"
       cy="4.5648432"
       fx="10.918949"
       fy="4.5648432"
       r="5.0947933"
       gradientTransform="matrix(-1.551757,0.03070916,-0.03957393,-1.999701,28.043153,9.7254153)"
       gradientUnits="userSpaceOnUse" />
  </defs>
  <sodipodi:namedview
     pagecolor="#ffffff"
     bordercolor="#666666"
     borderopacity="1"
     objecttolerance="10"
     gridtolerance="10"
     guidetolerance="10"
     inkscape:pageopacity="0"
     inkscape:pageshadow="2"
     inkscape:window-width="1366"
     inkscape:window-height="714"
     id="namedview53"
     showgrid="true"
     inkscape:zoom="11.313709"
     inkscape:cx="-12.185073"
     inkscape:cy="15.026363"
     inkscape:window-x="0"
     inkscape:window-y="28"
     inkscape:window-maximized="1"
     inkscape:current-layer="svg51"
     inkscape:snap-global="false">
    <inkscape:grid
       type="xygrid"
       id="grid864" />
  </sodipodi:namedview>
  <linearGradient
     id="a">
    <stop
       offset="0"
       stop-color="#555"
       id="stop2" />
    <stop
       offset="1"
       stop-color="#666"
       id="stop4" />
  </linearGradient>
  <linearGradient
     id="b"
     gradientUnits="userSpaceOnUse"
     x1="13"
     x2="13"
     xlink:href="#a"
     y1="25"
     y2="3" />
  <linearGradient
     id="c">
    <stop
       offset="0"
       id="stop8" />
    <stop
       offset="1"
       stop-opacity="0"
       id="stop10" />
  </linearGradient>
  <linearGradient
     id="d">
    <stop
       offset="0"
       stop-opacity="0"
       id="stop13" />
    <stop
       offset=".5"
       id="stop15" />
    <stop
       offset="1"
       stop-opacity="0"
       id="stop17" />
  </linearGradient>
  <radialGradient
     id="e"
     cx="40"
     cy="43.5"
     gradientTransform="matrix(.87733142 0 0 .75 -17.142285 -11.625)"
     gradientUnits="userSpaceOnUse"
     r="2"
     xlink:href="#c" />
  <radialGradient
     id="f"
     cx="9"
     cy="43.5"
     gradientTransform="matrix(.87733142 0 0 .75 -1.350319 -11.625)"
     gradientUnits="userSpaceOnUse"
     r="2"
     xlink:href="#c" />
  <linearGradient
     id="g"
     gradientTransform="matrix(.87733142 0 0 1 -5.736976 -22.5)"
     gradientUnits="userSpaceOnUse"
     x1="25"
     x2="25"
     xlink:href="#d"
     y1="45"
     y2="42" />
  <radialGradient
     id="h"
     cx="40"
     cy="43.5"
     gradientTransform="matrix(1 0 0 .75 -20 -9.125)"
     gradientUnits="userSpaceOnUse"
     r="2"
     xlink:href="#c" />
  <radialGradient
     id="i"
     cx="9"
     cy="43.5"
     gradientTransform="matrix(1 0 0 .75 -6 -9.125)"
     gradientUnits="userSpaceOnUse"
     r="2"
     xlink:href="#c" />
  <linearGradient
     id="j"
     gradientUnits="userSpaceOnUse"
     x1="14"
     x2="14"
     xlink:href="#d"
     y1="25"
     y2="22" />
  <linearGradient
     id="k"
     gradientUnits="userSpaceOnUse"
     x1="12.046913"
     x2="11.445407"
     xlink:href="#a"
     y1="25.559875"
     y2="4.349593" />
  <path
     d="m20 22v3h.5c.831 0 1.5-.669 1.5-1.5s-.669-1.5-1.5-1.5z"
     fill="url(#h)"
     opacity=".2"
     id="path29" />
  <path
     d="m2.40625 22c-.7790625 0-1.40625.627187-1.40625 1.40625v.1875c0 .779063.6271875 1.40625 1.40625 1.40625h.59375v-3z"
     fill="url(#i)"
     opacity=".2"
     id="path31" />
  <path
     d="m3 22h17v3h-17z"
     fill="url(#j)"
     opacity=".2"
     id="path33" />
  <path
     d="m2.5 21.5v2h19v-2z"
     fill="url(#b)"
     id="path35" />
  <path
     d="m2.5 21.5v2h19v-2z"
     fill="none"
     opacity=".61"
     stroke="#000"
     id="path37" />
  <path
     d="m3 22v1h18v-1z"
     fill="#fff"
     opacity=".2"
     id="path39" />
  <g
     aria-label="P"
     style="font-style:normal;font-weight:normal;font-size:23.82222939px;line-height:1.25;font-family:sans-serif;letter-spacing:0px;word-spacing:0px;fill:url(#radialGradient1120);fill-opacity:1;stroke:#000000;stroke-width:1;stroke-miterlimit:4;stroke-dasharray:none;stroke-opacity:0.6"
     id="text1112">
    <path
       d="m 17.701242,6.4704239 q 0,1.0585072 -0.325694,2.0355909 -0.314063,0.9770836 -1.046875,1.7331602 -0.732813,0.744445 -1.942536,1.198091 -1.19809,0.442014 -2.966146,0.442014 H 9.6751984 v 6.618578 H 7.5116561 V 1.4919502 h 4.2107649 q 1.558681,0 2.68698,0.3373264 1.128299,0.3256946 1.861112,0.9654517 0.732813,0.6281252 1.081771,1.558681 0.348958,0.9305559 0.348958,2.1170146 z M 9.6751984,10.041432 H 11.17572 q 1.081771,0 1.884375,-0.1861113 0.814237,-0.1861111 1.337674,-0.5932293 0.53507,-0.4187501 0.802605,-1.0701392 0.267534,-0.6630211 0.267534,-1.6052088 0,-1.6517367 -0.953819,-2.4427091 Q 13.560269,3.3414299 11.53631,3.3414299 H 9.6751984 Z"
       style="font-style:normal;font-variant:normal;font-weight:normal;font-stretch:normal;font-family:'Droid Sans';-inkscape-font-specification:'Droid Sans';fill:url(#radialGradient1120);fill-opacity:1;stroke:#000000;stroke-width:1;stroke-miterlimit:4;stroke-dasharray:none;stroke-opacity:0.6"
       id="path843" />
  </g>
  <path
     style="font-style:normal;font-variant:normal;font-weight:normal;font-stretch:normal;font-size:23.82222939px;line-height:1.25;font-family:'Droid Sans';-inkscape-font-specification:'Droid Sans';letter-spacing:0px;word-spacing:0px;fill:#ffe9fb;fill-opacity:1;stroke:none;stroke-width:0.59555572;stroke-opacity:0.6;opacity:0.2"
     d="M 7.5117188 1.4921875 L 7.5117188 2.9921875 L 11.722656 2.9921875 C 12.761777 2.9921875 13.657957 3.1051939 14.410156 3.3300781 C 15.162356 3.5472079 15.782942 3.8684171 16.271484 4.2949219 C 16.760026 4.713672 17.118924 5.2331451 17.351562 5.8535156 C 17.506119 6.2656662 17.590703 6.7293466 17.642578 7.2167969 C 17.670669 6.9700016 17.701172 6.724521 17.701172 6.4707031 C 17.701172 5.6797307 17.584201 4.9738862 17.351562 4.3535156 C 17.118924 3.7331451 16.760026 3.213672 16.271484 2.7949219 C 15.782942 2.3684171 15.162356 2.0472079 14.410156 1.8300781 C 13.657957 1.6051939 12.761777 1.4921875 11.722656 1.4921875 L 7.5117188 1.4921875 z M 15.410156 7.3359375 C 15.366453 7.6486642 15.30292 7.939248 15.201172 8.1914062 C 15.022815 8.6256656 14.755151 8.982552 14.398438 9.2617188 C 14.04948 9.5331309 13.603372 9.7313947 13.060547 9.8554688 C 12.525478 9.979543 11.896962 10.041016 11.175781 10.041016 L 9.6757812 10.041016 L 9.6757812 11.541016 L 11.175781 11.541016 C 11.896962 11.541016 12.525478 11.479543 13.060547 11.355469 C 13.603372 11.231395 14.04948 11.033131 14.398438 10.761719 C 14.755151 10.482552 15.022815 10.125665 15.201172 9.6914062 C 15.379528 9.2493922 15.46875 8.7140626 15.46875 8.0859375 C 15.46875 7.8183218 15.447714 7.5696597 15.410156 7.3359375 z "
     id="path1130" />
</svg>
