<?xml version="1.0" encoding="UTF-8" standalone="no"?>
<svg
   xmlns:dc="http://purl.org/dc/elements/1.1/"
   xmlns:cc="http://creativecommons.org/ns#"
   xmlns:rdf="http://www.w3.org/1999/02/22-rdf-syntax-ns#"
   xmlns:svg="http://www.w3.org/2000/svg"
   xmlns="http://www.w3.org/2000/svg"
   xmlns:xlink="http://www.w3.org/1999/xlink"
   xmlns:sodipodi="http://sodipodi.sourceforge.net/DTD/sodipodi-0.dtd"
   xmlns:inkscape="http://www.inkscape.org/namespaces/inkscape"
   height="32"
   width="32"
   version="1.1"
   id="svg84"
   sodipodi:docname="design.svg"
   inkscape:version="0.92.5 (2060ec1f9f, 2020-04-08)">
  <metadata
     id="metadata90">
    <rdf:RDF>
      <cc:Work
         rdf:about="">
        <dc:format>image/svg+xml</dc:format>
        <dc:type
           rdf:resource="http://purl.org/dc/dcmitype/StillImage" />
      </cc:Work>
    </rdf:RDF>
  </metadata>
  <defs
     id="defs88" />
  <sodipodi:namedview
     pagecolor="#ffffff"
     bordercolor="#666666"
     borderopacity="1"
     objecttolerance="10"
     gridtolerance="10"
     guidetolerance="10"
     inkscape:pageopacity="0"
     inkscape:pageshadow="2"
     inkscape:window-width="1366"
     inkscape:window-height="699"
     id="namedview86"
     showgrid="false"
     inkscape:zoom="14.75"
     inkscape:cx="-4.0165384"
     inkscape:cy="11.680605"
     inkscape:window-x="0"
     inkscape:window-y="0"
     inkscape:window-maximized="1"
     inkscape:current-layer="g908" />
  <linearGradient
     id="a"
     gradientTransform="matrix(1 0 0 .8 0 3)"
     gradientUnits="userSpaceOnUse"
     x1="16"
     x2="16"
     y1="27"
     y2="4">
    <stop
       offset="0"
       stop-color="#002e99"
       id="stop2" />
    <stop
       offset="1"
       stop-color="#3689e6"
       id="stop4" />
  </linearGradient>
  <linearGradient
     id="b"
     gradientUnits="userSpaceOnUse"
     x1="14.8324"
     x2="14.8324"
     xlink:href="#d"
     y1="5.6746"
     y2="26.028616" />
  <linearGradient
     id="c">
    <stop
       offset="0"
       stop-color="#fff"
       id="stop8" />
    <stop
       offset="1"
       stop-color="#fff"
       stop-opacity="0"
       id="stop10" />
  </linearGradient>
  <linearGradient
     id="d"
     xlink:href="#c" />
  <linearGradient
     id="e"
     gradientUnits="userSpaceOnUse"
     x1="8.1514"
     x2="8.1514"
     xlink:href="#d"
     y1="23.055099"
     y2="14.009484" />
  <radialGradient
     id="f"
     cx="-1"
     cy="14.999253"
     gradientTransform="matrix(0 1 -1.27273 0 35.09 -1)"
     gradientUnits="userSpaceOnUse"
     r="11"
     xlink:href="#c" />
  <radialGradient
     id="g"
     cx="6.690214"
     cy="15.119161"
     gradientTransform="matrix(.00000007 3.1304348 -2.2608696 .00000005 50.18245 -22.94328)"
     gradientUnits="userSpaceOnUse"
     r="11.5">
    <stop
       offset="0"
       stop-color="#8cd5ff"
       id="stop16" />
    <stop
       offset=".262"
       stop-color="#64baff"
       id="stop18" />
    <stop
       offset=".788"
       stop-color="#3689e6"
       id="stop20" />
    <stop
       offset="1"
       stop-color="#0d52bf"
       id="stop22" />
  </radialGradient>
  <linearGradient
     id="h">
    <stop
       offset="0"
       id="stop25" />
    <stop
       offset="1"
       stop-opacity="0"
       id="stop27" />
  </linearGradient>
  <linearGradient
     id="i"
     gradientTransform="matrix(0 .56757 -.72973 0 33.514 1.378)"
     gradientUnits="userSpaceOnUse"
     x1="6.381592"
     x2="41.619537"
     y1="24.000658"
     y2="24.000658">
    <stop
       offset="0"
       stop-color="#fff"
       id="stop30" />
    <stop
       offset="0"
       stop-color="#fff"
       stop-opacity=".235"
       id="stop32" />
    <stop
       offset=".99999994"
       stop-color="#fff"
       stop-opacity=".157"
       id="stop34" />
    <stop
       offset="1"
       stop-color="#fff"
       stop-opacity=".392"
       id="stop36" />
  </linearGradient>
  <radialGradient
     id="j"
     cx="605.714"
     cy="486.648"
     gradientTransform="matrix(.019 0 0 .02024 18.043 18.08)"
     gradientUnits="userSpaceOnUse"
     r="117.143"
     xlink:href="#h" />
  <radialGradient
     id="k"
     cx="605.714"
     cy="486.648"
     gradientTransform="matrix(-.019 0 0 .02024 14.134 18.08)"
     gradientUnits="userSpaceOnUse"
     r="117.143"
     xlink:href="#h" />
  <linearGradient
     id="l"
     gradientTransform="matrix(.05555 0 0 .02024 -3.988 18.08)"
     gradientUnits="userSpaceOnUse"
     x1="302.857"
     x2="302.857"
     y1="366.648"
     y2="609.505">
    <stop
       offset="0"
       stop-opacity="0"
       id="stop41" />
    <stop
       offset=".5"
       id="stop43" />
    <stop
       offset="1"
       stop-opacity="0"
       id="stop45" />
  </linearGradient>
  <g
     id="g908">
    <g
       id="g1567">
      <path
         d="m1.5 4.5 22 22h-22zm5 12v5h5z"
         style="fill:#9bdb4d;fill-opacity:.588;fill-rule:evenodd;stroke:#206b00;stroke-linejoin:round;stroke-opacity:.501961"
         id="path74" />
      <path
         id="path88"
         d="M 2,7 H 3 V 8 H 2 Z m 0,2 h 1 v 1 H 2 Z m 0,2 h 1 v 1 H 2 Z m 0,2 h 1 v 1 H 2 Z m 0,2 h 1 v 1 H 2 Z m 0,2 h 1 v 1 H 2 Z m 0,2 h 1 v 1 H 2 Z m 0,2 h 1 v 1 H 2 Z m 0,2 h 1 v 1 H 2 Z"
         style="opacity:0.15"
         inkscape:connector-curvature="0" />
      <path
         opacity=".5"
         fill="none"
         stroke="url(#b)"
         d="m2.5 6.9006214v18.5993786h18.627z"
         id="path76" />
      <g
         id="g98"
         transform="rotate(90,2.5,25.5)">
        <path
           id="path94"
           d="M 2,7 H 3 V 8 H 2 Z m 0,2 h 1 v 1 H 2 Z m 0,2 h 1 v 1 H 2 Z m 0,2 h 1 v 1 H 2 Z m 0,2 h 1 v 1 H 2 Z m 0,2 h 1 v 1 H 2 Z m 0,2 h 1 v 1 H 2 Z m 0,2 h 1 v 1 H 2 Z m 0,2 h 1 v 1 H 2 Z"
           inkscape:connector-curvature="0"
           style="opacity:0.15" />
        <path
           id="path96"
           d="M 2,8 H 3 V 9 H 2 Z m 0,2 h 1 v 1 H 2 Z m 0,2 h 1 v 1 H 2 Z m 0,2 h 1 v 1 H 2 Z m 0,2 h 1 v 1 H 2 Z m 0,2 h 1 v 1 H 2 Z m 0,2 h 1 v 1 H 2 Z m 0,2 h 1 v 1 H 2 Z m 0,2 h 1 v 1 H 2 Z"
           inkscape:connector-curvature="0"
           style="opacity:0.15;fill:#ffffff" />
      </g>
      <path
         opacity=".5"
         fill="none"
         stroke="url(#e)"
         d="m5.5 14.52v7.98h7.5"
         id="path78" />
      <path
         opacity=".3"
         fill="none"
         stroke="#d1ff82"
         stroke-linecap="square"
         d="m4.5 27.5h19"
         id="path82" />
    </g>
  </g>
</svg>
