<?xml version="1.0" encoding="UTF-8" standalone="no"?>
<svg
   xmlns:dc="http://purl.org/dc/elements/1.1/"
   xmlns:cc="http://creativecommons.org/ns#"
   xmlns:rdf="http://www.w3.org/1999/02/22-rdf-syntax-ns#"
   xmlns:svg="http://www.w3.org/2000/svg"
   xmlns="http://www.w3.org/2000/svg"
   xmlns:xlink="http://www.w3.org/1999/xlink"
   xmlns:sodipodi="http://sodipodi.sourceforge.net/DTD/sodipodi-0.dtd"
   xmlns:inkscape="http://www.inkscape.org/namespaces/inkscape"
   height="32"
   width="32"
   version="1.1"
   id="svg41"
   sodipodi:docname="bold.svg"
   inkscape:version="0.92.4 (unknown)"
   inkscape:export-filename="/home/rizmut/Dokumen/Rizmut/Github/libreoffice-style-elementary/images_elementary/cmd/32/fr/bold.png"
   inkscape:export-xdpi="96"
   inkscape:export-ydpi="96">
  <metadata
     id="metadata47">
    <rdf:RDF>
      <cc:Work
         rdf:about="">
        <dc:format>image/svg+xml</dc:format>
        <dc:type
           rdf:resource="http://purl.org/dc/dcmitype/StillImage" />
        <dc:title />
      </cc:Work>
    </rdf:RDF>
  </metadata>
  <defs
     id="defs45">
    <radialGradient
       inkscape:collect="always"
       xlink:href="#c"
       id="radialGradient860"
       cx="13.201247"
       cy="12.676107"
       fx="13.201247"
       fy="12.676107"
       r="6.7003856"
       gradientTransform="matrix(0.14879841,3.7199544,-2.819107,0.11276447,46.942711,-39.045021)"
       gradientUnits="userSpaceOnUse" />
    <radialGradient
       inkscape:collect="always"
       xlink:href="#c"
       id="radialGradient1417"
       gradientUnits="userSpaceOnUse"
       gradientTransform="matrix(0.00440494,3.8005086,-2.8213595,0.00327006,48.877438,-38.720474)"
       cx="13.201247"
       cy="12.676107"
       fx="13.201247"
       fy="12.676107"
       r="6.7003856" />
  </defs>
  <sodipodi:namedview
     pagecolor="#ffffff"
     bordercolor="#666666"
     borderopacity="1"
     objecttolerance="10"
     gridtolerance="10"
     guidetolerance="10"
     inkscape:pageopacity="0"
     inkscape:pageshadow="2"
     inkscape:window-width="1366"
     inkscape:window-height="714"
     id="namedview43"
     showgrid="true"
     inkscape:zoom="8"
     inkscape:cx="9.9975025"
     inkscape:cy="21.11831"
     inkscape:window-x="0"
     inkscape:window-y="28"
     inkscape:window-maximized="1"
     inkscape:current-layer="g39">
    <inkscape:grid
       type="xygrid"
       id="grid854" />
  </sodipodi:namedview>
  <linearGradient
     id="a">
    <stop
       offset="0"
       id="stop2" />
    <stop
       offset="1"
       stop-opacity="0"
       id="stop4" />
  </linearGradient>
  <linearGradient
     id="b"
     gradientUnits="userSpaceOnUse"
     x1="17"
     x2="17"
     y1="46.5"
     y2="43.5">
    <stop
       offset="0"
       stop-opacity="0"
       id="stop7" />
    <stop
       offset=".5"
       id="stop9" />
    <stop
       offset="1"
       stop-opacity="0"
       id="stop11" />
  </linearGradient>
  <radialGradient
     id="c"
     cx="13.325464"
     cy="8.331412"
     gradientTransform="matrix(-3.7117719 .11187051 -.21033005 -6.7825606 65.528784 64.934853)"
     gradientUnits="userSpaceOnUse"
     r="5.349211">
    <stop
       offset="0"
       stop-color="#737373"
       id="stop14" />
    <stop
       offset=".26238"
       stop-color="#636363"
       id="stop16" />
    <stop
       offset=".704952"
       stop-color="#4b4b4b"
       id="stop18" />
    <stop
       offset="1"
       stop-color="#3f3f3f"
       id="stop20" />
  </radialGradient>
  <radialGradient
     id="d"
     cx="40"
     cy="43.5"
     gradientTransform="matrix(1,0,0,0.75,-30.16707,12.375)"
     gradientUnits="userSpaceOnUse"
     r="2"
     xlink:href="#a" />
  <radialGradient
     id="e"
     cx="9"
     cy="43.5"
     gradientTransform="matrix(1,0,0,0.75,-10.11138,12.375)"
     gradientUnits="userSpaceOnUse"
     r="2"
     xlink:href="#a" />
  <g
     transform="matrix(1.33333 0 0 1.313771 -1.472041 -10.913521)"
     id="g39">
    <g
       aria-label="G"
       transform="scale(0.99263829,1.0074163)"
       style="font-style:normal;font-weight:normal;font-size:22.22249413px;line-height:1.25;font-family:sans-serif;letter-spacing:0px;word-spacing:0px;fill:url(#radialGradient860);fill-opacity:1;stroke:#000000;stroke-width:0.75556415;stroke-miterlimit:4;stroke-dasharray:none;stroke-opacity:0.6"
       id="text858">
      <path
         d="m 13.579029,19.95711 6.044112,2.7e-4 v 7.847145 c -0.419566,0.137443 -0.842748,0.264036 -1.269547,0.379779 -0.426799,0.108508 -0.673937,0.206975 -1.136906,0.286548 -0.455735,0.07234 -0.936788,0.13021 -1.44316,0.173613 -0.499138,0.0434 -1.030829,0.0651 -1.595072,0.0651 -1.186357,0 -2.238888,-0.173613 -3.157591,-0.520839 C 10.109396,27.834269 9.3389871,27.31343 8.7096391,26.626211 8.087525,25.931758 7.6137055,25.07816 7.2881807,24.065416 6.9626559,23.045439 6.7998935,21.869932 6.7998935,20.538897 c 0,-1.244228 0.1808471,-2.369097 0.5425414,-3.374607 0.3616942,-1.00551 0.8933847,-1.859108 1.5950716,-2.560795 0.708921,-0.708921 1.5769875,-1.251462 2.6041985,-1.627624 1.034445,-0.383396 2.217185,-0.575094 3.54822,-0.575094 0.846365,0 1.674645,0.09042 2.48484,0.271271 0.810195,0.180847 1.551668,0.415948 2.224419,0.705303 l -1.117635,2.691006 c -0.491904,-0.245953 -1.048913,-0.452119 -1.671027,-0.618498 -0.61488,-0.166379 -1.262313,-0.249569 -1.942298,-0.249569 -0.737857,0 -1.403374,0.13021 -1.996552,0.39063 -0.585945,0.253186 -1.0887,0.61488 -1.508265,1.085083 -0.419565,0.470203 -0.741473,1.038063 -0.965724,1.70358 -0.224251,0.665517 -0.336376,1.40699 -0.336376,2.224419 0,0.78126 0.07596,1.497415 0.227868,2.148464 0.159145,0.643816 0.405097,1.200825 0.737856,1.671028 0.332759,0.470202 0.759558,0.835513 1.280398,1.095933 0.528073,0.26042 1.157421,0.39063 1.888044,0.39063 0.477436,0 0.878916,-0.0217 1.204441,-0.0651 0.332759,-0.0434 0.643816,-0.09404 0.933172,-0.151912 l 0.05162,-3.469242 h -3.00568 z"
         style="font-style:normal;font-variant:normal;font-weight:bold;font-stretch:normal;font-family:'Droid Sans';-inkscape-font-specification:'Droid Sans Bold';fill:url(#radialGradient1417);fill-opacity:1;stroke:#000000;stroke-width:0.75556415;stroke-miterlimit:4;stroke-dasharray:none;stroke-opacity:0.6"
         id="path1414"
         inkscape:connector-curvature="0"
         sodipodi:nodetypes="ccccccscccssscsscccscssscscsccccc" />
    </g>
    <g
       transform="matrix(0.73633307,0,0,1,11.83447,-15.893147)"
       id="g31">
      <path
         d="m 9.83293,43.5 v 3 h 0.5 c 0.831,0 1.5,-0.669 1.5,-1.5 0,-0.831 -0.669,-1.5 -1.5,-1.5 z"
         id="path25"
         style="opacity:0.2;fill:url(#d)"
         inkscape:connector-curvature="0" />
      <path
         d="m -1.7051301,43.5 c -0.7790625,0 -1.40625,0.627187 -1.40625,1.40625 v 0.1875 c 0,0.779063 0.6271875,1.40625 1.40625,1.40625 h 0.59375 v -3 z"
         id="path27"
         style="opacity:0.2;fill:url(#e)"
         inkscape:connector-curvature="0" />
      <path
         d="M -1.1113801,43.5 9.83293,43.45533 v 3 L -1.1113801,46.5 Z"
         id="path29"
         inkscape:connector-curvature="0"
         style="opacity:0.2;fill:url(#b)"
         sodipodi:nodetypes="ccccc" />
    </g>
    <path
       style="font-style:normal;font-weight:normal;font-size:22.22249413px;line-height:1.25;font-family:sans-serif;letter-spacing:0px;word-spacing:0px;opacity:0.2;fill:#ffffff;fill-opacity:1;stroke:none;stroke-width:0.75556415;stroke-miterlimit:4;stroke-dasharray:none;stroke-opacity:1"
       d="m 14.979068,12.493441 c -1.321235,0 -2.496128,0.19207 -3.522957,0.578309 -1.01965,0.378952 -1.8802896,0.925603 -2.5839916,1.639782 -0.6965209,0.70689 -1.2244682,1.56638 -1.5834998,2.579347 -0.3590316,1.012967 -0.5390639,2.146525 -0.5390639,3.399981 0,0.210726 0.011063,0.411003 0.019043,0.613989 0.044214,-1.043545 0.2126315,-2.004954 0.5200208,-2.872219 0.3590316,-1.012966 0.8869788,-1.872456 1.5834998,-2.579347 0.703702,-0.714178 1.5643417,-1.260829 2.5839917,-1.639781 1.026829,-0.386239 2.201722,-0.578309 3.522957,-0.578309 0.840134,0 1.662573,0.08987 2.466804,0.272058 0.649891,0.147225 1.242426,0.340375 1.803227,0.558982 l 0.404297,-0.990112 c -0.667798,-0.291502 -1.403294,-0.528433 -2.207524,-0.710622 -0.804231,-0.182188 -1.62667,-0.272058 -2.466804,-0.272058 z m -1.500004,7.611677 v 1.141752 l 6.000015,-1e-6 v -1.141751 z m -3.268074,1.152158 c -0.01585,0.208817 -0.0249,0.421038 -0.0249,0.640749 -10e-7,0.787053 0.07479,1.508692 0.225586,2.16457 0.157974,0.648591 0.402115,1.210692 0.732424,1.684381 0.330309,0.47369 0.754482,0.840747 1.271488,1.103098 0.524186,0.262352 1.148295,0.393964 1.87354,0.393964 0.473921,0 0.872187,-0.02169 1.195315,-0.06541 C 15.81475,27.1349 16.124464,27.0838 16.41169,27.0255 v -1.141752 c -0.287226,0.0583 -0.59694,0.109401 -0.927249,0.153126 -0.323128,0.04372 -0.721394,0.06541 -1.195315,0.06541 -0.725245,0 -1.349354,-0.131612 -1.87354,-0.393963 -0.517006,-0.262351 -0.941179,-0.629409 -1.271488,-1.103099 -0.330309,-0.473689 -0.57445,-1.03579 -0.732424,-1.68438 -0.117403,-0.510651 -0.174688,-1.073402 -0.200684,-1.663568 z"
       id="text1523"
       inkscape:connector-curvature="0"
       sodipodi:nodetypes="scssscsscsccccsccccccccscsccccscsccc" />
  </g>
</svg>
