<svg height="24" width="24" xmlns="http://www.w3.org/2000/svg" xmlns:xlink="http://www.w3.org/1999/xlink"><linearGradient id="a" gradientUnits="userSpaceOnUse" x1="11.99999938808" x2="12.00124268541" y1="4.00000004244" y2="20.00000022031"><stop offset="0" stop-color="#fff"/><stop offset="0" stop-color="#fff" stop-opacity=".235294"/><stop offset="1" stop-color="#fff" stop-opacity=".156863"/><stop offset="1" stop-color="#fff" stop-opacity=".392157"/></linearGradient><radialGradient id="b" cx="4.992979" cy="43.5" gradientTransform="matrix(2.003784 0 0 1.4 27.98813 -17.4)" gradientUnits="userSpaceOnUse" r="2.5" xlink:href="#c"/><linearGradient id="c"><stop offset="0" stop-color="#181818"/><stop offset="1" stop-color="#181818" stop-opacity="0"/></linearGradient><radialGradient id="d" cx="4.992979" cy="43.5" gradientTransform="matrix(2.003784 0 0 1.4 -20.01187 -104.4)" gradientUnits="userSpaceOnUse" r="2.5" xlink:href="#c"/><linearGradient id="e" gradientUnits="userSpaceOnUse" x1="25.058096" x2="25.058096" y1="47.027729" y2="39.999443"><stop offset="0" stop-color="#181818" stop-opacity="0"/><stop offset=".5" stop-color="#181818"/><stop offset="1" stop-color="#181818" stop-opacity="0"/></linearGradient><linearGradient id="f" gradientUnits="userSpaceOnUse" x1="13" x2="13" y1="21" y2="2"><stop offset="0" stop-color="#1e74bc"/><stop offset="1" stop-color="#3fa8ea"/></linearGradient><radialGradient id="g" cx="12" cy="8" gradientTransform="matrix(.00000008 2.1052632 -2.7368421 .0000001 33.894735 -17.263158)" gradientUnits="userSpaceOnUse" r="9.5"><stop offset="0" stop-color="#54bfec"/><stop offset=".26238" stop-color="#55c1ec"/><stop offset=".704952" stop-color="#3689e6"/><stop offset="1" stop-color="#2b63a0"/></radialGradient><g opacity=".4" transform="matrix(.5789476 0 0 .42857134286 -1.8947379 2.85714641906)"><path d="m38 40h5v7h-5z" fill="url(#b)"/><path d="m-10-47h5v7h-5z" fill="url(#d)" transform="scale(-1)"/><path d="m10 40h28v7.000001h-28z" fill="url(#e)"/></g><rect fill="url(#g)" height="19" rx="1" width="19" x="2.5" y="2.500002"/><path d="m6 4v2h-2v1h2v2h-2v1h2v2h-2v1h2v2h-2v1h2v2h-2v1h2v1h1v-1h2v1h1v-1h2v1h1v-1h2v1h1v-1h2v1h1v-1h1v-1h-1v-2h1v-1h-1v-2h1v-1h-1v-2h1v-1h-1v-2h1v-1h-1v-2h-1v2h-2v-2h-1v2h-2v-2h-1v2h-2v-2h-1v2h-2v-2zm1 3h2v2h-2zm3 0h2v2h-2zm3 0h2v2h-2zm3 0h2v2h-2zm-9 3h2v2h-2zm3 0h2v2h-2zm3 0h2v2h-2zm3 0h2v2h-2zm-9 3h2v2h-2zm3 0h2v2h-2zm3 0h2v2h-2zm3 0h2v2h-2zm-9 3h2v2h-2zm3 0h2v2h-2zm3 0h2v2h-2zm3 0h2v2h-2z" fill="#fff" opacity=".1"/><rect fill="none" height="19.000002" opacity=".5" rx="1" stroke="url(#f)" width="19.000002" x="2.499998" y="2.500026"/><path d="m3.5 3.5h17v17h-17z" fill="none" opacity=".5" stroke="url(#a)" stroke-linecap="round" stroke-linejoin="round"/><path d="m11.703125 4.0097656c-1.190842.0532541-2.5009484.3884695-3.9707031 1.0546875a1.9980853 1.9980853 0 0 0 .9765625 3.8125s.6928402.042103 1.1914062.1132813l-.40625.703125 1.1191404.6425786a1.9980853 1.9980853 0 0 0 -2.7421872.765624l-3.0527344 5.525391a1.9980853 1.9980853 0 0 0 .7480468 2.697266l2.4335938 1.40625a1.9980853 1.9980853 0 0 0 2.748047-.763672l3.054687-5.527344a1.9980853 1.9980853 0 0 0 .132813-1.634765l.04492-.07617a1.9980853 1.9980853 0 0 0 .28125.199218l1.101562.636719a1.9980853 1.9980853 0 0 0 2.730471-.730471l1.636719-2.833984a1.9980853 1.9980853 0 0 0 -.732422-2.7304688l-1.103516-.6367187a1.9980853 1.9980853 0 0 0 -1.197265-.2558594c-.420637-.6225894-.98054-1.2676216-1.886719-1.734375-.849489-.4375544-1.917108-.6860432-3.107422-.6328125z" fill="#2e8ed3" opacity=".1"/><path d="m11.748047 5.0078125c-1.034635.0462686-2.2230723.3410623-3.6035158.9667969a.99913365.99913365 0 0 0 .4882813 1.90625s1.1721616-.049078 1.9042965.1933594c.366068.1212186.515046.2668885.548829.3457031.03378.078815.101446.3402912-.314454 1.0605469l-.9101559 1.5761722.2558599.144531a.99913365.99913365 0 0 0 -1.3730474.384766l-3.0527344 5.52539a.99913365.99913365 0 0 0 .375 1.347656l2.4335938 1.40625a.99913365.99913365 0 0 0 1.375-.382812l3.054688-5.527344a.99913365.99913365 0 0 0 -.142579-1.160156l.931641-1.611328.101562-.175782c.04229-.06742.198618-.238797.296876-.289062l.173828.714844a.99913365.99913365 0 0 0 .470703.628906l1.101562.636719a.99913365.99913365 0 0 0 1.365235-.365235l1.636718-2.833984a.99913365.99913365 0 0 0 -.365234-1.3652344l-1.103516-.6367187a.99913365.99913365 0 0 0 -.759765-.0996094l-.404297.1074219c-.310646-.655997-.833508-1.4381001-1.878906-1.9765625-.692582-.3567345-1.571098-.5677413-2.605469-.5214844z" fill="#2e8ed3" opacity=".25"/><path d="m13.896252 6.4176373c-1.071291-.5517995-2.758128-.704016-5.3403599.4664715 0 0 5.0926809-.3883071 3.0802359 3.0968455l-1.407772 2.4379797-.608525-.351333-3.053931 5.527071 2.4341 1.405328 3.053931-5.52707-.608525-.351332 1.407771-2.437979.109792-.190164c.238356-.392693.965392-1.18192 1.982581-.594645l.315608 1.297845 1.102952.636789 1.63589-2.833444-1.102952-.6367895-1.259813.3375655s-.36361-1.5736832-1.740983-2.2831387z" fill="#fff"/></svg>