<?xml version="1.0" encoding="UTF-8" standalone="no"?>
<svg
   xmlns:dc="http://purl.org/dc/elements/1.1/"
   xmlns:cc="http://creativecommons.org/ns#"
   xmlns:rdf="http://www.w3.org/1999/02/22-rdf-syntax-ns#"
   xmlns:svg="http://www.w3.org/2000/svg"
   xmlns="http://www.w3.org/2000/svg"
   xmlns:sodipodi="http://sodipodi.sourceforge.net/DTD/sodipodi-0.dtd"
   xmlns:inkscape="http://www.inkscape.org/namespaces/inkscape"
   height="24"
   width="24"
   version="1.1"
   id="svg63"
   sodipodi:docname="lc_extrusiontiltdown.svg"
   inkscape:version="0.92.5 (2060ec1f9f, 2020-04-08)">
  <metadata
     id="metadata69">
    <rdf:RDF>
      <cc:Work
         rdf:about="">
        <dc:format>image/svg+xml</dc:format>
        <dc:type
           rdf:resource="http://purl.org/dc/dcmitype/StillImage" />
      </cc:Work>
    </rdf:RDF>
  </metadata>
  <defs
     id="defs67" />
  <sodipodi:namedview
     pagecolor="#ffffff"
     bordercolor="#666666"
     borderopacity="1"
     objecttolerance="10"
     gridtolerance="10"
     guidetolerance="10"
     inkscape:pageopacity="0"
     inkscape:pageshadow="2"
     inkscape:window-width="1366"
     inkscape:window-height="699"
     id="namedview65"
     showgrid="false"
     inkscape:zoom="9.8333333"
     inkscape:cx="-4.1476046"
     inkscape:cy="13.81098"
     inkscape:window-x="0"
     inkscape:window-y="0"
     inkscape:window-maximized="1"
     inkscape:current-layer="svg63" />
  <linearGradient
     id="a"
     gradientTransform="matrix(.5097808 .03067969 -.03009813 .5001183 1.225607 .506203)"
     gradientUnits="userSpaceOnUse"
     x1="31.226292"
     x2="34.96563"
     y1="34.600941"
     y2="26.842505">
    <stop
       offset="0"
       stop-color="#b88fe6"
       id="stop2" />
    <stop
       offset="1"
       stop-color="#b483d5"
       stop-opacity="0"
       id="stop4" />
  </linearGradient>
  <linearGradient
     id="b"
     gradientTransform="matrix(.3446423 -.3446422 .3381098 .3381098 -3.882197 14.32142)"
     gradientUnits="userSpaceOnUse"
     x1="32.325527"
     x2="22.245434"
     y1="5.020115"
     y2="43.366352">
    <stop
       offset="0"
       stop-color="#fff"
       id="stop7" />
    <stop
       offset="1"
       stop-color="#fff"
       stop-opacity="0"
       id="stop9" />
  </linearGradient>
  <linearGradient
     id="c"
     gradientTransform="matrix(.4865175 .02927958 -.02872474 .4772959 1.284279 1.962637)"
     gradientUnits="userSpaceOnUse"
     x1="28.116938"
     x2="39.686337"
     y1="41.67448"
     y2="28.50532">
    <stop
       offset="0"
       stop-color="#fff"
       stop-opacity="0"
       id="stop12" />
    <stop
       offset=".63129705"
       stop-color="#fff"
       stop-opacity=".274725"
       id="stop14" />
    <stop
       offset="1"
       stop-color="#fff"
       stop-opacity="0"
       id="stop16" />
  </linearGradient>
  <linearGradient
     id="d"
     gradientTransform="matrix(.5097808 .03067969 -.03009813 .5001183 1.225607 .506203)"
     gradientUnits="userSpaceOnUse"
     x1="33.686768"
     x2="37.039948"
     y1="35.773647"
     y2="29.856804">
    <stop
       offset="0"
       stop-color="#6326b9"
       id="stop19" />
    <stop
       offset="1"
       stop-color="#903fc4"
       stop-opacity="0"
       id="stop21" />
  </linearGradient>
  <linearGradient
     id="e"
     gradientTransform="matrix(.3446423 -.3446422 .3381098 .3381098 -3.882197 14.32142)"
     gradientUnits="userSpaceOnUse"
     x1="6.226068"
     x2="62.47089"
     y1="2.141885"
     y2="57.956093">
    <stop
       offset="0"
       stop-color="#f0c1ff"
       id="stop24" />
    <stop
       offset=".26238"
       stop-color="#c5a3f2"
       id="stop26" />
    <stop
       offset=".704952"
       stop-color="#7a36b1"
       id="stop28" />
    <stop
       offset="1"
       stop-color="#4c2d81"
       id="stop30" />
  </linearGradient>
  <path
     d="m24.000001 10.490368-23.50000104.000005-.000001 2.009632 23.50000104-.000005"
     fill="#ffa154"
     stroke="#a62100"
     stroke-linejoin="round"
     stroke-miterlimit="0"
     stroke-opacity=".501961"
     id="path33" />
  <g
     transform="matrix(0 1 1 0 .001167 -.520431)"
     id="g53">
    <path
       d="m12.301845 18.816592c-1.128728.06587-2.859052-.343133-3.906116-1.390196-1.747833-1.747833-2.158823-5.887156-.01788-7.9626149.866864-.8403489 2.925507-1.9309102 4.118843-1.9637813l.01294 3.0000002 6.097157-4.8092842s-6.097157-5.1907165-6.097157-5.1907165l-.01404 2.8225719c-2.6301.048138-5.12131.9196431-7.119025 2.8746754-4.063985 3.9771554-4.05746 10.3968804-.175027 14.3682154 1.985452 2.030915 4.586146 2.999155 7.197102 2.928568"
       fill="url(#e)"
       id="path35" />
    <path
       d="m12.403327 23.484076c4.640461.101529 9.933855-3.179938 10.287863-9.200086l-4.368847.575921c-.245199 2.531264-3.879206 4.316315-6.073699 4.006329"
       fill="url(#a)"
       id="path37" />
    <path
       d="m11.985379 19.441441h1.000053v3.278722h-1.000053z"
       fill="#ba94e9"
       id="path39" />
    <g
       fill="none"
       id="g51">
      <path
         d="m12.301845 18.816592c-1.128728.06587-2.859052-.343133-3.906116-1.390196-1.747833-1.747833-2.158823-5.887156-.01788-7.9626144.866864-.8403489 2.925507-1.9309102 4.118843-1.9637813l.01294 2.9999997 6.097157-4.8092837s-6.097157-5.19071651-6.097157-5.19071651l-.01404 2.82257191c-2.6301.048138-5.12131.9196431-7.119025 2.8746754-4.063985 3.9771549-4.05746 10.3968799-.175027 14.3682149 1.985452 2.030915 4.586146 2.999155 7.197102 2.928568"
         opacity=".5"
         stroke="#6326b9"
         stroke-linejoin="round"
         id="path41" />
      <g
         stroke-width="1.004748"
         id="g49">
        <path
           d="m12.403327 23.484076c4.640461.101529 9.933855-3.179938 10.287863-9.200086l-4.368847.575921c-.110438 1.140089-2.322343 4.006329-6.073699 4.006329"
           opacity=".5"
           stroke="url(#d)"
           id="path43" />
        <path
           d="m12.308423 19.966046c-1.446471.0129-3.484597-.709353-4.588023-1.800765-2.57887-2.554359-2.409256-7.367123-.02984-9.5593888 1.00408-.9251103 2.559213-2.0487461 5.80944-2.0487461v1.926054l3.69258-2.7924843s-3.69258-3.1243897-3.69258-3.1243897v1.8440569c-2.678814-.120611-5.477585.5510024-7.478441 2.5518583-3.676568 3.6765687-3.47004 9.5432587-.07722 12.9360817 2.147844 2.147843 4.400824 2.725534 6.445786 2.572342"
           opacity=".4"
           stroke="url(#b)"
           id="path45" />
        <path
           d="m12.651944 22.568281c2.671474.166198 8.572949-2.28894 8.936808-8.334926l-1.953302-.06205c-.172372 2.864146-3.63545 5.671566-7.296631 5.827299"
           stroke="url(#c)"
           stroke-linejoin="round"
           id="path47" />
      </g>
    </g>
  </g>
  <g
     transform="matrix(0 .66667 .66667 0 2.66656 .33328)"
     id="g61">
    <path
       d="m15.250004 23.000045v8.999955"
       fill="none"
       stroke="#a62100"
       stroke-opacity=".501961"
       stroke-width="1.499992"
       id="path55" />
    <path
       d="m18.249989 23.48945v8.51055"
       fill="none"
       stroke="#a62100"
       stroke-opacity=".501961"
       stroke-width="1.499992"
       id="path57" />
    <path
       d="m16 23.000046h1.499992v8.999955h-1.499992z"
       fill="#ffa154"
       id="path59"
       style="stroke:none" />
  </g>
</svg>
