<svg height="24" width="24" xmlns="http://www.w3.org/2000/svg" xmlns:xlink="http://www.w3.org/1999/xlink"><linearGradient id="a" gradientUnits="userSpaceOnUse" x1="11" x2="11" xlink:href="#c" y1="2" y2="22"/><linearGradient id="b" gradientUnits="userSpaceOnUse" x1="11" x2="11" y1="3" y2="21"><stop offset="0" stop-color="#fff"/><stop offset="0" stop-color="#fff" stop-opacity=".235294"/><stop offset="1" stop-color="#fff" stop-opacity=".156863"/><stop offset="1" stop-color="#fff" stop-opacity=".392157"/></linearGradient><linearGradient id="c" gradientTransform="matrix(.44576989 0 0 .44993664 .801525 -.024539)" gradientUnits="userSpaceOnUse" x1="25.132275" x2="25.132275" y1="15.499894" y2="48.395687"><stop offset="0" stop-color="#fafafa"/><stop offset="1" stop-color="#e2e1de"/></linearGradient><linearGradient id="d" gradientTransform="matrix(.48483606 0 0 .5270602 -.165352 -.400235)" gradientUnits="userSpaceOnUse" x1="23.99999" x2="23.99999" y1="4.999989" y2="43"><stop offset="0" stop-color="#fff"/><stop offset=".06316455" stop-color="#fff" stop-opacity=".235294"/><stop offset=".95056331" stop-color="#fff" stop-opacity=".156863"/><stop offset="1" stop-color="#fff" stop-opacity=".392157"/></linearGradient><rect fill="url(#c)" height="20" rx=".527778" ry=".555556" width="19" x="2.000001" y="1.999818"/><path d="m2.50125 2.498592h17.938934v19.501226h-17.938934z" fill="none" stroke="url(#d)" stroke-linecap="round" stroke-linejoin="round" stroke-width="1.100222"/><path d="m2.5371094 1.5c-.574146 0-1.0371021.4629634-1.0371094 1.0371094v3.6269531 10.8359375 4.462891c0 .574146.4629634 1.037109 1.0371094 1.037109h17.9257816c.574146 0 1.037109-.462963 1.037109-1.037109v-4.462891-10.8359375-3.6269531c.000007-.574146-.462963-1.0371094-1.037109-1.0371094z" fill="url(#a)" stroke="#000" stroke-opacity=".273077"/><path d="m11.5 1.5v21h-5v-21z" fill="#8cd5ff"/><path d="m2.000001 9.999818h4v1h-4z" opacity=".321"/><path d="m7.000001 9.999818h4v1h-4z" opacity=".321"/><path d="m12.000001 9.999818h4v1h-4z" opacity=".321"/><path d="m17.000002 9.999818h4v1h-4z" opacity=".321"/><path d="m2.000001 13.999818h4v1h-4z" opacity=".321"/><path d="m7.000001 13.999818h4v1h-4z" opacity=".321"/><path d="m12.000001 13.999818h4v1h-4z" opacity=".321"/><path d="m17.000002 13.999818h4v1h-4z" opacity=".321"/><path d="m2.000001 17.999819h4v1h-4z" opacity=".321"/><path d="m7.000001 17.999819h4v1h-4z" opacity=".321"/><path d="m12.000001 17.999819h4v1h-4z" opacity=".321"/><path d="m17.000002 17.999819h4v1h-4z" opacity=".321"/><path d="m5.999999 2h1l.000002 19.999818h-1z" opacity=".321"/><path d="m10.999999 2h1l.000002 19.999818h-1z" opacity=".321"/><path d="m16 2h1l.000002 19.999818h-1z" opacity=".321"/><path d="m12 2c0-.554-.446-1-1-1h-4c-.554 0-1 .446-1 1v20c0 .554.446 1 1 1h4c.554 0 1-.446 1-1zm-1 0v20h-4v-20z" fill="#002e99" fill-opacity=".501961"/><path d="m2.000001 5.999819h4v1h-4z" opacity=".321"/><path d="m7.000001 5.999819h4v1h-4z" opacity=".321"/><path d="m12.000001 5.999819h4v1h-4z" opacity=".321"/><path d="m17.000002 5.999819h4v1h-4z" opacity=".321"/><path d="m2.5 2.5h18v19h-18z" fill="none" opacity=".5" stroke="url(#b)" stroke-opacity=".273077"/></svg>