<svg height="24" width="24" xmlns="http://www.w3.org/2000/svg" xmlns:xlink="http://www.w3.org/1999/xlink"><linearGradient id="a"><stop offset="0" stop-color="#ededed"/><stop offset="1" stop-color="#fafafa"/></linearGradient><linearGradient id="b" gradientUnits="userSpaceOnUse" x1="10" x2="10" y1="-5" y2="17"><stop offset="0" stop-color="#fff"/><stop offset="1" stop-color="#fff" stop-opacity="0"/></linearGradient><linearGradient id="c" gradientTransform="matrix(.48571543 0 0 -.25856743 -.65717 10.218952)" gradientUnits="userSpaceOnUse" x1="25.132275" x2="25.132275" xlink:href="#a" y1=".985206" y2="47.013336"/><linearGradient id="d" gradientUnits="userSpaceOnUse" x1="12" x2="12" y1="18" y2="8"><stop offset="0" stop-color="#232323"/><stop offset=".80000001" stop-color="#535353"/><stop offset=".80000001" stop-color="#676767"/><stop offset="1" stop-color="#676767"/></linearGradient><linearGradient id="e" gradientTransform="matrix(.48571543 0 0 -.25856743 -.657131 24.718969)" gradientUnits="userSpaceOnUse" x1="25.132275" x2="25.132275" xlink:href="#a" y1=".985206" y2="47.013336"/><linearGradient id="f" gradientTransform="matrix(.21638323 -.0000038 -.0000038 .21638323 -3.217475 6.380301)" gradientUnits="userSpaceOnUse" x1="71.204407" x2="71.204407" y1="6.237558" y2="44.340794"><stop offset="0" stop-color="#fff"/><stop offset=".507761" stop-color="#fff" stop-opacity=".235294"/><stop offset=".83456558" stop-color="#fff" stop-opacity=".156863"/><stop offset="1" stop-color="#fff" stop-opacity=".392157"/></linearGradient><radialGradient id="g" cx="6.702713" cy="73.615715" fx="11.969189" fy="75.92881" gradientTransform="matrix(1.1067433 0 0 .24210277 7.394318 2.802412)" gradientUnits="userSpaceOnUse" r="7.228416"><stop offset="0"/><stop offset="1" stop-opacity="0"/></radialGradient><g transform="translate(0 2)"><path d="m6 1v1c4.157995.0000752 11.292656-.0000752 12 0v-1c-.707344-.0000752-7.842005.0000752-12 0z" fill="#fff" opacity=".4"/><path d="m6 1v14h12v-14zm1 1h10v12h-10z" fill="url(#b)" opacity=".4"/><path d="m4.78125 7.5-.125.15625-2 2-.15625.125v.21875 7 .5h.5 18 .5v-.5-7-.21875l-.15625-.125-2-2-.125-.15625h-.21875-14z" fill="url(#d)"/><path d="m4.78125 7.5-.125.15625-2 2-.15625.125v.21875 7 .5h.5 18 .5v-.5-7-.21875l-.15625-.125-2-2-.125-.15625h-.21875-14z" fill="none" opacity=".71" stroke="#000"/><path d="m5.4999609 9c3.8955809 0 13.0000591-.0007936 13.0000591-.0007936l.000021-8.4992434s-7.333386 0-13.0000801 0v8.5000021z" fill="url(#c)"/><path d="m3 10h18v1h-18z" fill="#fff" opacity=".2"/><path d="m5.34375 0a.50001093.50001093 0 0 0 -.34375.5v6.5h1v-6c3.9461392.0000956 11.37307-.0000956 12 0v6h1v-6.5a.50001093.50001093 0 0 0 -.5-.5h-13a.50001093.50001093 0 0 0 -.09375 0 .50001093.50001093 0 0 0 -.0625 0z" opacity=".41"/><path d="m5.5 9h13v1h-13z" opacity=".4"/><path d="m5-16h14v1h-14z" fill="#505050" transform="scale(1 -1)"/><path d="m6 14h12v1h-12z" opacity=".2"/><path d="m5 16h14v1h-14z" opacity=".4"/><path d="m19 19.5-.49992-4.50002s-7.333386 0-13.00008 0l-.5 4.50002z" fill="url(#e)"/><path d="m5 14.875-.5 4.5c-.0774428.29945.1908541.634821.5.625h14c.309146.0098.577443-.32555.5-.625l-.5-4.5v.125h-.90625v.5l.25 3.5h-.25v.03125h-11.09375v-.03125h-1.34375l.25-3.5v-.5h-.90625z" opacity=".61"/><path d="m7 16h9v1h-9z" opacity=".2"/></g><g transform="translate(1.1875 1.625)"><path d="m22.8125 20.62498c0 .966509-3.581722 1.75002-8 1.75002s-8-.783511-8-1.75002 3.581722-1.75002 8-1.75002 8 .783511 8 1.75002z" fill="url(#g)" opacity=".15"/><path d="m8.7689166 8.3314164c-1.944242 1.9442416-1.9442419 5.1268256 0 7.0710676 1.7021474 1.702148 4.3536254 1.913541 6.2921454.635292l2.016361 2.01636c.09793.09793.334462.01909.530332-.176776l.707104-.707108c.19587-.195866.274713-.432394.176778-.53033l-2.016361-2.01636c1.278248-1.93852 1.066857-4.589998-.635292-6.2921454-1.944242-1.944242-5.126826-1.9442418-7.0710674-.0000002zm1.4142134 1.4142135c1.179946-1.1799459 3.062695-1.1799453 4.242641.0000002 1.179945 1.1799459 1.179946 3.0626949 0 4.2426409s-3.062695 1.179945-4.242641 0c-1.1799453-1.179946-1.1799458-3.062695 0-4.2426411z" fill="#8cd5ff"/><g fill="none" stroke-linejoin="round"><ellipse cx=".30936" cy="17.091763" rx="3.000001" ry="3.000001" stroke="#002e99" stroke-opacity=".501961" transform="matrix(.70710678 -.70710678 .70710678 .70710678 0 0)"/><path d="m16.30745 11.866695c-.000037 2.210918-1.792447 4.003264-4.003109 4.003303-2.210865.000039-4.0031055-1.792265-4.0030668-4.003163.0000392-2.2108144 1.7923428-4.0029782 4.0032098-4.0030149 2.210661-.0000381 4.003008 1.7920623 4.002968 4.0028769z" opacity=".5" stroke="url(#f)" stroke-linecap="round"/><path d="m8.7689166 8.3314164c-1.944242 1.9442416-1.9442419 5.1268256 0 7.0710676 1.7021474 1.702148 4.3536254 1.913541 6.2921454.635292l2.016361 2.01636c.09793.09793.334463.01909.530332-.176776l.707104-.707108c.195868-.195868.274713-.432394.176778-.53033l-2.016361-2.01636c1.278248-1.93852 1.066857-4.589998-.635292-6.2921454-1.944242-1.944242-5.126826-1.9442418-7.0710674-.0000002z" stroke="#002e99" stroke-opacity=".501961" stroke-width=".999996"/></g><rect fill="#f9c440" height="6.75" rx="1" transform="matrix(.70710678 -.70710678 .70710678 .70710678 0 0)" width="3" x="-1.190642" y="23.341764"/><rect fill="none" height="6.75" rx="1" stroke="#3d211b" stroke-linejoin="round" stroke-opacity=".42" transform="matrix(.70710678 -.70710678 .70710678 .70710678 0 0)" width="3" x="-1.190642" y="23.341764"/><path d="m17.430982 16.286364 4.065851 4.065873" fill="none" stroke="#fff" stroke-opacity=".5"/><circle cx="12.3125" cy="11.875" fill="#fff" opacity=".3" r="2.25"/></g></svg>