<svg height="16" width="16" xmlns="http://www.w3.org/2000/svg" xmlns:xlink="http://www.w3.org/1999/xlink"><linearGradient id="a" gradientUnits="userSpaceOnUse" x1="8.00000222703" x2="8.00000222703" y1="2.35135022973" y2="13.6486509"><stop offset="0" stop-color="#fff"/><stop offset=".06316455" stop-color="#fff" stop-opacity=".235294"/><stop offset=".95056331" stop-color="#fff" stop-opacity=".156863"/><stop offset="1" stop-color="#fff" stop-opacity=".392157"/></linearGradient><radialGradient id="b" cx="8.124302" cy="10.028381" fx="7.594072" gradientTransform="matrix(0 1.5284937 -1.8150432 0 26.201945 -13.417945)" gradientUnits="userSpaceOnUse" r="12.671875"><stop offset="0" stop-color="#54bfec"/><stop offset=".26238" stop-color="#55c1ec"/><stop offset=".704952" stop-color="#3689e6"/><stop offset="1" stop-color="#2b63a0"/></radialGradient><linearGradient id="c" gradientUnits="userSpaceOnUse" x1="8" x2="8" y1="14" y2="2"><stop offset="0" stop-color="#1e74bc"/><stop offset="1" stop-color="#3fa8ea"/></linearGradient><rect fill="url(#b)" height="13.000003" rx="1" width="13.000003" x="1.5" y="1.499997"/><path d="m2.5 2.499997h11v11h-11z" fill="none" opacity=".5" stroke="url(#a)" stroke-linecap="round" stroke-linejoin="round"/><rect fill="none" height="13.000003" opacity=".5" rx="1" stroke="url(#c)" stroke-linecap="round" stroke-linejoin="round" width="13.000003" x="1.5" y="1.499997"/><g fill="#fff" stroke-width=".5" transform="matrix(.79316328 .60900905 -.60900905 .79316328 -451.803448 -936.621723)"><path d="m938.91406 463.37305c-1.61696.0774-2.91718 1.15751-3.95312 2.60351-.51712.72241-.46855 1.79568.11133 2.46875.47431.55056 1.24938.68991 1.95507.53711-.21752.25282-.42655.58109-.43945 1.10938l-.0879 3.61132a1.0042061 1.0042061 0 0 0 0 .002c-.0125.51953.16793.92077.38086 1.25195s.44147.60205.85547.80664c.53544.26462 1.06836.23633 1.06836.23633l-.0547.002h1.45703s.52954.0267 1.06836-.24609c.38814-.19654.61895-.45575.82813-.77148.20917-.31574.38457-.6957.39648-1.1836l.0879-3.61133a1.0042061 1.0042061 0 0 0 0-.002c.009-.38682-.12427-.65899-.26562-.89844.93908-.14125 1.76552-.93925 1.76562-1.89844v-2c-.00012-1.0472-.95279-1.99987-2-2h-.75c-.2406-.00003-.45452.12429-.67969.20899-.42326-.10873-1.02244-.26109-1.74414-.22656z" fill="#2e8ed3" opacity=".1"/><path d="m938.96289 464.37695c-1.19287.0571-2.24132.86562-3.18555 2.1836a.99620457.99620457 0 0 0 1.26368 1.46679s.54109-.24271.89843-.27929c.17868-.0183.23545.0277.17774-.0137-.0577-.0413-.0254-.13517-.0254.17382v1.4043c-.22575.2211-.49187.47163-.5.80469l-.0879 3.61133c-.0112.46477.37534.98532.67773 1.13476s.56836.13477.56836.13477h1.5s.27485.0119.57227-.13867c.29741-.15059.66287-.63529.67382-1.08399l.0879-3.61133c.008-.34311-.26878-.60549-.5-.83789v-.97265a.99620457.99620457 0 0 0 .25391.0332h.75a.99620457.99620457 0 0 0 .99609-.9961v-2a.99620457.99620457 0 0 0 -.99609-.99609h-.75a.99620457.99620457 0 0 0 -.55664.16992l-.11719.0801c-.10536-.0313-.10268-.0365-.23437-.0703-.41138-.10578-.90481-.22416-1.4668-.19727z" fill="#2e8ed3" opacity=".25"/><path d="m936.58811 467.14008s2.5-1.2785 2.5.7685v1.9815h-.25s-.2439.00008-.25.25l-.08811 3.61092c-.006.24993.25.25.25.25h1.5s.2439-.00007.25-.25l.0881-3.61092c.006-.24992-.25-.25-.25-.25h-.25v-2.093c.005-.2335.145-.86.7425-.86l.5075.453h.75v-2h-.75l-.5075.343s-1.12-.395-1.82-.3615-1.5825.596-2.4225 1.7685z" fill="#fff"/></g></svg>