<svg height="42" viewBox="0 0 12.170833 11.1125" width="46" xmlns="http://www.w3.org/2000/svg" xmlns:xlink="http://www.w3.org/1999/xlink"><linearGradient id="a" gradientUnits="userSpaceOnUse" x1="2.39271304277" x2="2.49811510394" y1="3.10469514214" y2="4.03746356372"><stop offset="0" stop-color="#ffa154"/><stop offset="1" stop-color="#f37329" stop-opacity=".985965"/></linearGradient><linearGradient id="b" gradientTransform="matrix(.22895189 0 0 .16518996 .387615 1.346729)" gradientUnits="userSpaceOnUse" x1="10.557" x2="10.9" y1="11.323" y2="16.716"><stop offset="0" stop-color="#0d0d0d"/><stop offset="1" stop-color="#727272"/></linearGradient><linearGradient id="c" gradientTransform="matrix(.08504502 0 0 -.09701477 .56224 .004498)" gradientUnits="userSpaceOnUse" x1="12.055502" x2="12.055502" y1="-28.589741" y2="-5.408133"><stop offset="0" stop-color="#fff"/><stop offset=".063" stop-color="#fff" stop-opacity=".235"/><stop offset=".41176471" stop-color="#fff" stop-opacity=".388"/><stop offset=".41176471" stop-color="#fff" stop-opacity=".54"/><stop offset=".52941179" stop-color="#fff" stop-opacity=".345"/><stop offset=".5625" stop-color="#fff" stop-opacity=".157"/><stop offset="1" stop-color="#fff" stop-opacity=".392"/></linearGradient><linearGradient id="d" gradientTransform="matrix(.09701477 0 0 -.10748698 .269081 -.252148)" gradientUnits="userSpaceOnUse" x1="27.226116" x2="26" y1="-3.576615" y2="-39.125"><stop offset="0" stop-color="#e2b369"/><stop offset="1" stop-color="#c79b55"/></linearGradient><linearGradient id="e" gradientTransform="matrix(0 .28097 .3277 0 1.52 .748)" gradientUnits="userSpaceOnUse" x1="20.797001" x2="37.473999" y1="20.649" y2="20.649"><stop offset="0" stop-color="#fff"/><stop offset=".512" stop-color="#fff" stop-opacity=".235"/><stop offset=".585" stop-color="#fff" stop-opacity=".157"/><stop offset="1" stop-color="#fff" stop-opacity=".392"/></linearGradient><linearGradient id="f" gradientTransform="matrix(.07398544 0 0 -.06343385 .270404 3.630083)" gradientUnits="userSpaceOnUse" x1="25.469" x2="25.469" y1="32.841" y2="2.724"><stop offset="0" stop-color="#d1ff82"/><stop offset=".262" stop-color="#9bdb4d"/><stop offset=".661" stop-color="#68b723"/><stop offset="1" stop-color="#3a9104"/></linearGradient><radialGradient id="g" cx="24.837" cy="36.421001" gradientTransform="matrix(-.06765396 0 0 -.04657725 3.532981 4.671748)" gradientUnits="userSpaceOnUse" r="15.645"><stop offset="0"/><stop offset="1" stop-opacity="0"/></radialGradient><linearGradient id="h" gradientTransform="matrix(.05005917 0 0 .06435725 1.444625 .836612)" gradientUnits="userSpaceOnUse" x1="24" x2="24" xlink:href="#j" y1="7.556" y2="40.444"/><linearGradient id="i"><stop offset="0" stop-color="#fff"/><stop offset="0" stop-color="#fff" stop-opacity=".235"/><stop offset="1" stop-color="#fff" stop-opacity=".157"/><stop offset="1" stop-color="#fff" stop-opacity=".392"/></linearGradient><linearGradient id="j" xlink:href="#i"/><linearGradient id="k" gradientTransform="matrix(.06803496 0 0 .06323542 1.013354 .766498)" gradientUnits="userSpaceOnUse" x1="25.132" x2="25.132" xlink:href="#l" y1=".985" y2="47.013"/><linearGradient id="l"><stop offset="0" stop-color="#f4f4f4"/><stop offset="1" stop-color="#dbdbdb"/></linearGradient><linearGradient id="m" gradientTransform="matrix(.05493808 0 0 .059182 5.055129 .695854)" gradientUnits="userSpaceOnUse" x1="-51.785999" x2="-51.785999" xlink:href="#n" y1="50.785999" y2="2.906"/><linearGradient id="n"><stop offset="0" stop-color="#a0a0a0"/><stop offset="1" stop-color="#bebebe"/></linearGradient><linearGradient id="o" gradientTransform="matrix(.05005917 0 0 .06435725 .386292 .042863)" gradientUnits="userSpaceOnUse" x1="24" x2="24" xlink:href="#j" y1="7.556" y2="40.444"/><linearGradient id="p" gradientTransform="matrix(.06803496 0 0 .06323542 -.044979 -.027252)" gradientUnits="userSpaceOnUse" x1="25.132" x2="25.132" xlink:href="#l" y1=".985" y2="47.013"/><linearGradient id="q" gradientTransform="matrix(.05493808 0 0 .059182 3.996796 -.097896)" gradientUnits="userSpaceOnUse" x1="-51.785999" x2="-51.785999" xlink:href="#n" y1="50.785999" y2="2.906"/><linearGradient id="r" gradientTransform="matrix(.4054 0 0 .5135 .266 -2.324)" gradientUnits="userSpaceOnUse" x1="24.010853" x2="24.010853" xlink:href="#i" y1="8.420643" y2="29.842258"/><linearGradient id="s" gradientTransform="matrix(.1253375 -.06357631 .06357631 .1253375 -2.398227 .578155)" gradientUnits="userSpaceOnUse" x1="24" x2="24" xlink:href="#t" y1="22" y2="26"/><linearGradient id="t"><stop offset="0" stop-color="#fff"/><stop offset="1" stop-color="#c1c1c1"/></linearGradient><linearGradient id="u" gradientTransform="matrix(3.6415332 1.0119605 -1.0119605 3.6415332 4.760432 -10.827302)" gradientUnits="userSpaceOnUse" x1="2.027828" x2="3.185315" y1="3.995011" y2="4.434366"><stop offset="0" stop-color="#ff8c82"/><stop offset=".31209752" stop-color="#ed5353"/><stop offset=".57054454" stop-color="#c6262e"/><stop offset="1" stop-color="#a10705"/></linearGradient><linearGradient id="v" gradientTransform="matrix(-3.6415331 -1.0119607 1.0119607 -3.6415331 19.739567 18.327303)" gradientUnits="userSpaceOnUse" x1="3.230561" x2="1.906501" xlink:href="#t" y1="4.55868" y2="4.231917"/><radialGradient id="w" cx="8" cy="4.999986" gradientTransform="matrix(.3028475 0 0 .30284607 -.306113 -.306089)" gradientUnits="userSpaceOnUse" r="4.805086"><stop offset="0" stop-color="#7a8498"/><stop offset="1" stop-color="#34405c"/></radialGradient><linearGradient id="x" gradientUnits="userSpaceOnUse" x1="7.476259" x2="7.476259" y1="1.263739" y2="14.806796"><stop offset="0" stop-color="#fff"/><stop offset=".42447853" stop-color="#fff" stop-opacity=".235294"/><stop offset=".82089913" stop-color="#fff" stop-opacity=".156863"/><stop offset="1" stop-color="#fff" stop-opacity=".392157"/></linearGradient><linearGradient id="y" gradientTransform="matrix(.31194295 0 0 .31194147 -20.72549 -2.159155)" gradientUnits="userSpaceOnUse" x1="92.696327" x2="92.696327" y1="16.554602" y2="48.983677"><stop offset="0" stop-color="#fff"/><stop offset=".33799788" stop-color="#fff" stop-opacity=".235294"/><stop offset=".61996669" stop-color="#fff" stop-opacity=".156863"/><stop offset="1" stop-color="#fff" stop-opacity=".392157"/></linearGradient><radialGradient id="z" cx="23.896" cy="3.99" gradientTransform="matrix(0 .26096516 -.3444694 0 3.491134 -6.009872)" gradientUnits="userSpaceOnUse" r="20.396999"><stop offset="0" stop-color="#fff"/><stop offset=".26238" stop-color="#ddd"/><stop offset=".66093999" stop-color="#abacae"/><stop offset="1" stop-color="#89898b"/></radialGradient><g stroke-width=".264583" transform="translate(.524404 6.087533)"><path d="m2.7818291.12435417c-.2545291 0-.4609041.24077083-.4611687.53710415 0 .17674167.074877.34210628.1997604.44238338v.3492499h-.7958667c-.1465791 0-.2645833.1180042-.2645833.2645834v.968375h2.6431875v-.9689042c0-.1465792-.1180042-.2645833-.2645833-.2645833h-.790575v-.3545417c.1217083-.10054165.1939395-.26352498.1942041-.43709164 0-.29633333-.206375-.53657499-.460375-.53710416z" display="block" fill="url(#d)" stroke="#8a5b0f" stroke-opacity=".784"/><path d="m2.7813.39158333c-.078317.00052917-.1931459.10900833-.1931459.26987499 0 .0992187.047625.19235209.099483.23415625.051329.041275.085725.10054167.096044.16536463.00979-.0661459.043392-.12567713.094456-.16801046.051329-.0423333.097102-.13387917.097102-.23151042 0-.16086666-.1150937-.26934582-.1931458-.26987499zm.00265 1.10198957c-.0195834.130175-.1383813.2262187-.2704084.2262187h-.79375v1.3229167l2.1253979-.0074083-.0089958-1.3149792-.7934854-.0005292c-.1314979-.0000876-.238125-.0960437-.2584979-.2262187z" display="block" fill="none" opacity=".73" stroke="url(#c)"/><path d="m4.1010416 3.0427083-.00265-.7858125-2.6431875-.00794v.79375z" display="block" fill="#e9e9e9" stroke="#8c8c8c"/><path d="m1.5875 2.6458333c-.0105834-.1672167.0550333-.2735792.2645833-.2645833h1.8520833c.1225021.0195791.2492375.0306916.2645834.2645833h-2.1166667z" fill="#fff"/><path d="m1.3229166 3.175h2.9104167v1.0583333h-2.9104167z" fill="url(#b)"/><path d="m.85566249 3.5620854-.75591457.2659062c-.14419792.0508.19579166.27305 1.05118958.27305h1.4086416c.5225521 0 .9027584-.00953 1.1604625-.1053042.097896-.036512.206375-.2944812.206375-.3466041 0-.1825625-.6662208-.088371-1.2871979-.089165l-.2434166-.0005288-.2791355.0026459c-.4736041-.0608542-.3772958.1640416-.50165-.0933979-.2497666.1121833-.3137958-.2883959-.4180416-.0820209-.0455083.0740834-.21695835.1767417-.34131251.1754188z" fill="url(#a)" fill-rule="evenodd" stroke="#a62100" stroke-linejoin="round" stroke-opacity=".501961"/></g><g transform="translate(.79375 .79375)"><g stroke-width=".264583"><path d="m.396875.13229166h2.38125v2.91041664h-2.38125z" fill="url(#p)" stroke="url(#q)" stroke-linejoin="round"/><path d="m2.5135416 2.778125h-1.85208328v-2.38125h1.85208328z" fill="none" stroke="url(#o)" stroke-linecap="round"/><path d="m1.0583333.52916666h1.8520833v2.64583334h-1.8520833z" opacity=".05"/><path d="m1.4552083.92604165h2.38125v2.91041665h-2.38125z" fill="url(#k)" stroke="url(#m)" stroke-linejoin="round"/><path d="m3.571875 3.571875h-1.8520834v-2.38125h1.8520834z" fill="none" stroke="url(#h)" stroke-linecap="round"/><path d="m.79454374 2.9755041a1.0583333.72866257 0 1 1 2.11666666 0 1.0583333.72866257 0 0 1 -2.11666666 0z" fill="url(#g)" fill-rule="evenodd" opacity=".141"/><path d="m1.4030854 1.1752792c-.93927082.5841999-.3751792 1.7047103.5820833 1.7047103v.4643438l1.1898313-.8678333-1.1898313-.8106834v.4852459c-.6754812.0246062-.9704916-.5677959-.4876271-.9755188z" display="block" fill="url(#f)"/></g><g fill="none" transform="scale(.26458333)"><path d="m4.62 6.128c-.906.807-.124 4.332 3.883 3.85v.907l1.897-1.525-1.896-1.384v1.122c-4.397.216-4.256-2.423-3.882-2.97z" display="block" opacity=".8" stroke="url(#e)" stroke-miterlimit="7" stroke-width=".964"/><path d="m5.303 4.442c-3.55 2.208-1.418 6.443 2.2 6.443v1.755l4.497-3.28-4.497-3.064v1.834c-2.553.093-3.668-2.146-1.843-3.687z" opacity=".5" stroke="#206b00" stroke-linecap="round" stroke-linejoin="round"/></g></g><g transform="translate(6.879167 .529167)"><path d="m.75882499 3.8364583c.002117.09525.007937.2418291.0904875.2619375.87312501.00529 1.66158331.0007937 2.53470831.00265.089958.00397.093398-.1645708.090488-.2645833z" fill="#505050" stroke="#565656" stroke-linecap="square" stroke-width=".264583"/><g transform="scale(.26458333)"><g stroke-linecap="round"><path d="m.647 6.556.748-3.05 13.216.003.716 3.062z" fill="#4f4f4f" fill-rule="evenodd"/><path d="m1.225 6.517h13.55c.402 0 .725.348.725.78v6.203h-15v-6.203c0-.432.323-.78.725-.78z" fill="#4f4f4f"/><path d="m1.225 6.517h13.55c.402 0 .725.348.725.78v6.203h-15v-6.203c0-.432.323-.78.725-.78z" fill="none" opacity=".71" stroke="#393939" stroke-linejoin="round"/><path d="m12 8h2v2h-2z" fill="#0cceff"/><path d="m.647 6.556.748-3.05 13.216.003.716 3.062z" fill="none" opacity=".7" stroke="#393939" stroke-linecap="butt"/></g><g fill="#e9e9e9"><path d="m13 11v3.506c0 .274-.07.494-.156.494h-9.688c-.086 0-.156-.22-.156-.494v-3.506z"/><path d="m3.5.5h9v5h-9z" stroke="#8c8c8c" stroke-linejoin="round"/><path d="m11.511 4.5h-7.011v-3h7z" fill="none" stroke="url(#r)" stroke-linecap="round"/></g></g></g><g transform="translate(6.879167 6.085417)"><path d="m2.1166666.26458297c-1.0219154 0-1.85208328.83016733-1.85208328 1.85208353 0 1.0219165.83016788 1.8520837 1.85208328 1.8520837 1.0219156 0 1.8520849-.8301672 1.8520834-1.8520837 0-1.0219162-.8301678-1.85208353-1.8520834-1.85208353z" fill="url(#z)" stroke-width=".264583"/><g fill="none" transform="scale(.26458333)"><path d="m14.5 8.0000001c0 3.5898529-2.910146 6.4999999-6.5000066 6.4999999-3.5898477 0-6.4999934-2.910147-6.4999934-6.4999999 0-3.5898535 2.9101457-6.5000001 6.4999934-6.5000001 3.5898606 0 6.5000066 2.9101466 6.5000066 6.5000001z" opacity=".8" stroke="url(#x)" stroke-linecap="round" stroke-linejoin="round"/><path d="m7.9998579.500281c-4.138162 0-7.49985796 3.361693-7.49985796 7.499859s3.36169596 7.49986 7.49985796 7.49986c4.1381621 0 7.4998651-3.361694 7.4998581-7.49986 0-4.138166-3.361696-7.499859-7.4998581-7.499859z" opacity=".7" stroke="#636363"/><path d="m13 8.0012247a5.0000003 4.9999769 0 0 1 -10.0000003 0 5.0000003 4.9999769 0 1 1 10.0000003 0z" opacity=".3" stroke="url(#y)"/></g><path d="m3.571875 2.1169869a1.4552084 1.4552016 0 0 1 -2.91041673 0 1.4552084 1.4552016 0 1 1 2.91041673 0z" fill="url(#w)" stroke="#626262" stroke-opacity=".701961" stroke-width=".302847"/><path d="m3.0964518.78548176a.24336062.24336062 0 0 0 -.1669148.06407878l-1.087789 1.00097246a.24336062.24336062 0 0 0 -.074414.1364258.24336062.24336062 0 0 0 -.0873332.1576131l-.1793172 1.4257529a.24336062.24336062 0 0 0 .1462443.2547646l.091467.038758a.24336062.24336062 0 0 0 .2594159-.044959l1.0929567-1.0035564a.24336062.24336062 0 0 0 .0749308-.1364258.24336062.24336062 0 0 0 .0873331-.1576131l.1793171-1.4081828a.24336062.24336062 0 0 0 -.12299-.24339595l-.0966348-.05374349a.24336062.24336062 0 0 0 -.1162719-.0304891z" fill="#0e141f" opacity=".1" stroke-width=".264583"/><path d="m3.0943846 1.0288778-1.0877888 1.0009724 1.0051065.4609538.1793174-1.4081828zm-1.1730549 1.1461832-.1793172 1.4257528.0914673.0387572 1.0929566-1.0035562z" fill="#0e141f" opacity=".25" stroke-width=".264583"/><g stroke-linecap="round" stroke-linejoin="round" stroke-opacity=".552941" stroke-width="1.36962" transform="matrix(.19318058 0 0 .19318058 -.164516 1.343898)"><path d="m14.629538 5.3193311-5.6552978 5.1935489-.4742411-.200677.9276869-7.3799596z" fill="url(#u)" stroke="#7a0000"/><path d="m9.8704612 2.1806693 5.6295388-5.1806689.500006.2779382-.927686 7.2898006z" fill="url(#v)" stroke="#000"/></g><path d="m2.70462 2.2677252c-.2763403.758268-1.4143815.344055-1.1380412-.4142131.2759433-.7591196 1.4139844-.3449065 1.1380412.4142131z" opacity=".2" stroke-width=".605539"/><path d="m2.3863791 1.9332703a.28107965.28107965 0 0 1 -.5013501.2543052.28107965.28107965 0 1 1 .5013501-.2543052z" fill="url(#s)" stroke-width=".28108"/></g></svg>