<?xml version="1.0" encoding="UTF-8" standalone="no"?>
<svg
   xmlns:dc="http://purl.org/dc/elements/1.1/"
   xmlns:cc="http://creativecommons.org/ns#"
   xmlns:rdf="http://www.w3.org/1999/02/22-rdf-syntax-ns#"
   xmlns:svg="http://www.w3.org/2000/svg"
   xmlns="http://www.w3.org/2000/svg"
   xmlns:xlink="http://www.w3.org/1999/xlink"
   xmlns:sodipodi="http://sodipodi.sourceforge.net/DTD/sodipodi-0.dtd"
   xmlns:inkscape="http://www.inkscape.org/namespaces/inkscape"
   height="24"
   width="24"
   version="1.1"
   id="svg39"
   sodipodi:docname="lc_italic.svg"
   inkscape:version="0.92.4 (unknown)"
   inkscape:export-filename="/home/rizmut/Dokumen/Rizmut/Github/libreoffice-style-elementary/images_elementary/cmd/ca/lc_italic.png"
   inkscape:export-xdpi="96"
   inkscape:export-ydpi="96">
  <metadata
     id="metadata45">
    <rdf:RDF>
      <cc:Work
         rdf:about="">
        <dc:format>image/svg+xml</dc:format>
        <dc:type
           rdf:resource="http://purl.org/dc/dcmitype/StillImage" />
        <dc:title />
      </cc:Work>
    </rdf:RDF>
  </metadata>
  <defs
     id="defs43">
    <radialGradient
       inkscape:collect="always"
       xlink:href="#e"
       id="radialGradient901"
       cx="13"
       cy="7.1586866"
       fx="13"
       fy="7.1586866"
       r="4.4982357"
       gradientTransform="matrix(-2.8499888,2.4367269e-7,-3.7488102e-7,-4.384597,46.00042,34.708198)"
       gradientUnits="userSpaceOnUse" />
    <linearGradient
       inkscape:collect="always"
       xlink:href="#d"
       id="linearGradient926"
       gradientUnits="userSpaceOnUse"
       x1="16"
       y1="44"
       x2="16"
       y2="41"
       gradientTransform="translate(-0.59375003)" />
  </defs>
  <sodipodi:namedview
     pagecolor="#ffffff"
     bordercolor="#666666"
     borderopacity="1"
     objecttolerance="10"
     gridtolerance="10"
     guidetolerance="10"
     inkscape:pageopacity="0"
     inkscape:pageshadow="2"
     inkscape:window-width="1366"
     inkscape:window-height="714"
     id="namedview41"
     showgrid="true"
     inkscape:zoom="9.8333333"
     inkscape:cx="-9.9153477"
     inkscape:cy="5.1901609"
     inkscape:window-x="0"
     inkscape:window-y="28"
     inkscape:window-maximized="1"
     inkscape:current-layer="svg39"
     showguides="false">
    <inkscape:grid
       type="xygrid"
       id="grid852" />
    <sodipodi:guide
       position="-4.5,13"
       orientation="-0.70710678,0.70710678"
       id="guide1012"
       inkscape:locked="false" />
  </sodipodi:namedview>
  <radialGradient
     id="a"
     cx="40"
     cy="43.5"
     gradientTransform="matrix(1,0,0,0.75,-25.446972,9.875)"
     gradientUnits="userSpaceOnUse"
     r="2"
     xlink:href="#b" />
  <linearGradient
     id="b">
    <stop
       offset="0"
       id="stop3" />
    <stop
       offset="1"
       stop-opacity="0"
       id="stop5" />
  </linearGradient>
  <radialGradient
     id="c"
     cx="9"
     cy="43.5"
     gradientTransform="matrix(1,0,0,0.75,-5.1875,9.875)"
     gradientUnits="userSpaceOnUse"
     r="2"
     xlink:href="#b" />
  <linearGradient
     id="d"
     gradientUnits="userSpaceOnUse"
     x1="16"
     x2="16"
     y1="44"
     y2="41">
    <stop
       offset="0"
       stop-opacity="0"
       id="stop9" />
    <stop
       offset=".5"
       id="stop11" />
    <stop
       offset="1"
       stop-opacity="0"
       id="stop13" />
  </linearGradient>
  <radialGradient
     id="e"
     cx="12.279661"
     cy="7.140932"
     gradientTransform="matrix(-3.1675784 .07135103 -.0749702 -3.3513607 51.71176 26.522026)"
     gradientUnits="userSpaceOnUse"
     r="5.015671">
    <stop
       offset="0"
       stop-color="#737373"
       id="stop16" />
    <stop
       offset=".26238"
       stop-color="#636363"
       id="stop18" />
    <stop
       offset=".704952"
       stop-color="#4b4b4b"
       id="stop20" />
    <stop
       offset="1"
       stop-color="#3f3f3f"
       id="stop22" />
  </radialGradient>
  <g
     transform="matrix(0.60518445,0,0,1,6.6927343,-22)"
     id="g31">
    <path
       d="m 14.553028,41 v 3 h 0.5 c 0.831,0 1.5,-0.669 1.5,-1.5 0,-0.831 -0.669,-1.5 -1.5,-1.5 z"
       id="path25"
       style="opacity:0.2;fill:url(#a)"
       inkscape:connector-curvature="0" />
    <path
       d="M 3.21875,41 C 2.4396875,41 1.8125,41.627187 1.8125,42.40625 v 0.1875 C 1.8125,43.372813 2.4396875,44 3.21875,44 H 3.8125 v -3 z"
       id="path27"
       style="opacity:0.2;fill:url(#c)"
       inkscape:connector-curvature="0" />
    <path
       d="m 3.8125,41 h 10.740527 v 3 H 3.8125 Z"
       id="path29"
       style="opacity:0.2;fill:url(#linearGradient926)"
       inkscape:connector-curvature="0"
       sodipodi:nodetypes="ccccc" />
  </g>
  <g
     aria-label="C"
     transform="scale(1.0151046,0.98512018)"
     style="font-style:normal;font-weight:normal;font-size:39.44589615px;line-height:1.25;font-family:sans-serif;letter-spacing:0px;word-spacing:0px;fill:url(#radialGradient901);fill-opacity:1;stroke:#000000;stroke-width:1;stroke-miterlimit:4;stroke-dasharray:none;stroke-opacity:0.6"
     id="text856">
    <path
       d="m 14.051669,6.3423628 q -1.154851,0 -2.180186,0.4425131 -1.025336,0.4317201 -1.856397,1.2519883 -0.8310611,0.8202682 -1.4246762,1.9967058 -0.5936151,1.176437 -0.8958192,2.655078 -0.3022041,1.521814 -0.226653,2.709044 0.086344,1.176437 0.5612361,1.985912 0.4748921,0.809475 1.3383323,1.230402 0.874233,0.420928 2.147807,0.420928 0.960578,0 1.856397,-0.183481 0.906612,-0.194275 1.791638,-0.442514 l -0.345376,1.748467 q -0.453306,0.161895 -0.906612,0.291411 -0.442513,0.118723 -0.917405,0.194274 -0.474892,0.07555 -1.003749,0.10793 -0.528858,0.04317 -1.165645,0.04317 -1.7700521,0 -2.9464894,-0.582822 Q 6.7016344,19.628549 6.0648473,18.560041 5.4280601,17.491534 5.3201301,15.991307 5.2122001,14.49108 5.5791622,12.667062 5.9353312,10.875424 6.7016344,9.3859895 7.4679376,7.8965552 8.5904098,6.8280479 9.723675,5.7595407 11.191523,5.1659256 q 1.467849,-0.5936151 3.216315,-0.5936151 1.165644,0 2.169394,0.237446 1.014542,0.2374461 1.770052,0.6907522 L 17.170847,7.184217 Q 16.566439,6.8388409 15.810928,6.5906019 15.066211,6.3423628 14.051669,6.3423628 Z"
       style="font-style:italic;font-variant:normal;font-weight:normal;font-stretch:normal;font-size:22.10406876px;font-family:'Droid Sans';-inkscape-font-specification:'Droid Sans';fill:url(#radialGradient901);fill-opacity:1;stroke:#000000;stroke-width:1;stroke-miterlimit:4;stroke-dasharray:none;stroke-opacity:0.6"
       id="path836" />
  </g>
  <path
     style="font-style:normal;font-weight:normal;font-size:39.44589615px;line-height:1.25;font-family:sans-serif;letter-spacing:0px;word-spacing:0px;fill:#ffffff;fill-opacity:1;stroke:none;stroke-width:0.99999999;stroke-miterlimit:4;stroke-dasharray:none;stroke-opacity:0.91860467;opacity:0.2;"
     d="M 14.625 4.5039062 C 13.441749 4.5039062 12.354675 4.6999889 11.361328 5.0898438 C 10.367982 5.4796986 9.487625 6.0248238 8.7207031 6.7265625 C 7.9610853 7.4283012 7.3213196 8.2679125 6.8027344 9.2460938 C 6.2841491 10.224275 5.9050951 11.301863 5.6640625 12.478516 C 5.4157259 13.676433 5.3273504 14.768637 5.4003906 15.753906 C 5.401743 15.772149 5.4047749 15.788495 5.40625 15.806641 C 5.4471382 15.226764 5.5312394 14.619223 5.6640625 13.978516 C 5.9050951 12.801863 6.2841491 11.724275 6.8027344 10.746094 C 7.3213196 9.7679126 7.9610853 8.9283012 8.7207031 8.2265625 C 9.487625 7.5248238 10.367982 6.9796986 11.361328 6.5898438 C 12.354675 6.1999889 13.441749 6.0039062 14.625 6.0039062 C 15.413834 6.0039063 16.148851 6.0823393 16.828125 6.2382812 C 17.182796 6.3188375 17.510467 6.4206757 17.818359 6.5390625 L 18.625 5.4179688 C 18.113719 5.1202614 17.514703 4.8942232 16.828125 4.7382812 C 16.148851 4.5823393 15.413834 4.5039062 14.625 4.5039062 z M 7.6054688 15.375 C 7.5641099 15.834297 7.5537742 16.266832 7.5800781 16.667969 C 7.6385103 17.44059 7.8290139 18.09338 8.1503906 18.625 C 8.4717674 19.15662 8.9254442 19.561448 9.5097656 19.837891 C 10.101391 20.114333 10.827579 20.251953 11.689453 20.251953 C 12.339511 20.251953 12.967985 20.190813 13.574219 20.070312 C 14.079098 19.96532 14.575326 19.83993 15.070312 19.710938 L 15.392578 18.134766 C 14.793649 18.297796 14.187756 18.442724 13.574219 18.570312 C 12.967985 18.690813 12.339511 18.751953 11.689453 18.751953 C 10.827579 18.751953 10.101391 18.614333 9.5097656 18.337891 C 8.9254442 18.061448 8.4717674 17.65662 8.1503906 17.125 C 7.8588957 16.64281 7.6806433 16.055458 7.6054688 15.375 z "
     id="text1046" />
</svg>
