<?xml version="1.0" encoding="UTF-8" standalone="no"?>
<svg
   xmlns:dc="http://purl.org/dc/elements/1.1/"
   xmlns:cc="http://creativecommons.org/ns#"
   xmlns:rdf="http://www.w3.org/1999/02/22-rdf-syntax-ns#"
   xmlns:svg="http://www.w3.org/2000/svg"
   xmlns="http://www.w3.org/2000/svg"
   xmlns:xlink="http://www.w3.org/1999/xlink"
   xmlns:sodipodi="http://sodipodi.sourceforge.net/DTD/sodipodi-0.dtd"
   xmlns:inkscape="http://www.inkscape.org/namespaces/inkscape"
   height="24"
   width="24"
   version="1.1"
   id="svg51"
   sodipodi:docname="lc_underlinedouble.svg"
   inkscape:version="0.92.4 (unknown)"
   inkscape:export-filename="/home/rizmut/Dokumen/Rizmut/Github/libreoffice-style-elementary/images_elementary/cmd/ca/lc_underlinedouble.png"
   inkscape:export-xdpi="96"
   inkscape:export-ydpi="96">
  <metadata
     id="metadata57">
    <rdf:RDF>
      <cc:Work
         rdf:about="">
        <dc:format>image/svg+xml</dc:format>
        <dc:type
           rdf:resource="http://purl.org/dc/dcmitype/StillImage" />
        <dc:title />
      </cc:Work>
    </rdf:RDF>
  </metadata>
  <defs
     id="defs55">
    <radialGradient
       inkscape:collect="always"
       xlink:href="#a"
       id="radialGradient876"
       cx="10.779233"
       cy="4.3337016"
       fx="10.779233"
       fy="4.3337016"
       r="4.989573"
       gradientTransform="matrix(-1.8645699,-0.06934735,0.09819771,-2.8633173,30.452306,13.156274)"
       gradientUnits="userSpaceOnUse" />
    <linearGradient
       id="b-2"
       gradientTransform="matrix(1,0,0,0.66667,1,9.9999)"
       gradientUnits="userSpaceOnUse"
       x1="12"
       x2="12"
       xlink:href="#a"
       y1="22" />
    <linearGradient
       id="linearGradient921">
      <stop
         offset="0"
         stop-color="#555"
         id="stop2-1" />
      <stop
         offset="1"
         stop-color="#666"
         id="stop4-5" />
    </linearGradient>
    <linearGradient
       id="b-9"
       gradientTransform="matrix(1,0,0,0.66667,1,9.9999)"
       gradientUnits="userSpaceOnUse"
       x1="12"
       x2="12"
       xlink:href="#linearGradient921"
       y1="22" />
    <linearGradient
       id="j-4"
       gradientUnits="userSpaceOnUse"
       x1="14"
       x2="14"
       xlink:href="#d"
       y1="25"
       y2="22" />
    <linearGradient
       id="linearGradient959">
      <stop
         offset="0"
         stop-opacity="0"
         id="stop13-9" />
      <stop
         offset=".5"
         id="stop15-1" />
      <stop
         offset="1"
         stop-opacity="0"
         id="stop17-0" />
    </linearGradient>
    <radialGradient
       id="i-7"
       cx="9"
       cy="43.5"
       gradientTransform="matrix(1,0,0,0.75,-6,-9.125)"
       gradientUnits="userSpaceOnUse"
       r="2"
       xlink:href="#c" />
    <linearGradient
       id="linearGradient964">
      <stop
         offset="0"
         id="stop8-5" />
      <stop
         offset="1"
         stop-opacity="0"
         id="stop10-8" />
    </linearGradient>
    <radialGradient
       id="h-7"
       cx="40"
       cy="43.5"
       gradientTransform="matrix(1,0,0,0.75,-20,-9.125)"
       gradientUnits="userSpaceOnUse"
       r="2"
       xlink:href="#c" />
  </defs>
  <sodipodi:namedview
     pagecolor="#ffffff"
     bordercolor="#666666"
     borderopacity="1"
     objecttolerance="10"
     gridtolerance="10"
     guidetolerance="10"
     inkscape:pageopacity="0"
     inkscape:pageshadow="2"
     inkscape:window-width="1366"
     inkscape:window-height="714"
     id="namedview53"
     showgrid="true"
     inkscape:zoom="22.627417"
     inkscape:cx="9.9913448"
     inkscape:cy="4.3043321"
     inkscape:window-x="0"
     inkscape:window-y="28"
     inkscape:window-maximized="1"
     inkscape:current-layer="svg51"
     inkscape:snap-global="false">
    <inkscape:grid
       type="xygrid"
       id="grid864" />
  </sodipodi:namedview>
  <linearGradient
     id="a">
    <stop
       offset="0"
       stop-color="#555"
       id="stop2" />
    <stop
       offset="1"
       stop-color="#666"
       id="stop4" />
  </linearGradient>
  <linearGradient
     id="b"
     gradientUnits="userSpaceOnUse"
     x1="13"
     x2="13"
     xlink:href="#a"
     y1="25"
     y2="3" />
  <linearGradient
     id="c">
    <stop
       offset="0"
       id="stop8" />
    <stop
       offset="1"
       stop-opacity="0"
       id="stop10" />
  </linearGradient>
  <linearGradient
     id="d">
    <stop
       offset="0"
       stop-opacity="0"
       id="stop13" />
    <stop
       offset=".5"
       id="stop15" />
    <stop
       offset="1"
       stop-opacity="0"
       id="stop17" />
  </linearGradient>
  <radialGradient
     id="e"
     cx="40"
     cy="43.5"
     gradientTransform="matrix(.87733142 0 0 .75 -17.142285 -11.625)"
     gradientUnits="userSpaceOnUse"
     r="2"
     xlink:href="#c" />
  <radialGradient
     id="f"
     cx="9"
     cy="43.5"
     gradientTransform="matrix(.87733142 0 0 .75 -1.350319 -11.625)"
     gradientUnits="userSpaceOnUse"
     r="2"
     xlink:href="#c" />
  <linearGradient
     id="g"
     gradientTransform="matrix(.87733142 0 0 1 -5.736976 -22.5)"
     gradientUnits="userSpaceOnUse"
     x1="25"
     x2="25"
     xlink:href="#d"
     y1="45"
     y2="42" />
  <radialGradient
     id="h"
     cx="40"
     cy="43.5"
     gradientTransform="matrix(1 0 0 .75 -20 -9.125)"
     gradientUnits="userSpaceOnUse"
     r="2"
     xlink:href="#c" />
  <radialGradient
     id="i"
     cx="9"
     cy="43.5"
     gradientTransform="matrix(1 0 0 .75 -6 -9.125)"
     gradientUnits="userSpaceOnUse"
     r="2"
     xlink:href="#c" />
  <linearGradient
     id="j"
     gradientUnits="userSpaceOnUse"
     x1="14"
     x2="14"
     xlink:href="#d"
     y1="25"
     y2="22" />
  <linearGradient
     id="k"
     gradientUnits="userSpaceOnUse"
     x1="12.046913"
     x2="11.445407"
     xlink:href="#a"
     y1="25.559875"
     y2="4.349593" />
  <g
     id="g995"
     transform="translate(0,-1)">
    <text
       transform="scale(1.0204808,0.97993027)"
       id="text868"
       y="18.648344"
       x="5.5697851"
       style="font-style:normal;font-weight:normal;font-size:23.62692642px;line-height:1.25;font-family:sans-serif;letter-spacing:0px;word-spacing:0px;fill:url(#radialGradient876);fill-opacity:1;stroke:#000000;stroke-width:1;stroke-miterlimit:4;stroke-dasharray:none;stroke-opacity:0.6"
       xml:space="preserve"><tspan
         style="font-style:normal;font-variant:normal;font-weight:normal;font-stretch:normal;font-family:'Droid Sans';-inkscape-font-specification:'Droid Sans';fill:url(#radialGradient876);fill-opacity:1;stroke:#000000;stroke-width:1;stroke-miterlimit:4;stroke-dasharray:none;stroke-opacity:0.6"
         y="18.648344"
         x="5.5697851"
         id="tspan866"
         sodipodi:role="line">S</tspan></text>
    <path
       id="text880"
       d="m 12.289062,1.5078125 c -0.761311,0 -1.459968,0.094786 -2.095703,0.2832031 C 9.5654733,1.9794331 9.0235768,2.2554259 8.5683594,2.6171875 8.113142,2.9714124 7.7589669,3.4077021 7.5078125,3.9277344 c -0.2511544,0.5200322 -0.375,1.1121611 -0.375,1.7753906 0,0.318021 0.018983,0.6185557 0.058594,0.9023438 C 7.2458187,6.183758 7.3363692,5.7827193 7.5078125,5.4277344 7.7589669,4.9077021 8.113142,4.4714124 8.5683594,4.1171875 9.0235768,3.7554259 9.5654733,3.4794331 10.193359,3.2910156 c 0.635735,-0.1884175 1.334392,-0.2832031 2.095703,-0.2832031 0.933981,0 1.773917,0.088375 2.519532,0.2617187 0.516621,0.1148847 0.978521,0.2619064 1.416015,0.4238282 L 16.796875,2.4140625 C 16.21608,2.150278 15.554208,1.9353386 14.808594,1.7695312 14.062979,1.5961872 13.223043,1.5078125 12.289062,1.5078125 Z M 9.3515625,6.5507812 c -0.059905,0.20986 -0.099609,0.4296252 -0.099609,0.6738282 0,0.4295918 0.058053,0.8025992 0.1757813,1.1191406 0.1177286,0.3090047 0.3131904,0.5933616 0.5878906,0.8496094 0.2747,0.2487111 0.636616,0.4848365 1.083984,0.7109375 0.455218,0.2185641 1.012595,0.4524611 1.671875,0.7011721 0.714221,0.271321 1.337391,0.549543 1.871094,0.835937 0.541552,0.286395 0.992481,0.610895 1.353516,0.972656 0.361034,0.361762 0.631983,0.781048 0.8125,1.25586 0.110216,0.277821 0.178882,0.594472 0.224609,0.93164 0.03467,-0.240677 0.05859,-0.488347 0.05859,-0.748046 0,-0.648157 -0.09484,-1.208782 -0.283203,-1.683594 -0.180517,-0.474812 -0.451466,-0.894098 -0.8125,-1.25586 C 15.635059,10.552301 15.18413,10.227801 14.642578,9.9414062 14.108875,9.6550117 13.485705,9.3767899 12.771484,9.1054688 12.112204,8.8567577 11.554827,8.6228612 11.099609,8.4042969 10.652241,8.1781959 10.290325,7.9420705 10.015625,7.6933594 9.7409248,7.4371116 9.545463,7.1527547 9.4277344,6.84375 9.3942692,6.7537708 9.375515,6.6498952 9.3515625,6.5507812 Z m 5.4863285,8.2343748 c -0.129903,0.495849 -0.391327,0.906035 -0.806641,1.216797 -0.596492,0.452202 -1.523525,0.677735 -2.779297,0.677735 -0.392429,0 -0.789176,-0.02537 -1.189453,-0.07813 C 9.6622226,16.541269 9.2751691,16.46544 8.8984375,16.375 8.5217059,16.28456 8.1597905,16.183363 7.8144531,16.070312 7.4769644,15.949725 7.1750547,15.827618 6.9082031,15.707031 v 1.5 c 0.2668516,0.120587 0.5687613,0.242694 0.90625,0.363281 0.3453374,0.113051 0.7072528,0.214248 1.0839844,0.304688 0.3767316,0.09044 0.7637851,0.166269 1.1640625,0.226562 0.400277,0.05276 0.797024,0.07813 1.189453,0.07813 1.255772,0 2.182805,-0.225533 2.779297,-0.677735 0.60434,-0.452202 0.90625,-1.101202 0.90625,-1.945312 0,-0.286706 -0.04118,-0.537143 -0.09961,-0.771485 z"
       style="font-style:normal;font-weight:normal;font-size:23.62692642px;line-height:1.25;font-family:sans-serif;letter-spacing:0px;word-spacing:0px;opacity:0.2;fill:#ffffff;fill-opacity:1;stroke:none;stroke-width:0.59067315;stroke-opacity:0.57751938"
       inkscape:connector-curvature="0" />
  </g>
  <g
     transform="translate(1.162529e-8,-3)"
     id="g59">
    <path
       style="fill:url(#b-2)"
       inkscape:connector-curvature="0"
       d="m 2.5,22.333 v 1.3333 h 19 V 22.333 Z"
       id="path53" />
    <path
       style="opacity:0.61000001;fill:none;stroke:#000000;stroke-width:0.78412002"
       inkscape:connector-curvature="0"
       d="m 2.3921,22.392 v 1.2159 h 19.216 V 22.392 Z"
       id="path55" />
    <path
       style="opacity:0.2;fill:#ffffff"
       inkscape:connector-curvature="0"
       d="m 3,22.5 v 1 h 18 v -1 z"
       id="path57" />
  </g>
  <g
     id="g863">
    <path
       id="path33"
       d="m 2.5,22.333 v 1.3333 h 19 V 22.333 Z"
       style="fill:url(#b-9)"
       inkscape:connector-curvature="0" />
    <path
       id="path35"
       d="m 2.3921,22.392 v 1.2159 h 19.216 V 22.392 Z"
       style="opacity:0.61000001;fill:none;stroke:#000000;stroke-width:0.78412002"
       inkscape:connector-curvature="0" />
    <path
       id="path37"
       d="m 3,22.5 v 1 h 18 v -1 z"
       style="opacity:0.2;fill:#ffffff"
       inkscape:connector-curvature="0" />
  </g>
</svg>
