<svg xmlns="http://www.w3.org/2000/svg" xmlns:xlink="http://www.w3.org/1999/xlink" viewBox="0 0 24 24"><linearGradient id="g" gradientTransform="matrix(.83333 0 0 .83332 8.75 -321.91)" gradientUnits="userSpaceOnUse" x1="12.198" x2="15.699" xlink:href="#a" y1="401.096" y2="404.598"/><linearGradient id="a"><stop offset="0" stop-color="#d3d7cf"/><stop offset="1" stop-color="#fafbfa"/></linearGradient><linearGradient id="h" gradientTransform="matrix(.75 0 0 .75006 9.875 -288.4)" gradientUnits="userSpaceOnUse" x1="12.816" x2="12.816" xlink:href="#b" y1="400.389" y2="406.511"/><linearGradient id="b"><stop offset="0" stop-color="#fff"/><stop offset="1" stop-color="#fff" stop-opacity="0"/></linearGradient><linearGradient id="f" gradientTransform="matrix(.85713 0 0 .85716 12.286 -346.214)" gradientUnits="userSpaceOnUse" x1="-10.834" x2="-6.167" xlink:href="#a" y1="423.159" y2="423.159"/><linearGradient id="c" gradientTransform="matrix(.83333 0 0 .83332 -4.25 -329.91)" gradientUnits="userSpaceOnUse" x1="12.198" x2="15.699" xlink:href="#a" y1="401.096" y2="404.598"/><linearGradient id="d" gradientTransform="matrix(.75 0 0 .75006 -3.125 -296.4)" gradientUnits="userSpaceOnUse" x1="12.816" x2="12.816" xlink:href="#b" y1="400.389" y2="406.511"/><linearGradient id="e" gradientTransform="matrix(.83333 0 0 .83332 -6.25 -316.91)" gradientUnits="userSpaceOnUse" x1="12.198" x2="15.699" xlink:href="#a" y1="401.096" y2="404.598"/><g stroke-linecap="round"><path d="M5 18.505l2-14 13 8z" fill="none" stroke="#555753" stroke-width="2" stroke-linejoin="round"/><path d="M4.5 3h5v5h-5z" fill="url(#c)" stroke="#888a85" stroke-linejoin="round" transform="translate(0 -.495)"/><path d="M5.5 4h3v3h-3z" fill="none" stroke="url(#d)" transform="translate(0 -.495)"/><path d="M2.5 16h5v5h-5z" fill="url(#e)" stroke="#888a85" stroke-linejoin="round" transform="translate(0 -.495)"/><path d="M3.5 17h3v3h-3z" fill="none" stroke="url(#f)" transform="translate(0 -.495)"/><path d="M17.5 11h5v5h-5z" fill="url(#g)" stroke="#888a85" stroke-linejoin="round" transform="translate(0 -.495)"/><path d="M18.5 12h3v3h-3z" fill="none" stroke="url(#h)" transform="translate(0 -.495)"/></g></svg>