<svg xmlns="http://www.w3.org/2000/svg" viewBox="0 0 24 24"><linearGradient id="a" gradientTransform="matrix(1.29412 0 0 1 1.706 -13)" gradientUnits="userSpaceOnUse" x1="-16" x2="1" y1="423.455" y2="423.455"><stop offset="0" stop-color="#555753" stop-opacity="0"/><stop offset=".2" stop-color="#555753"/><stop offset=".8" stop-color="#555753"/><stop offset="1" stop-color="#555753" stop-opacity="0"/></linearGradient><linearGradient id="b" gradientTransform="matrix(1.29412 0 0 1.00524 1.706 -15.21)" gradientUnits="userSpaceOnUse" x1="-16" x2=".587" y1="423.586" y2="423.586"><stop offset="0" stop-color="#babdb6" stop-opacity="0"/><stop offset=".2" stop-color="#babdb6"/><stop offset=".844" stop-color="#babdb6"/><stop offset="1" stop-color="#babdb6" stop-opacity="0"/></linearGradient><linearGradient id="c" gradientTransform="matrix(.97222 0 0 .97222 -21.625 34.18)" gradientUnits="userSpaceOnUse" x1="12.198" x2="15.699" y1="401.096" y2="404.598"><stop offset="0" stop-color="#d3d7cf"/><stop offset="1" stop-color="#fafbfa"/></linearGradient><linearGradient id="d" gradientTransform="matrix(.875 0 0 .875 -20.312 73.31)" gradientUnits="userSpaceOnUse" x1="12.816" x2="12.816" y1="400.389" y2="406.511"><stop offset="0" stop-color="#fff"/><stop offset="1" stop-color="#fff" stop-opacity="0"/></linearGradient><path d="M-19 409H3v3h-22z" fill="url(#a)" transform="translate(19.982 -392.968)"/><path d="M-19 410.005H3v1.005h-22z" fill="url(#b)" transform="translate(19.982 -392.968)"/><g stroke-width="1.167" stroke-linecap="round"><path d="M-11.417 422.583h5.834v5.834h-5.834z" fill="url(#c)" stroke="#888a85" stroke-linejoin="round" transform="translate(19.268 -347.683) scale(.85715)"/><path d="M-10.25 423.75h3.5v3.5h-3.5z" fill="none" stroke="url(#d)" transform="translate(19.268 -347.683) scale(.85715)"/></g><path d="M10.482 3.533v3h-3v3h3v3h3v-3h3v-3h-3v-3z" stroke-miterlimit="3" fill="#fcaf3e" stroke="#ce5c00" stroke-linecap="round" stroke-linejoin="round"/><g opacity=".7" fill="none" stroke="#fff" stroke-linecap="square"><path d="M8.482 7.533h2c.5 0 1-.5 1-1v-2h1M13.482 7.533h2M11.482 9.533v2"/></g></svg>