<svg xmlns="http://www.w3.org/2000/svg" xmlns:xlink="http://www.w3.org/1999/xlink" width="24" height="24"><defs><linearGradient x1="292.857" y1="211.076" x2="292.857" y2="233.827" id="e" xlink:href="#a" gradientUnits="userSpaceOnUse" gradientTransform="matrix(.04846 0 0 .5238 -20.405 -108.176)"/><linearGradient id="a"><stop offset="0"/><stop offset="1" stop-opacity="0"/></linearGradient><linearGradient id="b"><stop offset="0" stop-color="#fff"/><stop offset="1" stop-color="#fff" stop-opacity="0"/></linearGradient><linearGradient x1="731.057" y1="654.815" x2="731.057" y2="619.307" id="d" xlink:href="#c" gradientUnits="userSpaceOnUse" gradientTransform="matrix(.8048 0 0 .60166 -516.818 -396.08)"/><linearGradient id="c"><stop offset="0" stop-color="#55c1ec"/><stop offset="1" stop-color="#3689e6"/></linearGradient></defs>/&gt;<g transform="translate(-1.333 -1.333) scale(1.66667)" color="#000"><rect transform="scale(-1)" y="-14" x="-14" ry="1.716" rx="1.658" height="12" width="12" overflow="visible" opacity=".99" fill="url(#d)"/><rect transform="scale(-1 1)" y="1.701" x="-14.299" ry="2" rx="2" height="12.608" width="12.603" overflow="visible" opacity=".3" fill="none" stroke="#000" stroke-width=".6" stroke-linecap="round" stroke-linejoin="round"/><path d="M11.695 3.57l1.888 1.698L7.24 13.65 2.33 9.42l1.624-2.15 2.87 2.49z" overflow="visible" fill="#2f78c7" fill-opacity=".992"/><path d="M11.695 2.63l1.888 1.7-6.344 8.382-4.91-4.23 1.624-2.15 2.87 2.49z" overflow="visible" fill="#fff"/><rect transform="scale(-1 1)" y="2.296" x="-13.683" ry="1.302" rx="1.604" height="11.404" width="11.384" overflow="visible" opacity=".05" fill="none" stroke="url(#e)" stroke-width=".6" stroke-linecap="round" stroke-linejoin="round"/></g></svg>