<svg xmlns="http://www.w3.org/2000/svg" xmlns:xlink="http://www.w3.org/1999/xlink" height="24" width="24"><defs><linearGradient id="h"><stop offset="0" stop-color="#fff"/><stop offset="1" stop-color="#fff" stop-opacity="0"/></linearGradient><linearGradient id="a"><stop offset="0" stop-opacity=".318"/><stop offset="1" stop-opacity=".24"/></linearGradient><linearGradient id="b"><stop offset="0" stop-color="#fff"/><stop offset="0" stop-color="#fff" stop-opacity=".235"/><stop offset="1" stop-color="#fff" stop-opacity=".157"/><stop offset="1" stop-color="#fff" stop-opacity=".392"/></linearGradient><linearGradient id="c"><stop offset="0" stop-color="#fff"/><stop offset="0" stop-color="#fff" stop-opacity=".235"/><stop offset="1" stop-color="#fff" stop-opacity=".157"/><stop offset="1" stop-color="#fff" stop-opacity=".392"/></linearGradient><linearGradient id="d"><stop offset="0" stop-color="#f4f4f4"/><stop offset="1" stop-color="#dbdbdb"/></linearGradient><linearGradient id="e"><stop offset="0"/><stop offset="1" stop-opacity="0"/></linearGradient><linearGradient id="f"><stop offset="0" stop-opacity="0"/><stop offset=".5"/><stop offset="1" stop-opacity="0"/></linearGradient><linearGradient y2="2.906" x2="-51.786" y1="50.786" x1="-51.786" gradientTransform="matrix(.3746 0 0 .37083 29.393 2.44)" gradientUnits="userSpaceOnUse" id="r" xlink:href="#a"/><linearGradient y2="41.267" x2="24" y1="6.733" x1="24" gradientTransform="matrix(.66892 0 0 .4054 -1.18 3.27)" gradientUnits="userSpaceOnUse" id="q" xlink:href="#b"/><linearGradient y2="41.267" x2="37.633" y1="6.733" x1="37.633" gradientTransform="matrix(.5135 0 0 .4054 -.325 3.27)" gradientUnits="userSpaceOnUse" id="o" xlink:href="#c"/><linearGradient y2="47.013" x2="25.132" y1=".985" x1="25.132" gradientTransform="matrix(.457 0 0 .3477 3.03 4.123)" gradientUnits="userSpaceOnUse" id="n" xlink:href="#d"/><radialGradient r="117.143" fy="486.648" fx="605.714" cy="486.648" cx="605.714" gradientTransform="matrix(.0132 0 0 .0082 13.363 17.98)" gradientUnits="userSpaceOnUse" id="m" xlink:href="#e"/><radialGradient r="117.143" fy="486.648" fx="605.714" cy="486.648" cx="605.714" gradientTransform="matrix(-.0132 0 0 .0082 10.637 17.98)" gradientUnits="userSpaceOnUse" id="l" xlink:href="#e"/><linearGradient y2="609.505" x2="302.857" y1="366.648" x1="302.857" gradientTransform="matrix(.0387 0 0 .0082 -1.997 17.98)" gradientUnits="userSpaceOnUse" id="k" xlink:href="#f"/><linearGradient id="g"><stop offset="0" stop-color="#ffa154"/><stop offset="1" stop-color="#f37329"/></linearGradient><linearGradient gradientUnits="userSpaceOnUse" y2="21.517" x2="4" y1="4.559" x1="4" id="p" xlink:href="#g"/><linearGradient id="s" gradientTransform="matrix(.2166 0 0 .2052 12.963 12.455)" gradientUnits="userSpaceOnUse" x1="34.404" x2="13.759" y1="14.66" y2="46.874"><stop offset="0" stop-color="#fff"/><stop offset="1" stop-color="#fff" stop-opacity="0"/></linearGradient><radialGradient cx="25" cy="28.66" r="16" fx="25" fy="28.66" id="t" xlink:href="#i" gradientUnits="userSpaceOnUse" gradientTransform="matrix(.562 0 0 .158 -8.138 12.842)"/><linearGradient id="i"><stop offset="0" stop-color="#f5f5f5"/><stop offset="1" stop-color="#d2d2d2"/></linearGradient><linearGradient x1="30" y1="25.085" x2="30" y2="45" id="u" xlink:href="#j" gradientUnits="userSpaceOnUse" gradientTransform="matrix(.428 0 0 .423 -4.794 4.252)"/><linearGradient id="j"><stop offset="0" stop-color="#b8b8b8"/><stop offset="1" stop-color="#878787"/></linearGradient><radialGradient cx="26.376" cy="12.313" r="8" fx="26.376" fy="12.313" id="v" xlink:href="#i" gradientUnits="userSpaceOnUse" gradientTransform="matrix(.5525 -.0426 .0432 .5097 -8.273 5.525)"/><linearGradient x1="30" y1="5" x2="30" y2="44.679" id="w" xlink:href="#j" gradientUnits="userSpaceOnUse" gradientTransform="matrix(.337 0 0 .3216 -2.076 7.207)"/><linearGradient x1="30" y1=".918" x2="30" y2="25.793" id="x" xlink:href="#h" gradientUnits="userSpaceOnUse" gradientTransform="matrix(.337 0 0 .3216 -2.076 7.207)"/><linearGradient x1="29.956" y1="21.866" x2="29.956" y2="43.144" id="y" xlink:href="#h" gradientUnits="userSpaceOnUse" gradientTransform="matrix(.428 0 0 .423 -4.794 4.252)"/></defs><path d="M2.65 21h18.7v2H2.65z" overflow="visible" fill="url(#k)" opacity=".15"/><path overflow="visible" fill="url(#l)" opacity=".15" d="M2.65 21v2c-.683.004-1.65-.448-1.65-1s.762-1 1.65-1z"/><path overflow="visible" fill="url(#m)" opacity=".15" d="M21.35 21v2c.683.004 1.65-.448 1.65-1s-.762-1-1.65-1z"/><path fill="url(#n)" d="M5 5h17v16H5V5z"/><path stroke-linecap="square" stroke="url(#o)" fill="none" d="M21.5 20.5h-19v-15h19z"/><path overflow="visible" fill="url(#p)" color="#000" d="M2 4.5c-.277 0-.5.223-.5.5v16c0 .277.223.5.5.5h3v-17z"/><path stroke-linecap="square" stroke="url(#q)" fill="none" opacity=".5" d="M4.5 20.5h-2v-15h2"/><path stroke="#aaa" fill="none" d="M6 7.5h4m1 0h2m1 0h1m1 0h2m-12 4h2m-2 2h1m-1 2h2m-2 2h2m0-4h1m0 4h1"/><path stroke-linejoin="round" stroke="url(#r)" fill="none" overflow="visible" color="#000" d="M5 21.5h17.5v-17H5"/><path overflow="visible" stroke-linejoin="round" stroke="#cc3b02" fill="none" color="#000" opacity=".4" style="font-variant-east_asian:normal" d="M5 21.5H1.5v-17H5"/><path fill="url(#p)" solid-color="#000000" opacity=".5" overflow="visible" color="#000" style="isolation:auto;mix-blend-mode:normal;font-variant-east_asian:normal" d="M20 14a4 4 0 1 1-2.116-3.53L16 14z"/><path fill="url(#p)" solid-color="#000000" opacity=".5" overflow="visible" color="#000" d="M20 14.012c0 1.734-1.26 3.392-2.933 3.854-1.67.463-3.605-.31-4.497-1.798-.007.007 3.43-2.056 3.43-2.056z" style="isolation:auto;mix-blend-mode:normal;font-variant-east_asian:normal"/><path fill="url(#p)" solid-color="#000000" overflow="visible" color="#000" d="M20 14c0 1.734-1.26 3.392-2.933 3.855C17.027 17.848 16 14 16 14z" style="isolation:auto;mix-blend-mode:normal;font-variant-east_asian:normal"/><path d="M13.5 22.5v-10l9 5z" fill="#9cde4a" fill-rule="evenodd" stroke="#5ca12a" stroke-linecap="round" stroke-linejoin="round"/><path d="M14.5 20.778V14.2l5.8 3.28z" opacity=".41" fill="none" stroke="url(#s)" stroke-linecap="round"/><path d="M6.874 14.002c-.08.68.59 2.1.22 2.72-1.446.504-4.05 1.425-4.19 2.03-.1.94-.255 2.31-.374 3.25 2.533 1.368 8.492 1.302 10.938 0-.087-.666-.164-2.584-.25-3.25-.654-.78-2.375-1.237-4.188-2.03-.474-.617.243-1.994.094-2.69-.287-.048-1.96-.022-2.25-.03z" fill="url(#t)" stroke="url(#u)" stroke-linejoin="round" transform="translate(-2.03 .497)"/><path d="M8.03 8.972c-1.395 0-2.53 1.005-2.53 2.25.01.46.058 1.004.343 2.25.168.48 1.673 1.775 1.687 1.936.327.16.85.16 1.188 0 0-.16 1.33-1.455 1.5-1.937.32-1.294.326-1.77.343-2.25 0-1.244-1.134-2.25-2.53-2.25z" fill="url(#v)" stroke="url(#w)" stroke-width=".947" transform="translate(-2.03 .497)"/><path d="M8.03 9.972c-.612-.016-1.267.33-1.47.936-.112.41-.01.837.033 1.25.052.338.113.666.187 1 .194.172.36.398.563.563.263.256.49.52.75.78.268-.216.448-.502.687-.75.153-.18.31-.387.47-.562.156-.71.338-1.422.28-2.156-.125-.686-.847-1.078-1.5-1.06z" fill="none" stroke="url(#x)" stroke-width=".947" transform="translate(-2.03 .497)"/><path d="M8.03 16.565c.04.618-.484 1.1-1.063 1.187-1.06.378-2.165.707-3.124 1.313-.225.54-.105 1.16-.25 1.718-.33.71.57.777 1.03.908 2.257.54 4.653.5 6.907-.03.336-.17 1.138-.086.938-.626-.063-.586-.092-1.19-.126-1.78-.92-.708-2.086-.957-3.124-1.438-.823-.116-.853-.72-1.188-1.25z" fill="none" stroke="url(#y)" stroke-linejoin="round" transform="translate(-2.03 .497)"/></svg>