<svg height="24" viewBox="0 0 24 24" width="24" xmlns="http://www.w3.org/2000/svg" xmlns:xlink="http://www.w3.org/1999/xlink"><linearGradient id="a" gradientTransform="matrix(-.3446422 -.3446423 .3381098 -.3381098 1.734919 34.417716)" gradientUnits="userSpaceOnUse" x1="35.31226" x2="1.331919" y1="66.30397" y2="30.932793"><stop offset="0" stop-color="#f0c1ff"/><stop offset=".26238" stop-color="#c5a3f2"/><stop offset=".704952" stop-color="#7a36b1"/><stop offset="1" stop-color="#4c2d81"/></linearGradient><linearGradient id="b" gradientTransform="matrix(.24324324 0 0 .35135133 2.162164 -.432428)" gradientUnits="userSpaceOnUse" x1="10.908747" x2="10.908747" y1="11.050139" y2="26.965582"><stop offset="0" stop-color="#fff"/><stop offset=".16666667" stop-color="#fff" stop-opacity=".235294"/><stop offset="1" stop-color="#fff" stop-opacity=".156863"/><stop offset="1" stop-color="#fff" stop-opacity=".392157"/></linearGradient><linearGradient id="c" gradientTransform="matrix(.24324324 0 0 .35135133 2.162164 -.432428)" gradientUnits="userSpaceOnUse" x1="24.513784" x2="24.513784" y1="5.855691" y2="19.730726"><stop offset="0" stop-color="#fff"/><stop offset="0" stop-color="#fff" stop-opacity=".235294"/><stop offset="1" stop-color="#fff" stop-opacity=".156863"/><stop offset="1" stop-color="#fff" stop-opacity=".392157"/></linearGradient><linearGradient id="d" gradientTransform="matrix(.25378586 0 0 .30501865 19.128979 -.685477)" gradientUnits="userSpaceOnUse" x1="-53.389248" x2="-51.786404" y1="25.669893" y2="2.906247"><stop offset="0" stop-opacity=".339506"/><stop offset="1" stop-opacity=".246914"/></linearGradient><linearGradient id="e" gradientTransform="matrix(.28571361 0 0 .30419701 1.010328 3.482855)" gradientUnits="userSpaceOnUse" x1="25.132275" x2="26.793295" y1=".985206" y2="18.959322"><stop offset="0" stop-color="#f4f4f4"/><stop offset="1" stop-color="#dbdbdb"/></linearGradient><g transform="matrix(1.33333 0 0 1.33333 -2.656548 -4.500286)"><path d="m2.7424179 4.1252248h6.0000151v6.0000152l-6.0000271.00089z" fill="url(#e)"/><g fill="none" stroke-width=".750002" transform="translate(-.132545 3.25025)"><path d="m8.4999771 6.4999889-5.2500131.0000001v-5.2500131h5.2500131z" stroke="url(#c)" stroke-linecap="round"/><path d="m2.4999621.49997396 6.7500169.00000002.0000131 6.74906282-6.75003.0009541z" stroke="url(#d)" stroke-linejoin="round"/></g><g stroke-linecap="round" stroke-linejoin="round" stroke-width=".610727" transform="matrix(1.2280479 0 0 1.2280479 .657072 8.077078)"><path d="m11.386034 3.1946365c-.386771 1.1952571-2.5242887 3.3105839-3.7805652 3.3112229-.0351889-.0013122-.0703511-.0032657-.1054688-.0058594v3.998047c.035147.0015.070304.0028.1054688.0039 4.0109582-.0048 7.3807052-3.3220442 7.8339842-7.3073105z" fill="url(#a)" stroke="#6326b9" stroke-opacity=".595588"/><path d="m11.813876 3.8077491c-.87873 1.3366651-1.9401476 2.7080153-3.6977766 3.2573527l-.00537 2.8081535.4420041-.04513c1.4373523-.1937472 2.8197155-.8286071 3.8964855-1.7910159 1.009834-.9025811 1.8561-2.4263592 2.234752-3.7356522.070773-.2481273-.115025-.4952097-.373047-.4960938z" fill="none" stroke="url(#b)" stroke-linecap="square"/></g><g stroke="#ce5c00" stroke-width=".750002"><path d="m10.613123 15.523137-2.2500056-2.250006v4.500011z" fill="#fcaf3e" stroke-linecap="round" stroke-linejoin="round"/><path d="m7.9924311 15.750254h-2.6250065l-1.5000038-1.500004v-3.375008.375001" fill="none"/></g></g></svg>