<?xml version="1.0" encoding="UTF-8" standalone="no"?>
<svg
   xmlns:dc="http://purl.org/dc/elements/1.1/"
   xmlns:cc="http://creativecommons.org/ns#"
   xmlns:rdf="http://www.w3.org/1999/02/22-rdf-syntax-ns#"
   xmlns:svg="http://www.w3.org/2000/svg"
   xmlns="http://www.w3.org/2000/svg"
   xmlns:xlink="http://www.w3.org/1999/xlink"
   xmlns:sodipodi="http://sodipodi.sourceforge.net/DTD/sodipodi-0.dtd"
   xmlns:inkscape="http://www.inkscape.org/namespaces/inkscape"
   height="24"
   width="24"
   version="1.1"
   id="svg50"
   sodipodi:docname="lc_choosemacro.svg"
   inkscape:version="0.92.3 (unknown)"
   inkscape:export-filename="/home/rizmut/Dokumen/Rizmut/Github/libreoffice-style-elementary/images_elementary/cmd/lc_choosemacro.png"
   inkscape:export-xdpi="96"
   inkscape:export-ydpi="96">
  <metadata
     id="metadata54">
    <rdf:RDF>
      <cc:Work
         rdf:about="">
        <dc:format>image/svg+xml</dc:format>
        <dc:type
           rdf:resource="http://purl.org/dc/dcmitype/StillImage" />
        <dc:title></dc:title>
      </cc:Work>
    </rdf:RDF>
  </metadata>
  <sodipodi:namedview
     pagecolor="#ffffff"
     bordercolor="#666666"
     borderopacity="1"
     objecttolerance="10"
     gridtolerance="10"
     guidetolerance="10"
     inkscape:pageopacity="0"
     inkscape:pageshadow="2"
     inkscape:window-width="1366"
     inkscape:window-height="706"
     id="namedview52"
     showgrid="false"
     inkscape:zoom="13.906433"
     inkscape:cx="-2.9165548"
     inkscape:cy="13.182086"
     inkscape:window-x="0"
     inkscape:window-y="0"
     inkscape:window-maximized="1"
     inkscape:current-layer="svg50" />
  <defs
     id="defs22">
    <radialGradient
       gradientTransform="matrix(0,0.6154,-0.6695,0,41.292,-38.28)"
       gradientUnits="userSpaceOnUse"
       xlink:href="#g"
       id="e"
       fy="48.189999"
       fx="65.080002"
       r="31"
       cy="48.189999"
       cx="65.080002" />
    <linearGradient
       id="a">
      <stop
         offset="0"
         stop-color="#cdf87e"
         id="stop3" />
      <stop
         offset=".262"
         stop-color="#a2e34f"
         id="stop5" />
      <stop
         offset=".661"
         stop-color="#68b723"
         id="stop7" />
      <stop
         offset="1"
         stop-color="#1d7e0d"
         id="stop9" />
    </linearGradient>
    <linearGradient
       gradientTransform="translate(-.292 -1.32) scale(.3673)"
       gradientUnits="userSpaceOnUse"
       xlink:href="#b"
       id="f"
       y2="35.86"
       x2="17.064"
       y1="24.501"
       x1="24.022" />
    <linearGradient
       id="b">
      <stop
         offset="0"
         stop-color="#fff"
         id="stop13" />
      <stop
         offset=".04"
         stop-color="#fff"
         stop-opacity=".235"
         id="stop15" />
      <stop
         offset=".392"
         stop-color="#fff"
         stop-opacity=".157"
         id="stop17" />
      <stop
         offset="1"
         stop-color="#fff"
         stop-opacity=".392"
         id="stop19" />
    </linearGradient>
    <linearGradient
       id="g"
       gradientTransform="matrix(0.4922,0,0,0.4584,4.51,-4.794)"
       gradientUnits="userSpaceOnUse"
       x1="23.732"
       x2="23.732"
       y1="5.3940001"
       y2="39.735001">
      <stop
         offset="0"
         stop-color="#90dbec"
         id="stop1017" />
      <stop
         offset=".262"
         stop-color="#55c1ec"
         id="stop1019" />
      <stop
         offset=".705"
         stop-color="#3689e6"
         id="stop1021" />
      <stop
         offset="1"
         stop-color="#2b63a0"
         id="stop1023" />
    </linearGradient>
    <linearGradient
       id="h"
       gradientTransform="matrix(0,-0.5372,0.57682,0,-15.997,19.866)"
       gradientUnits="userSpaceOnUse"
       x1="40.958"
       x2="18.681"
       y1="46.971001"
       y2="46.971001">
      <stop
         offset="0"
         stop-color="#fff"
         id="stop1026" />
      <stop
         offset=".45"
         stop-color="#fff"
         stop-opacity=".235"
         id="stop1028" />
      <stop
         offset=".65"
         stop-color="#fff"
         stop-opacity=".157"
         id="stop1030" />
      <stop
         offset="1"
         stop-color="#fff"
         stop-opacity=".392"
         id="stop1032" />
    </linearGradient>
  </defs>
  <radialGradient
     id="c"
     cx="6.703"
     cy="73.616"
     gradientTransform="scale(1.9022 .5257)"
     gradientUnits="userSpaceOnUse"
     r="7.228">
    <stop
       offset="0"
       id="stop24" />
    <stop
       offset="1"
       stop-opacity="0"
       id="stop26" />
  </radialGradient>
  <linearGradient
     id="d"
     gradientTransform="matrix(.918 0 0 .9166 5.242 6.347)"
     gradientUnits="userSpaceOnUse"
     x1="63.999"
     x2="63.999"
     y1="3.1"
     y2="122.899">
    <stop
       offset="0"
       stop-color="#f2f2f2"
       id="stop29" />
    <stop
       offset="1"
       stop-color="#d8d8d8"
       id="stop31" />
  </linearGradient>
  <path
     d="M26.5 38.7a13.75 3.8 0 1 1-27.5 0 13.75 3.8 0 1 1 27.5 0z"
     fill="url(#c)"
     opacity=".4"
     transform="matrix(.83 0 0 .9223 1.416 -15.2)"
     id="path34" />
  <path
     d="M21.785 9.657h-.828c-.224 0-.483-.185-.554-.397l-.514-1.244c-.106-.21-.055-.524.103-.682l.586-.585c.133-.136.208-.315.208-.506 0-.192-.075-.37-.21-.505l-2.306-2.304c-.134-.135-.314-.21-.506-.21-.19 0-.37.075-.506.21l-.585.585c-.158.158-.472.21-.672.11-.01-.006-1.247-.515-1.247-.515-.223-.075-.41-.333-.41-.556v-.83c0-.393-.32-.713-.715-.713h-3.26c-.395 0-.716.32-.716.714v.83c0 .222-.186.48-.398.55l-1.247.514c-.212.105-.526.054-.684-.103l-.586-.584c-.134-.135-.314-.21-.506-.21-.19 0-.37.075-.506.21L3.422 5.74c-.28.277-.28.73 0 1.01l.586.584c.157.158.208.47.108.67L3.6 9.25c-.074.222-.333.407-.556.407H2.43c-.395 0-.93.32-.93.715v3.256c0 .394.32.715.715.715h.83c.223 0 .48.185.552.397l.514 1.244c.106.21.056.524-.102.682l-.586.585c-.28.28-.28.733 0 1.01l2.307 2.304c.133.135.313.21.505.21.19 0 .37-.075.506-.21l.586-.585c.158-.158.472-.21.672-.11.01.006 1.247.515 1.247.515.223.075.41.333.41.556v.83c0 .393.32.713.714.713h3.26c.396 0 .717-.32.717-.714v-.83c0-.222.186-.48.398-.55l1.246-.514c.212-.105.526-.054.684.103l.586.584c.135.135.314.21.506.21.19 0 .37-.075.506-.21l2.306-2.303c.135-.133.21-.312.21-.504 0-.19-.075-.37-.21-.505l-.586-.584c-.158-.157-.208-.47-.108-.67l.515-1.245c.074-.22.333-.407.556-.407h.83c.393 0 .714-.32.714-.715v-3.256c0-.394-.32-.715-.715-.715zM12 15.04c-1.68 0-3.045-1.363-3.045-3.04 0-1.676 1.366-3.04 3.045-3.04 1.68 0 3.046 1.364 3.046 3.04 0 1.677-1.366 3.04-3.046 3.04z"
     fill="#030303"
     opacity=".1"
     id="path36" />
  <path
     d="M21.785 9.653h-.828c-.224 0-.483-.186-.554-.398L19.89 8.01c-.106-.212-.055-.526.103-.684l.586-.586c.133-.134.208-.314.208-.506 0-.19-.075-.37-.21-.506l-2.306-2.306c-.134-.135-.314-.21-.506-.21-.19 0-.37.075-.506.21l-.585.585c-.158.158-.472.21-.672.11-.01-.006-1.247-.516-1.247-.516-.223-.074-.41-.333-.41-.556v-.83c0-.394-.32-.715-.715-.715h-3.26c-.395 0-.716.32-.716.715v.83c0 .222-.186.48-.398.552L8.01 4.11c-.212.106-.526.055-.684-.103l-.586-.585c-.134-.135-.314-.21-.506-.21-.19 0-.37.075-.506.21L3.422 5.728c-.28.28-.28.733 0 1.012l.586.586c.157.158.208.472.108.672L3.6 9.244c-.074.224-.333.41-.556.41H2.43c-.395 0-.93.32-.93.715v3.26c0 .395.32.716.715.716h.83c.223 0 .48.186.552.398l.514 1.246c.106.212.056.526-.102.684l-.586.586c-.28.28-.28.733 0 1.012l2.307 2.306c.133.135.313.21.505.21.19 0 .37-.075.506-.21l.586-.585c.158-.158.472-.21.672-.11.01.006 1.247.516 1.247.516.223.074.41.332.41.556v.83c0 .393.32.714.714.714h3.26c.396 0 .717-.32.717-.715v-.83c0-.223.186-.48.398-.552l1.246-.514c.212-.106.526-.055.684.102l.586.586c.135.135.314.21.506.21.19 0 .37-.075.506-.21l2.306-2.306c.135-.135.21-.315.21-.506 0-.192-.075-.372-.21-.506l-.586-.586c-.158-.158-.208-.472-.108-.672l.515-1.246c.074-.224.333-.41.556-.41h.83c.393 0 .714-.32.714-.715v-3.26c0-.396-.32-.717-.715-.717z"
     fill="#626262"
     stroke="#777"
     stroke-linecap="round"
     stroke-linejoin="round"
     stroke-width=".9990000000000001"
     id="path38" />
  <path
     d="M116.1 52.532h-4.414c-1.63 0-3.382-1.257-3.902-2.803l-2.713-6.56c-.727-1.452-.382-3.574.773-4.728l3.117-3.113c.527-.527.818-1.23.818-1.98s-.29-1.452-.818-1.978l-12.28-12.26c-.525-.526-1.23-.816-1.98-.816s-1.456.29-1.983.816L89.6 22.225c-1.155 1.153-3.282 1.497-4.742.768l-6.57-2.71c-1.542-.516-2.802-2.263-2.802-3.892v-4.405c0-1.542-1.257-2.797-2.802-2.797H55.316c-1.546 0-2.803 1.255-2.803 2.797v4.406c0 1.63-1.26 3.377-2.807 3.896l-6.57 2.71c-1.454.725-3.582.382-4.736-.77l-3.118-3.114c-.527-.526-1.23-.816-1.983-.816-.752 0-1.455.29-1.982.816l-12.28 12.26c-1.094 1.092-1.094 2.866 0 3.957l3.118 3.112c1.154 1.153 1.5 3.276.768 4.735l-2.714 6.56c-.517 1.54-2.266 2.795-3.9 2.795h-3.265c-1.523 0-3.947 1.28-3.947 2.798v17.338c0 1.544 1.256 2.8 2.802 2.8h4.412c1.632 0 3.382 1.256 3.9 2.803l2.716 6.56c.727 1.452.383 3.574-.77 4.727l-3.12 3.113c-1.093 1.09-1.093 2.866 0 3.956l12.28 12.26c.527.527 1.23.818 1.982.818.75 0 1.456-.29 1.983-.817l3.118-3.113c1.155-1.153 3.283-1.496 4.743-.768l6.57 2.71c1.543.515 2.8 2.263 2.8 3.892v4.405c0 1.543 1.258 2.798 2.804 2.798h17.367c1.545 0 2.802-1.254 2.802-2.797v-4.405c0-1.63 1.26-3.378 2.808-3.895l6.57-2.71c1.454-.725 3.58-.382 4.736.77l3.117 3.114c.527.526 1.232.817 1.983.817.75 0 1.455-.29 1.98-.817l12.28-12.26c.528-.526.82-1.23.82-1.98s-.29-1.45-.82-1.977l-3.117-3.113c-1.155-1.153-1.5-3.276-.77-4.735l2.715-6.558c.517-1.54 2.268-2.797 3.9-2.797h4.412c1.546 0 2.802-1.255 2.802-2.8V55.33c0-1.542-1.257-2.798-2.803-2.798z"
     fill="url(#d)"
     transform="scale(.1875)"
     id="path40" />
  <g
     color="#000"
     id="g48">
    <path
       style="isolation:auto;mix-blend-mode:normal;fill-opacity:1.0"
       d="M2.51 13.493l-.006-10.99L12.117 8z"
       overflow="visible"
       transform="translate(6 4)"
       solid-color="#000000"
       fill="url(#e)"
       id="path42" />
    <path
       style="isolation:auto;mix-blend-mode:normal;stroke:#004372;stroke-opacity:0.86274511"
       d="M8.51 17.493l-.006-10.99L18.117 12z"
       overflow="visible"
       opacity=".5"
       solid-color="#000000"
       fill="none"
       stroke="#0f5a00"
       stroke-linecap="round"
       stroke-linejoin="round"
       id="path44" />
    <path
       style="isolation:auto;mix-blend-mode:normal"
       d="M3.775 4.316l.005 7.353L10 8z"
       overflow="visible"
       transform="translate(6 4)"
       opacity=".6"
       solid-color="#000000"
       fill="none"
       stroke="url(#f)"
       stroke-width=".915"
       id="path46" />
  </g>
</svg>
