<svg xmlns="http://www.w3.org/2000/svg" xmlns:xlink="http://www.w3.org/1999/xlink" height="24" width="24"><linearGradient id="a"><stop offset="0"/><stop offset="1" stop-opacity="0"/></linearGradient><linearGradient id="f" gradientTransform="matrix(.24324 0 0 .35135 2.162 -.432)" gradientUnits="userSpaceOnUse" x1="24" x2="24" y1="6.923" y2="41.077"><stop offset="0" stop-color="#fff"/><stop offset="0" stop-color="#fff" stop-opacity=".235"/><stop offset="1" stop-color="#fff" stop-opacity=".157"/><stop offset="1" stop-color="#fff" stop-opacity=".392"/></linearGradient><linearGradient id="e" gradientTransform="matrix(.2857 0 0 .3042 1.143 .233)" gradientUnits="userSpaceOnUse" x1="25.132" x2="25.132" y1=".985" y2="47.013"><stop offset="0" stop-color="#f4f4f4"/><stop offset="1" stop-color="#dbdbdb"/></linearGradient><linearGradient id="g" gradientTransform="matrix(.2538 0 0 .30502 19.13 -.685)" gradientUnits="userSpaceOnUse" x1="-51.786" x2="-51.786" y1="50.786" y2="2.906"><stop offset="0" stop-opacity=".34"/><stop offset="1" stop-opacity=".247"/></linearGradient><radialGradient id="h" cx="24.837" cy="36.421" gradientTransform="matrix(-.25568 0 0 -.19176 17.353 22.984)" gradientUnits="userSpaceOnUse" r="15.645" xlink:href="#a"/><linearGradient id="l" gradientTransform="matrix(.27962 0 0 -.26116 5.022 18.693)" gradientUnits="userSpaceOnUse" x1="25.469" x2="25.469" y1="32.841" y2="2.724"><stop offset="0" stop-color="#cdf87e"/><stop offset=".262" stop-color="#a2e34f"/><stop offset=".661" stop-color="#68b723"/><stop offset="1" stop-color="#1d7e0d"/></linearGradient><linearGradient id="m" gradientTransform="matrix(0 .30606 .3277 0 5.52 4.564)" gradientUnits="userSpaceOnUse" x1="20.797" x2="37.474" y1="20.649" y2="20.649"><stop offset="0" stop-color="#fff"/><stop offset=".512" stop-color="#fff" stop-opacity=".235"/><stop offset=".585" stop-color="#fff" stop-opacity=".157"/><stop offset="1" stop-color="#fff" stop-opacity=".392"/></linearGradient><linearGradient id="b"><stop offset="0" stop-opacity="0"/><stop offset=".5"/><stop offset="1" stop-opacity="0"/></linearGradient><radialGradient id="d" cx="605.714" cy="486.648" gradientTransform="matrix(-.00803 0 0 .00618 8.84 15.235)" gradientUnits="userSpaceOnUse" r="117.143" xlink:href="#a"/><linearGradient id="c" gradientTransform="matrix(.0207 0 0 .00618 1.515 15.235)" gradientUnits="userSpaceOnUse" x1="302.857" x2="302.857" xlink:href="#b" y1="366.648" y2="609.505"/><linearGradient id="i" gradientTransform="matrix(.0207 0 0 .00618 23.006 8.634)" gradientUnits="userSpaceOnUse" x1="302.857" x2="302.857" xlink:href="#b" y1="366.648" y2="609.505"/><radialGradient id="j" cx="605.714" cy="486.648" gradientTransform="matrix(-.00803 0 0 .00618 30.332 8.634)" gradientUnits="userSpaceOnUse" r="117.143" xlink:href="#a"/><radialGradient id="k" cx="605.714" cy="486.648" gradientTransform="matrix(.00803 0 0 .00618 30.65 8.634)" gradientUnits="userSpaceOnUse" r="117.143" xlink:href="#a"/><path d="M4 17.5h10V19H4z" fill="url(#c)" opacity=".15"/><path d="M4 17.5V19c-.414.003-1-.336-1-.75s.462-.75 1-.75z" fill="url(#d)" opacity=".15"/><path d="M3 1h10v14H3V1z" fill="url(#e)" transform="translate(1 2)"/><path d="M12.5 14.5h-9v-13h9z" fill="none" stroke="url(#f)" stroke-linecap="round" transform="translate(1 2)"/><path d="M2.5.5h11v15h-11V.5z" fill="none" stroke="url(#g)" stroke-linejoin="round" transform="translate(1 2)"/><path d="M8 5h7v13H8V5z" opacity=".05"/><path d="M7.003 16a4 3 0 1 1 8 0 4 3 0 0 1-8 0z" fill="url(#h)" fill-rule="evenodd" opacity=".141"/><path d="M3 1h10v14H3V1z" fill="url(#e)" transform="translate(7 6)"/><path d="M12.5 14.5h-9v-13h9z" fill="none" stroke="url(#f)" stroke-linecap="round" transform="translate(7 6)"/><path d="M2.5.5h11v15h-11V.5z" fill="none" stroke="url(#g)" stroke-linejoin="round" transform="translate(7 6)"/><g><path d="M25.492 10.898h10v1.5h-10z" fill="url(#i)" opacity=".15" transform="translate(-15.492 10.602)"/><path d="M25.492 10.898v1.5c-.414.003-1-.336-1-.75s.46-.75 1-.75z" fill="url(#j)" opacity=".15" transform="translate(-15.492 10.602)"/><path d="M35.492 10.898v1.5c.414.003 1-.336 1-.75s-.462-.75-1-.75z" fill="url(#k)" opacity=".15" transform="translate(-15.492 10.602)"/></g><path d="M9.303 8.59c-3.55 2.404-1.418 7.017 2.2 7.017v1.91l5-3.57-5-3.34v2c-2.553.1-3.67-2.34-1.844-4.018z" display="block" fill="url(#l)"/><path d="M8.62 9.833c-1.252 1.47-.124 5.31 3.883 4.785v.99l2.33-1.66-2.33-1.51v.79c-4.397.236-4.256-2.8-3.882-3.395z" display="block" opacity=".8" fill="none" stroke-width=".964" stroke-miterlimit="7" stroke="url(#m)"/><path d="M9.303 8.59c-3.55 2.404-1.418 7.017 2.2 7.017v1.91l5-3.57-5-3.34v2c-2.553.1-3.67-2.34-1.844-4.018z" fill="none" opacity=".5" stroke="#0f5a00" stroke-linecap="round" stroke-linejoin="round"/></svg>