<?xml version="1.0" encoding="UTF-8" standalone="no"?>
<svg
   xmlns:dc="http://purl.org/dc/elements/1.1/"
   xmlns:cc="http://creativecommons.org/ns#"
   xmlns:rdf="http://www.w3.org/1999/02/22-rdf-syntax-ns#"
   xmlns:svg="http://www.w3.org/2000/svg"
   xmlns="http://www.w3.org/2000/svg"
   xmlns:xlink="http://www.w3.org/1999/xlink"
   xmlns:sodipodi="http://sodipodi.sourceforge.net/DTD/sodipodi-0.dtd"
   xmlns:inkscape="http://www.inkscape.org/namespaces/inkscape"
   height="24"
   width="24"
   version="1.1"
   id="svg90"
   sodipodi:docname="lc_capturepoint.svg"
   inkscape:version="0.92.3 (unknown)">
  <metadata
     id="metadata96">
    <rdf:RDF>
      <cc:Work
         rdf:about="">
        <dc:format>image/svg+xml</dc:format>
        <dc:type
           rdf:resource="http://purl.org/dc/dcmitype/StillImage" />
        <dc:title></dc:title>
      </cc:Work>
    </rdf:RDF>
  </metadata>
  <defs
     id="defs94">
    <linearGradient
       id="b-3"
       gradientUnits="userSpaceOnUse"
       x1="46.984623"
       x2="46.984623"
       y1="10"
       y2="23">
      <stop
         offset="0"
         stop-color="#c6262e"
         id="stop1444" />
      <stop
         offset="1"
         stop-color="#b5232a"
         id="stop1446" />
    </linearGradient>
    <linearGradient
       id="a-3"
       gradientTransform="matrix(0,-0.59172,-0.63517,0,9.814467,30.721957)"
       gradientUnits="userSpaceOnUse"
       x1="46.984623"
       x2="46.984623"
       y1="11.46967"
       y2="20">
      <stop
         offset="0"
         stop-color="#fff"
         id="stop1435" />
      <stop
         offset=".12500004"
         stop-color="#fff"
         stop-opacity=".235"
         id="stop1437" />
      <stop
         offset=".93855339"
         stop-color="#fff"
         stop-opacity=".157"
         id="stop1439" />
      <stop
         offset="1"
         stop-color="#fff"
         stop-opacity=".392"
         id="stop1441" />
    </linearGradient>
  </defs>
  <sodipodi:namedview
     pagecolor="#ffffff"
     bordercolor="#666666"
     borderopacity="1"
     objecttolerance="10"
     gridtolerance="10"
     guidetolerance="10"
     inkscape:pageopacity="0"
     inkscape:pageshadow="2"
     inkscape:window-width="1366"
     inkscape:window-height="706"
     id="namedview92"
     showgrid="true"
     inkscape:snap-global="true"
     inkscape:zoom="13.906433"
     inkscape:cx="-2.2374782"
     inkscape:cy="3.8502727"
     inkscape:window-x="0"
     inkscape:window-y="0"
     inkscape:window-maximized="1"
     inkscape:current-layer="g88">
    <inkscape:grid
       type="xygrid"
       id="grid2103" />
  </sodipodi:namedview>
  <radialGradient
     id="a"
     cx="4.992979"
     cy="43.5"
     gradientTransform="matrix(2.003784 0 0 1.4 27.98813 -17.4)"
     gradientUnits="userSpaceOnUse"
     r="2.5"
     xlink:href="#b" />
  <linearGradient
     id="b">
    <stop
       offset="0"
       stop-color="#181818"
       id="stop3" />
    <stop
       offset="1"
       stop-color="#181818"
       stop-opacity="0"
       id="stop5" />
  </linearGradient>
  <radialGradient
     id="c"
     cx="4.992979"
     cy="43.5"
     gradientTransform="matrix(2.003784 0 0 1.4 -20.01187 -104.4)"
     gradientUnits="userSpaceOnUse"
     r="2.5"
     xlink:href="#b" />
  <linearGradient
     id="d"
     gradientUnits="userSpaceOnUse"
     x1="25.058096"
     x2="25.058096"
     y1="47.027729"
     y2="39.999443">
    <stop
       offset="0"
       stop-color="#181818"
       stop-opacity="0"
       id="stop9" />
    <stop
       offset=".5"
       stop-color="#181818"
       id="stop11" />
    <stop
       offset="1"
       stop-color="#181818"
       stop-opacity="0"
       id="stop13" />
  </linearGradient>
  <linearGradient
     id="e"
     gradientTransform="matrix(.25378586 0 0 .30501865 -5.871021 -2.685477)"
     gradientUnits="userSpaceOnUse"
     x1="12.700075"
     x2="11"
     y1="71.337242"
     y2="1">
    <stop
       offset="0"
       stop-opacity=".339506"
       id="stop16" />
    <stop
       offset="1"
       stop-opacity=".246914"
       id="stop18" />
  </linearGradient>
  <linearGradient
     id="f"
     gradientTransform="matrix(.24324324 0 0 .35135133 -22.837836 -2.432428)"
     gradientUnits="userSpaceOnUse"
     x1="127.38982"
     x2="126.97176"
     y1="15.735334"
     y2="54.916561">
    <stop
       offset="0"
       stop-color="#fff"
       id="stop21" />
    <stop
       offset=".0641157"
       stop-color="#fff"
       stop-opacity=".235294"
       id="stop23" />
    <stop
       offset="1"
       stop-color="#fff"
       stop-opacity=".156863"
       id="stop25" />
    <stop
       offset="1"
       stop-color="#fff"
       stop-opacity=".392157"
       id="stop27" />
  </linearGradient>
  <linearGradient
     id="g"
     gradientUnits="userSpaceOnUse"
     x1="7.203894"
     x2="15.133052"
     y1="4.482563"
     y2="12.930884">
    <stop
       offset="0"
       stop-color="#eeeeec"
       id="stop30" />
    <stop
       offset="1"
       stop-color="#e0e0de"
       id="stop32" />
  </linearGradient>
  <radialGradient
     id="h"
     cx="65.297462"
     cy="48.216358"
     gradientTransform="matrix(0 .38212918 -.4161614 0 32.170797 -18.821396)"
     gradientUnits="userSpaceOnUse"
     r="31.000002">
    <stop
       offset="0"
       stop-color="#90dbec"
       id="stop35" />
    <stop
       offset=".26238"
       stop-color="#55c1ec"
       id="stop37" />
    <stop
       offset=".704952"
       stop-color="#3689e6"
       id="stop39" />
    <stop
       offset="1"
       stop-color="#2b63a0"
       id="stop41" />
  </radialGradient>
  <linearGradient
     id="i"
     gradientTransform="matrix(.20515598 0 0 .20369724 7.420038 5.278451)"
     gradientUnits="userSpaceOnUse"
     x1="24.138529"
     x2="24.138529"
     y1="10.631441"
     y2="35.62291">
    <stop
       offset="0"
       stop-color="#fff"
       id="stop44" />
    <stop
       offset=".00000002"
       stop-color="#fff"
       stop-opacity=".235294"
       id="stop46" />
    <stop
       offset="1"
       stop-color="#fff"
       stop-opacity=".156863"
       id="stop48" />
    <stop
       offset="1"
       stop-color="#fff"
       stop-opacity=".392157"
       id="stop50" />
  </linearGradient>
  <linearGradient
     id="j"
     gradientTransform="matrix(.20515598 0 0 .20369724 7.407064 5.283756)"
     gradientUnits="userSpaceOnUse"
     x1="24.138529"
     x2="24.138529"
     y1="21.34207"
     y2="24.912279">
    <stop
       offset="0"
       stop-color="#fff"
       id="stop53" />
    <stop
       offset=".00000019"
       stop-color="#fff"
       stop-opacity=".235294"
       id="stop55" />
    <stop
       offset="1"
       stop-color="#fff"
       stop-opacity=".156863"
       id="stop57" />
    <stop
       offset="1"
       stop-color="#fff"
       stop-opacity=".392157"
       id="stop59" />
  </linearGradient>
  <g
     transform="translate(0 2)"
     id="g88">
    <g
       opacity=".4"
       transform="matrix(.52631579 0 0 .42857134 -.631579 -.142854)"
       id="g68">
      <path
         d="m38 40h5v7h-5z"
         fill="url(#a)"
         id="path62" />
      <path
         d="m-10-47h5v7h-5z"
         fill="url(#c)"
         transform="scale(-1)"
         id="path64" />
      <path
         d="m10 40h28v7.000001h-28z"
         fill="url(#d)"
         id="path66" />
    </g>
    <path
       d="m3.500348 1.5042542h16.999305v16.9993058h-16.9993051z"
       fill="url(#g)"
       stroke="url(#e)"
       stroke-linecap="round"
       stroke-linejoin="round"
       id="path70" />
    <path
       d="m4.50148 2.5053859h14.978735v14.9787351h-14.978735z"
       fill="none"
       stroke="url(#f)"
       id="path72" />
    <g
       transform="translate(-27.984624,-2.0000003)"
       id="g1497">
      <path
         style="fill:url(#b-3);stroke:#2a0303;stroke-opacity:0.49019602"
         inkscape:connector-curvature="0"
         d="m 46.389038,10.48409 c 0.607323,-0.0019 1.125775,0.04938 1.555347,0.148128 2.436367,0.560409 3.509238,2.656355 3.539408,4.920758 -0.179755,2.406173 -0.827918,3.925521 -2.858708,4.760262 -0.444385,0.108628 -1.494965,0.176168 -2.245478,0.178566 l -4.891349,0.01563 4.31e-4,-4.037564 4.535841,-0.01563 c 2.001672,-0.05235 1.988936,-1.911699 0.009,-1.967993 l -4.535841,0.01563 v -4.002158 z"
         id="path1489" />
      <path
         style="fill:#eeeeee;fill-opacity:0.76102899"
         inkscape:connector-curvature="0"
         d="m 41.498047,10.5 v 4.001953 L 44,14.494141 V 10.5 Z M 44,16.462891 l -2.501953,0.0078 V 20 H 44 Z"
         id="path1491" />
      <path
         style="opacity:0.1;fill:#206b00;stroke:#ffffff"
         inkscape:connector-curvature="0"
         d="M 46.388672,10.484375 41.498047,10.5 v 1 l 4.890625,-0.01563 c 0.607323,-0.0019 1.127069,0.04969 1.55664,0.148437 2.220557,0.510769 3.297943,2.299324 3.496094,4.326172 0.01382,-0.13577 0.03247,-0.265662 0.04297,-0.40625 -0.03017,-2.264403 -1.102696,-4.359513 -3.539063,-4.919922 -0.429571,-0.09875 -0.949317,-0.150337 -1.55664,-0.148437 z m 0.90625,5.488281 c -0.232254,0.262227 -0.639048,0.465933 -1.269531,0.482422 l -4.53711,0.01563 0.002,1 4.535157,-0.01563 c 1.369909,-0.03583 1.771504,-0.911077 1.269531,-1.482422 z"
         id="path1493" />
      <path
         style="opacity:0.52999998;fill:none;stroke:url(#a-3);stroke-opacity:0.915441"
         inkscape:connector-curvature="0"
         d="m 46.392578,11.46875 -3.910156,0.01367 v 2.03125 l 3.546875,-0.01172 c 0.01042,-1.65e-4 0.02083,-1.65e-4 0.03125,0 0.648942,0.01845 1.220216,0.182742 1.671875,0.515625 0.451658,0.332883 0.774464,0.872509 0.77539,1.453125 9.27e-4,0.580616 -0.32116,1.124207 -0.77539,1.457031 -0.45423,0.332825 -1.028846,0.494646 -1.681641,0.511719 -0.0072,7.8e-5 -0.01432,7.8e-5 -0.02148,0 l -3.554688,0.01172 0.02153,2.058594 3.904297,-0.01172 c 0.662081,-0.0021 1.659313,-0.09435 1.919922,-0.142578 0.787752,-0.337493 1.229944,-0.56674 1.560546,-1.197266 0.333519,-0.636088 0.522119,-1.525325 0.609375,-2.628906 -0.01938,-0.964566 -0.251905,-1.860657 -0.695312,-2.535156 -0.449879,-0.684345 -1.08261,-1.175154 -2.070313,-1.402344 -0.33354,-0.07667 -0.782226,-0.124767 -1.332031,-0.123047 z"
         id="path1495" />
    </g>
    <g
       transform="matrix(0.12525428,0,0,0.12525428,2.5007594,15.049834)"
       id="g53">
      <g
         style="fill:#cc3b02;fill-rule:evenodd"
         id="g49">
        <path
           inkscape:connector-curvature="0"
           d="M 31.191406,-96 48,-80 64.822266,-96 H 52.005859 L 52,-95.996094 44,-96 Z"
           id="path41" />
        <path
           inkscape:connector-curvature="0"
           d="M 48,-56 31.349609,-40 H 64.683594 Z"
           id="path43" />
        <path
           inkscape:connector-curvature="0"
           d="M 76,-84.59375 60,-68 76,-51.310547 Z"
           id="path45" />
        <path
           inkscape:connector-curvature="0"
           d="m 20,-84.683594 v 33.333985 L 36,-68 Z"
           id="path47" />
      </g>
      <rect
         style="fill:#ffc27d"
         height="7.9303217"
         rx="2e-06"
         transform="rotate(-90)"
         width="8.0906687"
         x="64.161026"
         y="43.95805"
         id="rect51"
         ry="0" />
    </g>
  </g>
</svg>
