<svg xmlns="http://www.w3.org/2000/svg" xmlns:xlink="http://www.w3.org/1999/xlink" viewBox="0 0 24 24"><defs><linearGradient x1=".365" y1="19.599" x2="28.06" y2="19.599" id="h" xlink:href="#a" gradientUnits="userSpaceOnUse" gradientTransform="matrix(.21788 .05143 .00147 .2555 11.713 7.66)" spreadMethod="reflect"/><linearGradient id="a"><stop offset="0" stop-color="#ffcd7d"/><stop offset=".262" stop-color="#fc8f36"/><stop offset="1" stop-color="#e23a0e"/></linearGradient><linearGradient x1="30" y1="30" x2="-11" y2="30" id="i" xlink:href="#b" gradientUnits="userSpaceOnUse" gradientTransform="matrix(.16427 .03876 .0011 .19134 12.9 8.354)" spreadMethod="reflect"/><linearGradient id="b"><stop offset="0" stop-color="#ba3d12"/><stop offset="1" stop-color="#db6737"/></linearGradient><linearGradient xlink:href="#c" id="g" x1="3.139" y1="8.199" x2="2" y2="8" gradientUnits="userSpaceOnUse" gradientTransform="matrix(.72556 0 0 .7708 10.64 9.64)"/><linearGradient id="c"><stop offset="0" stop-color="#e4e4e4"/><stop offset="1" stop-color="#fff"/></linearGradient></defs><linearGradient id="d" gradientTransform="matrix(.4458 0 0 .45 .802 -.025)" gradientUnits="userSpaceOnUse" x1="25.132" x2="25.132" y1="15.5" y2="48.396"><stop offset="0" stop-color="#fafafa"/><stop offset="1" stop-color="#e2e1de"/></linearGradient><linearGradient id="e" gradientUnits="userSpaceOnUse" x1="8.295" x2="8.295" y1="-4.284" y2="16.85"><stop offset="0" stop-color="#cdf87e"/><stop offset=".262" stop-color="#a2e34f"/><stop offset=".661" stop-color="#68b723"/><stop offset="1" stop-color="#1d7e0d"/></linearGradient><linearGradient id="f" gradientUnits="userSpaceOnUse" x1="11.001" x2="11.001" y1="2.269" y2="19.728"><stop offset="0" stop-color="#fff"/><stop offset=".063" stop-color="#fff" stop-opacity=".235"/><stop offset=".951" stop-color="#fff" stop-opacity=".157"/><stop offset="1" stop-color="#fff" stop-opacity=".392"/></linearGradient><path d="M2.528 2h17.944c.293 0 .524.248.528.555l.05 4.398c.003.2-14.002-.004-14.002-.004s.052 14.945-.05 14.947L2.528 22c-.293.006-.528-.248-.528-.556V2.554C2 2.25 2.235 2 2.528 2z" fill="url(#d)"/><path d="M1 6.164v15.3C1 22.304 1.695 23 2.537 23H7v-1H2.537C2.23 22 2 21.77 2 21.463v-15.3z" opacity=".3"/><path d="M2.536 1.5c-.574 0-1.036.462-1.036 1.036V6.5h20V2.536c0-.574-.462-1.036-1.036-1.036z" fill="url(#e)"/><path d="M2 10h4v1H2zm0 4h4v1H2zm0 4h4v1H2z" opacity=".321"/><path d="M6 2h1v4H6zm5 0h1v4h-1zm5 0h1v4h-1z" opacity=".4" fill="#126400"/><path d="M2.536 1.5c-.574 0-1.036.462-1.036 1.036V6.5h20V2.536c0-.574-.462-1.036-1.036-1.036z" fill="none" opacity=".4" stroke="#126400" stroke-linecap="round"/><path d="M2.5 2.5v3h18v-3z" fill="none" opacity=".5" stroke="url(#f)" stroke-linecap="round" stroke-linejoin="round"/><path d="M6 22h1V6.854H6z" opacity=".321"/><path d="M10.417 9.818c.497-.407 1.426-.4 2.073.11l.08 12.098c-.405.344-1.51.497-2.073-.002z" overflow="visible" color="#000" opacity=".366" fill="url(#g)" stroke="#000" stroke-linejoin="round"/><path d="M13.517 10.282c-.01-.303.738-.412 1.876-.095 1.137.315 1.443.847 2.73 1.214 1.193.34 3.376-.002 3.37.304l.036 5.937c.01.408-2.068.387-3.358.078-1.287-.308-1.53-.907-2.743-1.22-1.214-.312-1.907.217-1.88-.342z" fill="url(#h)" fill-rule="evenodd" stroke="url(#i)" stroke-linejoin="round"/></svg>