<svg xmlns="http://www.w3.org/2000/svg" xmlns:xlink="http://www.w3.org/1999/xlink" height="24" width="24"><defs><linearGradient id="a"><stop stop-color="#fff" offset="0"/><stop stop-color="#fff" stop-opacity=".235" offset=".654"/><stop stop-color="#fff" stop-opacity=".157" offset="1"/><stop stop-color="#fff" stop-opacity=".392" offset="1"/></linearGradient><linearGradient y2="27.652" x2="104.747" y1="27.165" x1="80.82" spreadMethod="reflect" gradientTransform="matrix(-.1472 -.24716 .25497 -.1427 18.298 43.894)" gradientUnits="userSpaceOnUse" id="j" xlink:href="#b"/><linearGradient id="b"><stop offset="0" stop-color="#abacae"/><stop offset=".111" stop-color="#7e8087"/><stop offset="1" stop-color="#fafafa"/></linearGradient><linearGradient gradientTransform="translate(.51 8.106) scale(.6612)" gradientUnits="userSpaceOnUse" y2="15.044" x2="16.016" y1="1.894" x1="16.016" id="k" xlink:href="#c"/><linearGradient id="c"><stop offset="0" stop-color="#fff"/><stop offset=".405" stop-color="#fff" stop-opacity=".235"/><stop offset=".744" stop-color="#fff" stop-opacity=".157"/><stop offset="1" stop-color="#fff" stop-opacity=".392"/></linearGradient><radialGradient gradientTransform="matrix(.3353 0 0 .333 -8.175 9.7)" r="4.301" fy="21.218" fx="24.66" cy="21.218" cx="24.66" gradientUnits="userSpaceOnUse" id="l" xlink:href="#d"/><linearGradient id="d"><stop offset="0" stop-color="#fff"/><stop offset="1" stop-color="#9d9d9d"/></linearGradient><linearGradient y2="240.809" x2="195.835" y1="235.838" x1="194.152" gradientTransform="rotate(-3.518 -2257.112 2126.93) scale(.6612)" gradientUnits="userSpaceOnUse" id="m" xlink:href="#e"/><linearGradient id="e"><stop offset="0" stop-color="#cfd1d3"/><stop offset="1" stop-color="#cfd1d3" stop-opacity="0"/></linearGradient></defs><linearGradient id="f" gradientTransform="matrix(.0393 0 0 .0082 -2.222 17.98)" gradientUnits="userSpaceOnUse" x1="302.857" x2="302.857" y1="366.648" y2="609.505"><stop offset="0" stop-opacity="0"/><stop offset=".5"/><stop offset="1" stop-opacity="0"/></linearGradient><radialGradient id="g" cx="605.714" cy="486.648" gradientTransform="matrix(-.012 0 0 .0082 9.76 17.98)" gradientUnits="userSpaceOnUse" r="117.143"><stop offset="0"/><stop offset="1" stop-opacity="0"/></radialGradient><linearGradient id="h" gradientTransform="matrix(.6 0 0 .3694 -2.4 3.568)" gradientUnits="userSpaceOnUse" x1="25.132" x2="25.132" y1=".985" y2="47.013"><stop offset="0" stop-color="#f4f4f4"/><stop offset="1" stop-color="#dbdbdb"/></linearGradient><linearGradient id="i" gradientTransform="matrix(.5135 0 0 .4054 -.325 3.27)" gradientUnits="userSpaceOnUse" x1="24" x2="24" y1="5.564" y2="43"><stop offset="0" stop-color="#fff"/><stop offset=".036" stop-color="#fff" stop-opacity=".235"/><stop offset=".951" stop-color="#fff" stop-opacity=".157"/><stop offset="1" stop-color="#fff" stop-opacity=".392"/></linearGradient><path opacity=".15" fill="url(#f)" d="M2.5 21h19v2h-19z"/><path opacity=".15" fill="url(#g)" d="M2.5 21v2c-.62.004-1.5-.448-1.5-1s.692-1 1.5-1z"/><path fill="url(#h)" d="M1.5 4.5h21v17h-21v-17z"/><path stroke-linecap="round" stroke="url(#i)" fill="none" d="M21.5 20.5h-19v-15h19z"/><path stroke-linejoin="round" stroke="#ce5c00" opacity=".6" fill="none" d="M1.5 4.5h21v17h-21v-17z"/><g transform="translate(8.172 -8)"><path d="M3.247 12.66c-.454.182-1.074 1.88.554 4.626 1.54 2.594 3.114 3.13 3.534 2.873.402-.248.562-2.065-.866-4.31-1.157-1.818-2.765-3.375-3.22-3.19z" fill="#555753" stroke="#555761"/><path d="M7.36 20.11l7.31-4.177c2.156-2.545-1.448-7.886-4.143-7.4L3.2 12.623c2.72 1.327 4.27 4.717 4.16 7.487z" fill="url(#j)" fill-rule="evenodd" stroke="#555761" stroke-linejoin="round"/><path d="M8.146 18.907l6.104-3.377c1.735-2.063-1.474-7.097-3.74-6.376L4.39 12.63c1.723.95 3.56 4.058 3.756 6.277z" fill="none" stroke="url(#k)"/><path d="M8.46 12.823v-2.82c0-2.065-3.967-2.023-3.967.064v1.588" fill="none" stroke="#555761" stroke-linecap="round"/><ellipse cy="16.766" cx=".092" transform="rotate(-29.727) skewX(.547)" rx="1.274" ry="1.265" fill="url(#l)" fill-rule="evenodd" stroke="#555761" stroke-linecap="round"/><path d="M3.98 20.835c-1.887 0-2.48.563-2.48 1.302 0 .534.643 1.336 3.45 1.336h4.62c2.366 0 4.84-.407 4.84-1.33 0-.896-2.542-1.313-4.58-1.318l-.8-.002-.915.014c-1.556-.3-1.38-1.862-1.79-3.12-.82.55-.886 1.253-1.227 2.26-.15.362-.713.866-1.12.858z" fill="#fcaf3e" fill-rule="evenodd" stroke="#ce5c00" stroke-linejoin="round"/><path overflow="visible" style="line-height:normal;-inkscape-font-specification:'Bitstream Vera Sans';text-indent:0;text-align:start;text-decoration-line:none;text-transform:none" d="M3.304 13.412c-.125.05-.207.17-.21.303-.117 1.637.804 3.385 1.91 4.147.15.105.357.07.462-.08.105-.15.07-.356-.08-.46-.836-.578-1.722-2.232-1.626-3.566.014-.117-.035-.233-.13-.304-.093-.07-.218-.087-.326-.04z" font-family="Bitstream Vera Sans" fill="url(#m)"/><circle overflow="visible" r=".626" cy="2.806" cx="-21.647" transform="rotate(-90)" fill="#fff"/></g></svg>