<svg xmlns="http://www.w3.org/2000/svg" xmlns:xlink="http://www.w3.org/1999/xlink" width="24" height="24" viewBox="0 0 6.3499999 6.3500002"><defs><linearGradient id="f" gradientTransform="matrix(.01058 0 0 0 -.19 295.672)" gradientUnits="userSpaceOnUse" x1="302.857" x2="302.857" y1="366.648" y2="609.505"><stop offset="0" stop-opacity="0"/><stop offset=".5"/><stop offset="1" stop-opacity="0"/></linearGradient><radialGradient id="g" cx="605.714" cy="486.648" gradientTransform="matrix(0 0 0 0 2.847 295.672)" gradientUnits="userSpaceOnUse" r="117.143" xlink:href="#a"/><linearGradient id="a"><stop offset="0"/><stop offset="1" stop-opacity="0"/></linearGradient><radialGradient id="o" cx="605.714" cy="486.648" gradientTransform="matrix(0 0 0 0 3.503 295.672)" gradientUnits="userSpaceOnUse" r="117.143" xlink:href="#a"/><linearGradient id="h" gradientTransform="matrix(.1323 0 0 .1217 .09 290.743)" gradientUnits="userSpaceOnUse" x1="25.132" x2="25.132" y1=".985" y2="47.013"><stop offset="0" stop-color="#f4f4f4"/><stop offset="1" stop-color="#dbdbdb"/></linearGradient><linearGradient id="i" gradientTransform="matrix(.10583 0 0 .1323 .6 290.565)" gradientUnits="userSpaceOnUse" x1="24" x2="24" y1="6.474" y2="41.526"><stop offset="0" stop-color="#fff"/><stop offset="0" stop-color="#fff" stop-opacity=".235"/><stop offset="1" stop-color="#fff" stop-opacity=".157"/><stop offset="1" stop-color="#fff" stop-opacity=".392"/></linearGradient><linearGradient id="j" gradientTransform="matrix(.44577 0 0 .44994 .802 -.025)" gradientUnits="userSpaceOnUse" x1="25.132" x2="25.132" y1="15.5" y2="48.396"><stop offset="0" stop-color="#fafafa"/><stop offset="1" stop-color="#e2e1de"/></linearGradient><linearGradient id="k" gradientTransform="matrix(.48484 0 0 .52706 -.165 -.4)" gradientUnits="userSpaceOnUse" x1="24" x2="24" xlink:href="#b" y1="5" y2="43"/><linearGradient id="b"><stop offset="0" stop-color="#fff"/><stop offset=".063" stop-color="#fff" stop-opacity=".235"/><stop offset=".951" stop-color="#fff" stop-opacity=".157"/><stop offset="1" stop-color="#fff" stop-opacity=".392"/></linearGradient><linearGradient id="l" gradientTransform="matrix(.5 0 0 .25 -1 3)" gradientUnits="userSpaceOnUse" x1="23.954" x2="23.954" y1="15.999" y2="19.963"><stop offset="0"/><stop offset="1" stop-opacity="0"/></linearGradient><linearGradient id="m" gradientUnits="userSpaceOnUse" x1="8.295" x2="8.295" y1="-4.284" y2="16.85"><stop offset="0" stop-color="#cdf87e"/><stop offset=".262" stop-color="#a2e34f"/><stop offset=".661" stop-color="#68b723"/><stop offset="1" stop-color="#1d7e0d"/></linearGradient><linearGradient id="n" gradientUnits="userSpaceOnUse" x1="11.001" x2="11.001" xlink:href="#b" y1="2.269" y2="19.728"/><radialGradient gradientTransform="matrix(.15 0 0 .04 -4.59 296.34)" gradientUnits="userSpaceOnUse" xlink:href="#a" id="p" fy="4.625" fx="62.625" r="10.625" cy="4.625" cx="62.625"/><linearGradient xlink:href="#c" id="q" gradientUnits="userSpaceOnUse" gradientTransform="matrix(.13 0 0 .1 -261.43 -13.52)" x1="2082.573" y1="3213.947" x2="2082.573" y2="3247.298"/><linearGradient id="c"><stop offset="0" stop-color="#64baff"/><stop offset="1" stop-color="#3689e6"/></linearGradient><linearGradient y2="33.39" x2="26.435" y1="27.803" x1="30.027" gradientTransform="matrix(.1 0 0 .1 2.4 291.27)" gradientUnits="userSpaceOnUse" id="r" xlink:href="#d"/><linearGradient id="d"><stop offset="0" stop-color="#fff"/><stop offset="0" stop-color="#fff" stop-opacity=".235"/><stop offset=".539" stop-color="#fff" stop-opacity=".157"/><stop offset="1" stop-color="#fff" stop-opacity=".392"/></linearGradient><linearGradient xlink:href="#e" id="s" gradientUnits="userSpaceOnUse" gradientTransform="matrix(.13 0 0 .13 5.78 291.21)" x1="-6.388" y1="22.767" x2="-6.388" y2="39.523"/><linearGradient id="e"><stop offset="0" stop-color="#fff"/><stop offset=".5" stop-color="#fff" stop-opacity=".235"/><stop offset=".75" stop-color="#fff" stop-opacity=".157"/><stop offset="1" stop-color="#fff" stop-opacity=".392"/></linearGradient><linearGradient xlink:href="#e" id="t" gradientUnits="userSpaceOnUse" gradientTransform="matrix(.1 0 0 .1 5.51 292.28)" x1="-2.85" y1="39.397" x2="-2.85" y2="22.916"/></defs><path d="M.926 296.47h4.498v.53H.926z" opacity=".15" fill="url(#f)" transform="translate(0 -290.65)"/><path d="M.926 296.47v.53c-.164 0-.397-.12-.397-.265 0-.146.182-.264.396-.264z" opacity=".15" fill="url(#g)" transform="translate(0 -290.65)"/><path d="M.926 291.047h4.498v5.556H.926z" fill="url(#h)" transform="translate(0 -290.65)"/><path d="M5.16 296.34H1.19v-5.03h3.97z" fill="none" stroke="url(#i)" stroke-width=".265" stroke-linecap="round" transform="translate(0 -290.65)"/><path d="M.912.392H5.41v5.556H.912z" opacity=".3" fill="none" stroke="#000" stroke-width=".265" stroke-linejoin="round"/><g transform="matrix(.26 0 0 .26 0 2.11)"><rect y="2" x="2" width="8.858" ry=".556" rx=".528" height="12" fill="url(#j)"/><path d="M2.5 2.5H11L10.858 14H2.36z" fill="none" stroke="url(#k)" stroke-width="1.1" stroke-linecap="round" stroke-linejoin="round"/><path d="M1 7h11v1H1z" opacity=".15" fill="url(#l)"/><path d="M1.5 6.163l.018 7.3c0 .575.462 1.033 1.036 1.037l7.91.05c.575.005 1.04-.46 1.037-1.035l-.015-7.3" opacity=".3" fill="none" stroke="#000"/><path d="M2.536 1.5c-.574 0-1.036.462-1.036 1.036V6.5l9.99-.007V2.53c0-.574-.463-1.037-1.037-1.037z" fill="url(#m)"/><g fill="none" stroke-linecap="round"><path d="M2.536 1.5c-.574 0-1.036.462-1.036 1.036V6.5l9.99-.007V2.53c0-.574-.463-1.037-1.037-1.037z" opacity=".4" stroke="#126400"/><path d="M2.5 2.5v3l7.99-.007v-3z" opacity=".5" stroke="url(#n)" stroke-linejoin="round"/></g><path d="M6 7h1v8H6zm-4 3h4v1H2zm5 0h4v1H7z" opacity=".321"/><path d="M6 2h1v4H6zm5 0h1v4h-1z" opacity=".4" fill="#126400"/></g><g><path d="M5.424 296.47v.53c.164 0 .397-.12.397-.265 0-.146-.182-.264-.396-.264z" opacity=".15" fill="url(#o)" transform="translate(0 -290.65)"/><path overflow="visible" d="M6.35 296.55c0 .263-.71.476-1.587.476s-1.588-.213-1.588-.476.71-.476 1.587-.476 1.588.213 1.588.476z" opacity=".3" fill="url(#p)" fill-rule="evenodd" transform="translate(0 -290.65)"/><path d="M4.842 293.455v.478c-.027 0-.053-.003-.08-.003-.745 0-1.35.605-1.35 1.35 0 .745.605 1.35 1.35 1.35.715 0 1.305-.558 1.347-1.27H5.47c-.005.042-.014.082-.026.12l-.004.014c-.01.037-.026.073-.043.107l-.01.017c-.017.032-.037.063-.06.093l-.012.015c-.023.03-.048.057-.076.082l-.013.012c-.03.023-.06.047-.093.067l-.008.004c-.032.02-.066.037-.1.05l-.013.007c-.036.013-.072.023-.11.03-.006.003-.013.004-.02.005-.04.007-.083.012-.126.012-.048 0-.095-.005-.14-.015 0 0-.002 0-.003-.002h-.003c-.043-.01-.086-.023-.126-.04l-.01-.004c-.04-.017-.076-.037-.11-.06l-.008-.004c-.035-.024-.068-.052-.1-.082l-.005-.007c-.03-.028-.056-.06-.08-.095l-.01-.012c-.02-.033-.04-.067-.056-.103l-.01-.022c-.015-.036-.027-.075-.035-.114l-.004-.02c-.008-.043-.013-.088-.013-.135 0-.05.005-.097.014-.143l.002-.005c.01-.043.022-.086.04-.126l.004-.01c.017-.04.037-.077.06-.112l.004-.006c.024-.035.052-.068.082-.098l.007-.007c.028-.03.06-.056.095-.08l.012-.01c.033-.02.068-.04.104-.056l.022-.01c.037-.014.075-.026.115-.034l.02-.004c.042-.01.088-.015.134-.015.028 0 .054.002.08.005v.47l1.233-.793z" opacity=".99" fill="url(#q)" transform="translate(0 -290.65)"/><path overflow="visible" style="isolation:auto;mix-blend-mode:normal" d="M5 294.188v-.443l.782.506-.783.5v-.4" color="#000" opacity=".5" solid-color="#000000" fill="none" stroke="url(#r)" stroke-width=".26" transform="translate(0 -290.65)"/><path d="M5.936 295.446a1.187 1.187 0 0 1-1.33 1.016 1.187 1.187 0 0 1-1.026-1.32 1.187 1.187 0 0 1 1.313-1.038" opacity=".5" fill="none" stroke="url(#s)" stroke-width=".26" transform="translate(0 -290.65)"/><path d="M4.842 2.805v.478c-.027 0-.053-.003-.08-.003-.745 0-1.35.605-1.35 1.35 0 .745.605 1.35 1.35 1.35.715 0 1.305-.558 1.347-1.27H5.47c-.005.042-.014.082-.026.12l-.004.014c-.01.037-.026.073-.043.107l-.01.017c-.017.032-.037.063-.06.093l-.012.016c-.023.03-.048.056-.076.08l-.013.013c-.03.024-.06.047-.093.067l-.008.005c-.032.02-.066.036-.1.05l-.013.005c-.036.015-.072.024-.11.032l-.02.004c-.04.007-.083.012-.126.012-.048 0-.095-.005-.14-.015h-.006c-.043-.01-.085-.02-.125-.038l-.012-.004c-.04-.018-.077-.037-.112-.06l-.006-.004c-.036-.024-.07-.052-.1-.082l-.006-.007c-.03-.03-.056-.062-.08-.096l-.01-.014c-.02-.033-.04-.068-.056-.105L4.1 4.9c-.015-.036-.027-.075-.036-.114l-.005-.02c-.008-.042-.014-.087-.014-.134 0-.05.005-.096.015-.142v-.005c.01-.043.023-.085.04-.126l.004-.01c.017-.04.037-.078.06-.113l.005-.006c.022-.034.05-.067.08-.098l.007-.007c.03-.03.062-.055.096-.08l.012-.008c.033-.023.068-.04.104-.057l.02-.01c.037-.014.076-.026.115-.035l.02-.004c.044-.007.09-.012.135-.012.027 0 .054.002.08.005v.472L6.073 3.6z" opacity=".5" fill="none" stroke="#002e99" stroke-width=".26" stroke-linecap="round" stroke-linejoin="round"/><path d="M5.996 295.518h-.39c-.123.432-.557.706-1.006.62-.472-.09-.783-.543-.697-1.016.087-.473.538-.787 1.012-.704" opacity=".5" fill="none" stroke="url(#t)" stroke-width=".26" transform="translate(0 -290.65)"/></g></svg>