<svg xmlns="http://www.w3.org/2000/svg" xmlns:xlink="http://www.w3.org/1999/xlink" height="24" width="24"><defs><linearGradient id="b"><stop offset="0" stop-color="#eaeaea"/><stop offset="1" stop-color="#eaeaea"/></linearGradient><linearGradient id="d"><stop offset="0" stop-color="#fff"/><stop offset="1" stop-color="#fff" stop-opacity="0"/></linearGradient><linearGradient id="c"><stop offset="0" stop-color="#9e9e9e"/><stop offset="1" stop-color="#656565"/></linearGradient><linearGradient id="e"><stop offset="0" stop-color="#3b3b3b"/><stop offset="1" stop-color="#b4b4b4"/></linearGradient><linearGradient id="a"><stop offset="0" stop-color="#9f9f9f"/><stop offset="1" stop-color="#494949"/></linearGradient><linearGradient id="l" y2="13.935" xlink:href="#a" gradientUnits="userSpaceOnUse" x2="1.071" gradientTransform="translate(0 9.93)" y1="6.931" x1="3.985"/><linearGradient id="n" y2="14.058" xlink:href="#a" gradientUnits="userSpaceOnUse" x2="22.956" gradientTransform="translate(0 9.93)" y1="7.587" x1="19.995"/><linearGradient id="u" y2="23.232" xlink:href="#b" gradientUnits="userSpaceOnUse" x2="12.021" gradientTransform="translate(0 1.93)" y1="34.127" x1="12.111"/><linearGradient id="v" y2="31.014" xlink:href="#c" gradientUnits="userSpaceOnUse" x2="9.899" gradientTransform="translate(0 1.93)" y1="23.191" x1="9.934"/><linearGradient id="x" y2="31.014" xlink:href="#d" gradientUnits="userSpaceOnUse" x2="9.899" gradientTransform="translate(0 1.93)" y1="23.191" x1="9.934"/><linearGradient id="m" y2="11.273" xlink:href="#c" gradientUnits="userSpaceOnUse" x2="8.207" gradientTransform="translate(0 9.93)" y1="7.259" x1="3.28"/><linearGradient id="k" y2="13.319" gradientUnits="userSpaceOnUse" x2="11.149" gradientTransform="matrix(1.0135 0 0 .65864 -.16 14.772)" y1="1.761" x1="11.334"><stop offset="0" stop-color="#9e9e9e"/><stop offset="1" stop-color="#878787"/></linearGradient><linearGradient id="o" y2="10.495" xlink:href="#c" gradientUnits="userSpaceOnUse" x2="17.099" gradientTransform="translate(0 9.93)" y1="9.225" x1="21.551"/><linearGradient id="i" y2="10.836" xlink:href="#c" gradientUnits="userSpaceOnUse" x2="14.522" gradientTransform="matrix(.996 0 0 1.193 .047 5.725)" y1="15.124" x1="14.443"/><linearGradient id="j" y2="2.806" xlink:href="#e" gradientUnits="userSpaceOnUse" x2="12.876" gradientTransform="matrix(1.0135 0 0 .6586 -.16 14.772)" y1="12.822" x1="12.76"/><linearGradient id="h" y2="29.699" xlink:href="#a" gradientUnits="userSpaceOnUse" x2="12.941" gradientTransform="matrix(.9974 0 0 1.1254 .032 -1.804)" y1="14.997" x1="12.987"/><linearGradient id="w" y2="-1.205" xlink:href="#d" gradientUnits="userSpaceOnUse" x2="12.407" gradientTransform="matrix(1.0092 0 0 .767 -.11 14.446)" y1="6.247" x1="12.552"/><linearGradient gradientTransform="translate(-1 9)" gradientUnits="userSpaceOnUse" xlink:href="#f" id="t" y2="-.025" x2="17.592" y1="7" x1="17.592"/><linearGradient id="f"><stop offset="0" stop-color="#917f6e"/><stop offset="1" stop-color="#cbbaa9"/></linearGradient><linearGradient gradientTransform="translate(-25 6)" gradientUnits="userSpaceOnUse" xlink:href="#d" id="s" y2="7.092" x2="40.007" y1="12.911" x1="40.007"/><linearGradient gradientTransform="translate(-25 6)" gradientUnits="userSpaceOnUse" xlink:href="#d" id="r" y2="22.698" x2="38.382" y1="5.906" x1="38.382"/><linearGradient gradientTransform="translate(-25 6)" gradientUnits="userSpaceOnUse" xlink:href="#g" id="p" y2="24.034" x2="39.906" y1="6.123" x1="39.906"/><linearGradient id="g"><stop offset="0" stop-color="#fff4e9"/><stop offset="1" stop-color="#e7d6c5"/></linearGradient><linearGradient gradientTransform="translate(-25 6)" gradientUnits="userSpaceOnUse" xlink:href="#f" id="q" y2="5" x2="32.016" y1="24.011" x1="32.016"/></defs><path d="M18.466 22.406l-12.864.042L.63 31.42h22.825l-4.99-9.014z" fill="url(#h)" stroke="url(#i)" stroke-width="1.008" stroke-linejoin="round" transform="translate(0 -8)"/><path d="M3.393 22.502l17.182.008v-6.076L3.38 16.46l.013 6.042z" fill="url(#j)" stroke="url(#k)" stroke-linecap="round" stroke-linejoin="round" transform="translate(0 -8)"/><path d="M3.395 16.432l-2.892 7.01L.59 31.5l3.945-9.418-.01-5.583-1.13-.068z" fill="url(#l)" stroke="url(#m)" stroke-linecap="round" stroke-linejoin="round" transform="translate(0 -8)"/><path d="M19.517 21.98l-.04-5.566H20.6l2.887 6.982-.007 8.08z" fill="url(#n)" stroke="url(#o)" stroke-linecap="round" stroke-linejoin="round" transform="translate(0 -8)"/><path d="M11 11.5l-9.5 9.843L9.75 29.5 19.5 20v-8.5zm4 3c.828 0 1.5.67 1.5 1.5 0 .827-.672 1.5-1.5 1.5s-1.5-.673-1.5-1.5c0-.83.672-1.5 1.5-1.5z" fill="url(#p)" fill-rule="evenodd" stroke="url(#q)" transform="rotate(-45 5.878 16.964)"/><path d="M11.375 12.406L2.78 21.312l6.97 6.875 8.844-8.594v-7.187h-7.22z" opacity=".6" fill="none" stroke="url(#r)" transform="rotate(-45 5.878 16.964)"/><path d="M15 13.593c1.513-.053 2.76 1.554 2.33 3.007-.32 1.426-2.075 2.248-3.372 1.568-1.335-.59-1.8-2.467-.886-3.607.445-.6 1.18-.973 1.928-.967z" opacity=".6" fill="none" stroke="url(#s)" transform="rotate(-45 5.878 16.964)"/><path d="M15.5 15.5c1.11-.588 2.554-.768 3.927-.798.617-.014 1.24.112 1.846-.032.77-.184 1.296-.748 1.22-1.265-.104-.693-1.034-1.204-1.908-1.57-.774-.325-1.37-.904-1.685-1.515-.16-.31.12-.633.565-.733.405-.09.83-.126 1.24-.034.628.14 1.37.31 1.66.755" fill="none" stroke="url(#t)" transform="rotate(-45 5.878 16.964)"/><path d="M23.57 31.45l-.08-7.984-5.97-.038.02 3.013-11.02.04-.018-3.016-5.9-.04-.08 8.027H23.57z" fill="url(#u)" stroke="url(#v)" stroke-linejoin="round" transform="translate(0 -8)"/><path d="M5.357 17.44l-1.366.003-2.445 6.128" opacity=".81" fill="none" stroke="url(#w)" stroke-linecap="round" stroke-linejoin="round" transform="translate(0 -8)"/><path d="M22.586 30.427l-.04-6.02-4.044.004.022 3.013-12.987.04.023-3.016-4.057.043.002 5.978 21.08-.04z" opacity=".5" fill="none" stroke="url(#x)" stroke-linejoin="round" transform="translate(0 -8)"/><path d="M22.464 23.62l-2.457-6.21-2.138.005" opacity=".81" fill="none" stroke="url(#w)" stroke-linecap="round" stroke-linejoin="round" transform="translate(0 -8)"/></svg>