<?xml version="1.0" encoding="UTF-8" standalone="no"?>
<svg
   xmlns:dc="http://purl.org/dc/elements/1.1/"
   xmlns:cc="http://creativecommons.org/ns#"
   xmlns:rdf="http://www.w3.org/1999/02/22-rdf-syntax-ns#"
   xmlns:svg="http://www.w3.org/2000/svg"
   xmlns="http://www.w3.org/2000/svg"
   xmlns:xlink="http://www.w3.org/1999/xlink"
   xmlns:sodipodi="http://sodipodi.sourceforge.net/DTD/sodipodi-0.dtd"
   xmlns:inkscape="http://www.inkscape.org/namespaces/inkscape"
   height="24"
   width="24"
   version="1.1"
   id="svg88"
   sodipodi:docname="lc_dbtableedit.svg"
   inkscape:version="0.92.3 (unknown)"
   inkscape:export-filename="/home/rizmut/Dokumen/Rizmut/Github/libreoffice-style-elementary/images_elementary/cmd/lc_dbtableedit.png"
   inkscape:export-xdpi="96"
   inkscape:export-ydpi="96">
  <metadata
     id="metadata94">
    <rdf:RDF>
      <cc:Work
         rdf:about="">
        <dc:format>image/svg+xml</dc:format>
        <dc:type
           rdf:resource="http://purl.org/dc/dcmitype/StillImage" />
        <dc:title></dc:title>
      </cc:Work>
    </rdf:RDF>
  </metadata>
  <defs
     id="defs92">
    <linearGradient
       x1="23.576"
       y1="25.357"
       x2="23.576"
       y2="31.211"
       id="p"
       xlink:href="#a-3"
       gradientUnits="userSpaceOnUse"
       gradientTransform="matrix(0.65657,-0.6598,0.73452,0.73087,-21.95,5.314)" />
    <linearGradient
       id="a-3">
      <stop
         offset="0"
         stop-color="#181818"
         id="stop1341" />
      <stop
         offset=".135"
         stop-color="#dbdbdb"
         id="stop1343" />
      <stop
         offset=".202"
         stop-color="#a4a4a4"
         id="stop1345" />
      <stop
         offset=".27"
         stop-color="#fff"
         id="stop1347" />
      <stop
         offset=".447"
         stop-color="#8d8d8d"
         id="stop1349" />
      <stop
         offset=".571"
         stop-color="#959595"
         id="stop1351" />
      <stop
         offset=".72"
         stop-color="#cecece"
         id="stop1353" />
      <stop
         offset="1"
         stop-color="#181818"
         id="stop1355" />
    </linearGradient>
    <linearGradient
       x1="30.038"
       y1="24.99"
       x2="30.038"
       y2="30"
       id="q"
       xlink:href="#b-6"
       gradientUnits="userSpaceOnUse"
       gradientTransform="matrix(0.638,-0.64114,0.85963,0.85535,-24.357,1.938)" />
    <linearGradient
       id="b-6">
      <stop
         offset="0"
         stop-color="#565656"
         id="stop1359" />
      <stop
         offset=".5"
         stop-color="#9a9a9a"
         id="stop1361" />
      <stop
         offset="1"
         stop-color="#545454"
         id="stop1363" />
    </linearGradient>
    <linearGradient
       x1="30.038"
       y1="24.99"
       x2="30.038"
       y2="30"
       id="r"
       xlink:href="#c-7"
       gradientUnits="userSpaceOnUse"
       gradientTransform="matrix(0.638,-0.64114,0.85963,0.85535,-24.54,2.122)" />
    <linearGradient
       id="c-7">
      <stop
         offset="0"
         stop-color="#b1b1b1"
         id="stop1367" />
      <stop
         offset=".5"
         stop-color="#fff"
         id="stop1369" />
      <stop
         offset="1"
         stop-color="#8f8f8f"
         id="stop1371" />
    </linearGradient>
    <linearGradient
       x1="30.038"
       y1="24.99"
       x2="30.038"
       y2="30"
       id="s"
       xlink:href="#b-6"
       gradientUnits="userSpaceOnUse"
       gradientTransform="matrix(0.638,-0.64114,0.85963,0.85535,-23.722,1.3)" />
    <linearGradient
       x1="30.038"
       y1="24.99"
       x2="30.038"
       y2="30"
       id="t"
       xlink:href="#c-7"
       gradientUnits="userSpaceOnUse"
       gradientTransform="matrix(0.638,-0.64114,0.85963,0.85535,-23.905,1.484)" />
    <linearGradient
       x1="30.038"
       y1="24.99"
       x2="30.038"
       y2="30"
       id="u"
       xlink:href="#b-6"
       gradientUnits="userSpaceOnUse"
       gradientTransform="matrix(0.638,-0.64114,0.85963,0.85535,-23.084,0.66)" />
    <linearGradient
       x1="30.038"
       y1="24.99"
       x2="30.038"
       y2="30"
       id="v"
       xlink:href="#c-7"
       gradientUnits="userSpaceOnUse"
       gradientTransform="matrix(0.638,-0.64114,0.85963,0.85535,-23.267,0.843)" />
    <linearGradient
       x1="9"
       y1="29.056999"
       x2="9"
       y2="26.030001"
       id="w"
       xlink:href="#d-5"
       gradientUnits="userSpaceOnUse"
       gradientTransform="matrix(0.638,-0.64114,0.85963,0.85535,-24.6,2.182)" />
    <linearGradient
       id="d-5">
      <stop
         offset="0"
         stop-color="#ece5a5"
         id="stop1379" />
      <stop
         offset="1"
         stop-color="#fcfbf2"
         id="stop1381" />
    </linearGradient>
    <linearGradient
       x1="5.5180001"
       y1="37.372002"
       x2="9.5220003"
       y2="41.391998"
       id="x"
       xlink:href="#e-3"
       gradientUnits="userSpaceOnUse"
       gradientTransform="matrix(0.56036,0.0242,0.02416,0.55967,-1.392,-1.445)" />
    <linearGradient
       id="e-3">
      <stop
         offset="0"
         stop-color="#dbce48"
         id="stop1385" />
      <stop
         offset="1"
         stop-color="#c5b625"
         id="stop1387" />
    </linearGradient>
  </defs>
  <sodipodi:namedview
     pagecolor="#ffffff"
     bordercolor="#666666"
     borderopacity="1"
     objecttolerance="10"
     gridtolerance="10"
     guidetolerance="10"
     inkscape:pageopacity="0"
     inkscape:pageshadow="2"
     inkscape:window-width="1366"
     inkscape:window-height="706"
     id="namedview90"
     showgrid="false"
     inkscape:zoom="9.8333333"
     inkscape:cx="-1.0677966"
     inkscape:cy="11.186441"
     inkscape:window-x="0"
     inkscape:window-y="0"
     inkscape:window-maximized="1"
     inkscape:current-layer="svg88" />
  <linearGradient
     id="a"
     gradientTransform="matrix(.44576989 0 0 .44993664 .801525 -.024539)"
     gradientUnits="userSpaceOnUse"
     x1="25.132275"
     x2="25.132275"
     y1="15.499894"
     y2="48.395687">
    <stop
       offset="0"
       stop-color="#fafafa"
       id="stop2" />
    <stop
       offset="1"
       stop-color="#e2e1de"
       id="stop4" />
  </linearGradient>
  <linearGradient
     id="b"
     gradientTransform="matrix(.48483606 0 0 .5270602 -.165352 -.400235)"
     gradientUnits="userSpaceOnUse"
     x1="23.99999"
     x2="23.99999"
     xlink:href="#c"
     y1="4.999989"
     y2="43" />
  <linearGradient
     id="c">
    <stop
       offset="0"
       stop-color="#fff"
       id="stop8" />
    <stop
       offset=".06316455"
       stop-color="#fff"
       stop-opacity=".235294"
       id="stop10" />
    <stop
       offset=".95056331"
       stop-color="#fff"
       stop-opacity=".156863"
       id="stop12" />
    <stop
       offset="1"
       stop-color="#fff"
       stop-opacity=".392157"
       id="stop14" />
  </linearGradient>
  <linearGradient
     id="d"
     gradientTransform="matrix(.49999998 0 0 .25 -.999998 2.999819)"
     gradientUnits="userSpaceOnUse"
     x1="23.954144"
     x2="23.954144"
     y1="15.999304"
     y2="19.963179">
    <stop
       offset="0"
       id="stop17" />
    <stop
       offset="1"
       stop-opacity="0"
       id="stop19" />
  </linearGradient>
  <linearGradient
     id="e"
     gradientUnits="userSpaceOnUse"
     x1="8.295028"
     x2="8.295028"
     y1="-4.283906"
     y2="16.849756">
    <stop
       offset="0"
       stop-color="#cdf87e"
       id="stop22" />
    <stop
       offset=".26238"
       stop-color="#a2e34f"
       id="stop24" />
    <stop
       offset=".66093999"
       stop-color="#68b723"
       id="stop26" />
    <stop
       offset="1"
       stop-color="#1d7e0d"
       id="stop28" />
  </linearGradient>
  <linearGradient
     id="f"
     gradientUnits="userSpaceOnUse"
     x1="11.001243"
     x2="11.001243"
     xlink:href="#c"
     y1="2.268861"
     y2="19.728326" />
  <rect
     fill="url(#a)"
     height="20"
     rx=".527778"
     ry=".555556"
     width="19"
     x="2.000001"
     y="1.999818"
     id="rect32" />
  <path
     d="m2.50125 2.498592h17.938934v19.501226h-17.938934z"
     fill="none"
     stroke="url(#b)"
     stroke-linecap="round"
     stroke-linejoin="round"
     stroke-width="1.100222"
     id="path34" />
  <path
     d="m1.000001 6.999818h21v1h-21z"
     fill="url(#d)"
     opacity=".15"
     id="path36" />
  <path
     d="m1.5 6.163481v15.300155c0 .574146.462218 1.036364 1.036364 1.036364h17.927455c.574146 0 1.036364-.462218 1.036364-1.036364v-15.300155"
     fill="none"
     opacity=".3"
     stroke="#000"
     id="path38" />
  <path
     d="m2.536364 1.499845c-.574145 0-1.036364.462218-1.036364 1.036364v3.963609h20.000182v-3.963609c0-.574146-.462218-1.036364-1.036363-1.036364z"
     fill="url(#e)"
     id="path40" />
  <g
     fill="none"
     id="g48">
    <path
       d="m2.536364 1.499845c-.574146 0-1.036364.462218-1.036364 1.036364l.000001 3.963609h20.000182l-.000001-3.963609c0-.574146-.462218-1.036364-1.036364-1.036364z"
       opacity=".4"
       stroke="#126400"
       stroke-linecap="round"
       id="path42" />
    <path
       d="m17.500013 16.499818h-12.9999991zm-.0096-5.98755-12.9904261-.0093v7.99685h12.9999991zm.0096 3.98755h-13m13-2h-13m2.5453926-1.979205-.017614 7.979125m2.5487754-7.944393-.0034 7.944393m2.534768-7.972179.0037 7.972179m2.521631-7.999964.01314 7.999964"
       opacity=".2"
       stroke="#fff"
       id="path44" />
    <path
       d="m2.500001 2.499818v3h18v-3z"
       opacity=".5"
       stroke="url(#f)"
       stroke-linecap="round"
       stroke-linejoin="round"
       id="path46" />
  </g>
  <path
     d="m6.000001 7h1v14.999818h-1z"
     opacity=".321"
     id="path50" />
  <path
     d="m11.000001 7h1v14.999818h-1z"
     opacity=".321"
     id="path52" />
  <path
     d="m16.000002 7h1v14.999818h-1z"
     opacity=".321"
     id="path54" />
  <path
     d="m2.000001 9.999818h4v1h-4z"
     opacity=".321"
     id="path56" />
  <path
     d="m7.000001 9.999818h4v1h-4z"
     opacity=".321"
     id="path58" />
  <path
     d="m12.000001 9.999818h4v1h-4z"
     opacity=".321"
     id="path60" />
  <path
     d="m17.000002 9.999818h4v1h-4z"
     opacity=".321"
     id="path62" />
  <path
     d="m2.000001 13.999818h4v1h-4z"
     opacity=".321"
     id="path64" />
  <path
     d="m7.000001 13.999818h4v1h-4z"
     opacity=".321"
     id="path66" />
  <path
     d="m12.000001 13.999818h4v1h-4z"
     opacity=".321"
     id="path68" />
  <path
     d="m17.000002 13.999818h4v1h-4z"
     opacity=".321"
     id="path70" />
  <path
     d="m2.000001 17.999819h4v1h-4z"
     opacity=".321"
     id="path72" />
  <path
     d="m7.000001 17.999819h4v1h-4z"
     opacity=".321"
     id="path74" />
  <path
     d="m12.000001 17.999819h4v1h-4z"
     opacity=".321"
     id="path76" />
  <path
     d="m17.000002 17.999819h4v1h-4z"
     opacity=".321"
     id="path78" />
  <g
     fill="#126400"
     id="g86">
    <path
       d="m6.000001 1.999818h1v4.000182h-1z"
       opacity=".4"
       id="path80" />
    <path
       d="m11.000001 1.999818h1v4.000182h-1z"
       opacity=".4"
       id="path82" />
    <path
       d="m16.000002 1.999818h1v4.000182h-1z"
       opacity=".4"
       id="path84" />
  </g>
  <g
     id="g1470">
    <path
       style="opacity:0.15;fill:#0c0c0c;fill-rule:evenodd"
       inkscape:connector-curvature="0"
       d="m 21.362,19.94 c -0.137,-0.02 -0.245,-0.008 -0.316,0.008 L 11.5,22.145 9.744,22.55 9.69,22.56 l -2.136,1.505 5.097,-0.135 0.044,-0.01 1.768,-0.404 9.543,-2.212 c 0.287,-0.067 -0.142,-0.423 -0.96,-0.8 -0.615,-0.284 -1.27,-0.502 -1.683,-0.563 z"
       id="path1446" />
    <path
       style="fill:url(#p);stroke:#0c0c0c;stroke-width:0.5;stroke-linejoin:round"
       inkscape:connector-curvature="0"
       d="m 3.996,16.48 c 0.446,-0.335 1.697,0.293 2.847,1.437 1.147,1.14 1.75,2.362 1.424,2.813 0,0 0.028,0.025 0.027,0.026 L 24.304,4.668 C 24.71,4.258 24.079,2.968 22.894,1.788 21.705,0.608 20.41,-0.017 20.005,0.39 Z"
       transform="matrix(0.68916,0,0,0.68916,7.023,7.518)"
       id="path1448" />
    <path
       style="opacity:0.8;fill:#ffb6ed;stroke:#e28ccd;stroke-width:0.34457999;stroke-linejoin:round"
       inkscape:connector-curvature="0"
       d="m 19.464,9.14 c 0.307,-0.23 1.17,0.203 1.962,0.99 0.79,0.788 1.207,1.63 0.98,1.94 l 0.02,0.018 1.346,-1.353 0.028,-0.028 -0.02,-0.018 C 24.007,10.377 23.59,9.536 22.8,8.749 22.007,7.961 21.145,7.529 20.838,7.759 L 20.81,7.786 Z"
       id="path1450" />
    <path
       style="opacity:0.6;fill:#0c0c0c"
       inkscape:connector-curvature="0"
       d="m 9.777,18.875 c 0.307,-0.23 1.17,0.202 1.962,0.99 0.79,0.787 1.206,1.63 0.98,1.94 l 0.02,0.017 7.597,-7.635 0.028,-0.028 c 0,-0.002 -0.02,-0.018 -0.02,-0.02 0.227,-0.31 -0.19,-1.15 -0.98,-1.938 -0.793,-0.788 -1.655,-1.22 -1.962,-0.99 l -0.028,0.027 z"
       id="path1452" />
    <path
       style="fill:url(#q)"
       inkscape:connector-curvature="0"
       d="m 15.862,4.555 c 0.446,-0.334 1.697,0.293 2.847,1.437 1.146,1.142 1.75,2.363 1.423,2.813 0,0.002 0.028,0.025 0.027,0.027 l 0.2,-0.2 C 20.359,8.63 20.329,8.607 20.331,8.605 20.658,8.155 20.054,6.933 18.907,5.792 17.757,4.648 16.507,4.02 16.06,4.355 Z"
       transform="matrix(0.68916,0,0,0.68916,7.023,7.518)"
       id="path1454" />
    <path
       style="fill:url(#r)"
       inkscape:connector-curvature="0"
       d="m 15.68,4.74 c 0.445,-0.336 1.696,0.292 2.846,1.436 1.147,1.14 1.75,2.363 1.424,2.813 0,0 0.028,0.024 0.027,0.026 l 0.2,-0.2 C 20.177,8.813 20.147,8.789 20.15,8.788 20.477,8.336 19.872,7.115 18.725,5.974 17.575,4.83 16.325,4.202 15.878,4.537 Z"
       transform="matrix(0.68916,0,0,0.68916,7.023,7.518)"
       id="path1456" />
    <path
       style="fill:url(#s)"
       inkscape:connector-curvature="0"
       d="m 16.497,3.917 c 0.446,-0.334 1.697,0.293 2.847,1.437 1.147,1.142 1.75,2.363 1.424,2.813 0,0.002 0.028,0.025 0.027,0.027 l 0.2,-0.2 c 0,-0.002 -0.03,-0.025 -0.028,-0.027 C 21.294,7.517 20.69,6.295 19.543,5.154 18.393,4.01 17.143,3.382 16.696,3.717 Z"
       transform="matrix(0.68916,0,0,0.68916,7.023,7.518)"
       id="path1458" />
    <path
       style="fill:url(#t)"
       inkscape:connector-curvature="0"
       d="m 16.314,4.1 c 0.446,-0.334 1.697,0.294 2.847,1.438 1.148,1.14 1.752,2.363 1.425,2.813 0,0.003 0.028,0.026 0.027,0.028 l 0.2,-0.2 c 0,-0.002 -0.03,-0.026 -0.027,-0.027 0.327,-0.45 -0.278,-1.67 -1.425,-2.812 -1.15,-1.144 -2.4,-1.772 -2.847,-1.437 z"
       transform="matrix(0.68916,0,0,0.68916,7.023,7.518)"
       id="path1460" />
    <path
       style="fill:url(#u)"
       inkscape:connector-curvature="0"
       d="m 17.135,3.276 c 0.446,-0.334 1.697,0.293 2.847,1.437 1.147,1.142 1.75,2.363 1.424,2.813 0,0.002 0.028,0.025 0.027,0.027 l 0.2,-0.2 c 0,-0.002 -0.03,-0.025 -0.028,-0.027 0.327,-0.45 -0.277,-1.672 -1.424,-2.813 -1.15,-1.144 -2.4,-1.772 -2.846,-1.437 z"
       transform="matrix(0.68916,0,0,0.68916,7.023,7.518)"
       id="path1462" />
    <path
       style="fill:url(#v)"
       inkscape:connector-curvature="0"
       d="m 16.952,3.46 c 0.446,-0.335 1.697,0.293 2.847,1.437 1.146,1.14 1.75,2.362 1.423,2.813 0,0 0.028,0.025 0.027,0.026 l 0.2,-0.2 c 0,-0.002 -0.03,-0.025 -0.027,-0.027 0.327,-0.45 -0.278,-1.672 -1.425,-2.813 -1.15,-1.145 -2.4,-1.772 -2.847,-1.438 z"
       transform="matrix(0.68916,0,0,0.68916,7.023,7.518)"
       id="path1464" />
    <path
       style="fill:url(#w);fill-rule:evenodd;stroke:url(#x);stroke-width:0.5"
       inkscape:connector-curvature="0"
       d="M 0.928,23.76 8.211,20.79 8.274,20.73 C 8.601,20.278 7.989,19.057 6.842,17.916 5.692,16.772 4.444,16.146 3.998,16.482 Z"
       transform="matrix(0.68916,0,0,0.68916,7.023,7.518)"
       id="path1466" />
    <path
       style="fill:#0c0c0c;fill-rule:evenodd;stroke:#0c0c0c;stroke-width:0.34457999"
       inkscape:connector-curvature="0"
       d="m 8.235,22.535 -0.573,1.353 1.37,-0.56 C 8.922,23.195 8.82,23.062 8.688,22.931 8.538,22.781 8.388,22.658 8.235,22.536 Z"
       id="path1468" />
  </g>
</svg>
