<svg xmlns="http://www.w3.org/2000/svg" xmlns:xlink="http://www.w3.org/1999/xlink" height="24" width="24"><defs><radialGradient id="g" gradientUnits="userSpaceOnUse" cy="36.421" cx="24.837" gradientTransform="matrix(-.25568 0 0 -.19176 17.353 22.984)" r="15.645"><stop offset="0"/><stop stop-opacity="0" offset="1"/></radialGradient><linearGradient id="i" y2="2.724" gradientUnits="userSpaceOnUse" x2="25.469" gradientTransform="matrix(.27962 0 0 -.26116 5.022 18.693)" y1="32.841" x1="25.469"><stop stop-color="#90dbec" offset="0"/><stop stop-color="#55c1ec" offset=".25"/><stop stop-color="#3689e6" offset=".625"/><stop stop-color="#2b63a0" offset="1"/></linearGradient><linearGradient id="h" y2="42.788" gradientUnits="userSpaceOnUse" x2="36.246" gradientTransform="matrix(.27962 0 0 -.26116 5.022 18.693)" y1="2.929" x1="36.246"><stop stop-color="#185f9a" offset="0"/><stop stop-color="#599ec9" offset="1"/></linearGradient><linearGradient id="j" y2="20.649" gradientUnits="userSpaceOnUse" x2="37.474" gradientTransform="matrix(0 .30606 .3277 0 5.52 4.564)" y1="20.649" x1="20.797"><stop stop-color="#fff" offset="0"/><stop stop-color="#fff" stop-opacity=".235" offset=".512"/><stop stop-color="#fff" stop-opacity=".157" offset=".585"/><stop stop-color="#fff" stop-opacity=".392" offset="1"/></linearGradient><linearGradient id="e" y2="10.193" xlink:href="#a" gradientUnits="userSpaceOnUse" x2="43.091" gradientTransform="matrix(.3143 0 0 .32593 .457 -.322)" y1="10.193" x1="-1.454"/><linearGradient id="a"><stop stop-color="#f4f4f4" offset="0"/><stop stop-color="#dbdbdb" offset="1"/></linearGradient><linearGradient id="d" y2="31.754" xlink:href="#b" gradientUnits="userSpaceOnUse" x2="-75.375" gradientTransform="matrix(.2538 0 0 .30502 19.13 -.685)" y1="31.754" x1="-20.21"/><linearGradient id="b"><stop stop-color="#a0a0a0" offset="0"/><stop stop-color="#bebebe" offset="1"/></linearGradient><linearGradient id="f" y2="26.846" xlink:href="#c" gradientUnits="userSpaceOnUse" x2="44.555" gradientTransform="matrix(.24324 0 0 .35135 2.162 -.432)" y1="26.846" x1="3.444"/><linearGradient id="c"><stop stop-color="#fff" offset="0"/><stop stop-color="#fff" stop-opacity=".235" offset=".1"/><stop stop-color="#fff" stop-opacity=".157" offset=".8"/><stop stop-color="#fff" stop-opacity=".392" offset="1"/></linearGradient></defs><path stroke-linejoin="round" d="M2.5.5h11v15h-11V.5z" stroke="url(#d)" fill="url(#e)" transform="rotate(90 8.5 8.5)"/><path d="M12.5 14.5h-9v-13h9z" stroke="url(#f)" stroke-linecap="round" fill="none" transform="rotate(90 8.5 8.5)"/><path stroke-linejoin="round" d="M2.5.5h11v15h-11V.5z" stroke="url(#d)" fill="url(#e)" transform="rotate(90 8 15)"/><path d="M12.5 14.5h-9v-13h9z" stroke="url(#f)" stroke-linecap="round" fill="none" transform="rotate(90 8 15)"/><g><path opacity=".141" d="M7.003 16a4 3 0 1 1 8 0 4 3 0 0 1-8 0z" fill-rule="evenodd" fill="url(#g)" transform="translate(-2.036 1.926)"/><path stroke-linejoin="round" d="M9.303 8.59c-3.55 2.404-1.418 7.017 2.2 7.017v1.91l5-3.57-5-3.34v2c-2.553.1-3.668-2.34-1.844-4.018z" display="block" stroke="url(#h)" stroke-miterlimit="7" stroke-width=".964" fill="url(#i)" transform="translate(-2.036 1.926)"/><path opacity=".8" d="M8.62 9.833c-1.252 1.47-.124 5.31 3.883 4.785v.99l2.33-1.662-2.33-1.51v.793c-4.397.234-4.256-2.802-3.882-3.397z" display="block" stroke="url(#j)" stroke-miterlimit="7" stroke-width=".964" fill="none" transform="translate(-2.036 1.926)"/></g></svg>