<svg xmlns="http://www.w3.org/2000/svg" xmlns:xlink="http://www.w3.org/1999/xlink" height="24" width="24"><defs><linearGradient id="a"><stop stop-color="#fff" offset="0"/><stop stop-color="#fff" stop-opacity=".235" offset=".654"/><stop stop-color="#fff" stop-opacity=".157" offset="1"/><stop stop-color="#fff" stop-opacity=".392" offset="1"/></linearGradient><radialGradient id="c" cx="4.993" gradientUnits="userSpaceOnUse" cy="43.5" r="2.5" gradientTransform="matrix(1.9093 0 0 1.4 27.14 -17.4)"><stop stop-color="#181818" offset="0"/><stop stop-color="#181818" stop-opacity="0" offset="1"/></radialGradient><radialGradient id="d" cx="4.993" gradientUnits="userSpaceOnUse" cy="43.5" r="2.5" gradientTransform="matrix(2.0038 0 0 1.4 -20.012 -104.4)"><stop stop-color="#181818" offset="0"/><stop stop-color="#181818" stop-opacity="0" offset="1"/></radialGradient><linearGradient id="e" x1="25.058" gradientUnits="userSpaceOnUse" y1="47.028" gradientTransform="matrix(.9528 0 0 1 .472 0)" x2="25.058" y2="39.999"><stop stop-color="#181818" stop-opacity="0" offset="0"/><stop stop-color="#181818" offset=".5"/><stop stop-color="#181818" stop-opacity="0" offset="1"/></linearGradient><linearGradient id="h" y2="21.532" gradientUnits="userSpaceOnUse" x2="13.608" y1="2.546" x1="13.608"><stop stop-color="#f7b19e" offset="0"/><stop stop-color="#e2866d" offset="1"/></linearGradient><linearGradient id="i" y2="41.414" xlink:href="#a" gradientUnits="userSpaceOnUse" x2="24" gradientTransform="matrix(.4595 0 0 .4595 .974 .972)" y1="13.8" x1="23.728"/><linearGradient id="j" y2="29.436" gradientUnits="userSpaceOnUse" x2="13.3" gradientTransform="matrix(1.3832 0 0 1.4144 -11.892 21.51)" y1="12.091" x1="13.697"><stop stop-color="#aff05f" offset="0"/><stop stop-color="#68b723" offset="1"/></linearGradient><linearGradient id="k" y2="41.414" xlink:href="#a" gradientUnits="userSpaceOnUse" x2="24" gradientTransform="matrix(.4595 0 0 .4595 .974 .972)" y1="15.705" x1="24"/><linearGradient id="f" y2="21.532" gradientUnits="userSpaceOnUse" x2="13.608" gradientTransform="translate(2)" y1="2.546" x1="13.608"><stop stop-color="#cd9ef7" offset="0"/><stop stop-color="#a56de2" offset="1"/></linearGradient><linearGradient id="g" y2="41.414" xlink:href="#a" gradientUnits="userSpaceOnUse" x2="24" gradientTransform="matrix(.4595 0 0 .4595 2.974 .972)" y1="6.591" x1="24"/><linearGradient id="n" gradientTransform="matrix(.783 0 0 .781 -136.125 -5.74)" gradientUnits="userSpaceOnUse" x1="182" x2="182" xlink:href="#b" y1="33" y2="24.52"/><linearGradient id="b"><stop offset="0" stop-color="#fff"/><stop offset="1" stop-color="#fff" stop-opacity="0"/></linearGradient><linearGradient id="m" gradientTransform="matrix(.7238 0 0 .7238 -125.226 -4.258)" gradientUnits="userSpaceOnUse" x1="188" x2="188" xlink:href="#b" y1="17" y2="36.026"/><radialGradient id="l" cx="605.714" cy="486.648" gradientTransform="matrix(-.012 0 0 .0082 9.76 17.98)" gradientUnits="userSpaceOnUse" r="117.143"><stop offset="0"/><stop offset="1" stop-opacity="0"/></radialGradient></defs><g opacity=".4"><path fill="url(#c)" d="M36.68 40h4.763v7H36.68z" transform="matrix(.653 0 0 .4286 -3.077 2.857)"/><path transform="matrix(-.653 0 0 -.4286 -3.077 2.857)" fill="url(#d)" d="M-10-47h5v7h-5z"/><path fill="url(#e)" d="M10 40h26.68v7H10z" transform="matrix(.653 0 0 .4286 -3.077 2.857)"/></g><g transform="translate(-9.012)"><rect rx="1" ry="1" height="18.946" width="5.063" y="2.554" x="18.437" fill="url(#f)" color="#000"/><path opacity=".5" stroke-linejoin="round" stroke="url(#g)" stroke-linecap="round" fill="none" d="M19.52 3.492h2.98V20.5h-2.98z"/><rect opacity=".5" stroke-linejoin="round" rx="1" ry="1" height="18.992" width="4.983" stroke="#7239b3" stroke-linecap="round" y="2.508" x="18.517" fill="none" color="#000"/></g><g transform="translate(.012)"><rect rx="1" ry="1" height="14.985" width="5.063" y="6.515" x="16.437" fill="url(#h)" color="#000"/><path opacity=".5" stroke-linejoin="round" stroke="url(#i)" stroke-linecap="round" fill="none" d="M17.46 7.506H20.5v12.992H17.46z"/><rect opacity=".5" stroke-linejoin="round" rx="1" ry="1" height="14.995" width="5.009" stroke="#b35039" stroke-linecap="round" y="6.505" x="16.491" fill="none" color="#000"/></g><g transform="translate(-14)"><rect rx="1" ry="1" height="12.043" width="5.092" y="9.457" x="16.408" fill="url(#j)" color="#000"/><path opacity=".5" stroke-linejoin="round" stroke="url(#k)" stroke-linecap="round" fill="none" d="M17.505 10.507h2.997V20.5h-2.997z"/><rect opacity=".5" stroke-linejoin="round" rx="1" ry="1" height="11.992" width="4.996" stroke="#7bb339" stroke-linecap="round" y="9.508" x="16.504" fill="none" color="#000"/></g><path d="M2.5 21v2c-.62.004-1.5-.448-1.5-1s.692-1 1.5-1z" opacity=".15" fill="url(#l)"/><path d="M1.5 6.46l16 16h-16zm3 8.5v4.5h5z" fill="#81d72c" fill-opacity=".588" fill-rule="evenodd" stroke="#4e9a06" stroke-linejoin="round"/><path d="M2.5 8.857V21.46h12.602L2.5 8.857z" opacity=".5" fill="none" stroke="url(#m)"/><path d="M3.5 13.785v6.675h7" opacity=".5" fill="none" stroke="url(#n)"/></svg>