<svg xmlns="http://www.w3.org/2000/svg" xmlns:xlink="http://www.w3.org/1999/xlink" viewBox="0 0 24 24"><defs><radialGradient gradientTransform="matrix(.94118 0 0 .28235 -46.94 19.694)" gradientUnits="userSpaceOnUse" xlink:href="#a" id="h" fy="4.625" fx="62.625" r="10.625" cy="4.625" cx="62.625"/><linearGradient id="a"><stop offset="0"/><stop offset="1" stop-opacity="0"/></linearGradient><linearGradient xlink:href="#b" id="i" gradientUnits="userSpaceOnUse" gradientTransform="matrix(.8048 0 0 .60166 -1664.82 -1932.195)" x1="2082.573" y1="3213.947" x2="2082.573" y2="3247.298"/><linearGradient id="b"><stop offset="0" stop-color="#64baff"/><stop offset="1" stop-color="#3689e6"/></linearGradient><linearGradient y2="33.39" x2="26.435" y1="27.803" x1="30.027" gradientTransform="matrix(.6463 0 0 .653 -2.88 -12.25)" gradientUnits="userSpaceOnUse" id="j" xlink:href="#c"/><linearGradient id="c"><stop offset="0" stop-color="#fff"/><stop offset="0" stop-color="#fff" stop-opacity=".235"/><stop offset=".539" stop-color="#fff" stop-opacity=".157"/><stop offset="1" stop-color="#fff" stop-opacity=".392"/></linearGradient><linearGradient xlink:href="#d" id="k" gradientUnits="userSpaceOnUse" gradientTransform="matrix(.8236 0 0 .8237 18.39 -12.633)" x1="-6.388" y1="22.767" x2="-6.388" y2="39.523"/><linearGradient id="d"><stop offset="0" stop-color="#fff"/><stop offset=".5" stop-color="#fff" stop-opacity=".235"/><stop offset=".75" stop-color="#fff" stop-opacity=".157"/><stop offset="1" stop-color="#fff" stop-opacity=".392"/></linearGradient><linearGradient xlink:href="#d" id="l" gradientUnits="userSpaceOnUse" gradientTransform="matrix(.6066 0 0 .6068 16.73 -5.904)" x1="-2.85" y1="39.397" x2="-2.85" y2="22.916"/></defs><linearGradient id="e" gradientTransform="matrix(.4458 0 0 .45 .802 -.025)" gradientUnits="userSpaceOnUse" x1="25.132" x2="25.132" y1="15.5" y2="48.396"><stop offset="0" stop-color="#fafafa"/><stop offset="1" stop-color="#e2e1de"/></linearGradient><linearGradient id="f" gradientUnits="userSpaceOnUse" x1="8.295" x2="8.295" y1="-4.284" y2="16.85"><stop offset="0" stop-color="#cdf87e"/><stop offset=".262" stop-color="#a2e34f"/><stop offset=".661" stop-color="#68b723"/><stop offset="1" stop-color="#1d7e0d"/></linearGradient><linearGradient id="g" gradientUnits="userSpaceOnUse" x1="11.001" x2="11.001" y1="2.269" y2="19.728"><stop offset="0" stop-color="#fff"/><stop offset=".063" stop-color="#fff" stop-opacity=".235"/><stop offset=".951" stop-color="#fff" stop-opacity=".157"/><stop offset="1" stop-color="#fff" stop-opacity=".392"/></linearGradient><path d="M2.528 2h17.944c.293 0 .524.248.528.555l.05 4.398c.003.2-14.002-.004-14.002-.004s.052 14.946-.05 14.948L2.528 22c-.293.006-.528-.248-.528-.556V2.554C2 2.25 2.235 2 2.528 2z" fill="url(#e)"/><path d="M1 6.164v15.3C1 22.303 1.695 23 2.537 23H7v-1H2.537C2.23 22 2 21.77 2 21.463v-15.3z" opacity=".3"/><path d="M2.536 1.5c-.574 0-1.036.462-1.036 1.036V6.5h20V2.536c0-.574-.462-1.036-1.036-1.036z" fill="url(#f)"/><path d="M2 10h4v1H2zM2 14h4v1H2zM2 18h4v1H2z" opacity=".321"/><g fill="#126400"><path d="M6 2h1v4H6zM11 2h1v4h-1zM16 2h1v4h-1z" opacity=".4"/></g><path d="M2.536 1.5c-.574 0-1.036.462-1.036 1.036V6.5h20V2.536c0-.574-.462-1.036-1.036-1.036z" fill="none" opacity=".4" stroke="#126400" stroke-linecap="round"/><path d="M2.5 2.5v3h18v-3z" fill="none" opacity=".5" stroke="url(#g)" stroke-linecap="round" stroke-linejoin="round"/><path d="M6 22h1V6.854H6z" opacity=".321"/><path overflow="visible" d="M22 21c0 1.657-4.477 3-10 3S2 22.657 2 21s4.477-3 10-3 10 1.343 10 3z" transform="matrix(.6 0 0 .6 8.8 9.7)" opacity=".3" fill="url(#h)" fill-rule="evenodd"/><path d="M12.5 1.5v3.018c-.166-.01-.333-.017-.5-.018-4.694 0-8.5 3.806-8.5 8.5s3.806 8.5 8.5 8.5c4.5-.002 8.218-3.51 8.482-8H16.47c-.03.266-.088.523-.16.77l-.023.08c-.073.233-.167.457-.275.67l-.05.103c-.112.206-.238.4-.378.586l-.08.1c-.146.18-.305.353-.477.51l-.084.073c-.18.157-.373.304-.578.43-.016.01-.032.018-.05.027-.2.12-.41.226-.627.315l-.084.037c-.22.084-.448.146-.682.195-.044.01-.09.02-.133.028-.26.046-.52.074-.79.074-.31 0-.607-.03-.897-.09-.003 0-.007 0-.01-.004-.008 0-.014-.004-.02-.006-.274-.056-.54-.14-.792-.245l-.065-.027c-.247-.108-.482-.235-.703-.382l-.04-.023c-.223-.152-.43-.327-.622-.516l-.044-.042c-.184-.185-.35-.39-.498-.604l-.06-.08c-.137-.204-.252-.424-.354-.652-.02-.043-.04-.087-.058-.13-.095-.232-.17-.475-.225-.724l-.025-.12c-.053-.274-.085-.56-.085-.854 0-.307.03-.605.09-.895l.002-.005.006-.026c.057-.273.14-.538.246-.79l.027-.067c.11-.247.237-.482.384-.703l.023-.04c.152-.223.327-.43.516-.622l.042-.045c.185-.184.39-.35.604-.498l.08-.06c.205-.14.425-.254.653-.356.043-.02.087-.04.13-.058.232-.095.475-.17.724-.225.04-.01.08-.02.12-.026.277-.054.562-.086.856-.086.167 0 .334.01.5.03v2.97l7.766-5z" transform="matrix(.6 0 0 .6 8.8 9.7)" opacity=".99" fill="url(#i)"/><path overflow="visible" style="isolation:auto;mix-blend-mode:normal" d="M13.49 6.12V3.33l4.932 3.188-4.932 3.14V7.132" transform="matrix(.6 0 0 .6 8.8 9.7)" color="#000" opacity=".5" solid-color="#000000" fill="none" stroke="url(#j)" stroke-width="1.637"/><path d="M19.39 14.046a7.48 7.48 0 0 1-8.374 6.395 7.48 7.48 0 0 1-6.465-8.316A7.48 7.48 0 0 1 12.82 5.59" transform="matrix(.6 0 0 .6 8.8 9.7)" opacity=".5" fill="none" stroke="url(#k)" stroke-width="1.637"/><path d="M16.3 10.6v1.81c-.1-.005-.2-.01-.3-.01-2.816 0-5.1 2.284-5.1 5.1s2.284 5.1 5.1 5.1c2.7 0 4.93-2.106 5.09-4.8h-2.41c-.018.16-.053.314-.096.462l-.014.048c-.044.14-.1.274-.165.402l-.03.062c-.067.123-.143.24-.227.35l-.048.063c-.087.108-.183.21-.286.306l-.05.043c-.108.095-.224.183-.347.258-.01.006-.02.01-.03.017-.12.074-.247.137-.377.19l-.05.02c-.133.053-.27.09-.41.12l-.08.016c-.154.028-.312.044-.474.044-.185 0-.364-.02-.538-.055h-.006c-.004 0-.008-.003-.012-.004-.164-.033-.324-.082-.475-.146l-.04-.016c-.15-.065-.29-.14-.422-.23l-.024-.013c-.135-.09-.26-.196-.374-.31l-.026-.025c-.11-.112-.21-.235-.3-.363l-.035-.048c-.083-.126-.152-.258-.214-.395l-.033-.078c-.057-.14-.102-.285-.135-.434l-.017-.072c-.03-.163-.05-.334-.05-.51 0-.185.018-.364.054-.538v-.003l.004-.017c.033-.163.083-.322.146-.474l.017-.04c.064-.15.14-.29.23-.423l.013-.024c.09-.133.196-.258.31-.373l.024-.026c.11-.11.234-.21.363-.3l.048-.035c.124-.084.256-.153.393-.214l.078-.035c.14-.056.286-.1.436-.134.024-.006.048-.012.072-.016.166-.03.337-.05.513-.05.1 0 .202.007.3.017V16.6l4.66-3z" opacity=".5" fill="none" stroke="#002e99" stroke-width=".982" stroke-linecap="round" stroke-linejoin="round"/><path d="M19.77 14.5l-2.46-.005c-.77 2.723-3.505 4.45-6.332 3.912-2.975-.566-4.936-3.426-4.392-6.405.545-2.98 3.39-4.96 6.374-4.436" transform="matrix(.6 0 0 .6 8.8 9.7)" opacity=".5" fill="none" stroke="url(#l)" stroke-width="1.637"/></svg>