<svg xmlns="http://www.w3.org/2000/svg" xmlns:xlink="http://www.w3.org/1999/xlink" width="24" height="24"><defs><linearGradient id="d"><stop offset="0" stop-color="#fff"/><stop offset=".405" stop-color="#fff" stop-opacity=".235"/><stop offset=".744" stop-color="#fff" stop-opacity=".157"/><stop offset="1" stop-color="#fff" stop-opacity=".392"/></linearGradient><linearGradient y2="27.913" x2="107.101" y1="27.59" x1="82.924" spreadMethod="reflect" gradientTransform="matrix(-.22263 -.3738 .38562 -.21582 26.913 54.14)" gradientUnits="userSpaceOnUse" id="j" xlink:href="#a"/><linearGradient id="a"><stop offset="0" stop-color="#c2c3c4"/><stop offset=".095" stop-color="#c4c5c8"/><stop offset="1" stop-color="#fcfcfc"/></linearGradient><linearGradient id="b"><stop offset="0" stop-color="#fff"/><stop offset="1" stop-color="#9d9d9d"/></linearGradient><linearGradient id="c"><stop offset="0" stop-color="#cfd1d3"/><stop offset="1" stop-color="#cfd1d3" stop-opacity="0"/></linearGradient><linearGradient gradientUnits="userSpaceOnUse" y2="15.044" x2="16.016" y1="1.894" x1="16.016" id="l" xlink:href="#d" gradientTransform="translate(.008 .014)"/><linearGradient id="e"><stop offset="0" stop-color="#f4f4f4"/><stop offset="1" stop-color="#dbdbdb"/></linearGradient><linearGradient id="f"><stop offset="0" stop-color="#fff"/><stop offset="0" stop-color="#fff" stop-opacity=".235"/><stop offset="1" stop-color="#fff" stop-opacity=".157"/><stop offset="1" stop-color="#fff" stop-opacity=".392"/></linearGradient><linearGradient id="g"><stop offset="0" stop-opacity=".34"/><stop offset="1" stop-opacity=".247"/></linearGradient><linearGradient xlink:href="#g" id="k" x1=".11" y1="11.067" x2="22.258" y2="11.067" gradientUnits="userSpaceOnUse"/><linearGradient id="m" gradientTransform="matrix(.4223 0 0 .40494 1.865 1.178)" gradientUnits="userSpaceOnUse" x1="25.132" x2="25.132" y1="15.5" y2="48.396"><stop offset="0" stop-color="#fafafa"/><stop offset="1" stop-color="#e2e1de"/></linearGradient><linearGradient id="n" gradientUnits="userSpaceOnUse" x1="12.001" x2="12.001" xlink:href="#h" y1="3.269" y2="20.729"/><linearGradient id="h"><stop offset="0" stop-color="#fff"/><stop offset=".063" stop-color="#fff" stop-opacity=".235"/><stop offset=".951" stop-color="#fff" stop-opacity=".157"/><stop offset="1" stop-color="#fff" stop-opacity=".392"/></linearGradient><linearGradient id="o" gradientTransform="matrix(.5 0 0 .25 0 4)" gradientUnits="userSpaceOnUse" x1="23.954" x2="23.954" xlink:href="#i" y1="15.999" y2="19.963"/><linearGradient id="i"><stop offset="0" stop-opacity=".119"/><stop offset="1" stop-opacity="0"/></linearGradient><linearGradient id="p" gradientUnits="userSpaceOnUse" x1="9.295" x2="9.295" y1="-3.284" y2="17.85"><stop offset="0" stop-color="#cdf87e"/><stop offset=".262" stop-color="#a2e34f"/><stop offset=".661" stop-color="#68b723"/><stop offset="1" stop-color="#1d7e0d"/></linearGradient><linearGradient id="q" gradientUnits="userSpaceOnUse" x1="12.001" x2="12.001" xlink:href="#h" y1="3.269" y2="20.729"/></defs><path d="M10.112 20.64l2.344-1.353 2.844-9.74 6.458-3.74c-.197-1.898-1.152-3.217-2.49-4.313l-6.458 3.74L2.955 2.83.61 4.18l4.763 8.222z" fill="url(#j)" fill-rule="evenodd" stroke="url(#k)" stroke-linejoin="round" transform="rotate(120 11.254 9.87)"/><path d="M6.237 11.905l4.27 7.387 1.09-.738 3-9.783 6.125-3.456c-.117-1.22-.888-2.044-1.545-2.676l-6.045 3.596L3.16 3.94l-1.185.575z" fill="none" stroke="url(#l)" transform="rotate(120 11.254 9.87)"/><g transform="matrix(.4189 0 0 .4189 12.48 12.48)"><rect height="18" rx=".5" width="18" x="3" y="3" fill="url(#m)"/><path d="M3.5 3.5h17v17h-17z" fill="none" stroke="url(#n)" stroke-linecap="round" stroke-linejoin="round"/><path d="M2 8h20v1H2z" opacity=".15" fill="url(#o)"/><path d="M2.5 7.164v13.3c0 .574.462 1.036 1.036 1.036h16.928c.574 0 1.036-.462 1.036-1.036v-13.3" opacity=".3" fill="none" stroke="#000" stroke-width="2.387"/><path d="M3.537 2.195c-.738 0-1.342.604-1.342 1.342V7.5a.304.304 0 0 0 .305.305h19a.304.304 0 0 0 .305-.305V3.537c0-.738-.604-1.342-1.342-1.342z" fill="url(#p)"/><g fill="none"><path d="M3.536 2.5c-.574 0-1.036.462-1.036 1.036V7.5h19V3.536c0-.574-.462-1.036-1.036-1.036z" opacity=".4" stroke="#126400" stroke-width="2.387" stroke-linecap="round"/><path d="M18.5 17.5h-13zm-.01-5.988l-12.99-.01V19.5h13zm.01 3.988h-13m13-2h-13m2.545-1.98l-.017 7.98m2.55-7.944l-.005 7.944m2.535-7.972l.004 7.972m2.52-8l.014 8" opacity=".2" stroke="#fff"/><path d="M3.5 3.5v3h17v-3z" opacity=".5" stroke="url(#q)" stroke-linecap="round" stroke-linejoin="round"/></g></g></svg>