<svg xmlns="http://www.w3.org/2000/svg" xmlns:xlink="http://www.w3.org/1999/xlink" viewBox="0 0 24 24"><defs><linearGradient id="h" gradientTransform="matrix(.44577 0 0 .44994 .802 -.025)" gradientUnits="userSpaceOnUse" x1="25.132" x2="25.132" y1="15.5" y2="48.396"><stop offset="0" stop-color="#fafafa"/><stop offset="1" stop-color="#e2e1de"/></linearGradient><linearGradient id="i" gradientTransform="matrix(.48484 0 0 .52706 -.165 -.4)" gradientUnits="userSpaceOnUse" x1="24" x2="24" xlink:href="#a" y1="5" y2="43"/><linearGradient id="a"><stop offset="0" stop-color="#fff"/><stop offset=".063" stop-color="#fff" stop-opacity=".235"/><stop offset=".951" stop-color="#fff" stop-opacity=".157"/><stop offset="1" stop-color="#fff" stop-opacity=".392"/></linearGradient><linearGradient id="j" gradientTransform="matrix(.5 0 0 .25 -1 3)" gradientUnits="userSpaceOnUse" x1="23.954" x2="23.954" y1="15.999" y2="19.963"><stop offset="0"/><stop offset="1" stop-opacity="0"/></linearGradient><linearGradient id="k" gradientUnits="userSpaceOnUse" x1="8.295" x2="8.295" y1="-4.284" y2="16.85"><stop offset="0" stop-color="#cdf87e"/><stop offset=".262" stop-color="#a2e34f"/><stop offset=".661" stop-color="#68b723"/><stop offset="1" stop-color="#1d7e0d"/></linearGradient><linearGradient id="l" gradientUnits="userSpaceOnUse" x1="11.001" x2="11.001" xlink:href="#a" y1="2.269" y2="19.728"/></defs><linearGradient id="g" gradientTransform="matrix(.4054 0 0 .5135 2.27 -.324)" gradientUnits="userSpaceOnUse" x1="24" x2="24" y1="6.474" y2="41.526"><stop offset="0" stop-color="#fff"/><stop offset="0" stop-color="#fff" stop-opacity=".235"/><stop offset="1" stop-color="#fff" stop-opacity=".157"/><stop offset="1" stop-color="#fff" stop-opacity=".392"/></linearGradient><linearGradient id="f" gradientTransform="matrix(.48572 0 0 .4563 .343 .35)" gradientUnits="userSpaceOnUse" x1="25.132" x2="25.132" y1=".985" y2="47.013"><stop offset="0" stop-color="#f4f4f4"/><stop offset="1" stop-color="#dbdbdb"/></linearGradient><radialGradient id="e" cx="605.714" cy="486.648" gradientTransform="matrix(.01205 0 0 .00824 13.24 18.98)" gradientUnits="userSpaceOnUse" r="117.143" xlink:href="#b"/><linearGradient id="b"><stop offset="0"/><stop offset="1" stop-opacity="0"/></linearGradient><radialGradient id="d" cx="605.714" cy="486.648" gradientTransform="matrix(-.01205 0 0 .00824 10.76 18.98)" gradientUnits="userSpaceOnUse" r="117.143" xlink:href="#b"/><linearGradient id="c" gradientTransform="matrix(.0352 0 0 .00824 -.725 18.98)" gradientUnits="userSpaceOnUse" x1="302.857" x2="302.857" y1="366.648" y2="609.505"><stop offset="0" stop-opacity="0"/><stop offset=".5"/><stop offset="1" stop-opacity="0"/></linearGradient><path d="M3.5 22h17v2h-17z" fill="url(#c)" opacity=".15"/><path d="M3.5 22v2c-.62.004-1.5-.448-1.5-1s.692-1 1.5-1z" fill="url(#d)" opacity=".15"/><path d="M20.5 22v2c.62.004 1.5-.448 1.5-1s-.692-1-1.5-1z" fill="url(#e)" opacity=".15"/><path d="M3.5 1.5h17v21h-17v-21z" fill="url(#f)"/><path d="M19.5 21.5h-15v-19h15z" fill="none" stroke="url(#g)" stroke-linecap="round"/><path d="M3.446 1.482h17v21h-17v-21z" fill="none" opacity=".3" stroke="#000" stroke-linejoin="round"/><g transform="translate(10.007 7.955)"><rect y="2" x="2" width="8.858" ry=".556" rx=".528" height="12" fill="url(#h)"/><path d="M2.5 2.5H11L10.858 14H2.36z" fill="none" stroke="url(#i)" stroke-width="1.1" stroke-linecap="round" stroke-linejoin="round"/><path d="M1 7h11v1H1z" opacity=".15" fill="url(#j)"/><path d="M1.5 6.163l.018 7.3c0 .575.462 1.033 1.036 1.037l7.91.05c.575.005 1.04-.46 1.037-1.035l-.017-7.3" opacity=".3" fill="none" stroke="#000"/><path d="M2.536 1.5c-.574 0-1.036.462-1.036 1.036V6.5l9.99-.007V2.53c0-.574-.463-1.037-1.037-1.037z" fill="url(#k)"/><g fill="none" stroke-linecap="round"><path d="M2.536 1.5c-.574 0-1.036.462-1.036 1.036V6.5l9.99-.007V2.53c0-.574-.463-1.037-1.037-1.037z" opacity=".4" stroke="#126400"/><path d="M2.5 2.5v3l7.99-.007v-3z" opacity=".5" stroke="url(#l)" stroke-linejoin="round"/></g><path d="M6 7h1v8H6zM2 10h4v1H2zM7 10h4v1H7z" opacity=".321"/><g fill="#126400"><path d="M6 2h1v4H6zM11 2h1v4h-1z" opacity=".4"/></g></g></svg>