<svg xmlns="http://www.w3.org/2000/svg" xmlns:xlink="http://www.w3.org/1999/xlink" height="24" width="24"><defs><linearGradient id="a"><stop offset="0" stop-color="#181818"/><stop offset=".135" stop-color="#dbdbdb"/><stop offset=".202" stop-color="#a4a4a4"/><stop offset=".27" stop-color="#fff"/><stop offset=".447" stop-color="#8d8d8d"/><stop offset=".571" stop-color="#959595"/><stop offset=".72" stop-color="#cecece"/><stop offset="1" stop-color="#181818"/></linearGradient><linearGradient id="b"><stop offset="0" stop-color="#565656"/><stop offset=".5" stop-color="#9a9a9a"/><stop offset="1" stop-color="#545454"/></linearGradient><linearGradient id="c"><stop offset="0" stop-color="#b1b1b1"/><stop offset=".5" stop-color="#fff"/><stop offset="1" stop-color="#8f8f8f"/></linearGradient><linearGradient id="d"><stop offset="0" stop-color="#ece5a5"/><stop offset="1" stop-color="#fcfbf2"/></linearGradient><linearGradient id="e"><stop offset="0" stop-color="#dbce48"/><stop offset="1" stop-color="#c5b625"/></linearGradient></defs><linearGradient id="q" gradientTransform="matrix(.4857 0 0 .5 .343 -.25)" gradientUnits="userSpaceOnUse" x1="21.381" x2="21.381" y1="5.052" y2="44.137"><stop offset="0" stop-color="#fff"/><stop offset=".081" stop-color="#fff" stop-opacity=".235"/><stop offset=".923" stop-color="#fff" stop-opacity=".157"/><stop offset="1" stop-color="#fff" stop-opacity=".392"/></linearGradient><radialGradient id="h" cx="23.335" cy="41.636" gradientTransform="matrix(.486 0 0 .1988 .656 11.22)" gradientUnits="userSpaceOnUse" r="22.627"><stop offset="0"/><stop offset="1" stop-opacity="0"/></radialGradient><linearGradient id="i" gradientTransform="matrix(.8225 0 0 .829 -65.45 .077)" gradientUnits="userSpaceOnUse" x1="89.018" x2="89.018" xlink:href="#f" y1="22.537" y2="27.546"/><linearGradient id="f"><stop offset="0" stop-color="#a0a0a0"/><stop offset="1" stop-color="#4a4a4a"/></linearGradient><linearGradient id="k" gradientTransform="matrix(.8225 0 0 .829 -65.45 -4.923)" gradientUnits="userSpaceOnUse" x1="89.018" x2="89.018" xlink:href="#f" y1="22.537" y2="27.546"/><linearGradient id="m" gradientTransform="matrix(.8225 0 0 .816 -65.45 -9.478)" gradientUnits="userSpaceOnUse" x1="89.018" x2="89.018" xlink:href="#f" y1="22.537" y2="27.546"/><linearGradient id="g"><stop offset="0" stop-color="#b3b3b3"/><stop offset="1" stop-color="#dadada"/></linearGradient><linearGradient id="p" gradientTransform="matrix(.3785 0 0 .3414 -27.338 9.615)" gradientUnits="userSpaceOnUse" spreadMethod="reflect" x1="102.308" x2="102.308" y1="-2.393" y2="-24.582"><stop offset="0" stop-color="#a5a6a8"/><stop offset="1" stop-color="#e8e8e8"/></linearGradient><linearGradient id="o" gradientTransform="matrix(.3785 0 0 .3414 -27.338 9.615)" gradientUnits="userSpaceOnUse" x1="109.956" x2="109.956" xlink:href="#g" y1="-24.911" y2="-2.376"/><linearGradient id="j" gradientUnits="userSpaceOnUse" x1="1.998" x2="22.001" xlink:href="#g" y1="18.499" y2="18.499"/><linearGradient id="l" gradientUnits="userSpaceOnUse" x1="1.998" x2="22.001" xlink:href="#g" y1="13.499" y2="13.499"/><linearGradient id="n" gradientUnits="userSpaceOnUse" x1="1.998" x2="22.001" xlink:href="#g" y1="8.5" y2="8.5"/><path opacity=".3" fill-rule="evenodd" fill="url(#h)" d="M23 19.5c0 2.485-4.924 4.5-11 4.5S1 21.985 1 19.5 5.924 15 12 15s11 2.015 11 4.5z"/><path stroke="url(#i)" fill="url(#j)" d="M21.44 18.825c0 2.03-4.233 3.675-9.45 3.675-5.218 0-9.453-1.646-9.453-3.675 0-6.488-1.155-3.598 9.452-3.674 10.85-.077 9.45-2.847 9.45 3.676z"/><path stroke="#d8d8d8" fill="none" d="M21.5 15c0 1.933-4.253 3.5-9.5 3.5S2.5 16.933 2.5 15s4.253-3.5 9.5-3.5 9.5 1.567 9.5 3.5z"/><path stroke="url(#k)" fill="url(#l)" d="M21.44 13.825c0 2.03-4.233 3.675-9.45 3.675-5.218 0-9.453-1.646-9.453-3.675 0-6.488-1.155-3.598 9.452-3.674 10.85-.077 9.45-2.847 9.45 3.676z"/><path stroke="#d8d8d8" fill="none" d="M21.5 10c0 1.933-4.253 3.5-9.5 3.5S2.5 11.933 2.5 10 6.753 6.5 12 6.5s9.5 1.567 9.5 3.5z"/><path stroke="url(#m)" fill="url(#n)" d="M21.44 8.977c0 1.997-4.233 3.523-9.45 3.523-5.218 0-9.453-1.526-9.453-3.523 0-7.19-1.155-3.542 9.452-3.617 10.85-.078 9.45-3.11 9.45 3.617z"/><path stroke="url(#o)" fill="url(#p)" d="M21.5 5c0 1.933-4.253 3.5-9.5 3.5S2.5 6.933 2.5 5 6.753 1.5 12 1.5s9.5 1.567 9.5 3.5z"/><rect y="2.5" x="3.5" width="17" stroke="url(#q)" ry="3" rx="17.5" opacity=".5" height="19" fill="none"/><path d="M16 1v3h1l1 1.016v13.92L17 20h-1v3h7v-3h-1l-1-.93V5l1-1h1V1z" opacity=".52" fill-rule="evenodd"/><path d="M16.97 2.5h1.53s1 0 1 1v17s-.088 1-1.088 1H16.97m5.044-19h-1.53s-1 0-1 1v17s.087 1 1.088 1h1.442" fill="none" stroke="#fff"/></svg>