<svg xmlns="http://www.w3.org/2000/svg" xmlns:xlink="http://www.w3.org/1999/xlink" viewBox="0 0 24 24"><defs><linearGradient id="a"><stop offset="0" stop-color="#181818"/><stop offset=".135" stop-color="#dbdbdb"/><stop offset=".202" stop-color="#a4a4a4"/><stop offset=".27" stop-color="#fff"/><stop offset=".447" stop-color="#8d8d8d"/><stop offset=".571" stop-color="#959595"/><stop offset=".72" stop-color="#cecece"/><stop offset="1" stop-color="#181818"/></linearGradient><linearGradient id="b"><stop offset="0" stop-color="#565656"/><stop offset=".5" stop-color="#9a9a9a"/><stop offset="1" stop-color="#545454"/></linearGradient><linearGradient id="c"><stop offset="0" stop-color="#b1b1b1"/><stop offset=".5" stop-color="#fff"/><stop offset="1" stop-color="#8f8f8f"/></linearGradient><linearGradient id="d"><stop offset="0" stop-color="#ece5a5"/><stop offset="1" stop-color="#fcfbf2"/></linearGradient><linearGradient id="e"><stop offset="0" stop-color="#dbce48"/><stop offset="1" stop-color="#c5b625"/></linearGradient></defs><linearGradient id="f"><stop offset="0"/><stop offset="1" stop-opacity="0"/></linearGradient><linearGradient id="h" gradientTransform="matrix(.03006 0 0 .01647 2.135 13.96)" gradientUnits="userSpaceOnUse" x1="302.857" x2="302.857" y1="366.648" y2="609.505"><stop offset="0" stop-opacity="0"/><stop offset=".5"/><stop offset="1" stop-opacity="0"/></linearGradient><radialGradient id="i" cx="605.714" cy="486.648" gradientTransform="matrix(.03006 0 0 .01647 2.14 13.96)" gradientUnits="userSpaceOnUse" r="117.143" xlink:href="#f"/><radialGradient id="j" cx="605.714" cy="486.648" gradientTransform="matrix(-.03006 0 0 .01647 23.86 13.96)" gradientUnits="userSpaceOnUse" r="117.143" xlink:href="#f"/><linearGradient id="k" gradientUnits="userSpaceOnUse" x1="16.04" x2="15.99" y1=".377" y2="23.888"><stop offset="0" stop-color="#f4f4f4"/><stop offset="1" stop-color="#dbdbdb"/></linearGradient><linearGradient id="l" gradientUnits="userSpaceOnUse" x1="13.3" x2="12.679" xlink:href="#g" y1="23.048" y2="-5.018"/><linearGradient id="g"><stop offset="0" stop-color="#8d8d8d"/><stop offset="1" stop-color="#c3c3c3"/></linearGradient><linearGradient id="m" gradientUnits="userSpaceOnUse" x1="11.413" x2="11.719" y1="1.918" y2="21.982"><stop offset="0" stop-color="#fff"/><stop offset="1" stop-color="#fff" stop-opacity=".248"/></linearGradient><linearGradient id="n" gradientUnits="userSpaceOnUse" x1="13.132" x2="13.19" xlink:href="#g" y1="23.033" y2="13.664"/><path d="M5.742 20h14.516v4H5.742z" fill="url(#h)" opacity=".5"/><path d="M20.258 20v4c1.548.007 3.742-.896 3.742-2s-1.728-2-3.742-2z" fill="url(#i)" opacity=".5"/><path d="M5.742 20v4C4.194 24.007 2 23.104 2 22s1.728-2 3.742-2z" fill="url(#j)" opacity=".5"/><path d="M2.5 1.5C.934 1.48.407 3.01.53 4.5H2.5v16c0 .943 1.057 2 2 2h17V3.8c0-.943-1.357-2.3-2.3-2.3z" fill="url(#k)" stroke="url(#l)" stroke-linecap="round" stroke-linejoin="round"/><path d="M6 4v1h12V4zm0 2v1h12V6zm0 2v1h12V8zm0 2v1h12v-1zm0 2v1h12v-1zm0 2v1h12v-1zm0 2v1h12v-1zm0 2v1h12v-1z" opacity=".1"/><path d="M4 4v1h1V4zm0 2v1h1V6zm0 2v1h1V8zm0 2v1h1v-1zm0 2v1h1v-1zm0 2v1h1v-1zm0 2v1h1v-1zm0 2v1h1v-1zm0 2v1h1v-1zM19 4v1h1V4zm0 2v1h1V6zm0 2v1h1V8zm0 2v1h1v-1zm0 2v1h1v-1zm0 2v1h1v-1zm0 2v1h1v-1zm0 2v1h1v-1z" fill="#aaa"/><path d="M3.29 2.5c-1.544-.107-1.68.58-1.79 1h2v16.69c0 .853.74 1.31 1.59 1.31H20.5V4.11c0-.853-.752-1.61-1.6-1.61z" fill="none" opacity=".604" stroke="url(#m)" stroke-linecap="round" stroke-linejoin="round"/><path d="M6.5 19.5h17c.125 1.5-.41 3.043-2 3h-17c1.51 0 2.004-1.375 2-3z" fill="#c8c8c8" stroke="url(#n)" stroke-linecap="round" stroke-linejoin="round"/><rect fill="#fff" height=".933" opacity=".7" rx=".3" width="16" x="7" y="20.067"/><path d="M16 1v3h1l1 1.016v13.92L17 20h-1v3h7v-3h-1l-1-.93V5l1-1h1V1z" opacity=".52" fill-rule="evenodd"/><path d="M16.97 2.5h1.53s1 0 1 1v17s-.088 1-1.088 1H16.97m5.044-19h-1.53s-1 0-1 1v17s.087 1 1.088 1h1.442" fill="none" stroke="#fff"/></svg>