<svg xmlns="http://www.w3.org/2000/svg" xmlns:xlink="http://www.w3.org/1999/xlink" viewBox="0 0 24 24"><defs><radialGradient cx="23.335" cy="41.636" r="22.627" fx="23.335" fy="41.636" id="n" xlink:href="#a" gradientUnits="userSpaceOnUse" gradientTransform="matrix(.48614 0 0 .19884 .656 19.22)"/><linearGradient id="a"><stop offset="0"/><stop offset="1" stop-opacity="0"/></linearGradient><linearGradient x1="103.95" y1="-7.666" x2="89.424" y2="-7.666" id="o" xlink:href="#b" gradientUnits="userSpaceOnUse" gradientTransform="matrix(.37655 0 0 .3584 -27.15 31.67)" spreadMethod="reflect"/><linearGradient id="b"><stop offset="0" stop-color="#868688"/><stop offset="1" stop-color="#d9d9da"/></linearGradient><linearGradient x1="89.018" y1="22.537" x2="89.018" y2="27.546" id="p" xlink:href="#c" gradientUnits="userSpaceOnUse" gradientTransform="matrix(.82245 0 0 .82906 -65.45 8.077)"/><linearGradient id="c"><stop offset="0" stop-color="#a0a0a0"/><stop offset="1" stop-color="#4a4a4a"/></linearGradient><linearGradient x1="103.95" y1="-7.666" x2="89.424" y2="-7.666" id="q" xlink:href="#b" gradientUnits="userSpaceOnUse" gradientTransform="matrix(.37655 0 0 .3584 -27.15 26.67)" spreadMethod="reflect"/><linearGradient x1="89.018" y1="22.537" x2="89.018" y2="27.546" id="r" xlink:href="#c" gradientUnits="userSpaceOnUse" gradientTransform="matrix(.82245 0 0 .82906 -65.45 3.077)"/><linearGradient x1="103.95" y1="-7.666" x2="89.424" y2="-7.666" id="s" xlink:href="#b" gradientUnits="userSpaceOnUse" gradientTransform="matrix(.37655 0 0 .3528 -27.15 21.746)" spreadMethod="reflect"/><linearGradient x1="89.018" y1="22.537" x2="89.018" y2="27.546" id="t" xlink:href="#c" gradientUnits="userSpaceOnUse" gradientTransform="matrix(.82245 0 0 .8161 -65.45 -1.478)"/><linearGradient x1="102.308" y1="-2.393" x2="102.308" y2="-24.582" id="u" xlink:href="#d" gradientUnits="userSpaceOnUse" gradientTransform="matrix(.37845 0 0 .34136 -27.338 17.615)" spreadMethod="reflect"/><linearGradient id="d"><stop offset="0" stop-color="#a5a6a8"/><stop offset="1" stop-color="#e8e8e8"/></linearGradient><linearGradient x1="109.956" y1="-24.911" x2="109.956" y2="-2.376" id="v" xlink:href="#e" gradientUnits="userSpaceOnUse" gradientTransform="matrix(.37845 0 0 .34136 -27.338 17.615)"/><linearGradient id="e"><stop offset="0" stop-color="#b3b3b3"/><stop offset="1" stop-color="#dadada"/></linearGradient><linearGradient x1="21.381" y1="5.052" x2="21.381" y2="44.137" id="w" xlink:href="#f" gradientUnits="userSpaceOnUse" gradientTransform="matrix(.4857 0 0 .5 .343 7.75)"/><linearGradient id="f"><stop offset="0" stop-color="#fff"/><stop offset=".081" stop-color="#fff" stop-opacity=".235"/><stop offset=".923" stop-color="#fff" stop-opacity=".157"/><stop offset="1" stop-color="#fff" stop-opacity=".392"/></linearGradient><clipPath id="m"><path fill="#7a36b1" stroke-linecap="round" stroke-linejoin="round" d="M-1 7h16v20H-1z"/></clipPath></defs><linearGradient id="l" gradientTransform="matrix(.4054 0 0 .5135 2.27 -.324)" gradientUnits="userSpaceOnUse" x1="24" x2="24" y1="6.474" y2="41.526"><stop offset="0" stop-color="#fff"/><stop offset="0" stop-color="#fff" stop-opacity=".235"/><stop offset="1" stop-color="#fff" stop-opacity=".157"/><stop offset="1" stop-color="#fff" stop-opacity=".392"/></linearGradient><linearGradient id="k" gradientTransform="matrix(.48572 0 0 .4563 .343 .35)" gradientUnits="userSpaceOnUse" x1="25.132" x2="25.132" y1=".985" y2="47.013"><stop offset="0" stop-color="#f4f4f4"/><stop offset="1" stop-color="#dbdbdb"/></linearGradient><radialGradient id="j" cx="605.714" cy="486.648" gradientTransform="matrix(.01205 0 0 .00824 13.24 18.98)" gradientUnits="userSpaceOnUse" r="117.143" xlink:href="#g"/><linearGradient id="g"><stop offset="0"/><stop offset="1" stop-opacity="0"/></linearGradient><radialGradient id="i" cx="605.714" cy="486.648" gradientTransform="matrix(-.01205 0 0 .00824 10.76 18.98)" gradientUnits="userSpaceOnUse" r="117.143" xlink:href="#g"/><linearGradient id="h" gradientTransform="matrix(.0352 0 0 .00824 -.725 18.98)" gradientUnits="userSpaceOnUse" x1="302.857" x2="302.857" y1="366.648" y2="609.505"><stop offset="0" stop-opacity="0"/><stop offset=".5"/><stop offset="1" stop-opacity="0"/></linearGradient><path opacity=".15" fill="url(#h)" d="M3.5 22h17v2h-17z"/><path opacity=".15" fill="url(#i)" d="M3.5 22v2c-.62.004-1.5-.448-1.5-1s.692-1 1.5-1z"/><path opacity=".15" fill="url(#j)" d="M20.5 22v2c.62.004 1.5-.448 1.5-1s-.692-1-1.5-1z"/><path fill="url(#k)" d="M3.5 1.5h17v21h-17v-21z"/><path fill="none" stroke="url(#l)" stroke-linecap="round" d="M19.5 21.5h-15v-19h15z"/><path stroke-linejoin="round" stroke="#000" opacity=".3" fill="none" d="M3.446 1.482h17v21h-17v-21z"/><g transform="translate(5 -5)" clip-path="url(#m)" opacity=".65"><g><path d="M23 27.5c0 2.485-4.924 4.5-11 4.5S1 29.985 1 27.5 5.924 23 12 23s11 2.015 11 4.5z" overflow="visible" opacity=".3" fill="url(#n)" fill-rule="evenodd"/><path d="M21.44 26.825c0 2.03-4.233 3.675-9.45 3.675-5.218 0-9.453-1.646-9.453-3.675 0-6.488-1.155-3.598 9.452-3.674 10.85-.078 9.45-2.848 9.45 3.675z" fill="url(#o)" stroke="url(#p)"/><path d="M21.5 23c0 1.933-4.253 3.5-9.5 3.5S2.5 24.933 2.5 23s4.253-3.5 9.5-3.5 9.5 1.567 9.5 3.5z" fill="none" stroke="#d8d8d8"/><path d="M21.44 21.825c0 2.03-4.233 3.675-9.45 3.675-5.218 0-9.453-1.646-9.453-3.675 0-6.488-1.155-3.598 9.452-3.674 10.85-.078 9.45-2.848 9.45 3.675z" fill="url(#q)" stroke="url(#r)"/><path d="M21.5 18c0 1.933-4.253 3.5-9.5 3.5S2.5 19.933 2.5 18s4.253-3.5 9.5-3.5 9.5 1.567 9.5 3.5z" fill="none" stroke="#d8d8d8"/><path d="M21.44 16.977c0 1.997-4.233 3.523-9.45 3.523-5.218 0-9.453-1.526-9.453-3.523 0-7.19-1.155-3.542 9.452-3.617 10.85-.078 9.45-3.11 9.45 3.617z" fill="url(#s)" stroke="url(#t)"/><path d="M21.5 13c0 1.933-4.253 3.5-9.5 3.5S2.5 14.933 2.5 13 6.753 9.5 12 9.5s9.5 1.567 9.5 3.5z" fill="url(#u)" stroke="url(#v)"/></g><rect width="17" height="19" rx="17.5" ry="3" x="3.5" y="10.5" color="#000" overflow="visible" opacity=".5" fill="none" stroke="url(#w)"/></g></svg>