<svg xmlns="http://www.w3.org/2000/svg" xmlns:xlink="http://www.w3.org/1999/xlink" height="24" width="24"><linearGradient id="a"><stop offset="0" stop-color="#ce5c00"/><stop offset="1" stop-color="#ce5c00" stop-opacity="0"/></linearGradient><linearGradient id="f" gradientUnits="userSpaceOnUse" x1="-208.391" x2="-209.063" xlink:href="#a" y1="-491.641" y2="-491.641"/><linearGradient id="b"><stop offset="0" stop-color="#fcaf3e"/><stop offset="1" stop-color="#fcaf3e" stop-opacity="0"/></linearGradient><linearGradient id="e" gradientUnits="userSpaceOnUse" x1="-208.184" x2="-208.828" xlink:href="#b" y1="-491.453" y2="-491.453"/><linearGradient id="d" gradientUnits="userSpaceOnUse" x1="187.609" x2="186.937" xlink:href="#a" y1="489.359" y2="489.359"/><linearGradient id="c" gradientUnits="userSpaceOnUse" x1="187.816" x2="187.172" xlink:href="#b" y1="489.547" y2="489.547"/><path d="M10.495 7.498v12h-7v-12z" stroke-miterlimit="3" fill="#d3d7cf" stroke="#888a85" stroke-linejoin="round"/><path d="M20.505 2.5v17.998h-7.003v-18z" fill="#d3d7cf" fill-rule="evenodd" stroke="#888a85" stroke-linejoin="round" stroke-miterlimit="0"/><path d="M19.5 3.498v16h-4.998v-16z" stroke-miterlimit="2" fill="none" stroke="#fff" stroke-linecap="round"/><path d="M9.495 8.498v10h-5v-10z" stroke-miterlimit="3" fill="none" stroke="#fff"/><g stroke-linejoin="round" stroke-miterlimit="0"><path d="M186.5 489.5h3v2h-3z" fill="url(#c)" stroke="url(#d)" transform="rotate(-90 -137 347)"/><g fill="#fcaf3e" stroke="#ce5c00"><path d="M5.5 18.5v-3h2v3zM5.5 13.5v-3h2v3zM5.5 8.5v-3h2v3z"/></g><path d="M-209.5-491.5h3v2h-3z" fill="url(#e)" stroke="url(#f)" transform="rotate(90 -347 -137)"/></g><g stroke-linejoin="round" stroke-miterlimit="0"><path d="M186.5 489.5h3v2h-3z" fill="url(#c)" stroke="url(#d)" transform="rotate(-90 -132 342)"/><g fill="#fcaf3e" stroke="#ce5c00"><path d="M15.5 18.5v-3h2v3zM15.5 13.5v-3h2v3zM15.5 8.5v-3h2v3z"/></g><path d="M-209.5-491.5h3v2h-3z" fill="url(#e)" stroke="url(#f)" transform="rotate(90 -342 -132)"/></g></svg>