<svg xmlns="http://www.w3.org/2000/svg" xmlns:xlink="http://www.w3.org/1999/xlink" height="24" width="24"><defs><linearGradient id="a"><stop stop-color="#fff" offset="0"/><stop stop-color="#fff" stop-opacity=".235" offset=".654"/><stop stop-color="#fff" stop-opacity=".157" offset="1"/><stop stop-color="#fff" stop-opacity=".392" offset="1"/></linearGradient><radialGradient id="g" cx="4.993" gradientUnits="userSpaceOnUse" cy="43.5" r="2.5" gradientTransform="matrix(1.9093 0 0 1.4 27.14 -17.4)"><stop stop-color="#181818" offset="0"/><stop stop-color="#181818" stop-opacity="0" offset="1"/></radialGradient><radialGradient id="h" cx="4.993" gradientUnits="userSpaceOnUse" cy="43.5" r="2.5" gradientTransform="matrix(2.0038 0 0 1.4 -20.012 -104.4)"><stop stop-color="#181818" offset="0"/><stop stop-color="#181818" stop-opacity="0" offset="1"/></radialGradient><linearGradient id="i" x1="25.058" gradientUnits="userSpaceOnUse" y1="47.028" gradientTransform="matrix(.9528 0 0 1 .472 0)" x2="25.058" y2="39.999"><stop stop-color="#181818" stop-opacity="0" offset="0"/><stop stop-color="#181818" offset=".5"/><stop stop-color="#181818" stop-opacity="0" offset="1"/></linearGradient><linearGradient id="l" y2="21.532" gradientUnits="userSpaceOnUse" x2="13.608" y1="2.546" x1="13.608"><stop stop-color="#f7b19e" offset="0"/><stop stop-color="#e2866d" offset="1"/></linearGradient><linearGradient id="m" y2="41.414" xlink:href="#a" gradientUnits="userSpaceOnUse" x2="24" gradientTransform="matrix(.4595 0 0 .4595 .974 .972)" y1="13.8" x1="23.728"/><linearGradient id="n" y2="29.436" gradientUnits="userSpaceOnUse" x2="13.3" gradientTransform="matrix(1.3832 0 0 1.4144 -11.892 21.51)" y1="12.091" x1="13.697"><stop stop-color="#aff05f" offset="0"/><stop stop-color="#68b723" offset="1"/></linearGradient><linearGradient id="o" y2="41.414" xlink:href="#a" gradientUnits="userSpaceOnUse" x2="24" gradientTransform="matrix(.4595 0 0 .4595 .974 .972)" y1="15.705" x1="24"/><linearGradient id="j" y2="21.532" gradientUnits="userSpaceOnUse" x2="13.608" gradientTransform="translate(2)" y1="2.546" x1="13.608"><stop stop-color="#cd9ef7" offset="0"/><stop stop-color="#a56de2" offset="1"/></linearGradient><linearGradient id="k" y2="41.414" xlink:href="#a" gradientUnits="userSpaceOnUse" x2="24" gradientTransform="matrix(.4595 0 0 .4595 2.974 .972)" y1="6.591" x1="24"/><linearGradient x1="103.95" y1="-7.666" x2="89.424" y2="-7.666" id="p" xlink:href="#b" gradientUnits="userSpaceOnUse" gradientTransform="matrix(.2576 0 0 .256 -18.787 32.336)" spreadMethod="reflect"/><linearGradient id="b"><stop offset="0" stop-color="#868688"/><stop offset="1" stop-color="#d9d9da"/></linearGradient><linearGradient x1="89.018" y1="22.537" x2="89.018" y2="27.546" id="q" xlink:href="#c" gradientUnits="userSpaceOnUse" gradientTransform="matrix(.5627 0 0 .5922 -44.99 15.484)"/><linearGradient id="c"><stop offset="0" stop-color="#a0a0a0"/><stop offset="1" stop-color="#4a4a4a"/></linearGradient><linearGradient x1="103.95" y1="-7.666" x2="89.424" y2="-7.666" id="r" xlink:href="#b" gradientUnits="userSpaceOnUse" gradientTransform="matrix(.2576 0 0 .256 -18.787 28.336)" spreadMethod="reflect"/><linearGradient x1="89.018" y1="22.537" x2="89.018" y2="27.546" id="s" xlink:href="#c" gradientUnits="userSpaceOnUse" gradientTransform="matrix(.5627 0 0 .5922 -44.99 11.484)"/><linearGradient x1="103.95" y1="-7.666" x2="89.424" y2="-7.666" id="t" xlink:href="#b" gradientUnits="userSpaceOnUse" gradientTransform="matrix(.2576 0 0 .252 -18.787 24.39)" spreadMethod="reflect"/><linearGradient x1="89.018" y1="22.537" x2="89.018" y2="27.546" id="u" xlink:href="#c" gradientUnits="userSpaceOnUse" gradientTransform="matrix(.5627 0 0 .583 -44.99 7.8)"/><linearGradient x1="102.308" y1="-2.393" x2="102.308" y2="-24.582" id="v" xlink:href="#d" gradientUnits="userSpaceOnUse" gradientTransform="matrix(.259 0 0 .195 -18.915 21.137)" spreadMethod="reflect"/><linearGradient id="d"><stop offset="0" stop-color="#a5a6a8"/><stop offset="1" stop-color="#e8e8e8"/></linearGradient><linearGradient x1="109.956" y1="-24.911" x2="109.956" y2="-2.376" id="w" xlink:href="#e" gradientUnits="userSpaceOnUse" gradientTransform="matrix(.259 0 0 .195 -18.915 21.137)"/><linearGradient id="e"><stop offset="0" stop-color="#b3b3b3"/><stop offset="1" stop-color="#dadada"/></linearGradient><linearGradient x1="21.381" y1="5.052" x2="21.381" y2="44.137" id="x" xlink:href="#f" gradientUnits="userSpaceOnUse" gradientTransform="matrix(.3143 0 0 .342 .457 15.618)"/><linearGradient id="f"><stop offset="0" stop-color="#fff"/><stop offset=".081" stop-color="#fff" stop-opacity=".235"/><stop offset=".923" stop-color="#fff" stop-opacity=".157"/><stop offset="1" stop-color="#fff" stop-opacity=".392"/></linearGradient></defs><g opacity=".4"><path fill="url(#g)" d="M36.68 40h4.763v7H36.68z" transform="matrix(.653 0 0 .4286 -3.077 2.857)"/><path transform="matrix(-.653 0 0 -.4286 -3.077 2.857)" fill="url(#h)" d="M-10-47h5v7h-5z"/><path fill="url(#i)" d="M10 40h26.68v7H10z" transform="matrix(.653 0 0 .4286 -3.077 2.857)"/></g><g transform="translate(-9.012)"><rect rx="1" ry="1" height="18.946" width="5.063" y="2.554" x="18.437" fill="url(#j)" color="#000"/><path opacity=".5" stroke-linejoin="round" stroke="url(#k)" stroke-linecap="round" fill="none" d="M19.52 3.492h2.98V20.5h-2.98z"/><rect opacity=".5" stroke-linejoin="round" rx="1" ry="1" height="18.992" width="4.983" stroke="#7239b3" stroke-linecap="round" y="2.508" x="18.517" fill="none" color="#000"/></g><g transform="translate(.012)"><rect rx="1" ry="1" height="14.985" width="5.063" y="6.515" x="16.437" fill="url(#l)" color="#000"/><path opacity=".5" stroke-linejoin="round" stroke="url(#m)" stroke-linecap="round" fill="none" d="M17.46 7.506H20.5v12.992H17.46z"/><rect opacity=".5" stroke-linejoin="round" rx="1" ry="1" height="14.995" width="5.009" stroke="#b35039" stroke-linecap="round" y="6.505" x="16.491" fill="none" color="#000"/></g><g transform="translate(-14)"><rect rx="1" ry="1" height="12.043" width="5.092" y="9.457" x="16.408" fill="url(#n)" color="#000"/><path opacity=".5" stroke-linejoin="round" stroke="url(#o)" stroke-linecap="round" fill="none" d="M17.505 10.507h2.997V20.5h-2.997z"/><rect opacity=".5" stroke-linejoin="round" rx="1" ry="1" height="11.992" width="4.996" stroke="#7bb339" stroke-linecap="round" y="9.508" x="16.504" fill="none" color="#000"/></g><g transform="translate(9 -8)"><path d="M14.46 29.5c0 1.2-2.898 2-6.467 2-3.57 0-6.468-.8-6.468-2 0-4.634-.79-3.195 6.468-3.25 7.424-.056 6.467-1.41 6.467 3.25z" fill="url(#p)" stroke="url(#q)"/><path d="M14.5 26.5c0 1.105-2.91 2-6.5 2s-6.5-.895-6.5-2 2.91-2 6.5-2 6.5.895 6.5 2z" fill="none" stroke="#d8d8d8"/><path d="M14.46 25.5c0 1.157-2.898 2-6.467 2-3.57 0-6.468-.8-6.468-2 0-4.634-.79-3.195 6.468-3.25 7.424-.056 6.467-1.41 6.467 3.25z" fill="url(#r)" stroke="url(#s)"/><path d="M14.5 22.5c0 1.105-2.91 2-6.5 2s-6.5-.895-6.5-2 2.91-2 6.5-2 6.5.895 6.5 2z" fill="none" stroke="#d8d8d8"/><path d="M14.46 21.5c0 1.218-2.898 2-6.467 2-3.57 0-6.468-.95-6.468-2 0-4.344-.79-3.046 6.468-3.1 7.424-.056 6.467-.83 6.467 3.1z" fill="url(#t)" stroke="url(#u)"/><path d="M14.5 18.5c0 1.105-2.91 2-6.5 2s-6.5-.895-6.5-2 2.91-2 6.5-2 6.5.895 6.5 2z" fill="url(#v)" stroke="url(#w)"/><rect width="11" height="13" rx="17.5" ry="1.5" x="2.5" y="17.5" color="#000" overflow="visible" opacity=".5" fill="none" stroke="url(#x)"/></g></svg>