<svg xmlns="http://www.w3.org/2000/svg" xmlns:xlink="http://www.w3.org/1999/xlink" height="24" width="24"><defs><radialGradient id="f" cx="4.993" gradientUnits="userSpaceOnUse" cy="43.5" r="2.5" gradientTransform="matrix(1.9093 0 0 1.4 27.14 -17.4)"><stop stop-color="#181818" offset="0"/><stop stop-color="#181818" stop-opacity="0" offset="1"/></radialGradient><radialGradient id="g" cx="4.993" gradientUnits="userSpaceOnUse" cy="43.5" r="2.5" gradientTransform="matrix(2.0038 0 0 1.4 -20.012 -104.4)"><stop stop-color="#181818" offset="0"/><stop stop-color="#181818" stop-opacity="0" offset="1"/></radialGradient><linearGradient id="h" x1="25.058" gradientUnits="userSpaceOnUse" y1="47.028" gradientTransform="matrix(.9528 0 0 1 .472 0)" x2="25.058" y2="39.999"><stop stop-color="#181818" stop-opacity="0" offset="0"/><stop stop-color="#181818" offset=".5"/><stop stop-color="#181818" stop-opacity="0" offset="1"/></linearGradient><linearGradient id="i" y2="21.532" gradientUnits="userSpaceOnUse" x2="13.608" gradientTransform="translate(2)" y1="2.546" x1="13.608"><stop stop-color="#cd9ef7" offset="0"/><stop stop-color="#a56de2" offset="1"/></linearGradient><linearGradient id="j" y2="41.414" xlink:href="#a" gradientUnits="userSpaceOnUse" x2="24" gradientTransform="matrix(.4595 0 0 .4595 2.974 .972)" y1="6.591" x1="24"/><linearGradient id="a"><stop stop-color="#fff" offset="0"/><stop stop-color="#fff" stop-opacity=".235" offset=".654"/><stop stop-color="#fff" stop-opacity=".157" offset="1"/><stop stop-color="#fff" stop-opacity=".392" offset="1"/></linearGradient><linearGradient id="k" y2="21.532" gradientUnits="userSpaceOnUse" x2="13.608" y1="2.546" x1="13.608"><stop stop-color="#f7b19e" offset="0"/><stop stop-color="#e2866d" offset="1"/></linearGradient><linearGradient id="l" y2="41.414" xlink:href="#a" gradientUnits="userSpaceOnUse" x2="24" gradientTransform="matrix(.4595 0 0 .4595 .974 .972)" y1="13.8" x1="23.728"/><linearGradient id="m" y2="29.436" gradientUnits="userSpaceOnUse" x2="13.3" gradientTransform="matrix(1.3832 0 0 1.4144 -11.892 21.51)" y1="12.091" x1="13.697"><stop stop-color="#aff05f" offset="0"/><stop stop-color="#68b723" offset="1"/></linearGradient><linearGradient id="n" y2="41.414" xlink:href="#a" gradientUnits="userSpaceOnUse" x2="24" gradientTransform="matrix(.4595 0 0 .4595 .974 .972)" y1="15.705" x1="24"/></defs><linearGradient id="b" gradientTransform="matrix(.0393 0 0 .0082 -2.222 17.98)" gradientUnits="userSpaceOnUse" x1="302.857" x2="302.857" y1="366.648" y2="609.505"><stop offset="0" stop-opacity="0"/><stop offset=".5"/><stop offset="1" stop-opacity="0"/></linearGradient><radialGradient id="c" cx="605.714" cy="486.648" gradientTransform="matrix(-.012 0 0 .0082 9.76 17.98)" gradientUnits="userSpaceOnUse" r="117.143"><stop offset="0"/><stop offset="1" stop-opacity="0"/></radialGradient><linearGradient id="d" gradientTransform="matrix(.6 0 0 .3694 -2.4 3.568)" gradientUnits="userSpaceOnUse" x1="25.132" x2="25.132" y1=".985" y2="47.013"><stop offset="0" stop-color="#f4f4f4"/><stop offset="1" stop-color="#dbdbdb"/></linearGradient><linearGradient id="e" gradientTransform="matrix(.5135 0 0 .4054 -.325 3.27)" gradientUnits="userSpaceOnUse" x1="24" x2="24" y1="5.564" y2="43"><stop offset="0" stop-color="#fff"/><stop offset=".036" stop-color="#fff" stop-opacity=".235"/><stop offset=".951" stop-color="#fff" stop-opacity=".157"/><stop offset="1" stop-color="#fff" stop-opacity=".392"/></linearGradient><path d="M2.5 21h19v2h-19z" fill="url(#b)" opacity=".15"/><path d="M2.5 21v2c-.62.004-1.5-.448-1.5-1s.692-1 1.5-1z" fill="url(#c)" opacity=".15"/><path d="M1.5 4.5h21v17h-21v-17z" fill="url(#d)"/><path d="M21.5 20.5h-19v-15h19z" fill="none" stroke="url(#e)" stroke-linecap="round"/><path d="M1.5 4.5h21v17h-21v-17z" fill="none" opacity=".6" stroke="#ce5c00" stroke-linejoin="round"/><g opacity=".4"><path fill="url(#f)" d="M36.68 40h4.763v7H36.68z" transform="matrix(.653 0 0 .4286 -1.077 4.857)"/><path transform="matrix(-.653 0 0 -.4286 -1.077 4.857)" fill="url(#g)" d="M-10-47h5v7h-5z"/><path fill="url(#h)" d="M10 40h26.68v7H10z" transform="matrix(.653 0 0 .4286 -1.077 4.857)"/></g><g transform="translate(-7.012 2)"><rect x="18.437" y="2.554" width="5.063" height="18.946" ry="1" rx="1" color="#000" fill="url(#i)"/><path opacity=".5" fill="none" stroke="url(#j)" stroke-linecap="round" stroke-linejoin="round" d="M19.52 3.492h2.98V20.5h-2.98z"/><rect x="18.517" y="2.508" width="4.983" height="18.992" ry="1" rx="1" color="#000" opacity=".5" fill="none" stroke="#7239b3" stroke-linecap="round" stroke-linejoin="round"/></g><g transform="translate(2.012 2)"><rect x="16.437" y="6.515" width="5.063" height="14.985" ry="1" rx="1" color="#000" fill="url(#k)"/><path opacity=".5" fill="none" stroke="url(#l)" stroke-linecap="round" stroke-linejoin="round" d="M17.46 7.506H20.5v12.992H17.46z"/><rect x="16.491" y="6.505" width="5.009" height="14.995" ry="1" rx="1" color="#000" opacity=".5" fill="none" stroke="#b35039" stroke-linecap="round" stroke-linejoin="round"/></g><g transform="translate(-12 2)"><rect x="16.408" y="9.457" width="5.092" height="12.043" ry="1" rx="1" color="#000" fill="url(#m)"/><path opacity=".5" fill="none" stroke="url(#n)" stroke-linecap="round" stroke-linejoin="round" d="M17.505 10.507h2.997V20.5h-2.997z"/><rect x="16.504" y="9.508" width="4.996" height="11.992" ry="1" rx="1" color="#000" opacity=".5" fill="none" stroke="#7bb339" stroke-linecap="round" stroke-linejoin="round"/></g></svg>