<svg xmlns="http://www.w3.org/2000/svg" xmlns:xlink="http://www.w3.org/1999/xlink" viewBox="0 0 24 24"><defs><radialGradient gradientTransform="matrix(0 .52545 -.57163 0 46.193 -21.124)" gradientUnits="userSpaceOnUse" xlink:href="#a" id="m" fy="48.216" fx="65.297" r="31" cy="48.216" cx="65.297"/><linearGradient id="a"><stop offset="0" stop-color="#cdf87e"/><stop offset=".262" stop-color="#a2e34f"/><stop offset=".661" stop-color="#68b723"/><stop offset="1" stop-color="#1d7e0d"/></linearGradient><linearGradient gradientTransform="matrix(.2818 0 0 .2801 12.197 12.015)" gradientUnits="userSpaceOnUse" xlink:href="#b" id="n" y2="35.623" x2="24.139" y1="10.631" x1="24.139"/><linearGradient id="b"><stop offset="0" stop-color="#fff"/><stop offset="0" stop-color="#fff" stop-opacity=".235"/><stop offset="1" stop-color="#fff" stop-opacity=".157"/><stop offset="1" stop-color="#fff" stop-opacity=".392"/></linearGradient><linearGradient gradientTransform="matrix(.2818 0 0 .2801 12.18 12.022)" gradientUnits="userSpaceOnUse" xlink:href="#c" id="o" y2="24.912" x2="24.139" y1="21.342" x1="24.139"/><linearGradient id="c"><stop offset="0" stop-color="#fff"/><stop offset="0" stop-color="#fff" stop-opacity=".235"/><stop offset="1" stop-color="#fff" stop-opacity=".157"/><stop offset="1" stop-color="#fff" stop-opacity=".392"/></linearGradient></defs><linearGradient id="d"><stop offset="0"/><stop offset="1" stop-opacity="0"/></linearGradient><linearGradient id="f" gradientTransform="matrix(.03006 0 0 .01647 2.135 13.96)" gradientUnits="userSpaceOnUse" x1="302.857" x2="302.857" y1="366.648" y2="609.505"><stop offset="0" stop-opacity="0"/><stop offset=".5"/><stop offset="1" stop-opacity="0"/></linearGradient><radialGradient id="g" cx="605.714" cy="486.648" gradientTransform="matrix(.03006 0 0 .01647 2.14 13.96)" gradientUnits="userSpaceOnUse" r="117.143" xlink:href="#d"/><radialGradient id="h" cx="605.714" cy="486.648" gradientTransform="matrix(-.03006 0 0 .01647 23.86 13.96)" gradientUnits="userSpaceOnUse" r="117.143" xlink:href="#d"/><linearGradient id="i" gradientUnits="userSpaceOnUse" x1="16.04" x2="15.99" y1=".377" y2="23.888"><stop offset="0" stop-color="#f4f4f4"/><stop offset="1" stop-color="#dbdbdb"/></linearGradient><linearGradient id="j" gradientUnits="userSpaceOnUse" x1="13.3" x2="12.679" xlink:href="#e" y1="23.048" y2="-5.018"/><linearGradient id="e"><stop offset="0" stop-color="#8d8d8d"/><stop offset="1" stop-color="#c3c3c3"/></linearGradient><linearGradient id="k" gradientUnits="userSpaceOnUse" x1="11.413" x2="11.719" y1="1.918" y2="21.982"><stop offset="0" stop-color="#fff"/><stop offset="1" stop-color="#fff" stop-opacity=".248"/></linearGradient><linearGradient id="l" gradientUnits="userSpaceOnUse" x1="13.132" x2="13.19" xlink:href="#e" y1="23.033" y2="13.664"/><path d="M5.742 20h14.516v4H5.742z" fill="url(#f)" opacity=".5"/><path d="M20.258 20v4c1.548.007 3.742-.896 3.742-2s-1.728-2-3.742-2z" fill="url(#g)" opacity=".5"/><path d="M5.742 20v4C4.194 24.007 2 23.104 2 22s1.728-2 3.742-2z" fill="url(#h)" opacity=".5"/><path d="M2.5 1.5C.934 1.48.407 3.01.53 4.5H2.5v16c0 .943 1.057 2 2 2h17V3.8c0-.943-1.357-2.3-2.3-2.3z" fill="url(#i)" stroke="url(#j)" stroke-linecap="round" stroke-linejoin="round"/><path d="M6 4v1h12V4zm0 2v1h12V6zm0 2v1h12V8zm0 2v1h12v-1zm0 2v1h12v-1zm0 2v1h12v-1zm0 2v1h12v-1zm0 2v1h12v-1z" opacity=".1"/><path d="M4 4v1h1V4zm0 2v1h1V6zm0 2v1h1V8zm0 2v1h1v-1zm0 2v1h1v-1zm0 2v1h1v-1zm0 2v1h1v-1zm0 2v1h1v-1zm0 2v1h1v-1zM19 4v1h1V4zm0 2v1h1V6zm0 2v1h1V8zm0 2v1h1v-1zm0 2v1h1v-1zm0 2v1h1v-1zm0 2v1h1v-1zm0 2v1h1v-1z" fill="#aaa"/><path d="M3.29 2.5c-1.544-.107-1.68.58-1.79 1h2v16.69c0 .853.74 1.31 1.59 1.31H20.5V4.11c0-.853-.752-1.61-1.6-1.61z" fill="none" opacity=".604" stroke="url(#k)" stroke-linecap="round" stroke-linejoin="round"/><path d="M6.5 19.5h17c.125 1.5-.41 3.043-2 3h-17c1.51 0 2.004-1.375 2-3z" fill="#c8c8c8" stroke="url(#l)" stroke-linecap="round" stroke-linejoin="round"/><rect fill="#fff" height=".933" opacity=".7" rx=".3" width="16" x="7" y="20.067"/><g><path d="M16.482 16.507v-3h4v3h3v4h-3v3h-4v-3h-2.99v-4z" color="#000" overflow="visible" fill="url(#m)"/><path d="M17.5 18.004V14.5h2V18m0 1v3.5h-2V19" opacity=".5" fill="none" stroke="url(#n)"/><path d="M16.482 16.507v-3h4v3h3v4h-3v3h-4v-3h-2.99v-4z" style="isolation:auto;mix-blend-mode:normal" color="#000" overflow="visible" opacity=".5" solid-color="#000000" fill="none" stroke="#0f5a00" stroke-linecap="round" stroke-linejoin="round"/><path d="M20 17.507l2.482-.007v2L20 19.507m-3 0l-2.5-.007v-2l2.5.007" opacity=".5" fill="none" stroke="url(#o)"/></g></svg>