<?xml version="1.0" encoding="UTF-8" standalone="no"?>
<svg
   xmlns:dc="http://purl.org/dc/elements/1.1/"
   xmlns:cc="http://creativecommons.org/ns#"
   xmlns:rdf="http://www.w3.org/1999/02/22-rdf-syntax-ns#"
   xmlns:svg="http://www.w3.org/2000/svg"
   xmlns="http://www.w3.org/2000/svg"
   xmlns:xlink="http://www.w3.org/1999/xlink"
   xmlns:sodipodi="http://sodipodi.sourceforge.net/DTD/sodipodi-0.dtd"
   xmlns:inkscape="http://www.inkscape.org/namespaces/inkscape"
   height="24"
   width="24"
   version="1.1"
   id="svg1858"
   sodipodi:docname="lc_dbformrename.svg"
   inkscape:version="0.92.3 (unknown)">
  <sodipodi:namedview
     pagecolor="#ffffff"
     bordercolor="#666666"
     borderopacity="1"
     objecttolerance="10"
     gridtolerance="10"
     guidetolerance="10"
     inkscape:pageopacity="0"
     inkscape:pageshadow="2"
     inkscape:window-width="1366"
     inkscape:window-height="706"
     id="namedview1860"
     showgrid="false"
     inkscape:zoom="9.8333333"
     inkscape:cx="-1.0677966"
     inkscape:cy="11.186441"
     inkscape:window-x="0"
     inkscape:window-y="0"
     inkscape:window-maximized="1"
     inkscape:current-layer="svg1858" />
  <metadata
     id="metadata1753">
    <rdf:RDF>
      <cc:Work
         rdf:about="">
        <dc:format>image/svg+xml</dc:format>
        <dc:type
           rdf:resource="http://purl.org/dc/dcmitype/StillImage" />
        <dc:title></dc:title>
      </cc:Work>
    </rdf:RDF>
  </metadata>
  <defs
     id="defs1756">
    <linearGradient
       id="linearGradient932"
       y2="19"
       xlink:href="#f"
       gradientUnits="userSpaceOnUse"
       x2="12"
       y1="13"
       x1="12" />
  </defs>
  <linearGradient
     id="a">
    <stop
       stop-color="#181818"
       offset="0"
       id="stop1758" />
    <stop
       stop-color="#181818"
       stop-opacity="0"
       offset="1"
       id="stop1760" />
  </linearGradient>
  <radialGradient
     id="b"
     xlink:href="#a"
     gradientUnits="userSpaceOnUse"
     cy="43.5"
     cx="4.993"
     gradientTransform="matrix(2.0038 0 0 1.4 27.988 -17.4)"
     r="2.5" />
  <radialGradient
     id="c"
     xlink:href="#a"
     gradientUnits="userSpaceOnUse"
     cy="43.5"
     cx="4.993"
     gradientTransform="matrix(2.0038 0 0 1.4 -20.012 -104.4)"
     r="2.5" />
  <linearGradient
     id="d"
     y2="39.999"
     gradientUnits="userSpaceOnUse"
     y1="47.028"
     x2="25.058"
     x1="25.058">
    <stop
       stop-color="#181818"
       stop-opacity="0"
       offset="0"
       id="stop1765" />
    <stop
       stop-color="#181818"
       offset=".5"
       id="stop1767" />
    <stop
       stop-color="#181818"
       stop-opacity="0"
       offset="1"
       id="stop1769" />
  </linearGradient>
  <linearGradient
     id="e"
     y2="20.728"
     gradientUnits="userSpaceOnUse"
     y1="3.269"
     x2="12.001"
     x1="12.001">
    <stop
       stop-color="#fff"
       offset="0"
       id="stop1772" />
    <stop
       stop-color="#fff"
       stop-opacity=".23529"
       offset=".063165"
       id="stop1774" />
    <stop
       stop-color="#fff"
       stop-opacity=".15686"
       offset=".95056"
       id="stop1776" />
    <stop
       stop-color="#fff"
       stop-opacity=".39216"
       offset="1"
       id="stop1778" />
  </linearGradient>
  <radialGradient
     id="f"
     gradientUnits="userSpaceOnUse"
     cy="8.4498"
     cx="7.4957"
     gradientTransform="matrix(0 1.1385 -1.2044 -2e-8 22.177 -5.7503)"
     r="20">
    <stop
       stop-color="#fafafa"
       offset="0"
       id="stop1781" />
    <stop
       stop-color="#e1e1e1"
       offset="1"
       id="stop1783" />
  </radialGradient>
  <g
     id="g2441">
    <g
       id="g1792"
       transform="matrix(.57895 0 0 .42857 -1.8947 2.8571)"
       opacity=".4">
      <path
         id="path1786"
         fill="url(#b)"
         d="m38 40h5v7h-5z" />
      <path
         id="path1788"
         fill="url(#c)"
         d="m-10-47h5v7h-5z"
         transform="scale(-1)" />
      <path
         id="path1790"
         fill="url(#d)"
         d="m10 40h28v7h-28z" />
    </g>
    <path
       id="path1794"
       fill="url(#f)"
       d="m3.5 3c-0.28565 0-0.5 0.21435-0.5 0.5v17c0 0.28565 0.21435 0.5 0.5 0.5h17c0.28565 0 0.5-0.21435 0.5-0.5v-17c0-0.28565-0.21435-0.5-0.5-0.5h-17z" />
    <path
       id="path1796"
       fill="none"
       stroke-linecap="round"
       stroke="url(#e)"
       d="m3.5012 3.4988h17v17h-17z"
       stroke-linejoin="round"
       opacity=".5" />
    <g
       id="g1814"
       fill-rule="evenodd">
      <path
         id="path1798"
         fill="#fff"
         d="m4.9358 4.9746a0.44445 0.44445 0 0 1 -0.88889 0 0.44445 0.44445 0 1 1 0.88889 0z" />
      <path
         id="path1800"
         d="m4.9358 4.5301a0.44445 0.44445 0 0 1 -0.88889 0 0.44445 0.44445 0 1 1 0.88889 0z"
         opacity=".3" />
      <path
         id="path1802"
         fill="#fff"
         d="m19.916 4.9746a0.44445 0.44445 0 0 1 -0.88889 0 0.44445 0.44445 0 1 1 0.88889 0z" />
      <path
         id="path1804"
         d="m19.916 4.5301a0.44445 0.44445 0 0 1 -0.88889 0 0.44445 0.44445 0 1 1 0.88889 0z"
         opacity=".3" />
      <path
         id="path1806"
         fill="#fff"
         d="m4.9358 19.992a0.44445 0.44445 0 0 1 -0.88889 0 0.44445 0.44445 0 1 1 0.88889 0z" />
      <path
         id="path1808"
         d="m4.9358 19.548a0.44445 0.44445 0 0 1 -0.88889 0 0.44445 0.44445 0 1 1 0.88889 0z"
         opacity=".3" />
      <path
         id="path1810"
         fill="#fff"
         d="m19.916 19.992a0.44445 0.44445 0 0 1 -0.88889 0 0.44445 0.44445 0 1 1 0.88889 0z" />
      <path
         id="path1812"
         d="m19.916 19.548a0.44445 0.44445 0 0 1 -0.88889 0 0.44445 0.44445 0 1 1 0.88889 0z"
         opacity=".3" />
    </g>
    <rect
       id="rect1816"
       fill="#b5b5b5"
       x="5"
       y="7"
       width="14"
       height="5"
       rx="1" />
    <path
       id="path1818"
       fill-opacity=".23907"
       d="m3.5 2c-0.82235 0-1.5 0.67765-1.5 1.5v17c0 0.82235 0.67765 1.5 1.5 1.5h17c0.82235 0 1.5-0.67765 1.5-1.5v-17c0-0.82235-0.67765-1.5-1.5-1.5h-17zm0 1h17c0.28565 0 0.5 0.21435 0.5 0.5v17c0 0.28565-0.21435 0.5-0.5 0.5h-17c-0.28565 0-0.5-0.21435-0.5-0.5v-17c0-0.28565 0.21435-0.5 0.5-0.5z" />
    <g
       id="g1826">
      <rect
         id="rect1820"
         fill="#cacaca"
         x="5"
         y="8"
         width="14"
         height="4"
         rx="1" />
      <rect
         id="rect1822"
         fill="#bababa"
         x="5"
         y="14"
         width="14"
         height="5"
         rx=".68955" />
      <rect
         id="rect1824"
         fill="url(#linearGradient932)"
         x="6"
         y="15"
         width="12"
         height="3"
         rx=".38430" />
    </g>
    <g
       id="g1856"
       fill="#4d4d4d">
      <rect
         id="rect1828"
         x="8"
         y="16"
         width="1"
         height="1"
         rx="0" />
      <rect
         id="rect1830"
         x="9"
         y="15"
         width="1"
         height="1"
         rx="0" />
      <rect
         id="rect1832"
         x="10"
         y="16"
         width="1"
         height="1"
         rx="0" />
      <rect
         id="rect1834"
         x="8"
         y="17"
         width="1"
         height="1"
         rx="0" />
      <rect
         id="rect1836"
         x="10"
         y="17"
         width="1"
         height="1"
         rx="0" />
      <rect
         id="rect1838"
         x="9"
         y="18"
         width="1"
         height="1"
         rx="0" />
      <rect
         id="rect1840"
         x="12"
         y="15"
         width="1"
         height="1"
         rx="0" />
      <rect
         id="rect1842"
         x="12"
         y="16"
         width="1"
         height="1"
         rx="0" />
      <rect
         id="rect1844"
         x="12"
         y="17"
         width="1"
         height="1"
         rx="0" />
      <rect
         id="rect1846"
         x="12"
         y="18"
         width="1"
         height="1"
         rx="0" />
      <rect
         id="rect1848"
         x="14"
         y="15"
         width="1"
         height="1"
         rx="0" />
      <rect
         id="rect1850"
         x="13"
         y="16"
         width="1"
         height="1"
         rx="0" />
      <rect
         id="rect1852"
         x="14"
         y="17"
         width="1"
         height="1"
         rx="0" />
      <rect
         id="rect1854"
         x="14"
         y="18"
         width="1"
         height="1"
         rx="0" />
    </g>
  </g>
  <g
     id="g2453">
    <path
       id="path93"
       d="m 16,1 v 3 h 1 l 1,1.016 v 13.92 L 17,20 h -1 v 3 h 7 V 20 H 22 L 21,19.07 V 5 l 1,-1 h 1 V 1 Z"
       style="opacity:0.51999996;fill-rule:evenodd"
       inkscape:connector-curvature="0" />
    <path
       id="path95"
       d="m 16.97,2.5 h 1.53 c 0,0 1,0 1,1 v 17 c 0,0 -0.088,1 -1.088,1 H 16.97 m 5.044,-19 h -1.53 c 0,0 -1,0 -1,1 v 17 c 0,0 0.087,1 1.088,1 h 1.442"
       style="fill:none;stroke:#ffffff"
       inkscape:connector-curvature="0" />
  </g>
</svg>
