<svg xmlns="http://www.w3.org/2000/svg" xmlns:xlink="http://www.w3.org/1999/xlink" height="24" width="24"><defs><linearGradient id="a"><stop offset="0" stop-color="#737373"/><stop offset=".262" stop-color="#636363"/><stop offset=".705" stop-color="#4b4b4b"/><stop offset="1" stop-color="#3f3f3f"/></linearGradient><radialGradient xlink:href="#a" id="e" cx="13" cy=".94" fx="13" fy=".94" r="8.094" gradientTransform="matrix(-2.84165 0 0 -2.59455 49.94 3.438)" gradientUnits="userSpaceOnUse"/><linearGradient id="b" gradientUnits="userSpaceOnUse" x1="316.472" x2="317.624" y1="138.897" y2="141.195"><stop offset="0" stop-color="#fff"/><stop offset="1"/></linearGradient><radialGradient id="f" xlink:href="#c" gradientUnits="userSpaceOnUse" cy="486.65" cx="605.71" gradientTransform="matrix(.01205 0 0 .00824 13.24 18.98)" r="117.14"/><linearGradient id="c"><stop offset="0"/><stop stop-opacity="0" offset="1"/></linearGradient></defs><radialGradient id="d" cx="22.571" cy="30.857" gradientTransform="matrix(.70642 0 0 .1355 -3.945 13.93)" gradientUnits="userSpaceOnUse" r="15.571"><stop offset="0"/><stop offset="1" stop-opacity="0"/></radialGradient><g transform="translate(0 2)"><ellipse cx="12" cy="18.11" rx="11" ry="2.89" opacity=".2" fill="url(#d)"/><path d="M15.3 13.7H8.58l-1.156 2.9h-3.09l6.334-15.2h2.877l6.11 15.2H16.42zm-5.92-2.3h5.046l-2.252-6.876z" fill="url(#e)" stroke="#000" stroke-width=".866" stroke-linecap="round" stroke-linejoin="round" stroke-opacity=".581"/></g><path d="M20.5 22v2c.62.004 1.5-.448 1.5-1s-.692-1-1.5-1z" opacity=".15" fill="url(#f)"/><path d="M16 1v3h1l1 1.016v13.92L17 20h-1v3h7v-3h-1l-1-.93V5l1-1h1V1z" opacity=".52" fill-rule="evenodd"/><path d="M16.97 2.5h1.53s1 0 1 1v17s-.088 1-1.088 1H16.97m5.044-19h-1.53s-1 0-1 1v17s.088 1 1.088 1h1.442" fill="none" stroke="#fff"/></svg>