<?xml version="1.0" encoding="UTF-8" standalone="no"?>
<!-- Created with Inkscape (http://www.inkscape.org/) -->

<svg
   xmlns:dc="http://purl.org/dc/elements/1.1/"
   xmlns:cc="http://creativecommons.org/ns#"
   xmlns:rdf="http://www.w3.org/1999/02/22-rdf-syntax-ns#"
   xmlns:svg="http://www.w3.org/2000/svg"
   xmlns="http://www.w3.org/2000/svg"
   xmlns:xlink="http://www.w3.org/1999/xlink"
   xmlns:sodipodi="http://sodipodi.sourceforge.net/DTD/sodipodi-0.dtd"
   xmlns:inkscape="http://www.inkscape.org/namespaces/inkscape"
   height="24"
   width="24"
   version="1.0"
   id="svg82"
   sodipodi:docname="lc_editprintarea.svg"
   inkscape:version="0.92.3 (unknown)">
  <sodipodi:namedview
     pagecolor="#ffffff"
     bordercolor="#666666"
     borderopacity="1"
     objecttolerance="10"
     gridtolerance="10"
     guidetolerance="10"
     inkscape:pageopacity="0"
     inkscape:pageshadow="2"
     inkscape:window-width="1366"
     inkscape:window-height="706"
     id="namedview84"
     showgrid="false"
     inkscape:zoom="3.4766083"
     inkscape:cx="-29.514748"
     inkscape:cy="-1.9166327"
     inkscape:window-x="0"
     inkscape:window-y="0"
     inkscape:window-maximized="1"
     inkscape:current-layer="svg82" />
  <metadata
     id="metadata2">
    <rdf:RDF>
      <cc:Work
         rdf:about="">
        <dc:format>image/svg+xml</dc:format>
        <dc:type
           rdf:resource="http://purl.org/dc/dcmitype/StillImage" />
        <dc:title></dc:title>
      </cc:Work>
    </rdf:RDF>
  </metadata>
  <defs
     id="defs28">
    <linearGradient
       id="linearGradient5060">
      <stop
         offset="0"
         id="stop4" />
      <stop
         stop-opacity="0"
         offset="1"
         id="stop6" />
    </linearGradient>
    <radialGradient
       id="radialGradient3074"
       xlink:href="#linearGradient5060"
       gradientUnits="userSpaceOnUse"
       cy="486.65"
       cx="605.71"
       gradientTransform="matrix(.012049 0 0 .0082353 13.239 16.981)"
       r="117.14" />
    <radialGradient
       id="radialGradient3077"
       xlink:href="#linearGradient5060"
       gradientUnits="userSpaceOnUse"
       cy="486.65"
       cx="605.71"
       gradientTransform="matrix(-.012049 0 0 .0082353 10.761 16.981)"
       r="117.14" />
    <linearGradient
       id="linearGradient3080"
       y2="609.51"
       gradientUnits="userSpaceOnUse"
       x2="302.86"
       gradientTransform="matrix(.035207 0 0 .0082353 -.72485 16.981)"
       y1="366.65"
       x1="302.86">
      <stop
         stop-opacity="0"
         offset="0"
         id="stop11" />
      <stop
         offset=".5"
         id="stop13" />
      <stop
         stop-opacity="0"
         offset="1"
         id="stop15" />
    </linearGradient>
    <linearGradient
       id="linearGradient4247"
       y2="20"
       gradientUnits="userSpaceOnUse"
       x2="16"
       y1="4"
       x1="16">
      <stop
         stop-color="#f4f4f4"
         offset="0"
         id="stop18" />
      <stop
         stop-color="#dbdbdb"
         offset="1"
         id="stop20" />
    </linearGradient>
    <linearGradient
       id="linearGradient948"
       y2="12"
       gradientUnits="userSpaceOnUse"
       x2="21"
       y1="12"
       x1="3">
      <stop
         stop-opacity=".31783"
         offset="0"
         id="stop23" />
      <stop
         stop-opacity=".24031"
         offset="1"
         id="stop25" />
    </linearGradient>
    <radialGradient
       id="radialGradient3900-3"
       gradientUnits="userSpaceOnUse"
       cy="48.216"
       cx="65.296997"
       gradientTransform="matrix(0,0.52545,-0.57163,0,46.193,-21.124)"
       r="31">
      <stop
         stop-color="#cdf87e"
         offset="0"
         id="stop1337" />
      <stop
         stop-color="#a2e34f"
         offset=".26238"
         id="stop1339" />
      <stop
         stop-color="#68b723"
         offset=".66094"
         id="stop1341" />
      <stop
         stop-color="#1d7e0d"
         offset="1"
         id="stop1343" />
    </radialGradient>
    <linearGradient
       id="linearGradient3030"
       x1="24.139"
       gradientUnits="userSpaceOnUse"
       y1="10.631"
       gradientTransform="matrix(0.2818,0,0,0.2801,12.197,12.015)"
       x2="24.139"
       y2="35.623001">
      <stop
         stop-color="#fff"
         offset="0"
         id="stop1346" />
      <stop
         stop-color="#fff"
         stop-opacity=".23529"
         offset="2e-8"
         id="stop1348" />
      <stop
         stop-color="#fff"
         stop-opacity=".15686"
         offset="1"
         id="stop1350" />
      <stop
         stop-color="#fff"
         stop-opacity=".39216"
         offset="1"
         id="stop1352" />
    </linearGradient>
    <linearGradient
       id="linearGradient3030-1"
       x1="24.139"
       gradientUnits="userSpaceOnUse"
       y1="21.341999"
       gradientTransform="matrix(0.2818,0,0,0.2801,12.179,12.022)"
       x2="24.139"
       y2="24.912001">
      <stop
         stop-color="#fff"
         offset="0"
         id="stop1355" />
      <stop
         stop-color="#fff"
         stop-opacity=".23529"
         offset="1.9e-7"
         id="stop1357" />
      <stop
         stop-color="#fff"
         stop-opacity=".15686"
         offset="1"
         id="stop1359" />
      <stop
         stop-color="#fff"
         stop-opacity=".39216"
         offset="1"
         id="stop1361" />
    </linearGradient>
    <linearGradient
       x1="23.576"
       y1="25.357"
       x2="23.576"
       y2="31.211"
       id="l"
       xlink:href="#a"
       gradientUnits="userSpaceOnUse"
       gradientTransform="matrix(0.65657,-0.6598,0.73452,0.73087,-21.95,5.314)" />
    <linearGradient
       id="a">
      <stop
         offset="0"
         stop-color="#181818"
         id="stop1165" />
      <stop
         offset=".135"
         stop-color="#dbdbdb"
         id="stop1167" />
      <stop
         offset=".202"
         stop-color="#a4a4a4"
         id="stop1169" />
      <stop
         offset=".27"
         stop-color="#fff"
         id="stop1171" />
      <stop
         offset=".447"
         stop-color="#8d8d8d"
         id="stop1173" />
      <stop
         offset=".571"
         stop-color="#959595"
         id="stop1175" />
      <stop
         offset=".72"
         stop-color="#cecece"
         id="stop1177" />
      <stop
         offset="1"
         stop-color="#181818"
         id="stop1179" />
    </linearGradient>
    <linearGradient
       x1="30.038"
       y1="24.99"
       x2="30.038"
       y2="30"
       id="m"
       xlink:href="#b"
       gradientUnits="userSpaceOnUse"
       gradientTransform="matrix(0.638,-0.64114,0.85963,0.85535,-24.357,1.938)" />
    <linearGradient
       id="b">
      <stop
         offset="0"
         stop-color="#565656"
         id="stop1183" />
      <stop
         offset=".5"
         stop-color="#9a9a9a"
         id="stop1185" />
      <stop
         offset="1"
         stop-color="#545454"
         id="stop1187" />
    </linearGradient>
    <linearGradient
       x1="30.038"
       y1="24.99"
       x2="30.038"
       y2="30"
       id="n"
       xlink:href="#c"
       gradientUnits="userSpaceOnUse"
       gradientTransform="matrix(0.638,-0.64114,0.85963,0.85535,-24.54,2.122)" />
    <linearGradient
       id="c">
      <stop
         offset="0"
         stop-color="#b1b1b1"
         id="stop1191" />
      <stop
         offset=".5"
         stop-color="#fff"
         id="stop1193" />
      <stop
         offset="1"
         stop-color="#8f8f8f"
         id="stop1195" />
    </linearGradient>
    <linearGradient
       x1="30.038"
       y1="24.99"
       x2="30.038"
       y2="30"
       id="o"
       xlink:href="#b"
       gradientUnits="userSpaceOnUse"
       gradientTransform="matrix(0.638,-0.64114,0.85963,0.85535,-23.722,1.3)" />
    <linearGradient
       x1="30.038"
       y1="24.99"
       x2="30.038"
       y2="30"
       id="p"
       xlink:href="#c"
       gradientUnits="userSpaceOnUse"
       gradientTransform="matrix(0.638,-0.64114,0.85963,0.85535,-23.905,1.484)" />
    <linearGradient
       x1="30.038"
       y1="24.99"
       x2="30.038"
       y2="30"
       id="q"
       xlink:href="#b"
       gradientUnits="userSpaceOnUse"
       gradientTransform="matrix(0.638,-0.64114,0.85963,0.85535,-23.084,0.66)" />
    <linearGradient
       x1="30.038"
       y1="24.99"
       x2="30.038"
       y2="30"
       id="r"
       xlink:href="#c"
       gradientUnits="userSpaceOnUse"
       gradientTransform="matrix(0.638,-0.64114,0.85963,0.85535,-23.267,0.843)" />
    <linearGradient
       x1="9"
       y1="29.056999"
       x2="9"
       y2="26.030001"
       id="s"
       xlink:href="#d"
       gradientUnits="userSpaceOnUse"
       gradientTransform="matrix(0.638,-0.64114,0.85963,0.85535,-24.6,2.182)" />
    <linearGradient
       id="d">
      <stop
         offset="0"
         stop-color="#ece5a5"
         id="stop1203" />
      <stop
         offset="1"
         stop-color="#fcfbf2"
         id="stop1205" />
    </linearGradient>
    <linearGradient
       x1="5.5180001"
       y1="37.372002"
       x2="9.5220003"
       y2="41.391998"
       id="t"
       xlink:href="#e"
       gradientUnits="userSpaceOnUse"
       gradientTransform="matrix(0.56036,0.0242,0.02416,0.55967,-1.392,-1.445)" />
    <linearGradient
       id="e">
      <stop
         offset="0"
         stop-color="#dbce48"
         id="stop1209" />
      <stop
         offset="1"
         stop-color="#c5b625"
         id="stop1211" />
    </linearGradient>
  </defs>
  <rect
     height="17"
     width="17"
     y="3.5"
     x="3.5"
     fill="url(#linearGradient4247)"
     id="rect30" />
  <rect
     opacity=".73"
     height="17"
     width="17"
     stroke="url(#linearGradient948)"
     y="3.5"
     x="3.5"
     fill="none"
     id="rect32" />
  <g
     id="g40">
    <rect
       opacity=".15"
       height="2"
       width="17"
       y="20"
       x="3.5"
       fill="url(#linearGradient3080)"
       id="rect34" />
    <path
       opacity=".15"
       d="m3.5 20v1.9999c-0.6205 0.004-1.5-0.448-1.5-1s0.6924-1 1.5-1z"
       fill="url(#radialGradient3077)"
       id="path36" />
    <path
       opacity=".15"
       d="m20.5 20v1.9999c0.62047 0.0038 1.5-0.44807 1.5-1.0001 0-0.552-0.6924-0.99982-1.5-0.99982z"
       fill="url(#radialGradient3074)"
       id="path38" />
  </g>
  <g
     opacity=".7"
     stroke-opacity=".32418"
     stroke="#2c465d"
     fill="none"
     id="g58">
    <path
       opacity=".7"
       d="m5.5 4v16"
       id="path42" />
    <path
       opacity=".7"
       d="m20 18.5h-16"
       id="path44" />
    <path
       opacity=".7"
       d="m20 9.5h-16"
       id="path46" />
    <path
       opacity=".7"
       d="m10.5 4v16"
       id="path48" />
    <path
       opacity=".7"
       d="m15.5 4v16"
       id="path50" />
    <path
       opacity=".7"
       d="m20 12.5h-16"
       id="path52" />
    <path
       opacity=".7"
       d="m20 15.5h-16"
       id="path54" />
    <path
       opacity=".7"
       d="m20 6.5h-16"
       id="path56" />
  </g>
  <rect
     stroke-dasharray="1, 1"
     stroke-dashoffset=".5"
     height="12"
     width="10"
     stroke="#e25757"
     y="6.5"
     x="5.5"
     fill="none"
     id="rect60" />
  <g
     transform="translate(-4.6498793e-4,8)"
     id="g80">
    <path
       d="m 2.8684,14.499 c 0.0073,0.35961 0.029665,0.91477 0.34211,0.99126 3.3006,0.01952 6.2781,0.0028 9.579,0.0084 0.34064,0.01588 0.35312,-0.62103 0.34211,-0.99966 h -10.263 z"
       id="path62"
       inkscape:connector-curvature="0"
       style="fill:#505050;stroke:#565656;stroke-width:0.99971002;stroke-linecap:square" />
    <g
       id="g74"
       style="stroke-linecap:round">
      <path
         d="M 0.64718,6.5559 1.3946,3.505 l 13.216,0.0036 0.715,3.0637 z"
         id="path64"
         inkscape:connector-curvature="0"
         style="fill:#4f4f4f;fill-rule:evenodd" />
      <path
         d="m 1.2252,6.5169 h 13.55 c 0.40178,0 0.72523,0.34771 0.72523,0.77962 v 6.2035 h -15 v -6.2035 c 0,-0.43191 0.32345,-0.77962 0.72522,-0.77962 z"
         id="path66"
         inkscape:connector-curvature="0"
         style="fill:#4f4f4f" />
      <path
         d="m 1.2252,6.5169 h 13.55 c 0.40178,0 0.72523,0.34771 0.72523,0.77962 v 6.2035 h -15 v -6.2035 c 0,-0.43191 0.32345,-0.77962 0.72522,-0.77962 z"
         id="path68"
         inkscape:connector-curvature="0"
         style="opacity:0.70999995;fill:none;stroke:#393939;stroke-width:0.99993002;stroke-linejoin:round" />
      <rect
         style="color:#000000;fill:#0cceff"
         height="2"
         width="2"
         y="8"
         x="12"
         id="rect70" />
      <path
         d="M 0.64718,6.5559 1.3946,3.505 l 13.216,0.0036 0.715,3.0637 z"
         id="path72"
         inkscape:connector-curvature="0"
         style="opacity:0.7;fill:none;stroke:#393939;stroke-width:1px;stroke-linecap:butt" />
    </g>
    <path
       d="m 13,11 v 3.506 C 13,14.78 12.93,15 12.844,15 H 3.1562 C 3.0697,15 3,14.78 3,14.506 V 11 Z"
       id="path76"
       inkscape:connector-curvature="0"
       style="fill:#e9e9e9;stroke-width:1.98720002" />
    <path
       d="m 3.4834,0.49813 9.0262,0.001739 v 4.856 H 3.483 Z"
       id="path78"
       inkscape:connector-curvature="0"
       style="fill:#e9e9e9;stroke:#8c8c8c;stroke-width:0.99524999;stroke-linejoin:round" />
  </g>
  <g
     id="g1849"
     transform="translate(-0.09511212,7.3167403)">
    <path
       style="opacity:0.15;fill:#0c0c0c;fill-rule:evenodd"
       inkscape:connector-curvature="0"
       id="path1256"
       d="m 21.362,12.416 c -0.137,-0.02 -0.245,-0.01 -0.316,0.007 L 11.5,14.62 9.744,15.025 9.69,15.035 7.554,16.54 l 5.097,-0.135 0.044,-0.01 1.768,-0.404 9.543,-2.21 c 0.287,-0.068 -0.142,-0.424 -0.96,-0.802 -0.615,-0.283 -1.27,-0.5 -1.683,-0.562 z" />
    <path
       style="fill:url(#l);stroke:#0c0c0c;stroke-width:0.5;stroke-linejoin:round"
       inkscape:connector-curvature="0"
       id="path1258"
       transform="matrix(0.68916,0,0,0.68916,7.023,-0.008)"
       d="m 3.996,16.48 c 0.446,-0.335 1.697,0.293 2.847,1.437 1.147,1.14 1.75,2.362 1.424,2.813 0,0 0.028,0.025 0.027,0.026 L 24.304,4.668 C 24.71,4.258 24.079,2.968 22.894,1.788 21.705,0.608 20.41,-0.017 20.005,0.39 Z" />
    <path
       style="opacity:0.8;fill:#ffb6ed;stroke:#e28ccd;stroke-width:0.34457999;stroke-linejoin:round"
       inkscape:connector-curvature="0"
       id="path1260"
       d="m 19.464,1.615 c 0.307,-0.23 1.17,0.202 1.962,0.99 0.79,0.787 1.207,1.628 0.98,1.94 L 22.426,4.562 23.772,3.209 23.8,3.179 23.78,3.162 C 24.007,2.852 23.59,2.01 22.8,1.222 22.007,0.435 21.145,0.002 20.838,0.232 L 20.81,0.26 Z" />
    <path
       style="opacity:0.6;fill:#0c0c0c"
       inkscape:connector-curvature="0"
       id="path1262"
       d="m 9.777,11.35 c 0.307,-0.232 1.17,0.2 1.962,0.99 0.79,0.786 1.206,1.628 0.98,1.938 l 0.02,0.018 7.597,-7.635 0.028,-0.027 -0.02,-0.018 c 0.227,-0.31 -0.19,-1.152 -0.98,-1.94 -0.793,-0.787 -1.655,-1.22 -1.962,-0.99 l -0.028,0.028 z" />
    <path
       style="fill:url(#m)"
       inkscape:connector-curvature="0"
       id="path1264"
       transform="matrix(0.68916,0,0,0.68916,7.023,-0.008)"
       d="m 15.862,4.555 c 0.446,-0.334 1.697,0.293 2.847,1.437 1.146,1.142 1.75,2.363 1.423,2.813 0,0.002 0.028,0.025 0.027,0.027 l 0.2,-0.2 C 20.359,8.63 20.329,8.607 20.331,8.605 20.658,8.155 20.054,6.933 18.907,5.792 17.757,4.648 16.507,4.02 16.06,4.355 Z" />
    <path
       style="fill:url(#n)"
       inkscape:connector-curvature="0"
       id="path1266"
       transform="matrix(0.68916,0,0,0.68916,7.023,-0.008)"
       d="m 15.68,4.74 c 0.445,-0.336 1.696,0.292 2.846,1.436 1.147,1.14 1.75,2.363 1.424,2.813 0,0 0.028,0.024 0.027,0.026 l 0.2,-0.2 C 20.177,8.813 20.147,8.789 20.15,8.788 20.477,8.336 19.872,7.115 18.725,5.974 17.575,4.83 16.325,4.202 15.878,4.537 Z" />
    <path
       style="fill:url(#o)"
       inkscape:connector-curvature="0"
       id="path1268"
       transform="matrix(0.68916,0,0,0.68916,7.023,-0.008)"
       d="m 16.497,3.917 c 0.446,-0.334 1.697,0.293 2.847,1.437 1.147,1.142 1.75,2.363 1.424,2.813 0,0.002 0.028,0.025 0.027,0.027 l 0.2,-0.2 c 0,-0.002 -0.03,-0.025 -0.028,-0.027 C 21.294,7.517 20.69,6.295 19.543,5.154 18.393,4.01 17.143,3.382 16.696,3.717 Z" />
    <path
       style="fill:url(#p)"
       inkscape:connector-curvature="0"
       id="path1270"
       transform="matrix(0.68916,0,0,0.68916,7.023,-0.008)"
       d="m 16.314,4.1 c 0.446,-0.334 1.697,0.294 2.847,1.438 1.148,1.14 1.752,2.363 1.425,2.813 0,0.003 0.028,0.026 0.027,0.028 l 0.2,-0.2 c 0,-0.002 -0.03,-0.026 -0.027,-0.027 0.327,-0.45 -0.278,-1.67 -1.425,-2.812 -1.15,-1.144 -2.4,-1.772 -2.847,-1.437 z" />
    <path
       style="fill:url(#q)"
       inkscape:connector-curvature="0"
       id="path1272"
       transform="matrix(0.68916,0,0,0.68916,7.023,-0.008)"
       d="m 17.135,3.276 c 0.446,-0.334 1.697,0.293 2.847,1.437 1.147,1.142 1.75,2.363 1.424,2.813 0,0.002 0.028,0.025 0.027,0.027 l 0.2,-0.2 c 0,-0.002 -0.03,-0.025 -0.028,-0.027 0.327,-0.45 -0.277,-1.672 -1.424,-2.813 -1.15,-1.144 -2.4,-1.772 -2.846,-1.437 z" />
    <path
       style="fill:url(#r)"
       inkscape:connector-curvature="0"
       id="path1274"
       transform="matrix(0.68916,0,0,0.68916,7.023,-0.008)"
       d="m 16.952,3.46 c 0.446,-0.335 1.697,0.293 2.847,1.437 1.146,1.14 1.75,2.362 1.423,2.813 0,0 0.028,0.025 0.027,0.026 l 0.2,-0.2 c 0,-0.002 -0.03,-0.025 -0.027,-0.027 0.327,-0.45 -0.278,-1.672 -1.425,-2.813 -1.15,-1.145 -2.4,-1.772 -2.847,-1.438 z" />
    <path
       style="fill:url(#s);fill-rule:evenodd;stroke:url(#t);stroke-width:0.5"
       inkscape:connector-curvature="0"
       id="path1276"
       transform="matrix(0.68916,0,0,0.68916,7.023,-0.008)"
       d="M 0.928,23.76 8.211,20.79 8.274,20.73 C 8.601,20.278 7.989,19.057 6.842,17.916 5.692,16.772 4.444,16.146 3.998,16.482 Z" />
    <path
       style="fill:#0c0c0c;fill-rule:evenodd;stroke:#0c0c0c;stroke-width:0.34457999"
       inkscape:connector-curvature="0"
       id="path1278"
       d="m 8.235,15.01 -0.573,1.352 1.37,-0.56 C 8.922,15.669 8.82,15.536 8.688,15.405 8.538,15.255 8.388,15.131 8.235,15.009 Z" />
  </g>
</svg>
