<svg xmlns="http://www.w3.org/2000/svg" xmlns:xlink="http://www.w3.org/1999/xlink" viewBox="0 0 24 24"><defs><linearGradient id="a"><stop offset="0" stop-color="#737373"/><stop offset=".262" stop-color="#636363"/><stop offset=".705" stop-color="#4b4b4b"/><stop offset="1" stop-color="#3f3f3f"/></linearGradient><linearGradient xlink:href="#a" id="j" x1="6.967" y1="10.384" x2="6.817" y2="21.386" gradientUnits="userSpaceOnUse"/></defs><linearGradient id="c" gradientUnits="userSpaceOnUse" x1="14.417" x2="1.164" y1="4.477" y2="10.218"><stop offset="0" stop-color="#fff"/><stop offset="1" stop-color="#fff" stop-opacity="0"/></linearGradient><radialGradient id="d" cx="6.703" cy="73.616" gradientTransform="matrix(1.6636 0 0 .44756 .915 -11.872)" gradientUnits="userSpaceOnUse" r="7.228"><stop offset="0"/><stop offset="1" stop-opacity="0"/></radialGradient><linearGradient id="e" gradientUnits="userSpaceOnUse" x1=".656" x2="14.728" xlink:href="#b" y1="11.822" y2="1.324"/><linearGradient id="b"><stop offset="0" stop-color="#fff3cb"/><stop offset=".262" stop-color="#fdde76"/><stop offset=".661" stop-color="#f9c440"/><stop offset="1" stop-color="#e48b20"/></linearGradient><radialGradient id="f" cx="32.5" cy="16.563" gradientTransform="matrix(.136 .32887 -.25782 .113 11.15 -7.538)" gradientUnits="userSpaceOnUse" r="14.438" xlink:href="#b"/><filter id="g" color-interpolation-filters="sRGB" height="1.324" width="1.387" x="-.193" y="-.162"><feGaussianBlur stdDeviation=".678"/></filter><linearGradient id="h" gradientTransform="matrix(.26726 0 0 1.15755 9.316 -10.704)" gradientUnits="userSpaceOnUse" x1="-32.957" x2="-25.474" y1="27.389" y2="27.389"><stop offset="0" stop-color="#2e3436"/><stop offset=".644" stop-color="#888a85"/><stop offset="1" stop-color="#555753"/></linearGradient><linearGradient id="i" gradientTransform="matrix(.77602 .23906 -.31605 .56748 -20.168 4.55)" gradientUnits="userSpaceOnUse" x1="27.528" x2="30.42" y1="4.167" y2="2.949"><stop offset="0" stop-color="#eeeeec"/><stop offset=".789" stop-color="#fff"/><stop offset="1" stop-color="#eeeeec"/></linearGradient><path d="M-.214 8.955C12.8 9.78 4.6 2.268 14.656 2.028l2.527 5.31c-4.59-2.14-7.73 8.854-17.456 2.394l.06-.777z" fill="url(#c)" fill-rule="evenodd" opacity=".444"/><path d="M24.09 21.076c0 1.787-5.383 3.235-12.025 3.235C5.425 24.31.04 22.864.04 21.077s5.384-3.235 12.025-3.235c6.642 0 12.026 1.45 12.026 3.236z" fill="url(#d)" opacity=".2"/><path d="M9.975 1.105l-.102 2.48-1.596.835-.5-.28L7.76 2.66l-1.047.965-1.41-.44.593 1.292-.855 1.204 1.415-.164.883 1.185.28-1.396.737-.25 1.563.58.432 2.538 1.54-1.946 2.546.375L13.06 4.54l1.143-2.304-2.387.668-1.84-1.8zM4.45 5.473l-.81.75-1.095-.344.46 1.005-.663.933L3.44 7.69l.683.92.217-1.083 1.088-.365-.963-.54zm3.714.892L6.98 7.455l-1.595-.498.672 1.463-.965 1.36 1.597-.184.996 1.34.316-1.58 1.584-.532-1.404-.79zM1.944 7.95l-.298 1.12-1.158.313.97.627-.06 1.2.897-.73 1.123.428L3 9.828l.754-.933L2.6 8.96l-.657-1.01z" fill="url(#e)"/><path d="M13.263 9.77c-2.056.9-4.6-.495-5.686-3.117C6.493 4.03 7.28 1.175 9.337.273c2.055-.9 4.6.495 5.685 3.118 1.084 2.623.297 5.48-1.76 6.38z" fill="url(#f)" filter="url(#g)" opacity=".483"/><g transform="matrix(1.05835 -.61104 .51706 .89557 3.11 -5.864)"><path d="M.5 18v12.438c0 .58.297 1.062.667 1.062h.666c.37 0 .667-.48.667-1.063V18z" fill="url(#h)" fill-rule="evenodd"/><rect fill="none" height="21" opacity=".3" rx=".749" ry=".929" stroke="#000" stroke-width=".814" width="2" x=".5" y="10.5"/><path d="M1.167 10.5c-.37 0-.667.48-.667 1.063V18h2v-6.438c0-.58-.297-1.062-.667-1.062z" fill="url(#i)" fill-rule="evenodd" opacity=".9"/></g><path d="M8.843 21.55l-.47-1.255H8.31q-.614.8-1.268 1.114-.645.304-1.688.304-1.283 0-2.024-.76-.733-.757-.733-2.16 0-1.467.988-2.16.996-.7 2.995-.774l1.546-.05v-.404q0-1.4-1.386-1.4-1.068 0-2.51.666l-.804-1.698q1.537-.833 3.41-.833 1.792 0 2.748.81.956.807.956 2.456v6.143zm-.717-4.272l-.94.033q-1.06.034-1.577.397-.52.362-.52 1.104 0 1.065 1.18 1.065.844 0 1.346-.503.51-.503.51-1.336z" fill="url(#j)" stroke="#000" stroke-width=".896" stroke-linejoin="round" stroke-opacity=".49"/></svg>