<?xml version="1.0" encoding="UTF-8" standalone="no"?>
<svg
   xmlns:dc="http://purl.org/dc/elements/1.1/"
   xmlns:cc="http://creativecommons.org/ns#"
   xmlns:rdf="http://www.w3.org/1999/02/22-rdf-syntax-ns#"
   xmlns:svg="http://www.w3.org/2000/svg"
   xmlns="http://www.w3.org/2000/svg"
   xmlns:xlink="http://www.w3.org/1999/xlink"
   xmlns:sodipodi="http://sodipodi.sourceforge.net/DTD/sodipodi-0.dtd"
   xmlns:inkscape="http://www.inkscape.org/namespaces/inkscape"
   viewBox="0 0 24 24"
   version="1.1"
   id="svg1280"
   sodipodi:docname="lc_editdoc.svg"
   inkscape:version="0.92.3 (unknown)">
  <metadata
     id="metadata1284">
    <rdf:RDF>
      <cc:Work
         rdf:about="">
        <dc:format>image/svg+xml</dc:format>
        <dc:type
           rdf:resource="http://purl.org/dc/dcmitype/StillImage" />
      </cc:Work>
    </rdf:RDF>
  </metadata>
  <sodipodi:namedview
     pagecolor="#ffffff"
     bordercolor="#666666"
     borderopacity="1"
     objecttolerance="10"
     gridtolerance="10"
     guidetolerance="10"
     inkscape:pageopacity="0"
     inkscape:pageshadow="2"
     inkscape:window-width="1366"
     inkscape:window-height="706"
     id="namedview1282"
     showgrid="false"
     inkscape:zoom="9.8333333"
     inkscape:cx="-1.0677966"
     inkscape:cy="11.186441"
     inkscape:window-x="0"
     inkscape:window-y="0"
     inkscape:window-maximized="1"
     inkscape:current-layer="svg1280" />
  <defs
     id="defs1214">
    <linearGradient
       x1="23.576"
       y1="25.357"
       x2="23.576"
       y2="31.211"
       id="l"
       xlink:href="#a"
       gradientUnits="userSpaceOnUse"
       gradientTransform="matrix(.65657 -.6598 .73452 .73087 -21.95 5.314)" />
    <linearGradient
       id="a">
      <stop
         offset="0"
         stop-color="#181818"
         id="stop1165" />
      <stop
         offset=".135"
         stop-color="#dbdbdb"
         id="stop1167" />
      <stop
         offset=".202"
         stop-color="#a4a4a4"
         id="stop1169" />
      <stop
         offset=".27"
         stop-color="#fff"
         id="stop1171" />
      <stop
         offset=".447"
         stop-color="#8d8d8d"
         id="stop1173" />
      <stop
         offset=".571"
         stop-color="#959595"
         id="stop1175" />
      <stop
         offset=".72"
         stop-color="#cecece"
         id="stop1177" />
      <stop
         offset="1"
         stop-color="#181818"
         id="stop1179" />
    </linearGradient>
    <linearGradient
       x1="30.038"
       y1="24.99"
       x2="30.038"
       y2="30"
       id="m"
       xlink:href="#b"
       gradientUnits="userSpaceOnUse"
       gradientTransform="matrix(.638 -.64114 .85963 .85535 -24.357 1.938)" />
    <linearGradient
       id="b">
      <stop
         offset="0"
         stop-color="#565656"
         id="stop1183" />
      <stop
         offset=".5"
         stop-color="#9a9a9a"
         id="stop1185" />
      <stop
         offset="1"
         stop-color="#545454"
         id="stop1187" />
    </linearGradient>
    <linearGradient
       x1="30.038"
       y1="24.99"
       x2="30.038"
       y2="30"
       id="n"
       xlink:href="#c"
       gradientUnits="userSpaceOnUse"
       gradientTransform="matrix(.638 -.64114 .85963 .85535 -24.54 2.122)" />
    <linearGradient
       id="c">
      <stop
         offset="0"
         stop-color="#b1b1b1"
         id="stop1191" />
      <stop
         offset=".5"
         stop-color="#fff"
         id="stop1193" />
      <stop
         offset="1"
         stop-color="#8f8f8f"
         id="stop1195" />
    </linearGradient>
    <linearGradient
       x1="30.038"
       y1="24.99"
       x2="30.038"
       y2="30"
       id="o"
       xlink:href="#b"
       gradientUnits="userSpaceOnUse"
       gradientTransform="matrix(.638 -.64114 .85963 .85535 -23.722 1.3)" />
    <linearGradient
       x1="30.038"
       y1="24.99"
       x2="30.038"
       y2="30"
       id="p"
       xlink:href="#c"
       gradientUnits="userSpaceOnUse"
       gradientTransform="matrix(.638 -.64114 .85963 .85535 -23.905 1.484)" />
    <linearGradient
       x1="30.038"
       y1="24.99"
       x2="30.038"
       y2="30"
       id="q"
       xlink:href="#b"
       gradientUnits="userSpaceOnUse"
       gradientTransform="matrix(.638 -.64114 .85963 .85535 -23.084 .66)" />
    <linearGradient
       x1="30.038"
       y1="24.99"
       x2="30.038"
       y2="30"
       id="r"
       xlink:href="#c"
       gradientUnits="userSpaceOnUse"
       gradientTransform="matrix(.638 -.64114 .85963 .85535 -23.267 .843)" />
    <linearGradient
       x1="9"
       y1="29.057"
       x2="9"
       y2="26.03"
       id="s"
       xlink:href="#d"
       gradientUnits="userSpaceOnUse"
       gradientTransform="matrix(.638 -.64114 .85963 .85535 -24.6 2.182)" />
    <linearGradient
       id="d">
      <stop
         offset="0"
         stop-color="#ece5a5"
         id="stop1203" />
      <stop
         offset="1"
         stop-color="#fcfbf2"
         id="stop1205" />
    </linearGradient>
    <linearGradient
       x1="5.518"
       y1="37.372"
       x2="9.522"
       y2="41.392"
       id="t"
       xlink:href="#e"
       gradientUnits="userSpaceOnUse"
       gradientTransform="matrix(.56036 .0242 .02416 .55967 -1.392 -1.445)" />
    <linearGradient
       id="e">
      <stop
         offset="0"
         stop-color="#dbce48"
         id="stop1209" />
      <stop
         offset="1"
         stop-color="#c5b625"
         id="stop1211" />
    </linearGradient>
  </defs>
  <linearGradient
     id="k"
     gradientTransform="matrix(.4054 0 0 .5135 2.27 -.324)"
     gradientUnits="userSpaceOnUse"
     x1="24"
     x2="24"
     y1="6.474"
     y2="41.526">
    <stop
       offset="0"
       stop-color="#fff"
       id="stop1216" />
    <stop
       offset="0"
       stop-color="#fff"
       stop-opacity=".235"
       id="stop1218" />
    <stop
       offset="1"
       stop-color="#fff"
       stop-opacity=".157"
       id="stop1220" />
    <stop
       offset="1"
       stop-color="#fff"
       stop-opacity=".392"
       id="stop1222" />
  </linearGradient>
  <linearGradient
     id="j"
     gradientTransform="matrix(.48572 0 0 .4563 .343 .35)"
     gradientUnits="userSpaceOnUse"
     x1="25.132"
     x2="25.132"
     y1=".985"
     y2="47.013">
    <stop
       offset="0"
       stop-color="#f4f4f4"
       id="stop1225" />
    <stop
       offset="1"
       stop-color="#dbdbdb"
       id="stop1227" />
  </linearGradient>
  <radialGradient
     id="i"
     cx="605.714"
     cy="486.648"
     gradientTransform="matrix(.01205 0 0 .00824 13.24 18.98)"
     gradientUnits="userSpaceOnUse"
     r="117.143"
     xlink:href="#f" />
  <linearGradient
     id="f">
    <stop
       offset="0"
       id="stop1231" />
    <stop
       offset="1"
       stop-opacity="0"
       id="stop1233" />
  </linearGradient>
  <radialGradient
     id="h"
     cx="605.714"
     cy="486.648"
     gradientTransform="matrix(-.01205 0 0 .00824 10.76 18.98)"
     gradientUnits="userSpaceOnUse"
     r="117.143"
     xlink:href="#f" />
  <linearGradient
     id="g"
     gradientTransform="matrix(.0352 0 0 .00824 -.725 18.98)"
     gradientUnits="userSpaceOnUse"
     x1="302.857"
     x2="302.857"
     y1="366.648"
     y2="609.505">
    <stop
       offset="0"
       stop-opacity="0"
       id="stop1237" />
    <stop
       offset=".5"
       id="stop1239" />
    <stop
       offset="1"
       stop-opacity="0"
       id="stop1241" />
  </linearGradient>
  <g
     id="g1835">
    <path
       id="path1244"
       opacity=".15"
       fill="url(#g)"
       d="M3.5 22h17v2h-17z" />
    <path
       id="path1246"
       opacity=".15"
       fill="url(#h)"
       d="M3.5 22v2c-.62.004-1.5-.448-1.5-1s.692-1 1.5-1z" />
    <path
       id="path1248"
       opacity=".15"
       fill="url(#i)"
       d="M20.5 22v2c.62.004 1.5-.448 1.5-1s-.692-1-1.5-1z" />
    <path
       id="path1250"
       fill="url(#j)"
       d="M3.5 1.5h17v21h-17v-21z" />
    <path
       id="path1252"
       stroke-linecap="round"
       stroke="url(#k)"
       fill="none"
       d="M19.5 21.5h-15v-19h15z" />
    <path
       id="path1254"
       stroke-linejoin="round"
       stroke="#000"
       opacity=".3"
       fill="none"
       d="M3.446 1.482h17v21h-17v-21z" />
  </g>
  <g
     id="g1849">
    <path
       id="path1256"
       fill-rule="evenodd"
       fill="#0c0c0c"
       opacity=".15"
       d="M21.362 12.416c-.137-.02-.245-.01-.316.007L11.5 14.62l-1.756.405-.054.01-2.136 1.505 5.097-.135.044-.01 1.768-.404 9.543-2.21c.287-.068-.142-.424-.96-.802-.615-.283-1.27-.5-1.683-.562z" />
    <path
       id="path1258"
       transform="translate(7.023 -.008) scale(.68916)"
       stroke-linejoin="round"
       stroke-width=".5"
       stroke="#0c0c0c"
       fill="url(#l)"
       d="M3.996 16.48c.446-.335 1.697.293 2.847 1.437 1.147 1.14 1.75 2.362 1.424 2.813 0 0 .028.025.027.026l16.01-16.088c.406-.41-.225-1.7-1.41-2.88C21.705.608 20.41-.017 20.005.39z" />
    <path
       id="path1260"
       stroke-linejoin="round"
       stroke-width=".34458"
       stroke="#e28ccd"
       fill="#ffb6ed"
       opacity=".8"
       d="M19.464 1.615c.307-.23 1.17.202 1.962.99.79.787 1.207 1.628.98 1.94l.02.017 1.346-1.353.028-.03-.02-.017c.227-.31-.19-1.152-.98-1.94-.793-.787-1.655-1.22-1.962-.99l-.028.028-1.346 1.355z" />
    <path
       id="path1262"
       fill="#0c0c0c"
       opacity=".6"
       d="M9.777 11.35c.307-.232 1.17.2 1.962.99.79.786 1.206 1.628.98 1.938l.02.018 7.597-7.635.028-.027-.02-.018c.227-.31-.19-1.152-.98-1.94-.793-.787-1.655-1.22-1.962-.99l-.028.028z" />
    <path
       id="path1264"
       transform="translate(7.023 -.008) scale(.68916)"
       fill="url(#m)"
       d="M15.862 4.555c.446-.334 1.697.293 2.847 1.437 1.146 1.142 1.75 2.363 1.423 2.813 0 .002.028.025.027.027l.2-.2c0-.002-.03-.025-.028-.027.327-.45-.277-1.672-1.424-2.813-1.15-1.144-2.4-1.772-2.847-1.437z" />
    <path
       id="path1266"
       transform="translate(7.023 -.008) scale(.68916)"
       fill="url(#n)"
       d="M15.68 4.74c.445-.336 1.696.292 2.846 1.436 1.147 1.14 1.75 2.363 1.424 2.813 0 0 .028.024.027.026l.2-.2c0-.002-.03-.026-.027-.027.327-.452-.278-1.673-1.425-2.814-1.15-1.144-2.4-1.772-2.847-1.437z" />
    <path
       id="path1268"
       transform="translate(7.023 -.008) scale(.68916)"
       fill="url(#o)"
       d="M16.497 3.917c.446-.334 1.697.293 2.847 1.437 1.147 1.142 1.75 2.363 1.424 2.813 0 .002.028.025.027.027l.2-.2c0-.002-.03-.025-.028-.027.327-.45-.277-1.672-1.424-2.813-1.15-1.144-2.4-1.772-2.847-1.437z" />
    <path
       id="path1270"
       transform="translate(7.023 -.008) scale(.68916)"
       fill="url(#p)"
       d="M16.314 4.1c.446-.334 1.697.294 2.847 1.438 1.148 1.14 1.752 2.363 1.425 2.813 0 .003.028.026.027.028l.2-.2c0-.002-.03-.026-.027-.027.327-.45-.278-1.67-1.425-2.812-1.15-1.144-2.4-1.772-2.847-1.437z" />
    <path
       id="path1272"
       transform="translate(7.023 -.008) scale(.68916)"
       fill="url(#q)"
       d="M17.135 3.276c.446-.334 1.697.293 2.847 1.437 1.147 1.142 1.75 2.363 1.424 2.813 0 .002.028.025.027.027l.2-.2c0-.002-.03-.025-.028-.027.327-.45-.277-1.672-1.424-2.813-1.15-1.144-2.4-1.772-2.846-1.437l-.2.2z" />
    <path
       id="path1274"
       transform="translate(7.023 -.008) scale(.68916)"
       fill="url(#r)"
       d="M16.952 3.46c.446-.335 1.697.293 2.847 1.437 1.146 1.14 1.75 2.362 1.423 2.813 0 0 .028.025.027.026l.2-.2c0-.002-.03-.025-.027-.027.327-.45-.278-1.672-1.425-2.813-1.15-1.145-2.4-1.772-2.847-1.438z" />
    <path
       id="path1276"
       transform="translate(7.023 -.008) scale(.68916)"
       stroke-width=".5"
       stroke="url(#t)"
       fill-rule="evenodd"
       fill="url(#s)"
       d="M.928 23.76l7.283-2.97.063-.06c.327-.452-.285-1.673-1.432-2.814-1.15-1.144-2.398-1.77-2.844-1.434z" />
    <path
       id="path1278"
       stroke-width=".34458"
       stroke="#0c0c0c"
       fill-rule="evenodd"
       fill="#0c0c0c"
       d="M8.235 15.01l-.573 1.352 1.37-.56c-.11-.133-.212-.266-.344-.397-.15-.15-.3-.274-.453-.396z" />
  </g>
</svg>
