<svg xmlns="http://www.w3.org/2000/svg" xmlns:xlink="http://www.w3.org/1999/xlink" height="24" width="24"><defs><linearGradient id="a" gradientTransform="matrix(.4922 0 0 .4584 4.51 -4.794)" gradientUnits="userSpaceOnUse" x1="23.732" x2="23.732" y1="5.394" y2="39.735"><stop offset="0" stop-color="#90dbec"/><stop offset=".262" stop-color="#55c1ec"/><stop offset=".705" stop-color="#3689e6"/><stop offset="1" stop-color="#2b63a0"/></linearGradient><linearGradient xlink:href="#a" id="g" x1="10.873" y1=".191" x2="12" y2="11" gradientUnits="userSpaceOnUse"/><linearGradient id="c" gradientTransform="matrix(.4458 0 0 .45 .802 -.025)" gradientUnits="userSpaceOnUse" x1="25.132" x2="25.132" y1="15.5" y2="48.396"><stop offset="0" stop-color="#fafafa"/><stop offset="1" stop-color="#e2e1de"/></linearGradient></defs><linearGradient id="h" gradientUnits="userSpaceOnUse" x1="11.001" x2="11.001" xlink:href="#b" y1="2.269" y2="19.728"/><linearGradient id="b"><stop offset="0" stop-color="#fff"/><stop offset=".063" stop-color="#fff" stop-opacity=".235"/><stop offset=".951" stop-color="#fff" stop-opacity=".157"/><stop offset="1" stop-color="#fff" stop-opacity=".392"/></linearGradient><linearGradient id="f" gradientTransform="matrix(.4762 0 0 .25 .095 3)" gradientUnits="userSpaceOnUse" x1="23.954" x2="23.954" y1="15.999" y2="19.963"><stop offset="0"/><stop offset="1" stop-opacity="0"/></linearGradient><linearGradient id="e" gradientTransform="matrix(.4848 0 0 .527 -.165 -.4)" gradientUnits="userSpaceOnUse" x1="24" x2="24" xlink:href="#b" y1="5" y2="43"/><linearGradient id="d" gradientTransform="matrix(.4458 0 0 .45 .802 -.025)" gradientUnits="userSpaceOnUse" x1="25.132" x2="25.132" y1="15.5" y2="48.396"><stop offset="0" stop-color="#fafafa"/><stop offset="1" stop-color="#e2e1de"/></linearGradient><linearGradient id="i" gradientTransform="rotate(-90 12 12)" gradientUnits="userSpaceOnUse" x1="11.001" x2="11.001" xlink:href="#b" y1="2.269" y2="19.728"/><rect height="20" rx=".528" ry=".556" width="19" x="2" y="2" fill="url(#c)"/><rect fill="url(#d)" height="5" rx=".528" ry=".556" width="19" x="2" y="2"/><path d="M7 2.5h13.44V22H7z" fill="none" stroke="url(#e)" stroke-linecap="round" stroke-linejoin="round" stroke-width="1.1"/><path d="M2 7h20v1H2z" fill="url(#f)" opacity=".15"/><path d="M21 6.164v15.3c0 .305-.23.536-.537.536H7v1h13.463c.842 0 1.537-.695 1.537-1.537v-15.3z" opacity=".3"/><path d="M2.537 1.5c-.574 0-1.037.463-1.037 1.037V6.5s-.085-4.847-.085-.52c0 .576.387 1.042.96 1.04L7 6.967V7h14.5V2.537c0-.574-.463-1.037-1.037-1.037z" fill="url(#g)"/><path d="M2.537 1C1.695 1 1 1.695 1 2.537V7h21V2.537C22 1.695 21.305 1 20.463 1zm0 1h17.926c.306 0 .537.23.537.537V6H2V2.537C2 2.23 2.23 2 2.537 2z" fill-opacity=".49" fill="#004372"/><path d="M2.5 2.5v3h18v-3z" fill="none" opacity=".5" stroke="url(#h)" stroke-linecap="round" stroke-linejoin="round"/><path d="M11 7h1v15h-1zm5 0h1v15h-1z" opacity=".321"/><path d="M2 10h4v1H2z" fill="#434343" opacity=".321"/><path d="M7 10h4v1H7zm5 0h4v1h-4zm5 0h4v1h-4z" opacity=".321"/><path d="M2 14h4v1H2z" fill="#434343" opacity=".321"/><path d="M6 7h1v15H6z" fill="#444" opacity=".4"/><path d="M7 14h4v1H7zm5 0h4v1h-4zm5 0h4v1h-4z" opacity=".321"/><path d="M2 18h4v1H2z" fill="#434343" opacity=".321"/><path d="M7 18h4v1H7zm5 0h4v1h-4zm5 0h4v1h-4z" opacity=".321"/><path d="M6 2h1v4H6zm5 0h1v4h-1zm5 0h1v4h-1z" opacity=".4" fill="#004172" fill-opacity=".772"/><path d="M2.5 5.5h3V2.56h-3z" fill="none" opacity=".5" stroke="url(#i)" stroke-linecap="round" stroke-linejoin="round"/><path d="M1 7v14.463C1 22.306 1.694 23 2.537 23H7v-1H2.537C2.232 22 2 21.768 2 21.463V7z" opacity=".3"/></svg>