<svg height="24" width="24" xmlns="http://www.w3.org/2000/svg" xmlns:xlink="http://www.w3.org/1999/xlink"><linearGradient id="a" gradientUnits="userSpaceOnUse" x1="15.5104060068" x2="15.5104060068" y1="4.99999908652" y2="12.99999922652"><stop offset="0" stop-color="#fff"/><stop offset=".49771357" stop-color="#fff" stop-opacity=".235294"/><stop offset=".74999994" stop-color="#fff" stop-opacity=".156863"/><stop offset="1" stop-color="#fff" stop-opacity=".392157"/></linearGradient><linearGradient id="b" gradientUnits="userSpaceOnUse" x1="17.86857798246" x2="17.86857798246" y1="3.45689593147" y2="14.51068173452"><stop offset="0" stop-color="#64baff"/><stop offset="1" stop-color="#3689e6"/></linearGradient><linearGradient id="c" gradientUnits="userSpaceOnUse" x1="9.50124911784" x2="9.50124911784" y1="10.99999997553" y2="18.00000031424"><stop offset="0" stop-color="#fff"/><stop offset="0" stop-color="#fff" stop-opacity=".235294"/><stop offset="1" stop-color="#fff" stop-opacity=".156863"/><stop offset="1" stop-color="#fff" stop-opacity=".392157"/></linearGradient><linearGradient id="d" gradientUnits="userSpaceOnUse" x1="10.86857759346" x2="10.86857759346" y1="9.58189581598" y2="19.38568226285"><stop offset="0" stop-color="#fafafa"/><stop offset="1" stop-color="#d4d4d4"/></linearGradient><rect fill="url(#d)" height="10" rx="1" width="10" x="4.5" y="9.5"/><path d="m5.501251 10.498745h8v8h-8z" fill="none" opacity=".5" stroke="url(#c)" stroke-linecap="round" stroke-linejoin="round"/><rect fill="none" height="10" opacity=".5" rx="1" stroke="#555761" stroke-linecap="round" stroke-linejoin="round" width="10" x="4.5" y="9.5"/><path d="m20.500001 9.0000004a5.5000005 5.5000019 0 1 1 -11.0000009 0 5.5000005 5.5000019 0 1 1 11.0000009 0z" fill="url(#b)"/><g stroke-linecap="round" stroke-linejoin="round"><path d="m19.499995 8.9999994a4.4999993 4.4999996 0 1 1 -8.999998 0 4.4999993 4.4999996 0 1 1 8.999998 0z" fill="none" opacity=".5" stroke="url(#a)"/><path d="m20.500001 9.0000004a5.5000005 5.5000019 0 1 1 -11.0000009 0 5.5000005 5.5000019 0 1 1 11.0000009 0z" fill="none" opacity=".5" stroke="#002e99"/><path d="m1.5000001 1.5000001h2v1.9999998h-2z" fill="#fafafa" stroke="#7e8087" stroke-opacity=".949458"/></g><path d="m4.0000001 2.5h15.9999999" fill="none" opacity=".6" stroke="#abacae"/><path d="m20.5 1.5000001h2v1.9999998h-2z" fill="#fafafa" stroke="#7e8087" stroke-linecap="round" stroke-linejoin="round" stroke-opacity=".949458"/><path d="m1.5000001 20.5h2v2h-2z" fill="#fafafa" stroke="#7e8087" stroke-linecap="round" stroke-linejoin="round" stroke-opacity=".949458"/><path d="m4.0000001 21.5h15.9999999" fill="none" opacity=".6" stroke="#abacae"/><path d="m20.5 20.5h2v2h-2z" fill="#fafafa" stroke="#7e8087" stroke-linecap="round" stroke-linejoin="round" stroke-opacity=".949458"/><path d="m21.5 4v16" fill="none" opacity=".6" stroke="#abacae"/><path d="m2.5000001 4v16" fill="none" opacity=".6" stroke="#abacae"/></svg>