<svg xmlns="http://www.w3.org/2000/svg" xmlns:xlink="http://www.w3.org/1999/xlink" width="24" height="24"><defs><linearGradient id="d"><stop offset="0" stop-color="#fff"/><stop offset=".405" stop-color="#fff" stop-opacity=".235"/><stop offset=".744" stop-color="#fff" stop-opacity=".157"/><stop offset="1" stop-color="#fff" stop-opacity=".392"/></linearGradient><linearGradient y2="27.652" x2="104.747" y1="27.165" x1="80.82" spreadMethod="reflect" gradientTransform="matrix(-.22263 -.3738 .38562 -.21582 26.413 53.273)" gradientUnits="userSpaceOnUse" id="e" xlink:href="#a"/><linearGradient id="a"><stop offset="0" stop-color="#abacae"/><stop offset=".111" stop-color="#7e8087"/><stop offset="1" stop-color="#fafafa"/></linearGradient><linearGradient id="b"><stop offset="0" stop-color="#fff"/><stop offset="1" stop-color="#9d9d9d"/></linearGradient><linearGradient y2="240.809" x2="195.835" y1="235.838" x1="194.152" gradientTransform="rotate(-3.515 -3627.6 3230.983)" gradientUnits="userSpaceOnUse" id="g" xlink:href="#c"/><linearGradient id="c"><stop offset="0" stop-color="#cfd1d3"/><stop offset="1" stop-color="#cfd1d3" stop-opacity="0"/></linearGradient><linearGradient gradientUnits="userSpaceOnUse" y2="15.044" x2="16.016" y1="1.894" x1="16.016" id="f" xlink:href="#d" gradientTransform="translate(-.492 -.852)"/></defs><path d="M20.378 4.957c.12-.732-2.427-1.89-8.615-1.957-4.494.11-8.545 1.3-8.208 1.886.018.712 4.188 2.295 8.208 2.122 3.255-.14 8.495-1.32 8.615-2.05z" fill="#555753" stroke="#555761"/><path d="M10.826 18.958L14.8 8.68l6.804-3.927c.892-1.244-1.323-3.755-2.036-3.528L12.56 5.27 2.333 4.39c4.116 2.006 8.657 10.376 8.493 14.568z" fill="url(#e)" fill-rule="evenodd" stroke="#818491" stroke-linejoin="round" transform="rotate(120 11.254 9.87)"/><path d="M11.603 16.07l2.72-7.954 6.47-3.78c.264-.968-1.027-1.98-1.253-2.172l-6.552 3.783-7.646-.835c2.34 1.793 5.518 8.152 6.26 10.958z" fill="none" stroke="url(#f)" stroke-width=".936" transform="rotate(120 11.254 9.87)"/><path style="line-height:normal;-inkscape-font-specification:'Bitstream Vera Sans';text-indent:0;text-align:start;text-decoration-line:none;text-transform:none" d="M2.297 5.072c-.188.074-.313.255-.316.458.078 2.564 3.33 8.762 5.005 9.915.226.16.538.105.697-.12.16-.227.105-.54-.12-.698-1.267-.87-4.44-6.887-4.575-9.034.02-.177-.053-.35-.195-.46-.142-.106-.33-.13-.495-.06z" font-family="Bitstream Vera Sans" overflow="visible" fill="url(#g)" transform="rotate(120 11.254 9.87)"/></svg>