<svg xmlns="http://www.w3.org/2000/svg" xmlns:xlink="http://www.w3.org/1999/xlink" viewBox="0 0 24 24"><defs><mask id="e"><path d="M303.54 125.905h23.376v22.5H303.54z" fill="url(#a)"/></mask><linearGradient id="a" gradientUnits="userSpaceOnUse" x1="316.472" x2="317.624" y1="138.897" y2="141.195"><stop offset="0" stop-color="#fff"/><stop offset="1"/></linearGradient><linearGradient id="f" gradientTransform="matrix(.78115 -.0348 -.0348 .78115 70.23 94.32)" gradientUnits="userSpaceOnUse" x1="309.297" x2="335.3" y1="67.298" y2="81.926"><stop offset="0" stop-color="#d3d7cf"/><stop offset=".183" stop-color="#babdb6"/><stop offset=".319" stop-color="#fff"/><stop offset=".876" stop-color="#babdb6"/><stop offset="1" stop-color="#eeeeec"/></linearGradient><linearGradient id="g" gradientTransform="matrix(.78115 -.0348 -.0348 .78115 70.23 94.32)" gradientUnits="userSpaceOnUse" x1="324.497" x2="330.061" y1="70.282" y2="99.274"><stop offset="0" stop-color="#888a85"/><stop offset="1" stop-color="#555753"/></linearGradient><linearGradient id="h" gradientTransform="matrix(.802 0 0 .796 69.747 998.182)" gradientUnits="userSpaceOnUse" x1="302.292" x2="308.649" y1="58.443" y2="60.768"><stop offset="0" stop-color="#babdb6"/><stop offset="1" stop-color="#fff"/></linearGradient></defs><linearGradient id="c" gradientTransform="matrix(.44577 0 0 .44994 .802 -.025)" gradientUnits="userSpaceOnUse" x1="25.132" x2="25.132" y1="15.5" y2="48.396"><stop offset="0" stop-color="#fafafa"/><stop offset="1" stop-color="#e2e1de"/></linearGradient><linearGradient id="d" gradientTransform="matrix(.48484 0 0 .52706 -.165 -.4)" gradientUnits="userSpaceOnUse" x1="24" x2="24" xlink:href="#b" y1="5" y2="43"/><linearGradient id="b"><stop offset="0" stop-color="#fff"/><stop offset=".063" stop-color="#fff" stop-opacity=".235"/><stop offset=".951" stop-color="#fff" stop-opacity=".157"/><stop offset="1" stop-color="#fff" stop-opacity=".392"/></linearGradient><rect height="20" rx=".528" ry=".556" width="20" x="2" y="2" fill="url(#c)"/><path d="M2.5 2.5h18.94V22H2.5z" fill="none" stroke="url(#d)" stroke-linecap="round" stroke-linejoin="round" stroke-width="1.1"/><path d="M2.537 1.5c-.574 0-1.037.463-1.037 1.037v18.926c0 .574.463 1.037 1.037 1.037h18.926c.574 0 1.037-.463 1.037-1.037V2.537c0-.574-.463-1.037-1.037-1.037H2.537z" stroke="#2a70a7" opacity=".5" fill="none"/><path d="M16.21 13.09c-.046.012-.075.04-.108.08-.066.076-.1.186-.054.27l1.212 2.287c.108.206.04.494-.162.78-.204.29-.524.594-.942.836-.42.24-.843.377-1.185.404-.34.026-.617-.063-.726-.27l-1.21-2.315c-.035-.064-.088-.103-.163-.108-.074-.005-.162.023-.214.08-.03.03-.043.07-.054.11-.304 1.108-.23 2.36.215 3.203.607 1.152 1.957 1.67 3.312 1.373.54.16-.398-.885.427-.064l4.21.242-.465-.932c-.744-.74-1.106-1.397-1.292-1.912.214-.733.163-1.513-.19-2.18-.442-.844-1.42-1.56-2.476-1.885-.045-.016-.09-.015-.134 0z" opacity=".4" fill="none" stroke="#000" stroke-width="1.7232" stroke-linecap="round" stroke-linejoin="round" stroke-dashoffset=".361"/><g mask="url(#e)" transform="matrix(.74844 0 0 .75 -215.48 -82.107)"><path d="M319.393 139.23l-4.342-4.36c-.993-.988-1.5-1.85-1.747-2.536.285-.977.233-2.005-.237-2.895-.593-1.126-1.9-2.085-3.31-2.518-.122-.04-.26 0-.347.103-.09.103-.11.245-.05.355l1.615 3.07c.145.274.047.64-.224 1.022-.272.386-.715.78-1.274 1.1-.56.323-1.113.51-1.57.547-.454.034-.805-.076-.95-.352l-1.625-3.085c-.044-.086-.128-.14-.227-.146-.1-.007-.203.033-.273.11-.038.04-.066.088-.08.14-.405 1.48-.32 3.156.273 4.28.81 1.537 2.61 2.207 4.42 1.81.723.213 1.673.713 2.775 1.808l3.296 3.21" fill="url(#f)" fill-rule="evenodd" stroke="url(#g)" stroke-width="1.15" stroke-linecap="round" stroke-linejoin="round" stroke-dashoffset=".361"/><path d="M314.506 1039.624c.015.01.006.025 0 .025l1.804 3.208c.244.433.068.943-.225 1.368-.296.43-.756.846-1.353 1.17-.6.324-1.228.48-1.755.497-.525.018-1.02-.13-1.253-.547l-1.804-3.234h-.026c.017-.018.003.013 0 .025-.332 1.423-.16 3.07.452 4.154.836 1.486 2.582 2.196 4.31 1.892 1.72-.306 3.192-1.794 3.56-3.21.23-.916.132-1.9-.352-2.76-.61-1.083-1.95-2.103-3.358-2.587z" transform="translate(-5.084 -912.595)" fill="url(#h)" fill-rule="evenodd"/><path d="M310.22 127.75l1.25 2.438c.288.547.084 1.12-.25 1.593-.34.48-.855.93-1.47 1.282-.607.35-1.224.58-1.813.625-.28.022-.55-.002-.812-.093-.263-.092-.514-.292-.656-.563l-1.25-2.374c-.174 1.164-.1 2.375.31 3.157.685 1.295 2.178 1.884 3.783 1.53.09-.023.19-.023.28 0 .824.245 1.876.79 3.032 1.938l4.03 3.848 2.66-1.374-4.66-4.473c-1.04-1.032-1.593-1.973-1.874-2.75-.035-.11-.035-.232 0-.343.25-.852.178-1.75-.217-2.5-.41-.778-1.324-1.473-2.344-1.937z" fill="none" stroke="#fff" stroke-width=".575" stroke-linecap="round" stroke-linejoin="round" stroke-dashoffset=".361"/><path d="M318.615 140.717l-.125.125c-.35.35-1.19.07-1.886-.627l-4.176-3.67c-.696-.697-.975-1.537-.627-1.886l.126-.126c.348-.348 1.19-.068 1.885.628l4.177 3.67c.696.696.976 1.537.628 1.885z" opacity=".08" fill-rule="evenodd"/></g></svg>