<svg xmlns="http://www.w3.org/2000/svg" xmlns:xlink="http://www.w3.org/1999/xlink" width="24" height="24"><defs><linearGradient id="b"><stop offset="0" stop-color="#fff"/><stop offset=".405" stop-color="#fff" stop-opacity=".235"/><stop offset=".744" stop-color="#fff" stop-opacity=".157"/><stop offset="1" stop-color="#fff" stop-opacity=".392"/></linearGradient><linearGradient y2="27.913" x2="107.101" y1="27.59" x1="82.924" spreadMethod="reflect" gradientTransform="matrix(-.22263 -.3738 .38562 -.21582 26.913 54.14)" gradientUnits="userSpaceOnUse" id="i" xlink:href="#a"/><linearGradient id="a"><stop offset="0" stop-color="#c2c3c4"/><stop offset=".095" stop-color="#c4c5c8"/><stop offset="1" stop-color="#fcfcfc"/></linearGradient><linearGradient gradientUnits="userSpaceOnUse" y2="15.044" x2="16.016" y1="1.894" x1="16.016" id="k" xlink:href="#b" gradientTransform="translate(.008 .014)"/><linearGradient id="c"><stop offset="0" stop-opacity=".34"/><stop offset="1" stop-opacity=".247"/></linearGradient><linearGradient xlink:href="#c" id="j" x1=".11" y1="11.067" x2="22.258" y2="11.067" gradientUnits="userSpaceOnUse"/><radialGradient r="20" fy="8.45" fx="5.78" cy="8.45" cx="5.78" gradientTransform="matrix(0 .89893 -.95096 0 16.035 1.985)" gradientUnits="userSpaceOnUse" id="l" xlink:href="#d"/><linearGradient id="d"><stop offset="0" stop-color="#90dbec"/><stop offset=".262" stop-color="#55c1ec"/><stop offset=".705" stop-color="#3689e6"/><stop offset="1" stop-color="#2b63a0"/></linearGradient><linearGradient y2="3.899" x2="24" y1="44" x1="24" gradientTransform="translate(-1.232 6.768) scale(.38465)" gradientUnits="userSpaceOnUse" id="m" xlink:href="#e"/><linearGradient id="e"><stop offset="0" stop-color="#185f9a"/><stop offset="1" stop-color="#599ec9"/></linearGradient><linearGradient xlink:href="#f" id="n" gradientUnits="userSpaceOnUse" gradientTransform="translate(-17.204 7.09) scale(.35135)" x1="71.204" y1="6.238" x2="71.204" y2="44.341"/><linearGradient id="f"><stop offset="0" stop-color="#fff"/><stop offset=".508" stop-color="#fff" stop-opacity=".235"/><stop offset=".835" stop-color="#fff" stop-opacity=".157"/><stop offset="1" stop-color="#fff" stop-opacity=".392"/></linearGradient><linearGradient xlink:href="#g" id="o" gradientUnits="userSpaceOnUse" gradientTransform="translate(-.67 7.22) scale(.36122)" x1="27.925" y1="15.149" x2="33.448" y2="22.986"/><linearGradient id="g"><stop offset="0" stop-color="#f8b17e"/><stop offset=".232" stop-color="#e35d4f"/><stop offset=".591" stop-color="#c6262e"/><stop offset="1" stop-color="#690b54"/></linearGradient><linearGradient xlink:href="#h" id="p" gradientUnits="userSpaceOnUse" gradientTransform="translate(-.67 7.22) scale(.36122)" x1="21.014" y1="25.434" x2="22.806" y2="27.344"/><linearGradient id="h"><stop offset="0" stop-color="#fff"/><stop offset="1" stop-color="#c1c1c1"/></linearGradient><linearGradient xlink:href="#h" id="q" gradientUnits="userSpaceOnUse" gradientTransform="matrix(.5 0 0 .5 -4 4)" x1="24" y1="22" x2="24" y2="26"/></defs><path transform="rotate(120 12.1 8.4)" d="M10.112 20.64l2.344-1.353 2.844-9.74 6.458-3.74c-.197-1.898-1.152-3.217-2.49-4.313l-6.458 3.74L2.955 2.83.61 4.18l4.763 8.222z" fill="url(#i)" fill-rule="evenodd" stroke="url(#j)" stroke-linejoin="round"/><path transform="rotate(120 12.1 8.4)" d="M6.237 11.905l4.27 7.387 1.09-.738 3-9.783 6.125-3.454c-.117-1.22-.888-2.044-1.545-2.676l-6.045 3.595L3.16 3.94l-1.185.575z" fill="none" stroke="url(#k)"/><g><path overflow="visible" d="M8 8.5C3.862 8.5.5 11.862.5 16s3.362 7.5 7.5 7.5 7.5-3.362 7.5-7.5S12.138 8.5 8 8.5z" color="#000" fill="url(#l)" stroke="url(#m)" stroke-width="1.069" stroke-linecap="round" stroke-linejoin="round" transform="matrix(.9 0 0 .9 9 1.5)"/><path overflow="visible" d="M14.5 16c0 3.59-2.91 6.5-6.5 6.5S1.5 19.59 1.5 16 4.41 9.5 8 9.5s6.5 2.91 6.5 6.5z" color="#000" opacity=".5" fill="none" stroke="url(#n)" stroke-width="1.069" stroke-linecap="round" stroke-linejoin="round" transform="matrix(.9 0 0 .9 9 1.5)"/><path overflow="visible" d="M20.307 11.594a.53.53 0 0 0-.3.116l-4.6 3.677a.53.53 0 0 0-.082.083l-3.675 4.597a.53.53 0 0 0 .744.743l4.598-3.677a.53.53 0 0 0 .084-.083l3.677-4.596a.53.53 0 0 0-.444-.86z" color="#000" opacity=".05"/><path overflow="visible" d="M20.338 12.122l-4.593 3.68-3.677 4.59 5.232-3.183z" color="#000" opacity=".15"/><path d="M7 15l2 2 3.598-5.708z" fill="url(#o)" transform="matrix(.9 0 0 .9 9 1.5)"/><path overflow="visible" d="M7 15l2 2-5.597 3.487z" color="#000" fill="url(#p)" transform="matrix(.9 0 0 .9 9 1.5)"/><path overflow="visible" d="M17.325 16.125a1.125 1.125 0 0 1-2.25 0 1.125 1.125 0 1 1 2.25 0z" color="#000" opacity=".2"/><path overflow="visible" d="M15.98 16.04a.324.324 0 0 1 .22-.565v.324z" color="#000" opacity=".05" fill="#fff"/><path overflow="visible" d="M17.1 16.125a.9.9 0 0 1-1.8 0 .9.9 0 1 1 1.8 0z" color="#000" opacity=".2"/><path overflow="visible" d="M9 16a1 1 0 0 1-2 0 1 1 0 1 1 2 0z" color="#000" fill="url(#q)" transform="matrix(.9 0 0 .9 9 1.5)"/></g></svg>