<svg xmlns="http://www.w3.org/2000/svg" xmlns:xlink="http://www.w3.org/1999/xlink" height="24" width="24"><defs><radialGradient xlink:href="#a" id="k" gradientUnits="userSpaceOnUse" cx="32" cy="32" fx="32" fy="32" r="8"/><linearGradient id="a"><stop offset="0" stop-color="#ffb800"/><stop offset="1" stop-color="#ffb800" stop-opacity="0"/></linearGradient><radialGradient r="7.245" fy="31.602" fx="29.095" cy="31.602" cx="29.095" gradientUnits="userSpaceOnUse" id="l" xlink:href="#b"/><linearGradient id="b"><stop offset="0" stop-color="#ffe375"/><stop offset="1" stop-color="#ffa600"/></linearGradient><radialGradient xlink:href="#b" id="r" gradientUnits="userSpaceOnUse" cx="29.095" cy="31.602" fx="29.095" fy="31.602" r="7.245" gradientTransform="rotate(30 8.953 45.72) scale(.32874)"/><radialGradient xlink:href="#a" id="q" gradientUnits="userSpaceOnUse" cx="32" cy="32" fx="32" fy="32" r="8" gradientTransform="matrix(.32874 0 0 .32874 16.61 4.89)"/><radialGradient xlink:href="#a" id="o" gradientUnits="userSpaceOnUse" cx="32" cy="32" fx="32" fy="32" r="8"/><radialGradient xlink:href="#b" id="p" gradientUnits="userSpaceOnUse" cx="29.095" cy="31.602" fx="29.095" fy="31.602" r="7.245"/><radialGradient xlink:href="#a" id="m" gradientUnits="userSpaceOnUse" cx="32" cy="32" fx="32" fy="32" r="8"/><radialGradient xlink:href="#b" id="n" gradientUnits="userSpaceOnUse" cx="29.095" cy="31.602" fx="29.095" fy="31.602" r="7.245"/><radialGradient id="c" gradientUnits="userSpaceOnUse" cy="8.45" cx="7.496" gradientTransform="matrix(0 3.3881 -4.6596 0 -7.967 -25.738)" r="20"><stop stop-color="#90dbec" offset="0"/><stop stop-color="#55c1ec" offset=".262"/><stop stop-color="#3689e6" offset=".705"/><stop stop-color="#2b63a0" offset="1"/></radialGradient><radialGradient xlink:href="#c" id="j" cx="24.07" cy="12.107" fx="24.07" fy="12.107" r="19.175" gradientTransform="matrix(.0225 1.56596 -2.7449 .03943 56.76 -22.74)" gradientUnits="userSpaceOnUse"/><radialGradient id="s" cx="6.703" cy="73.616" gradientTransform="matrix(3.18185 0 0 .69604 2.847 -8.513)" gradientUnits="userSpaceOnUse" r="7.228"><stop offset="0"/><stop offset="1" stop-opacity="0"/></radialGradient><linearGradient id="t" gradientTransform="matrix(.26726 0 0 1.15755 9.316 -10.704)" gradientUnits="userSpaceOnUse" x1="-32.957" x2="-25.474" y1="27.389" y2="27.389"><stop offset="0" stop-color="#2e3436"/><stop offset=".644" stop-color="#888a85"/><stop offset="1" stop-color="#555753"/></linearGradient><linearGradient id="u" gradientTransform="matrix(.77602 .23906 -.31605 .56748 -20.168 4.55)" gradientUnits="userSpaceOnUse" x1="27.528" x2="30.42" y1="4.167" y2="2.949"><stop offset="0" stop-color="#eeeeec"/><stop offset=".789" stop-color="#fff"/><stop offset="1" stop-color="#eeeeec"/></linearGradient></defs><radialGradient id="e" cx="62.625" cy="4.625" gradientTransform="matrix(1.12782 0 0 .28235 -58.63 19.694)" gradientUnits="userSpaceOnUse" r="10.625"><stop offset="0"/><stop offset="1" stop-opacity="0"/></radialGradient><linearGradient id="f" gradientTransform="matrix(1.25714 0 0 .7605 -6.17 7.082)" gradientUnits="userSpaceOnUse" x1="25.132" x2="25.132" y1=".985" y2="47.013"><stop offset="0" stop-color="#f4f4f4"/><stop offset="1" stop-color="#dbdbdb"/></linearGradient><linearGradient id="g" gradientTransform="matrix(1.16216 0 0 .91892 -3.892 4.446)" gradientUnits="userSpaceOnUse" x1="24" x2="24" y1="5.564" y2="43"><stop offset="0" stop-color="#fff"/><stop offset=".036" stop-color="#fff" stop-opacity=".235"/><stop offset=".951" stop-color="#fff" stop-opacity=".157"/><stop offset="1" stop-color="#fff" stop-opacity=".392"/></linearGradient><linearGradient id="h" gradientTransform="matrix(-.48996 .0007 .0018 -.3815 57.13 48.267)" gradientUnits="userSpaceOnUse" x1="45.414" x2="45.567" xlink:href="#d" y1="15.27" y2="96.253"/><linearGradient id="d"><stop offset="0" stop-color="#262626"/><stop offset="1" stop-color="#4d4d4d"/></linearGradient><linearGradient id="i" gradientTransform="matrix(1.0382 0 0 .73204 69.527 5.655)" gradientUnits="userSpaceOnUse" x1="-65.961" x2="-21.654" xlink:href="#d" y1="61.171" y2="-4.017"/><path d="M23.983 21c0 1.657-5.365 3-11.983 3S.017 22.657.017 21 5.382 18 12 18s11.983 1.343 11.983 3z" fill="url(#e)" fill-rule="evenodd" opacity=".3"/><path d="M2 9l44 .002V44H2V9z" fill="url(#f)" transform="translate(-.522 -1.826) scale(.52174)"/><path d="M45.5 43.5h-43v-34h43z" fill="none" stroke="url(#g)" stroke-linecap="round" stroke-linejoin="round" transform="translate(-.522 -1.826) scale(.52174)"/><path d="M43.5 41.5h-39v-30h39z" fill="url(#h)" stroke="#185f9a" stroke-linecap="round" transform="translate(-.522 -1.826) scale(.52174)"/><path d="M1.5 8.5l45 .002V44.5h-45v-36z" fill="none" opacity=".781" stroke="url(#i)" stroke-linejoin="round" transform="translate(-.522 -1.826) scale(.52174)"/><path d="M4.825 11.75h38.35v29.5H4.825z" fill="url(#j)" transform="translate(-.522 -1.826) scale(.52174)"/><g fill="#fc0" color="#000"><path d="M40 32a8 8 0 1 1-16 0 8 8 0 1 1 16 0z" transform="translate(4.83 5.548) scale(.22075)" overflow="visible" fill="url(#k)"/><path d="M11.904 10.336l-.452 1.834-1.837.45 1.837.433.454 1.86.43-1.86 1.862-.43-1.863-.453z" overflow="visible" opacity=".1"/><path d="M11.906 14.69l-.332-1.728-1.736-.34 1.73-.313.338-1.754.317 1.73 1.75.337-1.743.36z" overflow="visible" opacity=".2"/><path d="M33.278 38.847l-4.53-5.952-6.898 2.89 5.952-4.53-2.89-6.898 4.53 5.952 6.898-2.89-5.952 4.528z" transform="rotate(30 -1.374 20.03) scale(.22075)" overflow="visible" fill="url(#l)"/></g><g fill="#fc0" color="#000"><path d="M40 32a8 8 0 1 1-16 0 8 8 0 1 1 16 0z" transform="translate(13.176 4.372) scale(.1462)" overflow="visible" fill="url(#m)"/><path d="M17.86 7.544l-.297 1.215-1.217.298 1.217.286.3 1.232.284-1.232 1.234-.286-1.233-.3z" overflow="visible" opacity=".1"/><path d="M17.863 10.428l-.22-1.145-1.15-.224 1.146-.21.223-1.16.21 1.145 1.16.224-1.155.236z" overflow="visible" opacity=".2"/><path d="M33.278 38.847l-4.53-5.952-6.898 2.89 5.952-4.53-2.89-6.898 4.53 5.952 6.898-2.89-5.952 4.528z" transform="rotate(30 2.776 32.234) scale(.1462)" overflow="visible" fill="url(#n)"/></g><g fill="#fc0" color="#000"><path d="M40 32a8 8 0 1 1-16 0 8 8 0 1 1 16 0z" transform="matrix(.35946 0 0 .35946 -2.857 -2.482)" overflow="visible" fill="url(#o)"/><path d="M8.662 5.315L7.927 8.3l-2.992.736 2.992.703.738 3.028.7-3.03 3.033-.7L9.365 8.3z" overflow="visible" opacity=".1"/><path d="M8.665 12.406l-.54-2.816L5.3 9.04l2.815-.512.55-2.855.518 2.816 2.85.55-2.84.583z" overflow="visible" opacity=".2"/><path d="M33.278 38.847l-4.53-5.952-6.898 2.89 5.952-4.53-2.89-6.898 4.53 5.952 6.898-2.89-5.952 4.528z" transform="rotate(30 13.89 6.853) scale(.35946)" overflow="visible" fill="url(#p)"/></g><path d="M29.76 15.41a2.63 2.63 0 0 1-5.26 0 2.63 2.63 0 1 1 5.26 0z" color="#000" overflow="visible" fill="url(#q)" transform="translate(-.522 -1.826) scale(.52174)"/><path d="M13.64 4.447l-.35 1.424-1.427.352 1.427.335.352 1.446.334-1.446 1.447-.334-1.447-.352z" color="#000" overflow="visible" opacity=".1" fill="#fc0"/><path d="M13.642 7.83l-.257-1.344-1.35-.262 1.345-.245.262-1.363.247 1.344 1.36.264-1.355.278z" color="#000" overflow="visible" opacity=".2" fill="#fc0"/><path d="M27.15 18.178l-.313-2.44-2.44-.31 2.44-.31.312-2.44.31 2.44 2.44.31-2.44.31z" color="#000" overflow="visible" fill="url(#r)" transform="translate(-.522 -1.826) scale(.52174)"/><path d="M47.174 42.726c0 2.78-10.297 5.032-23 5.032-12.702 0-23-2.253-23-5.032 0-2.778 10.298-5.03 23-5.03 12.703 0 23 2.252 23 5.03z" opacity=".2" fill="url(#s)" transform="translate(-.522 -1.826) scale(.52174)"/><g transform="matrix(1.05835 -.61104 .51706 .89557 3.11 -5.864)"><path d="M.5 18v12.438c0 .58.297 1.062.667 1.062h.666c.37 0 .667-.48.667-1.063V18z" fill="url(#t)" fill-rule="evenodd"/><rect y="10.5" x=".5" width="2" ry=".929" rx=".749" height="21" opacity=".3" fill="none" stroke="#000" stroke-width=".814"/><path d="M1.167 10.5c-.37 0-.667.48-.667 1.063V18h2v-6.438c0-.58-.297-1.062-.667-1.062z" opacity=".9" fill="url(#u)" fill-rule="evenodd"/></g></svg>