<svg xmlns="http://www.w3.org/2000/svg" xmlns:xlink="http://www.w3.org/1999/xlink" height="24" width="24"><defs><linearGradient xlink:href="#a" id="r" x1="46.985" y1="10" x2="46.985" y2="23" gradientUnits="userSpaceOnUse"/><linearGradient id="a"><stop offset="0" stop-color="#c6262e"/><stop offset="1" stop-color="#b5232a"/></linearGradient><linearGradient xlink:href="#b" id="s" x1="46.985" y1="11.47" x2="46.985" y2="20" gradientUnits="userSpaceOnUse"/><linearGradient id="b" gradientTransform="matrix(0 -.59172 -.63517 0 9.814 30.722)" gradientUnits="userSpaceOnUse" x1="38.941" x2="20.576" y1="15.991" y2="15.991"><stop offset="0" stop-color="#fff"/><stop offset=".125" stop-color="#fff" stop-opacity=".235"/><stop offset=".939" stop-color="#fff" stop-opacity=".157"/><stop offset="1" stop-color="#fff" stop-opacity=".392"/></linearGradient><linearGradient xlink:href="#c" id="q" gradientUnits="userSpaceOnUse" x1="19" y1="2" x2="21" y2="4" gradientTransform="translate(0 5)"/></defs><linearGradient id="c"><stop offset="0" stop-color="#737373"/><stop offset=".262" stop-color="#636363"/><stop offset=".705" stop-color="#4b4b4b"/><stop offset="1" stop-color="#3f3f3f"/></linearGradient><linearGradient id="f" gradientUnits="userSpaceOnUse" x1="4" x2="6" xlink:href="#c" y1="2" y2="4"/><linearGradient id="g" gradientUnits="userSpaceOnUse" x1="14" x2="16" xlink:href="#c" y1="2" y2="4"/><linearGradient id="h" gradientUnits="userSpaceOnUse" x1="19" x2="21" xlink:href="#c" y1="2" y2="4"/><linearGradient id="i" gradientUnits="userSpaceOnUse" x1="9" x2="11" xlink:href="#c" y1="2" y2="4"/><linearGradient id="l" gradientUnits="userSpaceOnUse" x1="9" x2="11" xlink:href="#c" y1="7" y2="9"/><linearGradient id="k" gradientUnits="userSpaceOnUse" x1="14" x2="16" xlink:href="#c" y1="7" y2="9"/><linearGradient id="j" gradientUnits="userSpaceOnUse" x1="4" x2="6" xlink:href="#c" y1="7" y2="9"/><linearGradient id="p" gradientUnits="userSpaceOnUse" x1="9" x2="11" xlink:href="#c" y1="17" y2="19"/><linearGradient id="o" gradientUnits="userSpaceOnUse" x1="4" x2="6" xlink:href="#c" y1="17" y2="19"/><linearGradient id="n" gradientUnits="userSpaceOnUse" x1="9" x2="11" xlink:href="#c" y1="12" y2="14"/><linearGradient id="m" gradientUnits="userSpaceOnUse" x1="4" x2="6" xlink:href="#c" y1="12" y2="14"/><linearGradient id="d"><stop offset="0" stop-color="#d88f22"/><stop offset="1" stop-color="#d88f22" stop-opacity="0"/></linearGradient><linearGradient id="e"><stop offset="0" stop-color="#fff"/><stop offset="1" stop-color="#fff" stop-opacity="0"/></linearGradient><g transform="translate(0 2)"><rect fill="url(#f)" height="2" ry=".5" width="2" x="4" y="2"/><rect fill="url(#g)" height="2" ry=".5" width="2" x="14" y="2"/><rect fill="url(#h)" height="2" ry=".5" width="2" x="19" y="2"/><rect fill="url(#i)" height="2" ry=".5" width="2" x="9" y="2"/><rect fill="url(#j)" height="2" ry=".5" width="2" x="4" y="7"/><rect fill="url(#k)" height="2" ry=".5" width="2" x="14" y="7"/><rect fill="url(#l)" height="2" ry=".5" width="2" x="9" y="7"/><rect fill="url(#m)" height="2" ry=".5" width="2" x="4" y="12"/><rect fill="url(#n)" height="2" ry=".5" width="2" x="9" y="12"/><rect fill="url(#o)" height="2" ry=".5" width="2" x="4" y="17"/><rect fill="url(#p)" height="2" ry=".5" width="2" x="9" y="17"/><rect y="7" x="19" width="2" ry=".5" height="2" fill="url(#q)"/></g><g font-weight="bold" font-family="Aharoni" letter-spacing="0" word-spacing="0"><path d="M46.39 10.484c.606-.002 1.125.05 1.554.148 2.437.56 3.51 2.657 3.54 4.92-.18 2.407-.828 3.926-2.86 4.76-.443.11-1.494.177-2.244.18l-4.892.015V16.47l4.537-.016c2-.052 1.988-1.91.01-1.968l-4.537.016V10.5z" style="line-height:1.25;-inkscape-font-specification:'Aharoni Bold'" fill="url(#r)" stroke="#2a0303" stroke-opacity=".49" transform="translate(-27.985)"/><path d="M13.513 10.5v4.002l2.502-.008V10.5zm2.502 5.963l-2.502.008V20h2.502z" style="line-height:1.25;-inkscape-font-specification:'Aharoni Bold'" fill="#eee" fill-opacity=".761"/><path d="M18.404 10.484l-4.89.016v1l4.89-.016c.607-.002 1.127.05 1.556.15 2.22.51 3.298 2.298 3.496 4.325.014-.137.033-.267.043-.407-.03-2.265-1.103-4.36-3.54-4.92-.43-.1-.95-.15-1.556-.15zm.906 5.49c-.232.26-.64.465-1.27.48l-4.537.017.002 1 4.535-.015c1.37-.036 1.772-.91 1.27-1.482z" style="line-height:1.25;-inkscape-font-specification:'Aharoni Bold'" opacity=".1" fill="#206b00" stroke="#fff"/><path style="line-height:1.25;-inkscape-font-specification:'Aharoni Bold'" d="M46.393 11.47l-3.91.012v2.032l3.546-.012h.03c.65.018 1.22.183 1.672.516.452.332.775.872.776 1.453 0 .58-.32 1.125-.776 1.458-.454.333-1.028.494-1.68.51-.008.002-.016.002-.023 0l-3.555.013.02 2.06 3.905-.012c.663-.002 1.66-.094 1.92-.143.788-.337 1.23-.566 1.56-1.197.334-.636.523-1.525.61-2.63-.02-.963-.252-1.86-.695-2.534-.45-.684-1.083-1.175-2.07-1.402-.334-.077-.783-.125-1.332-.123z" opacity=".53" fill="none" stroke="url(#s)" stroke-opacity=".915" transform="translate(-27.985)"/></g></svg>