<?xml version="1.0" encoding="UTF-8" standalone="no"?>
<svg
   xmlns:dc="http://purl.org/dc/elements/1.1/"
   xmlns:cc="http://creativecommons.org/ns#"
   xmlns:rdf="http://www.w3.org/1999/02/22-rdf-syntax-ns#"
   xmlns:svg="http://www.w3.org/2000/svg"
   xmlns="http://www.w3.org/2000/svg"
   xmlns:xlink="http://www.w3.org/1999/xlink"
   xmlns:sodipodi="http://sodipodi.sourceforge.net/DTD/sodipodi-0.dtd"
   xmlns:inkscape="http://www.inkscape.org/namespaces/inkscape"
   height="24"
   width="24"
   version="1.1"
   id="svg24"
   sodipodi:docname="lc_insertfixedtext.svg"
   inkscape:version="0.92.4 (unknown)"
   inkscape:export-filename="/home/rizmut/Dokumen/Rizmut/Github/libreoffice-style-elementary/images_elementary/cmd/lc_insertfixedtext.png"
   inkscape:export-xdpi="96"
   inkscape:export-ydpi="96">
  <metadata
     id="metadata30">
    <rdf:RDF>
      <cc:Work
         rdf:about="">
        <dc:format>image/svg+xml</dc:format>
        <dc:type
           rdf:resource="http://purl.org/dc/dcmitype/StillImage" />
      </cc:Work>
    </rdf:RDF>
  </metadata>
  <defs
     id="defs28">
    <radialGradient
       inkscape:collect="always"
       xlink:href="#a"
       id="radialGradient844"
       cx="-4.2915959"
       cy="6.1103344"
       fx="-4.2915959"
       fy="6.1103344"
       r="4.8435001"
       gradientTransform="matrix(-1.6197484,0.03056856,-0.06625079,-3.2770698,-10.838086,24.4808)"
       gradientUnits="userSpaceOnUse" />
    <radialGradient
       inkscape:collect="always"
       xlink:href="#a"
       id="radialGradient846"
       cx="-15.2505"
       cy="4.9708796"
       fx="-15.2505"
       fy="4.9708796"
       r="6.1624794"
       gradientTransform="matrix(-1.7558708,-0.02758781,0.04424552,-2.6288546,-42.248345,17.37421)"
       gradientUnits="userSpaceOnUse" />
  </defs>
  <sodipodi:namedview
     pagecolor="#ffffff"
     bordercolor="#666666"
     borderopacity="1"
     objecttolerance="10"
     gridtolerance="10"
     guidetolerance="10"
     inkscape:pageopacity="0"
     inkscape:pageshadow="2"
     inkscape:window-width="1366"
     inkscape:window-height="714"
     id="namedview26"
     showgrid="false"
     inkscape:zoom="6.9532167"
     inkscape:cx="19.068468"
     inkscape:cy="5.2133984"
     inkscape:window-x="0"
     inkscape:window-y="28"
     inkscape:window-maximized="1"
     inkscape:current-layer="svg24" />
  <linearGradient
     id="a">
    <stop
       offset="0"
       stop-color="#737373"
       id="stop2" />
    <stop
       offset=".262"
       stop-color="#636363"
       id="stop4" />
    <stop
       offset=".705"
       stop-color="#4b4b4b"
       id="stop6" />
    <stop
       offset="1"
       stop-color="#3f3f3f"
       id="stop8" />
  </linearGradient>
  <linearGradient
     id="b"
     gradientUnits="userSpaceOnUse"
     x1="2.035"
     x2="-22.382"
     xlink:href="#a"
     y1="11.795"
     y2="11.795" />
  <linearGradient
     id="c"
     gradientUnits="userSpaceOnUse"
     x1="2.035"
     x2="-22.382"
     xlink:href="#a"
     y1="10.812"
     y2="10.812" />
  <linearGradient
     id="d"
     gradientUnits="userSpaceOnUse"
     x1="-15.081"
     x2="-19.514"
     y1="11.726"
     y2="6.405">
    <stop
       offset="0"
       stop-color="#1f1f1f"
       id="stop13" />
    <stop
       offset="1"
       stop-color="#5c5c5c"
       id="stop15" />
  </linearGradient>
  <g
     fill="url(#d)"
     stroke="#000"
     stroke-linecap="round"
     stroke-linejoin="round"
     stroke-opacity=".49"
     transform="matrix(.98295 0 0 1.01735 21.493 -.5)"
     id="g22">
    <path
       d="m-12.265 17.678-.85-2.79h-4.272l-.85 2.79h-2.676l4.135-11.765h3.038l4.152 11.765zm-1.443-4.873q-1.178-3.79-1.33-4.288-.145-.497-.21-.785-.263 1.026-1.514 5.073z"
       fill="url(#c)"
       id="path18"
       style="fill-opacity:1;fill:url(#radialGradient846)" />
    <path
       d="m-8.122 5.96h3.647q2.493 0 3.615.714 1.13.706 1.13 2.252 0 1.05-.497 1.723-.49.672-1.307.81v.08q1.114.246 1.603.93.495.68.495 1.81 0 1.602-1.162 2.5-1.154.897-3.142.897h-4.383v-11.716zm2.485 4.64h1.443q1.01 0 1.458-.31.457-.314.457-1.035 0-.674-.495-.962-.49-.297-1.555-.297h-1.307zm0 1.973v3.053h1.62q1.025 0 1.514-.392.49-.393.49-1.203 0-1.456-2.085-1.456z"
       fill="url(#b)"
       id="path20"
       style="fill-opacity:1;fill:url(#radialGradient844)" />
  </g>
  <path
     style="fill:#ffffff;fill-opacity:1;stroke:none;stroke-width:1.00000215;stroke-linecap:round;stroke-linejoin:round;stroke-opacity:0.49000005;opacity:0.2"
     d="M 5.0019531 5.515625 L 0.9375 17.484375 L 1.4472656 17.484375 L 5.0019531 7.015625 L 7.9863281 7.015625 L 11.556641 17.484375 L 12.068359 17.484375 L 7.9863281 5.515625 L 5.0019531 5.515625 z M 13.507812 5.5625 L 13.507812 7.0625 L 13.509766 7.0625 L 17.09375 7.0625 C 18.727413 7.0625 19.91319 7.3048059 20.648438 7.7890625 C 21.196364 8.1433763 21.539541 8.6560309 21.681641 9.3222656 C 21.727521 9.0907255 21.757813 8.8474945 21.757812 8.5800781 C 21.757812 7.5315294 21.388926 6.7678952 20.648438 6.2890625 C 19.913191 5.8048039 18.727413 5.5625 17.09375 5.5625 L 13.509766 5.5625 L 13.507812 5.5625 z M 19.044922 9.7050781 C 18.978533 9.8060648 18.902075 9.8981054 18.802734 9.96875 C 18.50916 10.179002 18.032946 10.283203 17.371094 10.283203 L 15.953125 10.283203 L 15.951172 11.783203 L 17.371094 11.783203 C 18.032946 11.783203 18.50916 11.679002 18.802734 11.46875 C 19.102206 11.255785 19.251953 10.905022 19.251953 10.416016 C 19.251953 10.123107 19.178031 9.8904488 19.044922 9.7050781 z M 21.257812 11.847656 C 20.937922 12.294378 20.513799 12.565644 19.984375 12.658203 L 19.984375 12.738281 C 20.714379 12.905127 21.240105 13.221636 21.560547 13.685547 C 21.769101 13.982072 21.902166 14.348678 21.976562 14.771484 C 22.021104 14.536745 22.046875 14.290028 22.046875 14.027344 C 22.046875 13.26094 21.88492 12.646746 21.560547 12.185547 C 21.475147 12.061912 21.372354 11.95031 21.257812 11.847656 z M 5.4492188 12.527344 C 5.2656823 13.151988 5.2557542 13.229876 5.0175781 14.027344 L 8.0195312 14.027344 C 7.7541856 13.143766 7.7564148 13.147248 7.5703125 12.527344 L 5.4492188 12.527344 z M 19.351562 14.572266 C 19.273182 14.738093 19.170754 14.883864 19.033203 14.998047 C 18.712762 15.263914 18.216605 15.396484 17.544922 15.396484 L 15.951172 15.396484 L 15.951172 16.896484 L 17.544922 16.896484 C 18.216605 16.896484 18.712762 16.763914 19.033203 16.498047 C 19.3543 16.231501 19.513672 15.824759 19.513672 15.275391 C 19.513672 15.002117 19.456125 14.770045 19.351562 14.572266 z "
     id="path848" />
</svg>
