<svg xmlns="http://www.w3.org/2000/svg" xmlns:xlink="http://www.w3.org/1999/xlink" width="24" height="24"><defs><linearGradient id="h"><stop offset="0" stop-color="#002e99"/><stop offset="1" stop-color="#206b00"/></linearGradient><linearGradient id="g"><stop offset="0" stop-color="#fff"/><stop offset=".42" stop-color="#fff" stop-opacity=".235"/><stop offset="1" stop-color="#fff" stop-opacity=".157"/><stop offset="1" stop-color="#fff" stop-opacity=".392"/></linearGradient><linearGradient id="f"><stop offset="0" stop-color="#fff"/><stop offset="0" stop-color="#fff" stop-opacity=".235"/><stop offset="1" stop-color="#fff" stop-opacity=".157"/><stop offset="1" stop-color="#fff" stop-opacity=".392"/></linearGradient><linearGradient id="e"><stop offset="0" stop-color="#8cd5ff"/><stop offset="1" stop-color="#9bdb4d"/></linearGradient><linearGradient x1="24" y1="6.591" x2="24" y2="41.414" id="m" xlink:href="#a" gradientUnits="userSpaceOnUse" gradientTransform="matrix(.45946 0 0 .45946 .974 .972)"/><linearGradient id="a"><stop offset="0" stop-color="#fff"/><stop offset="0" stop-color="#fff" stop-opacity=".235"/><stop offset="1" stop-color="#fff" stop-opacity=".157"/><stop offset="1" stop-color="#fff" stop-opacity=".392"/></linearGradient><radialGradient cx="4.993" cy="43.5" r="2.5" fx="4.993" fy="43.5" id="i" xlink:href="#b" gradientUnits="userSpaceOnUse" gradientTransform="matrix(2.00378 0 0 1.4 27.988 -17.4)"/><linearGradient id="b"><stop offset="0" stop-color="#181818"/><stop offset="1" stop-color="#181818" stop-opacity="0"/></linearGradient><radialGradient cx="4.993" cy="43.5" r="2.5" fx="4.993" fy="43.5" id="j" xlink:href="#c" gradientUnits="userSpaceOnUse" gradientTransform="matrix(2.00378 0 0 1.4 -20.012 -104.4)"/><linearGradient id="c"><stop offset="0" stop-color="#181818"/><stop offset="1" stop-color="#181818" stop-opacity="0"/></linearGradient><linearGradient x1="25.058" y1="47.028" x2="25.058" y2="39.999" id="k" xlink:href="#d" gradientUnits="userSpaceOnUse"/><linearGradient id="d"><stop offset="0" stop-color="#181818" stop-opacity="0"/><stop offset=".5" stop-color="#181818"/><stop offset="1" stop-color="#181818" stop-opacity="0"/></linearGradient><linearGradient xlink:href="#e" id="l" x1="7.284" y1="6.993" x2="17.171" y2="16.88" gradientUnits="userSpaceOnUse"/><linearGradient xlink:href="#f" id="o" gradientUnits="userSpaceOnUse" gradientTransform="matrix(.6 0 0 .60315 21.828 -232.158)" x1="-8.688" y1="411.436" x2="-8.688" y2="414.752"/><linearGradient xlink:href="#g" id="p" gradientUnits="userSpaceOnUse" gradientTransform="matrix(.3618 0 0 .36374 13.485 -143.257)" x1="-8.688" y1="410.109" x2="-8.688" y2="418.67"/><linearGradient xlink:href="#h" id="n" x1="2.382" y1="2.544" x2="21.571" y2="21.733" gradientUnits="userSpaceOnUse"/></defs><g opacity=".4"><path fill="url(#i)" d="M38 40h5v7h-5z" transform="matrix(.57895 0 0 .42857 -1.895 2.857)"/><path transform="matrix(-.57895 0 0 -.42857 -1.895 2.857)" fill="url(#j)" d="M-10-47h5v7h-5z"/><path fill="url(#k)" d="M10 40h28v7H10z" transform="matrix(.57895 0 0 .42857 -1.895 2.857)"/></g><rect y="2.5" x="2.5" ry="1" rx="1" height="19" width="19" color="#000" overflow="visible" fill="url(#l)"/><path opacity=".5" fill="none" stroke="url(#m)" stroke-linecap="round" stroke-linejoin="round" d="M3.5 3.5h17v17h-17z"/><rect y="2.5" x="2.5" ry="1" rx="1" height="19" width="19" color="#000" overflow="visible" opacity=".5" fill="none" stroke="url(#n)" stroke-linecap="round" stroke-linejoin="round"/><path d="M17.34 16.788L8 7.45l-.522.522 9.342 9.338z" fill="#555761" stroke="#555761" stroke-width=".5"/><path d="M14.528 14.5h5v5h-5z" fill="#fafafa" stroke="#555761" stroke-linecap="round" stroke-linejoin="round" stroke-opacity=".75"/><path d="M15.528 15.5h3v3h-3z" fill="none" stroke="url(#o)" stroke-linecap="round"/><path d="M7.02 4.5c1.424.002 2.49 1.017 2.48 2.476C9.49 8.553 8.532 9.5 7.053 9.5 5.47 9.5 4.506 8.477 4.5 6.994c-.006-1.507.96-2.496 2.52-2.494z" fill="#fafafa" stroke="#555761" stroke-linecap="round" stroke-linejoin="round" stroke-opacity=".75"/><path d="M6.984 5.493c.86.014 1.5.614 1.496 1.494-.006.95-.584 1.52-1.476 1.52-1.023.002-1.536-.513-1.54-1.51-.002-.98.58-1.52 1.52-1.504z" overflow="visible" fill="none" stroke="url(#p)" stroke-linecap="round"/></svg>