<svg xmlns="http://www.w3.org/2000/svg" xmlns:xlink="http://www.w3.org/1999/xlink" viewBox="0 0 24 24"><defs><radialGradient xlink:href="#a" id="b" gradientUnits="userSpaceOnUse" gradientTransform="matrix(.2546 0 0 .0621 4.17 18.942)" cx="2.25" cy="16" r="16.875"/><radialGradient xlink:href="#a" id="d" gradientUnits="userSpaceOnUse" gradientTransform="matrix(.2546 0 0 .0621 4.17 18.942)" cx="2.25" cy="16" r="16.875"/></defs><linearGradient id="c" gradientUnits="userSpaceOnUse" x1="6.003" x2="16.178" y1="5.339" y2="18.915" gradientTransform="translate(-.496 -.502)"><stop offset="0" stop-color="#eeeeec"/><stop offset="1" stop-color="#e0e0de"/></linearGradient><radialGradient id="a" cx="2.25" cy="16" gradientTransform="matrix(.2546 0 0 .0621 4.664 19.444)" gradientUnits="userSpaceOnUse" r="16.875"><stop offset="0"/><stop offset="1" stop-opacity="0"/></radialGradient><ellipse cx="4.742" cy="19.935" display="block" rx="4.297" ry="1.048" opacity=".347" fill="url(#b)" fill-rule="evenodd"/><path d="M9.504 3.498v12h10v-12zm-3.812 5c-.706 3.607-1.436 7.21-2.157 10.812l-.03.188h2c.653-2.92 1.11-5.887 1.754-8.81.04-.187 2.274.574 2.52.384.714-.55-.06-2.056.083-2.596z" fill="url(#c)"/><path d="M10.504 4.498h8v10h-8z" fill="none" stroke="#fdfdfb"/><ellipse cx="4.742" cy="19.935" display="block" rx="4.297" ry="1.048" opacity=".347" fill="url(#d)" fill-rule="evenodd"/><path d="M9.004 2.998v5.004h-.572l.002-.004H5.28l-.078.404c-.706 3.605-1.436 7.206-2.157 10.81l-.002.01-.13.776h2.992l.088-.39c.605-2.707 1.047-5.433 1.613-8.11h1.398v4.5h11v-13zm1 1h9v11h-9v-4.5H7.836l.002-.006h-1.01c-.638 2.842-1.12 5.7-1.732 8.506h-.988c.667-3.332 1.34-6.663 1.994-10 1.306-.004 2.602.012 3.902.012z" fill="#a2a39f"/><path d="M10.004 3.998v11h9v-11zm1 1h7v9h-7z" fill="#fdfdfb"/><path d="M6.114 9.014h3.92v.906l-4.108-.016z" fill="#fdfdfb"/></svg>