<svg xmlns="http://www.w3.org/2000/svg" xmlns:xlink="http://www.w3.org/1999/xlink" height="24" width="24"><defs><linearGradient xlink:href="#a" id="m" gradientUnits="userSpaceOnUse" gradientTransform="translate(-1.374)" x1="30.162" y1="15.757" x2="30.197" y2="22.632"/><linearGradient xlink:href="#a" id="n" gradientUnits="userSpaceOnUse" gradientTransform="translate(-1.374)" x1="30.162" y1="15.757" x2="30.162" y2="22.632"/><clipPath id="g"><path fill="#7a36b1" stroke-miterlimit="7" stroke-opacity=".875" d="M7-15h16v9H7z"/></clipPath><clipPath id="d"><path fill="#7a36b1" stroke-miterlimit="7" stroke-opacity=".875" d="M7-2h16v9H7z"/></clipPath><mask id="o"><path d="M303.54 125.905h23.376v22.5H303.54z" fill="url(#b)"/></mask><linearGradient id="b" gradientUnits="userSpaceOnUse" x1="316.472" x2="317.624" y1="138.897" y2="141.195"><stop offset="0" stop-color="#fff"/><stop offset="1"/></linearGradient><linearGradient id="p" gradientTransform="matrix(.78115 -.0348 -.0348 .78115 70.23 94.32)" gradientUnits="userSpaceOnUse" x1="309.297" x2="335.3" y1="67.298" y2="81.926"><stop offset="0" stop-color="#d3d7cf"/><stop offset=".183" stop-color="#babdb6"/><stop offset=".319" stop-color="#fff"/><stop offset=".876" stop-color="#babdb6"/><stop offset="1" stop-color="#eeeeec"/></linearGradient><linearGradient id="q" gradientTransform="matrix(.78115 -.0348 -.0348 .78115 70.23 94.32)" gradientUnits="userSpaceOnUse" x1="324.497" x2="330.061" y1="70.282" y2="99.274"><stop offset="0" stop-color="#888a85"/><stop offset="1" stop-color="#555753"/></linearGradient><linearGradient id="r" gradientTransform="matrix(.802 0 0 .796 69.747 998.182)" gradientUnits="userSpaceOnUse" x1="302.292" x2="308.649" y1="58.443" y2="60.768"><stop offset="0" stop-color="#babdb6"/><stop offset="1" stop-color="#fff"/></linearGradient></defs><linearGradient id="e" gradientTransform="matrix(.42857 0 0 .4563 4.714 -15.65)" gradientUnits="userSpaceOnUse" x1="24" x2="24" xlink:href="#c" y1="5.81" y2="67.174"/><linearGradient id="c"><stop offset="0" stop-color="#f4f4f4"/><stop offset="1" stop-color="#dbdbdb"/></linearGradient><linearGradient id="f" gradientTransform="matrix(.35135 0 0 .5135 6.567 -16.324)" gradientUnits="userSpaceOnUse" x1="24" x2="24" y1="5.564" y2="43"><stop offset="0" stop-color="#fff"/><stop offset=".036" stop-color="#fff" stop-opacity=".235"/><stop offset=".951" stop-color="#fff" stop-opacity=".157"/><stop offset="1" stop-color="#fff" stop-opacity=".392"/></linearGradient><linearGradient id="h" gradientTransform="matrix(.42857 0 0 .4563 4.714 -15.65)" gradientUnits="userSpaceOnUse" x1="25.132" x2="25.132" xlink:href="#c" y1=".985" y2="47.013"/><radialGradient id="i" cx="65.297" cy="48.216" gradientTransform="matrix(0 .52545 -.57163 0 46.193 -21.124)" gradientUnits="userSpaceOnUse" r="31" xlink:href="#a"/><linearGradient id="a"><stop offset="0" stop-color="#cdf87e"/><stop offset=".262" stop-color="#a2e34f"/><stop offset=".661" stop-color="#68b723"/><stop offset="1" stop-color="#1d7e0d"/></linearGradient><linearGradient id="j" gradientTransform="matrix(.2818 0 0 .2801 12.197 12.015)" gradientUnits="userSpaceOnUse" x1="24.139" x2="24.139" y1="10.631" y2="35.623"><stop offset="0" stop-color="#fff"/><stop offset="0" stop-color="#fff" stop-opacity=".235"/><stop offset="1" stop-color="#fff" stop-opacity=".157"/><stop offset="1" stop-color="#fff" stop-opacity=".392"/></linearGradient><linearGradient id="k" gradientTransform="matrix(.2818 0 0 .2801 12.18 12.022)" gradientUnits="userSpaceOnUse" x1="24.139" x2="24.139" y1="21.342" y2="24.912"><stop offset="0" stop-color="#fff"/><stop offset="0" stop-color="#fff" stop-opacity=".235"/><stop offset="1" stop-color="#fff" stop-opacity=".157"/><stop offset="1" stop-color="#fff" stop-opacity=".392"/></linearGradient><linearGradient id="l" gradientUnits="userSpaceOnUse" x1="30.162" x2="30.232" xlink:href="#a" y1="15.757" y2="22.632" gradientTransform="translate(-1.374)"/><g transform="translate(1 2)" clip-path="url(#d)"><path d="M7.5-14.5h15v21h-15v-21z" fill="url(#e)"/><path d="M21.5 5.5h-13v-19h13z" fill="none" stroke="url(#f)" stroke-linecap="round"/><path d="M7.5-14.5h15v21h-15v-21z" fill="none" opacity=".3" stroke="#000" stroke-linejoin="round"/></g><g transform="translate(1 30)" clip-path="url(#g)"><path d="M7.5-14.5h15v21h-15v-21z" fill="url(#h)"/><path d="M21.5 5.5h-13v-19h13z" fill="none" stroke="url(#f)" stroke-linecap="round"/><path d="M7.5-14.5h15v21h-15v-21z" fill="none" opacity=".3" stroke="#000" stroke-linejoin="round"/></g><path d="M16.482 16.507v-3h4v3h3v4h-3v3h-4v-3h-2.99v-4h2.99z" fill="url(#i)" transform="matrix(.72803 0 0 .72724 -9.46 -1.46)"/><g fill="none"><path d="M17.5 18.004V14.5h2V18m0 1v3.5h-2V19" opacity=".5" stroke="url(#j)" transform="matrix(.72803 0 0 .72724 -9.46 -1.46)"/><path d="M16.482 16.507v-3h4v3h3v4h-3v3h-4v-3h-2.99v-4h2.99z" opacity=".5" stroke="#0f5a00" stroke-linecap="round" stroke-linejoin="round" transform="matrix(.72803 0 0 .72724 -9.46 -1.46)"/><path d="M20 17.507l2.482-.007v2L20 19.507m-3 0l-2.5-.007v-2l2.5.007" opacity=".5" stroke="url(#k)" transform="matrix(.72803 0 0 .72724 -9.46 -1.46)"/></g><g transform="matrix(.72803 0 0 .72724 -9.46 -1.46)"><rect y="16.45" x="26.042" width="5.494" ry=".688" rx=".687" height="4.131" fill="url(#l)"/><rect y="16.45" x="26.042" width="5.494" ry=".688" rx=".687" height="4.131" opacity=".5" fill="none" stroke="#0f5a00" stroke-width="1.374"/><rect y="17.132" x="26.042" width="5.494" ry="0" rx="0" height="1.375" opacity=".3" fill="#fff"/></g><g transform="matrix(.72803 0 0 .72724 -3.46 -1.46)"><rect height="4.131" rx=".687" ry=".688" width="5.494" x="26.042" y="16.45" fill="url(#m)"/><rect height="4.131" rx=".687" ry=".688" width="5.494" x="26.042" y="16.45" opacity=".5" fill="none" stroke="#0f5a00" stroke-width="1.374"/><rect height="1.375" rx="0" ry="0" width="5.494" x="26.042" y="17.132" opacity=".3" fill="#fff"/></g><g transform="matrix(.72803 0 0 .72724 2.54 -1.46)"><rect y="16.45" x="26.042" width="2.805" ry=".688" rx=".687" height="4.026" fill="url(#n)"/><rect y="16.45" x="26.042" width="2.746" ry=".688" rx=".687" height="4.112" opacity=".5" fill="none" stroke="#0f5a00" stroke-width="1.374"/><rect y="17.132" x="26.042" width="2.807" ry="0" rx="0" height="1.363" opacity=".3" fill="#fff"/></g><g><path d="M15 11.58c-.052.016-.087.05-.125.095-.077.09-.115.216-.063.312l1.407 2.656c.125.24.046.574-.19.907-.236.335-.607.688-1.093.968-.485.28-.977.438-1.375.47-.394.03-.717-.073-.843-.313l-1.408-2.688c-.04-.075-.1-.12-.187-.125-.087-.006-.19.027-.25.094-.033.035-.05.08-.063.125-.35 1.29-.265 2.74.25 3.72.704 1.337 2.272 1.94 3.844 1.593.628.187-.46-1.026.497-.074l4.888.28-.54-1.082c-.863-.86-1.284-1.62-1.5-2.218.248-.85.19-1.757-.22-2.532-.514-.978-1.648-1.81-2.874-2.187-.052-.016-.104-.015-.156 0z" opacity=".4" fill="none" stroke="#000" stroke-width="2" stroke-linecap="round" stroke-linejoin="round" stroke-dashoffset=".361" transform="matrix(.8616 0 0 .8616 3.286 3.11)"/><g mask="url(#o)" transform="matrix(.74844 0 0 .75 -215.48 -82.107)"><path d="M319.393 139.23l-4.342-4.36c-.993-.988-1.5-1.85-1.747-2.536.285-.977.233-2.005-.237-2.895-.593-1.126-1.9-2.085-3.31-2.518-.122-.04-.26 0-.347.103-.09.103-.11.245-.05.355l1.615 3.07c.145.274.047.64-.224 1.022-.272.386-.715.78-1.274 1.1-.56.323-1.113.51-1.57.547-.454.034-.805-.076-.95-.352l-1.625-3.085c-.044-.086-.128-.14-.227-.146-.1-.007-.203.033-.273.11-.038.04-.066.088-.08.14-.405 1.48-.32 3.156.273 4.28.81 1.537 2.61 2.207 4.42 1.81.723.213 1.673.713 2.775 1.808l3.296 3.21" fill="url(#p)" fill-rule="evenodd" stroke="url(#q)" stroke-width="1.15" stroke-linecap="round" stroke-linejoin="round" stroke-dashoffset=".361"/><path d="M314.506 1039.624c.015.01.006.025 0 .025l1.804 3.208c.244.433.068.943-.225 1.368-.296.43-.756.846-1.353 1.17-.6.324-1.228.48-1.755.497-.525.018-1.02-.13-1.253-.547l-1.804-3.234h-.026c.017-.018.003.013 0 .025-.332 1.423-.16 3.07.452 4.154.836 1.486 2.582 2.196 4.31 1.892 1.72-.306 3.192-1.794 3.56-3.21.23-.916.132-1.9-.352-2.76-.61-1.083-1.95-2.103-3.358-2.587z" transform="translate(-5.084 -912.595)" fill="url(#r)" fill-rule="evenodd"/><path d="M310.22 127.75l1.25 2.438c.288.547.084 1.12-.25 1.593-.34.48-.855.93-1.47 1.282-.607.35-1.224.58-1.813.625-.28.022-.55-.002-.812-.093-.263-.092-.514-.292-.656-.563l-1.25-2.374c-.174 1.164-.1 2.375.31 3.157.685 1.295 2.178 1.884 3.783 1.53.09-.023.19-.023.28 0 .824.245 1.876.79 3.032 1.938l4.03 3.848 2.66-1.374-4.66-4.473c-1.04-1.032-1.593-1.973-1.874-2.75-.035-.11-.035-.232 0-.343.25-.852.178-1.75-.217-2.5-.41-.778-1.324-1.473-2.344-1.937z" fill="none" stroke="#fff" stroke-width=".575" stroke-linecap="round" stroke-linejoin="round" stroke-dashoffset=".361"/><path d="M318.615 140.717l-.125.125c-.35.35-1.19.07-1.886-.627l-4.176-3.67c-.696-.697-.975-1.537-.627-1.886l.126-.126c.348-.348 1.19-.068 1.885.628l4.177 3.67c.696.696.976 1.537.628 1.885z" opacity=".08" fill-rule="evenodd"/></g></g></svg>