<svg viewBox="0 0 24 24" xmlns="http://www.w3.org/2000/svg" xmlns:xlink="http://www.w3.org/1999/xlink"><radialGradient id="a" cx="2.25" cy="16" gradientTransform="matrix(.2546 0 0 .0621 4.164 19.944)" gradientUnits="userSpaceOnUse" r="16.875"><stop offset="0"/><stop offset="1" stop-opacity="0"/></radialGradient><radialGradient id="b" cx="65.297" cy="48.216" gradientTransform="matrix(0 .52545 -.57163 0 46.193 -21.124)" gradientUnits="userSpaceOnUse" r="31"><stop offset="0" stop-color="#cdf87e"/><stop offset=".262" stop-color="#a2e34f"/><stop offset=".661" stop-color="#68b723"/><stop offset="1" stop-color="#1d7e0d"/></radialGradient><linearGradient id="c" gradientTransform="matrix(.2818 0 0 .28 12.197 12.015)" gradientUnits="userSpaceOnUse" x1="24.139" x2="24.139" xlink:href="#d" y1="10.631" y2="35.623"/><linearGradient id="d"><stop offset="0" stop-color="#fff"/><stop offset="0" stop-color="#fff" stop-opacity=".235"/><stop offset="1" stop-color="#fff" stop-opacity=".157"/><stop offset="1" stop-color="#fff" stop-opacity=".392"/></linearGradient><linearGradient id="e" gradientTransform="matrix(.2818 0 0 .28 12.18 12.022)" gradientUnits="userSpaceOnUse" x1="24.139" x2="24.139" xlink:href="#d" y1="21.342" y2="24.912"/><linearGradient id="f" gradientUnits="userSpaceOnUse" x1="5.503" x2="15.678" y1="5.839" y2="19.415"><stop offset="0" stop-color="#eeeeec"/><stop offset="1" stop-color="#e0e0de"/></linearGradient><ellipse cx="4.737" cy="20.937" display="block" fill="url(#a)" fill-rule="evenodd" opacity=".347" rx="4.297" ry="1.048"/><path d="m9.5 4.5v12h10v-12zm-3.813 5c-.705 3.607-1.435 7.21-2.156 10.813l-.03.187h2c.654-2.92 1.11-5.887 1.755-8.81.04-.187 2.275.574 2.52.384.714-.55-.06-2.056.083-2.596z" fill="url(#f)"/><path d="m10.5 5.5h8v10h-8z" fill="none" stroke="#fdfdfb"/><ellipse cx="4.737" cy="20.937" display="block" fill="url(#a)" fill-rule="evenodd" opacity=".347" rx="4.297" ry="1.048"/><path d="m9 4v5.004h-.572l.002-.004h-3.155l-.078.404c-.705 3.605-1.435 7.206-2.156 10.81v.01l-.131.776h2.99l.088-.39c.606-2.707 1.048-5.432 1.614-8.11h1.398v4.5h11v-13zm1 1h9v11h-9v-4.5h-2.168l.002-.006h-1.01c-.638 2.842-1.12 5.7-1.732 8.506h-.988c.666-3.332 1.34-6.663 1.994-10 1.306-.003 2.602.012 3.902.012z" fill="#888a85"/><path d="m10 5v11h9v-11zm1 1h7v9h-7z" fill="#fdfdfb"/><path d="m6.11 10.016h3.92v.906l-4.108-.016z" fill="#fdfdfb"/><path d="m16.482 16.507v-3h4v3h3v4h-3v3h-4v-3h-2.99v-4z" fill="url(#b)"/><g fill="none"><path d="m17.5 18.004v-3.504h2v3.5m0 1v3.5h-2v-3.5" opacity=".5" stroke="url(#c)"/><path d="m16.482 16.507v-3h4v3h3v4h-3v3h-4v-3h-2.99v-4z" opacity=".5" stroke="#0f5a00" stroke-linecap="round" stroke-linejoin="round"/><path d="m20 17.507 2.482-.007v2l-2.482.007m-3 0-2.5-.007v-2l2.5.007" opacity=".5" stroke="url(#e)"/></g></svg>