<svg xmlns="http://www.w3.org/2000/svg" xmlns:xlink="http://www.w3.org/1999/xlink" viewBox="0 0 24 24"><linearGradient id="d" gradientTransform="matrix(.0352 0 0 .00824 -.725 18.98)" gradientUnits="userSpaceOnUse" x1="302.857" x2="302.857" y1="366.648" y2="609.505"><stop offset="0" stop-opacity="0"/><stop offset=".5"/><stop offset="1" stop-opacity="0"/></linearGradient><radialGradient id="e" cx="605.714" cy="486.648" gradientTransform="matrix(-.01205 0 0 .00824 10.76 18.98)" gradientUnits="userSpaceOnUse" r="117.143" xlink:href="#a"/><linearGradient id="a"><stop offset="0"/><stop offset="1" stop-opacity="0"/></linearGradient><radialGradient id="f" cx="605.714" cy="486.648" gradientTransform="matrix(.01205 0 0 .00824 13.24 18.98)" gradientUnits="userSpaceOnUse" r="117.143" xlink:href="#a"/><linearGradient id="g" gradientTransform="matrix(.48572 0 0 .4563 .343 .35)" gradientUnits="userSpaceOnUse" x1="25.132" x2="25.132" y1=".985" y2="47.013"><stop offset="0" stop-color="#f4f4f4"/><stop offset="1" stop-color="#dbdbdb"/></linearGradient><linearGradient id="h" gradientTransform="matrix(.4054 0 0 .5135 2.27 -.324)" gradientUnits="userSpaceOnUse" x1="24" x2="24" y1="6.474" y2="41.526"><stop offset="0" stop-color="#fff"/><stop offset="0" stop-color="#fff" stop-opacity=".235"/><stop offset="1" stop-color="#fff" stop-opacity=".157"/><stop offset="1" stop-color="#fff" stop-opacity=".392"/></linearGradient><linearGradient id="c"><stop offset="0" stop-color="#cdf87e"/><stop offset=".262" stop-color="#a2e34f"/><stop offset=".661" stop-color="#68b723"/><stop offset="1" stop-color="#1d7e0d"/></linearGradient><linearGradient id="n" gradientTransform="matrix(.1788 0 0 .21653 12.648 13.015)" gradientUnits="userSpaceOnUse" x1="24.139" x2="24.139" y1="21.342" y2="24.912"><stop offset="0" stop-color="#fff"/><stop offset="0" stop-color="#fff" stop-opacity=".235"/><stop offset="1" stop-color="#fff" stop-opacity=".157"/><stop offset="1" stop-color="#fff" stop-opacity=".392"/></linearGradient><linearGradient id="j" gradientTransform="matrix(0 .30907 .33092 0 .503 5.432)" gradientUnits="userSpaceOnUse" x1="20.797" x2="37.474" y1="20.649" y2="20.649"><stop offset="0" stop-color="#fff"/><stop offset=".512" stop-color="#fff" stop-opacity=".235"/><stop offset=".585" stop-color="#fff" stop-opacity=".157"/><stop offset="1" stop-color="#fff" stop-opacity=".392"/></linearGradient><radialGradient id="k" cx="-1.474" cy="-42.064" gradientTransform="matrix(-1.8839 0 0 -1.92064 10.974 -80.814)" gradientUnits="userSpaceOnUse" r="10" xlink:href="#b"/><linearGradient id="b"><stop offset="0" stop-color="#737373"/><stop offset=".262" stop-color="#636363"/><stop offset=".705" stop-color="#4b4b4b"/><stop offset="1" stop-color="#3f3f3f"/></linearGradient><radialGradient id="l" cx="-1.474" cy="-42.064" gradientTransform="matrix(-.60772 0 0 -1.99753 35.832 -72.445)" gradientUnits="userSpaceOnUse" r="10" xlink:href="#b"/><radialGradient id="m" cx="65.297" cy="48.216" gradientTransform="matrix(0 .3946 -.3627 0 34.23 -11.69)" gradientUnits="userSpaceOnUse" r="31" xlink:href="#c"/><linearGradient id="i" gradientUnits="userSpaceOnUse" x1="1.696" x2="12.356" xlink:href="#c" y1="9.124" y2="19.624"/><path d="M3.5 22h17v2h-17z" fill="url(#d)" opacity=".15"/><path d="M3.5 22v2c-.62.004-1.5-.448-1.5-1s.692-1 1.5-1z" fill="url(#e)" opacity=".15"/><path d="M20.5 22v2c.62.004 1.5-.448 1.5-1s-.692-1-1.5-1z" fill="url(#f)" opacity=".15"/><path d="M3.5 1.5h18v21h-18v-21z" fill="url(#g)"/><path d="M20.5 21.5h-16v-19h16z" fill="none" stroke="url(#h)" stroke-linecap="round"/><path d="M4.323 9.497c-3.586 2.428-1.432 7.087 2.22 7.087v1.93l5.05-3.607-5.05-3.373v2.02c-2.576.1-3.703-2.363-1.86-4.057z" display="block" fill="url(#i)"/><g fill="none"><path d="M3.446 1.482h18v21h-18v-21z" opacity=".3" stroke="#000" stroke-linejoin="round"/><path d="M4.323 9.497c-3.586 2.428-1.432 7.087 2.22 7.087v1.93l5.05-3.607-5.05-3.373v2.02c-2.576.1-3.703-2.363-1.86-4.057z" display="block" opacity=".5" stroke="#0f5a00" stroke-linejoin="round" stroke-miterlimit="7"/><path d="M3.634 10.753c-1.265 1.485-.126 5.363 3.92 4.832v1l2.353-1.678-2.353-1.524v.8c-4.44.237-4.298-2.83-3.92-3.43z" display="block" opacity=".815" stroke="url(#j)" stroke-miterlimit="7"/><g stroke-linecap="round" stroke-linejoin="round"><path d="M6.845 5.75v.88c4.165-.01 8.33-.014 12.497-.023V5.75H6.845z" stroke="url(#k)" stroke-width=".921"/><path d="M6.845 5.75v.88c4.165-.01 8.33-.014 12.497-.023V5.75H6.845z" opacity=".1" stroke="#000" stroke-width=".921"/><path d="M34.5 17.586v.914c1.344-.01 2.688-.014 4.03-.023v-.89H34.5z" stroke="url(#l)"/><path d="M34.5 17.586v.914c1.344-.01 2.688-.014 4.03-.023v-.89H34.5z" opacity=".1" stroke="#000"/></g></g><path d="M18.55 16.57v3.005h-5.068V16.57z" fill="url(#m)"/><path d="M18.503 16.475V19.5h-5.03v-3.025z" opacity=".5" fill="none" stroke="#0f5a00" stroke-linecap="round" stroke-linejoin="round"/><path d="M15.703 17.255l2.213-.005v1.546l-2.213.005m.004 0l-1.586-.004V17.25l1.587.005" opacity=".5" fill="none" stroke="url(#n)"/></svg>