<svg xmlns="http://www.w3.org/2000/svg" xmlns:xlink="http://www.w3.org/1999/xlink" height="24" width="24"><defs><linearGradient xlink:href="#a" id="l" gradientUnits="userSpaceOnUse" gradientTransform="translate(-1.374)" x1="30.162" y1="15.757" x2="30.197" y2="22.632"/><linearGradient xlink:href="#a" id="m" gradientUnits="userSpaceOnUse" gradientTransform="translate(-1.374)" x1="30.162" y1="15.757" x2="30.162" y2="22.632"/><clipPath id="f"><path fill="#7a36b1" stroke-miterlimit="7" stroke-opacity=".875" d="M7-15h16v9H7z"/></clipPath><clipPath id="c"><path fill="#7a36b1" stroke-miterlimit="7" stroke-opacity=".875" d="M7-2h16v9H7z"/></clipPath></defs><linearGradient id="d" gradientTransform="matrix(.42857 0 0 .4563 4.714 -15.65)" gradientUnits="userSpaceOnUse" x1="24" x2="24" xlink:href="#b" y1="5.81" y2="67.174"/><linearGradient id="b"><stop offset="0" stop-color="#f4f4f4"/><stop offset="1" stop-color="#dbdbdb"/></linearGradient><linearGradient id="e" gradientTransform="matrix(.35135 0 0 .5135 6.567 -16.324)" gradientUnits="userSpaceOnUse" x1="24" x2="24" y1="5.564" y2="43"><stop offset="0" stop-color="#fff"/><stop offset=".036" stop-color="#fff" stop-opacity=".235"/><stop offset=".951" stop-color="#fff" stop-opacity=".157"/><stop offset="1" stop-color="#fff" stop-opacity=".392"/></linearGradient><linearGradient id="g" gradientTransform="matrix(.42857 0 0 .4563 4.714 -15.65)" gradientUnits="userSpaceOnUse" x1="25.132" x2="25.132" xlink:href="#b" y1=".985" y2="47.013"/><radialGradient id="h" cx="65.297" cy="48.216" gradientTransform="matrix(0 .52545 -.57163 0 46.193 -21.124)" gradientUnits="userSpaceOnUse" r="31" xlink:href="#a"/><linearGradient id="a"><stop offset="0" stop-color="#cdf87e"/><stop offset=".262" stop-color="#a2e34f"/><stop offset=".661" stop-color="#68b723"/><stop offset="1" stop-color="#1d7e0d"/></linearGradient><linearGradient id="i" gradientTransform="matrix(.2818 0 0 .2801 12.197 12.015)" gradientUnits="userSpaceOnUse" x1="24.139" x2="24.139" y1="10.631" y2="35.623"><stop offset="0" stop-color="#fff"/><stop offset="0" stop-color="#fff" stop-opacity=".235"/><stop offset="1" stop-color="#fff" stop-opacity=".157"/><stop offset="1" stop-color="#fff" stop-opacity=".392"/></linearGradient><linearGradient id="j" gradientTransform="matrix(.2818 0 0 .2801 12.18 12.022)" gradientUnits="userSpaceOnUse" x1="24.139" x2="24.139" y1="21.342" y2="24.912"><stop offset="0" stop-color="#fff"/><stop offset="0" stop-color="#fff" stop-opacity=".235"/><stop offset="1" stop-color="#fff" stop-opacity=".157"/><stop offset="1" stop-color="#fff" stop-opacity=".392"/></linearGradient><linearGradient id="k" gradientUnits="userSpaceOnUse" x1="30.162" x2="30.232" xlink:href="#a" y1="15.757" y2="22.632" gradientTransform="translate(-1.374)"/><g transform="translate(1 2)" clip-path="url(#c)"><path d="M7.5-14.5h15v21h-15v-21z" fill="url(#d)"/><path d="M21.5 5.5h-13v-19h13z" fill="none" stroke="url(#e)" stroke-linecap="round"/><path d="M7.5-14.5h15v21h-15v-21z" fill="none" opacity=".3" stroke="#000" stroke-linejoin="round"/></g><g transform="translate(1 30)" clip-path="url(#f)"><path d="M7.5-14.5h15v21h-15v-21z" fill="url(#g)"/><path d="M21.5 5.5h-13v-19h13z" fill="none" stroke="url(#e)" stroke-linecap="round"/><path d="M7.5-14.5h15v21h-15v-21z" fill="none" opacity=".3" stroke="#000" stroke-linejoin="round"/></g><path d="M16.482 16.507v-3h4v3h3v4h-3v3h-4v-3h-2.99v-4h2.99z" fill="url(#h)" transform="matrix(.72803 0 0 .72724 -9.46 -1.46)"/><g fill="none"><path d="M17.5 18.004V14.5h2V18m0 1v3.5h-2V19" opacity=".5" stroke="url(#i)" transform="matrix(.72803 0 0 .72724 -9.46 -1.46)"/><path d="M16.482 16.507v-3h4v3h3v4h-3v3h-4v-3h-2.99v-4h2.99z" opacity=".5" stroke="#0f5a00" stroke-linecap="round" stroke-linejoin="round" transform="matrix(.72803 0 0 .72724 -9.46 -1.46)"/><path d="M20 17.507l2.482-.007v2L20 19.507m-3 0l-2.5-.007v-2l2.5.007" opacity=".5" stroke="url(#j)" transform="matrix(.72803 0 0 .72724 -9.46 -1.46)"/></g><g transform="matrix(.72803 0 0 .72724 -9.46 -1.46)"><rect y="16.45" x="26.042" width="5.494" ry=".688" rx=".687" height="4.131" fill="url(#k)"/><rect y="16.45" x="26.042" width="5.494" ry=".688" rx=".687" height="4.131" opacity=".5" fill="none" stroke="#0f5a00" stroke-width="1.374"/><rect y="17.132" x="26.042" width="5.494" ry="0" rx="0" height="1.375" opacity=".3" fill="#fff"/></g><g transform="matrix(.72803 0 0 .72724 -3.46 -1.46)"><rect height="4.131" rx=".687" ry=".688" width="5.494" x="26.042" y="16.45" fill="url(#l)"/><rect height="4.131" rx=".687" ry=".688" width="5.494" x="26.042" y="16.45" opacity=".5" fill="none" stroke="#0f5a00" stroke-width="1.374"/><rect height="1.375" rx="0" ry="0" width="5.494" x="26.042" y="17.132" opacity=".3" fill="#fff"/></g><g transform="matrix(.72803 0 0 .72724 2.54 -1.46)"><rect y="16.45" x="26.042" width="2.805" ry=".688" rx=".687" height="4.026" fill="url(#m)"/><rect y="16.45" x="26.042" width="2.746" ry=".688" rx=".687" height="4.112" opacity=".5" fill="none" stroke="#0f5a00" stroke-width="1.374"/><rect y="17.132" x="26.042" width="2.807" ry="0" rx="0" height="1.363" opacity=".3" fill="#fff"/></g></svg>