<svg xmlns="http://www.w3.org/2000/svg" xmlns:xlink="http://www.w3.org/1999/xlink" viewBox="0 0 24 24"><linearGradient id="b" gradientTransform="matrix(.0352 0 0 .00824 -.725 18.98)" gradientUnits="userSpaceOnUse" x1="302.857" x2="302.857" y1="366.648" y2="609.505"><stop offset="0" stop-opacity="0"/><stop offset=".5"/><stop offset="1" stop-opacity="0"/></linearGradient><radialGradient id="c" cx="605.714" cy="486.648" gradientTransform="matrix(-.01205 0 0 .00824 10.76 18.98)" gradientUnits="userSpaceOnUse" r="117.143" xlink:href="#a"/><linearGradient id="a"><stop offset="0"/><stop offset="1" stop-opacity="0"/></linearGradient><radialGradient id="d" cx="605.714" cy="486.648" gradientTransform="matrix(.01205 0 0 .00824 13.24 18.98)" gradientUnits="userSpaceOnUse" r="117.143" xlink:href="#a"/><linearGradient id="e" gradientTransform="matrix(.48572 0 0 .4563 .343 .35)" gradientUnits="userSpaceOnUse" x1="25.132" x2="25.132" y1=".985" y2="47.013"><stop offset="0" stop-color="#f4f4f4"/><stop offset="1" stop-color="#dbdbdb"/></linearGradient><linearGradient id="f" gradientTransform="matrix(.4054 0 0 .5135 2.27 -.324)" gradientUnits="userSpaceOnUse" x1="24" x2="24" y1="6.474" y2="41.526"><stop offset="0" stop-color="#fff"/><stop offset="0" stop-color="#fff" stop-opacity=".235"/><stop offset="1" stop-color="#fff" stop-opacity=".157"/><stop offset="1" stop-color="#fff" stop-opacity=".392"/></linearGradient><path d="M3.5 22h17v2h-17z" fill="url(#b)" opacity=".15"/><path d="M3.5 22v2c-.62.004-1.5-.448-1.5-1s.692-1 1.5-1z" fill="url(#c)" opacity=".15"/><path d="M20.5 22v2c.62.004 1.5-.448 1.5-1s-.692-1-1.5-1z" fill="url(#d)" opacity=".15"/><path d="M3.5 1.5h17v21h-17v-21z" fill="url(#e)"/><g fill="none"><path d="M19.5 21.5h-15v-19h15z" stroke-linecap="round" stroke="url(#f)"/><path d="M3.5 1.5h17v21h-17v-21z" stroke-linejoin="round" stroke="#000" opacity=".3"/><g stroke-linecap="round" stroke="#616161"><path d="M6.507 5.5h11M6.507 9.5h11M6.507 20.5h11"/></g><path d="M12 12v4H8v2h6v-4l1-1-1-1z" fill="#6ead20"/><path d="M12.508 12.508l.012 4H8.525v1.047h4.99v-.92h.005l-.01-3.076L14 13l-.492-.492z" opacity=".4" fill="#fff"/></g></svg>