<?xml version="1.0" encoding="UTF-8" standalone="no"?>
<svg
   xmlns:dc="http://purl.org/dc/elements/1.1/"
   xmlns:cc="http://creativecommons.org/ns#"
   xmlns:rdf="http://www.w3.org/1999/02/22-rdf-syntax-ns#"
   xmlns:svg="http://www.w3.org/2000/svg"
   xmlns="http://www.w3.org/2000/svg"
   xmlns:sodipodi="http://sodipodi.sourceforge.net/DTD/sodipodi-0.dtd"
   xmlns:inkscape="http://www.inkscape.org/namespaces/inkscape"
   height="24"
   width="24"
   version="1.1"
   id="svg68"
   sodipodi:docname="lc_insertcellsdown.svg"
   inkscape:version="0.92.3 (2405546, 2018-03-11)"
   inkscape:export-filename="/home/rizmut/Documents/Rizmut/Github/libreoffice-style-elementary/images_elementary/cmd/lc_insertcellsdown.png"
   inkscape:export-xdpi="96"
   inkscape:export-ydpi="96">
  <metadata
     id="metadata74">
    <rdf:RDF>
      <cc:Work
         rdf:about="">
        <dc:format>image/svg+xml</dc:format>
        <dc:type
           rdf:resource="http://purl.org/dc/dcmitype/StillImage" />
      </cc:Work>
    </rdf:RDF>
  </metadata>
  <defs
     id="defs72">
    <radialGradient
       id="a-3"
       cx="24.837"
       cy="36.421001"
       gradientTransform="matrix(-0.27598,0,0,-0.29583,24.324,24.82)"
       gradientUnits="userSpaceOnUse"
       r="15.645">
      <stop
         offset="0"
         id="stop2-6" />
      <stop
         offset="1"
         stop-opacity="0"
         id="stop4-7" />
    </radialGradient>
    <linearGradient
       id="b-5"
       gradientTransform="matrix(0.4922,0,0,0.4584,4.51,3.206)"
       gradientUnits="userSpaceOnUse"
       x1="11.11957"
       x2="34.914497"
       y1="20.747404"
       y2="20.192785">
      <stop
         offset="0"
         stop-color="#90dbec"
         id="stop7-3" />
      <stop
         offset=".262"
         stop-color="#55c1ec"
         id="stop9-5" />
      <stop
         offset=".705"
         stop-color="#3689e6"
         id="stop11-6" />
      <stop
         offset="1"
         stop-color="#2b63a0"
         id="stop13-2" />
    </linearGradient>
    <linearGradient
       id="c-9"
       gradientTransform="matrix(0,-0.5372,0.57682,0,-15.997,27.866)"
       gradientUnits="userSpaceOnUse"
       x1="30.314564"
       x2="30.372301"
       y1="49.18325"
       y2="65.760551">
      <stop
         offset="0"
         stop-color="#fff"
         id="stop16-1" />
      <stop
         offset=".30000001"
         stop-color="#fff"
         stop-opacity=".235"
         id="stop18-2" />
      <stop
         offset=".65"
         stop-color="#fff"
         stop-opacity=".157"
         id="stop20-7" />
      <stop
         offset="1"
         stop-color="#fff"
         stop-opacity=".392"
         id="stop22-0" />
    </linearGradient>
  </defs>
  <sodipodi:namedview
     pagecolor="#ffffff"
     bordercolor="#666666"
     borderopacity="1"
     objecttolerance="10"
     gridtolerance="10"
     guidetolerance="10"
     inkscape:pageopacity="0"
     inkscape:pageshadow="2"
     inkscape:window-width="1366"
     inkscape:window-height="696"
     id="namedview70"
     showgrid="false"
     inkscape:zoom="9.8333333"
     inkscape:cx="-1.0677966"
     inkscape:cy="11.186441"
     inkscape:window-x="0"
     inkscape:window-y="0"
     inkscape:window-maximized="1"
     inkscape:current-layer="svg68" />
  <linearGradient
     id="a"
     gradientTransform="matrix(.44576989 0 0 .44993664 .801525 -.024539)"
     gradientUnits="userSpaceOnUse"
     x1="25.121649"
     x2="25.132275"
     y1="-10.13522"
     y2="48.395687">
    <stop
       offset="0"
       stop-color="#fafafa"
       id="stop2" />
    <stop
       offset="1"
       stop-color="#e2e1de"
       id="stop4" />
  </linearGradient>
  <linearGradient
     id="b"
     gradientTransform="matrix(.48483606 0 0 .5270602 -.165352 -.400235)"
     gradientUnits="userSpaceOnUse"
     x1="23.99999"
     x2="23.99999"
     y1="4.999989"
     y2="43">
    <stop
       offset="0"
       stop-color="#fff"
       id="stop7" />
    <stop
       offset=".06316455"
       stop-color="#fff"
       stop-opacity=".235294"
       id="stop9" />
    <stop
       offset=".95056331"
       stop-color="#fff"
       stop-opacity=".156863"
       id="stop11" />
    <stop
       offset="1"
       stop-color="#fff"
       stop-opacity=".392157"
       id="stop13" />
  </linearGradient>
  <linearGradient
     id="c"
     gradientTransform="matrix(0 .37454112 -.3487192 0 44.545573 8.116096)"
     gradientUnits="userSpaceOnUse"
     x1="10.369767"
     x2="39.73904"
     y1="5.49575"
     y2="30.240873">
    <stop
       offset="0"
       stop-color="#f0c1ff"
       id="stop16" />
    <stop
       offset=".26238"
       stop-color="#c5a3f2"
       id="stop18" />
    <stop
       offset=".704952"
       stop-color="#7a36b1"
       id="stop20" />
    <stop
       offset="1"
       stop-color="#4c2d81"
       id="stop22" />
  </linearGradient>
  <linearGradient
     id="d"
     gradientTransform="matrix(.42208809 0 0 .45321444 25.355131 -8.426405)"
     gradientUnits="userSpaceOnUse"
     x1="40.957993"
     x2="18.680689"
     y1="46.97065"
     y2="46.97065">
    <stop
       offset="0"
       stop-color="#fff"
       id="stop25" />
    <stop
       offset=".45000002"
       stop-color="#fff"
       stop-opacity=".235294"
       id="stop27" />
    <stop
       offset=".65000004"
       stop-color="#fff"
       stop-opacity=".156863"
       id="stop29" />
    <stop
       offset="1"
       stop-color="#fff"
       stop-opacity=".392157"
       id="stop31" />
  </linearGradient>
  <rect
     fill="url(#a)"
     height="20"
     rx=".527778"
     ry=".555556"
     width="19"
     x="2.000001"
     y="1.999818"
     id="rect34" />
  <path
     d="m2.50125 2.4985922h17.938934v19.5012258h-17.938934z"
     fill="none"
     stroke="url(#b)"
     stroke-linecap="round"
     stroke-linejoin="round"
     stroke-width="1.100222"
     id="path36" />
  <path
     d="m17.000002 13.999818h4v1h-4z"
     opacity=".321"
     id="path38" />
  <path
     d="m2.000001 17.999819h4v1h-4z"
     opacity=".321"
     id="path40" />
  <path
     d="m7.000001 17.999819h4v1h-4z"
     opacity=".321"
     id="path42" />
  <path
     d="m17.000002 17.999819h4v1h-4z"
     opacity=".321"
     id="path44" />
  <path
     d="m6 2.0000002v4h-4v1h4v2.9999998h-4v1h4v3h-4v1h4v7h1v-7h4v7h1v-3h4v3h1v-11h4v-1h-4v-2.9999998h4v-1h-4v-4h-1v4h-4v-4h-1v4h-4v-4zm1 5h4v2.9999998h-4zm5 0h4v2.9999998h-4zm-5 3.9999998h4v3h-4zm5 0h4v3h-4zm0 4h4v3h-4z"
     opacity=".321"
     id="path46" />
  <path
     d="m2.435547.996094c-.421249 0-.811485.1841766-1.0625.4746093s-.373047.6688191-.373047 1.0605469v9.4687498 9.462891c0 .391727.122032.770112.373047 1.060547.251015.290432.641251.476562 1.0625.476562h17.925781c.842497 0 1.638672-.635677 1.638672-1.537109v-9.462891-9.4687498c0-.9014321-.796175-1.5351562-1.638672-1.5351562zm0 1h17.925781c.305795 0 .638672.2882963.638672.5351562v9.4687498 9.462891c0 .24686-.332877.537109-.638672.537109h-17.925781c-.152898 0-.231904-.04469-.304688-.128906-.072783-.08421-.130859-.225785-.130859-.408203v-9.462891-9.4687498c0-.1824181.05808-.3220372.130859-.40625.07278-.084213.15179-.1289063.304688-.1289062z"
     opacity=".3"
     id="path48" />
  <g
     transform="translate(0 4)"
     id="g56">
    <path
       d="m16 10h6v5h-6z"
       fill="#8ed440"
       id="path50" />
    <path
       d="m16 9c-.554 0-1 .446-1 1v5c0 .554.446 1 1 1h6c.554 0 1-.446 1-1v-5c0-.554-.446-1-1-1zm0 1h6v5h-6z"
       fill="#126400"
       fill-opacity=".570588"
       id="path52" />
    <path
       d="m16 10v1h6v-1zm0 4v1h6v-1z"
       fill="#c0e98e"
       opacity=".5"
       id="path54" />
  </g>
  <g
     transform="matrix(0,1,1,0,0.03587186,0)"
     id="g79">
    <path
       style="opacity:0.14100001;fill:url(#a-3);fill-rule:evenodd"
       inkscape:connector-curvature="0"
       d="m 13.152,14.045 a 4.318,4.628 0 1 1 8.635,0 4.318,4.628 0 0 1 -8.635,0 z"
       transform="translate(-10,6)"
       id="path69" />
    <path
       style="display:block;fill:url(#b-5)"
       inkscape:connector-curvature="0"
       d="m 16.5,17.222 7,-5.673 -7,-5.697 V 9.5 h -6 v 4 h 6 z"
       display="block"
       transform="translate(-10,6)"
       id="path71" />
    <g
       style="fill:none;stroke-miterlimit:7"
       stroke-miterlimit="7"
       id="g77">
      <path
         style="display:block;opacity:0.40100002;stroke:url(#c-9);stroke-width:0.96399999"
         inkscape:connector-curvature="0"
         d="M 17.5,15.11 21.935,11.55 17.5,7.925 V 10.5 h -6 v 2 h 6 z"
         display="block"
         transform="translate(-10,6)"
         id="path73" />
      <path
         style="display:block;opacity:0.5;stroke:#004372;stroke-linejoin:round"
         inkscape:connector-curvature="0"
         d="m 6.5,23.222 7,-5.673 -7,-5.697 V 15.5 h -6 v 4 h 6 z"
         display="block"
         id="path75" />
    </g>
  </g>
</svg>
