<svg xmlns="http://www.w3.org/2000/svg" xmlns:xlink="http://www.w3.org/1999/xlink" height="24" version="1" width="24"><title>elementary Icon Template</title><defs><linearGradient id="c"><stop offset="0"/><stop offset="1" stop-opacity="0"/></linearGradient><linearGradient id="a"><stop offset="0" stop-color="#fff"/><stop offset=".003" stop-color="#fff" stop-opacity=".235"/><stop offset=".99" stop-color="#fff" stop-opacity=".157"/><stop offset="1" stop-color="#fff" stop-opacity=".392"/></linearGradient><linearGradient id="d"><stop offset="0" stop-opacity="0"/><stop offset=".5"/><stop offset="1" stop-opacity="0"/></linearGradient><linearGradient id="b"><stop offset="0" stop-color="#f9f9f9"/><stop offset="1" stop-color="#d8d8d8"/></linearGradient><linearGradient gradientTransform="matrix(.62763 0 0 .72456 2.973 4.627)" gradientUnits="userSpaceOnUse" xlink:href="#a" id="p" x1="27.129" x2="27.129" y1="8.795" y2="22.597"/><linearGradient gradientTransform="matrix(.49096 0 0 .48985 -24.706 .287)" gradientUnits="userSpaceOnUse" xlink:href="#b" id="k" x1="62.543" x2="62.543" y1="13.704" y2="17.787"/><radialGradient cx="605.714" cy="486.648" fx="605.714" fy="486.648" gradientTransform="matrix(.0328 0 0 .01513 .154 13.78)" gradientUnits="userSpaceOnUse" xlink:href="#c" id="i" r="117.143"/><radialGradient cx="605.714" cy="486.648" fx="605.714" fy="486.648" gradientTransform="matrix(-.0328 0 0 .01513 23.846 13.78)" gradientUnits="userSpaceOnUse" xlink:href="#c" id="j" r="117.143"/><linearGradient gradientTransform="matrix(.0328 0 0 .01513 .147 13.78)" gradientUnits="userSpaceOnUse" xlink:href="#d" id="h" x1="302.857" x2="302.857" y1="366.648" y2="609.505"/><linearGradient y2="110.263" x2="51.622" y1="84.425" x1="51.622" gradientTransform="matrix(.50413 0 0 .49333 -16.682 -32.483)" gradientUnits="userSpaceOnUse" id="o" xlink:href="#e"/><linearGradient xlink:href="#f" id="l" gradientUnits="userSpaceOnUse" gradientTransform="matrix(1.32103 0 0 1.26798 -76.73 -5.326)" x1="69.753" y1="9.721" x2="69.772" y2="20.09"/><linearGradient id="f"><stop offset="0" stop-color="#fff"/><stop offset="0" stop-color="#fff" stop-opacity=".235"/><stop offset="1" stop-color="#fff" stop-opacity=".157"/><stop offset="1" stop-color="#fff" stop-opacity=".392"/></linearGradient><linearGradient gradientTransform="translate(-33.588 -9.6)" id="e" gradientUnits="userSpaceOnUse" x1="13" x2="13" y1="9" y2="21"><stop offset="0" stop-color="#b4cee1"/><stop offset="1" stop-color="#5d9fcd"/></linearGradient><linearGradient xlink:href="#g" id="m" x1="19.539" y1="6.633" x2="29.109" y2="13.274" gradientUnits="userSpaceOnUse" gradientTransform="translate(-2.262 3.422)"/><linearGradient id="g"><stop offset="0" stop-color="#cd9ef7"/><stop offset="1" stop-color="#a56de2"/></linearGradient><linearGradient id="n" gradientTransform="matrix(0 -.59172 -.63517 0 30.523 33.108)" gradientUnits="userSpaceOnUse" x1="38.941" x2="20.576" y1="15.991" y2="15.991"><stop offset="0" stop-color="#fff"/><stop offset=".512" stop-color="#fff" stop-opacity=".235"/><stop offset=".585" stop-color="#fff" stop-opacity=".157"/><stop offset="1" stop-color="#fff" stop-opacity=".392"/></linearGradient></defs><path overflow="visible" opacity=".3" fill="url(#h)" d="M4.083 19.327h15.835V23H4.083z"/><path d="M19.917 19.327V23c1.69.007 4.083-.823 4.083-1.837s-1.885-1.836-4.083-1.836z" overflow="visible" opacity=".3" fill="url(#i)"/><path d="M4.083 19.327V23C2.393 23.007 0 22.177 0 21.163s1.885-1.836 4.083-1.836z" overflow="visible" opacity=".3" fill="url(#j)"/><path style="font-variant-east_asian:normal" d="M3.036 3.504c-.277 0-.5.223-.5.5V5.5h-.5c-.277 0-.5.223-.5.5v2.507h21V6c0-.277-.223-.5-.5-.5h-11.5V4.004c0-.277-.223-.5-.5-.5z" color="#000" overflow="visible" opacity=".5" fill="none" stroke="#7e8087" stroke-width=".992" stroke-linecap="square"/><path d="M3.036 4v2h-1v4h20V6h-12V4z" color="#000" overflow="visible" fill="url(#k)"/><path style="font-variant-east_asian:normal" d="M3.536 4.5v2h-1v3.34h19V6.5h-12v-2z" color="#000" overflow="visible" fill="none" stroke="url(#l)" stroke-linecap="round" stroke-linejoin="round"/><g stroke-miterlimit="7" stroke-width="1.5"><path d="M23.193 25.327c5.627-4.905 3.627-12.905-4.873-13.12V8.065l-9 6.905 9 6.905v-4.11c4.947-.193 7.718 4.318 4.182 7.563z" display="block" transform="matrix(-.66667 0 0 .66667 28.07 -4.877)" fill="url(#m)" stroke="#7239b3" stroke-linejoin="round" stroke-opacity=".693"/><path d="M24.514 22.922c2.428-2.844.905-10.267-7.15-9.716l-.087-3.15-6.34 4.913 6.34 4.87v-2.904c7.71-.745 7.962 4.835 7.236 5.985z" display="block" transform="matrix(-.66667 0 0 .66667 28.07 -4.877)" opacity=".53" fill="none" stroke="url(#n)"/></g><path style="line-height:normal;text-indent:0;text-align:start;text-decoration-line:none;text-decoration-style:solid;text-decoration-color:#000000;text-transform:none;isolation:auto;mix-blend-mode:normal;font-variant-east_asian:normal" d="M1.5 9.5V18l.25 3.5h20.5l.25-3.5V9.5z" color="#000" font-family="sans-serif" white-space="normal" overflow="visible" solid-color="#000000" fill="url(#o)" stroke="#248498" stroke-opacity=".498"/><path d="M2.5 10.5l-.054 7.505.304 2.495h18.5l.26-2.444-.01-7.556z" color="#000" overflow="visible" opacity=".5" fill="none" stroke="url(#p)" stroke-linecap="round"/></svg>