<svg height="24" width="24" xmlns="http://www.w3.org/2000/svg" xmlns:xlink="http://www.w3.org/1999/xlink"><linearGradient id="a" gradientTransform="matrix(.0352071 0 0 .0082353 -.724852 18.980547)" gradientUnits="userSpaceOnUse" x1="302.85715" x2="302.85715" y1="366.64789" y2="609.50507"><stop offset="0" stop-opacity="0"/><stop offset=".5"/><stop offset="1" stop-opacity="0"/></linearGradient><radialGradient id="b" cx="605.71429" cy="486.64789" gradientTransform="matrix(-.01204859 0 0 .0082353 10.761206 18.980564)" gradientUnits="userSpaceOnUse" r="117.14286" xlink:href="#f"/><radialGradient id="c" cx="605.71429" cy="486.64789" gradientTransform="matrix(.01204859 0 0 .0082353 6.738793 18.980673)" gradientUnits="userSpaceOnUse" r="117.14286" xlink:href="#f"/><linearGradient id="d" gradientTransform="matrix(.48571543 0 0 .45629666 .342829 .348862)" gradientUnits="userSpaceOnUse" x1="25.132275" x2="25.132275" y1=".985206" y2="47.013336"><stop offset="0" stop-color="#f4f4f4"/><stop offset="1" stop-color="#dbdbdb"/></linearGradient><linearGradient id="e" gradientTransform="matrix(.40540511 0 0 .51351351 2.269687 -.32432)" gradientUnits="userSpaceOnUse" x1="23.99999" x2="24.001455" xlink:href="#g" y1="6.473675" y2="25.947361"/><linearGradient id="f"><stop offset="0"/><stop offset="1" stop-opacity="0"/></linearGradient><linearGradient id="g" gradientTransform="matrix(.40540511 0 0 .51351351 2.269687 -.32432)" gradientUnits="userSpaceOnUse" x1="23.99999" x2="24.001455" y1="6.473675" y2="25.947361"><stop offset="0" stop-color="#fff"/><stop offset="0" stop-color="#fff" stop-opacity=".235294"/><stop offset="1" stop-color="#fff" stop-opacity=".156863"/><stop offset="1" stop-color="#fff" stop-opacity=".392157"/></linearGradient><g transform="translate(-2)"><g transform="translate(0 -8.000085)"><path d="m3.500001 22 10.499999.000085v2l-10.499999-.000085z" fill="url(#a)" opacity=".15"/><path d="m3.4999999 22.000085v1.999891c-.6204724.0038-1.4999999-.448075-1.4999999-1.000075 0-.551999.6924-.999816 1.4999999-.999816z" fill="url(#b)" opacity=".15"/><path d="m14 22.000194v1.999891c.620472.0038 1.5-.448075 1.5-1.000075 0-.551999-.692402-.999816-1.5-.999816z" fill="url(#c)" opacity=".15"/></g><path d="m3.4999601 1.4999569c3.8955809 0 10.0000589.00136 10.0000589.00136l.000021 12.9987161h-10.0000795l-.0000004-13.0000538z" fill="url(#d)"/><g fill="none"><path d="m12.5 13.5h-8l-.0000004-11h8.0000004z" stroke="url(#g)" stroke-linecap="round"/><path d="m3.4999601 1.4999569c3.8955809 0 10.0000589.00136 10.0000589.00136l.000021 12.9987161h-10.0000795l-.0000004-13.0000538z" opacity=".3" stroke="#000" stroke-linejoin="round" stroke-width=".999922"/></g></g><path d="m4 3h8v12h-8z" opacity=".05"/><g transform="translate(2 3)"><g transform="translate(0 -8.000085)"><path d="m3.500001 22 10.499999.000085v2l-10.499999-.000085z" fill="url(#a)" opacity=".15"/><path d="m3.4999999 22.000085v1.999891c-.6204724.0038-1.4999999-.448075-1.4999999-1.000075 0-.551999.6924-.999816 1.4999999-.999816z" fill="url(#b)" opacity=".15"/><path d="m14 22.000194v1.999891c.620472.0038 1.5-.448075 1.5-1.000075 0-.551999-.692402-.999816-1.5-.999816z" fill="url(#c)" opacity=".15"/></g><path d="m3.4999601 1.4999569c3.8955809 0 10.0000589.00136 10.0000589.00136l.000021 12.9987161h-10.0000795l-.0000004-13.0000538z" fill="url(#d)"/><g fill="none"><path d="m12.5 13.5h-8l-.0000004-11h8.0000004z" stroke="url(#e)" stroke-linecap="round"/><path d="m3.4999601 1.4999569c3.8955809 0 10.0000589.00136 10.0000589.00136l.000021 12.9987161h-10.0000795l-.0000004-13.0000538z" opacity=".3" stroke="#000" stroke-linejoin="round" stroke-width=".999922"/></g></g><g transform="matrix(.72649942 0 0 .72649942 17.761088 .446502)"><path d="m-4.6846948 31.027551c.00688.341363.027529.869925.3248454.942878 3.14109.01789 6.297321-.01376 9.4370344-.0083.323469.01377.3358571-.591879.3248454-.94976l-10.0894781.01376z" fill="#505050" stroke="#565656" stroke-linecap="square" stroke-width=".951136"/><g stroke-linecap="round" transform="matrix(1.3764636 0 0 1.3764636 -7.982702 10.397115)"><path d="m.637 9.568.517-2.11 9.76.014.494 2.118z" fill="#4f4f4f" fill-rule="evenodd"/><path d="m1.037 9.54 9.99.012c.278 0 .502.24.5.54l-.004 4.414-10.993-.01.007-4.416c0-.3.223-.54.5-.54z" fill="#4f4f4f"/><path d="m1.037 9.54 9.99.012c.278 0 .502.24.5.54l-.004 4.414-10.993-.01.007-4.416c0-.3.223-.54.5-.54z" fill="none" opacity=".71" stroke="#393939" stroke-linejoin="round"/><path d="m8.05 10h1v1h-1z" fill="#0cceff"/><path d="m.637 9.568.517-2.11 9.76.014.494 2.118z" fill="none" opacity=".7" stroke="#393939" stroke-linecap="butt"/></g><g fill="#e9e9e9" stroke-width="1.376464"><path d="m5.4157951 26.914678v4.490024c0 .261528-.06607.467998-.1486581.467998h-9.8086795c-.082588 0-.1472817-.20647-.1472817-.467998v-4.490024z"/><path d="m-4.4589547 16.602213 9.6214805-.01101-.00826 5.822441-9.6214805.01376z" stroke="#8c8c8c" stroke-linejoin="round"/></g></g></svg>