<?xml version="1.0" encoding="UTF-8" standalone="no"?>
<svg
   xmlns:dc="http://purl.org/dc/elements/1.1/"
   xmlns:cc="http://creativecommons.org/ns#"
   xmlns:rdf="http://www.w3.org/1999/02/22-rdf-syntax-ns#"
   xmlns:svg="http://www.w3.org/2000/svg"
   xmlns="http://www.w3.org/2000/svg"
   xmlns:sodipodi="http://sodipodi.sourceforge.net/DTD/sodipodi-0.dtd"
   xmlns:inkscape="http://www.inkscape.org/namespaces/inkscape"
   height="24"
   width="24"
   version="1.1"
   id="svg68"
   sodipodi:docname="lc_modifyframe.svg"
   inkscape:version="0.92.3 (unknown)">
  <metadata
     id="metadata74">
    <rdf:RDF>
      <cc:Work
         rdf:about="">
        <dc:format>image/svg+xml</dc:format>
        <dc:type
           rdf:resource="http://purl.org/dc/dcmitype/StillImage" />
      </cc:Work>
    </rdf:RDF>
  </metadata>
  <defs
     id="defs72">
    <linearGradient
       id="a-3"
       gradientUnits="userSpaceOnUse"
       x1="17.461565"
       x2="17.461565"
       y1="12.132274"
       y2="23.876352">
      <stop
         offset="0"
         stop-color="#f6f6f6"
         id="stop323" />
      <stop
         offset="1"
         stop-color="#ccc"
         id="stop325" />
    </linearGradient>
    <linearGradient
       id="b-6"
       gradientUnits="userSpaceOnUse"
       x1="14.525564"
       x2="14.525564"
       y1="12.132274"
       y2="23.879738">
      <stop
         offset="0"
         stop-color="#aaa"
         id="stop328" />
      <stop
         offset="1"
         stop-color="#8c8c8c"
         id="stop330" />
    </linearGradient>
    <linearGradient
       id="c-7"
       gradientUnits="userSpaceOnUse"
       x1="10.127912"
       x2="9.9842434"
       y1="12.048073"
       y2="3.95193">
      <stop
         offset="0"
         stop-color="#e5e5e5"
         id="stop333" />
      <stop
         offset="1"
         stop-color="#ababab"
         id="stop335" />
    </linearGradient>
  </defs>
  <sodipodi:namedview
     pagecolor="#ffffff"
     bordercolor="#666666"
     borderopacity="1"
     objecttolerance="10"
     gridtolerance="10"
     guidetolerance="10"
     inkscape:pageopacity="0"
     inkscape:pageshadow="2"
     inkscape:window-width="1366"
     inkscape:window-height="706"
     id="namedview70"
     showgrid="false"
     inkscape:zoom="9.8333333"
     inkscape:cx="12"
     inkscape:cy="11.186441"
     inkscape:window-x="0"
     inkscape:window-y="0"
     inkscape:window-maximized="1"
     inkscape:current-layer="svg68" />
  <linearGradient
     id="a"
     gradientUnits="userSpaceOnUse"
     x1="10"
     x2="14"
     y1="14"
     y2="10">
    <stop
       offset="0"
       id="stop2" />
    <stop
       offset="1"
       stop-color="#fff"
       id="stop4" />
  </linearGradient>
  <mask
     id="b">
    <path
       d="m303.54129 125.90525h23.375v22.5h-23.375z"
       fill="url(#c)"
       id="path7" />
  </mask>
  <linearGradient
     id="c"
     gradientUnits="userSpaceOnUse"
     x1="316.472471"
     x2="317.623691"
     y1="138.89748"
     y2="141.19508">
    <stop
       offset="0"
       stop-color="#fff"
       id="stop10" />
    <stop
       offset="1"
       id="stop12" />
  </linearGradient>
  <linearGradient
     id="d"
     gradientTransform="matrix(.7811541 -.03481362 -.03481362 .7811541 70.230423 94.3198)"
     gradientUnits="userSpaceOnUse"
     x1="309.29663"
     x2="335.30014"
     y1="67.297691"
     y2="81.926315">
    <stop
       offset="0"
       stop-color="#d3d7cf"
       id="stop15" />
    <stop
       offset=".18303643"
       stop-color="#babdb6"
       id="stop17" />
    <stop
       offset=".31893486"
       stop-color="#fff"
       id="stop19" />
    <stop
       offset=".87643671"
       stop-color="#babdb6"
       id="stop21" />
    <stop
       offset="1"
       stop-color="#eeeeec"
       id="stop23" />
  </linearGradient>
  <linearGradient
     id="e"
     gradientTransform="matrix(.7811541 -.03481362 -.03481362 .7811541 70.230423 94.3198)"
     gradientUnits="userSpaceOnUse"
     x1="324.49731"
     x2="330.06076"
     y1="70.282364"
     y2="99.273735">
    <stop
       offset="0"
       stop-color="#888a85"
       id="stop26" />
    <stop
       offset="1"
       stop-color="#555753"
       id="stop28" />
  </linearGradient>
  <linearGradient
     id="f"
     gradientTransform="matrix(.801996 0 0 .7960034 69.746815 998.18246)"
     gradientUnits="userSpaceOnUse"
     x1="302.29202"
     x2="308.64914"
     y1="58.442768"
     y2="60.767513">
    <stop
       offset="0"
       stop-color="#babdb6"
       id="stop31" />
    <stop
       offset="1"
       stop-color="#fff"
       id="stop33" />
  </linearGradient>
  <path
     d="m3.9706269 16.941501c0-.34424.1200724-.635775.3602174-.876249l2.6765126-2.676512c.2403096-.238828.5320083-.359064.8750962-.359064.3603821 0 .668387.136708.9269793.411771-.026354.02471-.1070605.10706-.2454156.243768-.1368728.128473-.2269684.219062-.2697925.270122-.051389.05106-.1157901.133414-.1930383.245415-.085813.110355-.1414847.222357-.1673439.334359-.034259.102123-.051389.219062-.051389.347534 0 .342594.1200725.634128.3602175.874602.2403096.240474.532173.360712.8747665.360712.1284726 0 .2487095-.01318.360712-.03953.1021231-.03459.2108261-.08894.3211811-.166354.112001-.08565.1927091-.149886.2454148-.19271.05106-.05271.144943-.146591.283298-.283298.128473-.138355.205886-.219062.230592-.245416.283299.266828.424948.579773.424948.940485 0 .342594-.120238.634128-.360712.874603l-2.6503225 2.663335c-.2315801.232239-.5232787.347536-.875096.347536-.3430878 0-.6347865-.112003-.8749314-.334359l-1.8916769-1.879325c-.2401448-.240474-.3602173-.527067-.3602173-.861425m9.0454591-9.0723066c0-.3430877.120236-.6347864.360711-.8749314l2.651806-2.6636655c.238828-.2403096.530361-.360382.874603-.360382.334358 0 .625891.11579.874601.3475347l1.890854 1.878665c.240474.2401449.360711.5275612.360711.8620841 0 .3432524-.120237.6347864-.360711.8750961l-2.676513 2.6765126c-.230591.232239-.522126.347536-.874602.347536-.360711 0-.668716-.133415-.925662-.39909.02471-.02569.10706-.102942.243769-.23158.136708-.137202.232239-.23158.283299-.283133.04282-.051387.10706-.1329209.192708-.2444281.07742-.1115076.133414-.2187328.168003-.3216756.02471-.1115076.03788-.2315801.03788-.3603821 0-.3430878-.120237-.6347865-.360711-.8749314-.238828-.2403097-.530362-.3603821-.874603-.3603821-.128472 0-.243768.01713-.347534.051554-.110355.025695-.222357.08153-.334359.1671791-.112001.077248-.192709.1416493-.243768.1930383-.05271.042989-.141645.1330844-.270118.2702865-.138355.1372021-.219063.2187328-.245415.2444274-.2833-.2658397-.424949-.5789505-.424949-.9393326m-10.4352691 6.4468546c-.7204349.719776-1.080817 1.596025-1.080817 2.625452 0 1.029428.3646646 1.899089 1.093829 2.612276l1.8915121 1.877677c.7120347.713188 1.5826836 1.068958 2.6121115 1.068958 1.0381574 0 1.9129242-.365653 2.6244647-1.093664l2.6518048-2.664983c.711541-.711541 1.067311-1.581201 1.067311-2.61063 0-1.055781-.377182-1.951794-1.131547-2.689688l1.131547-1.133195c.737894.756012 1.630614 1.133195 2.676513 1.133195 1.029428 0 1.904029-.360712 2.625453-1.082135l2.676513-2.6756891c.719776-.7205995 1.080488-1.5956957 1.080488-2.6251236 0-1.029428-.364007-1.900077-1.093666-2.6121117l-1.890852-1.8786648c-.713188-.7120347-1.582849-1.0681343-2.612276-1.0681343-1.037664 0-1.913913.3646645-2.625454 1.0938289l-2.650159 2.6636654c-.713188.7120347-1.068958 1.5826836-1.068958 2.6121116 0 1.0551224.377183 1.9516307 1.133194 2.6893596l-1.133194 1.132041c-.7378928-.754364-1.6289654-1.132041-2.6761818-1.132041-1.029428 0-1.9043594.359559-2.6251237 1.080982z"
     fill="#d3d7cf"
     stroke="#000"
     stroke-opacity=".426667"
     id="path36" />
  <path
     d="m9 15 5.80536-5.8702398"
     fill="none"
     opacity=".2"
     stroke="url(#a)"
     stroke-linecap="round"
     stroke-width="1.5"
     id="path38" />
  <path
     d="m12.792969 8.8496094-1.095703 1.0625.697265.7187496 1.09375-1.0644528zm1.695312 1.6542966-1.09375 1.0625.695313.71875 1.095703-1.064453zm-4.6152341 1.169922-1.09375 1.0625.6953125.716797 1.0957026-1.0625zm1.7460941 1.775391-1.095703 1.064453.697265.716797 1.09375-1.0625z"
     fill-opacity=".427451"
     fill-rule="evenodd"
     id="path40" />
  <g
     fill="none"
     stroke="#fff"
     stroke-linecap="round"
     id="g52">
    <path
       d="m8.96875 14.6875 5.71875-5.8125"
       opacity=".4"
       id="path42" />
    <path
       d="m11.90625 6.5 3.218748-3.3441382c.5625-.53125 1.930437-1.1296543 3.367937-.19215l2.694565 2.7237882"
       opacity=".4"
       id="path44" />
    <path
       d="m2.78125 15.65625 3.218748-3.344138c.5625-.53125 1.930437-1.129654 3.367937-.19215"
       opacity=".4"
       id="path46" />
    <path
       d="m3.75 18.541305 1.593748 1.687888c1.2348485 1.147149 2.2559191 1.016073 3.3396788.175457.215511-.167161 2.2499542-2.551804 2.5282582-2.733307"
       opacity=".4"
       id="path48" />
    <path
       d="m15.281248 11.666693c1.047349.303399 1.537169.516073 2.620929-.324543.215511-.167161 2.249954-2.551804 2.528258-2.733307"
       opacity=".4"
       id="path50" />
  </g>
  <g
     transform="matrix(0.73400013,0,0,0.73400013,11.632274,12.132274)"
     id="g384">
    <path
       style="display:block;fill:url(#a-3);stroke:url(#b-6);stroke-linejoin:round"
       inkscape:connector-curvature="0"
       d="M 16.798828,12.5 C 16.633564,12.5 16.5,12.711412 16.5,12.974609 v 0.763672 h -0.09766 l -1.123047,0.480469 -0.07227,0.07422 -0.552734,-0.552735 c -0.18611,-0.186109 -0.430016,-0.241858 -0.546875,-0.125 l -0.992188,0.992188 c -0.116858,0.116859 -0.06111,0.360765 0.125,0.546875 l 0.552735,0.552734 -0.07422,0.07227 -0.480469,1.123047 V 17 H 12.474609 C 12.211412,17 12,17.133564 12,17.298828 v 1.402344 C 12,18.866436 12.211412,19 12.474609,19 h 0.763672 v 0.105469 l 0.480469,1.123047 0.07031,0.06836 -0.548828,0.548828 c -0.186109,0.186109 -0.241858,0.430016 -0.125,0.546875 l 0.992188,0.992188 c 0.116859,0.116859 0.360765,0.06111 0.546875,-0.125 l 0.548828,-0.548828 0.07617,0.07812 1.123047,0.482422 H 16.5 v 0.753907 C 16.5,23.288589 16.633564,23.5 16.798828,23.5 h 1.402344 C 18.366436,23.5 18.5,23.288589 18.5,23.025391 v -0.753907 h 0.105469 l 1.123047,-0.482422 0.07227,-0.07422 0.544922,0.544922 c 0.18611,0.186108 0.430016,0.241859 0.546875,0.125 l 0.992188,-0.992188 c 0.116858,-0.116859 0.06111,-0.360766 -0.125,-0.546875 l -0.544922,-0.544922 0.07422,-0.07227 0.482422,-1.123047 V 19 h 0.753907 C 22.788588,19 23,18.866436 23,18.701172 V 17.298828 C 23,17.133564 22.788588,17 22.525391,17 h -0.753907 v -0.09766 l -0.482422,-1.123047 -0.07812,-0.07617 0.548828,-0.548828 c 0.186109,-0.18611 0.241858,-0.430016 0.125,-0.546875 l -0.992188,-0.992188 c -0.116859,-0.116858 -0.360765,-0.06111 -0.546875,0.125 l -0.548828,0.548828 -0.06836,-0.07031 -1.123047,-0.480469 H 18.5 V 12.974609 C 18.5,12.711412 18.366436,12.5 18.201172,12.5 Z m 0.705078,4 c 0.829457,0 1.503906,0.674449 1.503906,1.503906 10e-7,0.829457 -0.674449,1.503906 -1.503906,1.503906 C 16.674449,19.507813 16,18.833363 16,18.003906 16,17.174449 16.674449,16.5 17.503906,16.5 Z"
       display="block"
       transform="matrix(1.3623976,0,0,1.3623976,-15.847782,-16.528981)"
       id="path378" />
    <path
       style="opacity:0.05"
       inkscape:connector-curvature="0"
       d="M 8,3.465116 C 5.4994229,3.465116 3.4651163,5.499423 3.4651163,8 3.4651163,10.500577 5.4994229,12.534884 8,12.534884 10.500576,12.534883 12.534884,10.500577 12.534884,8 12.534884,5.499423 10.500576,3.465116 8,3.465116 Z M 8,5.55814 c 1.347907,0 2.44186,1.093953 2.44186,2.44186 0,1.347907 -1.093953,2.44186 -2.44186,2.44186 C 6.652093,10.44186 5.5581395,9.347907 5.5581395,8 5.5581395,6.652093 6.652093,5.55814 8,5.55814 Z"
       id="path380" />
    <path
       style="fill:none;stroke:url(#c-7);stroke-width:1.35227501"
       inkscape:connector-curvature="0"
       d="M 8.0000001,4 C 5.7943997,4 3.9999999,5.7944001 3.9999999,8.0000008 3.9999999,10.2056 5.7943997,12 8.0000001,12 10.2056,12 12,10.2056 12,8.0000008 12,5.7944001 10.2056,4 8.0000001,4 Z"
       id="path382" />
  </g>
</svg>
