<svg height="24" width="24" xmlns="http://www.w3.org/2000/svg" xmlns:xlink="http://www.w3.org/1999/xlink"><linearGradient id="a" gradientTransform="matrix(.0352071 0 0 .0082353 -.724852 18.980547)" gradientUnits="userSpaceOnUse" x1="302.85715" x2="302.85715" xlink:href="#n" y1="366.64789" y2="609.50507"/><radialGradient id="b" cx="605.71429" cy="486.64789" gradientTransform="matrix(-.01204859 0 0 .0082353 10.761206 18.980564)" gradientUnits="userSpaceOnUse" r="117.14286" xlink:href="#q"/><radialGradient id="c" cx="605.71429" cy="486.64789" gradientTransform="matrix(.01204859 0 0 .0082353 6.738793 18.980673)" gradientUnits="userSpaceOnUse" r="117.14286" xlink:href="#q"/><linearGradient id="d" gradientTransform="matrix(.48571543 0 0 .45629666 .342829 .348862)" gradientUnits="userSpaceOnUse" x1="25.132275" x2="25.132275" xlink:href="#l" y1=".985206" y2="47.013336"/><linearGradient id="e" gradientTransform="matrix(.40540511 0 0 .51351351 2.269687 -.32432)" gradientUnits="userSpaceOnUse" x1="23.99999" x2="24.001455" xlink:href="#s" y1="6.473675" y2="25.947361"/><linearGradient id="f" gradientTransform="matrix(.42307923 0 0 .39244743 3.84619 12.352884)" gradientUnits="userSpaceOnUse" spreadMethod="reflect" x1="25.525208" x2="25.525208" y1="35.429005" y2="15.737678"><stop offset="0" stop-color="#969696"/><stop offset=".5" stop-color="#858585" stop-opacity=".634783"/><stop offset="1" stop-color="#939393" stop-opacity="0"/></linearGradient><linearGradient id="g"><stop offset="0" stop-color="#fff"/><stop offset="1" stop-color="#fff" stop-opacity="0"/></linearGradient><linearGradient id="h" gradientTransform="matrix(.42307923 0 0 .39244743 3.84619 11.014342)" gradientUnits="userSpaceOnUse" spreadMethod="reflect" x1="25.525208" x2="25.525208" xlink:href="#g" y1="30.188753" y2="15.737678"/><linearGradient id="i" gradientTransform="matrix(.42223777 0 0 .41882295 3.90701 12.452607)" gradientUnits="userSpaceOnUse" x1="23.903786" x2="23.903786" y1="35.75" y2="20.443331"><stop offset="0"/><stop offset=".5" stop-opacity=".498039"/><stop offset="1" stop-opacity="0"/></linearGradient><linearGradient id="j" gradientTransform="matrix(.42307923 0 0 .39244743 3.84619 13.747128)" gradientUnits="userSpaceOnUse" spreadMethod="reflect" x1="25.525208" x2="25.525208" xlink:href="#g" y1="30.188753" y2="15.737678"/><linearGradient id="k" gradientTransform="matrix(.42307923 0 0 .39244743 3.84619 12.352884)" gradientUnits="userSpaceOnUse" spreadMethod="reflect" x1="25.525208" x2="25.525208" y1="30.188753" y2="15.737678"><stop offset="0" stop-color="#a0a0a0"/><stop offset=".5" stop-color="#8f8f8f" stop-opacity=".634783"/><stop offset="1" stop-color="#9d9d9d" stop-opacity="0"/></linearGradient><linearGradient id="l"><stop offset="0" stop-color="#f4f4f4"/><stop offset="1" stop-color="#dbdbdb"/></linearGradient><linearGradient id="m" gradientTransform="matrix(.40000003 0 0 .36363633 4.4 13.81818)" gradientUnits="userSpaceOnUse" x1="20.052792" x2="20.052792" xlink:href="#l" y1="10.636821" y2="45.243549"/><linearGradient id="n"><stop offset="0" stop-opacity="0"/><stop offset=".5"/><stop offset="1" stop-opacity="0"/></linearGradient><linearGradient id="o" gradientTransform="matrix(2.774389 0 0 1.969706 -1892.179 -872.8854)" gradientUnits="userSpaceOnUse" x1="302.85715" x2="302.85715" xlink:href="#n" y1="366.64789" y2="609.50507"/><radialGradient id="p" cx="605.71429" cy="486.64789" gradientTransform="matrix(2.774389 0 0 1.969706 -1891.633 -872.8854)" gradientUnits="userSpaceOnUse" r="117.14286" xlink:href="#q"/><linearGradient id="q"><stop offset="0"/><stop offset="1" stop-opacity="0"/></linearGradient><radialGradient id="r" cx="605.71429" cy="486.64789" gradientTransform="matrix(-2.774389 0 0 1.969706 112.7623 -872.8854)" gradientUnits="userSpaceOnUse" r="117.14286" xlink:href="#q"/><linearGradient id="s" gradientTransform="matrix(.40540511 0 0 .51351351 2.269687 -.32432)" gradientUnits="userSpaceOnUse" x1="23.99999" x2="24.001455" y1="6.473675" y2="25.947361"><stop offset="0" stop-color="#fff"/><stop offset="0" stop-color="#fff" stop-opacity=".235294"/><stop offset="1" stop-color="#fff" stop-opacity=".156863"/><stop offset="1" stop-color="#fff" stop-opacity=".392157"/></linearGradient><g transform="translate(-2)"><g transform="translate(0 -8.000085)"><path d="m3.500001 22 10.499999.000085v2l-10.499999-.000085z" fill="url(#a)" opacity=".15"/><path d="m3.4999999 22.000085v1.999891c-.6204724.0038-1.4999999-.448075-1.4999999-1.000075 0-.551999.6924-.999816 1.4999999-.999816z" fill="url(#b)" opacity=".15"/><path d="m14 22.000194v1.999891c.620472.0038 1.5-.448075 1.5-1.000075 0-.551999-.692402-.999816-1.5-.999816z" fill="url(#c)" opacity=".15"/></g><path d="m3.4999601 1.4999569c3.8955809 0 10.0000589.00136 10.0000589.00136l.000021 12.9987161h-10.0000795l-.0000004-13.0000538z" fill="url(#d)"/><g fill="none"><path d="m12.5 13.5h-8l-.0000004-11h8.0000004z" stroke="url(#s)" stroke-linecap="round"/><path d="m3.4999601 1.4999569c3.8955809 0 10.0000589.00136 10.0000589.00136l.000021 12.9987161h-10.0000795l-.0000004-13.0000538z" opacity=".3" stroke="#000" stroke-linejoin="round" stroke-width=".999922"/></g></g><path d="m4 3h8v12h-8z" opacity=".05"/><g transform="translate(2 3)"><g transform="translate(0 -8.000085)"><path d="m3.500001 22 10.499999.000085v2l-10.499999-.000085z" fill="url(#a)" opacity=".15"/><path d="m3.4999999 22.000085v1.999891c-.6204724.0038-1.4999999-.448075-1.4999999-1.000075 0-.551999.6924-.999816 1.4999999-.999816z" fill="url(#b)" opacity=".15"/><path d="m14 22.000194v1.999891c.620472.0038 1.5-.448075 1.5-1.000075 0-.551999-.692402-.999816-1.5-.999816z" fill="url(#c)" opacity=".15"/></g><path d="m3.4999601 1.4999569c3.8955809 0 10.0000589.00136 10.0000589.00136l.000021 12.9987161h-10.0000795l-.0000004-13.0000538z" fill="url(#d)"/><g fill="none"><path d="m12.5 13.5h-8l-.0000004-11h8.0000004z" stroke="url(#e)" stroke-linecap="round"/><path d="m3.4999601 1.4999569c3.8955809 0 10.0000589.00136 10.0000589.00136l.000021 12.9987161h-10.0000795l-.0000004-13.0000538z" opacity=".3" stroke="#000" stroke-linejoin="round" stroke-width=".999922"/></g></g><g transform="matrix(.72649942 0 0 .72649942 5.799428 .446502)"><g opacity=".7" transform="matrix(.01045062 0 0 .00543807 23.295153 30.21816)"><path d="m-1559.2523-150.69685h1339.6335v478.35718h-1339.6335z" fill="url(#o)" opacity=".39196"/><path d="m-219.61876-150.68038v478.33079c142.874166.90045 345.40022-107.16966 345.40014-239.196175 0-132.026537-159.436816-239.134595-345.40014-239.134615z" fill="url(#p)" opacity=".402062"/><path d="m-1559.2523-150.68038v478.33079c-142.8742.90045-345.4002-107.16966-345.4002-239.196175 0-132.026537 159.4368-239.134595 345.4002-239.134615z" fill="url(#r)" opacity=".402062"/></g><rect fill="url(#m)" fill-rule="evenodd" height="12" rx=".5" width="18" x="5" y="18"/><g fill="none" stroke-width="1.376464"><g><path d="m11.287789 24.849983-5.2497571 4.82257zm5.505854-.280216 5.221392 5.004423z" stroke="url(#k)"/><path d="m12.308398 25.865244-4.175554 3.802361zm3.797013-.32703 3.844789 3.810915z" opacity=".7" stroke="url(#j)"/><path d="m7.4264159 21.420414 6.6143001 5.494264 6.533049-5.494264" opacity=".06" stroke="url(#i)"/><path d="m6.4197241 18.557066 7.5803669 6.192934 7.463992-6.200594" opacity=".7" stroke="url(#h)"/></g><rect height="12.388174" opacity=".3" rx="1" stroke="#000" width="17.894028" x="5.093703" y="17.967665"/><path d="m5.2155719 18.774502 8.7845191 7.314042 8.917279-7.363225" stroke="url(#f)"/></g></g></svg>