<svg height="24" width="24" xmlns="http://www.w3.org/2000/svg" xmlns:xlink="http://www.w3.org/1999/xlink"><linearGradient id="a" gradientTransform="matrix(.0352071 0 0 .0082353 -.724852 18.980547)" gradientUnits="userSpaceOnUse" x1="302.85715" x2="302.85715" y1="366.64789" y2="609.50507"><stop offset="0" stop-opacity="0"/><stop offset=".5"/><stop offset="1" stop-opacity="0"/></linearGradient><radialGradient id="b" cx="605.71429" cy="486.64789" gradientTransform="matrix(-.01204859 0 0 .0082353 10.761206 18.980564)" gradientUnits="userSpaceOnUse" r="117.14286" xlink:href="#k"/><radialGradient id="c" cx="605.71429" cy="486.64789" gradientTransform="matrix(.01204859 0 0 .0082353 6.738793 18.980673)" gradientUnits="userSpaceOnUse" r="117.14286" xlink:href="#k"/><linearGradient id="d" gradientTransform="matrix(.48571543 0 0 .45629666 .342829 .348862)" gradientUnits="userSpaceOnUse" x1="25.132275" x2="25.132275" xlink:href="#g" y1=".985206" y2="47.013336"/><linearGradient id="e" gradientTransform="matrix(.40540511 0 0 .51351351 2.269687 -.32432)" gradientUnits="userSpaceOnUse" x1="23.99999" x2="24.001455" xlink:href="#l" y1="6.473675" y2="25.947361"/><linearGradient id="f" gradientTransform="matrix(.2857 0 0 .3042 3.095 11.213)" gradientUnits="userSpaceOnUse" x1="25.132" x2="25.132" xlink:href="#g" y1=".985" y2="47.013"/><linearGradient id="g"><stop offset="0" stop-color="#f4f4f4"/><stop offset="1" stop-color="#dbdbdb"/></linearGradient><linearGradient id="h" gradientTransform="matrix(.2432 0 0 .3513 4.114 2.548)" gradientUnits="userSpaceOnUse" x1="24" x2="24" y1="6.923" y2="41.077"><stop offset="0" stop-color="#fff"/><stop offset="0" stop-color="#fff" stop-opacity=".235"/><stop offset="1" stop-color="#fff" stop-opacity=".157"/><stop offset="1" stop-color="#fff" stop-opacity=".392"/></linearGradient><linearGradient id="i" gradientTransform="matrix(.2538 0 0 .305 21.082 2.295)" gradientUnits="userSpaceOnUse" x1="-51.785999" x2="-51.785999" y1="50.785999" y2="2.906"><stop offset="0" stop-opacity=".34"/><stop offset="1" stop-opacity=".247"/></linearGradient><linearGradient id="j" gradientUnits="userSpaceOnUse" x1="10.536" x2="10.54" y1="15.009" y2="7.433"><stop offset="0" stop-color="#fff"/><stop offset="1" stop-color="#fff" stop-opacity="0"/></linearGradient><linearGradient id="k"><stop offset="0"/><stop offset="1" stop-opacity="0"/></linearGradient><linearGradient id="l" gradientTransform="matrix(.40540511 0 0 .51351351 2.269687 -.32432)" gradientUnits="userSpaceOnUse" x1="23.99999" x2="24.001455" y1="6.473675" y2="25.947361"><stop offset="0" stop-color="#fff"/><stop offset="0" stop-color="#fff" stop-opacity=".235294"/><stop offset="1" stop-color="#fff" stop-opacity=".156863"/><stop offset="1" stop-color="#fff" stop-opacity=".392157"/></linearGradient><g transform="translate(-2)"><g transform="translate(0 -8.000085)"><path d="m3.500001 22 10.499999.000085v2l-10.499999-.000085z" fill="url(#a)" opacity=".15"/><path d="m3.4999999 22.000085v1.999891c-.6204724.0038-1.4999999-.448075-1.4999999-1.000075 0-.551999.6924-.999816 1.4999999-.999816z" fill="url(#b)" opacity=".15"/><path d="m14 22.000194v1.999891c.620472.0038 1.5-.448075 1.5-1.000075 0-.551999-.692402-.999816-1.5-.999816z" fill="url(#c)" opacity=".15"/></g><path d="m3.4999601 1.4999569c3.8955809 0 10.0000589.00136 10.0000589.00136l.000021 12.9987161h-10.0000795l-.0000004-13.0000538z" fill="url(#d)"/><g fill="none"><path d="m12.5 13.5h-8l-.0000004-11h8.0000004z" stroke="url(#l)" stroke-linecap="round"/><path d="m3.4999601 1.4999569c3.8955809 0 10.0000589.00136 10.0000589.00136l.000021 12.9987161h-10.0000795l-.0000004-13.0000538z" opacity=".3" stroke="#000" stroke-linejoin="round" stroke-width=".999922"/></g></g><path d="m4 3h8v12h-8z" opacity=".05"/><g transform="translate(2 3)"><g transform="translate(0 -8.000085)"><path d="m3.500001 22 10.499999.000085v2l-10.499999-.000085z" fill="url(#a)" opacity=".15"/><path d="m3.4999999 22.000085v1.999891c-.6204724.0038-1.4999999-.448075-1.4999999-1.000075 0-.551999.6924-.999816 1.4999999-.999816z" fill="url(#b)" opacity=".15"/><path d="m14 22.000194v1.999891c.620472.0038 1.5-.448075 1.5-1.000075 0-.551999-.692402-.999816-1.5-.999816z" fill="url(#c)" opacity=".15"/></g><path d="m3.4999601 1.4999569c3.8955809 0 10.0000589.00136 10.0000589.00136l.000021 12.9987161h-10.0000795l-.0000004-13.0000538z" fill="url(#d)"/><g fill="none"><path d="m12.5 13.5h-8l-.0000004-11h8.0000004z" stroke="url(#e)" stroke-linecap="round"/><path d="m3.4999601 1.4999569c3.8955809 0 10.0000589.00136 10.0000589.00136l.000021 12.9987161h-10.0000795l-.0000004-13.0000538z" opacity=".3" stroke="#000" stroke-linejoin="round" stroke-width=".999922"/></g></g><g transform="translate(7.048 .02)"><path d="m4.952 11.98h10l.048 11.02h-10z" fill="url(#f)"/><g fill="none" transform="translate(0 8)"><path d="m14.5 14.5h-9l-.048-10.02h9z" stroke="url(#h)" stroke-linecap="round"/><path d="m4.452 3.48h11l.048 12.02h-11z" stroke="url(#i)" stroke-linejoin="round"/><path d="m13.735 11-3.266 3.63-3.267-3.63h2.178v-3.645h2.178v3.645z" opacity=".6" stroke="url(#j)" stroke-linecap="round" stroke-width=".726"/></g><path d="m13.735 18-3.266 3.63-3.267-3.63h2.178v-3.645h2.178v3.645z" fill="#46a8ea" fill-opacity=".984" stroke="#2f78c8" stroke-linecap="round" stroke-width=".726"/></g></svg>