<svg xmlns="http://www.w3.org/2000/svg" xmlns:xlink="http://www.w3.org/1999/xlink" width="24" height="24"><defs><linearGradient x1="71.204" y1="6.238" x2="71.204" y2="44.341" id="l" xlink:href="#a" gradientUnits="userSpaceOnUse" gradientTransform="matrix(.5135 0 0 .5135 -24.836 -1.02)"/><linearGradient id="a"><stop offset="0" stop-color="#fff"/><stop offset=".508" stop-color="#fff" stop-opacity=".235"/><stop offset=".835" stop-color="#fff" stop-opacity=".157"/><stop offset="1" stop-color="#fff" stop-opacity=".392"/></linearGradient><linearGradient id="c"><stop offset="0" stop-color="#185f9a"/><stop offset="1" stop-color="#599ec9"/></linearGradient><radialGradient cx="6.069" cy="8.45" r="20" fx="6.069" fy="8.45" id="j" xlink:href="#b" gradientUnits="userSpaceOnUse" gradientTransform="matrix(0 1.14688 -1.21326 0 22.252 -6.943)"/><linearGradient id="b"><stop offset="0" stop-color="#90dbec"/><stop offset=".262" stop-color="#42baea"/><stop offset=".705" stop-color="#3689e6"/><stop offset="1" stop-color="#2b63a0"/></linearGradient><linearGradient x1="24" y1="44" x2="24" y2="3.899" id="k" xlink:href="#c" gradientUnits="userSpaceOnUse" gradientTransform="translate(-.924 -.924) scale(.5385)"/><linearGradient id="d"><stop offset="0"/><stop offset="1" stop-opacity="0"/></linearGradient><radialGradient cx="62.625" cy="4.625" r="10.625" fx="62.625" fy="4.625" id="i" xlink:href="#d" gradientUnits="userSpaceOnUse" gradientTransform="matrix(1.1294 0 0 .28235 -58.73 19.694)"/><linearGradient id="e"><stop offset="0" stop-color="#185f9a"/><stop offset="1" stop-color="#599ec9"/></linearGradient><linearGradient id="f"><stop offset="0" stop-color="#3d3d3d"/><stop offset=".5" stop-color="#686868" stop-opacity=".498"/><stop offset="1" stop-color="#686868" stop-opacity="0"/></linearGradient><linearGradient x1="27.925" y1="15.149" x2="33.448" y2="22.986" id="m" xlink:href="#g" gradientUnits="userSpaceOnUse" gradientTransform="matrix(.51822 0 0 .51822 -.448 -.545)"/><linearGradient id="g"><stop offset="0" stop-color="#f8b17e"/><stop offset=".232" stop-color="#e35d4f"/><stop offset=".591" stop-color="#c6262e"/><stop offset="1" stop-color="#690b54"/></linearGradient><linearGradient x1="21.014" y1="25.434" x2="22.806" y2="27.344" id="n" xlink:href="#h" gradientUnits="userSpaceOnUse" gradientTransform="matrix(.51822 0 0 .51822 -.448 -.545)"/><linearGradient id="h"><stop offset="0" stop-color="#fff"/><stop offset="1" stop-color="#c1c1c1"/></linearGradient><linearGradient x1="24" y1="22" x2="24" y2="26" id="o" xlink:href="#h" gradientUnits="userSpaceOnUse" gradientTransform="matrix(.5 0 0 .5 0 0)"/></defs><path d="M24 21c0 1.657-5.373 3-12 3S0 22.657 0 21s5.373-3 12-3 12 1.343 12 3z" overflow="visible" opacity=".3" fill="url(#i)" fill-rule="evenodd"/><path d="M12 1.5C6.206 1.5 1.5 6.206 1.5 12S6.206 22.5 12 22.5 22.5 17.794 22.5 12 17.794 1.5 12 1.5z" color="#000" overflow="visible" fill="url(#j)" stroke="url(#k)" stroke-linecap="round" stroke-linejoin="round"/><path d="M21.5 12c0 5.247-4.254 9.5-9.5 9.5-5.247 0-9.5-4.254-9.5-9.5 0-5.247 4.253-9.5 9.5-9.5 5.246 0 9.5 4.253 9.5 9.5z" color="#000" overflow="visible" opacity=".5" fill="none" stroke="url(#l)" stroke-linecap="round" stroke-linejoin="round"/><path d="M18.516 5.398a.42.42 0 0 0-.194.098l-7.32 5.862a.42.42 0 0 0-.065.065l-5.862 7.32a.42.42 0 0 0 .583.582l7.32-5.862a.42.42 0 0 0 .064-.065l5.862-7.32a.42.42 0 0 0-.388-.68z" color="#000" overflow="visible" opacity=".05"/><path d="M18.58 5.82l-7.32 5.862-5.862 7.32 7.32-5.863 5.863-7.32z" color="#000" overflow="visible" opacity=".15"/><path d="M11 11l2 2 5.585-7.704z" fill="url(#m)"/><path d="M11 11l2 2-7.606 5.488z" color="#000" overflow="visible" fill="url(#n)"/><path d="M13.25 12.25a1.25 1.25 0 0 1-2.5 0 1.25 1.25 0 1 1 2.5 0z" color="#000" overflow="visible" opacity=".2"/><path d="M11.636 12.272a.518.518 0 0 1 .352-.898l.002.518z" color="#000" overflow="visible" opacity=".05" fill="#fff"/><path d="M13 12.25a1 1 0 0 1-2 0 1 1 0 1 1 2 0z" color="#000" overflow="visible" opacity=".2"/><path d="M13 12a1 1 0 0 1-2 0 1 1 0 1 1 2 0z" color="#000" overflow="visible" fill="url(#o)"/></svg>