<?xml version="1.0" encoding="UTF-8" standalone="no"?>
<svg
   xmlns:dc="http://purl.org/dc/elements/1.1/"
   xmlns:cc="http://creativecommons.org/ns#"
   xmlns:rdf="http://www.w3.org/1999/02/22-rdf-syntax-ns#"
   xmlns:svg="http://www.w3.org/2000/svg"
   xmlns="http://www.w3.org/2000/svg"
   xmlns:xlink="http://www.w3.org/1999/xlink"
   xmlns:sodipodi="http://sodipodi.sourceforge.net/DTD/sodipodi-0.dtd"
   xmlns:inkscape="http://www.inkscape.org/namespaces/inkscape"
   width="24"
   height="24"
   viewBox="0 0 6.3499999 6.3500002"
   version="1.1"
   id="svg938"
   sodipodi:docname="lc_orientation.svg"
   inkscape:version="0.92.3 (unknown)">
  <metadata
     id="metadata942">
    <rdf:RDF>
      <cc:Work
         rdf:about="">
        <dc:format>image/svg+xml</dc:format>
        <dc:type
           rdf:resource="http://purl.org/dc/dcmitype/StillImage" />
      </cc:Work>
    </rdf:RDF>
  </metadata>
  <sodipodi:namedview
     pagecolor="#ffffff"
     bordercolor="#666666"
     borderopacity="1"
     objecttolerance="10"
     gridtolerance="10"
     guidetolerance="10"
     inkscape:pageopacity="0"
     inkscape:pageshadow="2"
     inkscape:window-width="1366"
     inkscape:window-height="706"
     id="namedview940"
     showgrid="false"
     inkscape:zoom="9.8333333"
     inkscape:cx="-1.0677966"
     inkscape:cy="11.186441"
     inkscape:window-x="0"
     inkscape:window-y="0"
     inkscape:window-maximized="1"
     inkscape:current-layer="svg938" />
  <defs
     id="defs912">
    <linearGradient
       id="f"
       gradientTransform="matrix(.01058 0 0 0 -.19 295.672)"
       gradientUnits="userSpaceOnUse"
       x1="302.857"
       x2="302.857"
       y1="366.648"
       y2="609.505">
      <stop
         offset="0"
         stop-opacity="0"
         id="stop847" />
      <stop
         offset=".5"
         id="stop849" />
      <stop
         offset="1"
         stop-opacity="0"
         id="stop851" />
    </linearGradient>
    <radialGradient
       id="g"
       cx="605.714"
       cy="486.648"
       gradientTransform="matrix(0 0 0 0 2.847 295.672)"
       gradientUnits="userSpaceOnUse"
       r="117.143"
       xlink:href="#a" />
    <linearGradient
       id="a">
      <stop
         offset="0"
         id="stop855" />
      <stop
         offset="1"
         stop-opacity="0"
         id="stop857" />
    </linearGradient>
    <radialGradient
       id="j"
       cx="605.714"
       cy="486.648"
       gradientTransform="matrix(0 0 0 0 3.503 295.672)"
       gradientUnits="userSpaceOnUse"
       r="117.143"
       xlink:href="#a" />
    <linearGradient
       id="h"
       gradientTransform="matrix(.1323 0 0 .1217 .09 290.743)"
       gradientUnits="userSpaceOnUse"
       x1="25.132"
       x2="25.132"
       y1=".985"
       y2="47.013">
      <stop
         offset="0"
         stop-color="#f4f4f4"
         id="stop861" />
      <stop
         offset="1"
         stop-color="#dbdbdb"
         id="stop863" />
    </linearGradient>
    <linearGradient
       id="i"
       gradientTransform="matrix(.1058 0 0 .1323 .6 290.565)"
       gradientUnits="userSpaceOnUse"
       x1="24"
       x2="24"
       y1="6.474"
       y2="41.526">
      <stop
         offset="0"
         stop-color="#fff"
         id="stop866" />
      <stop
         offset="0"
         stop-color="#fff"
         stop-opacity=".235"
         id="stop868" />
      <stop
         offset="1"
         stop-color="#fff"
         stop-opacity=".157"
         id="stop870" />
      <stop
         offset="1"
         stop-color="#fff"
         stop-opacity=".392"
         id="stop872" />
    </linearGradient>
    <linearGradient
       id="b">
      <stop
         offset="0"
         stop-color="#fff"
         id="stop875" />
      <stop
         offset=".063"
         stop-color="#fff"
         stop-opacity=".235"
         id="stop877" />
      <stop
         offset=".951"
         stop-color="#fff"
         stop-opacity=".157"
         id="stop879" />
      <stop
         offset="1"
         stop-color="#fff"
         stop-opacity=".392"
         id="stop881" />
    </linearGradient>
    <radialGradient
       gradientTransform="matrix(.15 0 0 .04 -4.59 296.34)"
       gradientUnits="userSpaceOnUse"
       xlink:href="#a"
       id="k"
       fy="4.625"
       fx="62.625"
       r="10.625"
       cy="4.625"
       cx="62.625" />
    <linearGradient
       xlink:href="#c"
       id="l"
       gradientUnits="userSpaceOnUse"
       gradientTransform="matrix(.13 0 0 .1 -261.43 -13.52)"
       x1="2082.573"
       y1="3213.947"
       x2="2082.573"
       y2="3247.298" />
    <linearGradient
       id="c">
      <stop
         offset="0"
         stop-color="#64baff"
         id="stop886" />
      <stop
         offset="1"
         stop-color="#3689e6"
         id="stop888" />
    </linearGradient>
    <linearGradient
       y2="33.39"
       x2="26.435"
       y1="27.803"
       x1="30.027"
       gradientTransform="matrix(.1 0 0 .1 2.4 291.3)"
       gradientUnits="userSpaceOnUse"
       id="m"
       xlink:href="#d" />
    <linearGradient
       id="d">
      <stop
         offset="0"
         stop-color="#fff"
         id="stop892" />
      <stop
         offset="0"
         stop-color="#fff"
         stop-opacity=".235"
         id="stop894" />
      <stop
         offset=".539"
         stop-color="#fff"
         stop-opacity=".157"
         id="stop896" />
      <stop
         offset="1"
         stop-color="#fff"
         stop-opacity=".392"
         id="stop898" />
    </linearGradient>
    <linearGradient
       xlink:href="#e"
       id="n"
       gradientUnits="userSpaceOnUse"
       gradientTransform="matrix(.1 0 0 .1 5.8 291.2)"
       x1="-6.388"
       y1="22.767"
       x2="-6.388"
       y2="39.523" />
    <linearGradient
       id="e">
      <stop
         offset="0"
         stop-color="#fff"
         id="stop902" />
      <stop
         offset=".5"
         stop-color="#fff"
         stop-opacity=".235"
         id="stop904" />
      <stop
         offset=".75"
         stop-color="#fff"
         stop-opacity=".157"
         id="stop906" />
      <stop
         offset="1"
         stop-color="#fff"
         stop-opacity=".392"
         id="stop908" />
    </linearGradient>
    <linearGradient
       xlink:href="#e"
       id="o"
       gradientUnits="userSpaceOnUse"
       gradientTransform="matrix(.1 0 0 .1 5.5 292.3)"
       x1="-2.85"
       y1="39.397"
       x2="-2.85"
       y2="22.916" />
  </defs>
  <path
     d="M.926 296.47h4.498v.53H.926z"
     opacity=".15"
     fill="url(#f)"
     transform="translate(0 -290.6)"
     id="path914" />
  <path
     d="M.926 296.47v.53c-.164 0-.397-.12-.397-.265 0-.146.18-.264.395-.264z"
     opacity=".15"
     fill="url(#g)"
     transform="translate(0 -290.6)"
     id="path916" />
  <path
     d="M.926 291.047h4.498v5.556H.926z"
     fill="url(#h)"
     transform="translate(0 -290.6)"
     id="path918" />
  <path
     d="M5.16 296.34H1.19v-5.03h3.97z"
     fill="none"
     stroke="url(#i)"
     stroke-width=".265"
     stroke-linecap="round"
     transform="translate(0 -290.6)"
     id="path920" />
  <path
     d="M.912.392H5.41v5.556H.912z"
     opacity=".3"
     fill="none"
     stroke="#000"
     stroke-width=".265"
     stroke-linejoin="round"
     id="path922" />
  <g
     id="g1547">
    <path
       id="path924"
       transform="translate(0 -290.6)"
       fill="url(#j)"
       opacity=".15"
       d="M5.424 296.47v.53c.164 0 .397-.12.397-.265 0-.146-.18-.264-.395-.264z" />
    <path
       id="path926"
       transform="translate(0 -290.6)"
       fill-rule="evenodd"
       fill="url(#k)"
       opacity=".3"
       d="M6.35 296.55c0 .263-.71.476-1.587.476s-1.588-.213-1.588-.476.71-.476 1.587-.476 1.588.213 1.588.476z"
       overflow="visible" />
    <path
       id="path928"
       transform="translate(0 -290.6)"
       fill="url(#l)"
       opacity=".99"
       d="M4.842 293.455v.478c-.027 0-.053-.003-.08-.003-.745 0-1.35.605-1.35 1.35 0 .745.605 1.35 1.35 1.35.715 0 1.305-.558 1.347-1.27h-.64c-.005.042-.014.082-.026.12l-.004.014c-.01.037-.026.073-.043.107l-.01.018c-.017.032-.037.063-.06.093l-.012.016c-.023.03-.048.057-.076.082l-.014.012c-.03.023-.06.047-.093.067l-.008.004c-.032.02-.066.038-.1.05l-.013.008c-.036.013-.072.023-.11.03-.006.003-.013.004-.02.005-.04.007-.083.012-.126.012-.048 0-.095-.005-.14-.015 0 0-.002 0-.003-.002H4.61c-.043-.01-.086-.023-.126-.04l-.01-.004c-.04-.017-.076-.037-.11-.06l-.008-.004c-.035-.024-.068-.052-.1-.082l-.005-.007c-.03-.027-.055-.06-.08-.094l-.01-.012c-.02-.033-.04-.067-.055-.103l-.01-.02c-.015-.037-.027-.076-.035-.115l-.004-.02c-.008-.043-.013-.088-.013-.135 0-.05.005-.097.014-.143l.002-.005c.01-.043.02-.086.04-.126l.003-.01c.017-.04.037-.077.06-.112l.004-.006c.024-.035.052-.068.082-.098l.006-.007c.028-.03.06-.056.095-.08l.013-.01c.033-.02.068-.04.104-.056l.022-.01c.036-.014.074-.026.114-.034l.02-.004c.042-.01.088-.016.134-.016.028 0 .054.002.08.005v.47l1.233-.794z" />
    <path
       id="path930"
       transform="translate(0 -290.6)"
       stroke-width=".26"
       stroke="url(#m)"
       fill="none"
       solid-color="#000000"
       opacity=".5"
       color="#000"
       d="M5 294.188v-.443l.782.506-.783.5v-.4"
       style="isolation:auto;mix-blend-mode:normal"
       overflow="visible" />
    <path
       id="path932"
       transform="translate(0 -290.6)"
       stroke-width=".26"
       stroke="url(#n)"
       fill="none"
       opacity=".5"
       d="M5.936 295.446a1.187 1.187 0 0 1-1.33 1.016 1.187 1.187 0 0 1-1.026-1.32 1.187 1.187 0 0 1 1.313-1.038" />
    <path
       id="path934"
       stroke-linejoin="round"
       stroke-linecap="round"
       stroke-width=".26"
       stroke="#002e99"
       fill="none"
       opacity=".5"
       d="M4.842 2.805v.478c-.027 0-.053-.003-.08-.003-.745 0-1.35.605-1.35 1.35 0 .745.605 1.35 1.35 1.35.715 0 1.305-.558 1.347-1.27h-.64c-.005.042-.014.082-.026.12l-.004.014c-.01.037-.026.073-.043.107l-.01.018c-.017.032-.037.063-.06.093l-.012.017c-.023.03-.048.056-.076.08l-.014.013c-.03.024-.06.047-.093.067l-.008.005c-.032.02-.066.036-.1.05l-.013.005c-.036.015-.072.024-.11.032l-.02.003c-.04.007-.083.012-.126.012-.048 0-.095-.005-.14-.015H4.61c-.043-.01-.085-.02-.125-.038l-.012-.004c-.04-.018-.077-.037-.112-.06l-.005-.004c-.036-.024-.07-.052-.1-.082l-.006-.007c-.03-.03-.057-.062-.08-.096l-.01-.015c-.02-.033-.04-.068-.057-.105L4.1 4.9c-.015-.036-.027-.075-.036-.114l-.005-.02c-.01-.042-.015-.087-.015-.134 0-.05.005-.096.015-.142v-.005c.01-.043.023-.085.04-.126l.004-.01c.017-.04.037-.08.06-.114l.005-.006c.02-.034.05-.067.08-.098l.006-.007c.03-.03.062-.055.096-.08l.012-.008c.033-.023.068-.04.104-.057l.02-.01c.037-.014.076-.026.115-.035l.02-.004c.044-.006.09-.01.135-.01.027 0 .054 0 .08.004v.472L6.073 3.6z" />
    <path
       id="path936"
       transform="translate(0 -290.6)"
       stroke-width=".26"
       stroke="url(#o)"
       fill="none"
       opacity=".5"
       d="M5.996 295.518h-.39c-.123.432-.557.706-1.006.62-.472-.09-.783-.543-.697-1.016.087-.473.538-.787 1.012-.704" />
  </g>
</svg>
