<?xml version="1.0" encoding="UTF-8" standalone="no"?>
<svg
   xmlns:dc="http://purl.org/dc/elements/1.1/"
   xmlns:cc="http://creativecommons.org/ns#"
   xmlns:rdf="http://www.w3.org/1999/02/22-rdf-syntax-ns#"
   xmlns:svg="http://www.w3.org/2000/svg"
   xmlns="http://www.w3.org/2000/svg"
   xmlns:sodipodi="http://sodipodi.sourceforge.net/DTD/sodipodi-0.dtd"
   xmlns:inkscape="http://www.inkscape.org/namespaces/inkscape"
   viewBox="0 0 24 24"
   version="1.1"
   id="svg12"
   sodipodi:docname="lc_outlinecollapse.svg"
   inkscape:export-filename="/home/rizmut/Documents/Rizmut/Github/libreoffice-style-elementary/images_elementary/cmd/lc_outlinecollapseall.png"
   inkscape:export-xdpi="180"
   inkscape:export-ydpi="180"
   inkscape:version="0.92.3 (2405546, 2018-03-11)">
  <metadata
     id="metadata18">
    <rdf:RDF>
      <cc:Work
         rdf:about="">
        <dc:format>image/svg+xml</dc:format>
        <dc:type
           rdf:resource="http://purl.org/dc/dcmitype/StillImage" />
        <dc:title></dc:title>
      </cc:Work>
    </rdf:RDF>
  </metadata>
  <defs
     id="defs16" />
  <sodipodi:namedview
     pagecolor="#ffffff"
     bordercolor="#666666"
     borderopacity="1"
     objecttolerance="10"
     gridtolerance="10"
     guidetolerance="10"
     inkscape:pageopacity="0"
     inkscape:pageshadow="2"
     inkscape:window-width="1366"
     inkscape:window-height="696"
     id="namedview14"
     showgrid="true"
     inkscape:zoom="16"
     inkscape:cx="3.0375084"
     inkscape:cy="14.013605"
     inkscape:window-x="0"
     inkscape:window-y="0"
     inkscape:window-maximized="1"
     inkscape:current-layer="svg12">
    <inkscape:grid
       type="xygrid"
       id="grid828"
       spacingx="0.5"
       spacingy="0.5" />
  </sodipodi:namedview>
  <rect
     height="2"
     ry="0.50000012"
     width="10"
     x="9"
     y="7.9999971"
     id="rect840"
     style="opacity:0.35;fill:#ffffff;fill-opacity:0.977941;stroke-width:1.33333004" />
  <rect
     style="opacity:0.35;fill:#ffffff;fill-opacity:0.977941;stroke-width:1.33333004"
     id="rect838"
     y="18"
     x="9"
     width="10"
     ry="0.50000012"
     height="2" />
  <rect
     style="opacity:0.35;fill:#ffffff;fill-opacity:0.977941;stroke-width:1.33333004"
     id="rect2"
     y="4"
     x="9"
     width="14"
     ry="0.50000012"
     height="2" />
  <path
     d="m 9.5,7.0000004 c -0.2761309,2.76e-5 -0.4999724,0.2238691 -0.5,0.5 v 0.9980469 0.00195 c 2.57e-5,0.2768954 0.2250597,0.5010538 0.5019531,0.5 C 12.501443,8.9899973 15.499491,9.009992 18.5,9 18.775368,8.998897 18.998021,8.7753704 18.998047,8.5000004 L 19,7.4999973 c -2.8e-5,-0.2761309 -0.223869,-0.4999724 -0.5,-0.5 h -9 z"
     id="path2"
     inkscape:connector-curvature="0"
     style="fill-opacity:0.65882401"
     sodipodi:nodetypes="ccccccccccc" />
  <path
     d="m 9.5000001,3.4999514 v 0.998047 0.002 C 13.833334,4.4899984 18.166667,4.51 22.5,4.5 V 3.4999994 H 9.5000001 Z"
     id="path4"
     inkscape:connector-curvature="0"
     style="fill:#ce5c00;stroke:#ce5c00;stroke-linecap:round;stroke-linejoin:round"
     sodipodi:nodetypes="ccccccc" />
  <rect
     height="2"
     ry="0.50000012"
     width="14"
     x="9"
     y="14"
     id="rect836"
     style="opacity:0.35;fill:#ffffff;fill-opacity:0.977941;stroke-width:1.33333004" />
  <path
     d="m9.5 13 .00781.0078a.50005.50005 0 0 0 -.029297 0 .50005.50005 0 0 0 -.050781.0039.50005.50005 0 0 0 -.095703.02539.50005.50005 0 0 0 -.2050781.136719.50005.50005 0 0 0 -.03125.03906.50005.50005 0 0 0 -.027344.04297.50005.50005 0 0 0 -.023437.04297.50005.50005 0 0 0 -.017578.04687.50005.50005 0 0 0 -.023438.09766.50005.50005 0 0 0 -.0039.05666v.998047.002a.50005.50005 0 0 0 .5019531.5c4.332979-.01 8.666313-.01539 13-.02539a.50005.50005 0 0 0 .498047-.500001v-.974609a.50005.50005 0 0 0 -.5-.5h-13.0000001z"
     fill="#ce5c00"
     id="path6"
     style="fill:#272727;fill-opacity:0.7764706" />
  <path
     d="m 9.5,17 0.00781,0.0078 c -0.00976,-2.86e-4 -0.019533,-2.86e-4 -0.029297,0 -0.016982,4.37e-4 -0.033931,0.0017 -0.050781,0.0039 -0.032662,0.0053 -0.06472,0.01378 -0.095703,0.02539 -0.078696,0.02775 -0.1491968,0.07475 -0.2050781,0.136719 -0.011062,0.01249 -0.021491,0.02553 -0.03125,0.03906 -0.00984,0.01385 -0.018965,0.02819 -0.027344,0.04297 -0.00851,0.01393 -0.016331,0.02827 -0.023437,0.04297 -0.00664,0.01532 -0.012505,0.03096 -0.017578,0.04687 -0.01107,0.03168 -0.018923,0.0644 -0.023438,0.09766 -0.00237,0.0188 -0.00367,0.03771 -0.0039,0.05666 v 0.998047 0.002 c 2.57e-5,0.276895 0.2250597,0.501054 0.5019531,0.5 2.99949,-0.01 5.997534,0.0099 8.998043,-4.6e-5 0.275368,-0.0011 0.499975,-0.224629 0.5,-0.5 l 4e-6,-0.999954 c -2.8e-5,-0.276131 -0.225826,-0.474628 -0.501957,-0.474656 l -8.9980431,-0.02534 z"
     id="path8"
     inkscape:connector-curvature="0"
     style="fill-opacity:0.65882401"
     sodipodi:nodetypes="ccccccccccccccccccccc" />
  <path
     d="m4.0000003 4.5000009-3.0000003 4h6.0000003z"
     fill="#fcaf3e"
     stroke="#ce5c00"
     id="path10" />
</svg>
