<svg xmlns="http://www.w3.org/2000/svg" xmlns:xlink="http://www.w3.org/1999/xlink" height="24" width="24"><defs><linearGradient id="a"><stop offset="0" stop-opacity=".318"/><stop offset="1" stop-opacity=".24"/></linearGradient><linearGradient id="b"><stop offset="0" stop-color="#fff"/><stop offset="0" stop-color="#fff" stop-opacity=".235"/><stop offset="1" stop-color="#fff" stop-opacity=".157"/><stop offset="1" stop-color="#fff" stop-opacity=".392"/></linearGradient><linearGradient id="c"><stop offset="0" stop-color="#fff"/><stop offset="0" stop-color="#fff" stop-opacity=".235"/><stop offset="1" stop-color="#fff" stop-opacity=".157"/><stop offset="1" stop-color="#fff" stop-opacity=".392"/></linearGradient><linearGradient id="d"><stop offset="0" stop-color="#f4f4f4"/><stop offset="1" stop-color="#dbdbdb"/></linearGradient><linearGradient id="e"><stop offset="0"/><stop offset="1" stop-opacity="0"/></linearGradient><linearGradient id="f"><stop offset="0" stop-opacity="0"/><stop offset=".5"/><stop offset="1" stop-opacity="0"/></linearGradient><linearGradient y2="2.906" x2="-51.786" y1="50.786" x1="-51.786" gradientTransform="matrix(.3746 0 0 .37083 29.393 2.44)" gradientUnits="userSpaceOnUse" id="r" xlink:href="#a"/><linearGradient y2="41.267" x2="24" y1="6.733" x1="24" gradientTransform="matrix(.66892 0 0 .4054 -1.18 3.27)" gradientUnits="userSpaceOnUse" id="q" xlink:href="#b"/><linearGradient y2="41.267" x2="37.633" y1="6.733" x1="37.633" gradientTransform="matrix(.5135 0 0 .4054 -.325 3.27)" gradientUnits="userSpaceOnUse" id="o" xlink:href="#c"/><linearGradient y2="47.013" x2="25.132" y1=".985" x1="25.132" gradientTransform="matrix(.457 0 0 .3477 3.03 4.123)" gradientUnits="userSpaceOnUse" id="n" xlink:href="#d"/><radialGradient r="117.143" fy="486.648" fx="605.714" cy="486.648" cx="605.714" gradientTransform="matrix(.0132 0 0 .0082 13.363 17.98)" gradientUnits="userSpaceOnUse" id="m" xlink:href="#e"/><radialGradient r="117.143" fy="486.648" fx="605.714" cy="486.648" cx="605.714" gradientTransform="matrix(-.0132 0 0 .0082 10.637 17.98)" gradientUnits="userSpaceOnUse" id="l" xlink:href="#e"/><linearGradient y2="609.505" x2="302.857" y1="366.648" x1="302.857" gradientTransform="matrix(.0387 0 0 .0082 -1.997 17.98)" gradientUnits="userSpaceOnUse" id="k" xlink:href="#f"/><linearGradient id="g"><stop offset="0" stop-color="#ffa154"/><stop offset="1" stop-color="#f37329"/></linearGradient><linearGradient gradientUnits="userSpaceOnUse" y2="21.517" x2="4" y1="4.559" x1="4" id="p" xlink:href="#g"/><linearGradient id="i"><stop offset="0" stop-color="#cdf87e"/><stop offset=".262" stop-color="#a2e34f"/><stop offset=".661" stop-color="#68b723"/><stop offset="1" stop-color="#1d7e0d"/></linearGradient><mask id="u"><path d="M303.54 125.905h23.376v22.5H303.54z" fill="url(#h)"/></mask><linearGradient id="h" gradientUnits="userSpaceOnUse" x1="316.472" x2="317.624" y1="138.897" y2="141.195"><stop offset="0" stop-color="#fff"/><stop offset="1"/></linearGradient><linearGradient id="v" gradientTransform="matrix(.7812 -.0348 -.0348 .7812 70.23 94.32)" gradientUnits="userSpaceOnUse" x1="309.297" x2="335.3" y1="67.298" y2="81.926"><stop offset="0" stop-color="#d3d7cf"/><stop offset=".183" stop-color="#babdb6"/><stop offset=".319" stop-color="#fff"/><stop offset=".876" stop-color="#babdb6"/><stop offset="1" stop-color="#eeeeec"/></linearGradient><linearGradient id="w" gradientTransform="matrix(.7812 -.0348 -.0348 .7812 70.23 94.32)" gradientUnits="userSpaceOnUse" x1="324.497" x2="330.061" y1="70.282" y2="99.274"><stop offset="0" stop-color="#888a85"/><stop offset="1" stop-color="#555753"/></linearGradient><linearGradient id="x" gradientTransform="matrix(.802 0 0 .796 69.747 998.182)" gradientUnits="userSpaceOnUse" x1="302.292" x2="308.649" y1="58.443" y2="60.768"><stop offset="0" stop-color="#babdb6"/><stop offset="1" stop-color="#fff"/></linearGradient><radialGradient gradientTransform="matrix(0 .615 -.67 0 41.292 -38.28)" gradientUnits="userSpaceOnUse" xlink:href="#i" id="s" fy="48.19" fx="65.08" r="31" cy="48.19" cx="65.08"/><linearGradient id="j"><stop offset="0" stop-color="#fff"/><stop offset=".002" stop-color="#fff" stop-opacity=".235"/><stop offset=".392" stop-color="#fff" stop-opacity=".157"/><stop offset="1" stop-color="#fff" stop-opacity=".392"/></linearGradient><linearGradient id="t" gradientTransform="matrix(.217 0 0 .205 1.97 4.495)" gradientUnits="userSpaceOnUse" x1="34.404" x2="13.759" y1="14.66" y2="46.874"><stop offset="0" stop-color="#fff"/><stop offset="1" stop-color="#fff" stop-opacity="0"/></linearGradient></defs><path opacity=".15" fill="url(#k)" overflow="visible" d="M2.65 21h18.7v2H2.65z"/><path d="M2.65 21v2c-.683.004-1.65-.448-1.65-1s.762-1 1.65-1z" opacity=".15" fill="url(#l)" overflow="visible"/><path d="M21.35 21v2c.683.004 1.65-.448 1.65-1s-.762-1-1.65-1z" opacity=".15" fill="url(#m)" overflow="visible"/><path d="M5 5h17v16H5V5z" fill="url(#n)"/><path d="M21.5 20.5h-19v-15h19z" fill="none" stroke="url(#o)" stroke-linecap="square"/><path d="M2 4.5c-.277 0-.5.223-.5.5v16c0 .277.223.5.5.5h3v-17z" color="#000" fill="url(#p)" overflow="visible"/><path d="M4.5 20.5h-2v-15h2" opacity=".5" fill="none" stroke="url(#q)" stroke-linecap="square"/><path d="M6 7.5h4m1 0h2m1 0h1m1 0h2m-12 4h2m-2 2h1m-1 2h2m-2 2h2m0-4h1m0 4h1" fill="none" stroke="#aaa"/><path d="M5 21.5h17.5v-17H5" color="#000" overflow="visible" fill="none" stroke="url(#r)" stroke-linejoin="round"/><path d="M5 21.5H1.5v-17H5" style="font-variant-east_asian:normal" opacity=".4" color="#000" fill="none" stroke="#cc3b02" stroke-linejoin="round" overflow="visible"/><path d="M20 14a4 4 0 1 1-2.116-3.53L16 14z" style="isolation:auto;mix-blend-mode:normal;font-variant-east_asian:normal" color="#000" overflow="visible" opacity=".5" solid-color="#000000" fill="url(#p)"/><path style="isolation:auto;mix-blend-mode:normal;font-variant-east_asian:normal" d="M20 14.012c0 1.734-1.26 3.392-2.933 3.854-1.67.463-3.605-.31-4.497-1.798-.007.007 3.43-2.056 3.43-2.056z" color="#000" overflow="visible" opacity=".5" solid-color="#000000" fill="url(#p)"/><path style="isolation:auto;mix-blend-mode:normal;font-variant-east_asian:normal" d="M20 14c0 1.734-1.26 3.392-2.933 3.855C17.027 17.848 16 14 16 14z" color="#000" overflow="visible" solid-color="#000000" fill="url(#p)"/><g color="#000"><path style="isolation:auto;mix-blend-mode:normal" d="M3.506 14.54v-10l9 5z" overflow="visible" transform="translate(9.994 7.96)" solid-color="#000000" fill="url(#s)"/><path style="isolation:auto;mix-blend-mode:normal" d="M13.5 22.5v-10l9 5z" overflow="visible" opacity=".5" solid-color="#000000" fill="none" stroke="#0f5a00" stroke-linecap="round" stroke-linejoin="round"/><path d="M3.506 12.818V6.24l5.8 3.28z" opacity=".41" fill="none" stroke="url(#t)" stroke-linecap="round" transform="translate(10.994 7.96)"/></g><path d="M7.79 13.09c.046.012.075.04.108.08.066.076.1.186.054.27L6.74 15.726c-.108.206-.04.494.162.78.204.29.524.594.942.836.42.24.843.377 1.185.404.34.026.616-.063.725-.27l1.21-2.315c.035-.063.088-.102.163-.107.074-.005.162.023.214.08.03.03.043.07.054.11.304 1.108.23 2.36-.215 3.203-.606 1.152-1.956 1.67-3.31 1.373-.54.16.397-.886-.428-.065l-4.21.242.465-.932c.744-.74 1.106-1.397 1.292-1.912-.215-.733-.164-1.513.19-2.18.44-.844 1.42-1.56 2.475-1.885.045-.016.09-.015.134 0z" opacity=".4" fill="none" stroke="#000" stroke-width="1.723" stroke-linecap="round" stroke-linejoin="round" stroke-dashoffset=".361"/><g transform="matrix(-.748 0 0 .75 239.48 -82.107)" mask="url(#u)"><path d="M319.393 139.23l-4.342-4.36c-.992-.988-1.5-1.85-1.746-2.536.285-.977.233-2.005-.237-2.895-.593-1.127-1.9-2.086-3.31-2.52-.122-.04-.26 0-.347.104-.09.103-.11.245-.05.355l1.615 3.07c.145.273.047.64-.224 1.02-.27.387-.714.78-1.273 1.1-.56.324-1.113.51-1.57.548-.454.034-.805-.076-.95-.352l-1.625-3.085c-.044-.085-.128-.14-.227-.145-.1-.007-.203.033-.273.11-.038.04-.066.088-.08.14-.405 1.48-.32 3.156.273 4.28.81 1.537 2.61 2.207 4.42 1.81.723.213 1.673.713 2.775 1.808l3.296 3.21" fill="url(#v)" fill-rule="evenodd" stroke="url(#w)" stroke-width="1.15" stroke-linecap="round" stroke-linejoin="round" stroke-dashoffset=".361"/><path transform="translate(-5.084 -912.595)" d="M314.506 1039.624c.015.01.006.025 0 .025l1.804 3.207c.244.433.068.943-.225 1.368-.296.43-.756.846-1.353 1.17-.6.324-1.228.48-1.755.497-.525.018-1.02-.13-1.253-.547l-1.804-3.234h-.026c.017-.017.003.014 0 .026-.332 1.423-.16 3.07.452 4.154.836 1.486 2.582 2.196 4.31 1.892 1.72-.306 3.192-1.794 3.56-3.21.23-.916.132-1.9-.352-2.76-.61-1.083-1.95-2.103-3.358-2.587z" fill="url(#x)" fill-rule="evenodd"/><path d="M310.22 127.75l1.25 2.438c.288.547.084 1.12-.25 1.593-.34.48-.855.93-1.47 1.283-.607.35-1.224.58-1.813.625-.28.022-.55-.002-.812-.093-.263-.092-.514-.292-.656-.563l-1.25-2.374c-.175 1.164-.1 2.375.31 3.157.684 1.295 2.177 1.884 3.782 1.53.09-.023.19-.023.28 0 .824.245 1.876.79 3.032 1.938l4.03 3.848 2.66-1.373-4.66-4.473c-1.04-1.032-1.593-1.973-1.874-2.75-.035-.11-.035-.232 0-.343.25-.85.178-1.75-.217-2.5-.41-.777-1.324-1.472-2.344-1.936z" fill="none" stroke="#fff" stroke-width=".575" stroke-linecap="round" stroke-linejoin="round" stroke-dashoffset=".361"/><path d="M318.615 140.717l-.125.125c-.35.35-1.19.07-1.886-.627l-4.176-3.67c-.696-.697-.975-1.537-.627-1.886l.127-.127c.348-.348 1.19-.068 1.885.628l4.177 3.67c.695.697.975 1.538.627 1.886z" opacity=".08" fill-rule="evenodd"/></g></svg>