<svg xmlns="http://www.w3.org/2000/svg" xmlns:xlink="http://www.w3.org/1999/xlink" width="24" height="24" viewBox="0 0 6.3499999 6.3500002"><defs><radialGradient gradientTransform="matrix(0 .6154 -.6695 0 41.292 -38.28)" gradientUnits="userSpaceOnUse" xlink:href="#a" id="h" fy="48.19" fx="65.08" r="31" cy="48.19" cx="65.08"/><linearGradient gradientTransform="translate(-.292 -1.32) scale(.3673)" gradientUnits="userSpaceOnUse" xlink:href="#b" id="i" y2="35.86" x2="17.064" y1="24.501" x1="24.022"/><linearGradient id="b"><stop offset="0" stop-color="#fff"/><stop offset=".04" stop-color="#fff" stop-opacity=".235"/><stop offset=".392" stop-color="#fff" stop-opacity=".157"/><stop offset="1" stop-color="#fff" stop-opacity=".392"/></linearGradient><linearGradient id="c"><stop offset="0"/><stop offset="1" stop-opacity="0"/></linearGradient><radialGradient id="d" gradientUnits="userSpaceOnUse" cy="4.625" cx="62.625" gradientTransform="matrix(.2988 0 0 .0747 -15.54 5.21)" r="10.625"><stop offset="0"/><stop stop-opacity="0" offset="1"/></radialGradient><radialGradient id="e" gradientUnits="userSpaceOnUse" cy="3.99" cx="23.896" gradientTransform="matrix(0 .326 -.4302 0 4.89 -7.6)" r="20.397"><stop stop-color="#fff" offset="0"/><stop stop-color="#ddd" offset=".262"/><stop stop-color="#abacae" offset=".661"/><stop stop-color="#89898b" offset="1"/></radialGradient><linearGradient id="f" y2="3.082" gradientUnits="userSpaceOnUse" x2="18.379" gradientTransform="matrix(.1365 0 0 .1365 -.102 -.102)" y1="44.98" x1="18.379"><stop stop-color="#505050" offset="0"/><stop stop-color="#aaa" offset="1"/></linearGradient><linearGradient id="g" y2="44.341" gradientUnits="userSpaceOnUse" x2="71.204" gradientTransform="matrix(.136 0 0 .136 -6.57 -.27)" y1="6.238" x1="71.204"><stop stop-color="#fff" offset="0"/><stop stop-color="#fff" stop-opacity=".235" offset=".508"/><stop stop-color="#fff" stop-opacity=".157" offset=".835"/><stop stop-color="#fff" stop-opacity=".392" offset="1"/></linearGradient><linearGradient id="a" gradientTransform="matrix(.4922 0 0 .4584 4.51 -4.794)" gradientUnits="userSpaceOnUse" x1="23.732" x2="23.732" y1="5.394" y2="39.735"><stop offset="0" stop-color="#90dbec"/><stop offset=".262" stop-color="#55c1ec"/><stop offset=".705" stop-color="#3689e6"/><stop offset="1" stop-color="#2b63a0"/></linearGradient></defs><path d="M6.35 5.556c0 .44-1.422.794-3.175.794S0 5.995 0 5.556c0-.438 1.422-.793 3.175-.793s3.175.355 3.175.793z" opacity=".3" fill="url(#d)" fill-rule="evenodd"/><path d="M3.175.397C1.642.397.397 1.642.397 3.175c0 1.532 1.245 2.777 2.778 2.777s2.778-1.245 2.778-2.777c0-1.533-1.246-2.778-2.778-2.778z" fill="url(#e)" stroke="url(#f)" stroke-width=".266" stroke-linecap="round" stroke-linejoin="round"/><path d="M5.69 3.175c0 1.388-1.127 2.514-2.515 2.514C1.787 5.69.66 4.562.66 3.174.66 1.787 1.788.662 3.176.662c1.388 0 2.514 1.125 2.514 2.513z" color="#000" opacity=".8" fill="none" stroke="url(#g)" stroke-width=".265" stroke-linecap="round" stroke-linejoin="round"/><g color="#000"><path style="isolation:auto;mix-blend-mode:normal" d="M2.51 13.493l-.006-10.99L12.117 8z" overflow="visible" transform="translate(1.587 1.058) scale(.2646)" solid-color="#000000" fill="url(#h)"/><path style="isolation:auto;mix-blend-mode:normal" d="M2.25 4.628V1.72l2.543 1.455z" overflow="visible" opacity=".5" solid-color="#000000" fill="none" stroke="#004372" stroke-linecap="round" stroke-linejoin="round" stroke-width=".265" stroke-opacity=".863"/><path style="isolation:auto;mix-blend-mode:normal" d="M3.775 4.316l.005 7.353L10 8z" overflow="visible" transform="translate(1.587 1.058) scale(.2646)" opacity=".6" solid-color="#000000" fill="none" stroke="url(#i)" stroke-width=".915"/></g></svg>