<svg xmlns="http://www.w3.org/2000/svg" xmlns:xlink="http://www.w3.org/1999/xlink" height="24" width="24"><defs><linearGradient id="a"><stop offset="0" stop-color="#cdf87e"/><stop offset=".262" stop-color="#a2e34f"/><stop offset=".661" stop-color="#68b723"/><stop offset="1" stop-color="#1d7e0d"/></linearGradient><linearGradient id="b"><stop offset="0" stop-color="#fff"/><stop offset="0" stop-color="#fff" stop-opacity=".235"/><stop offset="1" stop-color="#fff" stop-opacity=".157"/><stop offset="1" stop-color="#fff" stop-opacity=".392"/></linearGradient><linearGradient id="c"><stop offset="0" stop-color="#fff"/><stop offset="0" stop-color="#fff" stop-opacity=".235"/><stop offset="1" stop-color="#fff" stop-opacity=".157"/><stop offset="1" stop-color="#fff" stop-opacity=".392"/></linearGradient></defs><linearGradient id="d"><stop offset="0"/><stop offset="1" stop-opacity="0"/></linearGradient><radialGradient id="i" cx="605.714" cy="486.648" gradientTransform="matrix(.01205 0 0 .00824 14.74 17.98)" gradientUnits="userSpaceOnUse" r="117.143" xlink:href="#d"/><linearGradient id="h" gradientTransform="matrix(.5135 0 0 .4054 -.325 3.27)" gradientUnits="userSpaceOnUse" x1="24" x2="24" y1="5.564" y2="43"><stop offset="0" stop-color="#fff"/><stop offset=".036" stop-color="#fff" stop-opacity=".235"/><stop offset=".951" stop-color="#fff" stop-opacity=".157"/><stop offset="1" stop-color="#fff" stop-opacity=".392"/></linearGradient><linearGradient id="g" gradientTransform="matrix(.6 0 0 .36938 -2.4 3.568)" gradientUnits="userSpaceOnUse" x1="25.132" x2="25.132" y1=".985" y2="47.013"><stop offset="0" stop-color="#f4f4f4"/><stop offset="1" stop-color="#dbdbdb"/></linearGradient><radialGradient id="f" cx="605.714" cy="486.648" gradientTransform="matrix(-.01205 0 0 .00824 9.26 17.98)" gradientUnits="userSpaceOnUse" r="117.143" xlink:href="#d"/><linearGradient id="e" gradientTransform="matrix(.04142 0 0 .00824 -2.97 17.98)" gradientUnits="userSpaceOnUse" x1="302.857" x2="302.857" y1="366.648" y2="609.505"><stop offset="0" stop-opacity="0"/><stop offset=".5"/><stop offset="1" stop-opacity="0"/></linearGradient><path d="M2 21h20v2H2z" fill="url(#e)" opacity=".15"/><path d="M2 21v2c-.62.004-1.5-.448-1.5-1s.692-1 1.5-1z" fill="url(#f)" opacity=".15"/><path d="M1.5 4.5h21v17h-21v-17z" fill="url(#g)"/><path d="M21.5 20.5h-19v-15h19z" fill="none" stroke="url(#h)" stroke-linecap="round"/><path d="M1.5 4.5h21v17h-21v-17z" fill="none" opacity=".3" stroke="#000" stroke-linejoin="round"/><path d="M22 21v2c.62.004 1.5-.448 1.5-1s-.692-1-1.5-1z" fill="url(#i)" opacity=".15"/><path d="M16 1v3h1l1 1.016v13.92L17 20h-1v3h7v-3h-1l-1-.93V5l1-1h1V1z" opacity=".52" fill-rule="evenodd"/><path d="M16.97 2.5h1.53s1 0 1 1v17s-.088 1-1.088 1H16.97m5.044-19h-1.53s-1 0-1 1v17s.087 1 1.088 1h1.442" fill="none" stroke="#fff"/></svg>