<svg xmlns="http://www.w3.org/2000/svg" height="24" width="24"><defs><linearGradient id="c" gradientTransform="matrix(-.542 0 0 .5049 24.71 .203)" gradientUnits="userSpaceOnUse" x1="23.732" x2="23.732" y1="4.418" y2="33.456"><stop offset="0" stop-color="#fff3cb"/><stop offset=".262" stop-color="#fdde76"/><stop offset=".661" stop-color="#f9c440"/><stop offset="1" stop-color="#e48b20"/></linearGradient><linearGradient id="d" gradientTransform="matrix(0 -.59172 -.63517 0 23.744 27.52)" gradientUnits="userSpaceOnUse" x1="38.941" x2="20.576" y1="15.991" y2="15.991"><stop offset="0" stop-color="#fff"/><stop offset=".512" stop-color="#fff" stop-opacity=".235"/><stop offset=".585" stop-color="#fff" stop-opacity=".157"/><stop offset="1" stop-color="#fff" stop-opacity=".392"/></linearGradient></defs><linearGradient id="b" gradientTransform="matrix(0 .59172 -.63517 0 25.804 -2.058)" gradientUnits="userSpaceOnUse" x1="20.104" x2="35.281" y1="16.331" y2="16.557"><stop offset="0" stop-color="#fff"/><stop offset=".512" stop-color="#fff" stop-opacity=".235"/><stop offset=".585" stop-color="#fff" stop-opacity=".157"/><stop offset="1" stop-color="#fff" stop-opacity=".392"/></linearGradient><linearGradient id="a" gradientTransform="matrix(-.542 0 0 -.5049 26.77 25.26)" gradientUnits="userSpaceOnUse" x1="25.457" x2="24.926" y1="38.029" y2="9.162"><stop offset="0" stop-color="#cdf87e"/><stop offset=".39" stop-color="#a2e34f"/><stop offset=".799" stop-color="#68b723"/><stop offset="1" stop-color="#1d7e0d"/></linearGradient><path display="block" d="M18.473 5.724C24.1 10.628 22.1 18.628 13.6 18.844v4.142l-9-6.905 9-6.903v4.11c4.947.192 7.72-4.32 4.182-7.563z" fill="url(#a)" transform="translate(1.855)"/><path d="M19.795 8.13c2.427 2.842.904 10.266-7.152 9.715l-.085 3.15-6.34-4.914 6.34-4.87v2.903c7.71.745 7.962-4.835 7.237-5.984z" display="block" opacity=".8" fill="none" stroke="url(#b)" stroke-width=".964" stroke-miterlimit="7" transform="translate(1.855)"/><path d="M20.328 5.724c5.627 4.904 3.627 12.904-4.873 13.12v4.142l-9-6.905 9-6.903v4.11c4.947.192 7.72-4.32 4.182-7.563z" opacity=".5" fill="none" stroke="#0f5a00" stroke-linecap="round"/><g><path display="block" d="M16.414 19.738c5.627-4.905 3.627-12.905-4.873-13.12V2.477l-9 6.904 9 6.905v-4.11c4.948-.192 7.72 4.32 4.183 7.563z" fill="url(#c)" transform="matrix(-1 0 0 1 20.086 -1.462)"/><path d="M17.736 17.333c2.427-2.843.904-10.267-7.152-9.716l-.086-3.15-6.34 4.913 6.34 4.87V11.35c7.71-.744 7.963 4.836 7.238 5.985z" display="block" opacity=".8" fill="none" stroke="url(#d)" stroke-width=".964" stroke-miterlimit="7" transform="matrix(-1 0 0 1 20.086 -1.462)"/><path d="M3.672 18.276C-1.955 13.37.045 5.37 8.545 5.156V1.015l9 6.904-9 6.905v-4.11c-4.947-.192-7.72 4.32-4.182 7.563z" opacity=".5" fill="none" stroke="#956500"/></g></svg>