<svg xmlns="http://www.w3.org/2000/svg" xmlns:xlink="http://www.w3.org/1999/xlink" width="24" height="24"><defs><linearGradient id="b"><stop offset="0" stop-color="#fff"/><stop offset="0" stop-color="#fff" stop-opacity=".235"/><stop offset=".539" stop-color="#fff" stop-opacity=".157"/><stop offset="1" stop-color="#fff" stop-opacity=".392"/></linearGradient><linearGradient id="a"><stop offset="0" stop-color="#fff"/><stop offset=".5" stop-color="#fff" stop-opacity=".235"/><stop offset=".75" stop-color="#fff" stop-opacity=".157"/><stop offset="1" stop-color="#fff" stop-opacity=".392"/></linearGradient><linearGradient id="d"><stop offset="0" stop-color="#64baff"/><stop offset="1" stop-color="#3689e6"/></linearGradient><linearGradient id="c"><stop offset="0"/><stop offset="1" stop-opacity="0"/></linearGradient><linearGradient xlink:href="#a" id="i" gradientUnits="userSpaceOnUse" gradientTransform="matrix(.60658 0 0 .60675 16.73 -5.904)" x1="-2.85" y1="39.397" x2="-2.85" y2="22.916"/><linearGradient xlink:href="#a" id="h" gradientUnits="userSpaceOnUse" gradientTransform="matrix(.82355 0 0 .82373 18.39 -12.633)" x1="-6.388" y1="22.767" x2="-6.388" y2="39.523"/><linearGradient y2="33.39" x2="26.435" y1="27.803" x1="30.027" gradientTransform="matrix(.6463 0 0 .6531 -2.88 -12.25)" gradientUnits="userSpaceOnUse" id="g" xlink:href="#b"/><radialGradient gradientTransform="matrix(.94118 0 0 .28235 -46.94 19.694)" gradientUnits="userSpaceOnUse" xlink:href="#c" id="e" fy="4.625" fx="62.625" r="10.625" cy="4.625" cx="62.625"/><linearGradient xlink:href="#d" id="f" gradientUnits="userSpaceOnUse" gradientTransform="matrix(.8048 0 0 .60166 -1664.82 -1932.195)" x1="2082.573" y1="3213.947" x2="2082.573" y2="3247.298"/></defs><path d="M22 21c0 1.657-4.477 3-10 3S2 22.657 2 21s4.477-3 10-3 10 1.343 10 3z" overflow="visible" opacity=".3" fill="url(#e)" fill-rule="evenodd"/><path d="M12.5 1.5v3.018c-.166-.01-.333-.017-.5-.018-4.694 0-8.5 3.806-8.5 8.5s3.806 8.5 8.5 8.5c4.5-.002 8.218-3.51 8.482-8H16.47c-.03.266-.088.523-.16.77l-.023.08c-.073.233-.167.457-.275.67l-.05.103c-.112.206-.238.4-.378.586l-.08.103c-.146.18-.305.352-.477.51l-.084.072c-.18.157-.373.304-.578.43-.016.01-.032.018-.05.027-.2.12-.41.225-.627.314l-.084.037c-.22.084-.448.146-.682.195-.044.01-.09.02-.133.028-.258.046-.52.074-.79.074-.307 0-.605-.03-.895-.09-.003 0-.007 0-.01-.002-.008 0-.014-.004-.02-.006-.274-.057-.54-.14-.792-.246l-.066-.027c-.247-.108-.482-.235-.703-.382l-.04-.023c-.223-.152-.43-.327-.622-.516l-.045-.042c-.184-.185-.35-.39-.498-.604l-.06-.08c-.137-.206-.252-.426-.354-.654-.02-.043-.04-.087-.058-.13-.095-.232-.17-.475-.225-.724l-.027-.12C7.532 13.58 7.5 13.295 7.5 13c0-.307.03-.605.09-.895l.002-.005.006-.026c.057-.273.14-.538.246-.79l.027-.067c.108-.247.235-.482.382-.703l.023-.04c.152-.223.327-.43.516-.622l.042-.045c.185-.184.39-.35.604-.498l.08-.06c.206-.137.426-.252.654-.354.043-.02.087-.04.13-.058.232-.095.475-.17.724-.225.04-.01.08-.02.12-.027.277-.054.562-.086.856-.086.167 0 .334.012.5.03v2.97l7.766-5z" opacity=".99" fill="url(#f)"/><path d="M13.49 6.12V3.33l4.932 3.188-4.932 3.14V7.132" style="isolation:auto;mix-blend-mode:normal" color="#000" overflow="visible" opacity=".5" solid-color="#000000" fill="none" stroke="url(#g)" stroke-width=".992"/><path d="M19.39 14.046a7.48 7.48 0 0 1-8.374 6.395 7.48 7.48 0 0 1-6.465-8.318 7.48 7.48 0 0 1 8.266-6.534" opacity=".5" fill="none" stroke="url(#h)" stroke-width=".992"/><path d="M12.5 1.5v3.018c-.166-.01-.333-.017-.5-.018-4.694 0-8.5 3.806-8.5 8.5s3.806 8.5 8.5 8.5c4.5-.002 8.218-3.51 8.482-8H16.47c-.03.266-.088.523-.16.77l-.023.08c-.073.233-.167.457-.275.67l-.05.103c-.112.206-.238.4-.378.586l-.08.103c-.146.18-.305.352-.477.51l-.084.072c-.18.157-.373.304-.578.43-.016.01-.032.018-.05.027-.2.12-.41.225-.627.314l-.084.037c-.22.084-.448.146-.682.195-.044.01-.09.02-.133.028-.258.046-.52.074-.79.074-.307 0-.605-.03-.895-.09-.003 0-.007 0-.01-.002-.008 0-.014-.004-.02-.006-.274-.057-.54-.14-.792-.246l-.066-.027c-.247-.108-.482-.235-.703-.382l-.04-.023c-.223-.152-.43-.327-.622-.516l-.045-.042c-.184-.185-.35-.39-.498-.604l-.06-.08c-.137-.206-.252-.426-.354-.654-.02-.043-.04-.087-.058-.13-.095-.232-.17-.475-.225-.724l-.027-.12C7.532 13.58 7.5 13.295 7.5 13c0-.307.03-.605.09-.895l.002-.005.006-.026c.057-.273.14-.538.246-.79l.027-.067c.108-.247.235-.482.382-.703l.023-.04c.152-.223.327-.43.516-.622l.042-.045c.185-.184.39-.35.604-.498l.08-.06c.206-.137.426-.252.654-.354.043-.02.087-.04.13-.058.232-.095.475-.17.724-.225.04-.01.08-.02.12-.027.277-.054.562-.086.856-.086.167 0 .334.012.5.03v2.97l7.766-5z" opacity=".5" fill="none" stroke="#002e99" stroke-linecap="round" stroke-linejoin="round"/><path d="M19.77 14.5l-2.46-.005c-.77 2.723-3.505 4.45-6.332 3.912-2.975-.566-4.936-3.426-4.392-6.405.545-2.98 3.39-4.96 6.374-4.436" opacity=".5" fill="none" stroke="url(#i)" stroke-width=".992"/></svg>