<svg xmlns="http://www.w3.org/2000/svg" xmlns:xlink="http://www.w3.org/1999/xlink" width="24" height="24" viewBox="0 0 6.3499999 6.3500002"><defs><radialGradient gradientTransform="matrix(0 .6154 -.6695 0 41.292 -38.28)" gradientUnits="userSpaceOnUse" xlink:href="#a" id="h" fy="48.19" fx="65.08" r="31" cy="48.19" cx="65.08"/><linearGradient id="a"><stop offset="0" stop-color="#cdf87e"/><stop offset=".262" stop-color="#a2e34f"/><stop offset=".661" stop-color="#68b723"/><stop offset="1" stop-color="#1d7e0d"/></linearGradient><linearGradient gradientTransform="translate(-.292 -1.32) scale(.3673)" gradientUnits="userSpaceOnUse" xlink:href="#b" id="i" y2="35.86" x2="17.064" y1="24.501" x1="24.022"/><linearGradient id="b"><stop offset="0" stop-color="#fff"/><stop offset=".04" stop-color="#fff" stop-opacity=".235"/><stop offset=".392" stop-color="#fff" stop-opacity=".157"/><stop offset="1" stop-color="#fff" stop-opacity=".392"/></linearGradient><linearGradient id="d" gradientTransform="matrix(.0057 0 0 .0022 1.097 295.407)" gradientUnits="userSpaceOnUse" x1="302.857" x2="302.857" y1="366.648" y2="609.505"><stop offset="0" stop-opacity="0"/><stop offset=".5"/><stop offset="1" stop-opacity="0"/></linearGradient><radialGradient id="e" cx="605.714" cy="486.648" gradientTransform="matrix(-.0018 0 0 .0022 2.848 295.407)" gradientUnits="userSpaceOnUse" r="117.143" xlink:href="#c"/><linearGradient id="c"><stop offset="0"/><stop offset="1" stop-opacity="0"/></linearGradient><radialGradient id="f" cx="605.714" cy="486.648" gradientTransform="matrix(.0018 0 0 .0022 3.502 295.407)" gradientUnits="userSpaceOnUse" r="117.143" xlink:href="#c"/><linearGradient id="g" gradientTransform="matrix(.1514 0 0 .0932 6.354 290.688)" gradientUnits="userSpaceOnUse" x1="2" x2="22" y1="2" y2="22"><stop offset="0" stop-color="#f4f4f4"/><stop offset="1" stop-color="#dbdbdb"/></linearGradient><linearGradient xlink:href="#b" id="j" x1="3.111" y1="291.626" x2="3.138" y2="296.326" gradientUnits="userSpaceOnUse"/></defs><path d="M1.787 296.206h2.776v.53H1.787z" opacity=".15" fill="url(#d)" transform="translate(0 -290.65)"/><path d="M1.787 296.206v.53c-.09 0-.22-.12-.22-.265 0-.145.102-.264.22-.264z" opacity=".15" fill="url(#e)" transform="translate(0 -290.65)"/><path d="M4.563 296.206v.53c.09 0 .22-.12.22-.265 0-.145-.102-.264-.22-.264z" opacity=".15" fill="url(#f)" transform="translate(0 -290.65)"/><path d="M3.175 291.302c-1.394 0-2.523 1.13-2.523 2.523 0 1.394 1.13 2.523 2.523 2.523 1.394 0 2.523-1.13 2.523-2.523 0-1.394-1.13-2.523-2.523-2.523z" fill="url(#g)" stroke="#000" stroke-width=".265" stroke-linecap="round" stroke-linejoin="round" stroke-opacity=".298" transform="translate(0 -290.65)"/><g color="#000"><path style="isolation:auto;mix-blend-mode:normal" d="M2.51 13.493l-.006-10.99L12.117 8z" overflow="visible" transform="matrix(.2646 0 0 .2646 1.587 1.058)" solid-color="#000000" fill="url(#h)"/><path style="isolation:auto;mix-blend-mode:normal" d="M2.25 4.628V1.72l2.543 1.455z" overflow="visible" opacity=".5" solid-color="#000000" fill="none" stroke="#0f5a00" stroke-linecap="round" stroke-linejoin="round" stroke-width=".26458"/><path style="isolation:auto;mix-blend-mode:normal" d="M3.775 4.316l.005 7.353L10 8z" overflow="visible" transform="matrix(.2646 0 0 .2646 1.587 1.058)" opacity=".6" solid-color="#000000" fill="none" stroke="url(#i)" stroke-width=".915"/></g><path d="M3.175 291.5c-1.283 0-2.324 1.042-2.324 2.325 0 1.283 1.042 2.324 2.325 2.324 1.283 0 2.324-1.042 2.324-2.325 0-1.283-1.042-2.324-2.325-2.324z" fill="none" stroke="url(#j)" stroke-width=".244" stroke-linecap="round" stroke-linejoin="round" stroke-opacity=".298" transform="translate(0 -290.65)"/></svg>