<svg xmlns="http://www.w3.org/2000/svg" xmlns:xlink="http://www.w3.org/1999/xlink" viewBox="0 0 24 24"><defs><linearGradient xlink:href="#a" id="r" x1="46.985" y1="10" x2="46.985" y2="23" gradientUnits="userSpaceOnUse"/><linearGradient id="a"><stop offset="0" stop-color="#c6262e"/><stop offset="1" stop-color="#b5232a"/></linearGradient><linearGradient xlink:href="#b" id="s" x1="46.985" y1="11.47" x2="46.985" y2="20" gradientUnits="userSpaceOnUse"/><linearGradient id="b" gradientTransform="matrix(0 -.59172 -.63517 0 9.814 30.722)" gradientUnits="userSpaceOnUse" x1="38.941" x2="20.576" y1="15.991" y2="15.991"><stop offset="0" stop-color="#fff"/><stop offset=".125" stop-color="#fff" stop-opacity=".235"/><stop offset=".939" stop-color="#fff" stop-opacity=".157"/><stop offset="1" stop-color="#fff" stop-opacity=".392"/></linearGradient></defs><linearGradient id="h" gradientTransform="matrix(1.29412 0 0 1.00005 1.706 1.98)" gradientUnits="userSpaceOnUse" x1="-16" x2="-11.806" xlink:href="#c" y1="423.455" y2="423.455"/><linearGradient id="c"><stop offset="0" stop-color="#555753" stop-opacity="0"/><stop offset=".2" stop-color="#555753"/><stop offset=".8" stop-color="#555753"/><stop offset="1" stop-color="#555753" stop-opacity="0"/></linearGradient><linearGradient id="i" gradientTransform="matrix(1.29412 0 0 1 1.706 2)" gradientUnits="userSpaceOnUse" x1="-16" x2="-11.467" xlink:href="#d" y1="423.586" y2="423.586"/><linearGradient id="d"><stop offset="0" stop-color="#babdb6" stop-opacity="0"/><stop offset=".2" stop-color="#babdb6"/><stop offset=".844" stop-color="#babdb6"/><stop offset="1" stop-color="#babdb6" stop-opacity="0"/></linearGradient><linearGradient id="j" gradientTransform="matrix(.97222 0 0 .9722 -21.625 34.187)" gradientUnits="userSpaceOnUse" x1="12.198" x2="15.699" xlink:href="#e" y1="401.096" y2="404.598"/><linearGradient id="e"><stop offset="0" stop-color="#d3d7cf"/><stop offset="1" stop-color="#fafbfa"/></linearGradient><linearGradient id="k" gradientTransform="matrix(.875 0 0 .87507 -20.312 73.283)" gradientUnits="userSpaceOnUse" x1="12.816" x2="12.816" xlink:href="#f" y1="400.389" y2="406.511"/><linearGradient id="f"><stop offset="0" stop-color="#fff"/><stop offset="1" stop-color="#fff" stop-opacity="0"/></linearGradient><linearGradient id="l" gradientTransform="matrix(.97222 0 0 .9722 -21.625 34.187)" gradientUnits="userSpaceOnUse" x1="12.198" x2="15.699" xlink:href="#e" y1="401.096" y2="404.598"/><linearGradient id="m" gradientTransform="matrix(.875 0 0 .87507 -20.313 73.283)" gradientUnits="userSpaceOnUse" x1="12.816" x2="12.816" xlink:href="#f" y1="400.389" y2="406.511"/><linearGradient id="n" gradientTransform="matrix(1.29412 0 0 1 1.706 -13)" gradientUnits="userSpaceOnUse" x1="-12.909" x2="1" xlink:href="#c" y1="423.506" y2="423.455"/><linearGradient id="o" gradientTransform="matrix(1.29412 0 0 1.00524 1.706 -15.21)" gradientUnits="userSpaceOnUse" x1="-16" x2=".587" xlink:href="#d" y1="423.586" y2="423.586"/><linearGradient id="p" gradientTransform="matrix(.97222 0 0 .97222 -21.625 34.18)" gradientUnits="userSpaceOnUse" x1="12.198" x2="15.699" xlink:href="#e" y1="401.096" y2="404.598"/><linearGradient id="q" gradientTransform="matrix(.875 0 0 .875 -20.312 73.31)" gradientUnits="userSpaceOnUse" x1="12.816" x2="12.816" xlink:href="#f" y1="400.389" y2="406.511"/><linearGradient id="g"><stop offset="0" stop-color="#d88f22"/><stop offset="1" stop-color="#d88f22" stop-opacity="0"/></linearGradient><g opacity=".6"><g opacity=".6"><path d="M-19 424H3v3h-22z" fill="url(#h)" transform="rotate(180 2 214.5)"/><path d="M-19 425H3v1h-22z" fill="url(#i)" transform="rotate(180 2 214.5)"/></g><g opacity=".6"><path d="M-19 424H3v3h-22z" fill="url(#h)" transform="translate(20 -422)"/><path d="M-19 425H3v1h-22z" fill="url(#i)" transform="translate(20 -422)"/></g><g stroke-linecap="round" stroke-width="1.167"><path d="M-11.417 422.583h5.834v5.834h-5.834z" fill="url(#j)" stroke="#888a85" stroke-linejoin="round" transform="translate(14.286 -360.714) scale(.85714)"/><path d="M-10.25 423.75h3.5v3.5h-3.5z" fill="none" stroke="url(#k)" transform="translate(14.286 -360.714) scale(.85714)"/></g><g stroke-linecap="round" stroke-width="1.167"><path d="M-11.417 422.583h5.834v5.834h-5.834z" fill="url(#l)" stroke="#888a85" stroke-linejoin="round" transform="translate(24.286 -360.714) scale(.85714)"/><path d="M-10.25 423.75h3.5v3.5h-3.5z" fill="none" stroke="url(#m)" transform="translate(24.286 -360.714) scale(.85714)"/></g></g><path d="M-14 409H3v3h-17z" fill="url(#n)" transform="translate(14 -390)"/><path d="M-14 409.995l17 .01v1.005l-17-.01z" fill="url(#o)" transform="translate(14 -390)"/><g stroke-linecap="round" stroke-width="1.167"><path d="M-11.417 422.583h5.834v5.834h-5.834z" fill="url(#p)" stroke="#888a85" stroke-linejoin="round" transform="translate(13.286 -344.716) scale(.85715)"/><path d="M-10.25 423.75h3.5v3.5h-3.5z" fill="none" stroke="url(#q)" transform="translate(13.286 -344.716) scale(.85715)"/></g><g font-weight="bold" font-family="Aharoni" letter-spacing="0" word-spacing="0"><path d="M46.39 10.484c.606-.002 1.125.05 1.554.148 2.437.56 3.51 2.657 3.54 4.92-.18 2.407-.828 3.926-2.86 4.76-.443.11-1.494.177-2.244.18l-4.892.015V16.47l4.537-.016c2-.052 1.988-1.91.01-1.968l-4.537.016V10.5z" style="line-height:1.25;-inkscape-font-specification:'Aharoni Bold'" fill="url(#r)" stroke="#2a0303" stroke-opacity=".49" transform="translate(-27.985 3)"/><path d="M13.513 13.5v4.002l2.502-.008V13.5zm2.502 5.963l-2.502.008V23h2.502z" style="line-height:1.25;-inkscape-font-specification:'Aharoni Bold'" fill="#eee" fill-opacity=".761"/><path d="M18.404 13.484l-4.89.016v1l4.89-.016c.607-.002 1.127.05 1.556.15 2.22.51 3.298 2.298 3.496 4.325.014-.137.033-.267.043-.407-.03-2.265-1.103-4.36-3.54-4.92-.43-.1-.95-.15-1.556-.15zm.906 5.49c-.232.26-.64.465-1.27.48l-4.537.017.002 1 4.535-.015c1.37-.036 1.772-.91 1.27-1.482z" style="line-height:1.25;-inkscape-font-specification:'Aharoni Bold'" opacity=".1" fill="#206b00" stroke="#fff"/><path style="line-height:1.25;-inkscape-font-specification:'Aharoni Bold'" d="M46.393 11.47l-3.91.012v2.032l3.546-.012h.03c.65.018 1.22.183 1.672.516.452.332.775.872.776 1.453 0 .58-.32 1.125-.776 1.458-.454.333-1.028.494-1.68.51-.008.002-.016.002-.023 0l-3.555.013.02 2.06 3.905-.012c.663-.002 1.66-.094 1.92-.143.788-.337 1.23-.566 1.56-1.197.334-.636.523-1.525.61-2.63-.02-.963-.252-1.86-.695-2.534-.45-.684-1.083-1.175-2.07-1.402-.334-.077-.783-.125-1.332-.123z" opacity=".53" fill="none" stroke="url(#s)" stroke-opacity=".915" transform="translate(-27.985 3)"/></g></svg>