<svg xmlns="http://www.w3.org/2000/svg" xmlns:xlink="http://www.w3.org/1999/xlink" viewBox="0 0 24 24"><defs><linearGradient xlink:href="#a" id="i" gradientUnits="userSpaceOnUse" gradientTransform="matrix(.34613 0 0 .45006 -5.888 1.252)" x1="24" y1="6.474" x2="24" y2="41.526"/><linearGradient xlink:href="#b" id="h" gradientUnits="userSpaceOnUse" gradientTransform="matrix(.48572 0 0 .4563 -9.13 .35)" x1="25.132" y1=".985" x2="25.132" y2="47.013"/><linearGradient xlink:href="#c" id="e" gradientUnits="userSpaceOnUse" gradientTransform="matrix(.0352 0 0 .00824 -.725 18.98)" x1="302.857" y1="366.648" x2="302.857" y2="609.505"/><radialGradient xlink:href="#d" id="f" gradientUnits="userSpaceOnUse" gradientTransform="matrix(-.01205 0 0 .00824 10.76 18.98)" cx="605.714" cy="486.648" r="117.143"/><radialGradient xlink:href="#d" id="g" gradientUnits="userSpaceOnUse" gradientTransform="matrix(.01205 0 0 .00824 13.24 18.98)" cx="605.714" cy="486.648" r="117.143"/><linearGradient xlink:href="#c" id="j" gradientUnits="userSpaceOnUse" gradientTransform="matrix(.0352 0 0 .00824 -.725 18.98)" x1="302.857" y1="366.648" x2="302.857" y2="609.505"/><radialGradient xlink:href="#d" id="k" gradientUnits="userSpaceOnUse" gradientTransform="matrix(-.01205 0 0 .00824 10.76 18.98)" cx="605.714" cy="486.648" r="117.143"/><radialGradient xlink:href="#d" id="l" gradientUnits="userSpaceOnUse" gradientTransform="matrix(.01205 0 0 .00824 13.24 18.98)" cx="605.714" cy="486.648" r="117.143"/><linearGradient xlink:href="#b" id="m" gradientUnits="userSpaceOnUse" gradientTransform="matrix(.48572 0 0 .4563 -9.13 .35)" x1="25.132" y1=".985" x2="25.132" y2="47.013"/><linearGradient xlink:href="#a" id="n" gradientUnits="userSpaceOnUse" gradientTransform="matrix(.34613 0 0 .45006 -5.888 1.252)" x1="24" y1="6.474" x2="24" y2="41.526"/><linearGradient xlink:href="#c" id="o" gradientUnits="userSpaceOnUse" gradientTransform="matrix(.0352 0 0 .00824 -.725 18.98)" x1="302.857" y1="366.648" x2="302.857" y2="609.505"/><radialGradient xlink:href="#d" id="p" gradientUnits="userSpaceOnUse" gradientTransform="matrix(-.01205 0 0 .00824 10.76 18.98)" cx="605.714" cy="486.648" r="117.143"/><radialGradient xlink:href="#d" id="q" gradientUnits="userSpaceOnUse" gradientTransform="matrix(.01205 0 0 .00824 13.24 18.98)" cx="605.714" cy="486.648" r="117.143"/><linearGradient xlink:href="#b" id="r" gradientUnits="userSpaceOnUse" gradientTransform="matrix(.48572 0 0 .4563 -9.13 .35)" x1="25.132" y1=".985" x2="25.132" y2="47.013"/><linearGradient xlink:href="#a" id="s" gradientUnits="userSpaceOnUse" gradientTransform="matrix(.34613 0 0 .45006 -5.888 1.252)" x1="24" y1="6.474" x2="24" y2="41.526"/><linearGradient xlink:href="#c" id="t" gradientUnits="userSpaceOnUse" gradientTransform="matrix(.0352 0 0 .00824 -.725 18.98)" x1="302.857" y1="366.648" x2="302.857" y2="609.505"/><radialGradient xlink:href="#d" id="u" gradientUnits="userSpaceOnUse" gradientTransform="matrix(-.01205 0 0 .00824 10.76 18.98)" cx="605.714" cy="486.648" r="117.143"/><radialGradient xlink:href="#d" id="v" gradientUnits="userSpaceOnUse" gradientTransform="matrix(.01205 0 0 .00824 13.24 18.98)" cx="605.714" cy="486.648" r="117.143"/><linearGradient xlink:href="#b" id="w" gradientUnits="userSpaceOnUse" gradientTransform="matrix(.48572 0 0 .4563 -9.13 .35)" x1="25.132" y1=".985" x2="25.132" y2="47.013"/><linearGradient xlink:href="#a" id="x" gradientUnits="userSpaceOnUse" gradientTransform="matrix(.34613 0 0 .45006 -5.888 1.252)" x1="24" y1="6.474" x2="24" y2="41.526"/></defs><linearGradient id="b" gradientTransform="matrix(.48572 0 0 .4563 -9.13 .35)" gradientUnits="userSpaceOnUse" x1="25.132" x2="25.132" y1=".985" y2="47.013"><stop offset="0" stop-color="#f4f4f4"/><stop offset="1" stop-color="#dbdbdb"/></linearGradient><linearGradient id="a" gradientTransform="matrix(.4054 0 0 .5135 -7.203 -.324)" gradientUnits="userSpaceOnUse" x1="24" x2="24" y1="6.474" y2="41.526"><stop offset="0" stop-color="#fff"/><stop offset="0" stop-color="#fff" stop-opacity=".235"/><stop offset="1" stop-color="#fff" stop-opacity=".157"/><stop offset="1" stop-color="#fff" stop-opacity=".392"/></linearGradient><linearGradient id="c" gradientTransform="matrix(.0352 0 0 .00824 -.725 18.98)" gradientUnits="userSpaceOnUse" x1="302.857" x2="302.857" y1="366.648" y2="609.505"><stop offset="0" stop-opacity="0"/><stop offset=".5"/><stop offset="1" stop-opacity="0"/></linearGradient><linearGradient id="d"><stop offset="0"/><stop offset="1" stop-opacity="0"/></linearGradient><path d="M3.5 22h17v2h-17z" opacity=".15" fill="url(#e)" transform="translate(11.277 -.968) scale(.52133)"/><path d="M3.5 22v2c-.62.004-1.5-.448-1.5-1s.692-1 1.5-1z" opacity=".15" fill="url(#f)" transform="translate(11.277 -.968) scale(.52133)"/><path d="M20.5 22v2c.62.004 1.5-.448 1.5-1s-.692-1-1.5-1z" opacity=".15" fill="url(#g)" transform="translate(11.277 -.968) scale(.52133)"/><g><path d="M-5.973 1.5h17v21h-17v-21z" fill="url(#h)" transform="matrix(.47384 0 0 .47654 16.35 -.207)"/><path d="M-6.027 1.482h17v21h-17v-21z" opacity=".3" fill="none" stroke="#000" stroke-width="2.092" stroke-linejoin="round" transform="matrix(.47384 0 0 .47654 16.35 -.207)"/><path d="M8.824 20.38H-3.983V3.726H8.824z" fill="none" stroke="url(#i)" stroke-width="2.098" stroke-linecap="round" transform="matrix(.47384 0 0 .47654 16.35 -.207)"/></g><g><path d="M3.5 22h17v2h-17z" opacity=".15" fill="url(#j)" transform="translate(11.277 12.032) scale(.52133)"/><path d="M3.5 22v2c-.62.004-1.5-.448-1.5-1s.692-1 1.5-1z" opacity=".15" fill="url(#k)" transform="translate(11.277 12.032) scale(.52133)"/><path d="M20.5 22v2c.62.004 1.5-.448 1.5-1s-.692-1-1.5-1z" opacity=".15" fill="url(#l)" transform="translate(11.277 12.032) scale(.52133)"/><g><path d="M-5.973 1.5h17v21h-17v-21z" fill="url(#m)" transform="matrix(.47384 0 0 .47654 16.35 12.793)"/><path d="M-6.027 1.482h17v21h-17v-21z" opacity=".3" fill="none" stroke="#000" stroke-width="2.092" stroke-linejoin="round" transform="matrix(.47384 0 0 .47654 16.35 12.793)"/><path d="M8.824 20.38H-3.983V3.726H8.824z" fill="none" stroke="url(#n)" stroke-width="2.098" stroke-linecap="round" transform="matrix(.47384 0 0 .47654 16.35 12.793)"/></g></g><g><path d="M3.5 22h17v2h-17z" opacity=".15" fill="url(#o)" transform="translate(.277 -.968) scale(.52133)"/><path d="M3.5 22v2c-.62.004-1.5-.448-1.5-1s.692-1 1.5-1z" opacity=".15" fill="url(#p)" transform="translate(.277 -.968) scale(.52133)"/><path d="M20.5 22v2c.62.004 1.5-.448 1.5-1s-.692-1-1.5-1z" opacity=".15" fill="url(#q)" transform="translate(.277 -.968) scale(.52133)"/><g><path d="M-5.973 1.5h17v21h-17v-21z" fill="url(#r)" transform="matrix(.47384 0 0 .47654 5.35 -.207)"/><path d="M-6.027 1.482h17v21h-17v-21z" opacity=".3" fill="none" stroke="#000" stroke-width="2.092" stroke-linejoin="round" transform="matrix(.47384 0 0 .47654 5.35 -.207)"/><path d="M8.824 20.38H-3.983V3.726H8.824z" fill="none" stroke="url(#s)" stroke-width="2.098" stroke-linecap="round" transform="matrix(.47384 0 0 .47654 5.35 -.207)"/></g><g><path d="M3.5 22h17v2h-17z" opacity=".15" fill="url(#t)" transform="translate(.277 12.032) scale(.52133)"/><path d="M3.5 22v2c-.62.004-1.5-.448-1.5-1s.692-1 1.5-1z" opacity=".15" fill="url(#u)" transform="translate(.277 12.032) scale(.52133)"/><path d="M20.5 22v2c.62.004 1.5-.448 1.5-1s-.692-1-1.5-1z" opacity=".15" fill="url(#v)" transform="translate(.277 12.032) scale(.52133)"/><g><path d="M-5.973 1.5h17v21h-17v-21z" fill="url(#w)" transform="matrix(.47384 0 0 .47654 5.35 12.793)"/><path d="M-6.027 1.482h17v21h-17v-21z" opacity=".3" fill="none" stroke="#000" stroke-width="2.092" stroke-linejoin="round" transform="matrix(.47384 0 0 .47654 5.35 12.793)"/><path d="M8.824 20.38H-3.983V3.726H8.824z" fill="none" stroke="url(#x)" stroke-width="2.098" stroke-linecap="round" transform="matrix(.47384 0 0 .47654 5.35 12.793)"/></g></g></g></svg>