<svg xmlns="http://www.w3.org/2000/svg" xmlns:xlink="http://www.w3.org/1999/xlink" height="24" width="24"><defs><linearGradient id="a"><stop offset="0" stop-color="#737373"/><stop offset=".262" stop-color="#636363"/><stop offset=".705" stop-color="#4b4b4b"/><stop offset="1" stop-color="#3f3f3f"/></linearGradient><radialGradient xlink:href="#a" id="i" cx="13" cy=".94" fx="13" fy=".94" r="8.094" gradientTransform="matrix(-2.84165 0 0 -2.59455 49.94 3.438)" gradientUnits="userSpaceOnUse"/><linearGradient id="j" y2="23.743" gradientUnits="userSpaceOnUse" x2="33.437" gradientTransform="matrix(.49294 0 0 .51865 -1.792 -.03)" y1="18.868" x1="28.059"><stop offset="0" stop-color="#6e3d09"/><stop offset=".242" stop-color="#ea8113"/><stop offset=".621" stop-color="#5c3307"/><stop offset="1" stop-color="#e07c12"/></linearGradient><linearGradient id="k" y2="31.724" xlink:href="#b" gradientUnits="userSpaceOnUse" x2="22.012" gradientTransform="matrix(.4925 0 0 .5272 -1.783 -.32)" y1="29.811" x1="20.251"/><linearGradient id="b"><stop offset="0" stop-color="#f2f2f2"/><stop offset="1" stop-color="#c3c3c3"/></linearGradient><radialGradient id="l" gradientUnits="userSpaceOnUse" cy="35.357" cx="15.415" gradientTransform="matrix(.472 0 0 .475 -2.01 2.097)" r="7.579"><stop offset="0" stop-color="#690808"/><stop offset="1" stop-color="#f462ea"/></radialGradient><radialGradient r="14.407" cy="42.343" cx="26.782" gradientTransform="matrix(1 0 0 .282 0 30.394)" gradientUnits="userSpaceOnUse" id="m" xlink:href="#c"/><linearGradient id="c"><stop offset="0"/><stop offset="1" stop-opacity="0"/></linearGradient><linearGradient y2="3256.79" x2="2100.578" y1="3215.147" x1="2100.578" gradientTransform="matrix(.518 0 0 .36 -1079.953 -1152.217)" gradientUnits="userSpaceOnUse" id="n" xlink:href="#d"/><linearGradient id="d"><stop offset="0" stop-color="#64baff"/><stop offset="1" stop-color="#3689e6"/></linearGradient><linearGradient xlink:href="#e" id="o" gradientUnits="userSpaceOnUse" gradientTransform="matrix(.29 0 0 .323 2.122 2.74)" x1="29.556" y1="28.447" x2="26.135" y2="34.107"/><linearGradient id="e"><stop offset="0" stop-color="#fff"/><stop offset=".004" stop-color="#fff" stop-opacity=".235"/><stop offset=".539" stop-color="#fff" stop-opacity=".157"/><stop offset="1" stop-color="#fff" stop-opacity=".392"/></linearGradient><linearGradient y2="23.025" x2="-3.707" y1="39.159" x1="-3.707" gradientTransform="matrix(.494 0 0 .494 11.832 1.618)" gradientUnits="userSpaceOnUse" id="p" xlink:href="#f"/><linearGradient id="f"><stop offset="0" stop-color="#fff"/><stop offset=".373" stop-color="#fff" stop-opacity=".235"/><stop offset=".75" stop-color="#fff" stop-opacity=".157"/><stop offset="1" stop-color="#fff" stop-opacity=".392"/></linearGradient><linearGradient xlink:href="#g" id="q" gradientUnits="userSpaceOnUse" gradientTransform="matrix(.606 0 0 .606 12.72 -1.875)" x1="-6.388" y1="22.767" x2="-6.388" y2="39.523"/><linearGradient id="g"><stop offset="0" stop-color="#fff"/><stop offset=".5" stop-color="#fff" stop-opacity=".235"/><stop offset=".75" stop-color="#fff" stop-opacity=".157"/><stop offset="1" stop-color="#fff" stop-opacity=".392"/></linearGradient></defs><radialGradient id="h" cx="22.571" cy="30.857" gradientTransform="matrix(.706 0 0 .136 -3.945 13.93)" gradientUnits="userSpaceOnUse" r="15.571"><stop offset="0"/><stop offset="1" stop-opacity="0"/></radialGradient><g transform="translate(-3 -.967)"><ellipse cx="12" cy="18.11" rx="11" ry="2.89" opacity=".2" fill="url(#h)"/><path d="M15.3 13.7H8.58l-1.156 2.9h-3.09l6.334-15.2h2.877l6.11 15.2H16.42zm-5.92-2.3h5.046l-2.252-6.876z" fill="url(#i)" stroke="#000" stroke-width=".866" stroke-linecap="round" stroke-linejoin="round" stroke-opacity=".581"/></g><path d="M9.82 12.62l2.005 1.972c1.178-1.218 3.057-3.31 4.353-5.147l.085-4.152c-2.142 2.367-4.8 5.343-6.442 7.328z" transform="translate(7.707 -.107) scale(1.048)" stroke-linecap="round" stroke-width=".743" stroke="#673907" fill="url(#j)"/><path d="M5.413 18.464l1.272 1.162 5.355-4.94c-.216-.824-1.45-2.312-2.373-2.312l-4.253 6.09z" transform="translate(7.707 -.107) scale(1.048)" stroke-linecap="round" stroke-width=".749" stroke="#787a75" fill="url(#k)"/><path d="M1 21.977c3.135 0 5.514.386 5.965-1.97.363-1.898-2.165-2.808-3.417-1.113C2.34 20.526 1 21.977 1 21.977z" transform="translate(7.707 -.107) scale(1.048)" fill="url(#l)"/><path d="M41.19 42.343c0 2.245-6.45 4.066-14.408 4.066-7.957 0-14.407-1.82-14.407-4.07 0-2.245 6.45-4.066 14.407-4.066s14.407 1.82 14.407 4.066z" transform="matrix(.546 0 0 .516 .955 .073)" fill="url(#m)" opacity=".2"/><g transform="translate(9.02)"><path d="M8.5 8.5v2.02a6.5 6.5 0 0 0-.5-.02A6.5 6.5 0 0 0 1.5 17 6.5 6.5 0 0 0 8 23.5a6.5 6.5 0 0 0 6.48-6h-3.02a3.5 3.5 0 0 1-3.46 3A3.5 3.5 0 0 1 4.5 17 3.5 3.5 0 0 1 8 13.5a3.5 3.5 0 0 1 .5.04v1.96l5-3.5z" opacity=".99" fill="url(#n)"/><path d="M8.5 8.5v2.02a6.5 6.5 0 0 0-.5-.02A6.5 6.5 0 0 0 1.5 17 6.5 6.5 0 0 0 8 23.5a6.5 6.5 0 0 0 6.48-6h-3.02a3.5 3.5 0 0 1-3.46 3A3.5 3.5 0 0 1 4.5 17 3.5 3.5 0 0 1 8 13.5a3.5 3.5 0 0 1 .5.04v1.96l5-3.5z" opacity=".5" fill="none" stroke="#002e99" stroke-linecap="round" stroke-linejoin="round"/><path d="M9.496 13.578v-3.13l2.222 1.56z" style="isolation:auto;mix-blend-mode:normal" color="#000" overflow="visible" opacity=".5" solid-color="#000000" fill="none" stroke="url(#o)" stroke-width=".992"/><path d="M12.32 18.176a4.49 4.49 0 0 1-5.392 3.202 4.49 4.49 0 0 1-3.33-5.315 4.49 4.49 0 0 1 5.232-3.458" opacity=".5" fill="none" stroke="url(#p)" stroke-width=".992"/><ellipse cx="8" cy="17.212" rx="4" ry="2.472" opacity=".99" fill="none"/><path d="M13.386 18.154A5.506 5.504 0 0 1 6.94 22.4a5.506 5.504 0 0 1-4.357-6.372 5.506 5.504 0 0 1 6.3-4.46" opacity=".5" fill="none" stroke="url(#q)" stroke-width=".992"/></g></svg>