<svg xmlns="http://www.w3.org/2000/svg" xmlns:xlink="http://www.w3.org/1999/xlink" viewBox="0 0 24 24"><defs><linearGradient xlink:href="#a" id="f" x1="46.985" y1="10" x2="46.985" y2="23" gradientUnits="userSpaceOnUse"/><linearGradient id="a"><stop offset="0" stop-color="#c6262e"/><stop offset="1" stop-color="#b5232a"/></linearGradient><linearGradient xlink:href="#b" id="g" x1="46.985" y1="11.47" x2="46.985" y2="20" gradientUnits="userSpaceOnUse"/><linearGradient id="b" gradientTransform="matrix(0 -.59172 -.63517 0 9.814 30.722)" gradientUnits="userSpaceOnUse" x1="38.941" x2="20.576" y1="15.991" y2="15.991"><stop offset="0" stop-color="#fff"/><stop offset=".125" stop-color="#fff" stop-opacity=".235"/><stop offset=".939" stop-color="#fff" stop-opacity=".157"/><stop offset="1" stop-color="#fff" stop-opacity=".392"/></linearGradient></defs><linearGradient id="d" gradientTransform="matrix(.44577 0 0 .44994 .802 -.025)" gradientUnits="userSpaceOnUse" x1="25.132" x2="25.132" y1="15.5" y2="48.396"><stop offset="0" stop-color="#fafafa"/><stop offset="1" stop-color="#e2e1de"/></linearGradient><linearGradient id="e" gradientTransform="matrix(.48484 0 0 .52706 -.165 -.4)" gradientUnits="userSpaceOnUse" x1="24" x2="24" xlink:href="#c" y1="5" y2="43"/><linearGradient id="c"><stop offset="0" stop-color="#fff"/><stop offset=".063" stop-color="#fff" stop-opacity=".235"/><stop offset=".951" stop-color="#fff" stop-opacity=".157"/><stop offset="1" stop-color="#fff" stop-opacity=".392"/></linearGradient><rect height="20" rx=".528" ry=".556" width="20" x="2" y="2" fill="url(#d)"/><path d="M2.5 2.5h18.94V22H2.5z" fill="none" stroke="url(#e)" stroke-linecap="round" stroke-linejoin="round" stroke-width="1.1"/><path d="M2.537 1.5c-.574 0-1.037.463-1.037 1.037v18.926c0 .574.463 1.037 1.037 1.037h18.926c.574 0 1.037-.463 1.037-1.037V2.537c0-.574-.463-1.037-1.037-1.037H2.537z" stroke="#2a70a7" opacity=".5" fill="none"/><g font-weight="bold" font-family="Aharoni" letter-spacing="0" word-spacing="0"><path d="M46.39 10.484c.606-.002 1.125.05 1.554.148 2.437.56 3.51 2.657 3.54 4.92-.18 2.407-.828 3.926-2.86 4.76-.443.11-1.494.177-2.244.18l-4.892.015V16.47l4.537-.016c2-.052 1.988-1.91.01-1.968l-4.537.016V10.5z" style="line-height:1.25;-inkscape-font-specification:'Aharoni Bold'" fill="url(#f)" stroke="#2a0303" stroke-opacity=".49" transform="translate(-27.985)"/><path d="M13.513 10.5v4.002l2.502-.008V10.5zm2.502 5.963l-2.502.008V20h2.502z" style="line-height:1.25;-inkscape-font-specification:'Aharoni Bold'" fill="#eee" fill-opacity=".761"/><path d="M18.404 10.484l-4.89.016v1l4.89-.016c.607-.002 1.127.05 1.556.15 2.22.51 3.298 2.298 3.496 4.325.014-.137.033-.267.043-.407-.03-2.265-1.103-4.36-3.54-4.92-.43-.1-.95-.15-1.556-.15zm.906 5.49c-.232.26-.64.465-1.27.48l-4.537.017.002 1 4.535-.015c1.37-.036 1.772-.91 1.27-1.482z" style="line-height:1.25;-inkscape-font-specification:'Aharoni Bold'" opacity=".1" fill="#206b00" stroke="#fff"/><path style="line-height:1.25;-inkscape-font-specification:'Aharoni Bold'" d="M46.393 11.47l-3.91.012v2.032l3.546-.012h.03c.65.018 1.22.183 1.672.516.452.332.775.872.776 1.453 0 .58-.32 1.125-.776 1.458-.454.333-1.028.494-1.68.51-.008.002-.016.002-.023 0l-3.555.013.02 2.06 3.905-.012c.663-.002 1.66-.094 1.92-.143.788-.337 1.23-.566 1.56-1.197.334-.636.523-1.525.61-2.63-.02-.963-.252-1.86-.695-2.534-.45-.684-1.083-1.175-2.07-1.402-.334-.077-.783-.125-1.332-.123z" opacity=".53" fill="none" stroke="url(#g)" stroke-opacity=".915" transform="translate(-27.985)"/></g></svg>