<svg xmlns="http://www.w3.org/2000/svg" xmlns:xlink="http://www.w3.org/1999/xlink" height="24" width="24"><defs><linearGradient id="h" y2="19" xlink:href="#a" gradientUnits="userSpaceOnUse" x2="12" y1="13" x1="12"/><linearGradient id="i" gradientTransform="matrix(.7238 0 0 .7238 -125.194 -14.258)" gradientUnits="userSpaceOnUse" x1="188" x2="188" xlink:href="#b" y1="17" y2="36.026"/><linearGradient id="b"><stop offset="0" stop-color="#fff"/><stop offset="1" stop-color="#fff" stop-opacity="0"/></linearGradient><linearGradient id="j" gradientTransform="matrix(.78298 0 0 .78096 -136.093 -15.74)" gradientUnits="userSpaceOnUse" x1="182" x2="182" xlink:href="#b" y1="33" y2="24.52"/></defs><linearGradient id="c"><stop stop-color="#181818" offset="0"/><stop stop-color="#181818" stop-opacity="0" offset="1"/></linearGradient><radialGradient id="d" xlink:href="#c" gradientUnits="userSpaceOnUse" cy="43.5" cx="4.993" gradientTransform="matrix(2.0038 0 0 1.4 27.988 -17.4)" r="2.5"/><radialGradient id="e" xlink:href="#c" gradientUnits="userSpaceOnUse" cy="43.5" cx="4.993" gradientTransform="matrix(2.0038 0 0 1.4 -20.012 -104.4)" r="2.5"/><linearGradient id="f" y2="39.999" gradientUnits="userSpaceOnUse" y1="47.028" x2="25.058" x1="25.058"><stop stop-color="#181818" stop-opacity="0" offset="0"/><stop stop-color="#181818" offset=".5"/><stop stop-color="#181818" stop-opacity="0" offset="1"/></linearGradient><linearGradient id="g" y2="20.728" gradientUnits="userSpaceOnUse" y1="3.269" x2="12.001" x1="12.001"><stop stop-color="#fff" offset="0"/><stop stop-color="#fff" stop-opacity=".235" offset=".063"/><stop stop-color="#fff" stop-opacity=".157" offset=".951"/><stop stop-color="#fff" stop-opacity=".392" offset="1"/></linearGradient><radialGradient id="a" gradientUnits="userSpaceOnUse" cy="8.45" cx="7.496" gradientTransform="matrix(0 1.1385 -1.2044 0 22.177 -5.75)" r="20"><stop stop-color="#fafafa" offset="0"/><stop stop-color="#e1e1e1" offset="1"/></radialGradient><g opacity=".4"><path d="M38 40h5v7h-5z" fill="url(#d)" transform="matrix(.579 0 0 .4286 -1.895 2.857)"/><path transform="matrix(-.579 0 0 -.4286 -1.895 2.857)" d="M-10-47h5v7h-5z" fill="url(#e)"/><path d="M10 40h28v7H10z" fill="url(#f)" transform="matrix(.579 0 0 .4286 -1.895 2.857)"/></g><path d="M3.5 3c-.286 0-.5.214-.5.5v17c0 .286.214.5.5.5h17c.286 0 .5-.214.5-.5v-17c0-.286-.214-.5-.5-.5h-17z" fill="url(#a)"/><path opacity=".5" stroke-linejoin="round" d="M3.5 3.5h17v17h-17z" stroke="url(#g)" stroke-linecap="round" fill="none"/><g fill-rule="evenodd"><path d="M4.936 4.975a.444.444 0 0 1-.89 0 .444.444 0 1 1 .89 0z" fill="#fff"/><path opacity=".3" d="M4.936 4.53a.444.444 0 0 1-.89 0 .444.444 0 1 1 .89 0z"/><path d="M19.916 4.975a.444.444 0 0 1-.89 0 .444.444 0 1 1 .89 0z" fill="#fff"/><path opacity=".3" d="M19.916 4.53a.444.444 0 0 1-.89 0 .444.444 0 1 1 .89 0z"/><path d="M4.936 19.992a.444.444 0 0 1-.89 0 .444.444 0 1 1 .89 0z" fill="#fff"/><path opacity=".3" d="M4.936 19.548a.444.444 0 0 1-.89 0 .444.444 0 1 1 .89 0z"/><path d="M19.916 19.992a.444.444 0 0 1-.89 0 .444.444 0 1 1 .89 0z" fill="#fff"/><path opacity=".3" d="M19.916 19.548a.444.444 0 0 1-.89 0 .444.444 0 1 1 .89 0z"/></g><rect rx="1" height="5" width="14" y="7" x="5" fill="#b5b5b5"/><path d="M3.5 2C2.678 2 2 2.678 2 3.5v17c0 .822.678 1.5 1.5 1.5h17c.822 0 1.5-.678 1.5-1.5v-17c0-.822-.678-1.5-1.5-1.5h-17zm0 1h17c.286 0 .5.214.5.5v17c0 .286-.214.5-.5.5h-17c-.286 0-.5-.214-.5-.5v-17c0-.286.214-.5.5-.5z" fill-opacity=".239"/><rect rx="1" height="4" width="14" y="8" x="5" fill="#cacaca"/><rect rx=".69" height="5" width="14" y="14" x="5" fill="#bababa"/><rect rx=".384" height="3" width="12" y="15" x="6" fill="url(#h)"/><g fill="#4d4d4d"><rect rx="0" height="1" width="1" y="16" x="8"/><rect rx="0" height="1" width="1" y="15" x="9"/><rect rx="0" height="1" width="1" y="16" x="10"/><rect rx="0" height="1" width="1" y="17" x="8"/><rect rx="0" height="1" width="1" y="17" x="10"/><rect rx="0" height="1" width="1" y="18" x="9"/><rect rx="0" height="1" width="1" y="15" x="12"/><rect rx="0" height="1" width="1" y="16" x="12"/><rect rx="0" height="1" width="1" y="17" x="12"/><rect rx="0" height="1" width="1" y="18" x="12"/><rect rx="0" height="1" width="1" y="15" x="14"/><rect rx="0" height="1" width="1" y="16" x="13"/><rect rx="0" height="1" width="1" y="17" x="14"/><rect rx="0" height="1" width="1" y="18" x="14"/></g><g><path d="M1.532 5.46l16 16h-16zm3 8.5v4.5h5z" fill="#81d72c" fill-opacity=".588" fill-rule="evenodd" stroke="#4e9a06" stroke-linejoin="round"/><g fill="none"><path d="M2.532-1.143V11.46h12.602L2.532-1.143z" opacity=".5" stroke="url(#i)" transform="translate(0 9)"/><path d="M3.532 3.785v6.675h7" opacity=".5" stroke="url(#j)" transform="translate(0 9)"/><path d="M3.5 22.5h14" opacity=".3" stroke="#85f619" stroke-linecap="square"/></g></g></svg>