<svg xmlns="http://www.w3.org/2000/svg" xmlns:xlink="http://www.w3.org/1999/xlink" viewBox="0 0 24 24"><defs><linearGradient gradientTransform="matrix(.2857 0 0 .3042 1.143 8.233)" gradientUnits="userSpaceOnUse" xlink:href="#a" id="p" y2="47.013" x2="25.132" y1=".985" x1="25.132"/><linearGradient id="a"><stop offset="0" stop-color="#f4f4f4"/><stop offset="1" stop-color="#dbdbdb"/></linearGradient><linearGradient gradientTransform="matrix(.24324 0 0 .35135 2.162 7.568)" gradientUnits="userSpaceOnUse" xlink:href="#b" id="q" y2="41.077" x2="24" y1="6.923" x1="24"/><linearGradient id="b"><stop offset="0" stop-color="#fff"/><stop offset="0" stop-color="#fff" stop-opacity=".235"/><stop offset="1" stop-color="#fff" stop-opacity=".157"/><stop offset="1" stop-color="#fff" stop-opacity=".392"/></linearGradient><linearGradient gradientTransform="matrix(.2538 0 0 .30502 19.13 7.315)" gradientUnits="userSpaceOnUse" xlink:href="#c" id="r" y2="2.906" x2="-51.786" y1="50.786" x1="-51.786"/><linearGradient id="c"><stop offset="0" stop-opacity=".34"/><stop offset="1" stop-opacity=".247"/></linearGradient><linearGradient gradientTransform="translate(.452 8)" id="s" gradientUnits="userSpaceOnUse" x1="8.066" x2="8.07" y1="13.017" y2="5.441"><stop offset="0" stop-color="#fff"/><stop offset="1" stop-color="#fff" stop-opacity="0"/></linearGradient></defs><linearGradient id="f" y2="609.51" gradientUnits="userSpaceOnUse" y1="366.65" gradientTransform="matrix(.0328 0 0 .01513 .147 14.28)" x2="302.86" x1="302.86"><stop stop-opacity="0" offset="0"/><stop offset=".5"/><stop stop-opacity="0" offset="1"/></linearGradient><radialGradient id="g" xlink:href="#d" gradientUnits="userSpaceOnUse" cy="486.65" cx="605.71" gradientTransform="matrix(.0328 0 0 .01513 .154 14.28)" r="117.14"/><linearGradient id="d"><stop offset="0"/><stop stop-opacity="0" offset="1"/></linearGradient><radialGradient id="h" xlink:href="#d" gradientUnits="userSpaceOnUse" cy="486.65" cx="605.71" gradientTransform="matrix(-.0328 0 0 .01513 23.846 14.28)" r="117.14"/><linearGradient id="i" y2="28.135" gradientUnits="userSpaceOnUse" y1="28.167" gradientTransform="matrix(.48626 .00027 .0001 .34755 59.86 1.242)" x2="-75.809" x1="-116.939"><stop stop-opacity=".271" offset="0"/><stop stop-opacity=".368" offset="1"/></linearGradient><linearGradient id="j" y2="47.013" gradientUnits="userSpaceOnUse" y1=".985" gradientTransform="matrix(.54286 0 0 .32593 -.53 3.178)" x2="25.132" x1="25.132"><stop stop-color="#f4f4f4" offset="0"/><stop stop-color="#dbdbdb" offset="1"/></linearGradient><linearGradient id="k" y2="43" gradientUnits="userSpaceOnUse" y1="5.564" gradientTransform="matrix(.4865 0 0 .37838 .824 2.42)" x2="24" x1="24"><stop stop-color="#fff" offset="0"/><stop stop-color="#fff" stop-opacity=".235" offset=".036"/><stop stop-color="#fff" stop-opacity=".157" offset=".951"/><stop stop-color="#fff" stop-opacity=".392" offset="1"/></linearGradient><linearGradient id="l" y2="39.992" gradientUnits="userSpaceOnUse" y1="110.92" gradientTransform="matrix(.11183 0 0 .11095 27.052 7.434)" x2="-96.557" x1="-96.557"><stop stop-color="#e89c42" offset="0"/><stop stop-color="#faca67" offset="1"/></linearGradient><linearGradient id="m" y2="38.561" gradientUnits="userSpaceOnUse" y1="-37.385" gradientTransform="matrix(0 -.11183 .1195 0 6.62 -5.052)" x2="-107.46" x1="-107.46"><stop stop-color="#0b85e9" offset="0"/><stop stop-color="#69d1ef" offset="1"/></linearGradient><linearGradient id="n" y2="75.191" gradientUnits="userSpaceOnUse" y1="88.75" gradientTransform="matrix(.0751 .00587 -.0062 .0715 25.005 9.547)" x2="-208.5" x1="-211.29"><stop stop-color="#ec4502" offset="0"/><stop stop-color="#fe7617" offset="1"/></linearGradient><linearGradient id="o" y2="88.801" gradientUnits="userSpaceOnUse" y1="113.98" gradientTransform="matrix(.07503 0 0 .0756 21.87 7.858)" x2="-175.25" x1="-184.92"><stop stop-color="#7a0f01" offset="0"/><stop stop-color="#d31807" offset="1"/></linearGradient><linearGradient id="e"><stop stop-color="#fff" offset="0"/><stop stop-color="#fff" stop-opacity="0" offset="1"/></linearGradient><g opacity=".2"><path d="M4.083 19.827h15.835V23.5H4.083z" fill="url(#f)" transform="translate(0 .5)"/><path d="M19.917 19.827V23.5c1.69.007 4.083-.823 4.083-1.837 0-1.013-1.885-1.836-4.083-1.836z" fill="url(#g)" transform="translate(0 .5)"/><path d="M4.083 19.827V23.5C2.393 23.507 0 22.677 0 21.663c0-1.013 1.885-1.836 4.083-1.836z" fill="url(#h)" transform="translate(0 .5)"/></g><path d="M22.5 19.5h-20v-16h20z" fill="none" stroke="url(#i)" stroke-linejoin="round" transform="rotate(90 12 12)"/><path d="M3 4h19v15H3V4z" fill="url(#j)" transform="rotate(90 12 12)"/><path d="M21.5 18.5h-18v-14h18z" fill="none" stroke="url(#k)" stroke-linecap="round" transform="rotate(90 12 12)"/><path d="M4 5v13h17V5z" fill="url(#l)" transform="rotate(90 12 12)"/><path d="M6 4v11.764c.38.108.872.196 1.46.196 1.494 0 1.28-.537 2.568-.537 1.287 0 2.046.877 3.786.877 2.156 0 2.65-1.413 4.356-1.413 1.332 0-2.568.773-1.102.773.99 0 1.32-.406 1.932-.67V4z" opacity=".07"/><path d="M4 18h11.145c.124-.252.237-.572.237-.918 0-.79-.68-1.56-.68-2.878s.855-2.31.855-3.97c0-1.66-1.238-2.035-1.238-4.153 0-2.118.783 2.082.783.755 0-.914-.34-1.304-.557-1.835H4z" fill="url(#m)" transform="rotate(90 12 12)"/><g fill="#fff"><path d="M18.62 13.055c-1.177 0-1.92.337-2.526.65-.607.314-1.064.588-1.87.588-.83 0-1.485-.2-2.138-.412-.653-.212-1.306-.443-2.066-.443-.748 0-1.35.18-1.842.352s-.873.33-1.207.33c-.302 0-.596-.105-.837-.218a.31.314 0 0 0-.133-.03v1.35c.414.105.934.186 1.545.186.826 0 1.247-.152 1.564-.29.317-.136.514-.247 1.156-.247.615 0 1.11.203 1.716.425.608.22 1.32.453 2.29.453 1.206 0 1.99-.385 2.64-.742.65-.358 1.152-.67 1.975-.67.043 0 .073.006.113.008v-1.272c-.126-.006-.236-.017-.38-.017z" opacity=".1"/><path d="M18.62 13.674c-2.242 0-2.638 1.238-4.397 1.238-1.76 0-2.808-.855-4.203-.855-1.396 0-2.214.68-3.05.68-.365 0-.703-.113-.97-.237v.713c.402.108.924.195 1.545.195 1.583 0 1.357-.537 2.72-.537 1.364 0 2.165.878 4.008.878 2.283 0 2.808-1.414 4.614-1.414.042 0 .073.006.113.008v-.65c-.125-.007-.234-.018-.38-.018z" opacity=".3"/><path d="M18.62 14.174c-2.242 0-2.638 1.238-4.397 1.238-1.76 0-2.808-.855-4.203-.855-1.396 0-2.214.68-3.05.68-.365 0-.703-.113-.97-.237v.713c.402.108.924.195 1.545.195 1.583 0 1.357-.537 2.72-.537 1.364 0 2.165.878 4.008.878 2.283 0 2.808-1.414 4.614-1.414.042 0 .073.006.113.008v-.65c-.125-.007-.234-.018-.38-.018z"/></g><path d="M18.5 4.5v16h-12v-16h12z" opacity=".3" fill="none" stroke="#000"/><path d="M8.9 15.537c-.072-.006-.154 0-.237.028-.32.108-.358.322-.387.425-.03.103-.035.182-.04.266-.01.17 0 .346.006.523.007.144.013.273.016.387-.11.025-.234.053-.375.083-.176.038-.355.076-.52.128-.08.026-.16.052-.257.108-.05.028-.106.06-.172.134-.066.074-.146.212-.142.378.01.326.21.424.305.482.093.057.17.087.252.117.164.06.347.11.526.156l.393.108-.035.365c-.017.172-.033.343-.033.51 0 .08.003.16.028.266.013.054.03.115.083.198.053.082.164.2.332.247.327.092.488-.06.575-.126.087-.068.14-.13.196-.195.11-.132.215-.28.318-.43.084-.12.16-.228.227-.32.107.04.223.087.356.14.166.07.334.138.5.188.082.025.16.048.273.057.056.005.124.01.223-.013.1-.023.248-.088.347-.225.193-.268.094-.463.053-.562-.04-.1-.084-.165-.132-.236-.096-.14-.214-.28-.33-.42-.095-.113-.177-.214-.25-.304.074-.083.156-.173.252-.277.12-.13.24-.26.34-.393.05-.067.1-.132.143-.232.023-.05.047-.11.055-.206.01-.096-.01-.252-.117-.385-.208-.258-.432-.225-.543-.22-.112.007-.193.026-.278.048-.17.043-.35.105-.523.167-.145.05-.27.096-.385.133-.06-.092-.124-.196-.198-.314-.092-.146-.185-.295-.288-.428-.052-.066-.1-.128-.185-.2-.043-.036-.096-.077-.19-.114-.047-.02-.112-.036-.185-.04zm.84 1.15l.022.005c-.006 0-.023.006-.026.007-.01 0-.015-.01.005-.012zm.308.1c.026.02.024.03.02.024l-.02-.023zm-1.592.32c.02-.01.022.003.015.006l-.03.008c.003 0 .013-.012.016-.013zm-.198.243v.027c0 .01-.01.002 0-.027zm2.613.48c-.004-.007.007-.006.017.022l-.016-.02zm.01.31c-.014.03-.024.032-.02.026.002-.003.014-.02.02-.025zm-2.602.507v.03c-.008-.03 0-.037 0-.03zm.174.268l.025.01c.01.003 0 .007-.025-.01zm1.64.29c.007-.007.008.004-.018.023l.018-.023zm-.338.095c.004 0 .024.01.032.01-.033 0-.04-.012-.032-.01z" opacity=".05"/><path d="M8.762 16.02c-.18.06.03 1.366-.084 1.512-.11.14-1.464.284-1.46.46.006.182 1.38.393 1.49.54.106.144-.17 1.416.007 1.466.183.05.82-1.125 1.002-1.18.176-.05 1.36.59 1.464.444.11-.15-.87-1.087-.867-1.27.002-.175 1.01-1.05.897-1.188-.116-.144-1.358.45-1.54.392-.174-.056-.734-1.236-.908-1.177z" opacity=".15"/><path d="M8.022 12.505c.174-.06.736 1.123.91 1.18.182.057 1.423-.54 1.54-.395.11.14-.896 1.014-.898 1.19-.002.182.977 1.12.868 1.27-.104.145-1.29-.496-1.465-.443-.182.054-.818 1.23-1 1.18-.178-.05.097-1.322-.01-1.465-.11-.148-1.482-.36-1.487-.542-.005-.176 1.35-.32 1.46-.46.114-.147-.098-1.454.082-1.515z" fill="url(#n)" transform="translate(.792 3.174)"/><path d="M8.83 15.645l-.047.046c0 .002-.002.003-.002.003-.096.235.06 1.26-.038 1.385-.004.005-.01.012-.018.017l.04.027c.79.237.098-1.428.08-1.475l-.012-.002z" opacity=".5" fill="#9d0f06"/><path d="M6.754 14.427c-.167.002-.263.01-.263.01v.04c.1.18 1.39.384 1.5.53.107.143-.17 1.43.01 1.48.184.052.827-1.138 1.01-1.193.18-.053 1.362.587 1.48.45-1-1.225-3.015-1.323-3.736-1.317z" opacity=".75" fill="url(#o)" transform="translate(.792 3.174)"/><g><path d="M3 9h10v14H3V9z" fill="url(#p)" transform="translate(10)"/><path d="M12.5 22.5h-9v-13h9z" fill="none" stroke="url(#q)" stroke-linecap="round" transform="translate(10)"/><path d="M2.5 8.5h11v15h-11v-15z" fill="none" stroke="url(#r)" stroke-linejoin="round" transform="translate(10)"/><path d="M11.718 17.008l-3.266 3.63-3.266-3.63h2.177v-3.645H9.54v3.645z" opacity=".6" fill="none" stroke="url(#s)" stroke-width=".726" stroke-linecap="round" transform="translate(10)"/><path d="M21.718 16.008l-3.266 3.63-3.266-3.63h2.177v-3.645h2.178v3.645z" fill="#46a8ea" fill-opacity=".984" stroke="#2f78c8" stroke-width=".726" stroke-linecap="round"/></g></svg>