<?xml version="1.0" encoding="UTF-8" standalone="no"?>
<svg
   xmlns:dc="http://purl.org/dc/elements/1.1/"
   xmlns:cc="http://creativecommons.org/ns#"
   xmlns:rdf="http://www.w3.org/1999/02/22-rdf-syntax-ns#"
   xmlns:svg="http://www.w3.org/2000/svg"
   xmlns="http://www.w3.org/2000/svg"
   xmlns:xlink="http://www.w3.org/1999/xlink"
   xmlns:sodipodi="http://sodipodi.sourceforge.net/DTD/sodipodi-0.dtd"
   xmlns:inkscape="http://www.inkscape.org/namespaces/inkscape"
   height="24"
   width="24"
   version="1.1"
   id="svg116"
   sodipodi:docname="lc_snapborder.svg"
   inkscape:version="0.92.3 (unknown)"
   inkscape:export-filename="/home/rizmut/Dokumen/Rizmut/Github/libreoffice-style-elementary/images_elementary/cmd/lc_snapborder.png"
   inkscape:export-xdpi="96"
   inkscape:export-ydpi="96">
  <metadata
     id="metadata122">
    <rdf:RDF>
      <cc:Work
         rdf:about="">
        <dc:format>image/svg+xml</dc:format>
        <dc:type
           rdf:resource="http://purl.org/dc/dcmitype/StillImage" />
        <dc:title></dc:title>
      </cc:Work>
    </rdf:RDF>
  </metadata>
  <defs
     id="defs120">
    <linearGradient
       inkscape:collect="always"
       id="linearGradient1666">
      <stop
         style="stop-color:#c6262e;stop-opacity:1;"
         offset="0"
         id="stop1662" />
      <stop
         style="stop-color:#b5232a;stop-opacity:1"
         offset="1"
         id="stop1664" />
    </linearGradient>
    <linearGradient
       id="k-1"
       gradientTransform="matrix(0,-0.59172,-0.63517,0,9.814467,30.721957)"
       gradientUnits="userSpaceOnUse"
       x1="38.941002"
       x2="20.576"
       y1="15.991"
       y2="15.991">
      <stop
         offset="0"
         stop-color="#fff"
         id="stop1035" />
      <stop
         offset="0.12500004"
         stop-color="#fff"
         stop-opacity=".235"
         id="stop1037" />
      <stop
         offset="0.93855339"
         stop-color="#fff"
         stop-opacity=".157"
         id="stop1039" />
      <stop
         offset="1"
         stop-color="#fff"
         stop-opacity=".392"
         id="stop1041" />
    </linearGradient>
    <linearGradient
       inkscape:collect="always"
       xlink:href="#k-1"
       id="linearGradient1660"
       x1="46.984623"
       y1="11.46967"
       x2="46.984623"
       y2="20"
       gradientUnits="userSpaceOnUse" />
    <linearGradient
       inkscape:collect="always"
       xlink:href="#linearGradient1666"
       id="linearGradient1668"
       x1="46.984623"
       y1="10"
       x2="46.984623"
       y2="23"
       gradientUnits="userSpaceOnUse" />
  </defs>
  <sodipodi:namedview
     pagecolor="#ffffff"
     bordercolor="#666666"
     borderopacity="1"
     objecttolerance="10"
     gridtolerance="10"
     guidetolerance="10"
     inkscape:pageopacity="0"
     inkscape:pageshadow="2"
     inkscape:window-width="1366"
     inkscape:window-height="706"
     id="namedview118"
     showgrid="true"
     inkscape:snap-global="true"
     inkscape:zoom="16"
     inkscape:cx="5.9678515"
     inkscape:cy="9.6938949"
     inkscape:window-x="0"
     inkscape:window-y="0"
     inkscape:window-maximized="1"
     inkscape:current-layer="svg116">
    <inkscape:grid
       type="xygrid"
       id="grid929" />
  </sodipodi:namedview>
  <linearGradient
     id="a"
     gradientTransform="matrix(.66666666 0 0 .46666666 -3.166667 .466666)"
     gradientUnits="userSpaceOnUse"
     x1="24"
     x2="24"
     xlink:href="#b"
     y1="29"
     y2="14" />
  <linearGradient
     id="b">
    <stop
       offset="0"
       stop-color="#d88f22"
       id="stop3" />
    <stop
       offset="1"
       stop-color="#d88f22"
       stop-opacity="0"
       id="stop5" />
  </linearGradient>
  <linearGradient
     id="c"
     gradientTransform="matrix(.66666666 0 0 .46666666 -12.166666 .466666)"
     gradientUnits="userSpaceOnUse"
     x1="24"
     x2="24"
     xlink:href="#b"
     y1="29"
     y2="14" />
  <linearGradient
     id="d"
     gradientTransform="matrix(.66666664 0 0 .46667556 -1.166667 -20.533589)"
     gradientUnits="userSpaceOnUse"
     x1="9"
     x2="9"
     xlink:href="#e"
     y1="29"
     y2="14" />
  <linearGradient
     id="e">
    <stop
       offset="0"
       stop-color="#fff"
       id="stop10" />
    <stop
       offset="1"
       stop-color="#fff"
       stop-opacity="0"
       id="stop12" />
  </linearGradient>
  <linearGradient
     id="f"
     gradientTransform="matrix(.66666664 0 0 .46667556 5.833335 -20.533589)"
     gradientUnits="userSpaceOnUse"
     x1="9"
     x2="9"
     xlink:href="#e"
     y1="29"
     y2="14" />
  <linearGradient
     id="g"
     gradientTransform="matrix(-.93357748 0 0 1 23.379997 -15)"
     gradientUnits="userSpaceOnUse"
     x1="8.642858"
     x2="23.299999"
     xlink:href="#h"
     y1="27.5"
     y2="27.5" />
  <linearGradient
     id="h">
    <stop
       offset="0"
       id="stop17" />
    <stop
       offset="1"
       stop-opacity="0"
       id="stop19" />
  </linearGradient>
  <linearGradient
     id="i"
     gradientTransform="matrix(-.93357745 0 0 1 23.379997 -22)"
     gradientUnits="userSpaceOnUse"
     x1="8.642858"
     x2="23.299999"
     xlink:href="#e"
     y1="27.5"
     y2="27.5" />
  <linearGradient
     id="j"
     gradientUnits="userSpaceOnUse"
     x1="10.314445"
     x2="10.314445"
     y1="6"
     y2="15">
    <stop
       offset="0"
       stop-color="#b19c7d"
       id="stop23" />
    <stop
       offset="1"
       stop-color="#a08358"
       id="stop25" />
  </linearGradient>
  <linearGradient
     id="k"
     gradientTransform="matrix(.47368427 0 0 .42857142 .421052 1.285714)"
     gradientUnits="userSpaceOnUse"
     x1="21.771429"
     x2="21.771429"
     y1="14.871428"
     y2="27.924538">
    <stop
       offset="0"
       stop-color="#fff"
       id="stop28" />
    <stop
       offset=".03252051"
       stop-color="#fff"
       stop-opacity=".235294"
       id="stop30" />
    <stop
       offset=".98558509"
       stop-color="#fff"
       stop-opacity=".156863"
       id="stop32" />
    <stop
       offset="1"
       stop-color="#fff"
       stop-opacity=".392157"
       id="stop34" />
  </linearGradient>
  <radialGradient
     id="l"
     cx="16.823883"
     cy="11.368058"
     fx="16.777113"
     fy="11.597148"
     gradientTransform="matrix(0 .80952382 -1.1390521 0 20.94881 -6.369334)"
     gradientUnits="userSpaceOnUse"
     r="10.5">
    <stop
       offset="0"
       stop-color="#f2e0c4"
       id="stop37" />
    <stop
       offset=".76470584"
       stop-color="#e5af5b"
       id="stop39" />
    <stop
       offset="1"
       stop-color="#af6900"
       id="stop41" />
  </radialGradient>
  <linearGradient
     id="m"
     gradientTransform="matrix(.2606375 0 0 .3148868 1.726764 -.048137)"
     gradientUnits="userSpaceOnUse"
     x1="10.650842"
     x2="27.192274"
     y1="2.913684"
     y2="17.470011">
    <stop
       offset="0"
       stop-color="#cad0c6"
       id="stop44" />
    <stop
       offset=".5"
       stop-color="#eaece9"
       id="stop46" />
    <stop
       offset="1"
       stop-color="#c5cbc0"
       id="stop48" />
  </linearGradient>
  <linearGradient
     id="n"
     gradientTransform="matrix(.40540511 0 0 .51351351 2.269687 -2.324319)"
     gradientUnits="userSpaceOnUse"
     x1="23.99999"
     x2="23.99999"
     y1="6.473675"
     y2="41.526306">
    <stop
       offset="0"
       stop-color="#fff"
       id="stop51" />
    <stop
       offset="0"
       stop-color="#fff"
       stop-opacity=".235294"
       id="stop53" />
    <stop
       offset="1"
       stop-color="#fff"
       stop-opacity=".156863"
       id="stop55" />
    <stop
       offset="1"
       stop-color="#fff"
       stop-opacity=".392157"
       id="stop57" />
  </linearGradient>
  <linearGradient
     id="o"
     gradientTransform="matrix(.48571543 0 0 .45629666 .342829 -1.651138)"
     gradientUnits="userSpaceOnUse"
     x1="25.132275"
     x2="25.132275"
     y1=".985206"
     y2="47.013336">
    <stop
       offset="0"
       stop-color="#f4f4f4"
       id="stop60" />
    <stop
       offset="1"
       stop-color="#dbdbdb"
       id="stop62" />
  </linearGradient>
  <radialGradient
     id="p"
     cx="605.71429"
     cy="486.64789"
     gradientTransform="matrix(.01204859 0 0 .0082353 13.238793 16.980564)"
     gradientUnits="userSpaceOnUse"
     r="117.14286"
     xlink:href="#h" />
  <radialGradient
     id="q"
     cx="605.71429"
     cy="486.64789"
     gradientTransform="matrix(-.01204859 0 0 .0082353 10.761206 16.980564)"
     gradientUnits="userSpaceOnUse"
     r="117.14286"
     xlink:href="#h" />
  <linearGradient
     id="r"
     gradientTransform="matrix(.0352071 0 0 .0082353 -.724852 16.980547)"
     gradientUnits="userSpaceOnUse"
     x1="302.85715"
     x2="302.85715"
     y1="366.64789"
     y2="609.50507">
    <stop
       offset="0"
       stop-opacity="0"
       id="stop67" />
    <stop
       offset=".5"
       id="stop69" />
    <stop
       offset="1"
       stop-opacity="0"
       id="stop71" />
  </linearGradient>
  <g
     transform="translate(0 2)"
     id="g114">
    <path
       d="m3.500001 20h16.999998v2h-16.999998z"
       fill="url(#r)"
       opacity=".15"
       id="path74" />
    <path
       d="m3.4999999 20.000085v1.999891c-.6204724.0038-1.4999999-.448075-1.4999999-1.000075 0-.551999.6924-.999816 1.4999999-.999816z"
       fill="url(#q)"
       opacity=".15"
       id="path76" />
    <path
       d="m20.5 20.000085v1.999891c.620472.0038 1.5-.448075 1.5-1.000075 0-.551999-.692402-.999816-1.5-.999816z"
       fill="url(#p)"
       opacity=".15"
       id="path78" />
    <path
       d="m3.4999601-.50004277c3.8955809 0 17.0000589.00136 17.0000589.00136l.000021 20.99871577s-11.3333862 0-17.0000799 0c0-7.000018 0-14.0000347 0-21.00005347z"
       fill="url(#o)"
       id="path80" />
    <path
       d="m19.5 19.5h-15.0000004v-18.99999967h15.0000004z"
       fill="none"
       stroke="url(#n)"
       stroke-linecap="round"
       id="path82" />
    <path
       d="m3.4460282-.51802007c3.8955809 0 17.0000588.00136 17.0000588.00136l.000021 20.99871607s-11.3333861 0-17.0000798 0c0-7.000018 0-14.000035 0-21.00005377z"
       fill="none"
       opacity=".3"
       stroke="#000"
       stroke-linejoin="round"
       stroke-width=".999922"
       id="path84" />
    <g
       id="g967"
       transform="translate(-27.984624,-2.0000003)">
      <path
         d="m 46.389038,10.48409 c 0.607323,-0.0019 1.125775,0.04938 1.555347,0.148128 2.436367,0.560409 3.509238,2.656355 3.539408,4.920758 -0.179755,2.406173 -0.827918,3.925521 -2.858708,4.760262 -0.444385,0.108628 -1.494965,0.176168 -2.245478,0.178566 l -4.891349,0.01563 4.31e-4,-4.037564 4.535841,-0.01563 c 2.001672,-0.05235 1.988936,-1.911699 0.009,-1.967993 l -4.535841,0.01563 v -4.002158 z"
         style="font-style:normal;font-variant:normal;font-weight:bold;font-stretch:normal;font-size:medium;line-height:1.25;font-family:Aharoni;-inkscape-font-specification:'Aharoni Bold';letter-spacing:0px;word-spacing:0px;fill:url(#linearGradient1668);fill-opacity:1;stroke:#2a0303;stroke-width:1;stroke-miterlimit:4;stroke-dasharray:none;stroke-opacity:0.49019608"
         id="path948"
         inkscape:connector-curvature="0"
         sodipodi:nodetypes="scccsccccccs" />
      <path
         id="path961"
         d="m 41.498047,10.5 v 4.001953 L 44,14.494141 V 10.5 Z M 44,16.462891 l -2.501953,0.0078 V 20 H 44 Z"
         style="font-style:normal;font-variant:normal;font-weight:bold;font-stretch:normal;font-size:medium;line-height:1.25;font-family:Aharoni;-inkscape-font-specification:'Aharoni Bold';letter-spacing:0px;word-spacing:0px;fill:#eeeeee;fill-opacity:0.76102941;stroke:none;stroke-width:1;stroke-miterlimit:4;stroke-dasharray:none;stroke-opacity:0.49019608"
         inkscape:connector-curvature="0" />
      <path
         id="path951"
         d="M 46.388672,10.484375 41.498047,10.5 v 1 l 4.890625,-0.01563 c 0.607323,-0.0019 1.127069,0.04969 1.55664,0.148437 2.220557,0.510769 3.297943,2.299324 3.496094,4.326172 0.01382,-0.13577 0.03247,-0.265662 0.04297,-0.40625 -0.03017,-2.264403 -1.102696,-4.359513 -3.539063,-4.919922 -0.429571,-0.09875 -0.949317,-0.150337 -1.55664,-0.148437 z m 0.90625,5.488281 c -0.232254,0.262227 -0.639048,0.465933 -1.269531,0.482422 l -4.53711,0.01563 0.002,1 4.535157,-0.01563 c 1.369909,-0.03583 1.771504,-0.911077 1.269531,-1.482422 z"
         style="font-style:normal;font-variant:normal;font-weight:bold;font-stretch:normal;font-size:medium;line-height:1.25;font-family:Aharoni;-inkscape-font-specification:'Aharoni Bold';letter-spacing:0px;word-spacing:0px;opacity:0.1;fill:#206b00;fill-opacity:1;stroke:#ffffff;stroke-width:1;stroke-miterlimit:4;stroke-dasharray:none;stroke-opacity:1"
         inkscape:connector-curvature="0" />
      <path
         style="font-style:normal;font-variant:normal;font-weight:bold;font-stretch:normal;font-size:medium;line-height:1.25;font-family:Aharoni;-inkscape-font-specification:'Aharoni Bold';letter-spacing:0px;word-spacing:0px;fill:none;fill-opacity:1;stroke:url(#linearGradient1660);stroke-width:1;stroke-miterlimit:4;stroke-dasharray:none;stroke-opacity:0.91544118;opacity:0.53"
         d="m 46.392578,11.46875 -3.910156,0.01367 v 2.03125 l 3.546875,-0.01172 c 0.01042,-1.65e-4 0.02083,-1.65e-4 0.03125,0 0.648942,0.01845 1.220216,0.182742 1.671875,0.515625 0.451658,0.332883 0.774464,0.872509 0.77539,1.453125 9.27e-4,0.580616 -0.32116,1.124207 -0.77539,1.457031 -0.45423,0.332825 -1.028846,0.494646 -1.681641,0.511719 -0.0072,7.8e-5 -0.01432,7.8e-5 -0.02148,0 l -3.554688,0.01172 0.02153,2.058594 3.904297,-0.01172 c 0.662081,-0.0021 1.659313,-0.09435 1.919922,-0.142578 0.787752,-0.337493 1.229944,-0.56674 1.560546,-1.197266 0.333519,-0.636088 0.522119,-1.525325 0.609375,-2.628906 -0.01938,-0.964566 -0.251905,-1.860657 -0.695312,-2.535156 -0.449879,-0.684345 -1.08261,-1.175154 -2.070313,-1.402344 -0.33354,-0.07667 -0.782226,-0.124767 -1.332031,-0.123047 z"
         id="path1619"
         inkscape:connector-curvature="0"
         sodipodi:nodetypes="ccccccccccccccscsccc" />
    </g>
  </g>
</svg>
