<svg xmlns="http://www.w3.org/2000/svg" xmlns:xlink="http://www.w3.org/1999/xlink" viewBox="0 0 24 24"><defs><linearGradient gradientTransform="matrix(.2857 0 0 .3042 1.143 8.233)" gradientUnits="userSpaceOnUse" xlink:href="#a" id="k" y2="47.013" x2="25.132" y1=".985" x1="25.132"/><linearGradient id="a"><stop offset="0" stop-color="#f4f4f4"/><stop offset="1" stop-color="#dbdbdb"/></linearGradient><linearGradient gradientTransform="matrix(.2432 0 0 .3513 2.162 7.568)" gradientUnits="userSpaceOnUse" xlink:href="#b" id="l" y2="41.077" x2="24" y1="6.923" x1="24"/><linearGradient id="b"><stop offset="0" stop-color="#fff"/><stop offset="0" stop-color="#fff" stop-opacity=".235"/><stop offset="1" stop-color="#fff" stop-opacity=".157"/><stop offset="1" stop-color="#fff" stop-opacity=".392"/></linearGradient><linearGradient gradientTransform="matrix(.2538 0 0 .305 19.13 7.315)" gradientUnits="userSpaceOnUse" xlink:href="#c" id="m" y2="2.906" x2="-51.786" y1="50.786" x1="-51.786"/><linearGradient id="c"><stop offset="0" stop-opacity=".34"/><stop offset="1" stop-opacity=".247"/></linearGradient><linearGradient gradientTransform="translate(.452 8)" id="n" gradientUnits="userSpaceOnUse" x1="8.066" x2="8.07" y1="13.017" y2="5.441"><stop offset="0" stop-color="#fff"/><stop offset="1" stop-color="#fff" stop-opacity="0"/></linearGradient></defs><linearGradient id="e" y2="609.51" gradientUnits="userSpaceOnUse" y1="366.65" gradientTransform="matrix(.0328 0 0 .015 .147 14.28)" x2="302.86" x1="302.86"><stop stop-opacity="0" offset="0"/><stop offset=".5"/><stop stop-opacity="0" offset="1"/></linearGradient><radialGradient id="f" xlink:href="#d" gradientUnits="userSpaceOnUse" cy="486.65" cx="605.71" gradientTransform="matrix(.0328 0 0 .015 .154 14.28)" r="117.14"/><linearGradient id="d"><stop offset="0"/><stop stop-opacity="0" offset="1"/></linearGradient><radialGradient id="g" xlink:href="#d" gradientUnits="userSpaceOnUse" cy="486.65" cx="605.71" gradientTransform="matrix(-.0328 0 0 .015 23.846 14.28)" r="117.14"/><linearGradient id="h" y2="28.135" gradientUnits="userSpaceOnUse" y1="28.167" gradientTransform="matrix(.4863 .0003 0 .3476 59.86 1.242)" x2="-75.809" x1="-116.939"><stop stop-opacity=".271" offset="0"/><stop stop-opacity=".368" offset="1"/></linearGradient><linearGradient id="i" y2="27.356" gradientUnits="userSpaceOnUse" y1="27.818" gradientTransform="matrix(.543 0 0 .326 -.53 3.178)" x2="41.805" x1="12.768"><stop stop-color="#f4f4f4" offset="0"/><stop stop-color="#dbdbdb" offset="1"/></linearGradient><linearGradient id="j" y2="25.706" gradientUnits="userSpaceOnUse" y1="25.329" gradientTransform="matrix(.4865 0 0 .3784 .824 2.42)" x2="43.511" x1="4.637"><stop stop-color="#fff" offset="0"/><stop stop-color="#fff" stop-opacity=".235" offset=".036"/><stop stop-color="#fff" stop-opacity=".157" offset=".951"/><stop stop-color="#fff" stop-opacity=".392" offset="1"/></linearGradient><g opacity=".2"><path d="M4.083 19.827h15.835V23.5H4.083z" fill="url(#e)" transform="translate(0 .5)"/><path d="M19.917 19.827V23.5c1.69.007 4.083-.823 4.083-1.837 0-1.013-1.885-1.836-4.083-1.836z" fill="url(#f)" transform="translate(0 .5)"/><path d="M4.083 19.827V23.5C2.393 23.507 0 22.677 0 21.663c0-1.013 1.885-1.836 4.083-1.836z" fill="url(#g)" transform="translate(0 .5)"/></g><path d="M22.5 19.5h-20v-16h20z" fill="none" stroke="url(#h)" stroke-linejoin="round" transform="rotate(90 12 12)"/><path d="M3 4h19v15H3V4z" fill="url(#i)" transform="rotate(90 12 12)"/><path d="M21.5 18.5h-18v-14h18z" fill="none" stroke="url(#j)" stroke-linecap="round" transform="rotate(90 12 12)"/><path d="M3 9h10v14H3V9z" fill="url(#k)" transform="translate(10)"/><path d="M12.5 22.5h-9v-13h9z" fill="none" stroke="url(#l)" stroke-linecap="round" transform="translate(10)"/><path d="M2.5 8.5h11v15h-11v-15z" fill="none" stroke="url(#m)" stroke-linejoin="round" transform="translate(10)"/><path d="M11.718 17.008l-3.266 3.63-3.266-3.63h2.177v-3.645H9.54v3.645z" opacity=".6" fill="none" stroke="url(#n)" stroke-width=".726" stroke-linecap="round" transform="translate(10)"/><path d="M21.718 16.008l-3.266 3.63-3.266-3.63h2.177v-3.645h2.178v3.645z" fill="#46a8ea" fill-opacity=".984" stroke="#2f78c8" stroke-width=".726" stroke-linecap="round"/></svg>