<svg xmlns="http://www.w3.org/2000/svg" xmlns:xlink="http://www.w3.org/1999/xlink" height="24" width="24"><defs><linearGradient id="a"><stop offset="0" stop-color="#737373"/><stop offset=".262" stop-color="#636363"/><stop offset=".705" stop-color="#4b4b4b"/><stop offset="1" stop-color="#3f3f3f"/></linearGradient><radialGradient xlink:href="#a" id="e" cx="13" cy=".94" fx="13" fy=".94" r="8.094" gradientTransform="matrix(-2.84165 0 0 -2.59455 49.94 3.438)" gradientUnits="userSpaceOnUse"/><linearGradient id="f" y2="23.743" gradientUnits="userSpaceOnUse" x2="33.437" gradientTransform="matrix(.49294 0 0 .51865 -1.792 -.03)" y1="18.868" x1="28.059"><stop offset="0" stop-color="#6e3d09"/><stop offset=".242" stop-color="#ea8113"/><stop offset=".621" stop-color="#5c3307"/><stop offset="1" stop-color="#e07c12"/></linearGradient><linearGradient id="g" y2="31.724" xlink:href="#b" gradientUnits="userSpaceOnUse" x2="22.012" gradientTransform="matrix(.4925 0 0 .5272 -1.783 -.32)" y1="29.811" x1="20.251"/><linearGradient id="b"><stop offset="0" stop-color="#f2f2f2"/><stop offset="1" stop-color="#c3c3c3"/></linearGradient><radialGradient id="h" gradientUnits="userSpaceOnUse" cy="35.357" cx="15.415" gradientTransform="matrix(.472 0 0 .475 -2.01 2.097)" r="7.579"><stop offset="0" stop-color="#690808"/><stop offset="1" stop-color="#f462ea"/></radialGradient><radialGradient r="14.407" cy="42.343" cx="26.782" gradientTransform="matrix(1 0 0 .282 0 30.394)" gradientUnits="userSpaceOnUse" id="i" xlink:href="#c"/><linearGradient id="c"><stop offset="0"/><stop offset="1" stop-opacity="0"/></linearGradient><linearGradient id="k" gradientTransform="matrix(.158 -.158 .155 .155 10.39 18.564)" gradientUnits="userSpaceOnUse" x1="32.326" x2="7.347" y1="5.02" y2="39.696"><stop offset="0" stop-color="#fff"/><stop offset="1" stop-color="#fff" stop-opacity="0"/></linearGradient><linearGradient id="j" gradientTransform="matrix(.158 -.158 .155 .155 10.39 18.564)" gradientUnits="userSpaceOnUse" x1="39.401" x2="-33.299" y1="-5.302" y2="68.803"><stop offset="0" stop-color="#90dbec"/><stop offset=".262" stop-color="#55c1ec"/><stop offset=".705" stop-color="#3689e6"/><stop offset="1" stop-color="#2b63a0"/></linearGradient></defs><radialGradient id="d" cx="22.571" cy="30.857" gradientTransform="matrix(.706 0 0 .136 -3.945 13.93)" gradientUnits="userSpaceOnUse" r="15.571"><stop offset="0"/><stop offset="1" stop-opacity="0"/></radialGradient><g transform="translate(-3 -.967)"><ellipse cx="12" cy="18.11" rx="11" ry="2.89" opacity=".2" fill="url(#d)"/><path d="M15.3 13.7H8.58l-1.156 2.9h-3.09l6.334-15.2h2.877l6.11 15.2H16.42zm-5.92-2.3h5.046l-2.252-6.876z" fill="url(#e)" stroke="#000" stroke-width=".866" stroke-linecap="round" stroke-linejoin="round" stroke-opacity=".581"/></g><path transform="translate(7.707 -.107) scale(1.048)" d="M9.82 12.62l2.005 1.972c1.178-1.218 3.057-3.31 4.353-5.147l.085-4.152c-2.142 2.367-4.8 5.343-6.442 7.328z" stroke-linecap="round" stroke-width=".743" stroke="#673907" fill="url(#f)"/><path transform="translate(7.707 -.107) scale(1.048)" d="M5.413 18.464l1.272 1.162 5.355-4.94c-.216-.824-1.45-2.312-2.373-2.312l-4.253 6.09z" stroke-linecap="round" stroke-width=".749" stroke="#787a75" fill="url(#g)"/><path transform="translate(7.707 -.107) scale(1.048)" d="M1 21.977c3.135 0 5.514.386 5.965-1.97.363-1.898-2.165-2.808-3.417-1.113C2.34 20.526 1 21.977 1 21.977z" fill="url(#h)"/><path transform="matrix(.546 0 0 .516 .955 .073)" d="M41.19 42.343c0 2.245-6.45 4.066-14.408 4.066-7.957 0-14.407-1.82-14.407-4.07 0-2.244 6.45-4.065 14.407-4.065s14.407 1.82 14.407 4.066z" fill="url(#i)" opacity=".2"/><path d="M17.903 12.23l-.006 1.293c-1.205.023-2.348.42-3.263 1.317-1.864 1.823-1.916 4.82-.08 6.586 1.424 1.37 2.78 1.32 3.292 1.334.68.02 3.8-.417 4.61-3.76h-1.83c-.057 1.197-3.45 2.47-4.61.988-.697-.893-.99-2.7-.007-3.65.396-.385 1.34-.885 1.887-.9l.006 1.375 1.512-1.193v-.28h.357l.926-.73z" fill="url(#j)" transform="translate(-.39 -1)"/><path d="M17.513 11.23l-.006 1.293c-1.205.023-2.348.42-3.263 1.317-1.863 1.823-1.86 4.765-.08 6.586.888.91 2.045 1.328 3.213 1.344.196.002.386-.005.568-.022 2.923-.266 4-2.68 4.205-3.748h-1.963c-.24 1.155-3.285 2.64-4.56.988-.693-.896-.99-2.7-.008-3.65.395-.385 1.34-.885 1.886-.9l.006 1.375 2.795-2.204-2.795-2.38z" fill="none" stroke="#559ac6" stroke-linejoin="round"/><path d="M18.56 13.613v.408a.203.203 0 0 1-.213.206c-1.188-.054-2.408.245-3.274 1.11-1.606 1.607-1.51 4.166-.035 5.642.864.863 1.938 1.084 2.588 1.148 1.4.138 2.56-.41 3.347-1.166.707-.68 1.068-1.517 1.06-2.112l-.8.125c-.054.36-.234.722-.538 1.06-.356.396-.846.757-1.41 1.008-1.126.504-2.58.547-3.72-.57-.638-.63-.928-1.527-.92-2.397.01-.87.313-1.726.91-2.277.477-.44 1.265-.992 2.8-.992a.203.203 0 0 1 .205.203v.474l1.166-.88z" opacity=".4" fill="none" stroke="url(#k)" transform="translate(-.39 -1)"/></svg>