<svg xmlns="http://www.w3.org/2000/svg" xmlns:xlink="http://www.w3.org/1999/xlink" width="24" height="24"><defs><linearGradient id="d"><stop offset="0" stop-color="#fff"/><stop offset=".52" stop-color="#fff" stop-opacity=".235"/><stop offset=".52" stop-color="#fff" stop-opacity=".157"/><stop offset="1" stop-color="#fff" stop-opacity=".392"/></linearGradient><linearGradient id="a"><stop offset="0"/><stop offset="1" stop-opacity="0"/></linearGradient><radialGradient r="8.063" fy="19.031" fx="11.25" cy="19.031" cx="11.25" gradientTransform="matrix(2.60465 0 0 .37206 -5.302 15.92)" gradientUnits="userSpaceOnUse" id="h" xlink:href="#a"/><linearGradient id="c"><stop offset="0" stop-color="#d1ff82"/><stop offset="1" stop-color="#68b723"/></linearGradient><linearGradient id="b"><stop offset="0" stop-color="#fff"/><stop offset="0" stop-color="#fff" stop-opacity=".235"/><stop offset="1" stop-color="#fff" stop-opacity=".157"/><stop offset="1" stop-color="#fff" stop-opacity=".392"/></linearGradient><linearGradient xlink:href="#b" id="j" gradientUnits="userSpaceOnUse" gradientTransform="matrix(-1.00464 0 0 1 53.044 -17.992)" x1="34.883" y1="22.992" x2="34.883" y2="28.992"/><linearGradient xlink:href="#c" id="i" x1="4.715" y1="22.595" x2="43.601" y2="22.595" gradientUnits="userSpaceOnUse" gradientTransform="matrix(0 1 1 0 2 -16)"/><linearGradient xlink:href="#d" id="k" gradientUnits="userSpaceOnUse" gradientTransform="matrix(-1.00464 0 0 1 53.044 -17.992)" x1="34.883" y1="12.992" x2="34.883" y2="37.992"/><radialGradient gradientTransform="matrix(.08508 0 0 .02707 .074 10.927)" gradientUnits="userSpaceOnUse" xlink:href="#e" id="l" fy="186.171" fx="99.157" r="62.769" cy="186.171" cx="99.157"/><linearGradient id="e"><stop offset="0" stop-color="#3d3d3d"/><stop offset=".5" stop-color="#686868" stop-opacity=".498"/><stop offset="1" stop-color="#686868" stop-opacity="0"/></linearGradient><linearGradient x1="2035.165" y1="3208.074" x2="2035.165" y2="3241.997" id="m" xlink:href="#f" gradientUnits="userSpaceOnUse" gradientTransform="matrix(.61402 0 0 .45904 -1243.367 -1471.69)"/><linearGradient id="f"><stop offset="0" stop-color="#64baff"/><stop offset="1" stop-color="#3689e6"/></linearGradient><linearGradient x1="71.204" y1="6.238" x2="71.204" y2="44.341" id="n" xlink:href="#g" gradientUnits="userSpaceOnUse" gradientTransform="matrix(.36256 0 0 .36256 -17.497 -.683)"/><linearGradient id="g"><stop offset="0" stop-color="#fff"/><stop offset=".508" stop-color="#fff" stop-opacity=".235"/><stop offset=".835" stop-color="#fff" stop-opacity=".157"/><stop offset="1" stop-color="#fff" stop-opacity=".392"/></linearGradient></defs><path d="M43.666 22.923C43.666 26.923 3 27 3 23s40.666-4.076 40.666-.077z" overflow="visible" opacity=".163" fill="url(#h)" transform="translate(5.198 12.95) scale(.44445)"/><path d="M23.272-6.46l16.9 14.428-16.916 14.424v-9.87l-15.75.078V3.545H23.27z" overflow="visible" fill="url(#i)" transform="translate(5.198 12.95) scale(.44445)"/><path d="M23.666 11.45l-15.17.05.007-6.95h15.18" overflow="visible" opacity=".6" fill="none" stroke="url(#j)" stroke-width="2.25" transform="translate(5.198 12.95) scale(.44445)"/><path d="M8.53 14.506h6.97V10.06l7.552 6.43-7.558 6.426V18.47l-6.963.036z" overflow="visible" opacity=".5" fill="none" stroke="#206b00" stroke-width="1.0000125"/><path d="M25.875-2.49V10.982a.857.857 0 0 1 0 .002l-.014 7.35L38.26 7.97z" overflow="visible" opacity=".6" fill="none" stroke="url(#k)" stroke-width="2.25" transform="translate(5.198 12.95) scale(.44445)"/><g><path d="M13.852 15.967a5.34 1.7 0 0 1-10.682 0 5.34 1.7 0 1 1 10.682 0z" fill="url(#l)" transform="translate(.195 .195) scale(.7808)"/><path d="M8.51.5C4.09.5.5 4.09.5 8.51s3.59 8.012 8.01 8.012 8.012-3.59 8.012-8.01S12.932.5 8.512.5z" color="#000" overflow="visible" opacity=".99" fill="url(#m)" transform="translate(.195 .195) scale(.7808)"/><path style="isolation:auto;mix-blend-mode:normal" d="M6.84.585C3.39.585.585 3.39.585 6.84c0 3.452 2.804 6.255 6.255 6.255 3.452 0 6.255-2.803 6.255-6.255 0-3.45-2.803-6.255-6.255-6.255z" color="#000" overflow="visible" opacity=".5" solid-color="#000000" fill="none" stroke="#002e99" stroke-width="1.0002048" stroke-linecap="round" stroke-linejoin="round"/><path d="M15.218 8.51c0 3.705-3.003 6.708-6.707 6.708-3.703 0-6.706-3.003-6.706-6.707 0-3.704 3.003-6.706 6.707-6.706 3.705 0 6.708 3.002 6.708 6.707z" color="#000" overflow="visible" opacity=".5" fill="none" stroke="url(#n)" stroke-width="1.281" stroke-linecap="round" stroke-linejoin="round" transform="translate(.195 .195) scale(.7808)"/><path style="isolation:auto;mix-blend-mode:normal" d="M7.38 3.322c-.64-.086-1.306-.03-1.917.186-.617.218-1.198.592-1.47 1.23-.175.39-.167.81 0 1.21.165.397.608.78 1.153.78.308 0 .616-.107.82-.297.203-.19.305-.44.335-.67.037-.288-.047-.41-.093-.52.03-.034.08-.077.075-.075.033-.02.08-.028.112-.037.016-.005.024.002.037 0 .014-.003-.012-.002.057-.02.36-.085.79.155.893.318.002.002.026.05-.037.242-.063.19-.2.47-.39.744-.424.612-.97 1.38-.97 2.346 0 .25-.015.355.02.577.027.172.13.315.223.39.015.013.023.01.037.02-.264.117-.493.304-.633.54-.226.382-.234.923.075 1.34l-.02.018c.01.013.03.007.038.02.003.002-.002.014 0 .018.32.433.84.564 1.285.503.45-.06.928-.334 1.098-.856.002-.005 0-.013 0-.02.003-.008.016-.008.02-.017h-.02c.216-.624-.11-1.23-.65-1.508a.592.592 0 0 0 .26-.52c-.018-.605.076-1.03.558-1.38a.592.592 0 0 0 .02-.018c.37-.29.74-.63 1.04-1.042.295-.403.523-.906.485-1.47v-.038H9.8c-.028-.596-.377-1.088-.82-1.415-.445-.33-.998-.52-1.58-.578h-.02z" color="#000" font-weight="bold" font-size="72" font-family="Standard Symbols L" overflow="visible" opacity=".05" solid-color="#000000" fill="#002e99"/><path style="isolation:auto;mix-blend-mode:normal" d="M7.112 9.272c-.02-.703.137-1.385.8-1.868.702-.546 1.377-1.23 1.306-2.036-.015-.777-.92-1.386-1.897-1.473-1.096-.152-2.424.224-2.79 1.08-.188.418-.015 1.165.61 1.165.367 0 .535-.236.563-.452.02-.164-.047-.31-.086-.445-.045-.155.148-.453.358-.575.176-.1.36-.135.386-.142.632-.152 1.26.183 1.524.59.262.41-.027 1.027-.442 1.628-.415.6-.86 1.284-.86 2.01 0 .276-.024.37-.006.48.014.09.31.08.536.038zm-.288.946c-.604-.033-1.02.65-.66 1.086.325.482 1.232.363 1.388-.182.162-.424-.228-.91-.728-.904z" color="#000" font-weight="bold" font-size="72" font-family="Standard Symbols L" overflow="visible" opacity=".15" solid-color="#000000" fill="#002e99"/><path d="M7.112 8.676c-.02-.702.137-1.384.8-1.867.702-.548 1.377-1.23 1.306-2.037-.015-.777-.92-1.386-1.897-1.474-1.096-.153-2.424.223-2.79 1.08-.188.417-.015 1.165.61 1.165.367 0 .535-.237.563-.453.02-.164-.047-.31-.086-.445-.045-.154.148-.453.358-.574.176-.102.36-.136.386-.143.632-.15 1.26.184 1.524.59.262.41-.027 1.027-.442 1.628-.415.602-.86 1.285-.86 2.01 0 .276-.024.37-.006.482.014.09.31.078.536.036zm-.288.946c-.604-.033-1.02.65-.66 1.087.325.48 1.232.36 1.388-.184.162-.423-.228-.91-.728-.904z" font-weight="bold" font-size="72" font-family="Standard Symbols L" fill="#fff"/></g></svg>