<?xml version="1.0" encoding="UTF-8" standalone="no"?>
<svg
   xmlns:dc="http://purl.org/dc/elements/1.1/"
   xmlns:cc="http://creativecommons.org/ns#"
   xmlns:rdf="http://www.w3.org/1999/02/22-rdf-syntax-ns#"
   xmlns:svg="http://www.w3.org/2000/svg"
   xmlns="http://www.w3.org/2000/svg"
   xmlns:xlink="http://www.w3.org/1999/xlink"
   xmlns:sodipodi="http://sodipodi.sourceforge.net/DTD/sodipodi-0.dtd"
   xmlns:inkscape="http://www.inkscape.org/namespaces/inkscape"
   version="1.2"
   width="24"
   height="24"
   id="svg2"
   sodipodi:docname="lc_showerrors.svg"
   inkscape:version="0.92.3 (unknown)">
  <sodipodi:namedview
     pagecolor="#ffffff"
     bordercolor="#666666"
     borderopacity="1"
     objecttolerance="10"
     gridtolerance="10"
     guidetolerance="10"
     inkscape:pageopacity="0"
     inkscape:pageshadow="2"
     inkscape:window-width="1366"
     inkscape:window-height="706"
     id="namedview27"
     showgrid="true"
     inkscape:zoom="19.666667"
     inkscape:cx="3.1486041"
     inkscape:cy="13.307533"
     inkscape:window-x="0"
     inkscape:window-y="0"
     inkscape:window-maximized="1"
     inkscape:current-layer="svg2">
    <inkscape:grid
       type="xygrid"
       id="grid875" />
  </sodipodi:namedview>
  <defs
     id="defs4">
    <linearGradient
       id="linearGradient947">
      <stop
         offset="0"
         style="stop-color:#ed5353;stop-opacity:1"
         id="stop943" />
      <stop
         offset="1"
         style="stop-color:#c6262e;stop-opacity:1"
         id="stop945" />
    </linearGradient>
    <linearGradient
       id="linearGradient4011">
      <stop
         id="stop4013"
         style="stop-color:#ffffff;stop-opacity:1"
         offset="0" />
      <stop
         id="stop4015-3"
         style="stop-color:#ffffff;stop-opacity:0.23529412"
         offset="0.507761" />
      <stop
         id="stop4017-2"
         style="stop-color:#ffffff;stop-opacity:0.15686275"
         offset="0.83456558" />
      <stop
         id="stop4019"
         style="stop-color:#ffffff;stop-opacity:0.39215687"
         offset="1" />
    </linearGradient>
    <linearGradient
       x1="71.204407"
       y1="6.2375584"
       x2="71.204407"
       y2="44.340794"
       id="linearGradient12398-3"
       xlink:href="#linearGradient4011"
       gradientUnits="userSpaceOnUse"
       gradientTransform="matrix(0.46731044,0,0,0.46731044,-20.52183,1.2300011)" />
    <linearGradient
       x1="2035.1652"
       y1="3208.0737"
       x2="2035.1652"
       y2="3241.9966"
       id="linearGradient11527-6-5"
       xlink:href="#linearGradient947"
       gradientUnits="userSpaceOnUse"
       gradientTransform="matrix(0.73237897,0,0,0.54752367,-1480.1881,-1752.4431)" />
    <radialGradient
       gradientTransform="matrix(0.10148588,0,0,0.03229098,2.9369642,15.961504)"
       gradientUnits="userSpaceOnUse"
       xlink:href="#linearGradient3820-7-2-2"
       id="radialGradient3108"
       fy="186.17059"
       fx="99.157013"
       r="62.769119"
       cy="186.17059"
       cx="99.157013" />
    <linearGradient
       id="linearGradient3820-7-2-2">
      <stop
         id="stop3822-2-6-36"
         style="stop-color:#3d3d3d;stop-opacity:1"
         offset="0" />
      <stop
         id="stop3864-8-7-6"
         style="stop-color:#686868;stop-opacity:0.49803922"
         offset="0.5" />
      <stop
         id="stop3824-1-2-4"
         style="stop-color:#686868;stop-opacity:0"
         offset="1" />
    </linearGradient>
    <radialGradient
       id="d"
       cx="65.297462"
       cy="48.216358"
       gradientTransform="matrix(0,0.52544997,-0.57162563,0,44.976422,1003.5661)"
       gradientUnits="userSpaceOnUse"
       r="31.000002">
      <stop
         offset="0"
         stop-color="#cdf87e"
         id="stop21" />
      <stop
         offset=".26238"
         stop-color="#a2e34f"
         id="stop23" />
      <stop
         offset=".66093999"
         stop-color="#68b723"
         id="stop25" />
      <stop
         offset="1"
         stop-color="#1d7e0d"
         id="stop27" />
    </radialGradient>
    <linearGradient
       id="a"
       gradientTransform="matrix(0.28179552,0,0,0.28009562,10.979593,1036.7048)"
       gradientUnits="userSpaceOnUse"
       x1="24.138529"
       x2="24.138529"
       y1="10.631441"
       y2="35.62291">
      <stop
         offset="0"
         stop-color="#fff"
         id="stop2" />
      <stop
         offset=".00000002"
         stop-color="#fff"
         stop-opacity=".235294"
         id="stop4" />
      <stop
         offset="1"
         stop-color="#fff"
         stop-opacity=".156863"
         id="stop6" />
      <stop
         offset="1"
         stop-color="#fff"
         stop-opacity=".392157"
         id="stop8" />
    </linearGradient>
  </defs>
  <metadata
     id="metadata7">
    <rdf:RDF>
      <cc:Work
         rdf:about="">
        <dc:format>image/svg+xml</dc:format>
        <dc:type
           rdf:resource="http://purl.org/dc/dcmitype/StillImage" />
        <dc:title></dc:title>
      </cc:Work>
    </rdf:RDF>
  </metadata>
  <path
     style="fill:url(#radialGradient3108);fill-opacity:1;stroke:none;stroke-width:0.9100256"
     id="path3818-0-2-5"
     d="m 19.37018,21.97313 a 6.3701792,2.0268751 0 0 1 -12.7403585,0 6.3701792,2.0268751 0 1 1 12.7403585,0 z"
     inkscape:connector-curvature="0" />
  <path
     d="m 13,3.5244304 c -5.2722692,0 -9.5552681,4.282999 -9.5552681,9.5552686 0,5.272269 4.2829989,9.555269 9.5552681,9.555269 5.27227,0 9.555278,-4.283 9.555269,-9.555269 C 22.555269,7.8074294 18.27227,3.5244304 13,3.5244304 Z"
     id="path2555-7-8-5-0-9"
     style="color:#000000;display:inline;overflow:visible;visibility:visible;opacity:0.98999999;fill:url(#linearGradient11527-6-5);fill-opacity:1;fill-rule:nonzero;stroke:none;stroke-width:0.91002542;marker:none;enable-background:accumulate"
     inkscape:connector-curvature="0" />
  <path
     d="m 13,3.5244304 c -5.2722692,0 -9.5552681,4.282999 -9.5552681,9.5552686 0,5.272269 4.2829989,9.555269 9.5552681,9.555269 5.27227,0 9.555278,-4.283 9.555269,-9.555269 C 22.555269,7.8074294 18.27227,3.5244304 13,3.5244304 Z"
     id="path2555-7-8-5-1"
     style="color:#000000;display:inline;overflow:visible;visibility:visible;opacity:0.5;fill:none;stroke:#7a0000;stroke-width:1;stroke-linecap:round;stroke-linejoin:round;stroke-miterlimit:4;stroke-dasharray:none;stroke-dashoffset:0;stroke-opacity:1;marker:none;enable-background:accumulate"
     inkscape:connector-curvature="0" />
  <path
     d="m 21.645234,13.07939 c 0,4.774795 -3.870894,8.645552 -8.645134,8.645552 -4.7746762,0 -8.6453426,-3.870803 -8.6453426,-8.645552 0,-4.774568 3.8706664,-8.644934 8.6453426,-8.644934 4.77424,0 8.645134,3.870366 8.645134,8.644934 z"
     id="path8655-6-0-9-5-0"
     style="color:#000000;display:inline;overflow:visible;visibility:visible;opacity:0.4;fill:none;stroke:url(#linearGradient12398-3);stroke-width:1;stroke-linecap:round;stroke-linejoin:round;stroke-miterlimit:4;stroke-dasharray:none;stroke-dashoffset:0;stroke-opacity:1;marker:none;enable-background:accumulate"
     inkscape:connector-curvature="0" />
  <path
     style="opacity:0.05;vector-effect:none;fill:#7a0000;fill-opacity:1;stroke:none;stroke-width:0.76736677;stroke-linecap:butt;stroke-linejoin:miter;stroke-miterlimit:4;stroke-dasharray:none;stroke-dashoffset:0;stroke-opacity:1;marker:none"
     id="path860-3-6-2"
     d="m 13,6.70952 c -1.160193,0 -2.2093,0.8876143 -2.2093,2.0795505 0,1.3941595 0.442522,4.0350495 0.874477,7.1451235 a 0.91011657,0.91011657 0 0 0 0.90114,0.785608 H 13 13.433684 a 0.91011657,0.91011657 0 0 0 0.90114,-0.785608 C 14.766779,12.824119 15.209301,10.18323 15.209301,8.7890705 15.209301,7.5971334 14.160195,6.70952 13,6.70952 Z m 0,10.010282 c -1.245704,0 -2.275064,1.029359 -2.275064,2.275063 0,1.245705 1.02936,2.275064 2.275064,2.275064 1.245705,0 2.275065,-1.02936 2.275065,-2.275064 0,-1.245704 -1.02936,-2.275063 -2.275065,-2.275063 z"
     inkscape:connector-curvature="0" />
  <path
     style="opacity:0.15;vector-effect:none;fill:#7a0000;fill-opacity:1;stroke:none;stroke-width:0.76736677;stroke-linecap:butt;stroke-linejoin:miter;stroke-miterlimit:4;stroke-dasharray:none;stroke-dashoffset:0;stroke-opacity:1;marker:none"
     d="m 13,7.6195455 c -0.71799,0 -1.299274,0.5233342 -1.299274,1.169525 0,1.1700331 0.432245,3.9006195 0.865591,7.0207055 h 0.867367 C 13.86703,12.689689 14.299275,9.9591036 14.299275,8.7890705 14.299275,8.1428797 13.71799,7.6195455 13,7.6195455 Z m 0,10.0102815 c -0.753888,0 -1.365038,0.611148 -1.365038,1.365038 0,0.75389 0.61115,1.365039 1.365038,1.365039 0.75389,0 1.365039,-0.611149 1.365039,-1.365039 0,-0.75389 -0.611149,-1.365038 -1.365039,-1.365038 z"
     id="path860-3-6"
     inkscape:connector-curvature="0" />
  <path
     style="opacity:1;fill:#ffffff;fill-opacity:1;stroke:none;stroke-width:0.9100256;stroke-linejoin:round;stroke-miterlimit:4;stroke-dasharray:none;stroke-opacity:0.49803922"
     d="m 13,6.70952 c -0.71799,0 -1.299274,0.5233342 -1.299274,1.1695249 0,1.1700333 0.432245,3.9006191 0.865591,7.0207051 h 0.867367 C 13.86703,11.779663 14.299275,9.0490782 14.299275,7.8790449 14.299275,7.2328541 13.71799,6.70952 13,6.70952 Z m 0,10.010282 c -0.753888,0 -1.365038,0.611148 -1.365038,1.365038 0,0.753889 0.61115,1.365038 1.365038,1.365038 0.75389,0 1.365039,-0.611149 1.365039,-1.365038 0,-0.75389 -0.611149,-1.365038 -1.365039,-1.365038 z"
     id="path860-3"
     inkscape:connector-curvature="0" />
  <g
     transform="matrix(0.96401654,0,0,0.96401654,-9.5588412,-999.95507)"
     id="g42">
    <path
       style="fill:url(#d)"
       inkscape:connector-curvature="0"
       d="m 12.802963,1044.2277 2.43068,1.8613 4.915451,-8.3022 1.925603,1.0665 0.514119,0.3472 -6.313454,11.8682 -5.988355,-4.9245 1.830901,-2.4216 z"
       id="path36" />
    <path
       style="opacity:0.5;fill:none;stroke:url(#a);stroke-width:1.03732657;stroke-miterlimit:4;stroke-dasharray:none"
       inkscape:connector-curvature="0"
       d="m 15.209743,1047.5873 5.177033,-8.6499 1.558058,0.9469 m -5.555839,9.9573 -4.841054,-3.8197 0.789181,-1.0062"
       id="path38" />
    <path
       inkscape:connector-curvature="0"
       d="m 20.191222,1037.8012 c -0.200773,-0.021 -0.400379,0.079 -0.503536,0.271 l -4.395165,8.1692 -2.825805,-2.2825 c -0.25171,-0.1397 -0.565759,-0.05 -0.703301,0.2059 l -1.267211,1.6527 c -0.137539,0.2557 -0.04501,0.5747 0.206697,0.7144 0,0 5.159568,4.3289 5.165933,4.3321 0.05899,0.033 0.215389,0.081 0.2781,0.089 0.204857,0.026 0.319801,-0.1036 0.425104,-0.2989 l 5.927462,-11.0172 c 0.13754,-0.2557 0.04501,-0.5746 -0.206696,-0.7143 l -1.901912,-1.0603 c -0.06293,-0.035 -0.132746,-0.054 -0.19967,-0.061 z"
       style="opacity:0.5;fill:none;stroke:#0f5a00;stroke-width:1.03732657;stroke-linecap:round;stroke-linejoin:round;stroke-miterlimit:4;stroke-dasharray:none"
       id="path40" />
  </g>
</svg>
