<?xml version="1.0" encoding="UTF-8" standalone="no"?>
<svg
   xmlns:dc="http://purl.org/dc/elements/1.1/"
   xmlns:cc="http://creativecommons.org/ns#"
   xmlns:rdf="http://www.w3.org/1999/02/22-rdf-syntax-ns#"
   xmlns:svg="http://www.w3.org/2000/svg"
   xmlns="http://www.w3.org/2000/svg"
   xmlns:sodipodi="http://sodipodi.sourceforge.net/DTD/sodipodi-0.dtd"
   xmlns:inkscape="http://www.inkscape.org/namespaces/inkscape"
   height="24"
   viewBox="0 0 24 24"
   width="24"
   version="1.1"
   id="svg74"
   sodipodi:docname="lc_showpropbrowser.svg"
   inkscape:version="0.92.3 (2405546, 2018-03-11)"><metadata
   id="metadata80">
  <rdf:RDF>
    <cc:Work
       rdf:about="">
      <dc:format>image/svg+xml</dc:format>
      <dc:type
         rdf:resource="http://purl.org/dc/dcmitype/StillImage" />
      <dc:title></dc:title>
    </cc:Work>
  </rdf:RDF>
</metadata>
<defs
   id="defs78">
  <linearGradient
     id="a-3"
     gradientUnits="userSpaceOnUse"
     x1="9.9784946"
     x2="9.9784946"
     y1="13.912886"
     y2="-5.8720589">
    <stop
       offset="0"
       id="stop674" />
    <stop
       offset="1"
       stop-color="#333"
       id="stop676" />
  </linearGradient>
  <linearGradient
     id="b-6"
     gradientUnits="userSpaceOnUse"
     x1="14"
     x2="6"
     y1="8"
     y2="16">
    <stop
       offset="0"
       stop-color="#fff"
       id="stop679" />
    <stop
       offset=".125"
       stop-color="#fff"
       stop-opacity="0"
       id="stop681" />
    <stop
       offset="1"
       stop-color="#fff"
       stop-opacity="0"
       id="stop683" />
  </linearGradient>
  <clipPath
     id="c-7">
    <path
       inkscape:connector-curvature="0"
       d="M 8,2.6855469 V 16.685547 l 3.132812,-3.820313 2.066407,4.986328 a 1.0001,1.0001 0 1 0 1.847656,-0.765624 L 12.935547,11.990234 17.314453,12 Z"
       id="path686" />
  </clipPath>
</defs>
<sodipodi:namedview
   pagecolor="#ffffff"
   bordercolor="#666666"
   borderopacity="1"
   objecttolerance="10"
   gridtolerance="10"
   guidetolerance="10"
   inkscape:pageopacity="0"
   inkscape:pageshadow="2"
   inkscape:window-width="1366"
   inkscape:window-height="696"
   id="namedview76"
   showgrid="false"
   inkscape:zoom="9.8333333"
   inkscape:cx="11.898305"
   inkscape:cy="12"
   inkscape:window-x="0"
   inkscape:window-y="0"
   inkscape:window-maximized="1"
   inkscape:current-layer="svg74" />
<linearGradient
   id="a"
   gradientTransform="matrix(.04846 0 0 .5238 -20.405 -100.176)"
   gradientUnits="userSpaceOnUse"
   x1="292.85699"
   x2="292.85699"
   y1="211.076"
   y2="233.827">
  <stop
     offset="0"
     id="stop2" />
  <stop
     offset="1"
     stop-opacity="0"
     id="stop4" />
</linearGradient>
<linearGradient
   id="b"
   gradientTransform="matrix(.8048 0 0 .60166 -516.818 -404.08)"
   gradientUnits="userSpaceOnUse"
   x1="731.05701"
   x2="731.05701"
   y1="654.815"
   y2="619.30701">
  <stop
     offset="0"
     stop-color="#55c1ec"
     id="stop7" />
  <stop
     offset="1"
     stop-color="#3689e6"
     id="stop9" />
</linearGradient>
<radialGradient
   id="c"
   cx="65.297462"
   cy="48.216358"
   gradientTransform="matrix(0 .52544994 -.5716256 0 46.193389 -21.123812)"
   gradientUnits="userSpaceOnUse"
   r="31.000002">
  <stop
     offset="0"
     stop-color="#cdf87e"
     id="stop12" />
  <stop
     offset=".26238"
     stop-color="#a2e34f"
     id="stop14" />
  <stop
     offset=".66093999"
     stop-color="#68b723"
     id="stop16" />
  <stop
     offset="1"
     stop-color="#1d7e0d"
     id="stop18" />
</radialGradient>
<linearGradient
   id="d"
   gradientTransform="matrix(.2817955 0 0 .2800956 12.196562 12.014885)"
   gradientUnits="userSpaceOnUse"
   x1="24.138529"
   x2="24.138529"
   y1="10.631441"
   y2="35.62291">
  <stop
     offset="0"
     stop-color="#fff"
     id="stop21" />
  <stop
     offset=".00000002"
     stop-color="#fff"
     stop-opacity=".235294"
     id="stop23" />
  <stop
     offset="1"
     stop-color="#fff"
     stop-opacity=".156863"
     id="stop25" />
  <stop
     offset="1"
     stop-color="#fff"
     stop-opacity=".392157"
     id="stop27" />
</linearGradient>
<linearGradient
   id="e"
   gradientTransform="matrix(.2817955 0 0 .2800956 12.178741 12.02218)"
   gradientUnits="userSpaceOnUse"
   x1="24.138529"
   x2="24.138529"
   y1="21.34207"
   y2="24.912279">
  <stop
     offset="0"
     stop-color="#fff"
     id="stop30" />
  <stop
     offset=".00000019"
     stop-color="#fff"
     stop-opacity=".235294"
     id="stop32" />
  <stop
     offset="1"
     stop-color="#fff"
     stop-opacity=".156863"
     id="stop34" />
  <stop
     offset="1"
     stop-color="#fff"
     stop-opacity=".392157"
     id="stop36" />
</linearGradient>
<linearGradient
   id="f"
   gradientUnits="userSpaceOnUse"
   x1="7.814"
   x2="9.271"
   y1="12.475"
   y2="19.39">
  <stop
     offset="0"
     stop-color="#64baff"
     id="stop39" />
  <stop
     offset="1"
     stop-color="#3689e6"
     id="stop41" />
</linearGradient>

/&amp;amp;gt;<g
   transform="translate(8 -8)"
   id="g50">
  <circle
     cx="8"
     cy="16"
     fill="#fdfdfb"
     r="7.5"
     stroke="#8c8c8c"
     stroke-linecap="round"
     stroke-linejoin="round"
     id="circle44" />
  <circle
     cx="8"
     cy="16"
     fill="url(#f)"
     r="4.5"
     id="circle46" />
  <circle
     cx="8"
     cy="16"
     fill="none"
     opacity=".5"
     r="4.5"
     stroke="#002e99"
     stroke-linecap="round"
     stroke-linejoin="round"
     id="circle48" />
</g>
<g
   transform="translate(0 1)"
   id="g62">
  <rect
     fill="url(#b)"
     height="12"
     opacity=".99"
     rx="1.5"
     transform="scale(-1)"
     width="12"
     x="-14"
     y="-22"
     id="rect52" />
  <rect
     fill="none"
     height="13"
     opacity=".3"
     rx="2"
     stroke="#000"
     stroke-linecap="round"
     stroke-linejoin="round"
     transform="scale(-1 1)"
     width="13"
     x="-14.5"
     y="9.5"
     id="rect54" />
  <path
     d="m11.987 11.624 2.013 1.812-6.765 8.94-5.235-4.51 1.732-2.296 3.06 2.658z"
     fill="#2f78c7"
     fill-opacity=".992"
     id="path56" />
  <path
     d="m11.987 10.624 2.013 1.812-6.765 8.94-5.235-4.51 1.732-2.296 3.06 2.658z"
     fill="#fff"
     id="path58" />
  <rect
     fill="none"
     height="11"
     opacity=".05"
     rx="1"
     stroke="url(#a)"
     stroke-linecap="round"
     stroke-linejoin="round"
     transform="scale(-1 1)"
     width="11"
     x="-13.5"
     y="10.5"
     id="rect60" />
</g>
<g
   transform="translate(6.0107526,10.010752)"
   id="g726">
  <g
     style="fill-rule:evenodd;stroke:#000000;stroke-linejoin:round"
     id="g718">
    <path
       style="opacity:0.02000002;stroke-width:6"
       inkscape:connector-curvature="0"
       d="m 7.9892474,0.989248 v 10.999999 l 2.5652276,-2.9424833 2.044188,3.7280743 c 0.494727,1.242916 2.142881,-0.74317 1.613492,-1.971723 L 12.337826,8.1811717 15.989248,7.989247 Z"
       id="path712" />
    <path
       style="opacity:0.2;stroke-width:2"
       inkscape:connector-curvature="0"
       d="m 7.9892474,0.989248 v 10.999999 l 2.5652276,-2.9424833 2.044188,3.7280743 c 0.494727,1.242916 2.142881,-0.74317 1.613492,-1.971723 L 12.337826,8.1811717 15.45535,7.9765351 Z"
       id="path714" />
    <path
       style="opacity:0.05;stroke-width:4"
       inkscape:connector-curvature="0"
       d="m 7.9892474,0.989248 v 10.999999 l 2.5652276,-2.9424833 2.044188,3.7280743 c 0.494727,1.242916 2.142881,-0.74317 1.613492,-1.971723 L 12.337826,8.1811717 15.45535,7.9765351 Z"
       id="path716" />
  </g>
  <path
     style="fill:none;stroke:#ffffff;stroke-width:2"
     inkscape:connector-curvature="0"
     d="M 7,0 V 11 L 9.5652277,8.0575157 11.609416,11.78559 c 0.494704,1.24297 2.357232,0.471184 1.827788,-0.757391 L 11.348579,7.1919247 15,7 Z"
     id="path720" />
  <path
     style="fill:url(#a-3);fill-rule:evenodd"
     inkscape:connector-curvature="0"
     d="M 7,0 V 11 L 9.5652277,8.0575157 11.609416,11.78559 c 0.494704,1.24297 2.357232,0.471184 1.827788,-0.757391 L 11.348579,7.1919247 15,7 Z"
     id="path722" />
  <path
     style="opacity:0.4;fill:none;stroke:url(#b-6);stroke-width:2.69565201"
     inkscape:connector-curvature="0"
     clip-path="url(#c-7)"
     d="M 6.9891304,6.9358866 V 18.055452 l 2.59311,-2.974467 2.0664066,3.768597 c 0.500102,1.256433 2.382807,0.476286 1.847656,-0.765624 l -2.111328,-3.877973 3.691112,-0.194011 z"
     transform="matrix(0.98924729,0,0,0.98924729,0.086022,-6.861307)"
     id="path724" />
</g>
</svg>
