<svg xmlns="http://www.w3.org/2000/svg" xmlns:xlink="http://www.w3.org/1999/xlink" viewBox="0 0 24 24"><linearGradient id="b" gradientTransform="matrix(.44577 0 0 .44994 .802 -.025)" gradientUnits="userSpaceOnUse" x1="25.132" x2="25.132" y1="15.5" y2="48.396"><stop offset="0" stop-color="#fafafa"/><stop offset="1" stop-color="#e2e1de"/></linearGradient><linearGradient id="c" gradientTransform="matrix(.48484 0 0 .52706 -.165 -.4)" gradientUnits="userSpaceOnUse" x1="24" x2="24" xlink:href="#a" y1="5" y2="43"/><linearGradient id="a"><stop offset="0" stop-color="#fff"/><stop offset=".063" stop-color="#fff" stop-opacity=".235"/><stop offset=".951" stop-color="#fff" stop-opacity=".157"/><stop offset="1" stop-color="#fff" stop-opacity=".392"/></linearGradient><linearGradient id="d" gradientTransform="matrix(.5 0 0 .25 -1 3)" gradientUnits="userSpaceOnUse" x1="23.954" x2="23.954" y1="15.999" y2="19.963"><stop offset="0"/><stop offset="1" stop-opacity="0"/></linearGradient><linearGradient id="e" gradientTransform="matrix(0 .9738 -1.34684 0 23.58 -6.308)" gradientUnits="userSpaceOnUse" x1="7.505" x2="12.639" y1="8.598" y2="8.598"><stop offset="0" stop-color="#90dbec"/><stop offset=".262" stop-color="#55c1ec"/><stop offset=".705" stop-color="#3689e6"/><stop offset="1" stop-color="#2b63a0"/></linearGradient><linearGradient id="f" gradientUnits="userSpaceOnUse" x1="11.001" x2="11.001" xlink:href="#a" y1="2.269" y2="19.728"/><rect fill="url(#b)" height="20" rx=".528" ry=".556" width="20" x="2" y="2"/><path d="M2.5 2.5h18.94V22H2.5z" fill="none" stroke="url(#c)" stroke-linecap="round" stroke-linejoin="round" stroke-width="1.1"/><path d="M1 7h22v1H1z" fill="url(#d)" opacity=".15"/><path d="M1.5 6.163v15.3c0 .575.462 1.037 1.036 1.037h18.928c.574 0 1.036-.462 1.036-1.036v-15.3" fill="none" opacity=".3" stroke="#000"/><path d="M2.536 1.5c-.574 0-1.036.462-1.036 1.036V6.5h21V2.536c0-.574-.462-1.036-1.036-1.036z" fill="url(#e)"/><g stroke-linecap="round"><path d="M2.536 1.5c-.574 0-1.036.462-1.036 1.036V6.5h21V2.536c0-.574-.462-1.036-1.036-1.036z" fill="none" opacity=".8" stroke="#2a70a7"/><path d="M2.5 2.5v3h19v-3z" fill="none" opacity=".5" stroke="url(#f)" stroke-linejoin="round"/><g stroke="#a4a4a4" fill="#e9e9e9" stroke-linejoin="round"><rect height="3" rx=".792" ry=".833" width="3" x="4.5" y="9.5"/><rect height="3" rx=".792" ry=".833" width="3" x="4.5" y="15.5"/></g></g><g stroke="#565656" stroke-linecap="round"><path d="M10.505 13.9V2" fill="#565656" fill-rule="evenodd" stroke-linejoin="round" transform="matrix(.9998 0 0 -.99154 6 22.29)"/><path d="M6.505 5l4-4 4 4" fill="none" transform="matrix(.9998 0 0 -.99154 6 22.29)"/></g></svg>