<?xml version="1.0" encoding="UTF-8" standalone="no"?>
<svg
   xmlns:dc="http://purl.org/dc/elements/1.1/"
   xmlns:cc="http://creativecommons.org/ns#"
   xmlns:rdf="http://www.w3.org/1999/02/22-rdf-syntax-ns#"
   xmlns:svg="http://www.w3.org/2000/svg"
   xmlns="http://www.w3.org/2000/svg"
   xmlns:xlink="http://www.w3.org/1999/xlink"
   xmlns:sodipodi="http://sodipodi.sourceforge.net/DTD/sodipodi-0.dtd"
   xmlns:inkscape="http://www.inkscape.org/namespaces/inkscape"
   height="24"
   width="24"
   version="1.1"
   id="svg48"
   sodipodi:docname="lc_updatecurindex.svg"
   inkscape:version="0.92.4 (unknown)"
   inkscape:export-filename="/home/rizmut/Dokumen/Rizmut/Github/libreoffice-style-elementary/images_elementary/cmd/lc_updatecurindex.png"
   inkscape:export-xdpi="96"
   inkscape:export-ydpi="96">
  <metadata
     id="metadata54">
    <rdf:RDF>
      <cc:Work
         rdf:about="">
        <dc:format>image/svg+xml</dc:format>
        <dc:type
           rdf:resource="http://purl.org/dc/dcmitype/StillImage" />
        <dc:title></dc:title>
      </cc:Work>
    </rdf:RDF>
  </metadata>
  <defs
     id="defs52">
    <linearGradient
       id="d-6"
       gradientTransform="matrix(0.6463,0,0,0.653,-2.88,-12.25)"
       gradientUnits="userSpaceOnUse"
       x1="30.027"
       x2="26.434999"
       y1="27.802999"
       y2="33.389999">
      <stop
         offset="0"
         stop-color="#fff"
         id="stop13" />
      <stop
         offset="0"
         stop-color="#fff"
         stop-opacity=".235"
         id="stop15" />
      <stop
         offset=".539"
         stop-color="#fff"
         stop-opacity=".157"
         id="stop17" />
      <stop
         offset="1"
         stop-color="#fff"
         stop-opacity=".392"
         id="stop19" />
    </linearGradient>
    <linearGradient
       id="e"
       gradientTransform="matrix(0.8236,0,0,0.8237,18.39,-12.633)"
       gradientUnits="userSpaceOnUse"
       x1="-6.388"
       x2="-6.388"
       xlink:href="#f"
       y1="22.767"
       y2="39.522999" />
    <linearGradient
       id="f">
      <stop
         offset="0"
         stop-color="#fff"
         id="stop23" />
      <stop
         offset=".5"
         stop-color="#fff"
         stop-opacity=".235"
         id="stop25" />
      <stop
         offset=".75"
         stop-color="#fff"
         stop-opacity=".157"
         id="stop27" />
      <stop
         offset="1"
         stop-color="#fff"
         stop-opacity=".392"
         id="stop29" />
    </linearGradient>
    <linearGradient
       id="g"
       gradientTransform="matrix(0.6066,0,0,0.6068,16.73,-5.904)"
       gradientUnits="userSpaceOnUse"
       x1="-2.8499999"
       x2="-2.8499999"
       xlink:href="#f"
       y1="39.396999"
       y2="22.916" />
    <linearGradient
       id="c-7"
       gradientTransform="matrix(0.48288,0,0,0.360996,-988.192,-1149.617)"
       gradientUnits="userSpaceOnUse"
       x1="2082.573"
       x2="2082.573"
       y1="3213.947"
       y2="3247.2981">
      <stop
         offset="0"
         stop-color="#64baff"
         id="stop8-5" />
      <stop
         offset="1"
         stop-color="#3689e6"
         id="stop10" />
    </linearGradient>
    <radialGradient
       id="a-3"
       cx="62.625"
       cy="4.625"
       gradientTransform="matrix(0.564708,0,0,0.16941,-17.464,21.5164)"
       gradientUnits="userSpaceOnUse"
       r="10.625"
       xlink:href="#b-5" />
    <linearGradient
       id="b-5">
      <stop
         offset="0"
         id="stop3" />
      <stop
         offset="1"
         stop-opacity="0"
         id="stop5" />
    </linearGradient>
    <radialGradient
       id="q"
       cx="605.71399"
       cy="486.64801"
       gradientTransform="matrix(0.008,0,0,0.0062,15.158,19.236)"
       gradientUnits="userSpaceOnUse"
       r="117.143"
       xlink:href="#b-5" />
  </defs>
  <sodipodi:namedview
     pagecolor="#ffffff"
     bordercolor="#666666"
     borderopacity="1"
     objecttolerance="10"
     gridtolerance="10"
     guidetolerance="10"
     inkscape:pageopacity="0"
     inkscape:pageshadow="2"
     inkscape:window-width="1366"
     inkscape:window-height="706"
     id="namedview50"
     showgrid="false"
     inkscape:zoom="9.8333333"
     inkscape:cx="-0.81355932"
     inkscape:cy="12"
     inkscape:window-x="0"
     inkscape:window-y="0"
     inkscape:window-maximized="1"
     inkscape:current-layer="svg48" />
  <linearGradient
     id="a">
    <stop
       offset="0"
       stop-color="#737373"
       id="stop2" />
    <stop
       offset=".26238"
       stop-color="#636363"
       id="stop4" />
    <stop
       offset=".704952"
       stop-color="#4b4b4b"
       id="stop6" />
    <stop
       offset="1"
       stop-color="#3f3f3f"
       id="stop8" />
  </linearGradient>
  <radialGradient
     id="b"
     cx="9.72272"
     cy="-91.022446"
     gradientTransform="matrix(-3.7910092 -.00000022 .0000002 -3.3609145 50.296794 -313.85665)"
     gradientUnits="userSpaceOnUse"
     r="7"
     xlink:href="#a" />
  <radialGradient
     id="c"
     cx="-1.473815"
     cy="-42.064499"
     gradientTransform="matrix(-1.3567669 .00000019 -.00000007 -2.1857141 10.474057 -91.012398)"
     gradientUnits="userSpaceOnUse"
     r="10"
     xlink:href="#a" />
  <radialGradient
     id="d"
     cx="11.284193"
     cy="-2.343429"
     gradientTransform="matrix(-8.6734192 -.00000046 .0000005 -9.529287 109.91325 -25.099556)"
     gradientUnits="userSpaceOnUse"
     r="2"
     xlink:href="#a" />
  <g
     id="g1011">
    <g
       id="g46"
       transform="translate(0 2)">
      <path
         id="path14"
         opacity=".35"
         fill="#fff"
         d="m17 8.4995546c0-.269086-.288334-.499541-.625-.499541h-8.7499999c-.336666 0-.625.230455-.625.499541v.999082c0 .269086.288334.499541.625.499541.0014.0041 8.7499999 0 8.7499999 0 .336666 0 .625-.230455.625-.499541z" />
      <path
         id="path16"
         stroke-linejoin="round"
         stroke-linecap="round"
         stroke="url(#c)"
         fill="none"
         d="m7.5000002 7.5000016v.9980469.00195c3.0000008-.00999 6.0000008-.015401 8.9999998-.025391v-.9746059z" />
      <path
         id="path18"
         opacity=".35"
         fill="#fff"
         d="m20.999689 4.4993871c0-.2691161-.403658-.4995969-.87498-.4995969h-12.2497283c-.4713219 0-.8749806.2304808-.8749806.4995969v.9991938c0 .2691161.4036587.4995969.8749806.4995969.00196.0041 12.2497283 0 12.2497283 0 .471322 0 .87498-.2304808.87498-.4995969z" />
      <g
         id="g28"
         stroke-linejoin="round"
         stroke-linecap="round"
         fill="none">
        <path
           id="path20"
           stroke="url(#b)"
           d="m7.5000001 3.4999508v.998047.002c4.3333339-.01 8.6666669-.01539 12.9999999-.02539v-.974609h-12.9999999z" />
        <g
           id="g26"
           stroke="#000">
          <path
             id="path22"
             opacity=".1"
             d="m7.5000002 7.5000016v.9980469.00195c3.0000008-.00999 6.0000008-.015401 8.9999998-.025391v-.9746059z" />
          <path
             id="path24"
             opacity=".1"
             d="m7.5000001 3.5000016v.9980469.00195c4.3333339-.00999 8.6666679-.015401 12.9999999-.025391v-.9746059z" />
        </g>
      </g>
      <path
         id="path30"
         opacity=".35"
         fill="#fff"
         d="m20.999689 12.499387c0-.269116-.403658-.499597-.87498-.499597h-12.2497283c-.4713219 0-.8749806.230481-.8749806.499597v.999194c0 .269116.4036587.499597.8749806.499597.00196.0041 12.2497283 0 12.2497283 0 .471322 0 .87498-.230481.87498-.499597z" />
      <path
         id="path32"
         stroke-opacity=".666667"
         stroke-linejoin="round"
         stroke-linecap="round"
         stroke="#ce5c00"
         fill="#fcaf3e"
         d="m7.5 12.5h13v-1h-13z" />
      <circle
         id="circle34"
         r="1.5"
         opacity=".35"
         fill="#fff"
         cy="5.5"
         cx="3.5" />
      <circle
         id="circle36"
         r="1.5"
         fill="url(#d)"
         cy="4.5"
         cx="3.5" />
      <circle
         id="circle38"
         r="1.5"
         opacity=".35"
         fill="#fff"
         cy="13.5"
         cx="3.5" />
      <circle
         id="circle40"
         stroke-width=".745763"
         stroke-opacity=".668605"
         stroke="#ce5c00"
         r="1.118644"
         fill="#fcaf3e"
         cy="12.5"
         cx="3.5" />
      <path
         id="path42"
         opacity=".35"
         fill="#fff"
         d="m17 16.499555c0-.269086-.288334-.499541-.625-.499541h-8.7499999c-.336666 0-.625.230455-.625.499541v.999082c0 .269086.288334.499541.625.499541.0014.0041 8.7499999 0 8.7499999 0 .336666 0 .625-.230455.625-.499541z" />
      <path
         id="path44"
         stroke-opacity=".666667"
         stroke-linejoin="round"
         stroke-linecap="round"
         stroke="#ce5c00"
         fill="#fcaf3e"
         d="m7.5 16.5h9v-1h-9z" />
    </g>
    <g
       id="g983">
      <path
         inkscape:connector-curvature="0"
         style="opacity:0.15;fill:url(#q)"
         d="M 20,21.5 V 23 c 0.414,0.003 1,-0.336 1,-0.75 0,-0.414 -0.462,-0.75 -1,-0.75 z"
         id="path89" />
      <path
         inkscape:connector-curvature="0"
         style="opacity:0.3;fill:url(#a-3);fill-rule:evenodd;stroke-width:0.60000002"
         d="m 23.9,22.3 c 0,0.9942 -2.6862,1.8 -6,1.8 -3.3138,0 -6,-0.8058 -6,-1.8 0,-0.9942 2.6862,-1.8 6,-1.8 3.3138,0 6,0.8058 6,1.8 z"
         id="path91" />
      <path
         inkscape:connector-curvature="0"
         style="opacity:0.98999999;fill:url(#c-7);stroke-width:0.60000002"
         d="m 18.2,10.6 v 1.8108 c -0.0996,-0.006 -0.1998,-0.0102 -0.3,-0.0108 -2.8164,0 -5.1,2.2836 -5.1,5.1 0,2.8164 2.2836,5.1 5.1,5.1 2.7,-0.0012 4.9308,-2.106 5.0892,-4.8 H 20.582 c -0.018,0.1596 -0.0528,0.3138 -0.096,0.462 l -0.0138,0.048 c -0.0438,0.1398 -0.1002,0.2742 -0.165,0.402 l -0.03,0.0618 c -0.0672,0.1236 -0.1428,0.24 -0.2268,0.3516 l -0.048,0.0612 c -0.0876,0.108 -0.183,0.2112 -0.2862,0.306 l -0.0504,0.0432 c -0.108,0.0942 -0.2238,0.1824 -0.3468,0.258 -0.0096,0.006 -0.0192,0.0108 -0.03,0.0162 -0.12,0.072 -0.246,0.1356 -0.3762,0.189 l -0.0504,0.0222 c -0.132,0.0504 -0.2688,0.0876 -0.4092,0.117 -0.0264,0.006 -0.054,0.012 -0.0798,0.0168 -0.156,0.0276 -0.312,0.0444 -0.474,0.0444 -0.1848,0 -0.3636,-0.018 -0.5376,-0.054 -0.0018,0 -0.0042,0 -0.006,-0.0018 -0.0048,0 -0.0084,-0.0024 -0.012,-0.0036 -0.1644,-0.0336 -0.324,-0.084 -0.4752,-0.147 L 16.829,19.9768 c -0.1482,-0.0648 -0.2892,-0.141 -0.4218,-0.2292 l -0.024,-0.0138 C 16.2494,19.6426 16.1252,19.5376 16.01,19.4242 L 15.9836,19.399 c -0.1104,-0.111 -0.21,-0.234 -0.2988,-0.3624 l -0.036,-0.048 c -0.0822,-0.123 -0.1512,-0.255 -0.2124,-0.3918 -0.012,-0.0258 -0.024,-0.0522 -0.0348,-0.078 -0.057,-0.1392 -0.102,-0.285 -0.135,-0.4344 L 15.251,18.0124 C 15.2192,17.848 15.2,17.677 15.2,17.5 c 0,-0.1842 0.018,-0.363 0.054,-0.537 l 0.0012,-0.003 0.0036,-0.0156 c 0.0342,-0.1638 0.084,-0.3228 0.1476,-0.474 l 0.0162,-0.0402 c 0.066,-0.1482 0.1416,-0.2892 0.2298,-0.4218 l 0.0138,-0.024 c 0.0912,-0.1338 0.1962,-0.258 0.3096,-0.3732 l 0.0252,-0.027 c 0.111,-0.1104 0.234,-0.21 0.3624,-0.2988 l 0.048,-0.036 c 0.1236,-0.0828 0.2556,-0.1518 0.3924,-0.213 0.0258,-0.012 0.0522,-0.024 0.078,-0.0348 0.1392,-0.057 0.285,-0.102 0.4344,-0.135 0.024,-0.006 0.048,-0.012 0.072,-0.0162 0.1662,-0.0324 0.3372,-0.0516 0.5136,-0.0516 0.1002,0 0.2004,0.006 0.3,0.018 v 1.782 l 4.6596,-3 z"
         id="path93" />
      <g
         style="fill:none"
         id="g103">
        <path
           style="opacity:0.5;stroke:url(#d-6);stroke-width:1.63699996"
           inkscape:connector-curvature="0"
           d="M 13.49,6.12 V 3.33 l 4.932,3.188 -4.932,3.14 V 7.132"
           transform="matrix(0.6,0,0,0.6,10.7,9.7)"
           id="path95" />
        <path
           style="opacity:0.5;stroke:url(#e);stroke-width:1.63699996"
           inkscape:connector-curvature="0"
           d="M 19.39,14.046 A 7.48,7.48 0 0 1 11.016,20.441 7.48,7.48 0 0 1 4.551,12.124 7.48,7.48 0 0 1 12.818,5.59"
           transform="matrix(0.6,0,0,0.6,10.7,9.7)"
           id="path97" />
        <path
           style="opacity:0.5;stroke:#002e99;stroke-width:0.98220003;stroke-linecap:round;stroke-linejoin:round"
           inkscape:connector-curvature="0"
           d="m 18.2,10.6 v 1.81 C 18.1,12.405 18,12.4 17.9,12.4 c -2.816,0 -5.1,2.284 -5.1,5.1 0,2.816 2.284,5.1 5.1,5.1 2.7,0 4.93,-2.106 5.09,-4.8 h -2.41 c -0.018,0.16 -0.053,0.314 -0.096,0.462 L 20.47,18.31 c -0.044,0.14 -0.1,0.274 -0.165,0.402 l -0.03,0.062 c -0.067,0.123 -0.143,0.24 -0.227,0.35 L 20,19.187 c -0.087,0.108 -0.183,0.21 -0.286,0.306 l -0.05,0.043 c -0.108,0.095 -0.224,0.183 -0.347,0.258 -0.01,0.006 -0.02,0.01 -0.03,0.017 -0.12,0.073 -0.247,0.136 -0.377,0.19 l -0.05,0.02 c -0.133,0.052 -0.27,0.09 -0.41,0.118 l -0.08,0.017 c -0.154,0.028 -0.312,0.044 -0.474,0.044 -0.185,0 -0.364,-0.02 -0.538,-0.055 h -0.006 c -0.004,0 -0.008,-0.003 -0.012,-0.004 -0.164,-0.034 -0.324,-0.083 -0.475,-0.147 l -0.04,-0.016 c -0.15,-0.065 -0.29,-0.14 -0.422,-0.23 l -0.024,-0.013 c -0.134,-0.09 -0.258,-0.196 -0.373,-0.31 L 15.98,19.4 c -0.11,-0.112 -0.21,-0.235 -0.3,-0.363 l -0.035,-0.048 c -0.083,-0.125 -0.152,-0.257 -0.214,-0.394 -0.012,-0.026 -0.024,-0.052 -0.034,-0.078 -0.057,-0.14 -0.102,-0.285 -0.135,-0.434 l -0.017,-0.072 c -0.03,-0.164 -0.05,-0.335 -0.05,-0.512 0,-0.184 0.018,-0.363 0.054,-0.537 v -0.003 l 0.005,-0.016 c 0.033,-0.163 0.083,-0.322 0.146,-0.474 l 0.017,-0.04 c 0.064,-0.148 0.14,-0.29 0.23,-0.422 l 0.013,-0.024 c 0.09,-0.133 0.196,-0.258 0.31,-0.373 l 0.024,-0.026 c 0.11,-0.11 0.234,-0.21 0.363,-0.3 l 0.048,-0.035 c 0.124,-0.083 0.256,-0.152 0.393,-0.213 l 0.078,-0.035 c 0.14,-0.057 0.286,-0.102 0.436,-0.135 0.024,-0.006 0.048,-0.012 0.072,-0.016 0.166,-0.03 0.337,-0.05 0.513,-0.05 0.1,0 0.202,0.007 0.3,0.017 V 16.6 l 4.66,-3 z"
           id="path99" />
        <path
           style="opacity:0.5;stroke:url(#g);stroke-width:1.63699996"
           inkscape:connector-curvature="0"
           d="m 19.77,14.5 -2.46,-0.005 c -0.77,2.723 -3.505,4.45 -6.332,3.912 C 8.003,17.841 6.042,14.981 6.586,12.002 7.131,9.022 9.976,7.042 12.96,7.566"
           transform="matrix(0.6,0,0,0.6,10.7,9.7)"
           id="path101" />
      </g>
    </g>
  </g>
</svg>
