<svg xmlns="http://www.w3.org/2000/svg" xmlns:xlink="http://www.w3.org/1999/xlink" height="24" width="24"><defs><linearGradient id="l" y2="19" xlink:href="#a" gradientUnits="userSpaceOnUse" x2="12" y1="13" x1="12"/><linearGradient id="b"><stop offset="0" stop-color="#cdf87e"/><stop offset=".262" stop-color="#a2e34f"/><stop offset=".661" stop-color="#68b723"/><stop offset="1" stop-color="#1d7e0d"/></linearGradient><linearGradient id="c"><stop offset="0" stop-color="#fff"/><stop offset="0" stop-color="#fff" stop-opacity=".235"/><stop offset="1" stop-color="#fff" stop-opacity=".157"/><stop offset="1" stop-color="#fff" stop-opacity=".392"/></linearGradient><linearGradient id="d"><stop offset="0" stop-color="#fff"/><stop offset="0" stop-color="#fff" stop-opacity=".235"/><stop offset="1" stop-color="#fff" stop-opacity=".157"/><stop offset="1" stop-color="#fff" stop-opacity=".392"/></linearGradient><linearGradient id="n" gradientTransform="matrix(.44577 0 0 .44994 .802 -.025)" gradientUnits="userSpaceOnUse" x1="25.132" x2="25.132" y1="15.5" y2="48.396"><stop offset="0" stop-color="#fafafa"/><stop offset="1" stop-color="#e2e1de"/></linearGradient><linearGradient id="o" gradientTransform="matrix(.48484 0 0 .52706 -.165 -.4)" gradientUnits="userSpaceOnUse" x1="24" x2="24" xlink:href="#e" y1="5" y2="43"/><linearGradient id="e"><stop offset="0" stop-color="#fff"/><stop offset=".063" stop-color="#fff" stop-opacity=".235"/><stop offset=".951" stop-color="#fff" stop-opacity=".157"/><stop offset="1" stop-color="#fff" stop-opacity=".392"/></linearGradient><linearGradient id="p" gradientTransform="matrix(.5 0 0 .25 -1 3)" gradientUnits="userSpaceOnUse" x1="23.954" x2="23.954" y1="15.999" y2="19.963"><stop offset="0"/><stop offset="1" stop-opacity="0"/></linearGradient><linearGradient id="q" gradientUnits="userSpaceOnUse" x1="8.295" x2="8.295" y1="-4.284" y2="16.85"><stop offset="0" stop-color="#cdf87e"/><stop offset=".262" stop-color="#a2e34f"/><stop offset=".661" stop-color="#68b723"/><stop offset="1" stop-color="#1d7e0d"/></linearGradient><linearGradient id="r" gradientUnits="userSpaceOnUse" x1="11.001" x2="11.001" xlink:href="#e" y1="2.269" y2="19.728"/><radialGradient id="m" cx="605.714" cy="486.648" gradientTransform="matrix(0 0 0 0 13.24 18.98)" gradientUnits="userSpaceOnUse" r="117.143" xlink:href="#f"/><linearGradient id="f"><stop offset="0"/><stop offset="1" stop-opacity="0"/></linearGradient></defs><linearGradient id="g"><stop stop-color="#181818" offset="0"/><stop stop-color="#181818" stop-opacity="0" offset="1"/></linearGradient><radialGradient id="h" xlink:href="#g" gradientUnits="userSpaceOnUse" cy="43.5" cx="4.993" gradientTransform="matrix(2 0 0 1.4 27.99 -17.4)" r="2.5"/><radialGradient id="i" xlink:href="#g" gradientUnits="userSpaceOnUse" cy="43.5" cx="4.993" gradientTransform="matrix(2 0 0 1.4 -20.01 -104.4)" r="2.5"/><linearGradient id="j" y2="39.999" gradientUnits="userSpaceOnUse" y1="47.028" x2="25.058" x1="25.058"><stop stop-color="#181818" stop-opacity="0" offset="0"/><stop stop-color="#181818" offset=".5"/><stop stop-color="#181818" stop-opacity="0" offset="1"/></linearGradient><linearGradient id="k" y2="20.728" gradientUnits="userSpaceOnUse" y1="3.269" x2="12.001" x1="12.001"><stop stop-color="#fff" offset="0"/><stop stop-color="#fff" stop-opacity=".235" offset=".063"/><stop stop-color="#fff" stop-opacity=".157" offset=".951"/><stop stop-color="#fff" stop-opacity=".392" offset="1"/></linearGradient><radialGradient id="a" gradientUnits="userSpaceOnUse" cy="8.45" cx="7.496" gradientTransform="matrix(0 1.14 -1.2 0 22.18 -5.75)" r="20"><stop stop-color="#fafafa" offset="0"/><stop stop-color="#e1e1e1" offset="1"/></radialGradient><g opacity=".4"><path transform="matrix(.58 0 0 .43 -1.9 2.86)" fill="url(#h)" d="M38 40h5v7h-5z"/><path fill="url(#i)" d="M-10-47h5v7h-5z" transform="matrix(-.58 0 0 -.43 -1.9 2.86)"/><path transform="matrix(.58 0 0 .43 -1.9 2.86)" fill="url(#j)" d="M10 40h28v7H10z"/></g><path fill="url(#a)" d="M3.5 3c-.286 0-.5.214-.5.5v17c0 .286.214.5.5.5h17c.286 0 .5-.214.5-.5v-17c0-.286-.214-.5-.5-.5h-17z"/><path fill="none" stroke-linecap="round" stroke="url(#k)" d="M3.5 3.5h17v17h-17z" stroke-linejoin="round" opacity=".5"/><g fill-rule="evenodd"><path fill="#fff" d="M4.936 4.975a.444.444 0 0 1-.89 0 .444.444 0 1 1 .89 0z"/><path d="M4.936 4.53a.444.444 0 0 1-.89 0 .444.444 0 1 1 .89 0z" opacity=".3"/><path fill="#fff" d="M19.916 4.975a.444.444 0 0 1-.89 0 .444.444 0 1 1 .89 0z"/><path d="M19.916 4.53a.444.444 0 0 1-.89 0 .444.444 0 1 1 .89 0z" opacity=".3"/><path fill="#fff" d="M4.936 19.992a.444.444 0 0 1-.89 0 .444.444 0 1 1 .89 0z"/><path d="M4.936 19.548a.444.444 0 0 1-.89 0 .444.444 0 1 1 .89 0z" opacity=".3"/><path fill="#fff" d="M19.916 19.992a.444.444 0 0 1-.89 0 .444.444 0 1 1 .89 0z"/><path d="M19.916 19.548a.444.444 0 0 1-.89 0 .444.444 0 1 1 .89 0z" opacity=".3"/></g><rect fill="#b5b5b5" x="5" y="7" width="14" height="5" rx="1"/><path fill-opacity=".239" d="M3.5 2C2.678 2 2 2.678 2 3.5v17c0 .822.678 1.5 1.5 1.5h17c.822 0 1.5-.678 1.5-1.5v-17c0-.822-.678-1.5-1.5-1.5h-17zm0 1h17c.286 0 .5.214.5.5v17c0 .286-.214.5-.5.5h-17c-.286 0-.5-.214-.5-.5v-17c0-.286.214-.5.5-.5z"/><rect fill="#cacaca" x="5" y="8" width="14" height="4" rx="1"/><rect fill="#bababa" x="5" y="14" width="14" height="5" rx=".69"/><rect fill="url(#l)" x="6" y="15" width="12" height="3" rx=".384"/><g fill="#4d4d4d"><rect x="8" y="16" width="1" height="1" rx="0"/><rect x="9" y="15" width="1" height="1" rx="0"/><rect x="10" y="16" width="1" height="1" rx="0"/><rect x="8" y="17" width="1" height="1" rx="0"/><rect x="10" y="17" width="1" height="1" rx="0"/><rect x="9" y="18" width="1" height="1" rx="0"/><rect x="12" y="15" width="1" height="1" rx="0"/><rect x="12" y="16" width="1" height="1" rx="0"/><rect x="12" y="17" width="1" height="1" rx="0"/><rect x="12" y="18" width="1" height="1" rx="0"/><rect x="14" y="15" width="1" height="1" rx="0"/><rect x="13" y="16" width="1" height="1" rx="0"/><rect x="14" y="17" width="1" height="1" rx="0"/><rect x="14" y="18" width="1" height="1" rx="0"/></g><path d="M20.5 22v2c.62.004 1.5-.448 1.5-1s-.692-1-1.5-1z" opacity=".15" fill="url(#m)"/><g transform="translate(10.01 7.96)"><rect y="2" x="2" width="8.858" ry=".556" rx=".528" height="12" fill="url(#n)"/><path d="M2.5 2.5H11L10.858 14H2.36z" fill="none" stroke="url(#o)" stroke-width="1.1" stroke-linecap="round" stroke-linejoin="round"/><path d="M1 7h11v1H1z" opacity=".15" fill="url(#p)"/><path d="M1.5 6.163l.018 7.3c0 .575.462 1.033 1.036 1.037l7.91.05c.575.005 1.04-.46 1.037-1.035l-.016-7.3" opacity=".3" fill="none" stroke="#000"/><path d="M2.536 1.5c-.574 0-1.036.462-1.036 1.036V6.5l9.99-.007V2.53c0-.574-.463-1.037-1.037-1.037z" fill="url(#q)"/><g fill="none" stroke-linecap="round"><path d="M2.536 1.5c-.574 0-1.036.462-1.036 1.036V6.5l9.99-.007V2.53c0-.574-.463-1.037-1.037-1.037z" opacity=".4" stroke="#126400"/><path d="M2.5 2.5v3l7.99-.007v-3z" opacity=".5" stroke="url(#r)" stroke-linejoin="round"/></g><path d="M6 7h1v8H6zm-4 3h4v1H2zm5 0h4v1H7z" opacity=".321"/><path d="M6 2h1v4H6zm5 0h1v4h-1z" opacity=".4" fill="#126400"/></g></svg>