<?xml version="1.0" encoding="UTF-8" standalone="no"?>
<svg
   xmlns:dc="http://purl.org/dc/elements/1.1/"
   xmlns:cc="http://creativecommons.org/ns#"
   xmlns:rdf="http://www.w3.org/1999/02/22-rdf-syntax-ns#"
   xmlns:svg="http://www.w3.org/2000/svg"
   xmlns="http://www.w3.org/2000/svg"
   xmlns:xlink="http://www.w3.org/1999/xlink"
   xmlns:sodipodi="http://sodipodi.sourceforge.net/DTD/sodipodi-0.dtd"
   xmlns:inkscape="http://www.inkscape.org/namespaces/inkscape"
   height="24"
   width="24"
   version="1.1"
   id="svg24"
   sodipodi:docname="lc_verticaltext.svg"
   inkscape:version="0.92.4 (unknown)">
  <metadata
     id="metadata30">
    <rdf:RDF>
      <cc:Work
         rdf:about="">
        <dc:format>image/svg+xml</dc:format>
        <dc:type
           rdf:resource="http://purl.org/dc/dcmitype/StillImage" />
        <dc:title></dc:title>
      </cc:Work>
    </rdf:RDF>
  </metadata>
  <defs
     id="defs28" />
  <sodipodi:namedview
     pagecolor="#ffffff"
     bordercolor="#666666"
     borderopacity="1"
     objecttolerance="10"
     gridtolerance="10"
     guidetolerance="10"
     inkscape:pageopacity="0"
     inkscape:pageshadow="2"
     inkscape:window-width="1366"
     inkscape:window-height="714"
     id="namedview26"
     showgrid="false"
     inkscape:zoom="9.8333333"
     inkscape:cx="17.341679"
     inkscape:cy="-0.43236206"
     inkscape:window-x="0"
     inkscape:window-y="28"
     inkscape:window-maximized="1"
     inkscape:current-layer="svg24">
    <inkscape:grid
       type="xygrid"
       id="grid840" />
  </sodipodi:namedview>
  <linearGradient
     id="a">
    <stop
       offset="0"
       stop-color="#737373"
       id="stop2" />
    <stop
       offset=".262"
       stop-color="#636363"
       id="stop4" />
    <stop
       offset=".705"
       stop-color="#4b4b4b"
       id="stop6" />
    <stop
       offset="1"
       stop-color="#3f3f3f"
       id="stop8" />
  </linearGradient>
  <linearGradient
     id="b"
     gradientUnits="userSpaceOnUse"
     x1="-22.395897"
     x2="2.020402"
     xlink:href="#a"
     y1="8.3474751"
     y2="8.3474751" />
  <linearGradient
     id="c"
     gradientUnits="userSpaceOnUse"
     x1="-22.395897"
     x2="2.020402"
     xlink:href="#a"
     y1="8.3474751"
     y2="8.3474751" />
  <linearGradient
     id="d"
     gradientUnits="userSpaceOnUse"
     x1="-15.081"
     x2="-19.514"
     y1="11.726"
     y2="6.405">
    <stop
       offset="0"
       stop-color="#1f1f1f"
       id="stop13" />
    <stop
       offset="1"
       stop-color="#5c5c5c"
       id="stop15" />
  </linearGradient>
  <g
     transform="matrix(0,0.98295,-1.01735,0,23.492304,22.014046)"
     id="g22"
     style="fill:url(#d);stroke:#000000;stroke-linecap:round;stroke-linejoin:round;stroke-opacity:0.49000005">
    <path
       d="m -12.265,17.678 -0.85,-2.79 h -4.272 l -0.85,2.79 h -2.676 l 4.135,-11.765 h 3.038 l 4.152,11.765 z m -1.443,-4.873 q -1.178,-3.79 -1.33,-4.288 -0.145,-0.497 -0.21,-0.785 -0.263,1.026 -1.514,5.073 z"
       id="path18"
       style="fill:url(#c)"
       inkscape:connector-curvature="0" />
    <path
       d="m -8.122,5.96 h 3.647 q 2.493,0 3.615,0.714 1.13,0.706 1.13,2.252 0,1.05 -0.497,1.723 -0.49,0.673 -1.307,0.81 v 0.08 q 1.114,0.247 1.603,0.93 0.496,0.68 0.496,1.81 0,1.603 -1.162,2.5 -1.154,0.898 -3.142,0.898 H -8.123 V 5.96 Z m 2.485,4.64 h 1.443 q 1.01,0 1.458,-0.31 0.457,-0.314 0.457,-1.035 0,-0.674 -0.496,-0.962 -0.49,-0.297 -1.555,-0.297 h -1.307 z m 0,1.973 v 3.053 h 1.62 q 1.025,0 1.514,-0.392 0.49,-0.393 0.49,-1.203 0,-1.457 -2.085,-1.457 z"
       id="path20"
       style="fill:url(#b)"
       inkscape:connector-curvature="0" />
  </g>
</svg>
