<?xml version="1.0" encoding="UTF-8" standalone="no"?>
<svg
   xmlns:dc="http://purl.org/dc/elements/1.1/"
   xmlns:cc="http://creativecommons.org/ns#"
   xmlns:rdf="http://www.w3.org/1999/02/22-rdf-syntax-ns#"
   xmlns:svg="http://www.w3.org/2000/svg"
   xmlns="http://www.w3.org/2000/svg"
   xmlns:xlink="http://www.w3.org/1999/xlink"
   xmlns:sodipodi="http://sodipodi.sourceforge.net/DTD/sodipodi-0.dtd"
   xmlns:inkscape="http://www.inkscape.org/namespaces/inkscape"
   height="24"
   width="24"
   version="1.1"
   id="svg50"
   sodipodi:docname="lc_wrapthrough.svg"
   inkscape:version="0.92.4 (unknown)">
  <metadata
     id="metadata56">
    <rdf:RDF>
      <cc:Work
         rdf:about="">
        <dc:format>image/svg+xml</dc:format>
        <dc:type
           rdf:resource="http://purl.org/dc/dcmitype/StillImage" />
      </cc:Work>
    </rdf:RDF>
  </metadata>
  <defs
     id="defs54" />
  <sodipodi:namedview
     pagecolor="#ffffff"
     bordercolor="#666666"
     borderopacity="1"
     objecttolerance="10"
     gridtolerance="10"
     guidetolerance="10"
     inkscape:pageopacity="0"
     inkscape:pageshadow="2"
     inkscape:window-width="1366"
     inkscape:window-height="706"
     id="namedview52"
     showgrid="false"
     inkscape:zoom="9.8333333"
     inkscape:cx="-1.0677966"
     inkscape:cy="12"
     inkscape:window-x="0"
     inkscape:window-y="0"
     inkscape:window-maximized="1"
     inkscape:current-layer="svg50" />
  <linearGradient
     id="a"
     gradientTransform="matrix(1.4 0 0 -1.5 .8 24.75)"
     gradientUnits="userSpaceOnUse"
     x1="6.689"
     x2="6.571429"
     y1="5.48"
     y2=".5">
    <stop
       offset="0"
       stop-color="#cd9ef7"
       id="stop2" />
    <stop
       offset="1"
       stop-color="#a56de2"
       id="stop4" />
  </linearGradient>
  <radialGradient
     id="b"
     cx="-1.598504"
     cy="-37.097179"
     gradientTransform="matrix(-2.8642857 .00000019 -.00000015 -2.1857141 8.778565 -83.012398)"
     gradientUnits="userSpaceOnUse"
     r="10"
     xlink:href="#c" />
  <linearGradient
     id="c">
    <stop
       offset="0"
       stop-color="#737373"
       id="stop8" />
    <stop
       offset=".26238"
       stop-color="#636363"
       id="stop10" />
    <stop
       offset=".704952"
       stop-color="#4b4b4b"
       id="stop12" />
    <stop
       offset="1"
       stop-color="#3f3f3f"
       id="stop14" />
  </linearGradient>
  <radialGradient
     id="d"
     cx="-1.473815"
     cy="-42.064499"
     gradientTransform="matrix(-2.8642857 .00000019 -.00000015 -2.1857141 8.778565 -95.012398)"
     gradientUnits="userSpaceOnUse"
     r="10"
     xlink:href="#c" />
  <radialGradient
     id="e"
     cx="-1.448878"
     cy="-38.927242"
     gradientTransform="matrix(-2.8642857 .00000019 -.00000015 -2.1857141 8.778565 -87.012398)"
     gradientUnits="userSpaceOnUse"
     r="10"
     xlink:href="#c" />
  <radialGradient
     id="f"
     cx="-1.548628"
     cy="-40.659271"
     gradientTransform="matrix(-2.8642857 .00000019 -.00000015 -2.1857141 8.778565 -91.012398)"
     gradientUnits="userSpaceOnUse"
     r="10"
     xlink:href="#c" />
  <path
     d="m22 4.4995548c0-.269086-.576667-.499541-1.25-.499541h-17.5c-.673332 0-1.25.230455-1.25.499541v.999082c0 .269086.576668.499541 1.25.499541.0028.0041 17.5 0 17.5 0 .673333 0 1.25-.230455 1.25-.499541z"
     fill="#fff"
     opacity=".35"
     id="path26" />
  <path
     d="m2.5000001 3.5000018v.9980469.00195c6.333334-.00999 12.6666679-.015401 18.9999999-.025391v-.9746059z"
     fill="none"
     stroke="url(#d)"
     stroke-linecap="round"
     stroke-linejoin="round"
     id="path28" />
  <path
     d="m22 12.001836h-20v1.998164h20z"
     fill="#fff"
     opacity=".35"
     id="path30" />
  <path
     d="m2.5000001 11.500002v.998047.002c6.333334-.01 12.6666679-.0154 18.9999999-.02539v-.974606h-18.9999999z"
     fill="none"
     stroke="url(#e)"
     stroke-linecap="round"
     stroke-linejoin="round"
     id="path32" />
  <path
     d="m22 8.001836h-20v1.998164h20z"
     fill="#fff"
     opacity=".35"
     id="path34" />
  <path
     d="m2.5000001 7.5000018v.9980469.00195c6.333334-.00999 12.6666679-.015401 18.9999999-.025391v-.9746059z"
     fill="none"
     stroke="url(#f)"
     stroke-linecap="round"
     stroke-linejoin="round"
     id="path36" />
  <path
     d="m22 16.001836h-20v1.998164h20z"
     fill="#fff"
     opacity=".35"
     id="path38" />
  <path
     d="m2.5000001 15.500002v.998047.002c6.333334-.01 12.6666679-.0154 18.9999999-.02539v-.974606h-18.9999999z"
     fill="none"
     stroke="url(#b)"
     stroke-linecap="round"
     stroke-linejoin="round"
     id="path40" />
  <path
     d="m22 20.001836h-20v1.998164h20z"
     fill="#fff"
     opacity=".35"
     id="path42" />
  <g
     fill="none"
     stroke-linecap="round"
     stroke-linejoin="round"
     transform="translate(0 4)"
     id="g48">
    <path
       d="m2.5000001 15.500002v.998047.002c6.333334-.01 12.6666679-.0154 18.9999999-.02539v-.974606h-18.9999999z"
       stroke="url(#b)"
       id="path44" />
    <path
       d="m2.5 15.500002v.998047.002c6.333334-.01 12.666668-.0154 19-.02539v-.974606h-19z"
       opacity=".1"
       stroke="#000"
       id="path46" />
  </g>
  <g
     transform="translate(6 -10)"
     id="g24">
    <path
       d="m.5018957 27.488846 10.9925153.0011.006-10.988846-10.9925985-.0011z"
       fill="url(#a)"
       stroke="#7239b3"
       stroke-linecap="round"
       stroke-linejoin="round"
       stroke-opacity=".75"
       id="path20" />
    <path
       d="m1.0078125 17.5 9.9925165.0011"
       fill="none"
       opacity=".3"
       stroke="#fff"
       id="path22" />
  </g>
</svg>
