<?xml version="1.0" encoding="UTF-8" standalone="no"?>
<svg
   xmlns:dc="http://purl.org/dc/elements/1.1/"
   xmlns:cc="http://creativecommons.org/ns#"
   xmlns:rdf="http://www.w3.org/1999/02/22-rdf-syntax-ns#"
   xmlns:svg="http://www.w3.org/2000/svg"
   xmlns="http://www.w3.org/2000/svg"
   xmlns:sodipodi="http://sodipodi.sourceforge.net/DTD/sodipodi-0.dtd"
   xmlns:inkscape="http://www.inkscape.org/namespaces/inkscape"
   height="16"
   width="16"
   version="1.1"
   id="svg35"
   sodipodi:docname="sc_animationmode.svg"
   inkscape:version="0.92.3 (unknown)">
  <metadata
     id="metadata41">
    <rdf:RDF>
      <cc:Work
         rdf:about="">
        <dc:format>image/svg+xml</dc:format>
        <dc:type
           rdf:resource="http://purl.org/dc/dcmitype/StillImage" />
        <dc:title></dc:title>
      </cc:Work>
    </rdf:RDF>
  </metadata>
  <defs
     id="defs39">
    <linearGradient
       id="c-5"
       gradientTransform="matrix(0,0,0,0,7.0499997,10.39)"
       gradientUnits="userSpaceOnUse"
       x1="86.133003"
       x2="84.639"
       y1="105.105"
       y2="20.895">
      <stop
         offset="0"
         stop-color="#efefef"
         id="stop12" />
      <stop
         offset="1"
         stop-color="#c9c9c9"
         id="stop14" />
    </linearGradient>
    <linearGradient
       gradientTransform="matrix(1.1,-0.4,0.4,1.1,-6.0000003,4.3)"
       id="a-2"
       gradientUnits="userSpaceOnUse"
       x1="11.7"
       x2="11.7"
       y1="1.834"
       y2="12.026">
      <stop
         offset="0"
         stop-color="#f6f6f6"
         id="stop2-5" />
      <stop
         offset="1"
         stop-color="#e6e6e6"
         id="stop4-4" />
    </linearGradient>
    <linearGradient
       gradientTransform="matrix(1.1,-0.4,0.4,1.1,-6.0000003,4.3)"
       id="b-7"
       gradientUnits="userSpaceOnUse"
       x1="9.6999998"
       x2="9.6999998"
       y1="2.783"
       y2="15.8025">
      <stop
         offset="0"
         stop-color="#888"
         id="stop7-4" />
      <stop
         offset="1"
         stop-color="#626262"
         id="stop9-4" />
    </linearGradient>
  </defs>
  <sodipodi:namedview
     pagecolor="#ffffff"
     bordercolor="#666666"
     borderopacity="1"
     objecttolerance="10"
     gridtolerance="10"
     guidetolerance="10"
     inkscape:pageopacity="0"
     inkscape:pageshadow="2"
     inkscape:window-width="1366"
     inkscape:window-height="706"
     id="namedview37"
     showgrid="false"
     inkscape:zoom="14.75"
     inkscape:cx="-1.1525424"
     inkscape:cy="7.4576271"
     inkscape:window-x="0"
     inkscape:window-y="0"
     inkscape:window-maximized="1"
     inkscape:current-layer="svg35" />
  <linearGradient
     id="a"
     gradientTransform="matrix(-.18643331 .00029903 .0006901 -.16327516 20.605714 17.315949)"
     gradientUnits="userSpaceOnUse"
     x1="45.414135"
     x2="45.567307"
     y1="15.270427"
     y2="96.25267">
    <stop
       offset="0"
       stop-color="#262626"
       id="stop2" />
    <stop
       offset="1"
       stop-color="#4d4d4d"
       id="stop4" />
  </linearGradient>
  <radialGradient
     id="b"
     cx="7.495683"
     cy="8.449767"
     gradientTransform="matrix(0 .74595657 -.92551809 -.00000001 15.820454 -3.634776)"
     gradientUnits="userSpaceOnUse"
     r="19.99999">
    <stop
       offset="0"
       stop-color="#f0c1ff"
       id="stop7" />
    <stop
       offset=".26238"
       stop-color="#c5a3f2"
       id="stop9" />
    <stop
       offset=".704952"
       stop-color="#7a36b1"
       id="stop11" />
    <stop
       offset="1"
       stop-color="#4c2d81"
       id="stop13" />
  </radialGradient>
  <linearGradient
     id="c"
     gradientTransform="matrix(.37256394 0 0 .41296148 .826453 .700898)"
     gradientUnits="userSpaceOnUse"
     x1="31"
     x2="3.259199"
     y1="12.875"
     y2="24.893845">
    <stop
       offset="0"
       stop-color="#fff"
       id="stop16" />
    <stop
       offset="1"
       stop-color="#fff"
       stop-opacity="0"
       id="stop18" />
  </linearGradient>
  <path
     d="m15.419893 14.419894h-14.8397866l.0000008-12.8397876 14.8397838.0000013z"
     fill="url(#a)"
     stroke="#9a69d7"
     stroke-linecap="round"
     stroke-width="1.160213"
     id="path21" />
  <path
     d="m.699948 1.770737h14.600103v12.448622h-14.600103z"
     fill="url(#b)"
     id="path23" />
  <path
     d="m.96616475 9.889292c10.14923425.713412 6.27131945-6.0211267 14.11424025-6.2280478l-.0061 4.7401497c-3.578994-1.8497836-6.5686833 7.7434531-14.15471054 2.1589601z"
     fill="url(#c)"
     fill-rule="evenodd"
     opacity=".444444"
     id="path25" />
  <g
     fill="#fff"
     id="g33">
    <path
       d="m12.473393 8.6811881-1.788155-.2914696-1.0798405 1.5137116-.3024835-1.9751066-1.6324847-.6705845 1.6012099-.9292148.0709091-1.9281548 1.2920857 1.4008214 1.676309-.5210811-.802657 1.7949689z"
       id="path27" />
    <path
       d="m7.7354118 12.048954-.6997711-1.043104-1.1220004.145342.6787637-1.060023-.4714238-1.1378776 1.1192711.3879748.8306441-.84859.01298 1.2998044.9847901.6134214-1.1112462.415348-.2220106 1.227704z"
       id="path29" />
    <path
       d="m4.7390206 12.026634-.7871273-.332928-.6293848.567858.0424215-.932654-.6817254-.488007.8133462-.243484.2080555-.8694643.4602516.7821733.8103109-.049348-.5288951.726893.2927444.838964z"
       id="path31" />
  </g>
  <g
     id="g897"
     transform="translate(-0.28301833,-1.1841183)">
    <path
       id="path68"
       display="block"
       d="M 9.542,8.612 C 9.4045,8.662 9.338,8.8045 9.388,8.942 L 9.6376,9.6284 C 9.3609,9.8162 9.1334,10.0434 8.9262,10.2956 L 8.246,9.98 C 8.1143,9.9158 7.9647,9.9702 7.905,10.104 L 7.38,11.229 c -0.0642,0.1317 -0.0098,0.2813 0.124,0.341 l 0.6788,0.3186 C 8.1226,12.2094 8.0961,12.5304 8.1284,12.8624 L 7.442,13.112 c -0.1375,0.05 -0.204,0.1925 -0.154,0.33 l 0.424,1.166 c 0.05,0.1375 0.1925,0.204 0.33,0.154 l 0.6864,-0.2496 c 0.1878,0.2767 0.415,0.5042 0.6672,0.7114 l -0.3171,0.6795 c -0.0642,0.1317 -0.0098,0.2813 0.124,0.341 l 1.125,0.525 c 0.1317,0.0642 0.2813,0.0098 0.341,-0.124 l 0.3186,-0.6788 c 0.3208,0.0602 0.6418,0.0867 0.9738,0.0544 l 0.25,0.6875 c 0.05,0.1375 0.1925,0.204 0.33,0.154 l 1.166,-0.424 c 0.1375,-0.05 0.204,-0.1925 0.154,-0.33 L 13.6113,15.422 c 0.2767,-0.1878 0.5042,-0.415 0.7114,-0.6672 l 0.6795,0.3171 c 0.1317,0.0642 0.2813,0.0098 0.341,-0.124 l 0.525,-1.125 c 0.0642,-0.1317 0.0098,-0.2813 -0.124,-0.341 l -0.6788,-0.3186 c 0.0602,-0.3208 0.0867,-0.6418 0.0544,-0.9738 l 0.6875,-0.25 c 0.1375,-0.05 0.204,-0.1925 0.154,-0.33 l -0.424,-1.166 c -0.05,-0.1375 -0.1925,-0.204 -0.33,-0.154 l -0.6864,0.2496 c -0.1878,-0.2767 -0.415,-0.5042 -0.6672,-0.7114 l 0.3171,-0.6795 c 0.0642,-0.1317 0.0098,-0.2813 -0.124,-0.341 l -1.125,-0.525 C 12.7901,8.218 12.6405,8.2724 12.5808,8.4062 L 12.2622,9.085 C 11.9414,9.0248 11.6204,8.9983 11.2884,9.0306 L 11.038,8.342 C 10.988,8.2045 10.8455,8.138 10.708,8.188 Z m 1.683,2.813 c 0.6072,-0.2208 1.2792,0.0928 1.5,0.7 0.2208,0.6072 -0.0928,1.2792 -0.7,1.5 -0.6072,0.2208 -1.2792,-0.0928 -1.5,-0.7 -0.2208,-0.6072 0.0928,-1.2792 0.7,-1.5 z"
       style="display:block;fill:url(#a-2);stroke:url(#b-7);stroke-width:0.61683768;stroke-linejoin:round"
       inkscape:connector-curvature="0" />
    <path
       id="path70"
       d="m 10.718,10.03 c -1.375,0.5 -2.087,2.027 -1.587,3.402 0.5,1.375 2.027,2.087 3.402,1.587 1.375,-0.5 2.087,-2.027 1.587,-3.402 -0.5,-1.375 -2.027,-2.087 -3.402,-1.587 z m 0.42,1.152 c 0.74,-0.27 1.56,0.113 1.83,0.855 0.27,0.74 -0.113,1.56 -0.855,1.83 -0.74,0.27 -1.56,-0.112 -1.83,-0.854 -0.27,-0.74 0.112,-1.56 0.854,-1.83 z"
       style="opacity:0.05"
       inkscape:connector-curvature="0" />
    <path
       id="path72"
       d="m 10.825,10.325 c -1.2133,0.4412 -1.8412,1.7867 -1.4,3 0.4412,1.2133 1.7867,1.8412 3,1.4 1.2133,-0.4412 1.8412,-1.7867 1.4,-3 -0.4412,-1.2133 -1.7867,-1.8412 -3,-1.4 z"
       style="fill:none;stroke:url(#c-5);stroke-width:1.02884316"
       inkscape:connector-curvature="0" />
  </g>
</svg>
