<svg xmlns="http://www.w3.org/2000/svg" xmlns:xlink="http://www.w3.org/1999/xlink" viewBox="0 0 16 16"><defs><linearGradient gradientTransform="matrix(.2857 0 0 .3042 1.143 .233)" gradientUnits="userSpaceOnUse" xlink:href="#a" id="d" y2="22.247" x2="45" y1="22.247" x1="10"/><linearGradient id="a"><stop offset="0" stop-color="#f4f4f4"/><stop offset="1" stop-color="#dbdbdb"/></linearGradient><linearGradient gradientTransform="matrix(.24324 0 0 .35135 2.162 -.432)" gradientUnits="userSpaceOnUse" xlink:href="#b" id="e" y2="24" x2="40.444" y1="24" x1="7.556"/><linearGradient id="b"><stop offset="0" stop-color="#fff"/><stop offset=".25" stop-color="#fff" stop-opacity=".235"/><stop offset="1" stop-color="#fff" stop-opacity=".157"/><stop offset="1" stop-color="#fff" stop-opacity=".392"/></linearGradient><linearGradient gradientTransform="matrix(.2538 0 0 .30502 19.13 -.685)" gradientUnits="userSpaceOnUse" xlink:href="#c" id="f" y2="2.906" x2="-51.786" y1="50.786" x1="-51.786"/><linearGradient id="c"><stop offset="0" stop-opacity=".34"/><stop offset="1" stop-opacity=".247"/></linearGradient></defs><linearGradient id="g" gradientTransform="matrix(-.9975 0 0 -.9975 45.982 33.858)" gradientUnits="userSpaceOnUse" x1="35.453" x2="35.453" y1="31.551" y2="18.89"><stop offset="0" stop-color="#fff"/><stop offset="1" stop-color="#fff" stop-opacity="0"/></linearGradient>/&gt;<path d="M3 1h10v14H3V1z" fill="url(#d)" transform="rotate(90 8 8)"/><path d="M12.5 14.5h-9v-13h9z" fill="none" stroke="url(#e)" stroke-linecap="round" transform="rotate(90 8 8)"/><path d="M2.5.5h11v15h-11V.5z" fill="none" stroke="url(#f)" stroke-linejoin="round" transform="rotate(90 8 8)"/><path d="M15.5 15.5L.5.5v15zm-7-3h-5v-5z" fill="#9cde4a" fill-rule="evenodd"/><path d="M13.093 14.5L1.5 2.875V14.5z" fill="none" stroke="url(#g)"/><path d="M15.5 15.5L.5.5v15zm-7-3h-5v-5z" fill="none" stroke="#5ca12a" stroke-linejoin="round"/></svg>