<svg xmlns="http://www.w3.org/2000/svg" xmlns:xlink="http://www.w3.org/1999/xlink" viewBox="0 0 16 16"><defs><linearGradient xlink:href="#a" id="k" gradientUnits="userSpaceOnUse" gradientTransform="matrix(.5 0 0 .5 -.8 7.8)" x1="25" y1="-11.932" x2="25" y2="8.452"/><linearGradient x1="63.999" y1="3.1" x2="63.999" y2="122.899" id="a" gradientUnits="userSpaceOnUse"><stop offset="0" stop-color="#f6f6f6"/><stop offset="1" stop-color="#e6e6e6"/></linearGradient><linearGradient xlink:href="#b" id="l" gradientUnits="userSpaceOnUse" gradientTransform="matrix(.5 0 0 .5 -.8 7.8)" x1="21" y1="-10.034" x2="21" y2="16.005"/><linearGradient id="b"><stop offset="0" stop-color="#888"/><stop offset="1" stop-color="#626262"/></linearGradient><linearGradient xlink:href="#c" id="m" gradientUnits="userSpaceOnUse" gradientTransform="matrix(0 0 0 0 8.7 8.7)" x1="86.133" y1="105.105" x2="84.639" y2="20.895"/><linearGradient id="c"><stop offset="0" stop-color="#efefef"/><stop offset="1" stop-color="#c9c9c9"/></linearGradient></defs><linearGradient id="e" gradientTransform="matrix(.7 0 0 .4 -3.7 -6.1)" gradientUnits="userSpaceOnUse" x1="25.132" x2="25.132" y1=".985" y2="47.013"><stop offset="0" stop-color="#f4f4f4"/><stop offset="1" stop-color="#dbdbdb"/></linearGradient><linearGradient id="f" gradientTransform="matrix(.6 0 0 .5 -2.6 -7.5)" gradientUnits="userSpaceOnUse" x1="24" x2="24" y1="5.564" y2="43"><stop offset="0" stop-color="#fff"/><stop offset=".036" stop-color="#fff" stop-opacity=".235"/><stop offset=".951" stop-color="#fff" stop-opacity=".157"/><stop offset="1" stop-color="#fff" stop-opacity=".392"/></linearGradient><linearGradient id="g" gradientTransform="matrix(-.3 0 0 -.2 29.3 15.4)" gradientUnits="userSpaceOnUse" x1="45.414" x2="45.567" xlink:href="#d" y1="15.27" y2="96.253"/><linearGradient id="d"><stop offset="0" stop-color="#262626"/><stop offset="1" stop-color="#4d4d4d"/></linearGradient><linearGradient id="h" gradientTransform="matrix(.5 0 0 .4 35.8 -6.9)" gradientUnits="userSpaceOnUse" x1="-65.961" x2="-21.654" xlink:href="#d" y1="61.171" y2="-4.017"/><radialGradient id="i" cx="7.496" cy="8.45" gradientTransform="matrix(0 .9 -1.3 0 22.7 -10.4)" gradientUnits="userSpaceOnUse" r="20"><stop offset="0" stop-color="#f0c1ff"/><stop offset=".262" stop-color="#c5a3f2"/><stop offset=".705" stop-color="#7a36b1"/><stop offset="1" stop-color="#4c2d81"/></radialGradient><linearGradient id="j" gradientUnits="userSpaceOnUse" x1="27.826" x2="10.842" y1="20.378" y2="27.737"><stop offset="0" stop-color="#fff"/><stop offset="1" stop-color="#fff" stop-opacity="0"/></linearGradient><path d="M.522-5.13h22.956v18.26H.522V-5.13z" fill="url(#e)" transform="matrix(.7 0 0 .7 0 4.8)"/><path d="M23.217 12.87H.783V-4.87h22.434z" fill="none" stroke="url(#f)" stroke-linecap="round" stroke-linejoin="round" stroke-width=".522" transform="matrix(.7 0 0 .7 0 4.8)"/><path d="M22.174 11.826H1.826V-3.826h20.348z" fill="url(#g)" stroke="#9a69d7" stroke-linecap="round" stroke-width=".522" transform="matrix(.7 0 0 .7 0 4.8)"/><path d="M.26-5.39h23.48v18.78H.26V-5.39z" fill="none" opacity=".781" stroke="url(#h)" stroke-linejoin="round" stroke-width=".522" transform="matrix(.7 0 0 .7 0 4.8)"/><path d="M1.996-3.696h20.008v15.392H1.996z" fill="url(#i)" transform="matrix(.7 0 0 .7 0 4.8)"/><path d="M9.077 26.118c16.677 1.058 10.305-8.926 23.193-9.233l-.01 7.027c-5.88-2.742-10.794 11.48-23.26 3.2z" fill="url(#j)" fill-rule="evenodd" opacity=".444" transform="matrix(.6 0 0 .6 -3.3 -6.6)"/><g fill="#fff"><path d="M13.492 7.996l-1.763-.26-1.066 1.347-.298-1.756-1.61-.597 1.58-.827.07-1.715 1.273 1.246 1.65-.463-.79 1.598zM8.82 10.992l-.69-.928-1.106.13.67-.944-.466-1.012 1.104.345.82-.754.012 1.155.97.545-1.095.37-.22 1.092zM5.866 10.972l-.776-.296-.62.505.04-.83-.67-.433.8-.216.206-.773.454.696.8-.044-.523.646.29.746z"/></g><g><path d="M11.22 8c-.125 0-.22.095-.22.22v.624c-.277.07-.526.186-.766.328L9.78 8.72c-.087-.09-.223-.09-.31 0l-.75.75c-.09.087-.09.223 0 .31l.452.454c-.142.24-.257.49-.328.766H8.22c-.125 0-.22.095-.22.22v1.06c0 .125.095.22.22.22h.624c.07.277.186.526.328.766l-.453.453c-.09.087-.09.223 0 .31l.75.75c.087.09.223.09.31 0l.454-.452c.24.142.49.257.766.328v.625c0 .125.095.22.22.22h1.06c.125 0 .22-.095.22-.22v-.624c.277-.07.526-.186.766-.328l.453.453c.087.09.223.09.31 0l.75-.75c.09-.087.09-.223 0-.31l-.452-.454c.142-.24.257-.49.328-.766h.625c.125 0 .22-.095.22-.22v-1.06c0-.125-.095-.22-.22-.22h-.624c-.07-.277-.186-.526-.328-.766l.453-.453c.09-.087.09-.223 0-.31l-.75-.75c-.087-.09-.223-.09-.31 0l-.454.452c-.24-.142-.49-.257-.766-.328V8.22c0-.125-.095-.22-.22-.22zm.53 2.75c.552 0 1 .448 1 1s-.448 1-1 1-1-.448-1-1 .448-1 1-1z" display="block" overflow="visible" fill="url(#k)" stroke="url(#l)" stroke-width=".527" stroke-linejoin="round" transform="matrix(1.1 -.4 .4 1.1 -6 4.3)"/><path d="M10.718 10.03c-1.375.5-2.087 2.027-1.587 3.402.5 1.375 2.027 2.087 3.402 1.587 1.375-.5 2.087-2.027 1.587-3.402-.5-1.375-2.027-2.087-3.402-1.587zm.42 1.152c.74-.27 1.56.113 1.83.855.27.74-.113 1.56-.855 1.83-.74.27-1.56-.112-1.83-.854-.27-.74.112-1.56.854-1.83z" opacity=".05"/><path d="M11.75 9.75c-1.103 0-2 .897-2 2s.897 2 2 2 2-.897 2-2-.897-2-2-2z" fill="none" stroke="url(#m)" stroke-width=".879" transform="matrix(1.1 -.4 .4 1.1 -6 4.3)"/></g></svg>