<svg xmlns="http://www.w3.org/2000/svg" xmlns:xlink="http://www.w3.org/1999/xlink" viewBox="0 0 16 16"><defs><linearGradient id="a" gradientUnits="userSpaceOnUse" x1="16.05" x2="19.999" y1="11.109" y2="14.772" gradientTransform="translate(-30.305 -11.342)"><stop offset="0" stop-color="#fce94f"/><stop offset="1" stop-color="#d7b031"/></linearGradient><linearGradient xlink:href="#a" id="b" x1="15.57" y1="14.434" x2="19.799" y2="18.22" gradientUnits="userSpaceOnUse" gradientTransform="matrix(.82437 0 0 .80582 -4.63 -5.71)"/></defs>/&gt;<path d="M5.262 6.378L8.56 9.6l5.77-5.64c.564-.405 0-.805 0-.805L11.857.737s-.41-.464-.825 0z" fill="url(#b)" fill-rule="evenodd"/><path d="M5.262 6.38v1.61l1.65 1.612H8.56zM5.055 8.87l-.618.732.826.806.695-.53z" fill="#cecece" fill-rule="evenodd"/><path d="M2.79 11.212h1.647l.826-.803-.826-.808z" fill="#fff55e" fill-rule="evenodd"/><path d="M6.554 6.583l5.01-4.936" opacity=".5" fill="none" stroke="#fff" stroke-linecap="round"/><path d="M8.455 8.52l5.19-5.055" opacity=".1" fill="none" stroke="#000" stroke-linecap="round"/><path d="M5.262 6.378L8.56 9.6l5.77-5.64c.504-.405 0-.805 0-.805L11.857.737s-.38-.435-.825 0zM2.79 11.213h1.647l.825-.806-.825-.806z" fill="none" stroke="#bf830a" stroke-linejoin="round" stroke-opacity=".471"/><path d="M5.056 8.87l-.62.73.826.807.696-.528z" fill="none" stroke="#838383" stroke-opacity=".471"/><path d="M5.262 6.378V7.99l1.65 1.61h1.647z" fill="none" stroke="#838383" stroke-linejoin="round" stroke-opacity=".471"/></svg>