<svg height="16" width="16" xmlns="http://www.w3.org/2000/svg" xmlns:xlink="http://www.w3.org/1999/xlink"><linearGradient id="a" gradientUnits="userSpaceOnUse" x1="12.063458" x2="12.063458" y1="2.463727" y2="13.438798"><stop offset="0" stop-color="#cdf87e"/><stop offset=".262" stop-color="#a2e34f"/><stop offset=".661" stop-color="#68b723"/><stop offset="1" stop-color="#1d7e0d"/></linearGradient><linearGradient id="b" gradientTransform="matrix(.35135134 0 0 .24324327 -.432434 2.162164)" gradientUnits="userSpaceOnUse" x1="40.290417" x2="40.290417" y1="7.555553" y2="40.444439"><stop offset="0" stop-color="#fff"/><stop offset="0" stop-color="#fff" stop-opacity=".235294"/><stop offset="1" stop-color="#fff" stop-opacity=".156863"/><stop offset="1" stop-color="#fff" stop-opacity=".392157"/></linearGradient><linearGradient id="c" gradientTransform="matrix(.35777784 0 0 .34425124 .486666 5.606475)" gradientUnits="userSpaceOnUse" x1="10" x2="20" y1="-3" y2="12"><stop offset="0" stop-color="#fff"/><stop offset="1" stop-color="#fff" stop-opacity="0"/></linearGradient><linearGradient id="d" gradientTransform="matrix(0 -.39448 .42345 0 -.496 18.346)" gradientUnits="userSpaceOnUse" x1="7.604416" x2="7.857325" y1="11.003552" y2="12.489676"><stop offset="0" stop-color="#fff"/><stop offset=".512" stop-color="#fff" stop-opacity=".235"/><stop offset=".585" stop-color="#fff" stop-opacity=".157"/><stop offset="1" stop-color="#fff" stop-opacity=".392"/></linearGradient><linearGradient id="e" gradientUnits="userSpaceOnUse" x1="4.073832" x2="11.963182" y1="11.830508" y2="11.830508"><stop offset="0" stop-color="#86641c"/><stop offset=".25" stop-color="#fdeb69"/><stop offset=".375" stop-color="#be9843"/><stop offset=".5" stop-color="#dfc98b"/><stop offset=".60820836" stop-color="#fdeb69"/><stop offset="1" stop-color="#835c17" stop-opacity=".960784"/></linearGradient><rect fill="url(#a)" height="11" rx="1" width="15.000488" x=".5" y="2.5"/><rect fill="none" height="11" opacity=".5" rx="1" stroke="#0f5a00" stroke-linecap="round" stroke-linejoin="round" width="15.000488" x=".5" y="2.5"/><path d="m1.5 3.500001h13v9h-13z" fill="none" opacity=".3" stroke="url(#b)" stroke-linecap="round" stroke-linejoin="round"/><path d="m1.9333336 3.000002c-.5170668 0-.9333336.394806-.9333336.885217v5.1147822l14-4.4203242v-.694458c0-.490411-.416267-.885217-.933333-.885217z" fill="url(#c)" opacity=".2"/><g stroke-linecap="round" stroke-linejoin="round"><path d="m5.9941406 4.5039062a3.8591251 3.8591251 0 0 1 -3.3632812 1.9804688 3.8591251 3.8591251 0 0 1 -.125-.0039062v3.0214843a3.8591251 3.8591251 0 0 1 .125-.0039062 3.8591251 3.8591251 0 0 1 3.3632812 1.9804691h3.9863282a3.8591251 3.8591251 0 0 1 3.3789062-1.9960941 3.8591251 3.8591251 0 0 1 .103516.0058593v-2.9941406a3.8591251 3.8591251 0 0 1 -.103516.0058594 3.8591251 3.8591251 0 0 1 -3.3789062-1.9960938z" fill="none" stroke="#0f5a00" stroke-opacity=".610294"/><g transform="translate(0 2)"><ellipse cx="8.018507" cy="11.830508" fill="#fff394" rx="3.444675" ry="1.646508" stroke="url(#e)" stroke-opacity=".915441"/><ellipse cx="8.006522" cy="11.842493" fill="none" rx="2.442897" ry=".786727" stroke="url(#d)" stroke-opacity=".610294"/></g><g transform="translate(0 1)"><ellipse cx="8.018507" cy="11.830508" fill="#fff394" rx="3.444675" ry="1.646508" stroke="url(#e)" stroke-opacity=".915441"/><ellipse cx="8.006522" cy="11.842493" fill="none" rx="2.442897" ry=".786727" stroke="url(#d)" stroke-opacity=".610294"/></g><ellipse cx="8.018507" cy="11.830508" fill="#fff394" rx="3.444675" ry="1.646508" stroke="url(#e)" stroke-opacity=".915441"/><ellipse cx="8.006522" cy="11.842493" fill="none" rx="2.442897" ry=".786727" stroke="url(#d)" stroke-opacity=".610294"/><g transform="translate(0 -1)"><ellipse cx="8.018507" cy="11.830508" fill="#fff394" rx="3.444675" ry="1.646508" stroke="url(#e)"/><ellipse cx="8.006522" cy="11.842493" fill="none" rx="2.442897" ry=".786727" stroke="url(#d)" stroke-opacity=".610294"/></g><g transform="translate(0 -2)"><ellipse cx="8.018507" cy="11.830508" fill="#fff394" rx="3.444675" ry="1.646508" stroke="url(#e)" stroke-opacity=".915441"/><ellipse cx="8.006522" cy="11.842493" fill="none" rx="2.442897" ry=".786727" stroke="url(#d)" stroke-opacity=".610294"/></g><g transform="translate(0 -3)"><ellipse cx="8.018507" cy="11.830508" fill="#fff394" rx="3.444675" ry="1.646508" stroke="url(#e)" stroke-opacity=".915441"/><ellipse cx="8.006522" cy="11.842493" fill="none" rx="2.442897" ry=".786727" stroke="url(#d)" stroke-opacity=".610294"/></g></g></svg>