<svg xmlns="http://www.w3.org/2000/svg" xmlns:xlink="http://www.w3.org/1999/xlink" width="16" height="16"><defs><linearGradient id="a"><stop offset="0" stop-color="#fff"/><stop offset=".002" stop-color="#fff" stop-opacity=".235"/><stop offset=".392" stop-color="#fff" stop-opacity=".157"/><stop offset="1" stop-color="#fff" stop-opacity=".392"/></linearGradient><linearGradient gradientTransform="matrix(.3673 0 0 .36733 -.292 -1.32)" gradientUnits="userSpaceOnUse" xlink:href="#a" id="d" y2="35.86" x2="17.064" y1="22.099" x1="24.378"/><radialGradient gradientTransform="matrix(0 .6154 -.6695 0 41.292 -38.28)" gradientUnits="userSpaceOnUse" xlink:href="#b" id="c" fy="48.19" fx="65.08" r="31" cy="48.19" cx="65.08"/><linearGradient id="b"><stop offset="0" stop-color="#cdf87e"/><stop offset=".262" stop-color="#a2e34f"/><stop offset=".661" stop-color="#68b723"/><stop offset="1" stop-color="#1d7e0d"/></linearGradient><linearGradient id="e" gradientUnits="userSpaceOnUse" x1="7.814" x2="7.814" y1="1.282" y2="14.67" gradientTransform="matrix(.622 0 0 .622 5.525 5.525)"><stop offset="0" stop-color="#fff"/><stop offset=".508" stop-color="#fff" stop-opacity=".235"/><stop offset=".835" stop-color="#fff" stop-opacity=".157"/><stop offset="1" stop-color="#fff" stop-opacity=".392"/></linearGradient></defs><g color="#000"><path style="isolation:auto;mix-blend-mode:normal" d="M3.506 14.54V2.5l11.238 6.02z" overflow="visible" transform="translate(-3)" solid-color="#000000" fill="url(#c)"/><path style="isolation:auto;mix-blend-mode:normal" d="M.506 14.54V2.5l11.238 6.02z" overflow="visible" opacity=".5" solid-color="#000000" fill="none" stroke="#0f5a00" stroke-linecap="round" stroke-linejoin="round"/><path style="isolation:auto;mix-blend-mode:normal" d="M4.777 4.312v8.404l7.85-4.195z" overflow="visible" transform="translate(-3)" opacity=".6" solid-color="#000000" fill="none" stroke="url(#d)" stroke-width=".915"/></g><circle cx="10.5" cy="10.5" r="5" fill="#46a8ea" fill-opacity=".984" stroke="#2f78c8" stroke-linecap="round" stroke-linejoin="round"/><path d="M10 7h1v4h2.5l-2.975 3L7.5 11H10z" fill="#fff"/><path d="M14.542 10.5c0 2.232-1.81 4.042-4.042 4.042-2.232 0-4.042-1.81-4.042-4.042 0-2.233 1.81-4.042 4.042-4.042 2.232 0 4.042 1.81 4.042 4.042z" opacity=".5" fill="none" stroke="url(#e)" stroke-linecap="round" stroke-linejoin="round"/></svg>