<svg height="16" viewBox="0 0 16 16" width="16" xmlns="http://www.w3.org/2000/svg" xmlns:xlink="http://www.w3.org/1999/xlink"><linearGradient id="a" gradientTransform="matrix(.28571361 0 0 .30419701 -.857089 .232631)" gradientUnits="userSpaceOnUse" x1="25.132275" x2="26.793295" y1=".985206" y2="18.959322"><stop offset="0" stop-color="#f4f4f4"/><stop offset="1" stop-color="#dbdbdb"/></linearGradient><linearGradient id="b" gradientTransform="matrix(.24324324 0 0 .35135133 2.162164 -.432428)" gradientUnits="userSpaceOnUse" x1="23.99999" x2="23.999838" y1="6.923065" y2="14.038376"><stop offset="0" stop-color="#fff"/><stop offset="0" stop-color="#fff" stop-opacity=".235294"/><stop offset="1" stop-color="#fff" stop-opacity=".156863"/><stop offset="1" stop-color="#fff" stop-opacity=".392157"/></linearGradient><linearGradient id="c" gradientTransform="matrix(.25378586 0 0 .30501865 19.128979 -.685477)" gradientUnits="userSpaceOnUse" x1="-53.389248" x2="-51.786404" y1="25.669893" y2="2.906247"><stop offset="0" stop-opacity=".339506"/><stop offset="1" stop-opacity=".246914"/></linearGradient><linearGradient id="d" gradientTransform="matrix(-.3446422 -.3446423 .3381098 -.3381098 1.734919 34.417716)" gradientUnits="userSpaceOnUse" x1="35.31226" x2="1.331919" y1="66.30397" y2="30.932793"><stop offset="0" stop-color="#f0c1ff"/><stop offset=".26238" stop-color="#c5a3f2"/><stop offset=".704952" stop-color="#7a36b1"/><stop offset="1" stop-color="#4c2d81"/></linearGradient><linearGradient id="e" gradientTransform="matrix(.24324324 0 0 .35135133 2.162164 -.432428)" gradientUnits="userSpaceOnUse" x1="9.611104" x2="9.611104" y1="6.923065" y2="26.846144"><stop offset="0" stop-color="#fff"/><stop offset=".64285713" stop-color="#fff" stop-opacity=".235294"/><stop offset="1" stop-color="#fff" stop-opacity=".156863"/><stop offset="1" stop-color="#fff" stop-opacity=".392157"/></linearGradient><path d="m1.0000379 1.000026c2.2915074 0 3.9999252-.0000636 3.9999252-.0000636l-.0000259 3.9990836-3.9999372.000954z" fill="url(#a)"/><g fill="none" transform="translate(-1.999962 .000026)"><path d="m6.4998992 4.49902-2.9999372.000954.0000379-2.999974 2.9999372-.000954z" stroke="url(#b)" stroke-linecap="round"/><path d="m2.4999621.49997396h5l-.0000249 4.99907204-5.0000131.000954z" stroke="url(#c)" stroke-linejoin="round" stroke-width=".999922"/></g><g stroke-linejoin="round"><g stroke-linecap="square"><path d="m15.5.5c-.386771 1.1952571-6.6382547 6.0052204-7.8945312 6.0058594-.0351889-.0013122-.0703511-.0032657-.1054688-.0058594v3.998047c.035147.0015.070304.0028.1054688.0039 4.0109582-.004828 7.3807052-3.0166807 7.8339842-7.001947z" fill="url(#d)" stroke="#6326b9" stroke-opacity=".595588"/><path d="m8.5 7.4066033v2.0348456c1.3579912-.1830497 2.67318-.7870178 3.689453-1.6953551.952749-.8515589 1.683674-2.0104874 2.041015-3.2460938l.269532-1.5c-1.5 1.5-5.1072991 4.0533105-6 4.4066033z" fill="none" stroke="url(#e)"/></g><path d="m7.503 11.197177-3-3v6z" fill="#fcaf3e" stroke="#ce5c00" stroke-linecap="round"/><path d="m4 11.5h-1.5l-1-2v-3" fill="none" stroke="#ce5c00" stroke-linecap="round"/></g></svg>