<svg xmlns="http://www.w3.org/2000/svg" xmlns:xlink="http://www.w3.org/1999/xlink" viewBox="0 0 16 16"><defs><linearGradient x1="292.857" y1="211.076" x2="292.857" y2="233.827" id="f" xlink:href="#a" gradientUnits="userSpaceOnUse" gradientTransform="matrix(.04846 0 0 .5238 -20.405 -108.176)"/><linearGradient id="a"><stop offset="0"/><stop offset="1" stop-opacity="0"/></linearGradient><linearGradient x1="620.067" y1="446.589" x2="620.067" y2="452.189" id="e" xlink:href="#b" gradientUnits="userSpaceOnUse" gradientTransform="matrix(.1948 0 0 .7143 -120.792 -334.992)"/><linearGradient id="b"><stop offset="0" stop-color="#fff"/><stop offset="1" stop-color="#fff" stop-opacity="0"/></linearGradient><linearGradient x1="731.057" y1="654.815" x2="731.057" y2="619.307" id="d" xlink:href="#c" gradientUnits="userSpaceOnUse" gradientTransform="matrix(.8048 0 0 .60166 -516.818 -396.08)"/><linearGradient id="c"><stop offset="0" stop-color="#55c1ec"/><stop offset="1" stop-color="#3689e6"/></linearGradient></defs>/&gt;<g color="#000"><rect transform="scale(-1)" y="-14" x="-14" ry="1.5" rx="1.5" height="12" width="12" overflow="visible" opacity=".99" fill="url(#d)"/><rect transform="scale(-1)" y="-15.5" x="-15.5" ry="3" rx="3" height="15" width="15" overflow="visible" opacity=".1" fill="none" stroke="url(#e)" stroke-linecap="round" stroke-linejoin="round"/><rect transform="scale(-1 1)" y="1.5" x="-14.5" ry="2" rx="2" height="13" width="13" overflow="visible" opacity=".3" fill="none" stroke="#000" stroke-linecap="round" stroke-linejoin="round"/><path d="M11.987 3.624L14 5.436l-6.765 8.94L2 9.866 3.732 7.57l3.06 2.658z" overflow="visible" fill="#2f78c7" fill-opacity=".992"/><path d="M11.987 2.624L14 4.436l-6.765 8.94L2 8.866 3.732 6.57l3.06 2.658z" overflow="visible" fill="#fff"/><rect transform="scale(-1 1)" y="2.5" x="-13.5" ry="1" rx="1" height="11" width="11" overflow="visible" opacity=".05" fill="none" stroke="url(#f)" stroke-linecap="round" stroke-linejoin="round"/></g></svg>