<svg xmlns="http://www.w3.org/2000/svg" xmlns:xlink="http://www.w3.org/1999/xlink" version="1" width="16" height="16"><defs><linearGradient id="a"><stop offset="0" stop-color="#e5e5e5"/><stop offset="1" stop-color="#ababab"/></linearGradient><linearGradient x1="86.133" y1="105.105" x2="84.639" y2="20.895" id="f" xlink:href="#a" gradientUnits="userSpaceOnUse" gradientTransform="translate(1.847 1.943) scale(.09614)"/><linearGradient id="b"><stop offset="0" stop-color="#aaa"/><stop offset="1" stop-color="#8c8c8c"/></linearGradient><linearGradient x1="21" x2="21" y2="16.005" id="e" xlink:href="#b" gradientUnits="userSpaceOnUse" gradientTransform="translate(-17.058)"/><linearGradient x1="63.999" y1="3.1" x2="63.999" y2="122.899" id="c" gradientUnits="userSpaceOnUse"><stop offset="0" stop-color="#f6f6f6"/><stop offset="1" stop-color="#ccc"/></linearGradient><linearGradient x1="25" x2="25" y2="16" id="d" xlink:href="#c" gradientUnits="userSpaceOnUse" gradientTransform="translate(-17.058)"/></defs><path d="M6.938.5C6.688.5 6.5.69 6.5.938v1.25c-.554.142-1.05.37-1.53.656l-.907-.906c-.176-.176-.45-.176-.625 0l-1.5 1.5c-.176.175-.176.45 0 .624l.906.907c-.285.48-.514.976-.656 1.53H.938c-.25 0-.438.19-.438.438v2.125c0 .248.19.437.438.437h1.25c.142.554.37 1.05.656 1.53l-.906.908c-.176.175-.176.45 0 .624l1.5 1.5c.175.176.45.176.624 0l.907-.906c.48.285.976.514 1.53.656v1.25c0 .25.19.438.438.438h2.125c.248 0 .437-.19.437-.438v-1.25c.554-.142 1.05-.37 1.53-.656l.908.906c.175.176.45.176.624 0l1.5-1.5c.176-.175.176-.45 0-.624l-.906-.907c.285-.48.514-.976.656-1.53h1.25c.25 0 .438-.19.438-.438V6.938c0-.25-.19-.438-.438-.438h-1.25c-.142-.554-.37-1.05-.656-1.53l.906-.907c.176-.176.176-.45 0-.625l-1.5-1.5c-.175-.176-.45-.176-.624 0l-.907.906c-.48-.285-.976-.514-1.53-.656V.938C9.5.688 9.31.5 9.062.5H6.938zM8 6c1.104 0 2 .896 2 2s-.896 2-2 2-2-.896-2-2 .896-2 2-2z" fill="url(#d)" stroke="url(#e)" stroke-linejoin="round" display="block" overflow="visible"/><path d="M8 3.465C5.5 3.465 3.465 5.5 3.465 8c0 2.5 2.034 4.535 4.535 4.535 2.5 0 4.535-2.034 4.535-4.535 0-2.5-2.034-4.535-4.535-4.535zm0 2.093c1.348 0 2.442 1.094 2.442 2.442S9.348 10.442 8 10.442 5.558 9.348 5.558 8 6.652 5.558 8 5.558z" opacity=".05"/><path d="M8 4C5.794 4 4 5.794 4 8s1.794 4 4 4 4-1.794 4-4-1.794-4-4-4z" fill="none" stroke="url(#f)"/></svg>