<svg xmlns="http://www.w3.org/2000/svg" height="16" width="16"><path d="M15.5.5v13H.5V.5z" opacity=".74" fill="none" stroke="#9f9f9f" stroke-linejoin="round"/><path d="M15 1v12H1V1z" fill="#e9e9e9"/><path d="M1.483 12.517L1.5 1.5h13l-.017 11.017z" fill="none" stroke="#fff" stroke-linecap="round"/><path fill="none" stroke="#e25757" stroke-dasharray="1, 1" stroke-dashoffset=".5" d="M3.497 3.503h9.972v9.04H3.496z"/><path d="M6.347 14.988c.005.248.02.632.236.685 2.282.013 4.575-.01 6.856-.006.235.01.244-.43.236-.69l-7.33.01z" fill="#505050" stroke="#565656" stroke-linecap="square" stroke-width=".69122"/><g stroke-linecap="round"><path d="M4.588 9.568l.517-2.11 9.76.014.494 2.118z" fill="#4f4f4f" fill-rule="evenodd"/><path d="M4.988 9.54l9.99.012c.278 0 .502.24.5.54l-.004 4.414-10.993-.01.007-4.416c0-.3.223-.54.5-.54z" fill="#4f4f4f"/><path d="M4.988 9.54l9.99.012c.278 0 .502.24.5.54l-.004 4.414-10.993-.01.007-4.416c0-.3.223-.54.5-.54z" opacity=".71" fill="none" stroke="#393939" stroke-width="1.0001953399999999" stroke-linejoin="round"/><path color="#000" overflow="visible" fill="#0cceff" d="M12 10h1v1h-1z"/><path d="M4.588 9.568l.517-2.11 9.76.014.494 2.118z" opacity=".7" fill="none" stroke="#393939" stroke-width="1.0001953399999999" stroke-linecap="butt"/></g><path d="M13.685 12v3.262c0 .19-.048.34-.108.34H6.452c-.06 0-.108-.15-.108-.34V12z" fill="#e9e9e9"/><path d="M6.51 4.508l6.992-.007-.007 4.23-6.99.008z" fill="#e9e9e9" stroke="#8c8c8c" stroke-width="1.0001953399999999" stroke-linejoin="round"/></svg>