<svg xmlns="http://www.w3.org/2000/svg" xmlns:xlink="http://www.w3.org/1999/xlink" height="16" width="16"><defs><linearGradient id="b"><stop offset="0" stop-color="#e3e3e4"/><stop offset=".5" stop-color="#fcfcfc"/><stop offset="1" stop-color="#e3e3e4"/></linearGradient><linearGradient id="a"><stop offset="0" stop-color="#c2c3c4"/><stop offset=".095" stop-color="#c4c5c8"/><stop offset="1" stop-color="#fcfcfc"/></linearGradient><linearGradient id="c"><stop offset="0" stop-opacity=".34"/><stop offset="1" stop-opacity=".247"/></linearGradient><linearGradient xlink:href="#b" id="d" x1="2.903" y1="8.504" x2="12.828" y2="8.504" gradientUnits="userSpaceOnUse"/><linearGradient xlink:href="#c" id="e" x1=".918" y1="5.675" x2="14.813" y2="3.789" gradientUnits="userSpaceOnUse"/></defs><g stroke-width=".967"><path d="M.44 1.44l14.88.006-.004 2.626-6.145 5.31v6.18H6.55V9.38L.44 4.072z" fill="url(#d)" fill-rule="evenodd" stroke="url(#e)" stroke-linejoin="round" transform="matrix(1.0076 0 0 1.06043 .075 -1.018)"/><path d="M1.312 2.32l13.006.05V3.69L8.298 8.94v5.736h-.874V8.94L1.312 3.645z" fill="none" stroke="#fdfdfb" transform="matrix(1.0076 0 0 1.06043 .075 -1.018)"/></g><g stroke-width=".875"><path d="M8.496 10v5.122c0 .212.17.382.382.382h6.244c.212 0 .382-.17.382-.382V10" fill="#e9e9e9" stroke="#8c8c8c" stroke-width=".9913575000000001"/><path d="M8.878 8.496c-.212 0-.382.17-.382.382V10.5h7.008V8.878c0-.212-.17-.382-.382-.382z" fill="#9cde4a" stroke="#5ca12a" stroke-linecap="round" stroke-width=".9913575000000001"/></g><path d="M9 11v4h6v-4zm1 1h4v2h-4z" fill="#fdfdfb"/></svg>