<svg xmlns="http://www.w3.org/2000/svg" xmlns:xlink="http://www.w3.org/1999/xlink" viewBox="0 0 16 16"><defs><linearGradient gradientTransform="matrix(1.38317 0 0 1.41442 -36.243 -3.873)" id="b" gradientUnits="userSpaceOnUse" x1="8.295" x2="8.295" y1="-4.284" y2="16.85"><stop offset="0" stop-color="#cdf87e"/><stop offset=".262" stop-color="#a2e34f"/><stop offset=".661" stop-color="#68b723"/><stop offset="1" stop-color="#1d7e0d"/></linearGradient><linearGradient id="f" gradientTransform="matrix(.59436 0 0 .5999 -19.265 -.033)" gradientUnits="userSpaceOnUse" x1="25.132" x2="25.132" y1="15.5" y2="48.396"><stop offset="0" stop-color="#fafafa"/><stop offset="1" stop-color="#e2e1de"/></linearGradient><linearGradient id="a"><stop offset="0" stop-color="#fff"/><stop offset=".5" stop-color="#fff" stop-opacity=".235"/><stop offset=".951" stop-color="#fff" stop-opacity=".157"/><stop offset="1" stop-color="#fff" stop-opacity=".392"/></linearGradient><linearGradient xlink:href="#a" id="h" x1="7" y1="2" x2="7" y2="9" gradientUnits="userSpaceOnUse" gradientTransform="matrix(.98704 0 0 .88413 .093 -1.35)"/><linearGradient xlink:href="#b" id="g" x1="7" y1="-4" x2="7" y2="17" gradientUnits="userSpaceOnUse" gradientTransform="matrix(.94103 0 0 1.027 .46 -2.56)"/><linearGradient id="c"><stop offset="0" stop-color="#e4e4e4"/><stop offset="1" stop-color="#fff"/></linearGradient><linearGradient id="d"><stop offset="0" stop-color="#ffcd7d"/><stop offset=".262" stop-color="#fc8f36"/><stop offset="1" stop-color="#e23a0e"/></linearGradient><linearGradient id="e"><stop offset="0" stop-color="#ba3d12"/><stop offset="1" stop-color="#db6737"/></linearGradient><linearGradient id="i" gradientTransform="matrix(0 -.5372 .57682 0 -15.997 19.866)" gradientUnits="userSpaceOnUse" x1="11.517" x2="11.484" y1="13.147" y2="3.511"><stop offset="0" stop-color="#fff"/><stop offset=".45" stop-color="#fff" stop-opacity=".235"/><stop offset=".65" stop-color="#fff" stop-opacity=".157"/><stop offset="1" stop-color="#fff" stop-opacity=".392"/></linearGradient></defs><g transform="translate(0 2)"><rect height="10" rx=".424" ry=".491" width="5" x="1" y="3" fill="url(#f)"/><path d="M.498-1.998c-.276 0-.5.224-.5.5L0 13.5c0 .276.224.5.5.5H6v-.998H.998L.996 3H5v2H1v1h4v3H1v1h4v3h1V2h-.002V-.998h-1V2H.996v-3H15v3h.998v-3.498c0-.276-.224-.5-.5-.5h-15zm9.5 1V2h1V-.998h-1z" opacity=".32" fill="#030303"/></g><path d="M.5 0a.5.5 0 0 0-.5.5V4h.998V.998h14.004V4H16V.5a.5.5 0 0 0-.5-.5zM5 1v2H1v1h14V3h-4V1h-1v2H6V1z" opacity=".4" fill="#126400"/><path d="M.5.52h15.02v3.082H.5z" fill="url(#g)"/><path d="M.5.52v3.082l.51-.008L1 1h14v2.602h.518V.522z" fill="url(#h)"/><path opacity=".4" fill="#126400" d="M5 .494h1v3.074H5zm5 0h1v3.103h-1z"/><path d="M13.697 5.482c3.557 2.432 1.42 7.098-2.204 7.098v1.933L6.483 10.9l5.01-3.377v2.023c2.557.1 3.675-2.367 1.847-4.064z" display="block" fill="#d8a7ff" stroke="#8e56dc" stroke-width=".97" stroke-linejoin="round" stroke-miterlimit="7"/><path d="M10.977 4.467L7.3 7.113l3.677 2.405.025-1.612c2.213.037 3.46.664 3.754 2.718.73-2.036-.06-4.71-3.78-4.616zm-.97 1.894v.61l.548-.075c1.92-.254 2.99.564 3.476 1.554-.702-.68-1.748-1.212-3.565-1.114l-.46.023v.365l-.99-.65z" display="block" opacity=".8" fill="url(#i)" transform="matrix(1 0 0 -1 0 17.994)"/></svg>