<svg xmlns="http://www.w3.org/2000/svg" xmlns:xlink="http://www.w3.org/1999/xlink" width="16" height="16"><defs><linearGradient x1="24" y1="6.923" x2="24" y2="41.077" id="j" xlink:href="#a" gradientUnits="userSpaceOnUse" gradientTransform="matrix(.24324 0 0 .35135 2.162 -.432)"/><linearGradient id="a"><stop offset="0" stop-color="#fff"/><stop offset="0" stop-color="#fff" stop-opacity=".235"/><stop offset="1" stop-color="#fff" stop-opacity=".157"/><stop offset="1" stop-color="#fff" stop-opacity=".392"/></linearGradient><linearGradient id="b"><stop offset="0" stop-color="#f4f4f4"/><stop offset="1" stop-color="#dbdbdb"/></linearGradient><linearGradient x1="25.132" y1=".985" x2="25.132" y2="47.013" id="i" xlink:href="#b" gradientUnits="userSpaceOnUse" gradientTransform="matrix(.2857 0 0 .3042 1.143 .233)"/><linearGradient id="c"><stop offset="0" stop-opacity=".34"/><stop offset="1" stop-opacity=".247"/></linearGradient><linearGradient x1="-51.786" y1="50.786" x2="-51.786" y2="2.906" id="k" xlink:href="#c" gradientUnits="userSpaceOnUse" gradientTransform="matrix(.2538 0 0 .30502 19.13 -.685)"/><linearGradient x1="103.95" y1="-7.666" x2="89.424" y2="-7.666" id="m" xlink:href="#d" gradientUnits="userSpaceOnUse" gradientTransform="matrix(.25764 0 0 .256 -18.787 32.336)" spreadMethod="reflect"/><linearGradient id="d"><stop offset="0" stop-color="#868688"/><stop offset="1" stop-color="#d9d9da"/></linearGradient><linearGradient x1="89.018" y1="22.537" x2="89.018" y2="27.546" id="n" xlink:href="#e" gradientUnits="userSpaceOnUse" gradientTransform="matrix(.56273 0 0 .59218 -44.99 15.484)"/><linearGradient id="e"><stop offset="0" stop-color="#a0a0a0"/><stop offset="1" stop-color="#4a4a4a"/></linearGradient><linearGradient x1="103.95" y1="-7.666" x2="89.424" y2="-7.666" id="o" xlink:href="#d" gradientUnits="userSpaceOnUse" gradientTransform="matrix(.25764 0 0 .256 -18.787 28.336)" spreadMethod="reflect"/><linearGradient x1="89.018" y1="22.537" x2="89.018" y2="27.546" id="p" xlink:href="#e" gradientUnits="userSpaceOnUse" gradientTransform="matrix(.56273 0 0 .59218 -44.99 11.484)"/><linearGradient x1="103.95" y1="-7.666" x2="89.424" y2="-7.666" id="q" xlink:href="#d" gradientUnits="userSpaceOnUse" gradientTransform="matrix(.25764 0 0 .252 -18.787 24.39)" spreadMethod="reflect"/><linearGradient x1="89.018" y1="22.537" x2="89.018" y2="27.546" id="r" xlink:href="#e" gradientUnits="userSpaceOnUse" gradientTransform="matrix(.56273 0 0 .58293 -44.99 7.8)"/><linearGradient x1="102.308" y1="-2.393" x2="102.308" y2="-24.582" id="s" xlink:href="#f" gradientUnits="userSpaceOnUse" gradientTransform="matrix(.25894 0 0 .19506 -18.915 21.137)" spreadMethod="reflect"/><linearGradient id="f"><stop offset="0" stop-color="#a5a6a8"/><stop offset="1" stop-color="#e8e8e8"/></linearGradient><linearGradient x1="109.956" y1="-24.911" x2="109.956" y2="-2.376" id="t" xlink:href="#g" gradientUnits="userSpaceOnUse" gradientTransform="matrix(.25894 0 0 .19506 -18.915 21.137)"/><linearGradient id="g"><stop offset="0" stop-color="#b3b3b3"/><stop offset="1" stop-color="#dadada"/></linearGradient><linearGradient x1="21.381" y1="5.052" x2="21.381" y2="44.137" id="u" xlink:href="#h" gradientUnits="userSpaceOnUse" gradientTransform="matrix(.3143 0 0 .3421 .457 15.618)"/><linearGradient id="h"><stop offset="0" stop-color="#fff"/><stop offset=".081" stop-color="#fff" stop-opacity=".235"/><stop offset=".923" stop-color="#fff" stop-opacity=".157"/><stop offset="1" stop-color="#fff" stop-opacity=".392"/></linearGradient><clipPath id="l"><path d="M-1 16H9v14H-1V16z" fill="#260063"/></clipPath></defs><path d="M3 1h10v14H3V1z" fill="url(#i)"/><path d="M12.5 14.5h-9v-13h9z" fill="none" stroke="url(#j)" stroke-linecap="round"/><path d="M2.5.5h11v15h-11V.5z" fill="none" stroke="url(#k)" stroke-linejoin="round"/><g transform="translate(4 -15)" clip-path="url(#l)" opacity=".7"><path d="M14.46 29.5c0 1.2-2.898 2-6.467 2-3.57 0-6.468-.8-6.468-2 0-4.634-.79-3.195 6.468-3.25 7.424-.056 6.467-1.41 6.467 3.25z" fill="url(#m)" stroke="url(#n)"/><path d="M14.5 26.5c0 1.105-2.91 2-6.5 2s-6.5-.895-6.5-2 2.91-2 6.5-2 6.5.895 6.5 2z" fill="none" stroke="#d8d8d8"/><path d="M14.46 25.5c0 1.157-2.898 2-6.467 2-3.57 0-6.468-.8-6.468-2 0-4.634-.79-3.195 6.468-3.25 7.424-.056 6.467-1.41 6.467 3.25z" fill="url(#o)" stroke="url(#p)"/><path d="M14.5 22.5c0 1.105-2.91 2-6.5 2s-6.5-.895-6.5-2 2.91-2 6.5-2 6.5.895 6.5 2z" fill="none" stroke="#d8d8d8"/><path d="M14.46 21.5c0 1.218-2.898 2-6.467 2-3.57 0-6.468-.95-6.468-2 0-4.344-.79-3.046 6.468-3.1 7.424-.056 6.467-.83 6.467 3.1z" fill="url(#q)" stroke="url(#r)"/><path d="M14.5 18.5c0 1.105-2.91 2-6.5 2s-6.5-.895-6.5-2 2.91-2 6.5-2 6.5.895 6.5 2z" fill="url(#s)" stroke="url(#t)"/><rect width="11" height="13" rx="17.5" ry="1.5" x="2.5" y="17.5" color="#000" overflow="visible" opacity=".5" fill="none" stroke="url(#u)"/></g></svg>