<svg xmlns="http://www.w3.org/2000/svg" xmlns:xlink="http://www.w3.org/1999/xlink" height="16" width="16" viewBox="0 0 4.2333332 4.2333335"><defs><linearGradient id="b" y2="21.532" gradientUnits="userSpaceOnUse" x2="13.608" gradientTransform="translate(2)" y1="7.157" x1="13.893"><stop stop-color="#cd9ef7" offset="0"/><stop stop-color="#a56de2" offset="1"/></linearGradient><linearGradient id="c" y2="41.414" xlink:href="#a" gradientUnits="userSpaceOnUse" x2="24" gradientTransform="translate(2.974 .972) scale(.45946)" y1="14.283" x1="25.53"/><linearGradient id="a"><stop stop-color="#fff" offset="0"/><stop stop-color="#fff" stop-opacity=".235" offset=".654"/><stop stop-color="#fff" stop-opacity=".157" offset="1"/><stop stop-color="#fff" stop-opacity=".392" offset="1"/></linearGradient><linearGradient id="d" y2="21.532" gradientUnits="userSpaceOnUse" x2="13.608" y1="-5.013" x1="13.561"><stop stop-color="#f7b19e" offset="0"/><stop stop-color="#e2866d" offset="1"/></linearGradient><linearGradient id="e" y2="41.414" xlink:href="#a" gradientUnits="userSpaceOnUse" x2="24" gradientTransform="translate(.974 .972) scale(.45946)" y1="20.749" x1="25.918"/><linearGradient id="f" y2="29.436" gradientUnits="userSpaceOnUse" x2="13.3" gradientTransform="matrix(1.3832 0 0 1.4144 -11.892 21.51)" y1="12.091" x1="13.697"><stop stop-color="#aff05f" offset="0"/><stop stop-color="#68b723" offset="1"/></linearGradient><linearGradient id="g" y2="41.414" xlink:href="#a" gradientUnits="userSpaceOnUse" x2="24" gradientTransform="matrix(.4595 0 0 .4595 .974 .972)" y1="22.094" x1="25.463"/><linearGradient id="h" gradientTransform="matrix(-.9975 0 0 -.9975 45.982 33.858)" gradientUnits="userSpaceOnUse" x1="35.453" x2="35.453" y1="31.551" y2="18.89"><stop offset="0" stop-color="#fff"/><stop offset="1" stop-color="#fff" stop-opacity="0"/></linearGradient></defs><g transform="matrix(.2646 0 0 .2646 -2.913 -1.59)"><rect rx="1" ry="1" height="14.065" width="3.968" y="7.469" x="17.515" fill="url(#b)" color="#000"/><path opacity=".5" stroke-linejoin="round" stroke="url(#c)" stroke-linecap="round" fill="none" d="M18.503 8.517h2.05v12.016h-2.05z"/><rect opacity=".5" stroke-linejoin="round" rx=".664" ry=".63" height="14.001" width="4.012" stroke="#7239b3" stroke-linecap="round" y="7.495" x="17.499" fill="none" color="#000"/></g><g transform="matrix(.2646 0 0 .2646 -.79 -1.59)"><rect rx="1" ry="1" height="12.027" width="4.116" y="9.449" x="14.39" fill="url(#d)" color="#000"/><path opacity=".5" stroke-linejoin="round" stroke="url(#e)" stroke-linecap="round" fill="none" d="M15.49 10.493h1.97v10.172h-1.97z"/><rect opacity=".5" stroke-linejoin="round" rx=".79" ry=".513" height="11.998" width="4" stroke="#b35039" stroke-linecap="round" y="9.502" x="14.481" fill="none" color="#000"/></g><g transform="matrix(.2646 0 0 .2646 -4.234 -1.59)"><rect rx="1" ry="1" height="7.941" width="4.096" y="13.559" x="17.404" fill="url(#f)" color="#000"/><path opacity=".5" stroke-linejoin="round" stroke="url(#g)" stroke-linecap="round" fill="none" d="M18.5 14.498h2v6h-2z"/><rect opacity=".5" stroke-linejoin="round" rx=".866" ry=".597" height="7.97" width="3.998" stroke="#7bb339" stroke-linecap="round" y="13.53" x="17.501" fill="none" color="#000"/></g><g><path d="M4.1 4.1L.133.133v3.97zm-1.85-.793H.925V1.984z" fill="#9cde4a" fill-rule="evenodd"/><path d="M13.093 14.5L1.5 2.875V14.5z" fill="none" stroke="url(#h)" transform="matrix(.2646 0 0 .2646 0 0)"/><path d="M4.1 4.1L.133.133v3.97zm-1.85-.793H.925V1.985z" fill="none" stroke="#5ca12a" stroke-linejoin="round" stroke-width=".2646"/></g></svg>