<svg xmlns="http://www.w3.org/2000/svg" xmlns:xlink="http://www.w3.org/1999/xlink" viewBox="0 0 16 16"><defs><linearGradient id="d" y2="29.436" gradientUnits="userSpaceOnUse" x2="13.3" gradientTransform="matrix(1.3832 0 0 1.4144 -11.892 21.51)" y1="12.091" x1="13.697"><stop stop-color="#aff05f" offset="0"/><stop stop-color="#68b723" offset="1"/></linearGradient><linearGradient id="e" y2="41.414" xlink:href="#a" gradientUnits="userSpaceOnUse" x2="24" gradientTransform="matrix(.4595 0 0 .4595 .974 .972)" y1="22.094" x1="25.463"/><linearGradient id="a"><stop stop-color="#fff" offset="0"/><stop stop-color="#fff" stop-opacity=".235" offset=".654"/><stop stop-color="#fff" stop-opacity=".157" offset="1"/><stop stop-color="#fff" stop-opacity=".392" offset="1"/></linearGradient><linearGradient id="b" y2="21.532" gradientUnits="userSpaceOnUse" x2="13.608" gradientTransform="translate(2)" y1="7.157" x1="13.893"><stop stop-color="#cd9ef7" offset="0"/><stop stop-color="#a56de2" offset="1"/></linearGradient><linearGradient id="c" y2="41.414" xlink:href="#a" gradientUnits="userSpaceOnUse" x2="24" gradientTransform="matrix(.4595 0 0 .4595 2.974 .972)" y1="14.283" x1="25.53"/></defs><path d="M15 3v10H1V3h14z" fill="#e9e9e9"/><path d="M1.5 12.5v-9h13v9z" fill="none" stroke="#fff" stroke-linecap="round"/><path d="M15.5 2.5v11H.5v-11h15z" fill="none" stroke="#dd9861" stroke-linejoin="round"/><g transform="matrix(1 0 0 1 -6.01 -6.01)"><rect rx="1" ry="1" height="14.065" width="3.968" y="7.469" x="17.515" color="#000" fill="url(#b)"/><path opacity=".5" fill="none" stroke="url(#c)" stroke-linecap="round" stroke-linejoin="round" d="M18.503 8.517h2.05v12.016h-2.05z"/><rect rx=".664" ry=".63" height="14.001" width="4.012" y="7.495" x="17.499" color="#000" opacity=".5" fill="none" stroke="#7239b3" stroke-linecap="round" stroke-linejoin="round"/></g><g transform="matrix(1 0 0 1 -11.002 -6.01)"><rect rx="1" ry="1" height="7.941" width="4.096" y="13.559" x="17.404" color="#000" fill="url(#d)"/><path opacity=".5" fill="none" stroke="url(#e)" stroke-linecap="round" stroke-linejoin="round" d="M18.5 14.498H20.5v6H18.5z"/><rect rx=".866" ry=".597" height="7.97" width="3.999" y="13.53" x="17.501" color="#000" opacity=".5" fill="none" stroke="#7bb339" stroke-linecap="round" stroke-linejoin="round"/></g></svg>