<svg xmlns="http://www.w3.org/2000/svg" xmlns:xlink="http://www.w3.org/1999/xlink" viewBox="0 0 16 16"><defs><radialGradient cx="64.575" cy="48.605" r="31" fx="64.575" fy="48.605" id="b" xlink:href="#a" gradientUnits="userSpaceOnUse" gradientTransform="matrix(0 .3853 -.4196 0 32.39 -16.793)"/><linearGradient id="a"><stop offset="0" stop-color="#cdf87e"/><stop offset=".262" stop-color="#a2e34f"/><stop offset=".661" stop-color="#68b723"/><stop offset="1" stop-color="#1d7e0d"/></linearGradient></defs>/&gt;<path fill-rule="evenodd" fill="#e9e9e9" d="M1 3h1l1 1v11h12V2l-1-1H1z"/><path fill="#a3a3a3" d="M2.494 0C1.548-.013.812.5.432 1.19c-.38.692-.48 1.534-.412 2.35A.5.5 0 0 0 .518 4h1.468v9.5c0 .658.338 1.252.793 1.707.453.455 1.047.793 1.705.793H12v-1H4.486c-.284 0-.69-.19-1-.5s-.5-.715-.5-1v-10a.5.5 0 0 0-.5-.5H1.09c.018-.488.036-.998.217-1.326C1.55 1.232 1.86.992 2.48 1a.5.5 0 0 0 .006 0H12V0z"/><path fill="#adadad" d="M5.987 2v1H12V2zm0 2v1H12V4zm0 2v1H12V6zm0 2v1H12V8zm0 2v1H12v-1zm-2-8v1h1V2zm0 2v1h1V4zm0 2v1h1V6zm0 2v1h1V8zm0 2v1h1v-1zm0 2v1h1v-1z"/><g fill="#a3a3a3"><path d="M6.486 12a.5.5 0 0 0-.5.5c.002.762-.123 1.436-.365 1.86-.24.426-.53.64-1.133.64a.5.5 0 0 0-.146.023.5.5 0 0 0-.046.018.5.5 0 0 0-.127.08.5.5 0 0 0-.035.037.5.5 0 0 0-.12.463.5.5 0 0 0 .033.093.5.5 0 0 0 .05.086.5.5 0 0 0 .034.037.5.5 0 0 0 .16.117.5.5 0 0 0 .144.04.5.5 0 0 0 .054.005H13v-1H6.35c.038-.056.107-.087.14-.146.3-.526.347-1.192.39-1.855H13v-1zM7 0v1h6.188c.23 0 .752.252 1.148.648.396.396.65.92.65 1.15L15.003 13h1l-.017-10.2c0-.712-.423-1.34-.94-1.86C14.526.424 13.9 0 13.188 0z"/><path d="M9 12v1h5.912c-.018.49-.035 1.005-.22 1.334-.245.442-.56.683-1.192.666a.5.5 0 0 0-.014 0H9v1h4.475c.958.026 1.706-.486 2.093-1.18.387-.693.487-1.54.418-2.363a.5.5 0 0 0-.5-.457z"/></g><path fill="#adadad" d="M12.987 2v1h1V2zm0 2v1h1V4zm0 2v1h1V6zm0 2v1h1V8zm0 2v1h1v-1z"/><path fill="#fff" d="M6.88 13H15l-.186 1H6.762z"/><g color="#000"><path d="M10.507 10.507v-2h3v2h2v3h-2v2h-3v-2h-2v-3z" overflow="visible" fill="url(#b)" transform="translate(-.007 -.007)"/><path d="M10.5 10.5v-2h3v2h2v3h-2v2h-3v-2h-2v-3z" style="isolation:auto;mix-blend-mode:normal" overflow="visible" opacity=".5" solid-color="#000000" fill="none" stroke="#0f5a00" stroke-linecap="round" stroke-linejoin="round"/><path style="isolation:auto;mix-blend-mode:normal" overflow="visible" opacity=".5" solid-color="#000000" fill="#fff" d="M11 9h2v1h-2z"/><path style="isolation:auto;mix-blend-mode:normal" overflow="visible" opacity=".2" solid-color="#000000" fill="#fff" d="M11 14h2v1h-2z"/><path style="isolation:auto;mix-blend-mode:normal" d="M9 11v1h2v-1zm4 0v1h2v-1z" overflow="visible" opacity=".4" solid-color="#000000" fill="#fff"/></g></svg>