<svg xmlns="http://www.w3.org/2000/svg" xmlns:xlink="http://www.w3.org/1999/xlink" version="1" width="16" height="16"><defs><linearGradient id="a"><stop offset="0" stop-color="#fff"/><stop offset="0" stop-color="#fff" stop-opacity=".235"/><stop offset="1" stop-color="#fff" stop-opacity=".157"/><stop offset="1" stop-color="#fff" stop-opacity=".392"/></linearGradient><linearGradient x1="40.29" y1="7.556" x2="40.29" y2="40.444" id="f" xlink:href="#a" gradientUnits="userSpaceOnUse" gradientTransform="matrix(.35135 0 0 .24324 -.432 2.162)"/><linearGradient id="b"><stop offset="0" stop-color="#273445"/><stop offset="1" stop-color="#0e141f"/></linearGradient><linearGradient id="d"><stop offset="0" stop-color="#fafafa"/><stop offset="1" stop-color="#95a3ab"/></linearGradient><linearGradient gradientTransform="matrix(.34783 0 0 .33333 -.348 -1.333)" gradientUnits="userSpaceOnUse" y2="44.625" x2="22.5" y1="19.5" x1="22.5" id="g" xlink:href="#b"/><linearGradient gradientTransform="matrix(.35778 0 0 .34425 .487 5.606)" gradientUnits="userSpaceOnUse" y2="12" x2="20" y1="-3" x1="10" id="h" xlink:href="#c"/><linearGradient id="c"><stop offset="0" stop-color="#fff"/><stop offset="1" stop-color="#fff" stop-opacity="0"/></linearGradient><linearGradient gradientTransform="matrix(.34427 0 0 .30272 -.43 -1.705)" gradientUnits="userSpaceOnUse" y2="70.295" x2="23.25" y1="-28.809" x1="23.25" id="e" xlink:href="#d"/></defs><rect width="15" height="11" rx="1" ry="1" x=".5" y="2.5" color="#000" overflow="visible" fill="url(#e)"/><path opacity=".5" fill="none" stroke="url(#f)" stroke-linecap="round" stroke-linejoin="round" d="M1.5 3.5h13v9h-13z"/><rect width="15" height="11" rx="1" ry="1" x=".5" y="2.5" color="#000" overflow="visible" opacity=".5" fill="none" stroke="#667885" stroke-linecap="round" stroke-linejoin="round"/><rect width="16" height="2" y="5" rx="0" ry="0" fill="url(#g)"/><path d="M1.933 3C1.416 3 1 3.395 1 3.885V9l14-4.42v-.695c0-.49-.416-.885-.933-.885z" opacity=".2" fill="url(#h)"/><circle cx="13.5" cy="12.5" r=".5" opacity=".1" fill="#fff"/><circle cx="13.5" cy="11.5" r=".5" opacity=".25" fill="#667885"/><circle cx="11.5" cy="12.5" r=".5" opacity=".1" fill="#fff"/><circle cx="11.5" cy="11.5" r=".5" opacity=".25" fill="#667885"/><path style="font-variation-settings:normal" fill="#95a3ab" d="M2 8h9v2H2z"/></svg>