<svg xmlns="http://www.w3.org/2000/svg" xmlns:xlink="http://www.w3.org/1999/xlink" width="16" height="16"><defs><linearGradient id="d"><stop offset="0" stop-color="#fff"/><stop offset=".373" stop-color="#fff" stop-opacity=".235"/><stop offset=".995" stop-color="#fff" stop-opacity=".157"/><stop offset="1" stop-color="#fff" stop-opacity=".392"/></linearGradient><linearGradient id="a"><stop offset="0" stop-color="#cdf87e"/><stop offset=".262" stop-color="#a2e34f"/><stop offset=".661" stop-color="#68b723"/><stop offset="1" stop-color="#1d7e0d"/></linearGradient><linearGradient id="b"><stop offset="0" stop-color="#5f5f5f"/><stop offset=".262" stop-color="#4f4f4f"/><stop offset=".705" stop-color="#3b3b3b"/><stop offset="1" stop-color="#2b2b2b"/></linearGradient><linearGradient id="c"><stop offset="0" stop-color="#272727"/><stop offset="1" stop-color="#454545"/></linearGradient><radialGradient gradientTransform="matrix(0 .74552 -.6788 0 13.74 -6.18)" gradientUnits="userSpaceOnUse" xlink:href="#b" id="e" fy="8.45" fx="10.904" r="20" cy="8.45" cx="10.904"/><linearGradient gradientTransform="matrix(.53695 0 0 .53022 -4.884 -4.97)" gradientUnits="userSpaceOnUse" xlink:href="#c" id="f" y2="3.899" x2="24" y1="44" x1="24"/><linearGradient gradientTransform="matrix(.53695 0 0 .53022 -5.884 -4.97)" gradientUnits="userSpaceOnUse" xlink:href="#d" id="g" y2="32.093" x2="26.305" y1="16.918" x1="26.305"/></defs><path d="M7.424 2.512c-.39.05-.735.244-.735.244l-.55.258s-.597.49-.603.656c-.336.56-.183 1.238-.217 1.85.033.525-.357.912-.162 1.445-.028.514.424.816.713 1.187.327.47.77 1.084.42 1.647-.643.877-1.576 1.206-2.554 1.684-.003.017-.003.008-.006.024-.127.01-.23.11-.23.242v1.5c0 .139.112.25.25.25h8.5c.139 0 .25-.112.25-.25V11.6c-.946-.45-2.07-.933-2.734-1.735-.4-.537 0-1.182.314-1.66.245-.398.756-.65.764-1.158.188-.515-.096-.94-.15-1.432-.068-.65.12-1.36-.21-1.967-.447-.62-1.27-.89-2.013-1.056-.215-.04-.435-.07-.656-.07-.127-.03-.26-.027-.39-.01z" color="#000" overflow="visible" fill="url(#e)" stroke="url(#f)" stroke-linecap="round" stroke-linejoin="round"/><path d="M6.607 3.463c.018.004-.005-.003-.06.004-.147.02-.387.13-.387.13a.963.963 0 0 1-.06.03l-.426.2c-.046.038-.088.073-.168.15-.045.043-.074.073-.098.1a.963.963 0 0 1-.045.09c-.092.152-.037.594-.082 1.405V5.46c.033.513-.125.88-.178 1.058-.054.178-.04.116-.04.117a.963.963 0 0 1 .057.383c0-.035-.04-.094.034.002.075.095.26.263.477.54a.963.963 0 0 1 .032.044c.158.228.402.547.572.994.17.447.228 1.14-.125 1.71a.963.963 0 0 1-.042.06c-.753 1.028-1.744 1.434-2.605 1.833v.337h7.074V12.2c-.837-.388-1.787-.844-2.514-1.72a.963.963 0 0 1-.03-.04c-.402-.54-.403-1.246-.26-1.71.144-.46.373-.792.537-1.04.228-.365.465-.556.566-.67.103-.112.046-.055.045.013a.963.963 0 0 1 .06-.316c.01-.03.018-.023-.018-.176-.036-.152-.14-.423-.184-.82a.963.963 0 0 1 0-.003c-.092-.864-.014-1.32-.095-1.53-.22-.26-.732-.507-1.373-.652-.168-.03-.325-.05-.463-.05a.963.963 0 0 1-.2-.022z" transform="translate(1)" color="#000" overflow="visible" opacity=".3" fill="none" stroke="url(#g)" stroke-linecap="round" stroke-linejoin="round"/></svg>