<?xml version="1.0" encoding="UTF-8" standalone="no"?>
<svg
   xmlns:dc="http://purl.org/dc/elements/1.1/"
   xmlns:cc="http://creativecommons.org/ns#"
   xmlns:rdf="http://www.w3.org/1999/02/22-rdf-syntax-ns#"
   xmlns:svg="http://www.w3.org/2000/svg"
   xmlns="http://www.w3.org/2000/svg"
   xmlns:xlink="http://www.w3.org/1999/xlink"
   xmlns:sodipodi="http://sodipodi.sourceforge.net/DTD/sodipodi-0.dtd"
   xmlns:inkscape="http://www.inkscape.org/namespaces/inkscape"
   viewBox="0 0 16 16"
   version="1.1"
   id="svg6"
   sodipodi:docname="sc_dbtableedit.svg"
   inkscape:version="0.92.3 (unknown)"
   inkscape:export-filename="/home/rizmut/Dokumen/Rizmut/Github/libreoffice-style-elementary/images_elementary/cmd/sc_dbviewtablenames.png"
   inkscape:export-xdpi="96"
   inkscape:export-ydpi="96">
  <metadata
     id="metadata12">
    <rdf:RDF>
      <cc:Work
         rdf:about="">
        <dc:format>image/svg+xml</dc:format>
        <dc:type
           rdf:resource="http://purl.org/dc/dcmitype/StillImage" />
        <dc:title></dc:title>
      </cc:Work>
    </rdf:RDF>
  </metadata>
  <defs
     id="defs10">
    <linearGradient
       gradientTransform="matrix(1.3831741,0,0,1.414422,-36.243337,-3.8728445)"
       id="e"
       gradientUnits="userSpaceOnUse"
       x1="8.2950277"
       x2="8.2950277"
       y1="-4.283906"
       y2="16.849756">
      <stop
         offset="0"
         stop-color="#cdf87e"
         id="stop22" />
      <stop
         offset=".26238"
         stop-color="#a2e34f"
         id="stop24" />
      <stop
         offset=".66093999"
         stop-color="#68b723"
         id="stop26" />
      <stop
         offset="1"
         stop-color="#1d7e0d"
         id="stop28" />
    </linearGradient>
    <linearGradient
       inkscape:collect="always"
       xlink:href="#e"
       id="linearGradient844"
       x1="7"
       y1="-4"
       x2="7"
       y2="17"
       gradientUnits="userSpaceOnUse"
       gradientTransform="matrix(0.94102962,0,0,1.0270126,0.4612697,-4.5603804)" />
    <linearGradient
       id="a"
       gradientTransform="matrix(0.59435835,0,0,0.59991399,-19.26472,-0.0325514)"
       gradientUnits="userSpaceOnUse"
       x1="25.132275"
       x2="25.132275"
       y1="15.499894"
       y2="48.395687">
      <stop
         offset="0"
         stop-color="#fafafa"
         id="stop2" />
      <stop
         offset="1"
         stop-color="#e2e1de"
         id="stop4" />
    </linearGradient>
    <linearGradient
       id="f"
       gradientUnits="userSpaceOnUse"
       x1="11.001243"
       x2="11.001243"
       xlink:href="#c"
       y1="2.2688611"
       y2="19.728327"
       gradientTransform="matrix(0.7677984,0,0,1.0267921,4.1154107,18.507334)" />
    <linearGradient
       id="c">
      <stop
         offset="0"
         stop-color="#fff"
         id="stop8" />
      <stop
         offset="0.5"
         stop-color="#fff"
         stop-opacity=".235294"
         id="stop10" />
      <stop
         offset=".95056331"
         stop-color="#fff"
         stop-opacity=".156863"
         id="stop12" />
      <stop
         offset="1"
         stop-color="#fff"
         stop-opacity=".392157"
         id="stop14" />
    </linearGradient>
    <linearGradient
       inkscape:collect="always"
       xlink:href="#c"
       id="linearGradient896"
       x1="7"
       y1="2"
       x2="7"
       y2="9"
       gradientUnits="userSpaceOnUse"
       gradientTransform="matrix(0.98703551,0,0,0.88413271,0.09322256,-3.3509456)" />
    <linearGradient
       x1="9"
       y1="29.056999"
       x2="9"
       y2="26.030001"
       id="m"
       xlink:href="#d"
       gradientUnits="userSpaceOnUse"
       gradientTransform="matrix(0.2992859,-0.30126065,0.44992888,0.44722763,-8.5848354,2.5188373)" />
    <linearGradient
       id="d">
      <stop
         offset="0"
         stop-color="#ece5a5"
         id="stop1240" />
      <stop
         offset="1"
         stop-color="#fcfbf2"
         id="stop1242" />
    </linearGradient>
    <linearGradient
       x1="5.5180001"
       y1="37.372002"
       x2="9.5220003"
       y2="41.391998"
       id="n"
       xlink:href="#e-3"
       gradientUnits="userSpaceOnUse"
       gradientTransform="matrix(0.27881101,0.02684391,0.02718626,0.27836722,2.8370977,1.3344382)" />
    <linearGradient
       id="e-3">
      <stop
         offset="0"
         stop-color="#dbce48"
         id="stop1246" />
      <stop
         offset="1"
         stop-color="#c5b625"
         id="stop1248" />
    </linearGradient>
    <linearGradient
       x1="30.038"
       y1="24.99"
       x2="30.038"
       y2="30"
       id="l"
       xlink:href="#c-6"
       gradientUnits="userSpaceOnUse"
       gradientTransform="matrix(0.2992859,-0.30126065,0.44992888,0.44722763,-8.2440804,2.17577)" />
    <linearGradient
       id="c-6">
      <stop
         offset="0"
         stop-color="#b1b1b1"
         id="stop1228" />
      <stop
         offset=".5"
         stop-color="#fff"
         id="stop1230" />
      <stop
         offset="1"
         stop-color="#8f8f8f"
         id="stop1232" />
    </linearGradient>
    <linearGradient
       x1="30.038"
       y1="24.99"
       x2="30.038"
       y2="30"
       id="k"
       xlink:href="#b"
       gradientUnits="userSpaceOnUse"
       gradientTransform="matrix(0.2992859,-0.30126065,0.44992888,0.44722763,-8.1588924,2.0896319)" />
    <linearGradient
       id="b">
      <stop
         offset="0"
         stop-color="#565656"
         id="stop1220" />
      <stop
         offset=".5"
         stop-color="#9a9a9a"
         id="stop1222" />
      <stop
         offset="1"
         stop-color="#545454"
         id="stop1224" />
    </linearGradient>
    <linearGradient
       x1="30.038"
       y1="24.99"
       x2="30.038"
       y2="30"
       id="j"
       xlink:href="#c-6"
       gradientUnits="userSpaceOnUse"
       gradientTransform="matrix(0.2992859,-0.30126065,0.44992888,0.44722763,-8.5426114,2.4765108)" />
    <linearGradient
       x1="30.038"
       y1="24.99"
       x2="30.038"
       y2="30"
       id="i"
       xlink:href="#b"
       gradientUnits="userSpaceOnUse"
       gradientTransform="matrix(0.2992859,-0.30126065,0.44992888,0.44722763,-8.4581634,2.3911153)" />
    <linearGradient
       x1="30.038"
       y1="24.99"
       x2="30.038"
       y2="30"
       id="h"
       xlink:href="#c-6"
       gradientUnits="userSpaceOnUse"
       gradientTransform="matrix(0.2992859,-0.30126065,0.44992888,0.44722763,-8.8411414,2.7772517)" />
    <linearGradient
       x1="30.038"
       y1="24.99"
       x2="30.038"
       y2="30"
       id="g"
       xlink:href="#b"
       gradientUnits="userSpaceOnUse"
       gradientTransform="matrix(0.2992859,-0.30126065,0.44992888,0.44722763,-8.7559524,2.690371)" />
    <linearGradient
       x1="23.576"
       y1="25.357"
       x2="23.576"
       y2="31.211"
       id="f-7"
       xlink:href="#a-5"
       gradientUnits="userSpaceOnUse"
       gradientTransform="matrix(0.30799735,-0.31002298,0.38444481,0.38214137,-7.1847794,4.1435805)" />
    <linearGradient
       id="a-5">
      <stop
         offset="0"
         stop-color="#181818"
         id="stop1202" />
      <stop
         offset=".135"
         stop-color="#dbdbdb"
         id="stop1204" />
      <stop
         offset=".202"
         stop-color="#a4a4a4"
         id="stop1206" />
      <stop
         offset=".27"
         stop-color="#fff"
         id="stop1208" />
      <stop
         offset=".447"
         stop-color="#8d8d8d"
         id="stop1210" />
      <stop
         offset=".571"
         stop-color="#959595"
         id="stop1212" />
      <stop
         offset=".72"
         stop-color="#cecece"
         id="stop1214" />
      <stop
         offset="1"
         stop-color="#181818"
         id="stop1216" />
    </linearGradient>
  </defs>
  <sodipodi:namedview
     pagecolor="#ffffff"
     bordercolor="#666666"
     borderopacity="1"
     objecttolerance="10"
     gridtolerance="10"
     guidetolerance="10"
     inkscape:pageopacity="0"
     inkscape:pageshadow="2"
     inkscape:window-width="1366"
     inkscape:window-height="706"
     id="namedview8"
     showgrid="true"
     inkscape:snap-global="true"
     inkscape:zoom="8"
     inkscape:cx="-5.730875"
     inkscape:cy="13.279997"
     inkscape:window-x="0"
     inkscape:window-y="0"
     inkscape:window-maximized="1"
     inkscape:current-layer="g909">
    <inkscape:grid
       type="xygrid"
       id="grid846" />
  </sodipodi:namedview>
  <g
     id="g909"
     transform="translate(0,1.9999995)">
    <rect
       style="fill:url(#a);stroke-width:1.33332992"
       height="13.999999"
       rx="0.42372692"
       ry="0.4914782"
       width="14"
       x="1"
       y="-0.99999952"
       id="rect32" />
    <path
       style="opacity:0.32000002;fill:#030303;fill-opacity:1"
       d="M 0.5 0 C 0.22369855 -0.0003844 -0.00038442363 0.2236985 0 0.5 L 0 3 L 0 4 L 0 15.5 C -0.00038442363 15.776301 0.22369855 16.000384 0.5 16 L 15.5 16 C 15.776301 16.000384 16.000384 15.776301 16 15.5 L 16 4 L 16 3 L 16 0.5 C 16.000384 0.2236985 15.776301 -0.0003844 15.5 0 L 0.5 0 z M 0.99804688 0.99804688 L 15.001953 0.99804688 L 15.001953 3 L 11 3 L 11 1 L 10 1 L 10 3 L 6 3 L 6 1 L 5 1 L 5 3 L 0.99804688 3 L 0.99804688 0.99804688 z M 0.99804688 4 L 5 4 L 5 7 L 1 7 L 1 8 L 5 8 L 5 11 L 1 11 L 1 12 L 5 12 L 5 15 L 6 15 L 6 12 L 10 12 L 10 15 L 11 15 L 11 12 L 15 12 L 15 11 L 11 11 L 11 8 L 15 8 L 15 7 L 11 7 L 11 4 L 15.001953 4 L 15.001953 15.001953 L 0.99804688 15.001953 L 0.99804688 4 z M 6 4 L 10 4 L 10 7 L 6 7 L 6 4 z M 6 8 L 10 8 L 10 11 L 6 11 L 6 8 z "
       transform="translate(0,-1.9999995)"
       id="path4" />
    <path
       id="path862"
       d="m 0.5,-1.999999 a 0.49930579,0.49930579 0 0 0 -0.5,0.5 v 3.5 H 0.99804688 V -1.0019521 H 15.001953 V 2.000001 H 16 v -3.5 a 0.49930579,0.49930579 0 0 0 -0.5,-0.5 z M 5,-0.99999902 V 1.000001 H 1 v 1 h 4 1 4 1 4 v -1 H 11 V -0.99999902 H 10 V 1.000001 H 6 v -2.00000002 z"
       style="opacity:0.4;fill:#126400;fill-opacity:1"
       inkscape:connector-curvature="0" />
    <path
       sodipodi:nodetypes="ccccc"
       inkscape:connector-curvature="0"
       style="fill:url(#linearGradient844);fill-opacity:1;stroke-width:0.98308158"
       id="path2"
       d="M 0.50129612,-1.4793423 H 15.517744 V 1.601696 H 0.50129612 Z" />
    <path
       sodipodi:nodetypes="ccccccccc"
       inkscape:connector-curvature="0"
       id="rect885"
       d="m 0.50129512,-1.4793423 1e-6,3.0810383 L 1.5107461,1.5938855 1.5,-0.5624995 l 13.0625,0 v 2.1641971 l 0.955238,5e-7 6e-6,-3.0810383 z"
       style="opacity:1;fill:url(#linearGradient896);fill-opacity:1;stroke:none;stroke-width:0.93416828;stroke-linecap:round;stroke-linejoin:round;stroke-miterlimit:4;stroke-dasharray:none;stroke-dashoffset:0;stroke-opacity:1" />
    <rect
       y="-1.5058208"
       x="5"
       height="3.0743246"
       width="1"
       id="rect898"
       style="opacity:0.4;fill:#126400;fill-opacity:1;stroke:none;stroke-width:1.09305108;stroke-linecap:round;stroke-linejoin:round;stroke-miterlimit:4;stroke-dasharray:none;stroke-dashoffset:0;stroke-opacity:1" />
    <rect
       y="-1.5058208"
       x="10"
       height="3.1029625"
       width="1"
       id="rect900"
       style="opacity:0.4;fill:#126400;fill-opacity:1;stroke:none;stroke-width:1.09305108;stroke-linecap:round;stroke-linejoin:round;stroke-miterlimit:4;stroke-dasharray:none;stroke-dashoffset:0;stroke-opacity:1" />
    <g
       id="g2050">
      <path
         id="path1267"
         d="m 6.8801256,10.99977 h 8.1200004 l -0.186,1 H 6.7621256 Z"
         style="fill:#ffffff"
         inkscape:connector-curvature="0" />
      <path
         id="path1269"
         d="m 14.000126,11.24277 c -0.097,-0.016 -0.172,-0.01 -0.22,0.002 l -6.5360004,1.45 -1.203,0.268 -0.036,0.006 -1.3950001,1.031 3.5600001,-0.054 0.03,-0.007 1.21,-0.267 6.5330004,-1.462 c 0.196,-0.043 -0.128,-0.294 -0.727,-0.563 -0.45,-0.202 -0.923,-0.36 -1.215,-0.404 z"
         style="opacity:0.15;fill:#0c0c0c;fill-rule:evenodd"
         inkscape:connector-curvature="0" />
      <path
         id="path1271"
         d="m 5.9987041,10.371515 c 0.2111194,-0.153712 0.8496632,0.19084 1.4519092,0.788609 0.6000237,0.596284 0.9333702,1.217815 0.7829939,1.43316 0,0 0.014815,0.01337 0.014815,0.01485 L 15.756868,5.0472882 C 15.947986,4.8557051 15.599084,4.1985306 14.979059,3.581455 14.356812,2.9636367 13.697527,2.6198268 13.507149,2.8114099 Z"
         style="fill:url(#f-7);stroke:#0c0c0c;stroke-width:0.35970971;stroke-linejoin:round"
         inkscape:connector-curvature="0" />
      <path
         id="path1273"
         d="m 12.306361,4.0203138 c 0.212601,-0.1544545 0.850404,0.190098 1.451909,0.7886094 0.600023,0.5970263 0.93337,1.2178148 0.783735,1.4331601 0,0.00149 0.01482,0.013366 0.01482,0.014851 L 15.705014,5.1000106 C 16.008729,4.7970421 15.684272,4.2883816 14.979059,3.5821975 14.376813,2.9836861 13.73901,2.6391337 13.52715,2.7935882 l -0.01926,0.018564 z"
         style="opacity:0.8;fill:#ffb6ed;stroke:#e28ccd;stroke-width:0.35970971;stroke-linejoin:round"
         inkscape:connector-curvature="0" />
      <path
         id="path1275"
         d="m 5.9981256,10.37177 c 0.212,-0.154 0.85,0.19 1.452,0.79 0.6,0.595 0.933,1.217 0.783,1.432 0,0 0.015,0.013 0.014,0.014 l 5.1720004,-5.206 0.018,-0.02 c 0,0 -0.015,-0.012 -0.014,-0.013 0.15,-0.215 -0.183,-0.838 -0.783,-1.434 -0.6,-0.598 -1.24,-0.943 -1.452,-0.79 l -0.018,0.02 z"
         style="opacity:0.6;fill:#0c0c0c"
         inkscape:connector-curvature="0" />
      <path
         id="path1277"
         d="m 11.280394,5.0547139 c 0.21112,-0.1544546 0.848923,0.1900979 1.451909,0.7886093 0.600024,0.5955411 0.933371,1.2178148 0.782253,1.4331601 l 0.01481,0.013366 0.09334,-0.094306 c 0,0 -0.01481,-0.011881 -0.01481,-0.013366 C 13.75827,6.9668316 13.425664,6.3453005 12.8249,5.7490168 12.223394,5.1505054 11.584851,4.8059529 11.37299,4.9604075 Z"
         style="fill:url(#g);stroke-width:0.74166948"
         inkscape:connector-curvature="0" />
      <path
         id="path1279"
         d="m 11.193724,5.140852 c 0.21186,-0.1544546 0.850404,0.1900979 1.451909,0.7886093 0.600024,0.5962837 0.93337,1.2178148 0.783735,1.4331601 0,0.00149 0.01482,0.013366 0.01482,0.014851 l 0.09334,-0.095049 -0.01482,-0.013366 C 13.673822,7.0537123 13.340475,6.4314386 12.739711,5.8344124 12.137465,5.2359009 11.499662,4.8913485 11.287802,5.045803 Z"
         style="fill:url(#h);stroke-width:0.74166948"
         inkscape:connector-curvature="0" />
      <path
         id="path1281"
         d="m 11.576702,4.7547156 c 0.212601,-0.1544546 0.851886,0.1900979 1.451909,0.7886093 0.600024,0.5970263 0.933371,1.2178148 0.785217,1.4331601 -0.0015,0.00149 0.01333,0.013366 0.01259,0.014851 l 0.09408,-0.094306 c 0,-0.00149 -0.01481,-0.013366 -0.01481,-0.014851 C 14.056059,6.6668333 13.723454,6.0460448 13.122689,5.4490185 12.521184,4.8512497 11.88264,4.5059546 11.67078,4.6604092 Z"
         style="fill:url(#i);stroke-width:0.74166948"
         inkscape:connector-curvature="0" />
      <path
         id="path1283"
         d="m 11.491514,4.8415963 c 0.21186,-0.1559397 0.850404,0.1900979 1.451909,0.7871242 0.600023,0.5977688 0.93337,1.2192999 0.783734,1.4346452 l 0.01482,0.013366 0.0926,-0.093564 c 0,0 -0.01482,-0.013366 -0.01482,-0.014851 C 13.970871,6.7544566 13.637524,6.1321829 13.037501,5.5351566 12.435255,4.9373878 11.797452,4.5920927 11.585591,4.7465473 Z"
         style="fill:url(#j);stroke-width:0.74166948"
         inkscape:connector-curvature="0" />
      <path
         id="path1285"
         d="m 11.876714,4.4532322 c 0.21186,-0.153712 0.850404,0.1908404 1.451909,0.7886093 0.600024,0.5962837 0.93337,1.2178148 0.783735,1.4331601 0,0 0.01482,0.013366 0.01482,0.014851 l 0.0926,-0.095049 c 0,0 -0.01481,-0.013366 -0.01481,-0.014851 C 14.35533,6.3660925 14.022725,5.7438188 13.42196,5.1467925 12.821936,4.5490237 12.182652,4.2037286 11.970051,4.3581832 Z"
         style="fill:url(#k);stroke-width:0.74166948"
         inkscape:connector-curvature="0" />
      <path
         id="path1287"
         d="m 11.791525,4.5393703 c 0.21112,-0.153712 0.849664,0.1908405 1.45191,0.7886093 0.600023,0.5970263 0.93337,1.2193 0.782994,1.4331601 0,0.00149 0.01482,0.014851 0.01482,0.014851 l 0.0926,-0.094306 c 0,0 -0.01481,-0.013366 -0.01481,-0.014851 C 14.270142,6.4529732 13.936795,5.8306995 13.336772,5.2336732 12.734526,4.6359044 12.096723,4.2906093 11.884862,4.446549 Z"
         style="fill:url(#l);stroke-width:0.74166948"
         inkscape:connector-curvature="0" />
      <path
         id="path1289"
         d="m 4.6727257,13.903921 3.5349545,-1.280934 0.029631,-0.0297 C 8.3869466,12.377939 8.0498962,11.755665 7.4491317,11.160124 6.8476265,10.56087 6.2098235,10.21706 5.9972225,10.373 Z"
         style="fill:url(#m);fill-rule:evenodd;stroke:url(#n);stroke-width:0.35970971"
         inkscape:connector-curvature="0" />
      <path
         id="path1291"
         d="M 5.0312584,12.94749 4.6727257,13.90095 5.6357268,13.548972 C 5.5520198,13.449468 5.4727574,13.349963 5.3734942,13.250459 5.2586748,13.136103 5.1460778,13.042539 5.0312584,12.94749 Z"
         style="fill:#0c0c0c;fill-rule:evenodd;stroke:#0c0c0c;stroke-width:0.35970971"
         inkscape:connector-curvature="0" />
    </g>
  </g>
</svg>
