<?xml version="1.0" encoding="UTF-8" standalone="no"?>
<svg
   xmlns:dc="http://purl.org/dc/elements/1.1/"
   xmlns:cc="http://creativecommons.org/ns#"
   xmlns:rdf="http://www.w3.org/1999/02/22-rdf-syntax-ns#"
   xmlns:svg="http://www.w3.org/2000/svg"
   xmlns="http://www.w3.org/2000/svg"
   xmlns:xlink="http://www.w3.org/1999/xlink"
   xmlns:sodipodi="http://sodipodi.sourceforge.net/DTD/sodipodi-0.dtd"
   xmlns:inkscape="http://www.inkscape.org/namespaces/inkscape"
   viewBox="0 0 16 16"
   version="1.1"
   id="svg86"
   sodipodi:docname="sc_datasubtotals.svg"
   inkscape:version="0.92.3 (2405546, 2018-03-11)"
   inkscape:export-filename="/home/rizmut/Documents/Rizmut/Github/libreoffice-style-elementary/images_elementary/cmd/sc_datasubtotals.png"
   inkscape:export-xdpi="96"
   inkscape:export-ydpi="96">
  <metadata
     id="metadata92">
    <rdf:RDF>
      <cc:Work
         rdf:about="">
        <dc:format>image/svg+xml</dc:format>
        <dc:type
           rdf:resource="http://purl.org/dc/dcmitype/StillImage" />
        <dc:title></dc:title>
      </cc:Work>
    </rdf:RDF>
  </metadata>
  <defs
     id="defs90" />
  <sodipodi:namedview
     pagecolor="#ffffff"
     bordercolor="#666666"
     borderopacity="1"
     objecttolerance="10"
     gridtolerance="10"
     guidetolerance="10"
     inkscape:pageopacity="0"
     inkscape:pageshadow="2"
     inkscape:window-width="1366"
     inkscape:window-height="696"
     id="namedview88"
     showgrid="true"
     inkscape:zoom="20.85965"
     inkscape:cx="9.6152824"
     inkscape:cy="7.7313401"
     inkscape:window-x="0"
     inkscape:window-y="0"
     inkscape:window-maximized="1"
     inkscape:current-layer="svg86">
    <inkscape:grid
       type="xygrid"
       id="grid899"
       spacingx="0.5"
       spacingy="0.5"
       empspacing="2" />
  </sodipodi:namedview>
  <radialGradient
     id="a"
     cx="64.575233"
     cy="48.605404"
     gradientTransform="matrix(0 .39751491 .4329035 0 -9.334735 -18.397671)"
     gradientUnits="userSpaceOnUse"
     r="31.000002">
    <stop
       offset="0"
       stop-color="#cdf87e"
       id="stop2" />
    <stop
       offset=".26238"
       stop-color="#a2e34f"
       id="stop4" />
    <stop
       offset=".66093999"
       stop-color="#68b723"
       id="stop6" />
    <stop
       offset="1"
       stop-color="#1d7e0d"
       id="stop8" />
  </radialGradient>
  <linearGradient
     id="b"
     gradientTransform="matrix(.59435835 0 0 .59991399 -19.26472 -.032551)"
     gradientUnits="userSpaceOnUse"
     x1="25.132275"
     x2="25.132275"
     xlink:href="#d"
     y1="15.499894"
     y2="48.395687" />
  <radialGradient
     id="c"
     cx="64.575233"
     cy="48.605404"
     gradientTransform="matrix(0 .39751491 .4329035 0 -9.334735 -18.397671)"
     gradientUnits="userSpaceOnUse"
     r="31.000002"
     xlink:href="#a" />
  <linearGradient
     id="d"
     gradientTransform="matrix(.59435835 0 0 .59991399 -19.26472 -.032551)"
     gradientUnits="userSpaceOnUse"
     x1="25.132275"
     x2="25.132275"
     y1="15.499894"
     y2="48.395687">
    <stop
       offset="0"
       stop-color="#fafafa"
       id="stop13" />
    <stop
       offset="1"
       stop-color="#e2e1de"
       id="stop15" />
  </linearGradient>
  <g
     transform="translate(0 2)"
     id="g84">
    <g
       transform="translate(-5.001953 .001953)"
       id="g22">
      <rect
         fill="url(#b)"
         height="4"
         rx=".423727"
         ry=".491478"
         stroke-width="1.33333"
         width="4"
         x="11.5"
         y="-1.5"
         id="rect18" />
      <path
         d="m11 0v1.0195312 2.9804688 1h5v-1-3.5c.000384-.2763015-.223699-.5003844-.5-.5zm4.001953.99804688v3.00195312h-3.001953v-2.9863281c1.29591-.00644 1.394149-.015625 3.001953-.015625z"
         fill="#030303"
         opacity=".32"
         transform="translate(0 -2)"
         id="path20" />
    </g>
    <g
       transform="translate(-5.001953 4.988281)"
       id="g28">
      <rect
         fill="url(#b)"
         height="3.986328"
         rx=".423727"
         ry=".491478"
         stroke-width="1.33333"
         width="4"
         x="11.5"
         y="-1.486328"
         id="rect24" />
      <path
         d="m11 .013672v1.0195312 2.9804688 1l5-.013672v-1-3.5c.000384-.2763015-.223699-.5003844-.5-.5zm4.001953.98437488v3.00195312l-3.001953.013672v-2.9863281c1.29591-.00644 1.394149-.029297 3.001953-.029297z"
         fill="#030303"
         opacity=".32"
         transform="translate(0 -2)"
         id="path26" />
    </g>
    <g
       transform="translate(-5.003906 10.003906)"
       id="g34">
      <rect
         fill="url(#b)"
         height="4.001953"
         rx=".423727"
         ry=".491478"
         stroke-width="1.33333"
         width="3.998047"
         x="11.501953"
         y="-1.501953"
         id="rect30" />
      <path
         d="m11.001953-.001953v1.0195312 2.9804688 1l4.998047.001953v-1-3.5c.000384-.2763015-.223699-.5003844-.5-.5zm4 .99999988v3.00195312l-3-.00195v-2.9863311c1.29591-.00644 1.392196-.013672 3-.013672z"
         fill="#030303"
         opacity=".32"
         transform="translate(0 -2)"
         id="path32" />
    </g>
    <rect
       fill="url(#d)"
       height="4"
       rx=".423727"
       ry=".491478"
       stroke-width="1.33333"
       width="4"
       x="11.5"
       y="-1.5"
       id="rect36" />
    <path
       d="m11 0v1.0195312 2.9804688 1h5v-1-3.5c.000384-.2763015-.223699-.5003844-.5-.5zm4.001953.99804688v3.00195312h-3.001953v-2.9863281c1.29591-.00644 1.394149-.015625 3.001953-.015625z"
       fill="#030303"
       opacity=".32"
       transform="translate(0 -2)"
       id="path38" />
    <g
       transform="translate(0 4.986328)"
       id="g44">
      <rect
         fill="url(#b)"
         height="3.986328"
         rx=".423727"
         ry=".491478"
         stroke-width="1.33333"
         width="4"
         x="11.5"
         y="-1.486328"
         id="rect40" />
      <path
         d="m11 .013672v1.0195312 2.9804688 1l5-.013672v-1-3.5c.000384-.2763015-.223699-.5003844-.5-.5zm4.001953.98437488v3.00195312l-3.001953.013672v-2.9863281c1.29591-.00644 1.394149-.029297 3.001953-.029297z"
         fill="#030303"
         opacity=".32"
         transform="translate(0 -2)"
         id="path42" />
    </g>
    <g
       transform="translate(-.001953 10.001953)"
       id="g50">
      <rect
         fill="url(#b)"
         height="4.001953"
         rx=".423727"
         ry=".491478"
         stroke-width="1.33333"
         width="3.998047"
         x="11.501953"
         y="-1.501953"
         id="rect46" />
      <path
         d="m11.001953-.001953v1.0195312 2.9804688 1l4.998047.001953v-1-3.5c.000384-.2763015-.223699-.5003844-.5-.5zm4 .99999988v3.00195312l-3-.00195v-2.9863311c1.29591-.00644 1.392196-.013672 3-.013672z"
         fill="#030303"
         opacity=".32"
         transform="translate(0 -2)"
         id="path48" />
    </g>
    <path
       d="m2.5-1.5v3h1v-2h2v-1z"
       fill="#fcaf3e"
       stroke="#ce5c00"
       stroke-linecap="square"
       id="path52" />
    <g
       stroke-width="1.333333"
       id="g82">
      <g
         transform="matrix(-.75 0 0 .75 12.990285 -2.821083)"
         id="g66">
        <path
           d="m13.987048 9.7614437-.000001-2.6666666h-1.333334v2.6666666h-2.6666663l-.0000006 1.3333333h2.6666659l.000001 2.666667h1.333337l-.000003-2.666667h2.666666v-1.3333336z"
           fill="url(#a)"
           id="path54" />
        <path
           d="m13.987048 9.7614437-.000001-2.6666666h-1.333335v2.6666666h-2.6666653l-.0000006 1.3333333h2.6666659l.000004 2.666667h1.333337l-.000006-2.666667h2.666666v-1.3333333z"
           fill="none"
           opacity=".5"
           stroke="#0f5a00"
           stroke-linecap="round"
           stroke-linejoin="round"
           id="path56" />
        <g
           fill="#fff"
           transform="translate(.833333 -.833333)"
           id="g64">
          <path
             d="m13.153714 10.594777h-.666667v-2.6666667h.666667z"
             opacity=".5"
             id="path58" />
          <path
             d="m13.169577 11.951494-.682531-.02338.01587 2.643283.6508.02338z"
             opacity=".2"
             id="path60" />
          <path
             d="m15.82038 10.594778v.666666h-2.666666l-.0075-.666666zm-4 0v.666666l-2.6666666.0452v-.711864z"
             opacity=".4"
             id="path62" />
        </g>
      </g>
      <g
         transform="matrix(-.75 0 0 .75 12.990284 3.178915)"
         id="g80">
        <path
           d="m13.987048 9.7614437-.000001-2.6666666h-1.333334v2.6666666h-2.6666663l-.0000006 1.3333333h2.6666659l.000001 2.666667h1.333337l-.000003-2.666667h2.666666v-1.3333336z"
           fill="url(#c)"
           id="path68" />
        <path
           d="m13.987048 9.7614437-.000001-2.6666666h-1.333335v2.6666666h-2.6666653l-.0000006 1.3333333h2.6666659l.000004 2.666667h1.333337l-.000006-2.666667h2.666666v-1.3333333z"
           fill="none"
           opacity=".5"
           stroke="#0f5a00"
           stroke-linecap="round"
           stroke-linejoin="round"
           id="path70" />
        <g
           fill="#fff"
           transform="translate(.833333 -.833333)"
           id="g78">
          <path
             d="m13.153714 10.594777h-.666667v-2.6666667h.666667z"
             opacity=".5"
             id="path72" />
          <path
             d="m13.169577 11.951494-.682531-.02338.01587 2.643283.6508.02338z"
             opacity=".2"
             id="path74" />
          <path
             d="m15.82038 10.594778v.666666h-2.666666l-.0075-.666666zm-4 0v.666666l-2.6666666.0452v-.711864z"
             opacity=".4"
             id="path76" />
        </g>
      </g>
    </g>
  </g>
  <path
     inkscape:connector-curvature="0"
     style="stroke:#abacae"
     d="M 8,2.5 H 8.999999"
     id="path111" />
  <path
     inkscape:connector-curvature="0"
     style="stroke:#f37329"
     d="M 8,7.5 H 9"
     id="path113" />
  <path
     id="path909"
     d="m 13,7.5 h 1"
     style="stroke:#f37329"
     inkscape:connector-curvature="0" />
  <path
     id="path911"
     d="M 8,12.5 H 8.999999"
     style="stroke:#abacae"
     inkscape:connector-curvature="0" />
</svg>
