<svg xmlns="http://www.w3.org/2000/svg" xmlns:xlink="http://www.w3.org/1999/xlink" height="16" width="16"><defs><linearGradient id="a"><stop offset="0" stop-color="#e3e3e4"/><stop offset=".5" stop-color="#fcfcfc"/><stop offset="1" stop-color="#e3e3e4"/></linearGradient><linearGradient id="b"><stop offset="0" stop-opacity=".34"/><stop offset="1" stop-opacity=".247"/></linearGradient><linearGradient xlink:href="#a" id="c" x1="2.903" y1="8.504" x2="12.828" y2="8.504" gradientUnits="userSpaceOnUse"/><linearGradient xlink:href="#b" id="d" x1=".918" y1="5.675" x2="14.813" y2="3.789" gradientUnits="userSpaceOnUse"/></defs><g stroke-width=".967"><path d="M.44 1.44l14.88.006-.004 2.626-6.145 5.31v6.18H6.55V9.38L.44 4.072z" fill="url(#c)" fill-rule="evenodd" stroke="url(#d)" stroke-linejoin="round" transform="matrix(1.0076 0 0 1.06043 .075 -1.018)"/><path d="M1.312 2.32l13.006.05v1.32l-6.02 5.25v5.736h-.874V8.94L1.312 3.645z" fill="none" stroke="#fdfdfb" transform="matrix(1.0076 0 0 1.06043 .075 -1.018)"/></g><path d="M13.775 5.347c-.16-.017-.317.062-.4.213L9.89 11.976l-2.243-1.793c-.2-.11-.448-.04-.558.162l-1.006 1.298c-.11.2-.036.452.164.56 0 0 4.093 3.402 4.098 3.404.047.026.096.04.146.045.162.02.33-.056.412-.21l4.702-8.654c.11-.2.036-.45-.164-.56l-1.508-.833c-.05-.028-.106-.043-.16-.048z" fill="#e14548" stroke="#b10000" stroke-width=".689" stroke-linecap="round" stroke-linejoin="round"/></svg>