<svg xmlns="http://www.w3.org/2000/svg" xmlns:xlink="http://www.w3.org/1999/xlink" height="16" width="16" viewBox="0 0 4.2333332 4.2333335"><defs><linearGradient id="g" y2="21.532" gradientUnits="userSpaceOnUse" x2="13.608" gradientTransform="translate(2)" y1="7.157" x1="13.893"><stop stop-color="#cd9ef7" offset="0"/><stop stop-color="#a56de2" offset="1"/></linearGradient><linearGradient id="h" y2="41.414" xlink:href="#a" gradientUnits="userSpaceOnUse" x2="24" gradientTransform="translate(2.974 .972) scale(.45946)" y1="14.283" x1="25.53"/><linearGradient id="a"><stop stop-color="#fff" offset="0"/><stop stop-color="#fff" stop-opacity=".235" offset=".654"/><stop stop-color="#fff" stop-opacity=".157" offset="1"/><stop stop-color="#fff" stop-opacity=".392" offset="1"/></linearGradient><linearGradient id="i" y2="21.532" gradientUnits="userSpaceOnUse" x2="13.608" y1="-5.013" x1="13.561"><stop stop-color="#f7b19e" offset="0"/><stop stop-color="#e2866d" offset="1"/></linearGradient><linearGradient id="j" y2="41.414" xlink:href="#a" gradientUnits="userSpaceOnUse" x2="24" gradientTransform="translate(.974 .972) scale(.45946)" y1="20.749" x1="25.918"/><linearGradient id="k" y2="29.436" gradientUnits="userSpaceOnUse" x2="13.3" gradientTransform="matrix(1.3832 0 0 1.4144 -11.892 21.51)" y1="12.091" x1="13.697"><stop stop-color="#aff05f" offset="0"/><stop stop-color="#68b723" offset="1"/></linearGradient><linearGradient id="l" y2="41.414" xlink:href="#a" gradientUnits="userSpaceOnUse" x2="24" gradientTransform="matrix(.4595 0 0 .4595 .974 .972)" y1="22.094" x1="25.463"/><linearGradient x1="103.95" y1="-7.666" x2="89.424" y2="-7.666" id="m" xlink:href="#b" gradientUnits="userSpaceOnUse" gradientTransform="matrix(.2576 0 0 .256 -18.787 32.336)" spreadMethod="reflect"/><linearGradient id="b"><stop offset="0" stop-color="#868688"/><stop offset="1" stop-color="#d9d9da"/></linearGradient><linearGradient x1="89.018" y1="22.537" x2="89.018" y2="27.546" id="n" xlink:href="#c" gradientUnits="userSpaceOnUse" gradientTransform="matrix(.5627 0 0 .5922 -44.99 15.484)"/><linearGradient id="c"><stop offset="0" stop-color="#a0a0a0"/><stop offset="1" stop-color="#4a4a4a"/></linearGradient><linearGradient x1="103.95" y1="-7.666" x2="89.424" y2="-7.666" id="o" xlink:href="#b" gradientUnits="userSpaceOnUse" gradientTransform="matrix(.2576 0 0 .256 -18.787 28.336)" spreadMethod="reflect"/><linearGradient x1="89.018" y1="22.537" x2="89.018" y2="27.546" id="p" xlink:href="#c" gradientUnits="userSpaceOnUse" gradientTransform="matrix(.5627 0 0 .5922 -44.99 11.484)"/><linearGradient x1="103.95" y1="-7.666" x2="89.424" y2="-7.666" id="q" xlink:href="#b" gradientUnits="userSpaceOnUse" gradientTransform="matrix(.2576 0 0 .252 -18.787 24.39)" spreadMethod="reflect"/><linearGradient x1="89.018" y1="22.537" x2="89.018" y2="27.546" id="r" xlink:href="#c" gradientUnits="userSpaceOnUse" gradientTransform="matrix(.5627 0 0 .583 -44.99 7.8)"/><linearGradient x1="102.308" y1="-2.393" x2="102.308" y2="-24.582" id="s" xlink:href="#d" gradientUnits="userSpaceOnUse" gradientTransform="matrix(.259 0 0 .195 -18.915 21.137)" spreadMethod="reflect"/><linearGradient id="d"><stop offset="0" stop-color="#a5a6a8"/><stop offset="1" stop-color="#e8e8e8"/></linearGradient><linearGradient x1="109.956" y1="-24.911" x2="109.956" y2="-2.376" id="t" xlink:href="#e" gradientUnits="userSpaceOnUse" gradientTransform="matrix(.259 0 0 .195 -18.915 21.137)"/><linearGradient id="e"><stop offset="0" stop-color="#b3b3b3"/><stop offset="1" stop-color="#dadada"/></linearGradient><linearGradient x1="21.381" y1="5.052" x2="21.381" y2="44.137" id="u" xlink:href="#f" gradientUnits="userSpaceOnUse" gradientTransform="matrix(.3143 0 0 .342 .457 15.618)"/><linearGradient id="f"><stop offset="0" stop-color="#fff"/><stop offset=".081" stop-color="#fff" stop-opacity=".235"/><stop offset=".923" stop-color="#fff" stop-opacity=".157"/><stop offset="1" stop-color="#fff" stop-opacity=".392"/></linearGradient></defs><g transform="matrix(.2646 0 0 .2646 -2.913 -1.59)"><rect rx="1" ry="1" height="14.065" width="3.968" y="7.469" x="17.515" fill="url(#g)" color="#000"/><path opacity=".5" stroke-linejoin="round" stroke="url(#h)" stroke-linecap="round" fill="none" d="M18.503 8.517h2.05v12.016h-2.05z"/><rect opacity=".5" stroke-linejoin="round" rx=".664" ry=".63" height="14.001" width="4.012" stroke="#7239b3" stroke-linecap="round" y="7.495" x="17.499" fill="none" color="#000"/></g><g transform="matrix(.2646 0 0 .2646 -.79 -1.59)"><rect rx="1" ry="1" height="12.027" width="4.116" y="9.449" x="14.39" fill="url(#i)" color="#000"/><path opacity=".5" stroke-linejoin="round" stroke="url(#j)" stroke-linecap="round" fill="none" d="M15.49 10.493h1.97v10.172h-1.97z"/><rect opacity=".5" stroke-linejoin="round" rx=".79" ry=".513" height="11.998" width="4" stroke="#b35039" stroke-linecap="round" y="9.502" x="14.481" fill="none" color="#000"/></g><g transform="matrix(.2646 0 0 .2646 -4.234 -1.59)"><rect rx="1" ry="1" height="7.941" width="4.096" y="13.559" x="17.404" fill="url(#k)" color="#000"/><path opacity=".5" stroke-linejoin="round" stroke="url(#l)" stroke-linecap="round" fill="none" d="M18.5 14.498h2v6h-2z"/><rect opacity=".5" stroke-linejoin="round" rx=".866" ry=".597" height="7.97" width="3.998" stroke="#7bb339" stroke-linecap="round" y="13.53" x="17.501" fill="none" color="#000"/></g><g transform="matrix(.1984 0 0 .1984 -.198 -3.175)"><path d="M14.46 29.5c0 1.2-2.898 2-6.467 2-3.57 0-6.468-.8-6.468-2 0-4.634-.79-3.195 6.468-3.25 7.424-.056 6.467-1.41 6.467 3.25z" fill="url(#m)" stroke="url(#n)"/><path d="M14.5 26.5c0 1.105-2.91 2-6.5 2s-6.5-.895-6.5-2 2.91-2 6.5-2 6.5.895 6.5 2z" fill="none" stroke="#d8d8d8"/><path d="M14.46 25.5c0 1.157-2.898 2-6.467 2-3.57 0-6.468-.8-6.468-2 0-4.634-.79-3.195 6.468-3.25 7.424-.056 6.467-1.41 6.467 3.25z" fill="url(#o)" stroke="url(#p)"/><path d="M14.5 22.5c0 1.105-2.91 2-6.5 2s-6.5-.895-6.5-2 2.91-2 6.5-2 6.5.895 6.5 2z" fill="none" stroke="#d8d8d8"/><path d="M14.46 21.5c0 1.218-2.898 2-6.467 2-3.57 0-6.468-.95-6.468-2 0-4.344-.79-3.046 6.468-3.1 7.424-.056 6.467-.83 6.467 3.1z" fill="url(#q)" stroke="url(#r)"/><path d="M14.5 18.5c0 1.105-2.91 2-6.5 2s-6.5-.895-6.5-2 2.91-2 6.5-2 6.5.895 6.5 2z" fill="url(#s)" stroke="url(#t)"/><rect width="11" height="13" rx="17.5" ry="1.5" x="2.5" y="17.5" color="#000" overflow="visible" opacity=".5" fill="none" stroke="url(#u)"/></g></svg>