<svg xmlns="http://www.w3.org/2000/svg" xmlns:xlink="http://www.w3.org/1999/xlink" height="16" width="16"><defs><linearGradient gradientTransform="matrix(.2538 0 0 .30502 19.13 -.685)" gradientUnits="userSpaceOnUse" xlink:href="#a" id="h" y2="28.475" x2="-59.613" y1="28.475" x1="-20.21"/><linearGradient id="a"><stop offset="0" stop-opacity=".34"/><stop offset="1" stop-opacity=".247"/></linearGradient><linearGradient gradientTransform="matrix(.24324 0 0 .35135 2.162 -.432)" gradientUnits="userSpaceOnUse" xlink:href="#b" id="g" y2="24" x2="40.444" y1="24" x1="7.556"/><linearGradient id="b"><stop offset="0" stop-color="#fff"/><stop offset=".25" stop-color="#fff" stop-opacity=".235"/><stop offset="1" stop-color="#fff" stop-opacity=".157"/><stop offset="1" stop-color="#fff" stop-opacity=".392"/></linearGradient><linearGradient id="c"><stop offset="0" stop-color="#f4f4f4"/><stop offset="1" stop-color="#dbdbdb"/></linearGradient><linearGradient gradientTransform="matrix(.2857 0 0 .3042 1.143 .233)" gradientUnits="userSpaceOnUse" xlink:href="#c" id="f" y2="22.247" x2="45" y1="22.247" x1="10"/><linearGradient id="d"><stop offset="0" stop-color="#cdf87e"/><stop offset=".262" stop-color="#a2e34f"/><stop offset=".661" stop-color="#68b723"/><stop offset="1" stop-color="#1d7e0d"/></linearGradient><linearGradient id="i" gradientTransform="matrix(.36872 0 0 .38857 7.576 7.143)" gradientUnits="userSpaceOnUse" x1="11.192" x2="11.192" y1="4.064" y2="30.298"><stop offset="0" stop-color="#ed5353"/><stop offset="1" stop-color="#c6262e"/></linearGradient><linearGradient id="j" gradientTransform="scale(.27717 .29177) rotate(-45 53.112 9.764)" gradientUnits="userSpaceOnUse" x1="36.011" x2="16.331" xlink:href="#e" y1="13.023" y2="32.702"/><linearGradient id="e"><stop offset="0" stop-color="#fff"/><stop offset=".508" stop-color="#fff" stop-opacity=".235"/><stop offset=".835" stop-color="#fff" stop-opacity=".157"/><stop offset="1" stop-color="#fff" stop-opacity=".392"/></linearGradient><linearGradient id="k" gradientTransform="matrix(.196 -.20632 .196 .20632 2.2 11.896)" gradientUnits="userSpaceOnUse" x1="28.449" x2="16.331" xlink:href="#e" y1="20.584" y2="32.702"/></defs><path d="M3 1h10v14H3V1z" fill="url(#f)" transform="rotate(90 8 8)"/><path d="M12.5 14.5h-9v-13h9z" fill="none" stroke="url(#g)" stroke-linecap="round" transform="rotate(90 8 8)"/><path d="M2.5.5h11v15h-11V.5z" fill="none" stroke="url(#h)" stroke-linejoin="round" transform="rotate(90 8 8)"/><g><path d="M15.503 14.06L13.475 12l1.952-2.16-1.407-1.337-2.01 2.057-2.05-2.057L8.5 9.89l2.05 2.1-2.05 2.067 1.463 1.44 2.05-2.16 2.05 2.16z" fill="url(#i)" stroke="#b10000" stroke-linejoin="round"/><path d="M14.024 9.92l-1.996 2.06-2.082-2.058" opacity=".5" fill="none" stroke="url(#j)" stroke-linecap="square" stroke-linejoin="round"/><path d="M14.365 14.47l-1.658-1.9m-1.422.082l-1.73 1.723" opacity=".4" fill="none" stroke="url(#k)"/></g></svg>