<svg xmlns="http://www.w3.org/2000/svg" xmlns:xlink="http://www.w3.org/1999/xlink" viewBox="0 0 16 16"><defs><linearGradient id="a"><stop stop-color="#fff" offset="0"/><stop stop-color="#fff" stop-opacity=".235" offset=".654"/><stop stop-color="#fff" stop-opacity=".157" offset="1"/><stop stop-color="#fff" stop-opacity=".392" offset="1"/></linearGradient><linearGradient y2="27.652" x2="104.747" y1="27.165" x1="80.82" spreadMethod="reflect" gradientTransform="matrix(-.1472 -.24716 .25497 -.1427 18.298 35.894)" gradientUnits="userSpaceOnUse" id="f" xlink:href="#b"/><linearGradient id="b"><stop offset="0" stop-color="#abacae"/><stop offset=".111" stop-color="#7e8087"/><stop offset="1" stop-color="#fafafa"/></linearGradient><linearGradient gradientTransform="translate(.51 .106) scale(.6612)" gradientUnits="userSpaceOnUse" y2="15.044" x2="16.016" y1="1.894" x1="16.016" id="g" xlink:href="#c"/><linearGradient id="c"><stop offset="0" stop-color="#fff"/><stop offset=".405" stop-color="#fff" stop-opacity=".235"/><stop offset=".744" stop-color="#fff" stop-opacity=".157"/><stop offset="1" stop-color="#fff" stop-opacity=".392"/></linearGradient><radialGradient gradientTransform="matrix(.3353 0 0 .333 -4.142 2.754)" r="4.301" fy="21.218" fx="24.66" cy="21.218" cx="24.66" gradientUnits="userSpaceOnUse" id="h" xlink:href="#d"/><linearGradient id="d"><stop offset="0" stop-color="#fff"/><stop offset="1" stop-color="#9d9d9d"/></linearGradient><linearGradient y2="240.809" x2="195.835" y1="235.838" x1="194.152" gradientTransform="rotate(-3.518 -2387.363 2122.93) scale(.6612)" gradientUnits="userSpaceOnUse" id="i" xlink:href="#e"/><linearGradient id="e"><stop offset="0" stop-color="#cfd1d3"/><stop offset="1" stop-color="#cfd1d3" stop-opacity="0"/></linearGradient></defs><path d="M15 3v10H1V3h14z" fill="#e9e9e9"/><path d="M1.5 12.5v-9h13v9z" fill="none" stroke="#fff" stroke-linecap="round"/><path d="M15.5 2.5v11H.5v-11h15z" fill="none" stroke="#dd9861" stroke-linejoin="round"/><g><path d="M3.247 4.66c-.454.182-1.074 1.88.554 4.626 1.54 2.594 3.114 3.13 3.534 2.873.402-.248.562-2.065-.866-4.31C5.31 6.03 3.703 4.474 3.248 4.66z" fill="#555753" stroke="#555761"/><path d="M7.36 12.11l7.31-4.177c2.156-2.545-1.448-7.886-4.143-7.4L3.2 4.623C5.92 5.95 7.47 9.34 7.36 12.11z" fill="url(#f)" fill-rule="evenodd" stroke="#555761" stroke-linejoin="round"/><path d="M8.146 10.907L14.25 7.53c1.735-2.063-1.474-7.097-3.74-6.376L4.39 4.63c1.723.95 3.56 4.058 3.756 6.277z" fill="none" stroke="url(#g)"/><path d="M8.46 4.823v-2.82c0-2.065-3.967-2.023-3.967.064v1.588" fill="none" stroke="#555761" stroke-linecap="round"/><ellipse cy="9.819" cx="4.125" transform="rotate(-29.727) skewX(.547)" rx="1.274" ry="1.265" fill="url(#h)" fill-rule="evenodd" stroke="#555761" stroke-linecap="round"/><path d="M3.98 12.835c-1.887 0-2.48.563-2.48 1.302 0 .534.643 1.336 3.45 1.336h4.62c2.366 0 4.84-.407 4.84-1.33 0-.896-2.542-1.313-4.58-1.318l-.8-.002-.915.014c-1.556-.3-1.38-1.862-1.79-3.12-.82.55-.886 1.253-1.227 2.26-.15.362-.713.866-1.12.858z" fill="#fcaf3e" fill-rule="evenodd" stroke="#ce5c00" stroke-linejoin="round"/><path overflow="visible" style="line-height:normal;-inkscape-font-specification:'Bitstream Vera Sans';text-indent:0;text-align:start;text-decoration-line:none;text-transform:none" d="M3.304 5.412c-.125.05-.207.17-.21.303-.117 1.637.804 3.385 1.91 4.147.15.105.357.07.462-.08.105-.15.07-.356-.08-.46C4.55 8.744 3.664 7.09 3.76 5.756c.014-.117-.035-.233-.13-.304-.093-.07-.218-.087-.326-.04z" font-family="Bitstream Vera Sans" fill="url(#i)"/><circle overflow="visible" r=".626" cy="2.806" cx="-13.647" transform="rotate(-90)" fill="#fff"/></g></svg>