<svg xmlns="http://www.w3.org/2000/svg" xmlns:xlink="http://www.w3.org/1999/xlink" height="16" width="16"><defs><linearGradient y2="27.652" x2="104.747" y1="27.165" x1="80.82" spreadMethod="reflect" gradientTransform="matrix(-.1472 -.24716 .25497 -.1427 18.298 35.894)" gradientUnits="userSpaceOnUse" id="f" xlink:href="#a"/><linearGradient id="a"><stop offset="0" stop-color="#abacae"/><stop offset=".111" stop-color="#7e8087"/><stop offset="1" stop-color="#fafafa"/></linearGradient><linearGradient gradientTransform="translate(.51 .106) scale(.6612)" gradientUnits="userSpaceOnUse" y2="15.044" x2="16.016" y1="1.894" x1="16.016" id="g" xlink:href="#b"/><linearGradient id="b"><stop offset="0" stop-color="#fff"/><stop offset=".405" stop-color="#fff" stop-opacity=".235"/><stop offset=".744" stop-color="#fff" stop-opacity=".157"/><stop offset="1" stop-color="#fff" stop-opacity=".392"/></linearGradient><radialGradient gradientTransform="matrix(.3353 0 0 .333 -4.142 2.754)" r="4.301" fy="21.218" fx="24.66" cy="21.218" cx="24.66" gradientUnits="userSpaceOnUse" id="h" xlink:href="#c"/><linearGradient id="c"><stop offset="0" stop-color="#fff"/><stop offset="1" stop-color="#9d9d9d"/></linearGradient><linearGradient y2="240.809" x2="195.835" y1="235.838" x1="194.152" gradientTransform="matrix(.8413 -.0517 .0517 .8413 -172.767 -183.29)" gradientUnits="userSpaceOnUse" id="i" xlink:href="#d"/><linearGradient id="d"><stop offset="0" stop-color="#cfd1d3"/><stop offset="1" stop-color="#cfd1d3" stop-opacity="0"/></linearGradient></defs><linearGradient id="e" gradientTransform="matrix(.3514 0 0 .2162 -.432 3.31)" gradientUnits="userSpaceOnUse" x1="24" x2="24" y1="-.667" y2="43"><stop offset="0" stop-color="#fff"/><stop offset=".508" stop-color="#fff" stop-opacity=".235"/><stop offset=".835" stop-color="#fff" stop-opacity=".157"/><stop offset="1" stop-color="#fff" stop-opacity=".392"/></linearGradient><path stroke-linejoin="round" stroke="#2f78c8" fill-opacity=".984" fill="#46a9eb" d="M.5 3.5h15v10H.5v-10z"/><path stroke-linecap="round" stroke="url(#e)" opacity=".5" fill="none" d="M14.5 12.5h-13v-8h13z"/><path stroke-width=".75" stroke="#fff" fill="none" d="M4 6.5h2.076zm2.908 0h2.234zm3.03 0h1.224zM4 8.495h1.295zm1.895 0h1.23zm1.824 0h.742zm1.262.01H12zM4 10.5h1.746zm1.92 0h1.184zm1.985 0H9.16zm1.97 0h1.992z"/><g transform="matrix(-.8158 0 0 .8158 13.004 .094)"><path d="M3.247 4.66c-.454.182-1.074 1.88.554 4.626 1.54 2.594 3.115 3.13 3.535 2.873.402-.25.562-2.066-.866-4.31-1.16-1.82-2.767-3.376-3.222-3.19z" fill="#555753" stroke="#555761"/><path d="M7.36 12.11l7.31-4.177c2.156-2.545-1.448-7.886-4.143-7.4L3.2 4.623C5.92 5.95 7.47 9.34 7.36 12.11z" fill="url(#f)" fill-rule="evenodd" stroke="#555761" stroke-width="1.226" stroke-linejoin="round"/><path d="M10.738 1.81L5.582 4.74c.684.6 1.322 1.325 1.846 2.203.558.936.935 1.946 1.17 2.934l5.14-2.846c.255-.33.375-.785.3-1.385-.076-.626-.35-1.35-.74-1.993-.392-.642-.902-1.2-1.388-1.53-.477-.325-.87-.4-1.172-.31z" fill="none" stroke="url(#g)"/><path d="M8.46 4.823v-2.82c0-2.065-3.967-2.023-3.967.064v1.588" fill="none" stroke="#555761" stroke-width="1.226" stroke-linecap="round"/><ellipse cy="9.819" cx="4.125" transform="rotate(-29.727) skewX(.547)" rx="1.274" ry="1.265" fill="url(#h)" fill-rule="evenodd" stroke="#555761" stroke-width="1.226" stroke-linecap="round"/><path overflow="visible" style="line-height:normal;-inkscape-font-specification:'Bitstream Vera Sans';text-indent:0;text-align:start;text-decoration-line:none;text-transform:none" d="M3.24 5.253c-.16.064-.264.217-.268.386-.15 2.086 1.025 4.314 2.435 5.286.19.134.455.09.59-.102.133-.19.088-.454-.103-.587C4.828 9.5 3.7 7.392 3.82 5.692c.02-.15-.044-.297-.165-.388-.118-.09-.278-.11-.415-.05z" font-family="Bitstream Vera Sans" fill="url(#i)"/></g></svg>