<?xml version="1.0" encoding="UTF-8" standalone="no"?>
<svg
   xmlns:dc="http://purl.org/dc/elements/1.1/"
   xmlns:cc="http://creativecommons.org/ns#"
   xmlns:rdf="http://www.w3.org/1999/02/22-rdf-syntax-ns#"
   xmlns:svg="http://www.w3.org/2000/svg"
   xmlns="http://www.w3.org/2000/svg"
   xmlns:sodipodi="http://sodipodi.sourceforge.net/DTD/sodipodi-0.dtd"
   xmlns:inkscape="http://www.inkscape.org/namespaces/inkscape"
   height="16"
   width="16"
   version="1.1"
   id="svg96"
   sodipodi:docname="sc_dbformrename.svg"
   inkscape:version="0.92.3 (unknown)">
  <metadata
     id="metadata100">
    <rdf:RDF>
      <cc:Work
         rdf:about="">
        <dc:format>image/svg+xml</dc:format>
        <dc:type
           rdf:resource="http://purl.org/dc/dcmitype/StillImage" />
        <dc:title></dc:title>
      </cc:Work>
    </rdf:RDF>
  </metadata>
  <sodipodi:namedview
     pagecolor="#ffffff"
     bordercolor="#666666"
     borderopacity="1"
     objecttolerance="10"
     gridtolerance="10"
     guidetolerance="10"
     inkscape:pageopacity="0"
     inkscape:pageshadow="2"
     inkscape:window-width="1366"
     inkscape:window-height="706"
     id="namedview98"
     showgrid="false"
     inkscape:zoom="14.75"
     inkscape:cx="-0.71186441"
     inkscape:cy="7.4576271"
     inkscape:window-x="0"
     inkscape:window-y="0"
     inkscape:window-maximized="1"
     inkscape:current-layer="svg96" />
  <defs
     id="defs30">
    <linearGradient
       id="b"
       x1="24"
       gradientUnits="userSpaceOnUse"
       y1="6.549"
       gradientTransform="translate(.974 -7.028) scale(.45946)"
       x2="24"
       y2="41.414">
      <stop
         stop-color="#fff"
         offset="0"
         id="stop2" />
      <stop
         stop-color="#fff"
         stop-opacity=".235"
         offset="0"
         id="stop4" />
      <stop
         stop-color="#fff"
         stop-opacity=".157"
         offset="1"
         id="stop6" />
      <stop
         stop-color="#fff"
         stop-opacity=".392"
         offset="1"
         id="stop8" />
    </linearGradient>
    <linearGradient
       id="a"
       y2="-.07"
       gradientUnits="userSpaceOnUse"
       x2="14.33"
       gradientTransform="translate(.923 -15.077) scale(.6923)"
       y1="20.333"
       x1="14.556">
      <stop
         stop-color="#fafafa"
         offset="0"
         id="stop11" />
      <stop
         stop-color="#d4d4d4"
         offset="1"
         id="stop13" />
    </linearGradient>
    <linearGradient
       id="c"
       y2="22.468"
       gradientUnits="userSpaceOnUse"
       x2="16.961"
       gradientTransform="matrix(1.054 0 0 1.22 -.878 -4.413)"
       y1="17.55"
       x1="16.961">
      <stop
         stop-color="#fafafa"
         offset="0"
         id="stop16" />
      <stop
         stop-color="#e1e1e1"
         offset="1"
         id="stop18" />
    </linearGradient>
    <linearGradient
       id="d"
       y2="22.587"
       gradientUnits="userSpaceOnUse"
       x2="17.956"
       y1="17.535"
       x1="19.294">
      <stop
         stop-color="#fff"
         offset="0"
         id="stop21" />
      <stop
         stop-color="#fff"
         stop-opacity=".235"
         offset=".508"
         id="stop23" />
      <stop
         stop-color="#fff"
         stop-opacity=".157"
         offset=".835"
         id="stop25" />
      <stop
         stop-color="#fff"
         stop-opacity=".392"
         offset="1"
         id="stop27" />
    </linearGradient>
  </defs>
  <g
     id="g939">
    <rect
       id="rect32"
       color="#000"
       fill="url(#a)"
       height="14"
       x="1"
       y="-15"
       width="14"
       ry=".5"
       transform="scale(1 -1)"
       rx=".5" />
    <rect
       id="rect34"
       color="#000"
       fill="none"
       x=".502"
       y=".501"
       stroke-linecap="round"
       stroke="#555761"
       width="14.992"
       height="14.996"
       ry="1"
       rx="1"
       stroke-linejoin="round"
       opacity=".344" />
    <path
       id="path36"
       d="M1.493 1.5h13.005v13H1.493z"
       fill="none"
       stroke-linecap="round"
       stroke="url(#b)"
       stroke-linejoin="round" />
    <path
       id="path38"
       color="#000"
       fill="#fff"
       fill-rule="evenodd"
       d="M3.978 14.426a.997.997 0 0 1-1.994 0 .997.997 0 1 1 1.994 0z" />
    <path
       id="path40"
       color="#000"
       fill-rule="evenodd"
       d="M4 14.004a.997.997 0 0 1-1.994 0 .997.997 0 1 1 1.994 0z"
       opacity=".3" />
    <g
       id="g46"
       color="#000"
       fill-rule="evenodd">
      <path
         id="path42"
         fill="#fff"
         d="M13.978 14.426a.997.997 0 0 1-1.994 0 .997.997 0 1 1 1.994 0z" />
      <path
         id="path44"
         d="M14 14.004a.997.997 0 0 1-1.994 0 .997.997 0 1 1 1.994 0z"
         opacity=".3" />
    </g>
    <g
       id="g56"
       color="#000"
       fill-rule="evenodd">
      <path
         id="path48"
         fill="#fff"
         d="M4.03 3.282a.997.997 0 0 1-1.993 0 .997.997 0 1 1 1.994 0z" />
      <path
         id="path50"
         d="M4 3.004a.997.997 0 0 1-1.994 0 .997.997 0 1 1 1.994 0z"
         opacity=".3" />
      <path
         id="path52"
         fill="#fff"
         d="M14.03 3.282a.997.997 0 0 1-1.993 0 .997.997 0 1 1 1.994 0z" />
      <path
         id="path54"
         d="M14 3.004a.997.997 0 0 1-1.994 0 .997.997 0 1 1 1.994 0z"
         opacity=".3" />
    </g>
    <g
       id="g64"
       transform="matrix(.9984 0 0 1.1897 -10.967 -15.284)">
      <rect
         id="rect58"
         fill="url(#c)"
         x="13.485"
         y="17.463"
         width="11.003"
         height="5.077"
         ry="1.049"
         rx="1.065" />
      <rect
         id="rect60"
         fill="none"
         stroke-width=".918"
         x="14.485"
         y="18.335"
         stroke-linecap="round"
         stroke="url(#d)"
         width="9.078"
         height="3.303"
         ry="0"
         rx="0"
         stroke-linejoin="round" />
      <rect
         id="rect62"
         fill="none"
         stroke-width=".918"
         x="13.446"
         y="17.51"
         stroke="#656565"
         width="11.1"
         height="4.965"
         ry=".846"
         rx="1.063"
         opacity=".5" />
    </g>
    <g
       id="g94"
       transform="translate(-7 -13)"
       fill="#4d4d4d">
      <rect
         id="rect66"
         x="12"
         y="20"
         width="1"
         height="1"
         rx="0" />
      <rect
         id="rect68"
         x="13"
         y="19"
         width="1"
         height="1"
         rx="0" />
      <rect
         id="rect70"
         x="14"
         y="20"
         width="1"
         height="1"
         rx="0" />
      <rect
         id="rect72"
         x="12"
         y="21"
         width="1"
         height="1"
         rx="0" />
      <rect
         id="rect74"
         x="14"
         y="21"
         width="1"
         height="1"
         rx="0" />
      <rect
         id="rect76"
         x="13"
         y="22"
         width="1"
         height="1"
         rx="0" />
      <rect
         id="rect78"
         x="16"
         y="19"
         width="1"
         height="1"
         rx="0" />
      <rect
         id="rect80"
         x="16"
         y="20"
         width="1"
         height="1"
         rx="0" />
      <rect
         id="rect82"
         x="16"
         y="21"
         width="1"
         height="1"
         rx="0" />
      <rect
         id="rect84"
         x="16"
         y="22"
         width="1"
         height="1"
         rx="0" />
      <rect
         id="rect86"
         x="18"
         y="19"
         width="1"
         height="1"
         rx="0" />
      <rect
         id="rect88"
         x="17"
         y="20"
         width="1"
         height="1"
         rx="0" />
      <rect
         id="rect90"
         x="18"
         y="21"
         width="1"
         height="1"
         rx="0" />
      <rect
         id="rect92"
         x="18"
         y="22"
         width="1"
         height="1"
         rx="0" />
    </g>
  </g>
  <g
     id="g38">
    <path
       style="opacity:0.51999996;fill-rule:evenodd"
       inkscape:connector-curvature="0"
       d="m 9,0 v 3 h 1 L 11,2.713 V 12.2 L 10,13 H 9 v 3 h 7 V 13 H 15 L 14,12.274 V 2.678 L 15.143,3 H 16 V 0 Z"
       id="path34" />
    <path
       style="fill:none;stroke:#ffffff;stroke-width:1.26699996"
       inkscape:connector-curvature="0"
       d="m 16,-4.944 1.94,-0.027 c 0,0 1,0 1,1 v 15.388 c 0,0 -0.087,1.544 -1.088,1.544 H 16 m 5.833,-17.95 -1.91,0.017 c 0,0 -1,0 -1,1 V 11.96 c 0,0 0.09,1.01 1.09,1 l 1.82,-0.016"
       transform="matrix(0.85714,0,0,0.72727,-3.714,5.09)"
       id="path36-3" />
  </g>
</svg>
