<svg xmlns="http://www.w3.org/2000/svg" xmlns:xlink="http://www.w3.org/1999/xlink" height="16" width="16"><defs><linearGradient gradientTransform="matrix(.2538 0 0 .30502 19.13 -.685)" gradientUnits="userSpaceOnUse" xlink:href="#a" id="f" y2="2.906" x2="-51.786" y1="50.786" x1="-51.786"/><linearGradient id="a"><stop offset="0" stop-opacity=".34"/><stop offset="1" stop-opacity=".247"/></linearGradient><linearGradient gradientTransform="matrix(.24324 0 0 .35135 2.162 -.432)" gradientUnits="userSpaceOnUse" xlink:href="#b" id="e" y2="41.077" x2="24" y1="6.923" x1="24"/><linearGradient id="b"><stop offset="0" stop-color="#fff"/><stop offset="0" stop-color="#fff" stop-opacity=".235"/><stop offset="1" stop-color="#fff" stop-opacity=".157"/><stop offset="1" stop-color="#fff" stop-opacity=".392"/></linearGradient><linearGradient id="c"><stop offset="0" stop-color="#f4f4f4"/><stop offset="1" stop-color="#dbdbdb"/></linearGradient><linearGradient gradientTransform="matrix(.2857 0 0 .3042 1.143 .233)" gradientUnits="userSpaceOnUse" xlink:href="#c" id="d" y2="47.013" x2="25.132" y1=".985" x1="25.132"/><linearGradient id="g" gradientTransform="matrix(.4922 0 0 .4584 4.51 -4.794)" gradientUnits="userSpaceOnUse" x1="23.732" x2="23.732" y1="5.394" y2="39.735"><stop offset="0" stop-color="#90dbec"/><stop offset=".262" stop-color="#55c1ec"/><stop offset=".705" stop-color="#3689e6"/><stop offset="1" stop-color="#2b63a0"/></linearGradient><linearGradient id="h" gradientTransform="matrix(0 -.5372 .57682 0 -15.997 19.866)" gradientUnits="userSpaceOnUse" x1="40.958" x2="18.681" y1="46.971" y2="46.971"><stop offset="0" stop-color="#fff"/><stop offset=".45" stop-color="#fff" stop-opacity=".235"/><stop offset=".65" stop-color="#fff" stop-opacity=".157"/><stop offset="1" stop-color="#fff" stop-opacity=".392"/></linearGradient></defs><path d="M1 1h12v14H1z" fill="url(#d)"/><path d="M12.5 14.5h-11v-13h11z" fill="none" stroke="url(#e)" stroke-linecap="round"/><path d="M.5.5h13v15H.5z" fill="none" stroke="url(#f)" stroke-linejoin="round"/><g><path display="block" d="M16.71 9.864l7.037-6.155-7.055-5.863v3.647L10.5 1.5l.02 4.65 6.19-.007z" fill="url(#g)" transform="translate(-.29 5.536) scale(.64678)"/><path d="M10.518 11.916l4.55-3.98-4.562-3.793v2.36L6.5 6.505l.013 3.007 4.005-.004z" display="block" fill="#46a9eb" fill-opacity=".984" stroke="#004372" stroke-width=".99992188" stroke-linejoin="round" stroke-miterlimit="7" stroke-opacity=".49"/><path d="M17.69-.08v2.574L11.5 2.5l.018 2.648 6.193-.005v2.61l4.472-4.044z" display="block" fill="none" stroke="url(#h)" stroke-width="1.546" stroke-miterlimit="7" transform="translate(-.29 5.536) scale(.64678)"/></g></svg>