<?xml version="1.0" encoding="UTF-8" standalone="no"?>
<svg
   xmlns:dc="http://purl.org/dc/elements/1.1/"
   xmlns:cc="http://creativecommons.org/ns#"
   xmlns:rdf="http://www.w3.org/1999/02/22-rdf-syntax-ns#"
   xmlns:svg="http://www.w3.org/2000/svg"
   xmlns="http://www.w3.org/2000/svg"
   xmlns:xlink="http://www.w3.org/1999/xlink"
   xmlns:sodipodi="http://sodipodi.sourceforge.net/DTD/sodipodi-0.dtd"
   xmlns:inkscape="http://www.inkscape.org/namespaces/inkscape"
   height="16"
   width="16"
   version="1.1"
   id="svg61"
   sodipodi:docname="sc_formatallnotes.svg"
   inkscape:version="0.92.4 (unknown)"
   inkscape:export-filename="/home/rizmut/Dokumen/Rizmut/Github/libreoffice-style-elementary/images_elementary/cmd/sc_formatallnotes.png"
   inkscape:export-xdpi="96"
   inkscape:export-ydpi="96">
  <metadata
     id="metadata67">
    <rdf:RDF>
      <cc:Work
         rdf:about="">
        <dc:format>image/svg+xml</dc:format>
        <dc:type
           rdf:resource="http://purl.org/dc/dcmitype/StillImage" />
        <dc:title></dc:title>
      </cc:Work>
    </rdf:RDF>
  </metadata>
  <defs
     id="defs65" />
  <sodipodi:namedview
     pagecolor="#ffffff"
     bordercolor="#666666"
     borderopacity="1"
     objecttolerance="10"
     gridtolerance="10"
     guidetolerance="10"
     inkscape:pageopacity="0"
     inkscape:pageshadow="2"
     inkscape:window-width="1366"
     inkscape:window-height="706"
     id="namedview63"
     showgrid="false"
     inkscape:zoom="14.75"
     inkscape:cx="-0.54237288"
     inkscape:cy="8"
     inkscape:window-x="0"
     inkscape:window-y="0"
     inkscape:window-maximized="1"
     inkscape:current-layer="svg61" />
  <radialGradient
     id="a"
     cx="4.649902"
     cy="4.100567"
     gradientTransform="matrix(1.5302436 .01769006 -.01317205 1.1394219 -2.608987 -.493959)"
     gradientUnits="userSpaceOnUse"
     r="7.999919">
    <stop
       offset="0"
       stop-color="#fff3cb"
       id="stop2" />
    <stop
       offset=".262"
       stop-color="#fdde76"
       id="stop4" />
    <stop
       offset=".661"
       stop-color="#f9c440"
       id="stop6" />
    <stop
       offset="1"
       stop-color="#e48b20"
       id="stop8" />
  </radialGradient>
  <linearGradient
     id="b"
     gradientTransform="matrix(.19694688 -.20520309 .19694688 .20520309 2.33061 11.959949)"
     gradientUnits="userSpaceOnUse"
     x1="36.010902"
     x2="16.331276"
     xlink:href="#c"
     y1="13.022708"
     y2="32.702335" />
  <linearGradient
     id="c">
    <stop
       offset="0"
       stop-color="#fff"
       id="stop12" />
    <stop
       offset="1"
       stop-color="#fff"
       stop-opacity="0"
       id="stop14" />
  </linearGradient>
  <linearGradient
     id="d"
     gradientTransform="matrix(.19694688 -.20520309 .19694688 .20520309 2.13207 12.063489)"
     gradientUnits="userSpaceOnUse"
     x1="28.449389"
     x2="16.331276"
     xlink:href="#c"
     y1="20.584223"
     y2="32.702335" />
  <linearGradient
     id="e"
     gradientTransform="matrix(.3705263 0 0 .38647344 7.53368 7.335749)"
     gradientUnits="userSpaceOnUse"
     x1="11.192374"
     x2="11.192374"
     y1="4.064163"
     y2="30.298229">
    <stop
       offset="0"
       stop-color="#f8b17e"
       id="stop18" />
    <stop
       offset=".31209752"
       stop-color="#e35d4f"
       id="stop20" />
    <stop
       offset=".57054454"
       stop-color="#c6262e"
       id="stop22" />
    <stop
       offset="1"
       stop-color="#690b54"
       id="stop24" />
  </linearGradient>
  <linearGradient
     id="f"
     gradientTransform="matrix(.64000001 0 0 .69565218 -14.27409 .033675)"
     gradientUnits="userSpaceOnUse"
     x1="41.225124"
     x2="41.225124"
     y1="23.238064"
     y2="7.916672">
    <stop
       offset="0"
       stop-color="#791235"
       id="stop27" />
    <stop
       offset="1"
       stop-color="#dd3b27"
       id="stop29" />
  </linearGradient>
  <linearGradient
     id="g"
     gradientTransform="matrix(.3475373 -.03246831 .03417792 .3883404 -1.065449 -.746162)"
     gradientUnits="userSpaceOnUse"
     x1="27.906723"
     x2="24.774496"
     y1="7.549542"
     y2="39.399513">
    <stop
       offset="0"
       stop-color="#fff"
       id="stop32" />
    <stop
       offset=".51153916"
       stop-color="#fff"
       stop-opacity=".235294"
       id="stop34" />
    <stop
       offset=".58522105"
       stop-color="#fff"
       stop-opacity=".156863"
       id="stop36" />
    <stop
       offset="1"
       stop-color="#fff"
       stop-opacity=".392157"
       id="stop38" />
  </linearGradient>
  <g
     stroke-width="1.185616"
     transform="matrix(.84344321 0 0 .84344321 2.424707 -.341214)"
     id="g45">
    <path
       d="m6.937336 1.0952089c-3.8401374.5799725-6.6816061 3.2903792-6.4234274 6.2250312.1671815 1.9003082 1.5909791 3.4644229 3.6270658 4.2896709l-.849891 3.392464 3.7598546-2.78557.025993-.0024c.463993.02272.930139.03025 1.413866-.01496 4.127797-.385783 7.266159-3.1994977 6.995281-6.2784759-.270876-3.079007-3.849091-5.2649902-7.976888-4.8792058-.193491.0180833-.382994.0249218-.571854.0534456z"
       fill="url(#a)"
       fill-rule="evenodd"
       stroke="#956500"
       stroke-linejoin="round"
       stroke-opacity=".628676"
       id="path41" />
    <path
       d="m8.8378906 2.1152344c-.4108765-.0185747-.8122889-.009724-1.2304687.03125-.1485653.0145567-.3010742.0367061-.4609375.0605468-1.5454544.2304861-3.0032319.8562923-4.0175782 1.7460938-1.0154732.8907901-1.5841543 2.0017098-1.4824218 3.3164062.1332121 1.7215218 1.7472979 2.9772658 3.4941406 3.5605468a.14665465.14665465 0 0 1 .025391.01172c.056878.03252.1019184.08141.1367188.136719.054218.0667.090271.148225.09375.234375.00274.02895.0036.05706 0 .08594a.14665465.14665465 0 0 1 -.00586.02539l-.3085938 1.015625 1.5195313-1.115235a.14665465.14665465 0 0 1 .013672-.0078c.07485-.04274.1605833-.06144.2460937-.05078.3831819.01677 1.1243937.03217 1.46875 0 1.4494449-.135428 3.120688-.786181 4.330078-1.7187664 1.210316-.9333002 1.942557-2.1009943 1.78711-3.3671875-.162351-1.3224195-1.014365-2.3755291-2.269532-3.0761719-.940262-.5248609-2.108456-.8330037-3.3398434-.8886718z"
       fill="none"
       stroke="url(#g)"
       id="path43" />
  </g>
  <g
     stroke-width="1.185616"
     transform="matrix(.84344321 0 0 .84344321 .080197 2.846422)"
     id="g51">
    <path
       d="m6.937336 1.0952089c-3.8401374.5799725-6.6816061 3.2903792-6.4234274 6.2250312.1671815 1.9003082 1.5909791 3.4644229 3.6270658 4.2896709l-.849891 3.392464 3.7598546-2.78557.025993-.0024c.463993.02272.930139.03025 1.413866-.01496 4.127797-.385783 7.266159-3.1994977 6.995281-6.2784759-.270876-3.079007-3.849091-5.2649902-7.976888-4.8792058-.193491.0180833-.382994.0249218-.571854.0534456z"
       fill="url(#a)"
       fill-rule="evenodd"
       stroke="#956500"
       stroke-linejoin="round"
       stroke-opacity=".628676"
       id="path47" />
    <path
       d="m8.8378906 2.1152344c-.4108765-.0185747-.8122889-.009724-1.2304687.03125-.1485653.0145567-.3010742.0367061-.4609375.0605468-1.5454544.2304861-3.0032319.8562923-4.0175782 1.7460938-1.0154732.8907901-1.5841543 2.0017098-1.4824218 3.3164062.1332121 1.7215218 1.7472979 2.9772658 3.4941406 3.5605468a.14665465.14665465 0 0 1 .025391.01172c.056878.03252.1019184.08141.1367188.136719.054218.0667.090271.148225.09375.234375.00274.02895.0036.05706 0 .08594a.14665465.14665465 0 0 1 -.00586.02539l-.3085938 1.015625 1.5195313-1.115235a.14665465.14665465 0 0 1 .013672-.0078c.07485-.04274.1605833-.06144.2460937-.05078.3831819.01677 1.1243937.03217 1.46875 0 1.4494449-.135428 3.120688-.786181 4.330078-1.7187664 1.210316-.9333002 1.942557-2.1009943 1.78711-3.3671875-.162351-1.3224195-1.014365-2.3755291-2.269532-3.0761719-.940262-.5248609-2.108456-.8330037-3.3398434-.8886718z"
       fill="none"
       stroke="url(#g)"
       id="path49" />
  </g>
</svg>
