<svg xmlns="http://www.w3.org/2000/svg" xmlns:xlink="http://www.w3.org/1999/xlink" height="16" width="16"><defs><linearGradient id="a"><stop offset="0" stop-color="#e3e3e4"/><stop offset=".5" stop-color="#fcfcfc"/><stop offset="1" stop-color="#e3e3e4"/></linearGradient><linearGradient id="b"><stop offset="0" stop-opacity=".34"/><stop offset="1" stop-opacity=".247"/></linearGradient><linearGradient xlink:href="#a" id="c" x1="2.903" y1="8.504" x2="12.828" y2="8.504" gradientUnits="userSpaceOnUse"/><linearGradient xlink:href="#b" id="d" x1=".918" y1="5.675" x2="14.813" y2="3.789" gradientUnits="userSpaceOnUse"/></defs><g stroke-width=".967"><path d="M.44 1.44l14.88.006-.004 2.626-6.145 5.31v6.18H6.55V9.38L.44 4.072z" fill="url(#c)" fill-rule="evenodd" stroke="url(#d)" stroke-linejoin="round" transform="matrix(1.0076 0 0 1.06043 .075 -1.018)"/><path d="M1.312 2.32l13.006.05v1.32l-6.02 5.25v5.736h-.874V8.94L1.312 3.645z" fill="none" stroke="#fdfdfb" transform="matrix(1.0076 0 0 1.06043 .075 -1.018)"/></g><path d="M11.952 7.415l-.005 1.044c-8.547 2.043.525 12.135 3.678 4.11l-1.706.046c-2.22 3.134-5.787-1.384-1.973-2.613l.005 1.108 2.254-1.775-2.254-1.92z" fill="#46a8ea" fill-opacity=".984" stroke="#2f78c8" stroke-width=".75" stroke-linejoin="round"/></svg>