<svg xmlns="http://www.w3.org/2000/svg" xmlns:xlink="http://www.w3.org/1999/xlink" height="16" width="16"><defs><linearGradient id="a" gradientTransform="matrix(0 .9738 -1.34684 0 22.08 -7.808)" gradientUnits="userSpaceOnUse" x1="8.532" x2="12.639" y1="10.083" y2="10.083"><stop offset="0" stop-color="#90dbec"/><stop offset=".262" stop-color="#55c1ec"/><stop offset=".705" stop-color="#3689e6"/><stop offset="1" stop-color="#2b63a0"/></linearGradient><linearGradient xlink:href="#a" id="g" x1="8.134" y1="1.443" x2="8.134" y2="5.866" gradientUnits="userSpaceOnUse" gradientTransform="translate(-.134 .134)"/><linearGradient id="c"><stop offset="0" stop-color="#fff"/><stop offset=".063" stop-color="#fff" stop-opacity=".235"/><stop offset=".951" stop-color="#fff" stop-opacity=".157"/><stop offset="1" stop-color="#fff" stop-opacity=".392"/></linearGradient><linearGradient id="b" gradientTransform="matrix(.44577 0 0 .44994 -22.198 -3.024)" gradientUnits="userSpaceOnUse" x1="25.132" x2="25.132" y1="15.5" y2="48.396"><stop offset="0" stop-color="#fafafa"/><stop offset="1" stop-color="#e2e1de"/></linearGradient><linearGradient xlink:href="#b" id="h" x1="8.134" y1="11.866" x2="8.134" y2="1.866" gradientUnits="userSpaceOnUse" gradientTransform="matrix(1 0 0 -1 0 15.732)"/><linearGradient xlink:href="#c" id="i" x1="8" y1="3" x2="8" y2="14" gradientUnits="userSpaceOnUse"/><linearGradient xlink:href="#d" id="j" gradientUnits="userSpaceOnUse" gradientTransform="matrix(.5 0 0 .5 -.8 7.8)" x1="25" y1="-11.932" x2="25" y2="8.452"/><linearGradient x1="63.999" y1="3.1" x2="63.999" y2="122.899" id="d" gradientUnits="userSpaceOnUse"><stop offset="0" stop-color="#f6f6f6"/><stop offset="1" stop-color="#e6e6e6"/></linearGradient><linearGradient xlink:href="#e" id="k" gradientUnits="userSpaceOnUse" gradientTransform="matrix(.5 0 0 .5 -.8 7.8)" x1="21" y1="-10.034" x2="21" y2="16.005"/><linearGradient id="e"><stop offset="0" stop-color="#888"/><stop offset="1" stop-color="#626262"/></linearGradient><linearGradient xlink:href="#f" id="l" gradientUnits="userSpaceOnUse" gradientTransform="matrix(0 0 0 0 8.7 8.7)" x1="86.133" y1="105.105" x2="84.639" y2="20.895"/><linearGradient id="f"><stop offset="0" stop-color="#efefef"/><stop offset="1" stop-color="#c9c9c9"/></linearGradient></defs><path d="M1.5 1.5v13h13v-13h-13z" stroke="#2a70a7" stroke-opacity=".338" fill="url(#g)"/><path d="M2.134 13.866h12v-12h-12z" fill="url(#h)" transform="translate(-.1 .1)"/><path d="M3.146 2.5c-.358 0-.646.223-.646.5v10c0 .277.288.5.646.5h9.708c.358 0 .646-.223.646-.5V3c0-.277-.288-.5-.646-.5H3.146z" opacity=".8" fill="none" stroke="url(#i)" stroke-opacity=".849"/><path d="M11.22 8c-.125 0-.22.095-.22.22v.624c-.277.07-.526.186-.766.328L9.78 8.72c-.087-.09-.223-.09-.31 0l-.75.75c-.09.087-.09.223 0 .31l.452.454c-.142.24-.257.49-.328.766H8.22c-.125 0-.22.095-.22.22v1.06c0 .125.095.22.22.22h.624c.07.277.186.526.328.766l-.453.453c-.09.087-.09.223 0 .31l.75.75c.087.09.223.09.31 0l.454-.452c.24.142.49.257.766.328v.625c0 .125.095.22.22.22h1.06c.125 0 .22-.095.22-.22v-.624c.277-.07.526-.186.766-.328l.453.453c.087.09.223.09.31 0l.75-.75c.09-.087.09-.223 0-.31l-.452-.454c.142-.24.257-.49.328-.766h.625c.125 0 .22-.095.22-.22v-1.06c0-.125-.095-.22-.22-.22h-.624c-.07-.277-.186-.526-.328-.766l.453-.453c.09-.087.09-.223 0-.31l-.75-.75c-.087-.09-.223-.09-.31 0l-.454.452c-.24-.142-.49-.257-.766-.328V8.22c0-.125-.095-.22-.22-.22zm.53 2.75c.552 0 1 .448 1 1s-.448 1-1 1-1-.448-1-1 .448-1 1-1z" display="block" overflow="visible" fill="url(#j)" stroke="url(#k)" stroke-width=".527" stroke-linejoin="round" transform="matrix(1.1 -.4 .4 1.1 -6 4.3)"/><path d="M10.718 10.03c-1.375.5-2.087 2.027-1.587 3.402.5 1.375 2.027 2.087 3.402 1.587 1.375-.5 2.087-2.027 1.587-3.402-.5-1.375-2.027-2.087-3.402-1.587zm.42 1.152c.74-.27 1.56.113 1.83.855.27.74-.113 1.56-.855 1.83-.74.27-1.56-.112-1.83-.854-.27-.74.112-1.56.854-1.83z" opacity=".05"/><path d="M11.75 9.75c-1.103 0-2 .897-2 2s.897 2 2 2 2-.897 2-2-.897-2-2-2z" fill="none" stroke="url(#l)" stroke-width=".879" transform="matrix(1.1 -.4 .4 1.1 -6 4.3)"/></svg>