<svg xmlns="http://www.w3.org/2000/svg" xmlns:xlink="http://www.w3.org/1999/xlink" height="16" width="16"><defs><linearGradient id="c" y2="-39.125" gradientUnits="userSpaceOnUse" y1="-13.625" gradientTransform="matrix(.36667 0 0 -.40625 1.017 -.953)" x2="26" x1="25.5"><stop stop-color="#e2b369" offset="0"/><stop stop-color="#c79b55" offset="1"/></linearGradient><linearGradient id="a" y2="-40.204" gradientUnits="userSpaceOnUse" y1="-8.841" gradientTransform="matrix(.32143 0 0 -.36667 2.125 .017)" x2="14.389" x1="14.389"><stop stop-color="#fff" offset="0"/><stop stop-color="#fff" stop-opacity=".235" offset=".063"/><stop offset=".526" stop-opacity=".388" stop-color="#fff"/><stop offset=".643" stop-opacity=".54" stop-color="#fff"/><stop stop-color="#fff" stop-opacity=".345" offset=".696"/><stop stop-color="#fff" stop-opacity=".157" offset=".963"/><stop stop-color="#fff" stop-opacity=".392" offset="1"/></linearGradient><linearGradient xlink:href="#a" id="d" x1="10.512" y1="1.48" x2="10.557" y2="10.07" gradientUnits="userSpaceOnUse"/><linearGradient gradientTransform="matrix(.86533 0 0 .62434 1.465 5.09)" xlink:href="#b" id="e" x1="10.557" y1="11.323" x2="10.9" y2="16.716" gradientUnits="userSpaceOnUse"/><linearGradient id="b"><stop offset="0" stop-color="#0d0d0d"/><stop offset="1" stop-color="#727272"/></linearGradient></defs><path d="M10.514.47c-.962 0-1.742.91-1.743 2.03 0 .668.283 1.293.755 1.672v1.32H6.518c-.554 0-1 .446-1 1v3.66h9.99V6.49c0-.554-.446-1-1-1H11.52v-1.34c.46-.38.733-.996.734-1.652 0-1.12-.78-2.028-1.74-2.03z" display="block" fill="url(#c)" stroke="#8a5b0f" stroke-opacity=".784"/><path d="M10.512 1.48c-.296.002-.73.412-.73 1.02 0 .375.18.727.376.885.194.156.324.38.363.625.037-.25.164-.475.357-.635.194-.16.367-.506.367-.875 0-.608-.435-1.018-.73-1.02zm.01 4.165c-.074.492-.498.857-.997.857H6.527l.034 4.97h7.972l-.034-4.97H11.52c-.497 0-.92-.365-.997-.857z" display="block" fill="none" stroke="url(#d)" opacity=".73"/><path display="block" d="M15.49 11.473V8.53l-9.954.064.01 2.91z" fill="#e9e9e9" stroke="#8c8c8c"/><path d="M6 10c-.04-.632.208-1.034 1-1h7c.463.074.942.116 1 1H7z" fill="#fff"/><path fill="url(#e)" d="M5 12h11v4H5z"/><path d="M3.234 13.463L.377 14.468c-.545.192.74 1.032 3.973 1.032h5.324c1.975 0 3.412-.036 4.386-.398.37-.138.78-1.113.78-1.31 0-.69-2.518-.334-4.865-.337l-.92-.002-1.055.01c-1.79-.23-1.426.62-1.896-.353-.944.424-1.186-1.09-1.58-.31-.172.28-.82.668-1.29.663z" fill="#fcaf3e" fill-rule="evenodd" stroke="#ce5c00" stroke-linejoin="round"/></svg>