<svg xmlns="http://www.w3.org/2000/svg" xmlns:xlink="http://www.w3.org/1999/xlink" height="16" width="16"><defs><linearGradient id="a"><stop offset="0" stop-color="#e3e3e4"/><stop offset=".5" stop-color="#fcfcfc"/><stop offset="1" stop-color="#e3e3e4"/></linearGradient><linearGradient id="b"><stop offset="0" stop-opacity=".34"/><stop offset="1" stop-opacity=".247"/></linearGradient><linearGradient xlink:href="#a" id="h" x1="2.903" y1="8.504" x2="12.828" y2="8.504" gradientUnits="userSpaceOnUse"/><linearGradient xlink:href="#b" id="i" x1=".918" y1="5.675" x2="14.813" y2="3.789" gradientUnits="userSpaceOnUse"/><radialGradient r="20" fy="8.45" fx="5.78" cy="8.45" cx="5.78" gradientTransform="matrix(0 .89893 -.95096 0 16.035 1.985)" gradientUnits="userSpaceOnUse" id="j" xlink:href="#c"/><linearGradient id="c"><stop offset="0" stop-color="#90dbec"/><stop offset=".262" stop-color="#55c1ec"/><stop offset=".705" stop-color="#3689e6"/><stop offset="1" stop-color="#2b63a0"/></linearGradient><linearGradient y2="3.899" x2="24" y1="44" x1="24" gradientTransform="translate(-1.232 6.768) scale(.38465)" gradientUnits="userSpaceOnUse" id="k" xlink:href="#d"/><linearGradient id="d"><stop offset="0" stop-color="#185f9a"/><stop offset="1" stop-color="#599ec9"/></linearGradient><linearGradient xlink:href="#e" id="l" gradientUnits="userSpaceOnUse" gradientTransform="translate(-17.204 7.09) scale(.35135)" x1="71.204" y1="6.238" x2="71.204" y2="44.341"/><linearGradient id="e"><stop offset="0" stop-color="#fff"/><stop offset=".508" stop-color="#fff" stop-opacity=".235"/><stop offset=".835" stop-color="#fff" stop-opacity=".157"/><stop offset="1" stop-color="#fff" stop-opacity=".392"/></linearGradient><linearGradient xlink:href="#f" id="m" gradientUnits="userSpaceOnUse" gradientTransform="translate(-.67 7.22) scale(.36122)" x1="27.925" y1="15.149" x2="33.448" y2="22.986"/><linearGradient id="f"><stop offset="0" stop-color="#f8b17e"/><stop offset=".232" stop-color="#e35d4f"/><stop offset=".591" stop-color="#c6262e"/><stop offset="1" stop-color="#690b54"/></linearGradient><linearGradient xlink:href="#g" id="n" gradientUnits="userSpaceOnUse" gradientTransform="translate(-.67 7.22) scale(.36122)" x1="21.014" y1="25.434" x2="22.806" y2="27.344"/><linearGradient id="g"><stop offset="0" stop-color="#fff"/><stop offset="1" stop-color="#c1c1c1"/></linearGradient><linearGradient xlink:href="#g" id="o" gradientUnits="userSpaceOnUse" gradientTransform="matrix(.5 0 0 .5 -4 4)" x1="24" y1="22" x2="24" y2="26"/></defs><g stroke-width=".967"><path d="M.44 1.44l14.88.006-.004 2.626-6.145 5.31v6.18H6.55V9.38L.44 4.072z" fill="url(#h)" fill-rule="evenodd" stroke="url(#i)" stroke-linejoin="round" transform="matrix(1 0 0 1.1 .1 -1)"/><path d="M1.312 2.32l13.006.05v1.32l-6.02 5.25v5.736h-.874V8.94L1.312 3.645z" fill="none" stroke="#fdfdfb" transform="matrix(1 0 0 1.1 .1 -1)"/></g><path overflow="visible" d="M8 8.5C3.862 8.5.5 11.862.5 16s3.362 7.5 7.5 7.5 7.5-3.362 7.5-7.5S12.138 8.5 8 8.5z" color="#000" fill="url(#j)" stroke="url(#k)" stroke-width="1.429" stroke-linecap="round" stroke-linejoin="round" transform="matrix(.7 0 0 .7 4.7 -.9)"/><path overflow="visible" d="M14.5 16c0 3.59-2.91 6.5-6.5 6.5S1.5 19.59 1.5 16 4.41 9.5 8 9.5s6.5 2.91 6.5 6.5z" color="#000" opacity=".5" fill="none" stroke="url(#l)" stroke-width="1.429" stroke-linecap="round" stroke-linejoin="round" transform="matrix(.7 0 0 .7 4.7 -.9)"/><path overflow="visible" d="M13.494 6.95a.412.412 0 0 0-.234.09L9.684 9.9a.412.412 0 0 0-.064.065L6.76 13.54a.412.412 0 0 0 .58.58l3.576-2.86a.412.412 0 0 0 .065-.065l2.86-3.575a.412.412 0 0 0-.344-.668z" color="#000" opacity=".05"/><path overflow="visible" d="M13.52 7.36l-3.574 2.863-2.86 3.57 4.07-2.475z" color="#000" opacity=".15"/><path d="M7 15l2 2 3.598-5.708z" fill="url(#m)" transform="matrix(.7 0 0 .7 4.7 -.9)"/><path overflow="visible" d="M7 15l2 2-5.597 3.487z" color="#000" fill="url(#n)" transform="matrix(.7 0 0 .7 4.7 -.9)"/><path overflow="visible" d="M11.175 10.475a.875.875 0 0 1-1.75 0 .875.875 0 1 1 1.75 0z" color="#000" opacity=".2"/><path overflow="visible" d="M10.128 10.408a.252.252 0 0 1 .172-.438v.252z" color="#000" opacity=".05" fill="#fff"/><path overflow="visible" d="M11 10.475a.7.7 0 0 1-1.4 0 .7.7 0 1 1 1.4 0z" color="#000" opacity=".2"/><path overflow="visible" d="M9 16a1 1 0 0 1-2 0 1 1 0 1 1 2 0z" color="#000" fill="url(#o)" transform="matrix(.7 0 0 .7 4.7 -.9)"/></svg>