<svg xmlns="http://www.w3.org/2000/svg" xmlns:xlink="http://www.w3.org/1999/xlink" viewBox="0 0 16 16"><defs><linearGradient id="b"><stop offset="0" stop-color="#e9e9e9"/><stop offset="1" stop-color="#f6f6f6"/></linearGradient><linearGradient id="a"><stop offset="0" stop-color="#fff"/><stop offset=".063" stop-color="#fff" stop-opacity=".235"/><stop offset=".951" stop-color="#fff" stop-opacity=".157"/><stop offset="1" stop-color="#fff" stop-opacity=".392"/></linearGradient><linearGradient xlink:href="#a" id="d" x1="9.39" y1="2.87" x2="9.409" y2="13.921" gradientUnits="userSpaceOnUse"/><linearGradient xlink:href="#b" id="c" x1="8" y1="14" x2="8" y2="6" gradientUnits="userSpaceOnUse"/></defs><linearGradient id="e" gradientTransform="matrix(.61505 0 0 .61505 27.556 -3.084)" gradientUnits="userSpaceOnUse" x1="-31" x2="-36" y1="12" y2="6"><stop offset="0" stop-color="#1f1f1f"/><stop offset="1" stop-color="#5c5c5c"/></linearGradient>/&gt;<path d="M1 1h14l-.504 13.5H1.5z" fill="url(#c)"/><path d="M1.5 1.02c-.276.002-.5.225-.5.5V14.5c0 .276.224.5.5.5h12.996c.276 0 .5-.224.5-.5V1.52c0-.275-.224-.498-.5-.5H12v1h1.996V14H2V2.02h1v-1z" fill="#acacac" fill-opacity=".838"/><path d="M2.502 2.02a.5.5 0 0 0-.502.5V13.5a.5.5 0 0 0 .498.5l11.022.023a.5.5 0 0 0 .5-.5V2.545a.5.5 0 0 0-.5-.5L12 2.04v1l1.02.003v9.978L3 13.003v-9.98l1 .003v-1z" fill="url(#d)"/><path d="M7.996 3.644L9.692.298h1.856L8.852 5.262v3.163H7.14V5.317L4.444.297h1.868z" transform="scale(.9692 1.0318)" stroke="#000" stroke-width=".615" stroke-linecap="round" stroke-linejoin="round" fill="url(#e)" opacity=".66"/></svg>