<svg xmlns="http://www.w3.org/2000/svg" xmlns:xlink="http://www.w3.org/1999/xlink" viewBox="0 0 16 16"><defs><radialGradient xlink:href="#a" id="t" gradientUnits="userSpaceOnUse" cx="29.095" cy="31.602" fx="29.095" fy="31.602" r="7.245" gradientTransform="matrix(.22283 .12733 -.12865 .22054 18.047 -20.447)"/><linearGradient id="a"><stop offset="0" stop-color="#ffe375"/><stop offset="1" stop-color="#ffa600"/></linearGradient><radialGradient xlink:href="#b" id="s" gradientUnits="userSpaceOnUse" cx="32" cy="32" fx="32" fy="32" r="8" gradientTransform="matrix(.2573 0 0 .25466 12.218 -17.936)"/><linearGradient id="b"><stop offset="0" stop-color="#ffb800"/><stop offset="1" stop-color="#ffb800" stop-opacity="0"/></linearGradient><radialGradient xlink:href="#b" id="q" gradientUnits="userSpaceOnUse" cx="32" cy="32" fx="32" fy="32" r="8"/><radialGradient xlink:href="#a" id="r" gradientUnits="userSpaceOnUse" cx="29.095" cy="31.602" fx="29.095" fy="31.602" r="7.245"/><radialGradient xlink:href="#b" id="o" gradientUnits="userSpaceOnUse" cx="32" cy="32" fx="32" fy="32" r="8"/><radialGradient xlink:href="#a" id="p" gradientUnits="userSpaceOnUse" cx="29.095" cy="31.602" fx="29.095" fy="31.602" r="7.245"/><radialGradient xlink:href="#b" id="m" gradientUnits="userSpaceOnUse" cx="32" cy="32" fx="32" fy="32" r="8"/><radialGradient r="7.245" fy="31.602" fx="29.095" cy="31.602" cx="29.095" gradientUnits="userSpaceOnUse" id="n" xlink:href="#a"/><radialGradient id="c" gradientUnits="userSpaceOnUse" cy="8.45" cx="7.496" gradientTransform="matrix(0 2.62458 -3.64706 0 -11.543 -35.987)" r="20"><stop stop-color="#90dbec" offset="0"/><stop stop-color="#55c1ec" offset=".262"/><stop stop-color="#3689e6" offset=".705"/><stop stop-color="#2b63a0" offset="1"/></radialGradient><radialGradient xlink:href="#c" id="l" cx="12.506" cy="-2.917" fx="12.506" fy="-2.917" r="10.004" gradientTransform="matrix(.06166 .80687 -1.2638 .08187 3.752 -4.868)" gradientUnits="userSpaceOnUse"/><radialGradient r="7.228" fy="73.616" fx="6.703" cy="73.616" cx="6.703" gradientTransform="matrix(1.6603 0 0 .35946 .873 -12.89)" gradientUnits="userSpaceOnUse" id="u" xlink:href="#d"/><linearGradient id="d"><stop offset="0"/><stop offset="1" stop-opacity="0"/></linearGradient><linearGradient xlink:href="#e" id="v" gradientUnits="userSpaceOnUse" gradientTransform="matrix(.26726 0 0 1.15755 9.316 -10.704)" x1="-32.957" y1="27.389" x2="-25.474" y2="27.389"/><linearGradient id="e"><stop offset="0" stop-color="#2e3436"/><stop offset=".644" stop-color="#888a85"/><stop offset="1" stop-color="#555753"/></linearGradient><linearGradient xlink:href="#f" id="w" gradientUnits="userSpaceOnUse" gradientTransform="matrix(.77602 .23906 -.31605 .56748 -20.168 4.55)" x1="27.528" y1="4.167" x2="30.42" y2="2.949"/><linearGradient id="f"><stop offset="0" stop-color="#eeeeec"/><stop offset=".789" stop-color="#fff"/><stop offset="1" stop-color="#eeeeec"/></linearGradient></defs><linearGradient id="h" gradientTransform="matrix(.6559 0 0 .39678 -3.742 -6.13)" gradientUnits="userSpaceOnUse" x1="25.132" x2="25.132" y1=".985" y2="47.013"><stop offset="0" stop-color="#f4f4f4"/><stop offset="1" stop-color="#dbdbdb"/></linearGradient><linearGradient id="i" gradientTransform="matrix(.60635 0 0 .47944 -2.552 -7.506)" gradientUnits="userSpaceOnUse" x1="24" x2="24" y1="5.564" y2="43"><stop offset="0" stop-color="#fff"/><stop offset=".036" stop-color="#fff" stop-opacity=".235"/><stop offset=".951" stop-color="#fff" stop-opacity=".157"/><stop offset="1" stop-color="#fff" stop-opacity=".392"/></linearGradient><linearGradient id="j" gradientTransform="matrix(-.14017 .0002 .00052 -.1023 17.51 13.337)" gradientUnits="userSpaceOnUse" x1="45.414" x2="45.567" xlink:href="#g" y1="15.27" y2="96.253"/><linearGradient id="g"><stop offset="0" stop-color="#262626"/><stop offset="1" stop-color="#4d4d4d"/></linearGradient><linearGradient id="k" gradientTransform="matrix(.34642 0 0 .24577 23.19 .527)" gradientUnits="userSpaceOnUse" x1="-41.19" x2="-21.654" xlink:href="#e" y1="76.191" y2="-4.017"/><path d="M.522-5.13h22.956v18.26H.522V-5.13z" fill="url(#h)" transform="matrix(.6666 0 0 .67352 0 4.806)"/><path d="M23.217 12.87H.783V-4.87h22.434z" fill="none" stroke="url(#i)" stroke-linecap="round" stroke-linejoin="round" stroke-width=".522" transform="matrix(.6666 0 0 .67352 0 4.806)"/><path d="M13.61 11.522H2.454V3.478H13.61z" fill="url(#j)" stroke="#185f9a" stroke-linecap="round"/><path d="M.49 1.483h15.017v12.085H.49z" opacity=".781" fill="none" stroke="url(#k)" stroke-linejoin="round"/><path d="M2.9 3.868h10.106v7.23H2.9z" fill="url(#l)"/><g color="#000"><g fill="#fc0"><path transform="translate(1.304 3.243) scale(.22075)" d="M40 32a8 8 0 1 1-16 0 8 8 0 1 1 16 0z" overflow="visible" fill="url(#m)"/><path d="M8.378 8.03l-.45 1.835-1.84.45 1.84.433.452 1.86.43-1.86 1.862-.43-1.862-.453z" overflow="visible" opacity=".1"/><path d="M8.38 12.386l-.33-1.73-1.737-.338 1.73-.314.337-1.753.318 1.73 1.75.34-1.743.36z" overflow="visible" opacity=".2"/><path transform="scale(.22076) rotate(30 5.272 55.717)" d="M33.278 38.847l-4.53-5.952-6.898 2.89 5.952-4.53-2.89-6.898 4.53 5.952 6.898-2.89-5.952 4.527z" overflow="visible" fill="url(#n)"/></g><g fill="#fc0"><path transform="translate(9.65 2.067) scale(.1462)" d="M40 32a8 8 0 1 1-16 0 8 8 0 1 1 16 0z" overflow="visible" fill="url(#o)"/><path d="M14.336 5.24l-.3 1.214-1.216.298 1.217.287.3 1.23.285-1.23 1.234-.288-1.234-.3z" overflow="visible" opacity=".1"/><path d="M14.337 8.123l-.22-1.145-1.15-.224 1.147-.208.223-1.16.21 1.144 1.16.224-1.155.237z" overflow="visible" opacity=".2"/><path transform="scale(.1462) rotate(30 36.345 167.608)" d="M33.278 38.847l-4.53-5.952-6.898 2.89 5.952-4.53-2.89-6.898 4.53 5.952 6.898-2.89-5.952 4.527z" overflow="visible" fill="url(#p)"/></g><g fill="#fc0"><path transform="translate(-6.382 -4.787) scale(.35946)" d="M40 32a8 8 0 1 1-16 0 8 8 0 1 1 16 0z" overflow="visible" fill="url(#q)"/><path d="M5.136 3.01l-.734 2.986-2.992.735 2.992.705.738 3.03.7-3.03 3.032-.7-3.033-.738z" overflow="visible" opacity=".1"/><path d="M5.14 10.1L4.6 7.286l-2.827-.55 2.817-.512.55-2.855.517 2.815 2.85.55-2.84.584z" overflow="visible" opacity=".2"/><path transform="rotate(30 16.43 -.878) scale(.35946)" d="M33.278 38.847l-4.53-5.952-6.898 2.89 5.952-4.53-2.89-6.898 4.53 5.952 6.898-2.89-5.952 4.527z" overflow="visible" fill="url(#r)"/></g><path d="M22.51-9.787a2.058 2.037 0 0 1-4.117 0 2.058 2.037 0 1 1 4.117 0z" overflow="visible" fill="url(#s)" transform="matrix(.6666 0 0 .67352 -3.525 10.5)"/><path d="M10.115 2.14l-.35 1.425-1.428.35 1.428.336.352 1.448.334-1.446 1.45-.333-1.448-.353z" overflow="visible" opacity=".1" fill="#fc0"/><path d="M10.117 5.524L9.86 4.18l-1.35-.263 1.345-.244.262-1.362.247 1.346 1.36.262-1.355.28z" overflow="visible" opacity=".2" fill="#fc0"/><path d="M20.465-7.643l-.244-1.89-1.907-.24 1.91-.24.243-1.89.244 1.89 1.908.24-1.91.24z" overflow="visible" fill="url(#t)" transform="matrix(.6666 0 0 .67352 -3.525 10.5)"/></g><path overflow="visible" d="M24 13.573c0 1.435-5.37 2.598-12 2.598-6.627 0-12-1.16-12-2.595 0-1.435 5.373-2.6 12-2.6 6.63 0 12 1.166 12 2.6z" opacity=".2" fill="url(#u)" transform="matrix(.6666 0 0 .67352 0 4.806)"/><g transform="matrix(.77076 -.445 .37655 .6522 .838 -5.332)" color="#000"><path overflow="visible" d="M.5 18v12.438c0 .58.297 1.062.667 1.062h.666c.37 0 .667-.48.667-1.063V18z" fill="url(#v)" fill-rule="evenodd"/><rect overflow="visible" width="2" height="21" x=".5" y="10.5" rx=".749" ry=".929" opacity=".3" fill="none" stroke="#000" stroke-width="1.221"/><path overflow="visible" d="M1.167 10.5c-.37 0-.667.48-.667 1.063V18h2v-6.438c0-.58-.297-1.062-.667-1.062z" fill="url(#w)" fill-rule="evenodd"/></g></svg>