<svg xmlns="http://www.w3.org/2000/svg" xmlns:xlink="http://www.w3.org/1999/xlink" viewBox="0 0 16 16"><defs><linearGradient id="e" x1="25.132" xlink:href="#a" gradientUnits="userSpaceOnUse" y1=".985" gradientTransform="matrix(.2857 0 0 .3042 1.143 .233)" x2="25.132" y2="47.013"/><linearGradient id="a"><stop stop-color="#f4f4f4" offset="0"/><stop stop-color="#dbdbdb" offset="1"/></linearGradient><linearGradient id="f" x1="24" xlink:href="#b" gradientUnits="userSpaceOnUse" y1="6.923" gradientTransform="matrix(.24324 0 0 .35135 2.162 -.432)" x2="24" y2="41.077"/><linearGradient id="b"><stop stop-color="#fff" offset="0"/><stop stop-color="#fff" stop-opacity=".235" offset="0"/><stop stop-color="#fff" stop-opacity=".157" offset="1"/><stop stop-color="#fff" stop-opacity=".392" offset="1"/></linearGradient><linearGradient id="g" x1="-51.786" xlink:href="#c" gradientUnits="userSpaceOnUse" y1="50.786" gradientTransform="matrix(.2538 0 0 .30502 19.13 -.685)" x2="-51.786" y2="2.906"/><linearGradient id="c"><stop stop-opacity=".34" offset="0"/><stop stop-opacity=".247" offset="1"/></linearGradient><radialGradient id="i" gradientUnits="userSpaceOnUse" cy="48.605" cx="64.575" gradientTransform="matrix(0 .3853 -.4196 0 32.39 -16.793)" r="31"><stop stop-color="#cdf87e" offset="0"/><stop stop-color="#a2e34f" offset=".262"/><stop stop-color="#68b723" offset=".661"/><stop stop-color="#1d7e0d" offset="1"/></radialGradient><clipPath id="d"><path fill="#85026c" d="M2 11h9v5H2z"/></clipPath><clipPath id="h"><path fill="#85026c" d="M2 0h9v5H2z"/></clipPath></defs><g clip-path="url(#d)" transform="translate(5 -11)"><path d="M3 1h10v14H3V1z" fill="url(#e)"/><path d="M12.5 14.5h-9v-13h9z" stroke="url(#f)" stroke-linecap="round" fill="none"/><path stroke-linejoin="round" d="M2.5.5h11v15h-11V.5z" stroke="url(#g)" fill="none"/></g><g clip-path="url(#h)" transform="translate(5 11)"><path d="M3 1h10v14H3V1z" fill="url(#e)"/><path d="M12.5 14.5h-9v-13h9z" stroke="url(#f)" stroke-linecap="round" fill="none"/><path stroke-linejoin="round" d="M2.5.5h11v15h-11V.5z" stroke="url(#g)" fill="none"/></g><path stroke-linejoin="round" d="M9.516 6.508h2v2h-2z" stroke-opacity=".434" stroke="#0f5a00" stroke-linecap="round" fill="#9cde4a"/><g stroke-linejoin="round" stroke-linecap="round" stroke-width=".727" stroke="#5ca12a" fill="#9cde4a" color="#000"><path d="M10.5 10.5V8.493h3V10.5h2.007v3H13.5v2.007h-3V13.5H8.493v-3z" fill="url(#i)" stroke="none" transform="translate(-7.993 -4)"/><path style="isolation:auto;mix-blend-mode:normal" d="M2.507 6.5V4.493h3V6.5h2.007v3H5.507v2.007h-3V9.5H.5v-3z" stroke-width="1" stroke="#0f5a00" fill="none" opacity=".5" solid-color="#000000" stroke-opacity=".93"/><g fill="#fff" stroke="none"><path style="isolation:auto;mix-blend-mode:normal" opacity=".5" solid-color="#000000" d="M3.007 5h2v1h-2z"/><path style="isolation:auto;mix-blend-mode:normal" opacity=".2" solid-color="#000000" d="M3.007 10h2v1h-2z"/><path style="isolation:auto;mix-blend-mode:normal" opacity=".4" solid-color="#000000" d="M1.007 7h2v1h-2zM5.007 7h2v1h-2z"/></g></g><path opacity=".4" fill="#fff" d="M10 7h1v1h-1z"/><g stroke-linejoin="round" stroke="#5ca12a" stroke-linecap="round" stroke-width=".727" fill="#9cde4a"><path d="M13.516 6.508h2v2h-2z" stroke-opacity=".434" stroke="#0f5a00" stroke-width="1"/><path opacity=".4" fill="#fff" stroke="none" d="M14 7h1v1h-1z"/></g></svg>