<?xml version="1.0" encoding="UTF-8" standalone="no"?>
<svg
   xmlns:dc="http://purl.org/dc/elements/1.1/"
   xmlns:cc="http://creativecommons.org/ns#"
   xmlns:rdf="http://www.w3.org/1999/02/22-rdf-syntax-ns#"
   xmlns:svg="http://www.w3.org/2000/svg"
   xmlns="http://www.w3.org/2000/svg"
   xmlns:sodipodi="http://sodipodi.sourceforge.net/DTD/sodipodi-0.dtd"
   xmlns:inkscape="http://www.inkscape.org/namespaces/inkscape"
   viewBox="0 0 16 16"
   version="1.1"
   id="svg41"
   sodipodi:docname="sc_insertcellsdown.svg"
   inkscape:version="0.92.3 (2405546, 2018-03-11)"
   inkscape:export-filename="/home/rizmut/Documents/Rizmut/Github/libreoffice-style-elementary/images_elementary/cmd/sc_insertcellsdown.png"
   inkscape:export-xdpi="96"
   inkscape:export-ydpi="96">
  <metadata
     id="metadata47">
    <rdf:RDF>
      <cc:Work
         rdf:about="">
        <dc:format>image/svg+xml</dc:format>
        <dc:type
           rdf:resource="http://purl.org/dc/dcmitype/StillImage" />
      </cc:Work>
    </rdf:RDF>
  </metadata>
  <defs
     id="defs45">
    <linearGradient
       id="a-3"
       gradientTransform="matrix(-0.20589926,0,0,0.19175989,17.699027,-15.566382)"
       gradientUnits="userSpaceOnUse"
       x1="31.664495"
       x2="32.535461"
       y1="80.225151"
       y2="122.89526">
      <stop
         offset="0"
         stop-color="#90dbec"
         id="stop2-6" />
      <stop
         offset=".262"
         stop-color="#55c1ec"
         id="stop4-7" />
      <stop
         offset=".705"
         stop-color="#3689e6"
         id="stop6" />
      <stop
         offset="1"
         stop-color="#2b63a0"
         id="stop8" />
    </linearGradient>
    <linearGradient
       id="c-5"
       gradientTransform="matrix(-0.34745022,0,0,0.37307564,21.788931,-16.62254)"
       gradientUnits="userSpaceOnUse"
       x1="30.782"
       x2="31.082001"
       y1="47.444"
       y2="66.575996">
      <stop
         offset="0"
         stop-color="#fff"
         id="stop16-3" />
      <stop
         offset=".21"
         stop-color="#fff"
         stop-opacity=".235"
         id="stop18-5" />
      <stop
         offset=".859"
         stop-color="#fff"
         stop-opacity=".157"
         id="stop20" />
      <stop
         offset="1"
         stop-color="#fff"
         stop-opacity=".392"
         id="stop22" />
    </linearGradient>
  </defs>
  <sodipodi:namedview
     pagecolor="#ffffff"
     bordercolor="#666666"
     borderopacity="1"
     objecttolerance="10"
     gridtolerance="10"
     guidetolerance="10"
     inkscape:pageopacity="0"
     inkscape:pageshadow="2"
     inkscape:window-width="1366"
     inkscape:window-height="696"
     id="namedview43"
     showgrid="false"
     inkscape:zoom="14.75"
     inkscape:cx="-0.71186441"
     inkscape:cy="7.4576271"
     inkscape:window-x="0"
     inkscape:window-y="0"
     inkscape:window-maximized="1"
     inkscape:current-layer="svg41" />
  <linearGradient
     id="a"
     gradientTransform="matrix(.59436 0 0 .5999 -19.265 -.033)"
     gradientUnits="userSpaceOnUse"
     x1="25.132"
     x2="25.132"
     y1="15.5"
     y2="48.396">
    <stop
       offset="0"
       stop-color="#fafafa"
       id="stop2" />
    <stop
       offset="1"
       stop-color="#e2e1de"
       id="stop4" />
  </linearGradient>
  <linearGradient
     id="b"
     gradientUnits="userSpaceOnUse"
     x1="10.476"
     x2="23.695"
     y1="3.225"
     y2="3.225">
    <stop
       offset="0"
       stop-color="#cd9ef7"
       id="stop7" />
    <stop
       offset="1"
       stop-color="#a56de2"
       id="stop9" />
  </linearGradient>
  <linearGradient
     id="c"
     gradientTransform="matrix(0 -.5372 .57682 0 -15.997 19.866)"
     gradientUnits="userSpaceOnUse"
     x1="30.782"
     x2="31.082"
     y1="47.444"
     y2="66.576">
    <stop
       offset="0"
       stop-color="#fff"
       id="stop12" />
    <stop
       offset=".21"
       stop-color="#fff"
       stop-opacity=".235"
       id="stop14" />
    <stop
       offset=".859"
       stop-color="#fff"
       stop-opacity=".157"
       id="stop16" />
    <stop
       offset="1"
       stop-color="#fff"
       stop-opacity=".392"
       id="stop18" />
  </linearGradient>
  <g
     transform="translate(0 2)"
     id="g25">
    <rect
       fill="url(#a)"
       height="14"
       rx=".424"
       ry=".491"
       width="14"
       x="1"
       y="-1"
       id="rect21" />
    <path
       d="m.498-1.998c-.276 0-.5.224-.5.5l.002 14.998c0 .276.224.5.5.5h15c.276 0 .5-.224.5-.5l-.002-10.5h.002v-1h-.002v-3.498c0-.276-.224-.5-.5-.5zm.498.998h14.004v3h-4.002v-2.998h-1v2.998h-4v-2.998h-1v2.998h-4.002zm0 4h4.004v2h-4v1h4v3h-4v1h4v3h1v-3h4v3h1v-3h4v-1h-4v-3h4v3l.002 4.002h-14.004zm5.004 0h4v2h-4zm5 0h4v2h-4zm-5 3h4v3h-4z"
       fill="#030303"
       opacity=".32"
       id="path23" />
  </g>
  <path
     d="m11 15v-3h4v3z"
     fill="#9cde4a"
     id="path27" />
  <path
     d="m10 15c0 .554.446 1 1 1h4c.554 0 1-.446 1-1v-3c0-.554-.446-1-1-1h-4c-.554 0-1 .446-1 1zm1 0v-3h4v3z"
     fill="#5ca12a"
     id="path29" />
  <path
     d="m11 12v-1h4v1z"
     fill="#5ca12a"
     id="path31" />
  <g
     id="g890">
    <path
       id="path37"
       display="block"
       d="M 14.91366,4.515524 10.955367,9.0494518 7.1393645,4.5000013 h 2.3568663 l -0.00776,-3.99968752 3.0088202,0.0148759 0.0091,4.00033432 z"
       style="display:block;fill:url(#a-3);stroke-width:0.64678001"
       inkscape:connector-curvature="0" />
    <g
       id="g43"
       stroke-miterlimit="7"
       style="fill:none;stroke-miterlimit:7">
      <path
         id="path39"
         display="block"
         d="M 14.914,4.547 10.94,9.534 7.138,4.53 h 2.36 l -0.01,-4 3.01,0.016 0.01,4 z"
         inkscape:connector-curvature="0"
         style="display:block;stroke:#2f78c8;stroke-width:0.99992198;stroke-linejoin:round" />
      <path
         id="path41"
         display="block"
         d="M 13.548954,5.1623043 10.93855,8.4899874 8.4807862,5.1461348 h 1.6648118 l -0.0091,-3.9996875 1.713967,0.015523 0.0091,4.0003343 z"
         inkscape:connector-curvature="0"
         style="display:block;stroke:url(#c-5);stroke-width:0.623496" />
    </g>
  </g>
</svg>
