<svg xmlns="http://www.w3.org/2000/svg" xmlns:xlink="http://www.w3.org/1999/xlink" height="16" width="16"><defs><linearGradient id="a" gradientTransform="matrix(0 .9738 -1.34684 0 22.08 -7.808)" gradientUnits="userSpaceOnUse" x1="8.532" x2="12.639" y1="10.083" y2="10.083"><stop offset="0" stop-color="#90dbec"/><stop offset=".262" stop-color="#55c1ec"/><stop offset=".705" stop-color="#3689e6"/><stop offset="1" stop-color="#2b63a0"/></linearGradient><linearGradient xlink:href="#a" id="d" x1="8.134" y1="1.443" x2="8.134" y2="5.866" gradientUnits="userSpaceOnUse"/><linearGradient id="b"><stop offset="0" stop-color="#fff"/><stop offset=".063" stop-color="#fff" stop-opacity=".235"/><stop offset=".951" stop-color="#fff" stop-opacity=".157"/><stop offset="1" stop-color="#fff" stop-opacity=".392"/></linearGradient><linearGradient xlink:href="#b" id="e" x1="8.134" y1="2.866" x2="8.134" y2="5.866" gradientUnits="userSpaceOnUse"/><linearGradient id="c" gradientTransform="matrix(.44577 0 0 .44994 -22.198 -3.024)" gradientUnits="userSpaceOnUse" x1="25.132" x2="25.132" y1="15.5" y2="48.396"><stop offset="0" stop-color="#fafafa"/><stop offset="1" stop-color="#e2e1de"/></linearGradient><linearGradient xlink:href="#c" id="f" x1="8.134" y1="8.866" x2="8.134" y2="13.866" gradientUnits="userSpaceOnUse"/></defs><path d="M3.002 1.366c-.758 0-1.368.61-1.368 1.37v11.63H14.635V2.735c0-.758-.612-1.37-1.37-1.37H3.002z" fill="url(#d)" stroke="#2a70a7" stroke-opacity=".338" transform="translate(-.134 .134)"/><path d="M13.634 5.866v-3c0-.277-.29-.5-.647-.5H3.28c-.358 0-.646.223-.646.5v3" opacity=".8" fill="none" stroke="url(#e)" stroke-opacity=".849" transform="translate(-.134 .134)"/><path d="M2.134 6.866h12v7h-12z" fill="url(#f)" transform="translate(-.134 .134)"/><path d="M2 7.432h12" opacity=".05" fill="none" stroke="#000"/></svg>