<svg xmlns="http://www.w3.org/2000/svg" xmlns:xlink="http://www.w3.org/1999/xlink" viewBox="0 0 16 16"><defs><linearGradient id="a"><stop stop-color="#f4f4f4" offset="0"/><stop stop-color="#dbdbdb" offset="1"/></linearGradient><linearGradient id="b"><stop stop-color="#fff" offset="0"/><stop stop-color="#fff" stop-opacity=".235" offset="0"/><stop stop-color="#fff" stop-opacity=".157" offset="1"/><stop stop-color="#fff" stop-opacity=".392" offset="1"/></linearGradient><linearGradient id="c"><stop stop-opacity=".34" offset="0"/><stop stop-opacity=".247" offset="1"/></linearGradient><linearGradient id="o" y2="8.452" gradientUnits="userSpaceOnUse" x2="25" gradientTransform="matrix(.5 0 0 .5 -.8 7.8)" y1="-11.932" x1="25"><stop stop-color="#f6f6f6" offset="0"/><stop stop-color="#e6e6e6" offset="1"/></linearGradient><linearGradient id="p" y2="16.005" gradientUnits="userSpaceOnUse" x2="21" gradientTransform="matrix(.5 0 0 .5 -.8 7.8)" y1="-10.034" x1="21"><stop stop-color="#888" offset="0"/><stop stop-color="#626262" offset="1"/></linearGradient><linearGradient id="q" y2="20.895" gradientUnits="userSpaceOnUse" x2="84.639" gradientTransform="matrix(0 0 0 0 8.7 8.7)" y1="105.1" x1="86.133"><stop stop-color="#efefef" offset="0"/><stop stop-color="#c9c9c9" offset="1"/></linearGradient><clipPath id="f"><path fill="#85026c" d="M2 11h9v5H2z"/></clipPath><linearGradient id="k" x1="25.132" xlink:href="#a" gradientUnits="userSpaceOnUse" y1=".985" gradientTransform="matrix(.3 0 0 .3 1.1 .2)" x2="25.132" y2="47.013"/><linearGradient id="l" x1="24" xlink:href="#d" gradientUnits="userSpaceOnUse" y1="6.923" gradientTransform="matrix(.2 0 0 .4 2.2 -.4)" x2="24" y2="41.077"/><linearGradient id="d"><stop stop-color="#fff" offset="0"/><stop stop-color="#fff" stop-opacity=".235" offset="0"/><stop stop-color="#fff" stop-opacity=".157" offset="1"/><stop stop-color="#fff" stop-opacity=".392" offset="1"/></linearGradient><linearGradient id="m" x1="-51.786" xlink:href="#e" gradientUnits="userSpaceOnUse" y1="50.786" gradientTransform="matrix(.3 0 0 .3 19.1 -.7)" x2="-51.786" y2="2.906"/><linearGradient id="e"><stop stop-opacity=".34" offset="0"/><stop stop-opacity=".247" offset="1"/></linearGradient><clipPath id="j"><path fill="#85026c" d="M2 0h9v5H2z"/></clipPath><radialGradient id="n" gradientUnits="userSpaceOnUse" cy="48.605" cx="64.575" gradientTransform="matrix(0 .4 -.4 0 32.4 -16.8)" r="31"><stop stop-color="#cdf87e" offset="0"/><stop stop-color="#a2e34f" offset=".262"/><stop stop-color="#68b723" offset=".661"/><stop stop-color="#1d7e0d" offset="1"/></radialGradient><linearGradient xlink:href="#a" id="g" gradientUnits="userSpaceOnUse" gradientTransform="matrix(.3 0 0 .3 1.1 .2)" x1="25.132" y1=".985" x2="25.132" y2="47.013"/><linearGradient xlink:href="#d" id="h" gradientUnits="userSpaceOnUse" gradientTransform="matrix(.2 0 0 .4 2.2 -.4)" x1="24" y1="6.923" x2="24" y2="41.077"/><linearGradient xlink:href="#e" id="i" gradientUnits="userSpaceOnUse" gradientTransform="matrix(.3 0 0 .3 19.1 -.7)" x1="-51.786" y1="50.786" x2="-51.786" y2="2.906"/></defs><g transform="translate(5 -11)" clip-path="url(#f)"><path d="M3 1h10v14H3V1z" fill="url(#g)"/><path d="M12.5 14.5h-9v-13h9z" fill="none" stroke="url(#h)" stroke-linecap="round"/><path d="M2.5.5h11v15h-11V.5z" fill="none" stroke="url(#i)" stroke-linejoin="round"/></g><g transform="translate(5 11)" clip-path="url(#j)"><path d="M3 1h10v14H3V1z" fill="url(#k)"/><path d="M12.5 14.5h-9v-13h9z" fill="none" stroke="url(#l)" stroke-linecap="round"/><path d="M2.5.5h11v15h-11V.5z" fill="none" stroke="url(#m)" stroke-linejoin="round"/></g><path d="M9.516 6.508h2v2h-2z" fill="#9cde4a" stroke="#0f5a00" stroke-linecap="round" stroke-linejoin="round" stroke-opacity=".434"/><g fill="#9cde4a" stroke="#5ca12a" stroke-width=".727" stroke-linecap="round" stroke-linejoin="round" color="#000"><path d="M10.5 10.5V8.493h3V10.5h2.007v3H13.5v2.007h-3V13.5H8.493v-3z" fill="url(#n)" stroke="none" transform="translate(-8 -4)"/><path d="M2.5 6.5V4.493h3V6.5h2.007v3H5.5v2.007h-3V9.5H.493v-3z" style="isolation:auto;mix-blend-mode:normal" opacity=".5" solid-color="#000000" fill="none" stroke="#0f5a00" stroke-width="1" stroke-opacity=".93"/><g fill="#fff" stroke="none"><path style="isolation:auto;mix-blend-mode:normal" opacity=".5" solid-color="#000000" d="M3 5h2v1H3z"/><path style="isolation:auto;mix-blend-mode:normal" opacity=".2" solid-color="#000000" d="M3 10h2v1H3z"/><path style="isolation:auto;mix-blend-mode:normal" opacity=".4" solid-color="#000000" d="M1 7h2v1H1zM5 7h2v1H5z"/></g></g><path opacity=".4" fill="#fff" d="M10 7h1v1h-1z"/><g fill="#9cde4a" stroke="#5ca12a" stroke-width=".727" stroke-linecap="round" stroke-linejoin="round"><path d="M13.516 6.508h2v2h-2z" stroke="#0f5a00" stroke-width="1" stroke-opacity=".434"/><path opacity=".4" fill="#fff" stroke="none" d="M14 7h1v1h-1z"/></g><g><path transform="matrix(1.1 -.4 .4 1.1 -13 3.1)" display="block" d="M11.22 8c-.125 0-.22.095-.22.22v.624c-.277.07-.526.186-.766.328l-.452-.453c-.088-.09-.225-.09-.313 0l-.75.75c-.09.086-.09.222 0 .31l.45.453c-.14.24-.256.49-.327.766H8.22c-.125 0-.22.094-.22.22v1.06c0 .124.095.22.22.22h.624c.07.276.186.525.328.765l-.453.453c-.09.086-.09.223 0 .31l.75.75c.086.09.223.09.31 0l.454-.452c.24.14.49.256.766.327v.625c0 .124.096.22.22.22h1.062c.123 0 .218-.096.218-.22v-.625c.277-.07.526-.186.766-.328l.453.453c.086.088.223.088.31 0l.75-.75c.088-.088.088-.225 0-.313l-.453-.452c.142-.24.257-.49.328-.766h.625c.125 0 .22-.096.22-.22v-1.062c0-.123-.095-.218-.22-.218h-.624c-.072-.277-.186-.526-.33-.766l.454-.45c.088-.09.088-.226 0-.314l-.75-.75c-.087-.09-.224-.09-.312 0l-.452.452c-.24-.142-.49-.257-.766-.328v-.62c0-.125-.095-.22-.22-.22zm.53 2.75c.552 0 1 .448 1 1s-.448 1-1 1-1-.448-1-1 .448-1 1-1z" fill="url(#o)" stroke="url(#p)" stroke-width=".527" stroke-linejoin="round"/><path d="M3.752 8.848c-1.375.5-2.087 2.027-1.587 3.402.5 1.375 2.027 2.087 3.402 1.587 1.375-.5 2.087-2.027 1.587-3.402-.5-1.375-2.027-2.087-3.402-1.587zM4.172 10c.74-.27 1.56.113 1.83.855.27.74-.113 1.56-.855 1.83-.74.27-1.56-.112-1.83-.854-.27-.74.112-1.56.854-1.83z" opacity=".05"/><path transform="matrix(1.1 -.4 .4 1.1 -13 3.1)" d="M11.75 9.75c-1.103 0-2 .897-2 2s.897 2 2 2 2-.897 2-2-.897-2-2-2z" fill="none" stroke="url(#q)" stroke-width=".879"/></g></svg>