<svg xmlns="http://www.w3.org/2000/svg" xmlns:xlink="http://www.w3.org/1999/xlink" height="16" width="16"><defs><linearGradient gradientTransform="matrix(.2538 0 0 .30502 19.13 -.685)" gradientUnits="userSpaceOnUse" xlink:href="#a" id="f" y2="2.906" x2="-51.786" y1="50.786" x1="-51.786"/><linearGradient id="a"><stop offset="0" stop-opacity=".34"/><stop offset="1" stop-opacity=".247"/></linearGradient><linearGradient gradientTransform="matrix(.24324 0 0 .35135 2.162 -.432)" gradientUnits="userSpaceOnUse" xlink:href="#b" id="e" y2="41.077" x2="24" y1="6.923" x1="24"/><linearGradient id="b"><stop offset="0" stop-color="#fff"/><stop offset="0" stop-color="#fff" stop-opacity=".235"/><stop offset="1" stop-color="#fff" stop-opacity=".157"/><stop offset="1" stop-color="#fff" stop-opacity=".392"/></linearGradient><linearGradient id="c"><stop offset="0" stop-color="#f4f4f4"/><stop offset="1" stop-color="#dbdbdb"/></linearGradient><linearGradient gradientTransform="matrix(.2857 0 0 .3042 1.143 .233)" gradientUnits="userSpaceOnUse" xlink:href="#c" id="d" y2="47.013" x2="25.132" y1=".985" x1="25.132"/></defs><path d="M3 1h10v14H3V1z" fill="url(#d)"/><path d="M12.5 14.5h-9v-13h9z" fill="none" stroke="url(#e)" stroke-linecap="round"/><path d="M2.5.5h11v15h-11V.5z" fill="none" stroke="url(#f)" stroke-linejoin="round"/><path d="M4.507 2.466H11.5M4.507 4.466H11.5M4.507 6.466H11.5M4.49 13.5l7.044-.034" stroke="#8c8c8c" stroke-linecap="round"/><path d="M9 8v2H8V8l-3.012 3.03L8 14v-2h3v-2l1-1-1-1z" fill="#6ead20"/><path d="M9.508 8.508l.012 2H7.323l.143-1.14L6 11l1.41 1.61-.087-1.055h3.19v-.92h.007l-.01-1.076L11 9l-.492-.492z" opacity=".4" fill="#fff"/></svg>