<svg xmlns="http://www.w3.org/2000/svg" xmlns:xlink="http://www.w3.org/1999/xlink" height="16" width="16"><defs><linearGradient id="a" gradientTransform="matrix(0 .9738 -1.34684 0 22.08 -7.808)" gradientUnits="userSpaceOnUse" x1="8.532" x2="12.639" y1="10.083" y2="10.083"><stop offset="0" stop-color="#90dbec"/><stop offset=".262" stop-color="#55c1ec"/><stop offset=".705" stop-color="#3689e6"/><stop offset="1" stop-color="#2b63a0"/></linearGradient><linearGradient xlink:href="#a" id="d" x1="8.134" y1="1.443" x2="8.134" y2="5.866" gradientUnits="userSpaceOnUse" gradientTransform="translate(-.134 .134)"/><linearGradient id="b"><stop offset="0" stop-color="#fff"/><stop offset=".063" stop-color="#fff" stop-opacity=".235"/><stop offset=".951" stop-color="#fff" stop-opacity=".157"/><stop offset="1" stop-color="#fff" stop-opacity=".392"/></linearGradient><linearGradient id="c" gradientTransform="matrix(.44577 0 0 .44994 -22.198 -3.024)" gradientUnits="userSpaceOnUse" x1="25.132" x2="25.132" y1="15.5" y2="48.396"><stop offset="0" stop-color="#fafafa"/><stop offset="1" stop-color="#e2e1de"/></linearGradient><linearGradient xlink:href="#c" id="e" x1="8.134" y1="11.866" x2="8.134" y2="1.866" gradientUnits="userSpaceOnUse" gradientTransform="matrix(1 0 0 -1 0 15.732)"/><linearGradient xlink:href="#b" id="f" x1="8" y1="3" x2="8" y2="14" gradientUnits="userSpaceOnUse"/></defs><path d="M1.5 1.5V14.5h13V1.5h-13z" stroke="#2a70a7" stroke-opacity=".338" fill="url(#d)"/><path d="M2.134 13.866h12v-12h-12z" fill="url(#e)" transform="translate(-.134 .134)"/><path d="M3.146 2.5c-.358 0-.646.223-.646.5v10c0 .277.288.5.646.5h9.708c.358 0 .646-.223.646-.5V3c0-.277-.288-.5-.646-.5H3.146z" opacity=".8" fill="none" stroke="url(#f)" stroke-opacity=".849"/></svg>