<svg xmlns="http://www.w3.org/2000/svg" xmlns:xlink="http://www.w3.org/1999/xlink" height="16" width="16"><defs><linearGradient gradientTransform="matrix(.50257 0 0 .39305 93.352 -16.858)" gradientUnits="userSpaceOnUse" xlink:href="#a" id="g" y2="80.031" x2="-162.679" y1="58.567" x1="-162.679"/><linearGradient gradientTransform="matrix(.8919 0 0 .94047 3.144 5.347)" gradientUnits="userSpaceOnUse" xlink:href="#b" id="h" x1="11.051" x2="11.051" y1="2.821" y2="8.138"/><linearGradient id="b"><stop offset="0" stop-color="#fff"/><stop offset=".003" stop-color="#fff" stop-opacity=".235"/><stop offset=".99" stop-color="#fff" stop-opacity=".157"/><stop offset="1" stop-color="#fff" stop-opacity=".392"/></linearGradient><linearGradient gradientTransform="translate(-8 -193)" gradientUnits="userSpaceOnUse" xlink:href="#c" id="d" x1="16" x2="16" y1="198" y2="200.5"/><linearGradient id="c"><stop offset="0" stop-color="#f9f9f9"/><stop offset="1" stop-color="#d8d8d8"/></linearGradient><linearGradient gradientTransform="translate(-33.588 -9.6)" id="a" gradientUnits="userSpaceOnUse" x1="13" x2="13" y1="9" y2="21"><stop offset="0" stop-color="#b4cee1"/><stop offset="1" stop-color="#5d9fcd"/></linearGradient><linearGradient id="f" gradientTransform="matrix(0 -.5372 -.57682 0 36.974 17.758)" gradientUnits="userSpaceOnUse" x1="10.088" x2="13.732" y1="2.601" y2="13.177"><stop offset="0" stop-color="#fff"/><stop offset=".45" stop-color="#fff" stop-opacity=".235"/><stop offset=".65" stop-color="#fff" stop-opacity=".157"/><stop offset="1" stop-color="#fff" stop-opacity=".392"/></linearGradient><radialGradient id="e" cx="24.837" cy="36.421" gradientTransform="matrix(-.25568 0 0 -.19176 15.347 14.877)" gradientUnits="userSpaceOnUse" r="15.645"><stop offset="0"/><stop offset="1" stop-opacity="0"/></radialGradient></defs><path d="M15.523 5.5V2.727c0-.14-.11-.25-.25-.25h-6.75v-.72c0-.138-.11-.25-.25-.25h-6.5c-.138 0-.25.112-.25.25v.72h-.75c-.138 0-.25.11-.25.25V5.5" color="#000" overflow="visible" opacity=".5" fill="none" stroke="#7e8087" stroke-width=".992" stroke-linecap="square"/><path d="M2 2v1H1v4h14V3H8V2z" color="#000" overflow="visible" fill="url(#d)"/><path d="M4.997 7.893a4 3 0 1 1 8 0 4 3 0 1 1-8 0z" opacity=".141" fill="url(#e)" fill-rule="evenodd"/><path d="M8.297 9.41c-3.55-2.404-1.417-7.017 2.2-7.017V.483l5 3.57-5 3.34v-2c-2.552-.1-3.668 2.34-1.843 4.018z" display="block" fill="#d8a7ff" stroke="#8e56dc" stroke-width=".964" stroke-linejoin="round" stroke-miterlimit="7"/><path d="M7.615 8.167c-1.252-1.47-.124-5.31 3.882-4.785v-.99l2.33 1.66-2.33 1.51v-.79C7.1 4.535 7.24 7.57 7.615 8.166z" display="block" opacity=".53" fill="none" stroke="url(#f)" stroke-width=".964" stroke-miterlimit="7"/><path d="M.5 6.5h15v8l-15-.01z" color="#000" overflow="visible" fill="url(#g)" stroke="#246898" stroke-linejoin="round" stroke-opacity=".498"/><path d="M14.5 7.5v6l-12.977-.04L1.5 7.5z" color="#000" overflow="visible" opacity=".5" fill="none" stroke="url(#h)" stroke-linecap="round"/></svg>