<?xml version="1.0" encoding="UTF-8" standalone="no"?>
<svg
   xmlns:dc="http://purl.org/dc/elements/1.1/"
   xmlns:cc="http://creativecommons.org/ns#"
   xmlns:rdf="http://www.w3.org/1999/02/22-rdf-syntax-ns#"
   xmlns:svg="http://www.w3.org/2000/svg"
   xmlns="http://www.w3.org/2000/svg"
   xmlns:xlink="http://www.w3.org/1999/xlink"
   xmlns:sodipodi="http://sodipodi.sourceforge.net/DTD/sodipodi-0.dtd"
   xmlns:inkscape="http://www.inkscape.org/namespaces/inkscape"
   viewBox="0 0 16 16"
   version="1.1"
   id="svg10"
   sodipodi:docname="sc_modifyframe.svg"
   inkscape:version="0.92.3 (unknown)"><metadata
   id="metadata16">
  <rdf:RDF>
    <cc:Work
       rdf:about="">
      <dc:format>image/svg+xml</dc:format>
      <dc:type
         rdf:resource="http://purl.org/dc/dcmitype/StillImage" />
    </cc:Work>
  </rdf:RDF>
</metadata>
<defs
   id="defs14">
  <linearGradient
     inkscape:collect="always"
     xlink:href="#linearGradient3309"
     id="linearGradient3893"
     gradientUnits="userSpaceOnUse"
     gradientTransform="matrix(0.5,0,0,0.5,-0.7790945,7.75)"
     x1="25"
     y1="-11.932203"
     x2="25"
     y2="8.4520321" />
  <linearGradient
     x1="63.9995"
     y1="3.1001"
     x2="63.9995"
     y2="122.8994"
     id="linearGradient3309"
     gradientUnits="userSpaceOnUse">
    <stop
       id="stop3311"
       style="stop-color:#f6f6f6;stop-opacity:1"
       offset="0" />
    <stop
       id="stop3313"
       style="stop-color:#e6e6e6;stop-opacity:1;"
       offset="1" />
  </linearGradient>
  <linearGradient
     inkscape:collect="always"
     xlink:href="#linearGradient3397"
     id="linearGradient3895"
     gradientUnits="userSpaceOnUse"
     gradientTransform="matrix(0.5,0,0,0.5,-0.7790945,7.75)"
     x1="21"
     y1="-10.033898"
     x2="21"
     y2="16.004715" />
  <linearGradient
     id="linearGradient3397">
    <stop
       id="stop3399"
       style="stop-color:#888888;stop-opacity:1;"
       offset="0" />
    <stop
       id="stop3401"
       style="stop-color:#626262;stop-opacity:1;"
       offset="1" />
  </linearGradient>
  <linearGradient
     inkscape:collect="always"
     xlink:href="#linearGradient5128"
     id="linearGradient3897"
     gradientUnits="userSpaceOnUse"
     gradientTransform="matrix(0.04807115,0,0,0.04807115,8.6734468,8.7215181)"
     x1="86.132919"
     y1="105.105"
     x2="84.63858"
     y2="20.895" />
  <linearGradient
     id="linearGradient5128">
    <stop
       id="stop5130"
       style="stop-color:#efefef;stop-opacity:1;"
       offset="0" />
    <stop
       id="stop5132"
       style="stop-color:#c9c9c9;stop-opacity:1;"
       offset="1" />
  </linearGradient>
</defs>
<sodipodi:namedview
   pagecolor="#ffffff"
   bordercolor="#666666"
   borderopacity="1"
   objecttolerance="10"
   gridtolerance="10"
   guidetolerance="10"
   inkscape:pageopacity="0"
   inkscape:pageshadow="2"
   inkscape:window-width="1366"
   inkscape:window-height="706"
   id="namedview12"
   showgrid="false"
   inkscape:zoom="14.75"
   inkscape:cx="-0.71186441"
   inkscape:cy="7.4576271"
   inkscape:window-x="0"
   inkscape:window-y="0"
   inkscape:window-maximized="1"
   inkscape:current-layer="svg10" />


     /&gt;
 <path
   d="m2.2647333 11.529461c0-.245873.085766-.454101.2572978-.625859l1.911795-1.9116957c.17165-.1705827.3800057-.2564611.6250686-.2564611.2574157 0 .4774193.097644.6621278.294107-.018821.017649-.076471.076467-.1752964.174111-.097766.091762-.1621207.1564648-.1927093.1929343-.036707.03647-.082707.095291-.1378843.1752874-.061293.078821-.1010607.1588183-.1195314.2388156-.024471.072941-.036707.1564648-.036707.2482255 0 .244697.085766.452925.2572985.624683.1716493.171759.3801236.257638.6248329.257638.091766 0 .17765-.0094.2576514-.02823.072945-.02471.15059-.06353.229415-.118818.080001-.06118.1376493-.107056.1752964-.137643.036471-.03765.1035307-.104702.2023557-.202345.091766-.09882.1470615-.156465.1647086-.175288.2023564.190581.3035343.414102.3035343.67174 0 .244698-.085884.452925-.2576514.624684l-1.8930872 1.902284c-.165415.165877-.3737707.248228-.6250685.248228-.2450629 0-.4534193-.08-.6249514-.238816l-1.351198-1.34231c-.1715321-.171758-.2572979-.376457-.2572979-.615272m6.4610421-6.4798841c0-.24505.085883-.4533954.2576508-.6249187l1.8941466-1.9025202c.170592-.1716408.37883-.2574024.624717-.2574024.238827 0 .447065.082703.624715.2482263l1.35061 1.3418344c.171767.1715232.257651.37681.257651.6157426 0 .2451676-.08588.4533954-.257651.6250364l-1.911794 1.9116961c-.164708.1658765-.372948.2482272-.624716.2482272-.257651 0-.477654-.095292-.661187-.2850496.01765-.018349.07647-.073526.17412-.1654057.09765-.097996.165885-.1654058.202357-.2022274.03059-.036703.07647-.094939.137648-.1745825.0553-.079644.0953-.1562297.120003-.2297565.01765-.079644.02706-.1654058.02706-.2574025 0-.2450501-.08588-.4533955-.257651-.6249188-.170591-.1716409-.37883-.2574025-.624716-.2574025-.091766 0-.1741204.012235-.2482389.036822-.078825.018353-.1588265.058233-.2388279.1194075-.080001.055174-.1376493.1011728-.17412.1378774-.03765.030705-.101175.095055-.1929414.1930518-.098828.0979969-.1564766.1562301-.1752994.1745824-.2023572-.1898757-.303535-.4135147-.303535-.6709173m-7.4537636 4.6046588c-.51459639.5140983-.7720121 1.1399583-.7720121 1.8752253 0 .735268.260475 1.356423.7813064 1.865816l1.35108 1.341128c.5085964.509394 1.1304886.763502 1.8657943.763502.7415407 0 1.3663743-.261167 1.8746171-.781148l1.8941464-1.903461c.5082436-.508217.762365-1.129371.762365-1.86464 0-.75409-.2694157-1.3940659-.8082478-1.9211058l.8082478-.8093833c.5270672.5399807 1.1647241.8093833 1.9117951.8093833.735306 0 1.360021-.2576382 1.875323-.7729137l1.911795-1.911108c.514126-.5146874.771778-1.1397239.771778-1.8749916 0-.7352678-.260005-1.3571279-.78119-1.8656979l-1.350609-1.3418343c-.50942-.50856996-1.130606-.7629137-1.865911-.7629137-.741189 0-1.367081.26046121-1.8753246.7812661l-1.8929707 1.90252c-.50942.50857-.7635415 1.13043-.7635415 1.8656978 0 .75362.2694165 1.3939501.8094243 1.9208721l-.8094243.8085591c-.5270664-.5388037-1.1635464-.8085591-1.9115585-.8085591-.7353057 0-1.3602564.2568147-1.8750886.7720902z"
   fill="#e9e9e9"
   stroke="#8c8c8c"
   id="path2" />
<g
   id="g3888"
   transform="matrix(1.0513065,-0.43546544,0.43546544,1.0513065,-5.966936,4.2665013)">
  <path
     style="display:block;overflow:visible;visibility:visible;fill:url(#linearGradient3893);fill-opacity:1;fill-rule:nonzero;stroke:url(#linearGradient3895);stroke-width:0.52727503;stroke-linecap:butt;stroke-linejoin:round;stroke-miterlimit:4;stroke-dasharray:none;stroke-dashoffset:0;stroke-opacity:1;marker:none;enable-background:accumulate"
     id="path2426"
     d="M 11.21875,8 C 11.094542,8 11,8.0945411 11,8.21875 v 0.625 c -0.276951,0.0711 -0.525582,0.1859391 -0.765625,0.328125 L 9.78125,8.71875 c -0.087828,-0.087829 -0.224671,-0.087829 -0.3125,0 l -0.75,0.75 c -0.087829,0.087829 -0.087829,0.2246711 0,0.3125 l 0.453125,0.453125 C 9.0296894,10.474418 8.9148505,10.723048 8.84375,11 h -0.625 C 8.0945415,11 8,11.094541 8,11.21875 v 1.0625 C 8,12.405459 8.0945415,12.5 8.21875,12.5 h 0.625 c 0.071101,0.276951 0.1859395,0.525582 0.328125,0.765625 L 8.71875,13.71875 c -0.087829,0.08783 -0.087829,0.224671 0,0.3125 l 0.75,0.75 c 0.087829,0.08783 0.224671,0.08783 0.3125,0 l 0.453125,-0.453125 C 10.474418,14.470311 10.723049,14.58515 11,14.65625 v 0.625 C 11,15.405459 11.094542,15.5 11.21875,15.5 h 1.0625 C 12.405459,15.5 12.5,15.405459 12.5,15.28125 v -0.625 c 0.276951,-0.0711 0.525582,-0.185939 0.765625,-0.328125 l 0.453125,0.453125 c 0.08783,0.08783 0.224671,0.08783 0.3125,0 l 0.75,-0.75 c 0.08783,-0.08783 0.08783,-0.224671 0,-0.3125 L 14.328125,13.265625 C 14.470311,13.025582 14.58515,12.776951 14.65625,12.5 h 0.625 C 15.405459,12.5 15.5,12.405459 15.5,12.28125 v -1.0625 C 15.5,11.094541 15.405459,11 15.28125,11 h -0.625 c -0.0711,-0.276952 -0.185939,-0.525582 -0.328125,-0.765625 L 14.78125,9.78125 c 0.08783,-0.087829 0.08783,-0.224671 0,-0.3125 l -0.75,-0.75 c -0.08783,-0.087829 -0.224671,-0.087829 -0.3125,0 L 13.265625,9.171875 C 13.025582,9.0296891 12.776951,8.9148503 12.5,8.84375 v -0.625 C 12.5,8.0945411 12.405459,8 12.28125,8 Z M 11.75,10.75 c 0.552,0 1,0.448 1,1 0,0.552 -0.448,1 -1,1 -0.552,0 -1,-0.448 -1,-1 0,-0.552 0.448,-1 1,-1 z"
     inkscape:connector-curvature="0" />
  <path
     style="opacity:0.05;fill:#000000;fill-opacity:1;stroke:none"
     id="path3315"
     d="m 11.75,9.482558 c -1.250289,0 -2.2674419,1.017154 -2.2674419,2.267442 0,1.250289 1.0171529,2.267442 2.2674419,2.267442 1.250288,0 2.267442,-1.017153 2.267442,-2.267442 0,-1.250288 -1.017154,-2.267442 -2.267442,-2.267442 z m 0,1.046512 c 0.673954,0 1.22093,0.546977 1.22093,1.22093 0,0.673954 -0.546976,1.22093 -1.22093,1.22093 -0.673953,0 -1.22093,-0.546976 -1.22093,-1.22093 0,-0.673953 0.546977,-1.22093 1.22093,-1.22093 z"
     inkscape:connector-curvature="0" />
  <path
     style="fill:none;stroke:url(#linearGradient3897);stroke-width:0.87879175;stroke-miterlimit:4;stroke-dasharray:none"
     id="path28"
     d="m 11.75,9.75 c -1.1028,0 -2,0.8972 -2,2 0,1.1028 0.8972,2 2,2 1.1028,0 2,-0.8972 2,-2 0,-1.1028 -0.8972,-2 -2,-2 z"
     inkscape:connector-curvature="0" />
</g>
</svg>
