<svg height="16" width="16" xmlns="http://www.w3.org/2000/svg" xmlns:xlink="http://www.w3.org/1999/xlink"><linearGradient id="a" gradientTransform="matrix(.28571361 0 0 .30419701 1.142873 .232605)" gradientUnits="userSpaceOnUse" x1="25.132275" x2="25.75001" xlink:href="#g" y1=".985206" y2="37.039795"/><linearGradient id="b" gradientTransform="matrix(.24324324 0 0 .35135133 2.162164 -.432428)" gradientUnits="userSpaceOnUse" x1="23.99999" x2="23.999996" xlink:href="#o" y1="6.205239" y2="26.846144"/><linearGradient id="c" gradientTransform="matrix(.25378586 0 0 .30501865 19.128979 -.685477)" gradientUnits="userSpaceOnUse" x1="-51.732506" x2="-51.786404" xlink:href="#p" y1="41.589184" y2="2.906247"/><linearGradient id="d"><stop offset="0" stop-color="#fff"/><stop offset="1" stop-color="#fff" stop-opacity="0"/></linearGradient><linearGradient id="e" gradientTransform="matrix(.30663884 0 0 .23369958 1.592613 5.677061)" gradientUnits="userSpaceOnUse" spreadMethod="reflect" x1="25.525208" x2="25.525208" xlink:href="#d" y1="30.188753" y2="15.737678"/><linearGradient id="f" gradientTransform="matrix(.30663884 0 0 .23369958 1.640234 7.63247)" gradientUnits="userSpaceOnUse" spreadMethod="reflect" x1="25.525208" x2="25.525208" xlink:href="#d" y1="30.188753" y2="15.737678"/><linearGradient id="g"><stop offset="0" stop-color="#f4f4f4"/><stop offset="1" stop-color="#dbdbdb"/></linearGradient><linearGradient id="h" gradientUnits="userSpaceOnUse" x1="6" x2="7" xlink:href="#g" y1="8.9577" y2="17.957701"/><linearGradient id="i" gradientUnits="userSpaceOnUse" x1="9" x2="9" xlink:href="#p" y1="17.957701" y2="8.9577"/><linearGradient id="j" gradientTransform="matrix(.46574 0 0 .48509 .82234 1.5316)" gradientUnits="userSpaceOnUse" x1="23.783" x2="23.904" xlink:href="#k" y1="28.666" y2="16.007"/><linearGradient id="k"><stop offset="0" stop-color="#1e1e1e"/><stop offset="1" stop-color="#1e1e1e" stop-opacity="0"/></linearGradient><linearGradient id="l" gradientTransform="matrix(.46574 0 0 .48509 .82234 -4.1022)" gradientUnits="userSpaceOnUse" x1="23.929" x2="23.929" xlink:href="#k" y1="30.773" y2="45.531"/><linearGradient id="m" gradientTransform="matrix(.44186 0 0 .46429 1.3953 .30357)" gradientUnits="userSpaceOnUse" x1="25.577" x2="25.577" xlink:href="#d" y1="15" y2="44.001"/><linearGradient id="n" gradientTransform="matrix(-.46574 0 0 .48509 17.075 -4.0638)" gradientUnits="userSpaceOnUse" x1="23.929" x2="23.929" xlink:href="#k" y1="30.773" y2="45.531"/><linearGradient id="o" gradientTransform="matrix(.24324324 0 0 .35135133 2.162164 -.432428)" gradientUnits="userSpaceOnUse" x1="23.99999" x2="23.999996" y1="6.205239" y2="26.846144"><stop offset="0" stop-color="#fff"/><stop offset=".02929282" stop-color="#fff" stop-opacity=".235294"/><stop offset=".97230476" stop-color="#fff" stop-opacity=".156863"/><stop offset="1" stop-color="#fff" stop-opacity=".392157"/></linearGradient><linearGradient id="p" gradientTransform="matrix(.25378586 0 0 .30501865 19.128979 -.685477)" gradientUnits="userSpaceOnUse" x1="-51.786404" x2="-51.786404" y1="50.786446" y2="2.906247"><stop offset="0" stop-opacity=".339506"/><stop offset="1" stop-opacity=".246914"/></linearGradient><g transform="translate(-2.000001)"><path d="m3 1h8.000001l.000013 8.99911-8.0000129.00089z" fill="url(#a)"/><g fill="none"><path d="m10.500014 9.49911-7.000013.00089-.0000011-8 7.0000131-.0008904z" stroke="url(#o)" stroke-linecap="round"/><path d="m2.4999621.49997396c2.5206756 0 9.0000759.0000636 9.0000759.0000636l.000014 9.99909844-9.0000889.00089z" stroke="url(#c)" stroke-linejoin="round" stroke-width=".999922"/></g></g><path d="m2 1h8v10h-8z" opacity=".05"/><g transform="translate(1.000038 2.000026)"><path d="m3 1h8.000001l.000013 8.99911-8.0000129.00089z" fill="url(#a)"/><g fill="none"><path d="m10.500014 9.49911-7.000013.00089-.0000011-8 7.0000131-.0008904z" stroke="url(#b)" stroke-linecap="round"/><path d="m2.4999621.49997396c2.5206756 0 9.0000759.0000636 9.0000759.0000636l.000014 9.99909844-9.0000889.00089z" stroke="url(#c)" stroke-linejoin="round" stroke-width=".999922"/></g></g><g transform="matrix(.7866 0 0 .7866 2.7469 .937533)"><rect height="10.170354" rx=".46667" ry=".45455" style="fill-rule:evenodd;stroke-width:1.271294;stroke-linecap:square;stroke-linejoin:round;fill:url(#h);stroke:url(#i)" width="12.712942" x="3.5" y="8.342826"/><g fill="none"><rect height="7.627765" opacity=".4" rx=".036476" ry=".035005" stroke="url(#m)" stroke-linecap="square" stroke-width="1.271294" width="10.170354" x="4.771294" y="9.61412"/><path d="m7.8373363 14.21335-3.67771 3.327159" opacity=".5" stroke="url(#l)"/><g stroke-width="1.271294"><path d="m3.9496263 10.319504 6.2653107 5.162846 5.785063-5.234755" opacity=".5" stroke="url(#j)"/><path d="m12.488937 14.25135 3.285263 3.25525" opacity=".5" stroke="url(#n)"/><path d="m4.6225392 9.5729978 5.5443428 4.4838982 5.248118-4.5850961" opacity=".7" stroke="url(#e)"/><path d="m8.5759014 14.960657-2.9638346 2.746918zm3.2867866.0146 2.561673 2.660403z" opacity=".7" stroke="url(#f)"/></g></g></g></svg>