<svg height="16" width="16" xmlns="http://www.w3.org/2000/svg" xmlns:xlink="http://www.w3.org/1999/xlink"><linearGradient id="a" gradientTransform="matrix(.28571361 0 0 .30419701 1.142873 .232605)" gradientUnits="userSpaceOnUse" x1="25.132275" x2="25.75001" xlink:href="#h" y1=".985206" y2="37.039795"/><linearGradient id="b" gradientTransform="matrix(.24324324 0 0 .35135133 2.162164 -.432428)" gradientUnits="userSpaceOnUse" x1="23.99999" x2="23.999996" xlink:href="#i" y1="6.205239" y2="26.846144"/><linearGradient id="c" gradientTransform="matrix(.25378586 0 0 .30501865 19.128979 -.685477)" gradientUnits="userSpaceOnUse" x1="-51.732506" x2="-51.786404" y1="41.589184" y2="2.906247"><stop offset="0" stop-opacity=".339506"/><stop offset="1" stop-opacity=".246914"/></linearGradient><linearGradient id="d" gradientTransform="matrix(.2432 0 0 .3513 4.114 2.548)" gradientUnits="userSpaceOnUse" x1="23.782223" x2="23.692017" y1="8.631661" y2="30.578993"><stop offset="0" stop-color="#fff"/><stop offset=".07876256" stop-color="#fff" stop-opacity=".235"/><stop offset="1" stop-color="#fff" stop-opacity=".157"/><stop offset="1" stop-color="#fff" stop-opacity=".392"/></linearGradient><linearGradient id="e" gradientTransform="matrix(.2538 0 0 .305 21.082 2.295)" gradientUnits="userSpaceOnUse" x1="-51.785999" x2="-51.785999" y1="50.785999" y2="2.906"><stop offset="0" stop-opacity=".34"/><stop offset="1" stop-opacity=".247"/></linearGradient><linearGradient id="f" gradientUnits="userSpaceOnUse" x1="10.536" x2="10.54" y1="15.009" y2="7.433"><stop offset="0" stop-color="#fff"/><stop offset="1" stop-color="#fff" stop-opacity="0"/></linearGradient><linearGradient id="g" gradientTransform="matrix(.19394913 0 0 .20650796 7.078793 7.158898)" gradientUnits="userSpaceOnUse" x1="25.132" x2="25.132" xlink:href="#h" y1=".985" y2="47.013"/><linearGradient id="h"><stop offset="0" stop-color="#f4f4f4"/><stop offset="1" stop-color="#dbdbdb"/></linearGradient><linearGradient id="i" gradientTransform="matrix(.24324324 0 0 .35135133 2.162164 -.432428)" gradientUnits="userSpaceOnUse" x1="23.99999" x2="23.999996" y1="6.205239" y2="26.846144"><stop offset="0" stop-color="#fff"/><stop offset=".02929282" stop-color="#fff" stop-opacity=".235294"/><stop offset=".97230476" stop-color="#fff" stop-opacity=".156863"/><stop offset="1" stop-color="#fff" stop-opacity=".392157"/></linearGradient><g transform="translate(-2.000001)"><path d="m3 1h8.000001l.000013 8.99911-8.0000129.00089z" fill="url(#a)"/><g fill="none"><path d="m10.500014 9.49911-7.000013.00089-.0000011-8 7.0000131-.0008904z" stroke="url(#i)" stroke-linecap="round"/><path d="m2.4999621.49997396c2.5206756 0 9.0000759.0000636 9.0000759.0000636l.000014 9.99909844-9.0000889.00089z" stroke="url(#c)" stroke-linejoin="round" stroke-width=".999922"/></g></g><path d="m2 1h8v10h-8z" opacity=".05"/><g transform="translate(1.000038 2.000026)"><path d="m3 1h8.000001l.000013 8.99911-8.0000129.00089z" fill="url(#a)"/><g fill="none"><path d="m10.500014 9.49911-7.000013.00089-.0000011-8 7.0000131-.0008904z" stroke="url(#b)" stroke-linecap="round"/><path d="m2.4999621.49997396c2.5206756 0 9.0000759.0000636 9.0000759.0000636l.000014 9.99909844-9.0000889.00089z" stroke="url(#c)" stroke-linejoin="round" stroke-width=".999922"/></g></g><path d="m8.000005 7h6.999995v8h-7z" fill="url(#g)" stroke-width=".678856"/><g fill="none" transform="matrix(.6788559 0 0 .6788559 4.977734 4.977734)"><path d="m14.026933 14.026933h-8.8383996v-10.3114663h8.8383996z" stroke="url(#d)" stroke-linecap="round" stroke-width="1.473067"/><path d="m3.7154668 2.2424001 11.7845332-.0000001v13.2576h-11.7845333z" stroke="url(#e)" stroke-linejoin="round" stroke-width="1.473067"/><path d="m14.309246 10.344267-3.964979 4.4192-3.6826669-4.4192 2.9461333.736533v-3.6449999l1.9502666-.0808001v3.645z" opacity=".6" stroke="url(#f)" stroke-linecap="round" stroke-width=".726"/></g><path d="m14.318768 11.5-2.318768 2.5-1.979906-2.5h1.479906v-2h1v2z" fill="#46a8ea" fill-opacity=".984" stroke="#2f78c8" stroke-linecap="round"/></svg>