<svg height="16" width="16" xmlns="http://www.w3.org/2000/svg" xmlns:xlink="http://www.w3.org/1999/xlink"><linearGradient id="a" gradientTransform="matrix(.28571361 0 0 .30419701 1.142873 .232605)" gradientUnits="userSpaceOnUse" x1="25.132275" x2="25.75001" y1=".985206" y2="37.039795"><stop offset="0" stop-color="#f4f4f4"/><stop offset="1" stop-color="#dbdbdb"/></linearGradient><linearGradient id="b" gradientTransform="matrix(.24324324 0 0 .35135133 2.162164 -.432428)" gradientUnits="userSpaceOnUse" x1="23.99999" x2="23.999996" xlink:href="#d" y1="6.205239" y2="26.846144"/><linearGradient id="c" gradientTransform="matrix(.25378586 0 0 .30501865 19.128979 -.685477)" gradientUnits="userSpaceOnUse" x1="-51.732506" x2="-51.786404" y1="41.589184" y2="2.906247"><stop offset="0" stop-opacity=".339506"/><stop offset="1" stop-opacity=".246914"/></linearGradient><linearGradient id="d" gradientTransform="matrix(.24324324 0 0 .35135133 2.162164 -.432428)" gradientUnits="userSpaceOnUse" x1="23.99999" x2="23.999996" y1="6.205239" y2="26.846144"><stop offset="0" stop-color="#fff"/><stop offset=".02929282" stop-color="#fff" stop-opacity=".235294"/><stop offset=".97230476" stop-color="#fff" stop-opacity=".156863"/><stop offset="1" stop-color="#fff" stop-opacity=".392157"/></linearGradient><g transform="translate(-2.000001)"><path d="m3 1h8.000001l.000013 8.99911-8.0000129.00089z" fill="url(#a)"/><g fill="none"><path d="m10.500014 9.49911-7.000013.00089-.0000011-8 7.0000131-.0008904z" stroke="url(#d)" stroke-linecap="round"/><path d="m2.4999621.49997396c2.5206756 0 9.0000759.0000636 9.0000759.0000636l.000014 9.99909844-9.0000889.00089z" stroke="url(#c)" stroke-linejoin="round" stroke-width=".999922"/></g></g><path d="m2 1h8v10h-8z" opacity=".05"/><g transform="translate(1.000038 2.000026)"><path d="m3 1h8.000001l.000013 8.99911-8.0000129.00089z" fill="url(#a)"/><g fill="none"><path d="m10.500014 9.49911-7.000013.00089-.0000011-8 7.0000131-.0008904z" stroke="url(#b)" stroke-linecap="round"/><path d="m2.4999621.49997396c2.5206756 0 9.0000759.0000636 9.0000759.0000636l.000014 9.99909844-9.0000889.00089z" stroke="url(#c)" stroke-linejoin="round" stroke-width=".999922"/></g></g><g transform="matrix(.72361589 0 0 .72361589 7.147543 4.332881)"><path d="m2.324 14.747385c.005.248.02.632.236.685 2.282.013 4.575-.01 6.856-.006.235.01.244-.43.236-.69l-7.33.01z" fill="#505050" stroke="#565656" stroke-linecap="square" stroke-width="1.381949"/><g stroke-linecap="round"><path d="m.637 9.568.517-2.11 9.76.014.494 2.118z" fill="#4f4f4f" fill-rule="evenodd"/><path d="m1.037 9.54 9.99.012c.278 0 .502.24.5.54l.01567 3.958437-10.99299977-.01-.01267023-3.960437c0-.3.223-.54.5-.54z" fill="#4f4f4f"/><path d="m1.0526662 10.043565 9.9899998.012c.278 0 .502.24.5.54l.000004 3.454872-10.99299977-.01.002996-3.456872c0-.3.223-.54.49999997-.54z" fill="none" opacity=".71" stroke="#393939" stroke-linejoin="round" stroke-width="1.381949"/><path d="m8.05 10h1v1h-1z" fill="#0cceff"/><path d="m.637 9.568.517-2.11 9.76.014.494 2.118z" fill="none" opacity=".7" stroke="#393939" stroke-linecap="butt" stroke-width="1.381949"/></g><g fill="#e9e9e9"><path d="m9.4697433 11.977514.011711 3.115607c.0007142.189999-.048.34-.108.34h-6.6947428c-.06 0-.1062858-.150001-.107-.34l-.0117115-3.115607z"/><path d="m3.2509744 4.3767962h5.5277945v4.145846h-5.5277945z" stroke="#8c8c8c" stroke-linejoin="round" stroke-width="1.381949"/></g></g></svg>