<svg xmlns="http://www.w3.org/2000/svg" xmlns:xlink="http://www.w3.org/1999/xlink" viewBox="0 0 16 16"><defs><radialGradient xlink:href="#a" id="b" cx="8.168" cy=".273" fx="8.168" fy=".273" r="6.626" gradientTransform="matrix(-1.81092 0 0 -2.56547 22.792 .698)" gradientUnits="userSpaceOnUse"/><linearGradient id="a"><stop offset="0" stop-color="#737373"/><stop offset=".262" stop-color="#636363"/><stop offset=".705" stop-color="#4b4b4b"/><stop offset="1" stop-color="#3f3f3f"/></linearGradient></defs><linearGradient id="c" gradientTransform="matrix(.42826 -.43107 .53456 .53135 -16.237 2.215)" gradientUnits="userSpaceOnUse" x1="23.576" x2="23.576" y1="25.357" y2="31.211"><stop offset="0" stop-color="#181818"/><stop offset=".135" stop-color="#dbdbdb"/><stop offset=".202" stop-color="#a4a4a4"/><stop offset=".27" stop-color="#fff"/><stop offset=".447" stop-color="#8d8d8d"/><stop offset=".571" stop-color="#959595"/><stop offset=".72" stop-color="#cecece"/><stop offset="1" stop-color="#181818"/></linearGradient><path d="M11.173 14.518l-.903-3.092H5.73l-.904 3.09H1.98L6.378 1.48h3.23l4.412 13.04zm-1.533-5.4Q8.388 4.915 8.226 4.365q-.154-.55-.222-.87-.28 1.136-1.61 5.62z" fill="url(#b)" stroke="#000" stroke-width=".962" stroke-linejoin="round" stroke-opacity=".471"/><path d="M2.094 10.875c.295-.215 1.182.264 2.02 1.096.833.83 1.297 1.696 1.088 1.994 0 .002.02.02.02.02L14.207 4.8c.263-.27-.35-1.18-1.214-2.04-.863-.858-1.613-1.3-1.877-1.032z" fill="url(#c)" stroke="#ce5c00" stroke-linejoin="round" stroke-width="1.47" transform="matrix(.58832 0 0 .58832 7.175 5.987)"/><path d="M8.47 12.385c.172-.126.694.156 1.187.645.49.488.763.997.64 1.173l-.015-.214 4.17-4.244.875-.89c-.094-.21-.073-.254-.057.004.123-.176-.114-.518-.605-1.006-.492-.49-.72-.71-.893-.583v-.015z" fill="#fcaf3e" opacity=".6"/><path d="M7.323 15.274l2.89-1.048.025-.024c.123-.175-.153-.684-.644-1.173-.492-.49-1.014-.77-1.187-.644z" fill-rule="evenodd" stroke="#5d5d5d" stroke-width=".8648303999999999"/><path d="M7.616 14.492l-.294.78.79-.288c-.07-.08-.134-.163-.216-.245-.094-.094-.186-.17-.28-.248z" fill="#fcaf3e" fill-rule="evenodd" stroke="#ce5c00" stroke-width=".43241519999999994"/></svg>