<svg xmlns="http://www.w3.org/2000/svg" xmlns:xlink="http://www.w3.org/1999/xlink" viewBox="0 0 16 16"><defs><linearGradient id="a"><stop offset="0" stop-color="#cdf87e"/><stop offset=".262" stop-color="#a2e34f"/><stop offset=".661" stop-color="#68b723"/><stop offset="1" stop-color="#1d7e0d"/></linearGradient><linearGradient id="c" gradientTransform="matrix(.13658 0 0 .1412 20.892 -.94)" gradientUnits="userSpaceOnUse" x1="-172.653" x2="-166.64" y1="99.667" y2="93.654"><stop offset="0" stop-color="#242424" stop-opacity=".992"/><stop offset="1" stop-color="#656565"/></linearGradient><radialGradient id="d" cx="18.241" cy="21.818" gradientUnits="userSpaceOnUse" r="8.309"><stop offset="0" stop-color="#a1a1a1" stop-opacity=".208"/><stop offset="1" stop-color="#a1a1a1" stop-opacity=".678"/></radialGradient><radialGradient id="e" cx="15.414" cy="13.078" gradientTransform="matrix(1.03877 0 0 .83463 -25.313 -6.76)" gradientUnits="userSpaceOnUse" r="6.656" xlink:href="#b"/><linearGradient id="b"><stop offset="0" stop-color="#fff"/><stop offset="1" stop-color="#fff" stop-opacity=".248"/></linearGradient><linearGradient id="f" gradientTransform="matrix(.13658 0 0 .1412 -31.68 .662)" gradientUnits="userSpaceOnUse" x1="173.096" x2="173.096" y1="75.319" y2="11.949"><stop offset="0" stop-color="#343435" stop-opacity=".976"/><stop offset="1" stop-color="#919295"/></linearGradient><linearGradient id="g" gradientTransform="matrix(.13658 0 0 .1412 -13.965 1.724)" gradientUnits="userSpaceOnUse" x1="41.542" x2="41.485" y1="68.292" y2="4.536"><stop offset="0" stop-color="#333"/><stop offset="1" stop-color="#333" stop-opacity=".612"/></linearGradient></defs>/&gt;<path fill-rule="evenodd" fill="#e9e9e9" d="M1 3h1l1 1v11h12V2l-1-1H1z"/><path fill="#a3a3a3" d="M2.494 0C1.548-.013.812.5.432 1.19c-.38.692-.48 1.534-.412 2.35A.5.5 0 0 0 .518 4h1.468v9.5c0 .658.338 1.252.793 1.707.452.455 1.046.793 1.704.793H12v-1H4.486c-.284 0-.69-.19-1-.5s-.5-.715-.5-1v-10a.5.5 0 0 0-.5-.5H1.09c.018-.488.036-.998.217-1.326C1.55 1.232 1.86.992 2.48 1a.5.5 0 0 0 .006 0H12V0z"/><path fill="#adadad" d="M5.987 2v1H12V2zm0 2v1H12V4zm0 2v1H12V6zm0 2v1H12V8zm0 2v1H12v-1zm-2-8v1h1V2zm0 2v1h1V4zm0 2v1h1V6zm0 2v1h1V8zm0 2v1h1v-1zm0 2v1h1v-1z"/><g fill="#a3a3a3"><path d="M6.486 12a.5.5 0 0 0-.5.5c.002.762-.123 1.436-.365 1.86-.24.426-.53.64-1.132.64a.5.5 0 0 0-.146.023.5.5 0 0 0-.046.018.5.5 0 0 0-.127.08.5.5 0 0 0-.036.038.5.5 0 0 0-.12.463.5.5 0 0 0 .033.094.5.5 0 0 0 .05.086.5.5 0 0 0 .034.037.5.5 0 0 0 .16.117.5.5 0 0 0 .145.04.5.5 0 0 0 .054.005H13v-1H6.35c.038-.057.107-.088.14-.147.3-.526.347-1.192.39-1.855H13v-1zM7 0v1h6.188c.23 0 .752.252 1.148.648.396.396.65.92.65 1.15L15.003 13h1l-.017-10.2c0-.712-.423-1.34-.94-1.86C14.526.424 13.9 0 13.188 0z"/><path d="M9 12v1h5.912c-.018.49-.035 1.005-.22 1.334-.245.442-.56.683-1.192.666a.5.5 0 0 0-.014 0H9v1h4.475c.958.026 1.706-.486 2.093-1.18.387-.693.487-1.54.418-2.363a.5.5 0 0 0-.5-.457z"/></g><path fill="#adadad" d="M12.987 2v1h1V2zm0 2v1h1V4zm0 2v1h1V6zm0 2v1h1V8zm0 2v1h1v-1z"/><path fill="#fff" d="M6.88 13H15l-.186 1H6.762z"/><path d="M-4.502 9.572l6.106 5.877-.846 1.186-6.085-6.356z" fill="url(#c)" fill-rule="evenodd" stroke="#333" stroke-width=".772" stroke-linecap="round" stroke-linejoin="round" transform="translate(14.106 -1.85) scale(.9299)"/><path d="M15.902 12.316a1.022.51-49.755 1 1-1.337 1.546 1.022.51-49.755 1 1 1.337-1.546z" fill="#3e3e3e"/><path d="M25.898 18.478a8.31 8.31 0 1 1-16.617 0 8.31 8.31 0 1 1 16.618 0z" transform="matrix(.46833 0 0 .47245 -1.41 -4.412)" fill="url(#d)" fill-rule="evenodd"/><path d="M-8 3c-2.086 0-3.776 1.563-3.776 3.493 0 .557.17 1.07.42 1.538.502.172 1.035.288 1.6.288 2.472 0 4.447-1.802 4.6-4.053C-5.85 3.507-6.844 3-8 3z" opacity=".834" fill="url(#e)" fill-rule="evenodd" transform="translate(14.106 -1.85) scale(.9299)"/><path d="M-7.92 2.42c-2.57 0-4.656 1.988-4.656 4.438 0 2.45 2.087 4.44 4.656 4.44 2.57 0 4.657-1.99 4.657-4.44s-2.087-4.44-4.657-4.44zm.056.29c2.3 0 4.17 1.78 4.17 3.97 0 2.194-1.87 3.973-4.17 3.973s-4.166-1.78-4.166-3.972c0-2.19 1.866-3.97 4.166-3.97z" fill="url(#f)" stroke="url(#g)" stroke-width=".772" stroke-linecap="round" stroke-linejoin="round" transform="translate(14.106 -1.85) scale(.9299)"/></svg>