<svg xmlns="http://www.w3.org/2000/svg" viewBox="0 0 16 16"><defs><linearGradient id="b" gradientTransform="matrix(.59436 0 0 .5999 -19.265 -.033)" gradientUnits="userSpaceOnUse" x1="25.132" x2="25.132" y1="15.5" y2="48.396"><stop offset="0" stop-color="#fafafa"/><stop offset="1" stop-color="#e2e1de"/></linearGradient><linearGradient id="a"><stop offset="0" stop-color="#fff"/><stop offset=".5" stop-color="#fff" stop-opacity=".235"/><stop offset=".951" stop-color="#fff" stop-opacity=".157"/><stop offset="1" stop-color="#fff" stop-opacity=".392"/></linearGradient></defs><rect y="3" x="1" width="14" ry=".491" rx=".424" height="10" fill="url(#b)"/><path d="M.5 2a.5.5 0 0 0-.5.5v11a.5.5 0 0 0 .5.5h15a.5.5 0 0 0 .5-.5v-11a.5.5 0 0 0-.5-.5zm.498.998h14.004v10.004H.998zM5 3v2H1v1h4v3H1v1h4v3h1v-3h4v3h1v-3h4V9h-4V6h4V5h-4V3h-1v2H6V3zm1 3h4v3H6z" opacity=".32" fill="#030303"/><path d="M.5 2a.5.5 0 0 0-.5.5v11a.5.5 0 0 0 .5.5h15a.5.5 0 0 0 .5-.5v-11a.5.5 0 0 0-.5-.5zm.498.998h14.004v10.004H.998z" fill="#ce5c00"/></svg>