<svg xmlns="http://www.w3.org/2000/svg" viewBox="0 0 16 16"><defs><linearGradient gradientTransform="matrix(1.38317 0 0 1.41442 -36.243 -3.873)" id="b" gradientUnits="userSpaceOnUse" x1="8.295" x2="8.295" y1="-4.284" y2="16.85"><stop offset="0" stop-color="#cdf87e"/><stop offset=".262" stop-color="#a2e34f"/><stop offset=".661" stop-color="#68b723"/><stop offset="1" stop-color="#1d7e0d"/></linearGradient><linearGradient id="c" gradientTransform="matrix(.59436 0 0 .5999 -19.265 -.033)" gradientUnits="userSpaceOnUse" x1="25.132" x2="25.132" y1="15.5" y2="48.396"><stop offset="0" stop-color="#fafafa"/><stop offset="1" stop-color="#e2e1de"/></linearGradient><linearGradient id="a"><stop offset="0" stop-color="#fff"/><stop offset=".5" stop-color="#fff" stop-opacity=".235"/><stop offset=".951" stop-color="#fff" stop-opacity=".157"/><stop offset="1" stop-color="#fff" stop-opacity=".392"/></linearGradient></defs><g transform="translate(0 -2)"><rect height="3" rx=".424" ry=".491" width="14.004" x="1" y="6" fill="url(#c)"/><path d="M.502 7.002c-.276 0-.5.224-.5.5v3.996c0 .276.224.5.5.5h15c.276 0 .5-.224.5-.5.002-5.004 0 1.003 0-3.996 0-.276-.224-.5-.5-.5zM1 8h4v3H1zm5 0h4v3H6v-1h.002V8.002H6zm5 0h4l.004 3H11v-1h.002V8.002H11zm4.002 0h.002c0 1.167 0 .583-.002 0z" opacity=".32"/></g><path d="M13.775 5.347c-.16-.017-.317.062-.4.213L9.89 11.976l-2.243-1.793c-.2-.11-.448-.04-.558.162l-1.006 1.298c-.11.2-.036.452.164.56 0 0 4.093 3.402 4.098 3.404.047.026.096.04.146.045.162.02.33-.056.412-.21l4.702-8.654c.11-.2.036-.45-.164-.56l-1.508-.833c-.05-.028-.106-.043-.16-.048z" fill="#9cde4a" stroke="#5ca12a" stroke-width=".689" stroke-linecap="round" stroke-linejoin="round"/></svg>