<svg xmlns="http://www.w3.org/2000/svg" xmlns:xlink="http://www.w3.org/1999/xlink" height="16" width="16"><defs><linearGradient gradientTransform="matrix(.24324 0 0 .35135 2.162 .568)" gradientUnits="userSpaceOnUse" xlink:href="#a" id="g" y2="21.153" x2="56.89" y1="21.153" x1="-.666"/><linearGradient id="a"><stop offset="0" stop-color="#fff"/><stop offset=".029" stop-color="#fff" stop-opacity=".235"/><stop offset=".972" stop-color="#fff" stop-opacity=".157"/><stop offset="1" stop-color="#fff" stop-opacity=".392"/></linearGradient><linearGradient id="b"><stop offset="0" stop-color="#f4f4f4"/><stop offset="1" stop-color="#dbdbdb"/></linearGradient><linearGradient gradientTransform="matrix(.2857 0 0 .3042 1.143 1.233)" gradientUnits="userSpaceOnUse" xlink:href="#b" id="f" y2="47.013" x2="25.132" y1=".985" x1="25.132"/><linearGradient id="c"><stop offset="0" stop-opacity=".34"/><stop offset="1" stop-opacity=".247"/></linearGradient><linearGradient gradientTransform="matrix(.2538 0 0 .305 19.13 .315)" gradientUnits="userSpaceOnUse" xlink:href="#c" id="h" y2="31.752" x2="-71.434" y1="35.03" x1="-16.273"/><linearGradient gradientTransform="matrix(0 -.2528 .3136 0 .208 13.257)" gradientUnits="userSpaceOnUse" xlink:href="#d" id="l" y2="24.628" x2="20.055" y1="15.298" x1="16.626"/><linearGradient id="d"><stop offset="0" stop-color="#fff"/><stop offset="1" stop-color="#fff" stop-opacity="0"/></linearGradient><linearGradient gradientTransform="matrix(.3142 0 0 .3333 -.44 .934)" gradientUnits="userSpaceOnUse" xlink:href="#c" id="k" y2="-40.164" x2="-24.098" y1="-13.091" x1="-24.032"/><linearGradient id="e"><stop offset="0" stop-color="#cdf87e"/><stop offset=".262" stop-color="#a2e34f"/><stop offset=".661" stop-color="#68b723"/><stop offset="1" stop-color="#1d7e0d"/></linearGradient><linearGradient id="i" gradientTransform="matrix(.0787 0 0 .085 18.225 4.95)" gradientUnits="userSpaceOnUse" x1="-96.557" x2="-96.557" y1="110.925" y2="39.992"><stop offset="0" stop-color="#e89c42"/><stop offset="1" stop-color="#faca67"/></linearGradient><linearGradient id="j" gradientTransform="matrix(.0787 0 0 .085 19.217 3.783)" gradientUnits="userSpaceOnUse" x1="-107.456" x2="-107.456" y1="-37.385" y2="38.561"><stop offset="0" stop-color="#0b85e9"/><stop offset="1" stop-color="#69d1ef"/></linearGradient></defs><g transform="rotate(90 8 8)"><path d="M1 14V2h14v12z" fill="url(#f)"/><path d="M14.5 2.5v11h-13v-11z" fill="none" stroke="url(#g)" stroke-linecap="round"/><path d="M.5 14.5v-13h15v13z" fill="none" stroke="url(#h)" stroke-linejoin="round"/><path d="M2.008 3.085v9.957h11.96V3.085z" fill="url(#i)"/><path d="M3 1.918V9c.177.088.402.168.645.168.555 0 1.098-.484 2.025-.484.927 0 1.624.61 2.793.61 1.17 0 1.434-.88 2.924-.88.995 0 1.267.243 1.613.408V1.92z" transform="rotate(-90 8 8)" fill="url(#j)"/><path d="M8.326 4.615c0 1.49.88 1.753.88 2.922 0 1.168-.606 1.866-.606 2.793s.482 1.47.482 2.025c0 .243-.08.468-.168.645H10c.077-.267.14-.612.14-1.025 0-1.052-.382-.9-.382-1.807 0-.907.625-1.44.625-2.666 0-1.517-1.008-1.864-1.008-3.064 0-.712.316-.926.47-1.438h-1.11c-.166.346-.41.618-.41 1.613v.002z" fill="#fff"/><rect width="10.976" height="8.955" rx="0" ry="0" x="-13.488" y="-12.572" transform="rotate(180) skewX(-.36)" fill="none" stroke="url(#k)" stroke-linecap="round"/><path d="M2 13l7.785-.004C9.778 12.66 7.652 3.254 7.55 3H2z" opacity=".15" fill="url(#l)" fill-rule="evenodd"/></g></svg>