<svg xmlns="http://www.w3.org/2000/svg" xmlns:xlink="http://www.w3.org/1999/xlink" height="16" width="16"><defs><linearGradient id="d"><stop offset="0" stop-color="#fff"/><stop offset=".2" stop-color="#fff" stop-opacity=".235"/><stop offset="1" stop-color="#fff" stop-opacity=".157"/><stop offset="1" stop-color="#fff" stop-opacity=".392"/></linearGradient><linearGradient id="a"><stop offset="0" stop-color="#f4f4f4"/><stop offset="1" stop-color="#dbdbdb"/></linearGradient><linearGradient id="b"><stop offset="0" stop-color="#fff"/><stop offset="0" stop-color="#fff" stop-opacity=".235"/><stop offset="1" stop-color="#fff" stop-opacity=".157"/><stop offset="1" stop-color="#fff" stop-opacity=".392"/></linearGradient><linearGradient id="c"><stop offset="0" stop-opacity=".34"/><stop offset="1" stop-opacity=".247"/></linearGradient><linearGradient xlink:href="#c" id="o" x1="12" y1="8" x2="12" y2="2" gradientUnits="userSpaceOnUse"/><linearGradient xlink:href="#a" id="n" x1="11" y1="1.415" x2="10.559" y2="8" gradientUnits="userSpaceOnUse"/><linearGradient xlink:href="#d" id="p" x1="11.512" y1="2" x2="11.439" y2="7" gradientUnits="userSpaceOnUse"/><linearGradient xlink:href="#a" id="k" gradientUnits="userSpaceOnUse" x1="11" y1="1.415" x2="10.559" y2="8"/><linearGradient xlink:href="#c" id="l" gradientUnits="userSpaceOnUse" x1="12" y1="8" x2="12" y2="2"/><linearGradient xlink:href="#d" id="m" gradientUnits="userSpaceOnUse" x1="11.512" y1="2" x2="11.439" y2="7"/><linearGradient xlink:href="#a" id="h" gradientUnits="userSpaceOnUse" x1="11" y1="1.415" x2="10.559" y2="8"/><linearGradient xlink:href="#c" id="i" gradientUnits="userSpaceOnUse" x1="12" y1="8" x2="12" y2="2"/><linearGradient xlink:href="#d" id="j" gradientUnits="userSpaceOnUse" x1="11.512" y1="2" x2="11.439" y2="7"/><linearGradient xlink:href="#a" id="e" gradientUnits="userSpaceOnUse" x1="11" y1="1.415" x2="10.559" y2="8"/><linearGradient xlink:href="#c" id="f" gradientUnits="userSpaceOnUse" x1="12" y1="8" x2="12" y2="2"/><linearGradient xlink:href="#d" id="g" gradientUnits="userSpaceOnUse" x1="11.512" y1="2" x2="11.439" y2="7"/></defs><path d="M9.5 1.5h4v6h-4v-6z" fill="url(#e)" stroke="url(#f)" stroke-width=".999" stroke-linejoin="round" transform="translate(0 8)"/><path d="M10 2v5h3V2zm1 1h1v3h-1z" fill="url(#g)" transform="translate(0 8)"/><path d="M9.5 1.5h4v6h-4v-6z" fill="url(#h)" stroke="url(#i)" stroke-width=".999" stroke-linejoin="round" transform="translate(-7 8)"/><path d="M10 2v5h3V2zm1 1h1v3h-1z" fill="url(#j)" transform="translate(-7 8)"/><g><path d="M9.5 1.5h4v6h-4v-6z" fill="url(#k)" stroke="url(#l)" stroke-width=".999" stroke-linejoin="round" transform="translate(-7)"/><path d="M10 2v5h3V2zm1 1h1v3h-1z" fill="url(#m)" transform="translate(-7)"/></g><g><path d="M9.5 1.5h4v6h-4v-6z" fill="url(#n)" stroke="url(#o)" stroke-width=".999" stroke-linejoin="round"/><path d="M10 2v5h3V2zm1 1h1v3h-1z" fill="url(#p)"/></g></svg>