<?xml version="1.0" encoding="UTF-8" standalone="no"?>
<svg
   xmlns:dc="http://purl.org/dc/elements/1.1/"
   xmlns:cc="http://creativecommons.org/ns#"
   xmlns:rdf="http://www.w3.org/1999/02/22-rdf-syntax-ns#"
   xmlns:svg="http://www.w3.org/2000/svg"
   xmlns="http://www.w3.org/2000/svg"
   xmlns:xlink="http://www.w3.org/1999/xlink"
   xmlns:sodipodi="http://sodipodi.sourceforge.net/DTD/sodipodi-0.dtd"
   xmlns:inkscape="http://www.inkscape.org/namespaces/inkscape"
   id="svg3942"
   height="16"
   width="16"
   version="1.1"
   sodipodi:docname="sc_snapborder.svg"
   inkscape:export-filename="/home/rizmut/Dokumen/Rizmut/Github/libreoffice-style-elementary/images_elementary/cmd/sc_snapborder.png"
   inkscape:export-xdpi="96"
   inkscape:export-ydpi="96"
   inkscape:version="0.92.3 (unknown)">
  <sodipodi:namedview
     pagecolor="#ffffff"
     bordercolor="#666666"
     borderopacity="1"
     objecttolerance="10"
     gridtolerance="10"
     guidetolerance="10"
     inkscape:pageopacity="0"
     inkscape:pageshadow="2"
     inkscape:window-width="1366"
     inkscape:window-height="706"
     id="namedview23"
     showgrid="true"
     inkscape:zoom="16"
     inkscape:cx="7.9583209"
     inkscape:cy="2.6012126"
     inkscape:window-x="0"
     inkscape:window-y="0"
     inkscape:window-maximized="1"
     inkscape:current-layer="g967">
    <inkscape:grid
       type="xygrid"
       id="grid2509" />
  </sodipodi:namedview>
  <defs
     id="defs3944">
    <linearGradient
       gradientTransform="matrix(0.25378586,0,0,0.30501865,19.128979,-0.68547704)"
       gradientUnits="userSpaceOnUse"
       xlink:href="#linearGradient3104-9"
       id="linearGradient3092"
       y2="2.9062471"
       x2="-51.786404"
       y1="50.786446"
       x1="-51.786404" />
    <linearGradient
       id="linearGradient3104-9">
      <stop
         offset="0"
         style="stop-color:#000000;stop-opacity:0.33950618"
         id="stop3106-5" />
      <stop
         offset="1"
         style="stop-color:#000000;stop-opacity:0.24691358"
         id="stop3108-5" />
    </linearGradient>
    <linearGradient
       gradientTransform="matrix(0.24324324,0,0,0.35135133,2.1621636,-0.43242804)"
       gradientUnits="userSpaceOnUse"
       xlink:href="#linearGradient3977"
       id="linearGradient3095"
       y2="41.076912"
       x2="23.99999"
       y1="6.9230647"
       x1="23.99999" />
    <linearGradient
       id="linearGradient3977">
      <stop
         offset="0"
         style="stop-color:#ffffff;stop-opacity:1"
         id="stop3979" />
      <stop
         offset="0"
         style="stop-color:#ffffff;stop-opacity:0.23529412"
         id="stop3981" />
      <stop
         offset="1"
         style="stop-color:#ffffff;stop-opacity:0.15686275"
         id="stop3983" />
      <stop
         offset="1"
         style="stop-color:#ffffff;stop-opacity:0.39215687"
         id="stop3985" />
    </linearGradient>
    <linearGradient
       id="linearGradient3600">
      <stop
         offset="0"
         style="stop-color:#f4f4f4;stop-opacity:1"
         id="stop3602" />
      <stop
         offset="1"
         style="stop-color:#dbdbdb;stop-opacity:1"
         id="stop3604" />
    </linearGradient>
    <linearGradient
       gradientTransform="matrix(0.28571361,0,0,0.30419701,1.1428727,0.2326048)"
       gradientUnits="userSpaceOnUse"
       xlink:href="#linearGradient3600"
       id="linearGradient3940"
       y2="47.013336"
       x2="25.132275"
       y1="0.98520643"
       x1="25.132275" />
    <linearGradient
       inkscape:collect="always"
       xlink:href="#linearGradient1666"
       id="linearGradient1668"
       x1="46.984623"
       y1="10"
       x2="46.984623"
       y2="23"
       gradientUnits="userSpaceOnUse" />
    <linearGradient
       inkscape:collect="always"
       id="linearGradient1666">
      <stop
         style="stop-color:#c6262e;stop-opacity:1;"
         offset="0"
         id="stop1662" />
      <stop
         style="stop-color:#b5232a;stop-opacity:1"
         offset="1"
         id="stop1664" />
    </linearGradient>
    <linearGradient
       inkscape:collect="always"
       xlink:href="#k-1"
       id="linearGradient1660"
       x1="46.984623"
       y1="11.46967"
       x2="46.984623"
       y2="20"
       gradientUnits="userSpaceOnUse" />
    <linearGradient
       id="k-1"
       gradientTransform="matrix(0,-0.59172,-0.63517,0,9.814467,30.721957)"
       gradientUnits="userSpaceOnUse"
       x1="38.941002"
       x2="20.576"
       y1="15.991"
       y2="15.991">
      <stop
         offset="0"
         stop-color="#fff"
         id="stop1035" />
      <stop
         offset="0.12500004"
         stop-color="#fff"
         stop-opacity=".235"
         id="stop1037" />
      <stop
         offset="0.93855339"
         stop-color="#fff"
         stop-opacity=".157"
         id="stop1039" />
      <stop
         offset="1"
         stop-color="#fff"
         stop-opacity=".392"
         id="stop1041" />
    </linearGradient>
  </defs>
  <metadata
     id="metadata3947">
    <rdf:RDF>
      <cc:Work
         rdf:about="">
        <dc:format>image/svg+xml</dc:format>
        <dc:type
           rdf:resource="http://purl.org/dc/dcmitype/StillImage" />
        <dc:title />
      </cc:Work>
    </rdf:RDF>
  </metadata>
  <g
     id="g1960">
    <path
       style="display:inline;fill:url(#linearGradient3940);fill-opacity:1;stroke:none"
       id="path4160"
       d="m 3,1 c 2.2915074,0 9.999988,8.904e-4 9.999988,8.904e-4 L 13,15 C 13,15 6.3333332,15 3,15 3,10.333334 3,5.6666664 3,1 Z" />
    <path
       style="fill:none;stroke:url(#linearGradient3095);stroke-width:1;stroke-linecap:round;stroke-linejoin:miter;stroke-miterlimit:4;stroke-dasharray:none;stroke-dashoffset:0;stroke-opacity:1"
       id="rect6741-1"
       d="M 12.5,14.5 H 3.4999999 V 1.5 H 12.5 Z" />
    <path
       style="display:inline;fill:none;stroke:url(#linearGradient3092);stroke-width:0.99992192;stroke-linecap:butt;stroke-linejoin:round;stroke-miterlimit:4;stroke-dasharray:none;stroke-dashoffset:0;stroke-opacity:1"
       id="path4160-8"
       d="m 2.4999621,0.49997396 c 2.5206756,0 11.0000629,9.54e-4 11.0000629,9.54e-4 l 1.3e-5,14.99909804 c 0,0 -7.3333841,0 -11.000076,0 0,-5.000017 0,-10.000035 10e-8,-15.00005204 z" />
  </g>
  <g
     id="g967"
     transform="translate(-35.984624,-5.0000003)">
    <path
       d="m 46.358458,11.484261 c 0.60732,-0.0028 1.125775,0.04938 1.555347,0.148128 2.436367,0.560409 3.517721,1.603455 3.547891,3.867858 -0.07716,1.84436 -0.905194,2.917939 -2.832173,3.821888 -0.444385,0.108628 -1.494965,0.176169 -2.245478,0.178566 l -3.890786,0.01792 -0.0056,-3.018851 4.082153,-0.0023 c 2.001672,-0.05235 1.98388,-1.945866 0.0039,-2.00216 l -4.081751,0.0023 v -2.99543 z"
       style="font-style:normal;font-variant:normal;font-weight:bold;font-stretch:normal;font-size:medium;line-height:1.25;font-family:Aharoni;-inkscape-font-specification:'Aharoni Bold';letter-spacing:0px;word-spacing:0px;fill:url(#linearGradient1668);fill-opacity:1;stroke:#2a0303;stroke-width:1;stroke-miterlimit:4;stroke-dasharray:none;stroke-opacity:0.49019608"
       id="path948"
       inkscape:connector-curvature="0"
       sodipodi:nodetypes="scccsccccccs" />
    <path
       id="path961"
       d="m 42.492001,11.502459 v 2.995225 l 2.501953,-0.0078 v -2.987425 z m 2.507008,4.99033 -2.501953,0.0078 0.006,2.510596 h 2.501953 z"
       style="font-style:normal;font-variant:normal;font-weight:bold;font-stretch:normal;font-size:medium;line-height:1.25;font-family:Aharoni;-inkscape-font-specification:'Aharoni Bold';letter-spacing:0px;word-spacing:0px;fill:#eeeeee;fill-opacity:0.76102941;stroke:none;stroke-width:1;stroke-miterlimit:4;stroke-dasharray:none;stroke-opacity:0.49019608"
       inkscape:connector-curvature="0"
       sodipodi:nodetypes="cccccccccc" />
    <path
       id="path951"
       d="m 46.358092,11.484546 -3.866091,0.01791 v 1 l 3.866091,-0.01792 c 0.607323,-0.0019 1.127069,0.04969 1.55664,0.148437 2.096696,0.597539 3.518977,2.717594 3.547547,2.867022 -0.03017,-2.264403 -1.111179,-3.306613 -3.547546,-3.867022 -0.429571,-0.09875 -0.949317,-0.150337 -1.55664,-0.148437 z m 1.507675,3.497007 c 0.668805,1.253122 -0.513327,1.666595 -1.295055,1.51676 l -4.083422,0.0023 0.002,1 4.081469,-0.0023 c 1.369909,-0.03583 1.797028,-1.945415 1.295055,-2.51676 z"
       style="font-style:normal;font-variant:normal;font-weight:bold;font-stretch:normal;font-size:medium;line-height:1.25;font-family:Aharoni;-inkscape-font-specification:'Aharoni Bold';letter-spacing:0px;word-spacing:0px;opacity:0.1;fill:#206b00;fill-opacity:1;stroke:#ffffff;stroke-width:1;stroke-miterlimit:4;stroke-dasharray:none;stroke-opacity:1"
       inkscape:connector-curvature="0"
       sodipodi:nodetypes="cccccccccccccccc" />
    <path
       style="font-style:normal;font-variant:normal;font-weight:bold;font-stretch:normal;font-size:medium;line-height:1.25;font-family:Aharoni;-inkscape-font-specification:'Aharoni Bold';letter-spacing:0px;word-spacing:0px;opacity:0.52999998;fill:none;fill-opacity:1;stroke:url(#linearGradient1660);stroke-width:1;stroke-miterlimit:4;stroke-dasharray:none;stroke-opacity:0.91544118"
       d="m 46.361998,12.468921 -2.909592,0.01596 0.02397,1.024522 3.093186,0.0016 c 0.01042,-1.65e-4 0.02083,-1.65e-4 0.03125,0 2.490553,0.0904 2.874485,2.412579 1.676931,3.459948 -0.45423,0.332825 -1.028846,0.494646 -1.681641,0.511719 -0.0072,7.8e-5 -0.01432,7.8e-5 -0.02148,0 l -3.101,-0.0016 0.02752,1.039881 2.903734,-0.01401 c 0.662081,-0.0021 1.659313,-0.09435 1.919922,-0.142578 1.440953,-0.6353 2.218409,-1.848071 2.143386,-2.887798 0.155473,-1.85781 -1.365798,-2.698505 -2.774108,-2.8846 -0.33354,-0.07667 -0.782226,-0.124767 -1.332031,-0.123047 z"
       id="path1619"
       inkscape:connector-curvature="0"
       sodipodi:nodetypes="cccccccccccccccc" />
  </g>
</svg>
