<?xml version="1.0" encoding="UTF-8" standalone="no"?>
<svg
   xmlns:dc="http://purl.org/dc/elements/1.1/"
   xmlns:cc="http://creativecommons.org/ns#"
   xmlns:rdf="http://www.w3.org/1999/02/22-rdf-syntax-ns#"
   xmlns:svg="http://www.w3.org/2000/svg"
   xmlns="http://www.w3.org/2000/svg"
   xmlns:sodipodi="http://sodipodi.sourceforge.net/DTD/sodipodi-0.dtd"
   xmlns:inkscape="http://www.inkscape.org/namespaces/inkscape"
   viewBox="0 0 16 16"
   version="1.1"
   id="svg60"
   sodipodi:docname="sc_showpropbrowser.svg"
   inkscape:version="0.92.3 (2405546, 2018-03-11)"><metadata
   id="metadata66">
  <rdf:RDF>
    <cc:Work
       rdf:about="">
      <dc:format>image/svg+xml</dc:format>
      <dc:type
         rdf:resource="http://purl.org/dc/dcmitype/StillImage" />
      <dc:title></dc:title>
    </cc:Work>
  </rdf:RDF>
</metadata>
<defs
   id="defs64">
  <linearGradient
     id="b-3"
     gradientUnits="userSpaceOnUse"
     x1="14"
     x2="6"
     y1="8"
     y2="16">
    <stop
       offset="0"
       stop-color="#fff"
       id="stop7-6" />
    <stop
       offset=".125"
       stop-color="#fff"
       stop-opacity="0"
       id="stop9-7" />
    <stop
       offset="1"
       stop-color="#fff"
       stop-opacity="0"
       id="stop11-5" />
  </linearGradient>
  <clipPath
     id="c-3">
    <path
       inkscape:connector-curvature="0"
       d="M 8,2.6855469 V 16.685547 l 3.132812,-3.820313 2.066407,4.986328 a 1.0001,1.0001 0 1 0 1.847656,-0.765624 L 12.935547,11.990234 17.314453,12 Z"
       id="path14" />
  </clipPath>
  <linearGradient
     id="a-5"
     gradientUnits="userSpaceOnUse"
     x1="9.9784946"
     x2="9.9784946"
     y1="13.912886"
     y2="-5.8720589">
    <stop
       offset="0"
       id="stop2-6" />
    <stop
       offset="1"
       stop-color="#333"
       id="stop4-2" />
  </linearGradient>
</defs>
<sodipodi:namedview
   pagecolor="#ffffff"
   bordercolor="#666666"
   borderopacity="1"
   objecttolerance="10"
   gridtolerance="10"
   guidetolerance="10"
   inkscape:pageopacity="0"
   inkscape:pageshadow="2"
   inkscape:window-width="1366"
   inkscape:window-height="696"
   id="namedview62"
   showgrid="false"
   inkscape:zoom="14.75"
   inkscape:cx="8"
   inkscape:cy="8"
   inkscape:window-x="0"
   inkscape:window-y="0"
   inkscape:window-maximized="1"
   inkscape:current-layer="svg60" />
<linearGradient
   id="a"
   gradientUnits="userSpaceOnUse"
   x1="9.843156"
   x2="10.938993"
   y1="5.636917"
   y2="10.837817">
  <stop
     offset="0"
     stop-color="#64baff"
     id="stop2" />
  <stop
     offset="1"
     stop-color="#3689e6"
     id="stop4" />
</linearGradient>
<radialGradient
   id="b"
   cx="64.575233"
   cy="48.605404"
   gradientTransform="matrix(0 .38528829 -.41958841 0 32.389496 -16.793007)"
   gradientUnits="userSpaceOnUse"
   r="31.000002">
  <stop
     offset="0"
     stop-color="#cdf87e"
     id="stop7" />
  <stop
     offset=".26238"
     stop-color="#a2e34f"
     id="stop9" />
  <stop
     offset=".66093999"
     stop-color="#68b723"
     id="stop11" />
  <stop
     offset="1"
     stop-color="#1d7e0d"
     id="stop13" />
</radialGradient>
<linearGradient
   id="c"
   gradientTransform="matrix(.04089215 0 0 .44199979 -16.518546 -90.06334)"
   gradientUnits="userSpaceOnUse"
   x1="292.857"
   x2="292.857"
   y1="211.076"
   y2="233.827">
  <stop
     offset="0"
     id="stop16" />
  <stop
     offset="1"
     stop-opacity="0"
     id="stop18" />
</linearGradient>
<linearGradient
   id="d"
   gradientTransform="matrix(.67911689 0 0 .50770063 -435.40827 -335.44457)"
   gradientUnits="userSpaceOnUse"
   x1="731.057"
   x2="731.057"
   y1="654.815"
   y2="619.307">
  <stop
     offset="0"
     stop-color="#55c1ec"
     id="stop21" />
  <stop
     offset="1"
     stop-color="#3689e6"
     id="stop23" />
</linearGradient>

/&amp;amp;amp;gt;<g
   transform="translate(-.123941 -2.147247)"
   id="g32">
  <circle
     cx="9.983051"
     cy="8.288137"
     fill="#fdfdfb"
     r="5.64089"
     stroke="#8c8c8c"
     stroke-linecap="round"
     stroke-linejoin="round"
     id="circle26" />
  <circle
     cx="9.983051"
     cy="8.288137"
     fill="url(#a)"
     r="3.384534"
     stroke-width=".752119"
     id="circle28" />
  <circle
     cx="9.983051"
     cy="8.288137"
     fill="none"
     opacity=".5"
     r="3.384534"
     stroke="#002e99"
     stroke-linecap="round"
     stroke-linejoin="round"
     id="circle30" />
</g>
<g
   transform="matrix(.82517743 0 0 .82517743 .073733 4.466793)"
   id="g46">
  <rect
     fill="url(#d)"
     height="10.125998"
     opacity=".99"
     rx="1.26575"
     stroke-width=".843833"
     transform="scale(-1)"
     width="10.125998"
     x="-11.113794"
     y="-13.032814"
     id="rect34" />
  <rect
     height="10.969831"
     rx="1.687666"
     style="opacity:.3;fill:none;stroke:#000;stroke-width:1.211861;stroke-linecap:round;stroke-linejoin:round"
     transform="scale(-1 1)"
     width="10.969831"
     x="-11.480678"
     y="2.400877"
     id="rect36" />
  <g
     stroke-width=".843833"
     id="g44">
    <path
       d="m9.4151586 4.2772008 1.6986354 1.5290256-5.7085309 7.5438696-4.41746629-3.8056892 1.46151889-1.9374406 2.5821294 2.2429088z"
       fill="#2f78c7"
       fill-opacity=".992"
       id="path38" />
    <path
       d="m9.4151586 3.4333676 1.6986354 1.5290257-5.7085309 7.5438687-4.41746629-3.8056881 1.46151889-1.9374408 2.5821294 2.2429084z"
       fill="#fff"
       id="path40" />
    <rect
       fill="none"
       height="9.282165"
       opacity=".05"
       rx=".843833"
       stroke="url(#c)"
       stroke-linecap="round"
       stroke-linejoin="round"
       transform="scale(-1 1)"
       width="9.282165"
       x="-10.691878"
       y="3.328732"
       id="rect42" />
  </g>
</g>
<g
   transform="matrix(0.69327406,0,0,0.69327406,4.147082,5.9999998)"
   id="g50">
  <path
     style="opacity:0.05;fill-rule:evenodd;stroke:#000000;stroke-width:4.32729292;stroke-linejoin:round"
     inkscape:connector-curvature="0"
     d="M 8.1884834,1.6672989 V 12.667298 l 2.5652276,-2.9424834 2.044188,3.7280744 c 0.494727,1.242916 2.142881,-0.74317 1.613492,-1.971723 L 12.537062,8.8592226 15.654586,8.654586 Z"
     id="path40-9" />
  <path
     style="opacity:0.2;fill-rule:evenodd;stroke:#000000;stroke-width:2;stroke-linejoin:round"
     inkscape:connector-curvature="0"
     d="M 8.1884834,1.6672989 V 12.667298 l 2.5652276,-2.9424834 2.044188,3.7280744 c 0.494727,1.242916 2.142881,-0.74317 1.613492,-1.971723 L 12.537062,8.8592226 15.654586,8.654586 Z"
     id="path42" />
  <path
     style="fill:none;stroke:#ffffff;stroke-width:2.88486195"
     inkscape:connector-curvature="0"
     d="M 7,0 V 11 L 9.5652277,8.0575157 11.609416,11.78559 c 0.494704,1.24297 2.357232,0.471184 1.827788,-0.757391 L 11.348579,7.1919247 14.466102,6.9872881 Z"
     id="path44" />
  <path
     style="opacity:0.4;fill:none;stroke:url(#b-3);stroke-width:2.916219"
     inkscape:connector-curvature="0"
     clip-path="url(#c-3)"
     d="M 6.9891304,6.9358866 V 18.055452 l 2.59311,-2.974467 2.0664066,3.768597 c 0.500102,1.256433 2.382807,0.476286 1.847656,-0.765624 l -2.111328,-3.877973 3.151411,-0.206867 z"
     transform="matrix(0.98924729,0,0,0.98924729,0.086022,-6.861307)"
     id="path46" />
  <path
     style="fill:url(#a-5);fill-rule:evenodd"
     inkscape:connector-curvature="0"
     d="M 7,0 V 11 L 9.5652277,8.0575157 11.609416,11.78559 c 0.494704,1.24297 2.357232,0.471184 1.827788,-0.757391 L 11.348579,7.1919247 15,7 Z"
     id="path48" />
</g>
</svg>
