<svg xmlns="http://www.w3.org/2000/svg" xmlns:xlink="http://www.w3.org/1999/xlink" height="16" width="16"><defs><linearGradient gradientTransform="matrix(.24324 0 0 .35135 2.162 .568)" gradientUnits="userSpaceOnUse" xlink:href="#a" id="g" y2="21.153" x2="56.89" y1="21.153" x1="-.666"/><linearGradient id="a"><stop offset="0" stop-color="#fff"/><stop offset=".029" stop-color="#fff" stop-opacity=".235"/><stop offset=".972" stop-color="#fff" stop-opacity=".157"/><stop offset="1" stop-color="#fff" stop-opacity=".392"/></linearGradient><linearGradient id="b"><stop offset="0" stop-color="#f4f4f4"/><stop offset="1" stop-color="#dbdbdb"/></linearGradient><linearGradient gradientTransform="matrix(.2857 0 0 .3042 1.143 1.233)" gradientUnits="userSpaceOnUse" xlink:href="#b" id="f" y2="20.538" x2="49.295" y1="20.526" x1="9.695"/><linearGradient id="c"><stop offset="0" stop-opacity=".34"/><stop offset="1" stop-opacity=".247"/></linearGradient><linearGradient gradientTransform="matrix(.2538 0 0 .305 19.13 .315)" gradientUnits="userSpaceOnUse" xlink:href="#c" id="h" y2="31.752" x2="-71.434" y1="35.03" x1="-16.273"/><linearGradient id="d"><stop offset="0" stop-color="#fff"/><stop offset="1" stop-color="#fff" stop-opacity="0"/></linearGradient><linearGradient xlink:href="#c" id="k" gradientUnits="userSpaceOnUse" gradientTransform="matrix(.2538 0 0 .305 21.082 2.295)" x1="-51.786" y1="50.786" x2="-51.786" y2="2.906"/><linearGradient xlink:href="#e" id="j" gradientUnits="userSpaceOnUse" gradientTransform="matrix(.2432 0 0 .3513 4.114 2.548)" x1="24" y1="6.923" x2="24" y2="41.077"/><linearGradient id="e"><stop offset="0" stop-color="#fff"/><stop offset="0" stop-color="#fff" stop-opacity=".235"/><stop offset="1" stop-color="#fff" stop-opacity=".157"/><stop offset="1" stop-color="#fff" stop-opacity=".392"/></linearGradient><linearGradient xlink:href="#b" id="i" gradientUnits="userSpaceOnUse" gradientTransform="matrix(.2857 0 0 .3042 3.095 3.213)" x1="25.132" y1=".985" x2="25.132" y2="47.013"/><linearGradient gradientTransform="translate(2.47 1.992)" id="l" gradientUnits="userSpaceOnUse" x1="8.066" x2="8.07" y1="13.017" y2="5.441"><stop offset="0" stop-color="#fff"/><stop offset="1" stop-color="#fff" stop-opacity="0"/></linearGradient></defs><path d="M1 14V2h14v12z" fill="url(#f)" transform="rotate(90 7.5 7.5)"/><path d="M14.5 2.5v11h-13v-11z" fill="none" stroke="url(#g)" stroke-linecap="round" transform="rotate(90 7.5 7.5)"/><path d="M.5 14.5v-13h15v13z" fill="none" stroke="url(#h)" stroke-linejoin="round" transform="rotate(90 7.5 7.5)"/><path d="M4.952 3.98h10L15 15H5z" fill="url(#i)"/><path d="M14.5 14.5h-9L5.452 4.48h9z" fill="none" stroke="url(#j)" stroke-linecap="round"/><path d="M4.452 3.48h11L15.5 15.5h-11z" fill="none" stroke="url(#k)" stroke-linejoin="round"/><path d="M13.735 11l-3.266 3.63L7.2 11H9.38V7.355h2.178V11z" opacity=".6" fill="none" stroke="url(#l)" stroke-width=".726" stroke-linecap="round"/><path d="M13.735 10l-3.266 3.63L7.2 10H9.38V6.355h2.178V10z" fill="#46a8ea" fill-opacity=".984" stroke="#2f78c8" stroke-width=".726" stroke-linecap="round"/></svg>