<svg xmlns="http://www.w3.org/2000/svg" xmlns:xlink="http://www.w3.org/1999/xlink" viewBox="0 0 16 16"><defs><linearGradient id="b"><stop offset="0" stop-color="#555753" stop-opacity=".022"/><stop offset=".03" stop-color="#555753" stop-opacity=".51"/><stop offset="1" stop-color="#555753"/></linearGradient><linearGradient id="a"><stop offset="0" stop-color="#d3d7cf" stop-opacity=".871"/><stop offset=".062" stop-color="#d3d7cf" stop-opacity=".933"/><stop offset="1" stop-color="#d3d7cf"/></linearGradient><linearGradient xlink:href="#a" id="m" y1="12" x2="15.356" y2="12" gradientUnits="userSpaceOnUse"/><linearGradient xlink:href="#b" id="n" x1=".004" y1="12.506" x2="16" y2="12.506" gradientUnits="userSpaceOnUse"/><linearGradient gradientTransform="translate(-35.985 -5)" xlink:href="#c" id="r" x1="46.985" y1="11.47" x2="46.985" y2="20" gradientUnits="userSpaceOnUse"/><linearGradient id="c" gradientTransform="matrix(0 -.59172 -.63517 0 9.814 30.722)" gradientUnits="userSpaceOnUse" x1="38.941" x2="20.576" y1="15.991" y2="15.991"><stop offset="0" stop-color="#fff"/><stop offset=".125" stop-color="#fff" stop-opacity=".235"/><stop offset=".939" stop-color="#fff" stop-opacity=".157"/><stop offset="1" stop-color="#fff" stop-opacity=".392"/></linearGradient><linearGradient gradientTransform="translate(-35.985 -5)" xlink:href="#d" id="q" x1="46.985" y1="10" x2="46.985" y2="23" gradientUnits="userSpaceOnUse"/><linearGradient id="d"><stop offset="0" stop-color="#c6262e"/><stop offset="1" stop-color="#b5232a"/></linearGradient></defs><linearGradient id="i" gradientTransform="matrix(.77778 0 0 .77778 -18.417 111.862)" gradientUnits="userSpaceOnUse" x1="12.198" x2="15.699" xlink:href="#e" y1="401.096" y2="404.598"/><linearGradient id="e"><stop offset="0" stop-color="#d3d7cf"/><stop offset="1" stop-color="#fafbfa"/></linearGradient><linearGradient id="j" gradientTransform="matrix(.58334 0 0 .5834 -15.792 190.098)" gradientUnits="userSpaceOnUse" x1="12.816" x2="12.816" xlink:href="#f" y1="400.389" y2="406.511"/><linearGradient id="g"><stop offset="0" stop-color="#fff"/><stop offset="1" stop-color="#fff" stop-opacity="0"/></linearGradient><linearGradient id="f" xlink:href="#g"/><linearGradient id="k" gradientUnits="userSpaceOnUse" x1="-10.096" x2="-7.373" xlink:href="#e" y1="423.825" y2="426.548"/><linearGradient id="l" gradientTransform="matrix(.58333 0 0 .5834 -16.958 190.1)" gradientUnits="userSpaceOnUse" x1="12.816" x2="12.816" xlink:href="#f" y1="400.389" y2="406.511"/><linearGradient id="o" gradientTransform="translate(-21.1 49.835) scale(.93333)" gradientUnits="userSpaceOnUse" x1="12.198" x2="15.699" xlink:href="#e" y1="401.096" y2="404.598"/><linearGradient id="p" gradientTransform="matrix(.7 0 0 .7 -17.95 143.75)" gradientUnits="userSpaceOnUse" x1="12.816" x2="12.816" xlink:href="#f" y1="400.389" y2="406.511"/><linearGradient id="h"><stop offset="0" stop-color="#d88f22"/><stop offset="1" stop-color="#d88f22" stop-opacity="0"/></linearGradient><g opacity=".5" stroke-linecap="round"><path d="M-1.5 2.5h7v2h-7z" fill="#d3d7cf" stroke="#555753" stroke-linejoin="round"/><g stroke-width="1.167"><path d="M-10.25 422.583h4.667v4.667h-4.667z" fill="url(#i)" stroke="#888a85" stroke-linejoin="round" transform="translate(11.286 -360.714) scale(.85714)"/><path d="M-9.083 423.75h2.333v2.333h-2.333z" fill="none" stroke="url(#j)" transform="translate(11.286 -360.714) scale(.85714)"/></g><path d="M10.5 2.5h7v2h-7z" fill="#d3d7cf" stroke="#555753" stroke-linejoin="round"/><g stroke-width="1.167"><path d="M-11.417 422.584h4.667v4.666h-4.667z" fill="url(#k)" stroke="#888a85" stroke-linejoin="round" transform="translate(19.286 -360.714) scale(.85714)"/><path d="M-10.25 423.75h2.333v2.333h-2.333z" fill="none" stroke="url(#l)" transform="translate(19.286 -360.714) scale(.85714)"/></g></g><path d="M.504 11.513L15.5 11.5v2l-14.996.013z" fill="url(#m)" stroke="url(#n)" stroke-linecap="round" stroke-linejoin="round"/><g stroke-linecap="round" stroke-width="1.4"><path d="M-11.3 422.7h5.6v5.6h-5.6z" fill="url(#o)" stroke="#888a85" stroke-linejoin="round" transform="matrix(.7143 0 0 .71428 11.57 -291.428)"/><path d="M-9.9 424.1h2.8v2.8h-2.8z" fill="none" stroke="url(#p)" transform="matrix(.7143 0 0 .71428 11.57 -291.428)"/></g><g font-weight="bold" font-family="Aharoni" letter-spacing="0" word-spacing="0"><path style="line-height:1.25;-inkscape-font-specification:'Aharoni Bold'" d="M10.374 6.484c.607-.003 1.126.05 1.555.148 2.436.56 3.517 1.604 3.547 3.868-.077 1.845-.905 2.918-2.832 3.822-.444.11-1.495.176-2.246.18l-3.89.017-.007-3.02 4.082-.003c2.002-.052 1.984-1.945.004-2.002l-4.083.003V6.502z" fill="url(#q)" stroke="#2a0303" stroke-opacity=".49" transform="translate(0 1)"/><path style="line-height:1.25;-inkscape-font-specification:'Aharoni Bold'" d="M6.507 7.502v2.996l2.502-.008V7.502zm2.507 4.99l-2.502.01.006 2.51H9.02z" fill="#eee" fill-opacity=".761"/><path style="line-height:1.25;-inkscape-font-specification:'Aharoni Bold'" d="M10.373 7.485l-3.866.017v1l3.866-.017c.608-.002 1.128.05 1.557.148 2.097.598 3.52 2.718 3.548 2.867-.03-2.264-1.112-3.307-3.548-3.867-.43-.1-.95-.15-1.557-.148zm1.508 3.497c.67 1.253-.512 1.666-1.294 1.516l-4.083.003.002 1 4.08-.002c1.37-.036 1.798-1.945 1.296-2.516z" opacity=".1" fill="#206b00" stroke="#fff"/><path d="M10.377 7.47l-2.91.015.025 1.024H10.615c2.492.09 2.876 2.414 1.678 3.46-.454.334-1.03.496-1.682.513h-.02l-3.1-.002.027 1.04 2.903-.013c.662-.002 1.66-.094 1.92-.143 1.44-.635 2.22-1.848 2.144-2.887.155-1.858-1.366-2.7-2.775-2.885-.334-.077-.783-.125-1.333-.123z" style="line-height:1.25;-inkscape-font-specification:'Aharoni Bold'" opacity=".53" fill="none" stroke="url(#r)" stroke-opacity=".915" transform="translate(0 1)"/></g></svg>