<svg xmlns="http://www.w3.org/2000/svg" height="16" width="16"><defs><linearGradient id="b" x1="24" gradientUnits="userSpaceOnUse" y1="6.549" gradientTransform="translate(.974 -7.028) scale(.45946)" x2="24" y2="41.414"><stop stop-color="#fff" offset="0"/><stop stop-color="#fff" stop-opacity=".235" offset="0"/><stop stop-color="#fff" stop-opacity=".157" offset="1"/><stop stop-color="#fff" stop-opacity=".392" offset="1"/></linearGradient><linearGradient id="a" y2="-.07" gradientUnits="userSpaceOnUse" x2="14.33" gradientTransform="translate(.923 -15.077) scale(.6923)" y1="20.333" x1="14.556"><stop stop-color="#fafafa" offset="0"/><stop stop-color="#d4d4d4" offset="1"/></linearGradient><linearGradient id="c" y2="22.468" gradientUnits="userSpaceOnUse" x2="16.961" gradientTransform="matrix(1.054 0 0 1.22 -.878 -4.413)" y1="17.55" x1="16.961"><stop stop-color="#fafafa" offset="0"/><stop stop-color="#e1e1e1" offset="1"/></linearGradient><linearGradient id="d" y2="22.587" gradientUnits="userSpaceOnUse" x2="17.956" y1="17.535" x1="19.294"><stop stop-color="#fff" offset="0"/><stop stop-color="#fff" stop-opacity=".235" offset=".508"/><stop stop-color="#fff" stop-opacity=".157" offset=".835"/><stop stop-color="#fff" stop-opacity=".392" offset="1"/></linearGradient><linearGradient id="e" gradientTransform="matrix(-.998 0 0 -.998 45.982 33.858)" gradientUnits="userSpaceOnUse" x1="35.453" x2="35.453" y1="31.551" y2="18.89"><stop offset="0" stop-color="#fff"/><stop offset="1" stop-color="#fff" stop-opacity="0"/></linearGradient></defs><rect color="#000" fill="url(#a)" height="14" x="1" y="-15" width="14" ry=".5" transform="scale(1 -1)" rx=".5"/><rect color="#000" fill="none" x=".502" y=".501" stroke-linecap="round" stroke="#555761" width="14.992" height="14.996" ry="1" rx="1" stroke-linejoin="round" opacity=".344"/><path d="M1.493 1.5h13.005v13H1.493z" fill="none" stroke-linecap="round" stroke="url(#b)" stroke-linejoin="round"/><path color="#000" fill="#fff" fill-rule="evenodd" d="M3.978 14.426a.997.997 0 0 1-1.994 0 .997.997 0 1 1 1.994 0z"/><path color="#000" fill-rule="evenodd" d="M4 14.004a.997.997 0 0 1-1.994 0 .997.997 0 1 1 1.994 0z" opacity=".3"/><g color="#000" fill-rule="evenodd"><path fill="#fff" d="M13.978 14.426a.997.997 0 0 1-1.994 0 .997.997 0 1 1 1.994 0z"/><path d="M14 14.004a.997.997 0 0 1-1.994 0 .997.997 0 1 1 1.994 0z" opacity=".3"/></g><g color="#000" fill-rule="evenodd"><path fill="#fff" d="M4.03 3.282a.997.997 0 0 1-1.993 0 .997.997 0 1 1 1.994 0z"/><path d="M4 3.004a.997.997 0 0 1-1.994 0 .997.997 0 1 1 1.994 0z" opacity=".3"/><path fill="#fff" d="M14.03 3.282a.997.997 0 0 1-1.993 0 .997.997 0 1 1 1.994 0z"/><path d="M14 3.004a.997.997 0 0 1-1.994 0 .997.997 0 1 1 1.994 0z" opacity=".3"/></g><g transform="matrix(.998 0 0 1.19 -10.967 -15.284)"><rect fill="url(#c)" x="13.485" y="17.463" width="11.003" height="5.077" ry="1.049" rx="1.065"/><rect fill="none" stroke-width=".918" x="14.485" y="18.335" stroke-linecap="round" stroke="url(#d)" width="9.078" height="3.303" ry="0" rx="0" stroke-linejoin="round"/><rect fill="none" stroke-width=".918" x="13.446" y="17.51" stroke="#656565" width="11.1" height="4.965" ry=".846" rx="1.063" opacity=".5"/></g><g transform="translate(-7 -13)" fill="#4d4d4d"><rect x="12" y="20" width="1" height="1" rx="0"/><rect x="13" y="19" width="1" height="1" rx="0"/><rect x="14" y="20" width="1" height="1" rx="0"/><rect x="12" y="21" width="1" height="1" rx="0"/><rect x="14" y="21" width="1" height="1" rx="0"/><rect x="13" y="22" width="1" height="1" rx="0"/><rect x="16" y="19" width="1" height="1" rx="0"/><rect x="16" y="20" width="1" height="1" rx="0"/><rect x="16" y="21" width="1" height="1" rx="0"/><rect x="16" y="22" width="1" height="1" rx="0"/><rect x="18" y="19" width="1" height="1" rx="0"/><rect x="17" y="20" width="1" height="1" rx="0"/><rect x="18" y="21" width="1" height="1" rx="0"/><rect x="18" y="22" width="1" height="1" rx="0"/></g><g><path d="M15.5 15.5L.5.5v15zm-7-3h-5v-5z" fill="#9cde4a" fill-rule="evenodd"/><path d="M13.093 14.5L1.5 2.875V14.5z" fill="none" stroke="url(#e)"/><path d="M15.5 15.5L.5.5v15zm-7-3h-5v-5z" fill="none" stroke="#5ca12a" stroke-linejoin="round"/></g></svg>