<svg height="16" width="16" xmlns="http://www.w3.org/2000/svg" xmlns:xlink="http://www.w3.org/1999/xlink"><linearGradient id="a" gradientTransform="matrix(.25378586 0 0 .30501865 19.128979 -.685477)" gradientUnits="userSpaceOnUse" x1="-51.786404" x2="-51.786404" y1="50.786446" y2="2.906247"><stop offset="0" stop-opacity=".339506"/><stop offset="1" stop-opacity=".246914"/></linearGradient><linearGradient id="b" gradientTransform="matrix(.24324324 0 0 .35135133 2.162164 -.432428)" gradientUnits="userSpaceOnUse" x1="23.99999" x2="23.99999" y1="6.923065" y2="41.076912"><stop offset="0" stop-color="#fff"/><stop offset="0" stop-color="#fff" stop-opacity=".235294"/><stop offset="1" stop-color="#fff" stop-opacity=".156863"/><stop offset="1" stop-color="#fff" stop-opacity=".392157"/></linearGradient><linearGradient id="c" gradientTransform="matrix(.28571361 0 0 .30419701 1.142873 .232605)" gradientUnits="userSpaceOnUse" x1="25.132275" x2="25.132275" y1=".985206" y2="47.013336"><stop offset="0" stop-color="#f4f4f4"/><stop offset="1" stop-color="#dbdbdb"/></linearGradient><linearGradient id="d" gradientTransform="matrix(.48571482 0 0 .477213 -1.680148 -2.747319)" gradientUnits="userSpaceOnUse" x1="22.004084" x2="22.004084" y1="47.813133" y2="3.363852"><stop offset="0" stop-color="#aaa"/><stop offset="1" stop-color="#c8c8c8"/></linearGradient><path d="m3 1c2.2915074 0 9.999988.0008904 9.999988.0008904l.000012 13.9991096s-6.6666668 0-10 0c0-4.666666 0-9.3333336 0-14z" fill="url(#c)"/><path d="m12.5 14.5h-9.0000001v-13h9.0000001z" fill="none" stroke="url(#b)" stroke-linecap="round"/><path d="m2.4999621.49997396c2.5206756 0 11.0000629.000954 11.0000629.000954l.000013 14.99909804s-7.3333841 0-11.000076 0c0-5.000017 0-10.000035.0000001-15.00005204z" fill="none" stroke="url(#a)" stroke-linejoin="round" stroke-width=".999922"/><path d="m4.625448 3.0794788h1.138394zm1.305359 0h1.062501zm1.229466 0h.941072zm1.092858 0h.409822zm.576786 0h.910715zm1.0928587 0 1.5772243-.0004788zm-5.2973277 1h1.775895zm1.973217 0h.850001zm1.001787 0h.425zm.591965 0h.774108zm.941072 0h.7892867zm.941072 0h1.259823zm-5.449113.9925436h1.502681zm1.654466 0h2.458932zm2.610718 0h1.199108zm1.350894 0h1.123215zm-5.616078 1.0074564h2.079467zm2.246431 0h2.246431zm2.398217 0h.895537zm1.047323 0h1.182581zm-5.691971 1h.774108zm1.016966 0h2.868753zm-1.016966 1.9925446h1.502681zm1.654466 0h2.458932zm2.610718 0h1.199108zm1.350894 0h1.123215zm-5.616078 1.0074546h1.912502zm2.064288 0h2.04911zm2.200896 0h.789286zm.941072 0h1.927681zm-5.206256 1h2.079467zm2.246431 0h2.246431zm2.398217 0h.895537zm1.047323 0h1.182581zm-5.691971 1h1.775895zm1.973217 0h.850001zm1.001787 0h.425zm.591965 0h.774108zm.941072 0h.7892867zm.941072 0h1.259823z" stroke="url(#d)"/><g fill="#fce94f"><path d="m4.505467 2.350295h7.192599v5.630783h-7.192599z" opacity=".6"/><path d="m4.505467 7.981078h7.192599v5.199328h-7.192599z" opacity=".6" stroke-width=".960924"/></g></svg>