<svg xmlns="http://www.w3.org/2000/svg" xmlns:xlink="http://www.w3.org/1999/xlink" viewBox="0 0 16 16"><defs><linearGradient id="a"><stop offset="0" stop-color="#fff"/><stop offset="1" stop-color="#fff" stop-opacity="0"/></linearGradient><linearGradient xlink:href="#a" id="b" x1="5.906" y1="1.042" x2="8.312" y2="11.756" gradientUnits="userSpaceOnUse"/></defs><g stroke-width="1.143"><path d="M4 .647l8.794 9.42-4.218-.07 1.584 3.753c.463 1.657-2.012 2.147-2.36.905l-1.447-3.748-3.147 3.044z" stroke-linejoin="round" stroke-width="1" stroke="#999" fill-rule="evenodd" fill="#e9e9e9"/><path d="M5.117 3.422l-.447 7.75 1.943-1.928a.233.233 0 0 1 .38.082l1.718 4.41c.038.095.44.022.374-.14L7.294 9.25a.233.233 0 0 1 .216-.32l2.84.033z" transform="matrix(1.0505 0 0 1.06042 -.442 -.38)" fill="none" stroke="url(#b)" stroke-width=".947" stroke-opacity=".695" stroke-linecap="round"/></g></svg>