<svg xmlns="http://www.w3.org/2000/svg" xmlns:xlink="http://www.w3.org/1999/xlink" width="16" height="16"><defs><linearGradient id="d"><stop offset="0" stop-color="#fff"/><stop offset=".52" stop-color="#fff" stop-opacity=".235"/><stop offset=".52" stop-color="#fff" stop-opacity=".157"/><stop offset="1" stop-color="#fff" stop-opacity=".392"/></linearGradient><linearGradient id="a"><stop offset="0"/><stop offset="1" stop-opacity="0"/></linearGradient><radialGradient r="8.063" fy="19.031" fx="11.25" cy="19.031" cx="11.25" gradientTransform="matrix(2.60465 0 0 .37206 -4.557 16.44)" gradientUnits="userSpaceOnUse" id="h" xlink:href="#a"/><linearGradient id="c"><stop offset="0" stop-color="#d1ff82"/><stop offset="1" stop-color="#68b723"/></linearGradient><linearGradient id="b"><stop offset="0" stop-color="#fff"/><stop offset="0" stop-color="#fff" stop-opacity=".235"/><stop offset="1" stop-color="#fff" stop-opacity=".157"/><stop offset="1" stop-color="#fff" stop-opacity=".392"/></linearGradient><linearGradient xlink:href="#b" id="j" gradientUnits="userSpaceOnUse" gradientTransform="matrix(-1.00464 0 0 1 53.79 -17.47)" x1="34.883" y1="22.992" x2="34.883" y2="28.992"/><linearGradient xlink:href="#c" id="i" x1="4.715" y1="22.595" x2="43.601" y2="22.595" gradientUnits="userSpaceOnUse" gradientTransform="matrix(0 1 1 0 2.746 -15.478)"/><linearGradient xlink:href="#d" id="k" gradientUnits="userSpaceOnUse" gradientTransform="matrix(-1.00464 0 0 1 53.79 -17.47)" x1="34.883" y1="12.992" x2="34.883" y2="37.992"/><linearGradient id="e"><stop offset="0" stop-color="#3d3d3d"/><stop offset=".5" stop-color="#686868" stop-opacity=".498"/><stop offset="1" stop-color="#686868" stop-opacity="0"/></linearGradient><linearGradient id="f"><stop offset="0" stop-color="#64baff"/><stop offset="1" stop-color="#3689e6"/></linearGradient><linearGradient id="g"><stop offset="0" stop-color="#fff"/><stop offset=".508" stop-color="#fff" stop-opacity=".235"/><stop offset=".835" stop-color="#fff" stop-opacity=".157"/><stop offset="1" stop-color="#fff" stop-opacity=".392"/></linearGradient><linearGradient x1="2035.165" y1="3208.074" x2="2035.165" y2="3241.997" id="l" xlink:href="#f" gradientUnits="userSpaceOnUse" gradientTransform="matrix(.57485 0 0 .42976 -1164.014 -1377.772)"/><linearGradient x1="71.204" y1="6.238" x2="71.204" y2="44.341" id="m" xlink:href="#g" gradientUnits="userSpaceOnUse" gradientTransform="translate(-17.204 -.91) scale(.35135)"/></defs><path d="M44.412 23.445c0 4-40.666 4.077-40.666.077s40.666-4.076 40.666-.077z" overflow="visible" opacity=".163" fill="url(#h)" transform="translate(3.062 8.308) scale(.2963)"/><path d="M25.243-5.2L40.917 8.49 25.175 22.094v-9.05l-16.924.078V4.067h16.94z" overflow="visible" fill="url(#i)" transform="translate(3.062 8.308) scale(.2963)"/><path d="M25.585 11.973l-16.343.05.006-6.95H25.6" overflow="visible" opacity=".6" fill="none" stroke="url(#j)" stroke-width="2.25" transform="translate(3.062 8.308) scale(.2963)"/><path d="M5.505 9.5H10.5l.015-2.744 4.67 4.068-4.69 4.04v-2.72l-4.99.022z" overflow="visible" opacity=".5" fill="none" stroke="#206b00" stroke-width="1.0000125"/><path d="M29.116 1.506l-.052 3.998v6.004l-.01 3.807 7.975-6.828z" overflow="visible" opacity=".6" fill="none" stroke="url(#k)" stroke-width="3.375" transform="translate(3.062 8.308) scale(.2963)"/><g><path d="M8 .5C3.862.5.5 3.862.5 8s3.362 7.5 7.5 7.5 7.5-3.362 7.5-7.5S12.138.5 8 .5z" color="#000" overflow="visible" opacity=".99" fill="url(#l)" transform="translate(.21 .21) scale(.58203)"/><path d="M4.866.5C2.458.5.5 2.46.5 4.867.5 7.276 2.46 9.23 4.867 9.23c2.41 0 4.365-1.955 4.365-4.364C9.23 2.458 7.276.5 4.867.5z" style="isolation:auto;mix-blend-mode:normal" color="#000" overflow="visible" opacity=".5" solid-color="#000000" fill="none" stroke="#002e99" stroke-width=".9999275400000001" stroke-linecap="round" stroke-linejoin="round"/><path d="M14.5 8c0 3.59-2.91 6.5-6.5 6.5S1.5 11.59 1.5 8 4.41 1.5 8 1.5s6.5 2.91 6.5 6.5z" color="#000" overflow="visible" opacity=".5" fill="none" stroke="url(#m)" stroke-width="1.718" stroke-linecap="round" stroke-linejoin="round" transform="translate(.21 .21) scale(.58203)"/><path d="M5.34 1.528c-.56-.077-1.148-.025-1.686.17-.542.196-1.067.553-1.32 1.15-.165.382-.16.763-.005 1.147.152.385.6.79 1.136.79.302 0 .61-.118.812-.313.203-.196.302-.437.33-.67.028-.215-.02-.265-.053-.378l.01-.004c.024-.008-.02.004.07-.018.19-.047.467.128.512.2-.035-.056-.004-.076-.046.055-.04.132-.153.348-.305.573-.35.52-.826 1.193-.824 2.08 0 .192-.036.263.002.51.018.115.092.184.15.27-.17.113-.327.25-.427.42-.224.378-.244.937.073 1.355.31.443.824.585 1.258.526.436-.058.912-.342 1.073-.873.186-.55-.098-.99-.516-1.296a.684.684 0 0 0 .19-.49c-.013-.484.045-.758.385-1.012a.684.684 0 0 0 .017-.014c.314-.25.643-.544.908-.917.26-.367.457-.846.418-1.38-.023-.57-.347-1.04-.747-1.343-.402-.307-.894-.485-1.415-.536zm-.83 1.915v.006c.004-.006.04-.032-.007-.005 0 0 .006 0 .007-.002zm.333 3.42h.048c-.01 0-.018.01-.03.01-.007 0-.01-.01-.017-.01z" style="isolation:auto;mix-blend-mode:normal" color="#000" font-weight="bold" font-size="72" font-family="Standard Symbols L" overflow="visible" opacity=".05" solid-color="#000000" fill="#002e99"/><path d="M5.09 6.748c-.016-.594.114-1.17.66-1.578.578-.462 1.135-1.04 1.076-1.72-.013-.657-.76-1.172-1.563-1.246-.904-.13-1.998.19-2.3.913-.154.353-.012.985.504.985.3 0 .44-.2.463-.383.017-.14-.038-.263-.07-.377-.038-.13.12-.383.294-.485.145-.086.296-.115.318-.12.52-.13 1.038.154 1.255.5.216.343-.022.866-.364 1.374-.343.508-.71 1.085-.708 1.698 0 .233-.02.313-.006.407.01.075.254.066.44.03zm-.237.8c-.497-.03-.84.55-.542.917.267.407 1.015.307 1.143-.154.133-.357-.187-.77-.6-.763z" style="isolation:auto;mix-blend-mode:normal" color="#000" font-weight="bold" font-size="72" font-family="Standard Symbols L" overflow="visible" opacity=".15" solid-color="#000000" fill="#002e99"/><path d="M5.09 6.093c-.016-.593.114-1.17.66-1.578.578-.462 1.135-1.04 1.076-1.72-.013-.657-.76-1.17-1.563-1.245-.904-.13-1.998.19-2.3.913-.154.352-.012.984.504.984.3 0 .44-.2.463-.383.017-.138-.038-.26-.07-.376-.038-.13.12-.382.294-.485.145-.086.296-.115.318-.12.52-.128 1.038.155 1.255.5.216.344-.022.866-.364 1.374-.343.508-.71 1.085-.708 1.698 0 .234-.02.313-.006.408.01.075.254.066.44.03zm-.237.8c-.497-.028-.84.55-.542.918.267.407 1.015.307 1.143-.153.133-.358-.187-.77-.6-.764z" font-weight="bold" font-size="72" font-family="Standard Symbols L" fill="#fff"/></g></svg>