<svg xmlns="http://www.w3.org/2000/svg" xmlns:xlink="http://www.w3.org/1999/xlink" height="16" width="16"><defs><linearGradient gradientTransform="matrix(.2538 0 0 .30502 19.13 -.685)" gradientUnits="userSpaceOnUse" xlink:href="#a" id="f" y2="2.906" x2="-51.786" y1="50.786" x1="-51.786"/><linearGradient id="a"><stop offset="0" stop-opacity=".34"/><stop offset="1" stop-opacity=".247"/></linearGradient><linearGradient gradientTransform="matrix(.24324 0 0 .35135 2.162 -.432)" gradientUnits="userSpaceOnUse" xlink:href="#b" id="e" y2="41.077" x2="24" y1="6.923" x1="24"/><linearGradient id="b"><stop offset="0" stop-color="#fff"/><stop offset="0" stop-color="#fff" stop-opacity=".235"/><stop offset="1" stop-color="#fff" stop-opacity=".157"/><stop offset="1" stop-color="#fff" stop-opacity=".392"/></linearGradient><linearGradient id="c"><stop offset="0" stop-color="#f4f4f4"/><stop offset="1" stop-color="#dbdbdb"/></linearGradient><linearGradient gradientTransform="matrix(.2857 0 0 .3042 1.143 .233)" gradientUnits="userSpaceOnUse" xlink:href="#c" id="d" y2="47.013" x2="25.132" y1=".985" x1="25.132"/><linearGradient id="g" gradientTransform="matrix(.42826 -.43107 .53456 .53135 -16.237 2.215)" gradientUnits="userSpaceOnUse" x1="23.576" x2="23.576" y1="25.357" y2="31.211"><stop offset="0" stop-color="#181818"/><stop offset=".135" stop-color="#dbdbdb"/><stop offset=".202" stop-color="#a4a4a4"/><stop offset=".27" stop-color="#fff"/><stop offset=".447" stop-color="#8d8d8d"/><stop offset=".571" stop-color="#959595"/><stop offset=".72" stop-color="#cecece"/><stop offset="1" stop-color="#181818"/></linearGradient></defs><path d="M3 1h10v14H3V1z" fill="url(#d)"/><path d="M12.5 14.5h-9v-13h9z" fill="none" stroke="url(#e)" stroke-linecap="round"/><path d="M2.5.5h11v15h-11V.5z" fill="none" stroke="url(#f)" stroke-linejoin="round"/><g><path d="M2.094 10.875c.295-.215 1.182.264 2.02 1.096.833.83 1.297 1.696 1.088 1.994 0 .002.02.02.02.02L14.207 4.8c.263-.27-.35-1.18-1.214-2.04-.863-.858-1.613-1.3-1.877-1.032z" fill="url(#g)" stroke="#ce5c00" stroke-width="1.47" stroke-linejoin="round" transform="matrix(.4968 0 0 .4968 8.548 7.544)"/><path d="M9.64 12.947c.147-.107.588.13 1.004.544.414.413.645.843.54.992 0 0-.012-.182-.013-.18l3.523-3.583.74-.754c-.08-.177-.063-.214-.05.004.104-.148-.096-.437-.51-.85-.416-.413-.607-.598-.754-.492v-.013z" opacity=".6" fill="#fcaf3e"/><path d="M8.673 15.387l2.44-.886.022-.02c.103-.147-.13-.577-.544-.99-.415-.412-.855-.65-1.002-.543z" fill-rule="evenodd" stroke="#5d5d5d" stroke-width=".7302960000000001"/><path d="M8.92 14.726l-.248.658.666-.243c-.058-.067-.112-.136-.18-.205-.08-.08-.158-.144-.237-.21z" fill="#fcaf3e" fill-rule="evenodd" stroke="#ce5c00" stroke-width=".36514800000000003"/></g></svg>