<svg xmlns="http://www.w3.org/2000/svg" xmlns:xlink="http://www.w3.org/1999/xlink" height="16" width="16"><defs><linearGradient id="a" gradientTransform="matrix(0 .9738 -1.34684 0 22.08 -7.808)" gradientUnits="userSpaceOnUse" x1="8.532" x2="12.639" y1="10.083" y2="10.083"><stop offset="0" stop-color="#90dbec"/><stop offset=".262" stop-color="#55c1ec"/><stop offset=".705" stop-color="#3689e6"/><stop offset="1" stop-color="#2b63a0"/></linearGradient><linearGradient xlink:href="#a" id="f" x1="8.134" y1="1.443" x2="8.134" y2="5.866" gradientUnits="userSpaceOnUse" gradientTransform="translate(-.134 .134)"/><linearGradient id="c"><stop offset="0" stop-color="#fff"/><stop offset=".063" stop-color="#fff" stop-opacity=".235"/><stop offset=".951" stop-color="#fff" stop-opacity=".157"/><stop offset="1" stop-color="#fff" stop-opacity=".392"/></linearGradient><linearGradient id="b" gradientTransform="matrix(.44577 0 0 .44994 -22.198 -3.024)" gradientUnits="userSpaceOnUse" x1="25.132" x2="25.132" y1="15.5" y2="48.396"><stop offset="0" stop-color="#fafafa"/><stop offset="1" stop-color="#e2e1de"/></linearGradient><linearGradient xlink:href="#b" id="g" x1="8.134" y1="11.866" x2="8.134" y2="1.866" gradientUnits="userSpaceOnUse" gradientTransform="matrix(1 0 0 -1 0 15.732)"/><linearGradient xlink:href="#c" id="h" x1="8" y1="3" x2="8" y2="14" gradientUnits="userSpaceOnUse"/><linearGradient gradientTransform="translate(-35.985 -5)" xlink:href="#d" id="j" x1="46.985" y1="11.47" x2="46.985" y2="20" gradientUnits="userSpaceOnUse"/><linearGradient id="d" gradientTransform="matrix(0 -.59172 -.63517 0 9.814 30.722)" gradientUnits="userSpaceOnUse" x1="38.941" x2="20.576" y1="15.991" y2="15.991"><stop offset="0" stop-color="#fff"/><stop offset=".125" stop-color="#fff" stop-opacity=".235"/><stop offset=".939" stop-color="#fff" stop-opacity=".157"/><stop offset="1" stop-color="#fff" stop-opacity=".392"/></linearGradient><linearGradient gradientTransform="translate(-35.985 -5)" xlink:href="#e" id="i" x1="46.985" y1="10" x2="46.985" y2="23" gradientUnits="userSpaceOnUse"/><linearGradient id="e"><stop offset="0" stop-color="#c6262e"/><stop offset="1" stop-color="#b5232a"/></linearGradient></defs><path d="M1.5 1.5v13h13v-13h-13z" stroke="#2a70a7" stroke-opacity=".338" fill="url(#f)"/><path d="M2.134 13.866h12v-12h-12z" fill="url(#g)" transform="translate(-.134 .134)"/><path d="M3.146 2.5c-.358 0-.646.223-.646.5v10c0 .277.288.5.646.5h9.708c.358 0 .646-.223.646-.5V3c0-.277-.288-.5-.646-.5H3.146z" opacity=".8" fill="none" stroke="url(#h)" stroke-opacity=".849"/><g font-weight="bold" font-family="Aharoni" letter-spacing="0" word-spacing="0"><path style="line-height:1.25;-inkscape-font-specification:'Aharoni Bold'" d="M10.374 6.484c.607-.003 1.126.05 1.555.148 2.436.56 3.517 1.604 3.547 3.868-.077 1.845-.905 2.918-2.832 3.822-.444.11-1.495.176-2.246.18l-3.89.017-.007-3.02 4.082-.003c2.002-.052 1.984-1.945.004-2.002l-4.083.003V6.502z" fill="url(#i)" stroke="#2a0303" stroke-opacity=".49"/><path style="line-height:1.25;-inkscape-font-specification:'Aharoni Bold'" d="M6.507 6.502v2.996L9.01 9.49V6.502zm2.507 4.99l-2.502.01.006 2.51H9.02z" fill="#eee" fill-opacity=".761"/><path style="line-height:1.25;-inkscape-font-specification:'Aharoni Bold'" d="M10.373 6.485l-3.866.017v1l3.866-.017c.608-.002 1.128.05 1.557.148 2.097.598 3.52 2.718 3.548 2.867-.03-2.264-1.112-3.307-3.548-3.867-.43-.1-.95-.15-1.557-.148zm1.508 3.497c.67 1.253-.512 1.666-1.294 1.516l-4.083.003.002 1 4.08-.002c1.37-.036 1.798-1.945 1.296-2.516z" opacity=".1" fill="#206b00" stroke="#fff"/><path d="M10.377 7.47l-2.91.015.025 1.024H10.615c2.492.09 2.876 2.414 1.678 3.46-.454.334-1.03.496-1.682.513h-.02l-3.1-.002.027 1.04 2.903-.013c.662-.002 1.66-.094 1.92-.143 1.44-.635 2.22-1.848 2.144-2.887.155-1.858-1.366-2.7-2.775-2.885-.334-.077-.783-.125-1.333-.123z" style="line-height:1.25;-inkscape-font-specification:'Aharoni Bold'" opacity=".53" fill="none" stroke="url(#j)" stroke-opacity=".915"/></g></svg>