<?xml version="1.0" encoding="UTF-8" standalone="no"?>
<svg
   xmlns:dc="http://purl.org/dc/elements/1.1/"
   xmlns:cc="http://creativecommons.org/ns#"
   xmlns:rdf="http://www.w3.org/1999/02/22-rdf-syntax-ns#"
   xmlns:svg="http://www.w3.org/2000/svg"
   xmlns="http://www.w3.org/2000/svg"
   xmlns:xlink="http://www.w3.org/1999/xlink"
   xmlns:sodipodi="http://sodipodi.sourceforge.net/DTD/sodipodi-0.dtd"
   xmlns:inkscape="http://www.inkscape.org/namespaces/inkscape"
   height="16"
   width="16"
   version="1.1"
   id="svg15"
   sodipodi:docname="sc_torus.svg"
   inkscape:version="0.92.3 (2405546, 2018-03-11)">
  <metadata
     id="metadata21">
    <rdf:RDF>
      <cc:Work
         rdf:about="">
        <dc:format>image/svg+xml</dc:format>
        <dc:type
           rdf:resource="http://purl.org/dc/dcmitype/StillImage" />
      </cc:Work>
    </rdf:RDF>
  </metadata>
  <defs
     id="defs19">
    <linearGradient
       id="d"
       gradientUnits="userSpaceOnUse"
       x1="3.5"
       x2="31.37711"
       xlink:href="#a-3"
       y1="8.0000134"
       y2="21.470341" />
    <linearGradient
       id="a-3"
       gradientTransform="matrix(0.2502023,-0.7175237,0.7175237,0.2502023,-474.2609,139.20483)"
       gradientUnits="userSpaceOnUse"
       x1="371.03683"
       x2="345.4321"
       y1="501.16919"
       y2="510.09763">
      <stop
         offset="0"
         stop-color="#cd9ef7"
         id="stop839" />
      <stop
         offset="1"
         stop-color="#a56de2"
         id="stop841"
         style="stop-color:#9d60df;stop-opacity:1" />
    </linearGradient>
    <linearGradient
       id="c"
       gradientUnits="userSpaceOnUse"
       x1="3.5"
       x2="11.639838"
       xlink:href="#a-3"
       y1="14.25"
       y2="14.466102" />
    <linearGradient
       id="e"
       gradientUnits="userSpaceOnUse"
       x1="11.344085"
       x2="11.739075"
       y1="6.1003022"
       y2="18.630463">
      <stop
         offset="0"
         stop-color="#fff"
         id="stop855" />
      <stop
         offset=".04277762"
         stop-color="#fff"
         stop-opacity=".235294"
         id="stop857" />
      <stop
         offset="1"
         stop-color="#fff"
         stop-opacity=".156863"
         id="stop859" />
      <stop
         offset="1"
         stop-color="#fff"
         stop-opacity=".392157"
         id="stop861" />
    </linearGradient>
    <radialGradient
       inkscape:collect="always"
       xlink:href="#a-3"
       id="radialGradient1497"
       cx="47.607082"
       cy="15.046935"
       fx="47.607082"
       fy="15.046935"
       r="8.4998779"
       gradientTransform="matrix(1,0,0,0.88235148,0,1.4117841)"
       gradientUnits="userSpaceOnUse" />
  </defs>
  <sodipodi:namedview
     pagecolor="#ffffff"
     bordercolor="#666666"
     borderopacity="1"
     objecttolerance="10"
     gridtolerance="10"
     guidetolerance="10"
     inkscape:pageopacity="0"
     inkscape:pageshadow="2"
     inkscape:window-width="1366"
     inkscape:window-height="696"
     id="namedview17"
     showgrid="false"
     inkscape:zoom="5.2149125"
     inkscape:cx="-29.857847"
     inkscape:cy="-7.4287668"
     inkscape:window-x="0"
     inkscape:window-y="0"
     inkscape:window-maximized="1"
     inkscape:current-layer="svg15" />
  <radialGradient
     id="a"
     cx="13.039179"
     cy="1037.7168"
     gradientTransform="matrix(0.64403343,0.4277412,-0.31038244,0.35780044,360.31851,-362.08465)"
     gradientUnits="userSpaceOnUse"
     r="8"
     xlink:href="#a-3">
    <stop
       offset="0"
       stop-color="#f6f6f6"
       id="stop2" />
    <stop
       offset="1"
       stop-color="#c8c8c4"
       id="stop4" />
  </radialGradient>
  <g
     stroke="#888a85"
     transform="matrix(.94142315 0 0 .93305476 -40.954004 -3.196672)"
     id="g13">
    <path
       d="m46.845703 6.6560395a8 7.0000022 0 0 0 -2.845703 5.3439765 8 7.0000022 0 0 0 8 7.000002 8 7.0000022 0 0 0 6.158203-2.534438 8 7.0000022 0 0 1 -5.158203 1.659438 8 7.0000022 0 0 1 -8-7.000002 8 7.0000022 0 0 1 1.845703-4.4689765"
       fill="#4d4d4d"
       fill-opacity=".470588"
       id="path7" />
    <path
       d="m52 19.000018a8 7.0000022 0 0 0 8-7.000002 8 7.0000022 0 0 0 -8-7.000002 8 7.0000022 0 0 0 -8 7.000002 8 7.0000022 0 0 0 8 7.000002m0-3.500001a4 3.5000011 0 0 1 -4-3.500001 4 3.5000011 0 0 1 4-3.5000009 4 3.5000011 0 0 1 4 3.5000009 4 3.5000011 0 0 1 -4 3.500001"
       fill="url(#a)"
       id="path9"
       style="stroke-width:0.99975501;stroke-miterlimit:4;stroke-dasharray:none;stroke:#7239b3;stroke-opacity:0.66274512;fill-opacity:1;fill:url(#radialGradient1497)" />
    <path
       d="m57 11.562516a4.5 3.9375012 0 0 0 -4.5-3.9375012 4.5 3.9375012 0 0 0 -4.5 3.9375012 4.5 3.9375012 0 0 0 .0098.24955 4 3.5000011 0 0 1 3.990234-3.3120509 4 3.5000011 0 0 1 4 3.5000009 4 3.5000011 0 0 1 -3.707031 3.489764 4.5 3.9375012 0 0 0 .207031.0105 4.5 3.9375012 0 0 0 4.5-3.937501z"
       fill="#fdfdfb"
       id="path11"
       style="stroke:#7239b3;stroke-opacity:0.66274512" />
  </g>
</svg>
