<svg xmlns="http://www.w3.org/2000/svg" xmlns:xlink="http://www.w3.org/1999/xlink" viewBox="0 0 16 16"><defs><linearGradient xlink:href="#a" id="m" gradientUnits="userSpaceOnUse" gradientTransform="matrix(.5 0 0 .5 -.8 7.8)" x1="25" y1="-11.932" x2="25" y2="8.452"/><linearGradient x1="63.999" y1="3.1" x2="63.999" y2="122.899" id="a" gradientUnits="userSpaceOnUse"><stop offset="0" stop-color="#f6f6f6"/><stop offset="1" stop-color="#e6e6e6"/></linearGradient><linearGradient xlink:href="#b" id="n" gradientUnits="userSpaceOnUse" gradientTransform="matrix(.5 0 0 .5 -.8 7.8)" x1="21" y1="-10.034" x2="21" y2="16.005"/><linearGradient id="b"><stop offset="0" stop-color="#888"/><stop offset="1" stop-color="#626262"/></linearGradient><linearGradient xlink:href="#c" id="o" gradientUnits="userSpaceOnUse" gradientTransform="matrix(0 0 0 0 8.7 8.7)" x1="86.133" y1="105.105" x2="84.639" y2="20.895"/><linearGradient id="c"><stop offset="0" stop-color="#efefef"/><stop offset="1" stop-color="#c9c9c9"/></linearGradient></defs><linearGradient id="f" gradientTransform="matrix(.2 0 0 .5 .8 .1)" gradientUnits="userSpaceOnUse" x1="5.212" x2="54.887" y1=".065" y2=".065"><stop offset="0" stop-color="#9b876c"/><stop offset=".925" stop-color="#9b876c"/><stop offset=".936" stop-color="#c2c2c2"/><stop offset="1" stop-color="#c2c2c2"/></linearGradient><linearGradient id="g" gradientTransform="matrix(.4 0 0 .1 .7 .3)" gradientUnits="userSpaceOnUse" x1="24" x2="24" xlink:href="#d" y1="44" y2="3.899"/><linearGradient id="d"><stop offset="0" stop-color="#272727"/><stop offset="1" stop-color="#454545"/></linearGradient><radialGradient id="h" cx="24.502" cy="6.648" gradientTransform="matrix(0 .9 -.9 0 14.7 -18.9)" gradientUnits="userSpaceOnUse" r="17.498"><stop offset="0" stop-color="#ddcfbd"/><stop offset="1" stop-color="#856f50"/></radialGradient><linearGradient id="i" gradientTransform="matrix(.2 0 0 .2 1.9 1.4)" gradientUnits="userSpaceOnUse" x1="32.901" x2="32.901" y1="4.648" y2="61.482"><stop offset="0" stop-color="#a79071"/><stop offset="1" stop-color="#6f5d45"/></linearGradient><radialGradient id="j" cx="7.496" cy="8.45" gradientTransform="matrix(0 .8 -1 0 18.7 -3.1)" gradientUnits="userSpaceOnUse" r="20" xlink:href="#e"/><linearGradient id="e"><stop offset="0" stop-color="#5f5f5f"/><stop offset=".262" stop-color="#4f4f4f"/><stop offset=".705" stop-color="#3b3b3b"/><stop offset="1" stop-color="#2b2b2b"/></linearGradient><linearGradient id="k" gradientTransform="matrix(.4 0 0 .3 .7 1)" gradientUnits="userSpaceOnUse" x1="24" x2="24" xlink:href="#d" y1="44" y2="3.899"/><linearGradient id="l" gradientTransform="matrix(.2 0 0 .3 2.2 1.9)" gradientUnits="userSpaceOnUse" x1="24" x2="24" y1="7.182" y2="40.818"><stop offset="0" stop-color="#fff"/><stop offset="0" stop-color="#fff" stop-opacity=".235"/><stop offset="1" stop-color="#fff" stop-opacity=".157"/><stop offset="1" stop-color="#fff" stop-opacity=".392"/></linearGradient><g stroke-linejoin="round"><path d="M13.49 2.304c-.095-.655-.035-1.17-.088-1.795H3.51l.057 1.98" fill="#e9e9e9" stroke="url(#f)" stroke-miterlimit="0" stroke-width="1.017"/><g stroke-linecap="round"><path d="M4.5 2.5H2.9c-.228 0-.4-.02-.4-.05V1.054C2.5.61 2.724.5 3.016.5H4.5" fill="#e9e9e9" stroke="url(#g)"/><path d="M3.51 2.51h9.98v12.98H3.51z" fill="url(#h)" stroke="url(#i)" stroke-miterlimit="0" stroke-width="1.019"/><path d="M4.5 2.5v13H2.9c-.228 0-.4-.138-.4-.317V2.5z" fill="url(#j)" stroke="url(#k)"/></g></g><path d="M3.5 3.5h9v11h-9z" fill="none" opacity=".5" stroke="url(#l)" stroke-linecap="round"/><path d="M11.22 8c-.125 0-.22.095-.22.22v.624c-.277.07-.526.186-.766.328L9.78 8.72c-.087-.09-.223-.09-.31 0l-.75.75c-.09.087-.09.223 0 .31l.452.454c-.142.24-.257.49-.328.766H8.22c-.125 0-.22.095-.22.22v1.06c0 .125.095.22.22.22h.624c.07.277.186.526.328.766l-.453.453c-.09.087-.09.223 0 .31l.75.75c.087.09.223.09.31 0l.454-.452c.24.142.49.257.766.328v.625c0 .125.095.22.22.22h1.06c.125 0 .22-.095.22-.22v-.624c.277-.07.526-.186.766-.328l.453.453c.087.09.223.09.31 0l.75-.75c.09-.087.09-.223 0-.31l-.452-.454c.142-.24.257-.49.328-.766h.625c.125 0 .22-.095.22-.22v-1.06c0-.125-.095-.22-.22-.22h-.624c-.07-.277-.186-.526-.328-.766l.453-.453c.09-.087.09-.223 0-.31l-.75-.75c-.087-.09-.223-.09-.31 0l-.454.452c-.24-.142-.49-.257-.766-.328V8.22c0-.125-.095-.22-.22-.22zm.53 2.75c.552 0 1 .448 1 1s-.448 1-1 1-1-.448-1-1 .448-1 1-1z" display="block" overflow="visible" fill="url(#m)" stroke="url(#n)" stroke-width=".527" stroke-linejoin="round" transform="matrix(1.1 -.4 .4 1.1 -6 4.3)"/><path d="M10.718 10.03c-1.375.5-2.087 2.027-1.587 3.402.5 1.375 2.027 2.087 3.402 1.587 1.375-.5 2.087-2.027 1.587-3.402-.5-1.375-2.027-2.087-3.402-1.587zm.42 1.152c.74-.27 1.56.113 1.83.855.27.74-.113 1.56-.855 1.83-.74.27-1.56-.112-1.83-.854-.27-.74.112-1.56.854-1.83z" opacity=".05"/><path d="M11.75 9.75c-1.103 0-2 .897-2 2s.897 2 2 2 2-.897 2-2-.897-2-2-2z" fill="none" stroke="url(#o)" stroke-width=".879" transform="matrix(1.1 -.4 .4 1.1 -6 4.3)"/></svg>