<svg xmlns="http://www.w3.org/2000/svg" xmlns:xlink="http://www.w3.org/1999/xlink" viewBox="0 0 16 16"><defs><linearGradient xlink:href="#a" id="f" gradientUnits="userSpaceOnUse" gradientTransform="matrix(.5 0 0 .5 -.8 7.8)" x1="25" y1="-11.932" x2="25" y2="8.452"/><linearGradient x1="63.999" y1="3.1" x2="63.999" y2="122.899" id="a" gradientUnits="userSpaceOnUse"><stop offset="0" stop-color="#f6f6f6"/><stop offset="1" stop-color="#e6e6e6"/></linearGradient><linearGradient xlink:href="#b" id="g" gradientUnits="userSpaceOnUse" gradientTransform="matrix(.5 0 0 .5 -.8 7.8)" x1="21" y1="-10.034" x2="21" y2="16.005"/><linearGradient id="b"><stop offset="0" stop-color="#888"/><stop offset="1" stop-color="#626262"/></linearGradient><linearGradient xlink:href="#c" id="h" gradientUnits="userSpaceOnUse" gradientTransform="matrix(0 0 0 0 8.7 8.7)" x1="86.133" y1="105.105" x2="84.639" y2="20.895"/><linearGradient id="c"><stop offset="0" stop-color="#efefef"/><stop offset="1" stop-color="#c9c9c9"/></linearGradient><linearGradient xlink:href="#d" id="e" x1="12.251" y1=".907" x2="11.562" y2="21.099" gradientUnits="userSpaceOnUse" gradientTransform="matrix(.8 0 0 .9 -1 -2)"/><linearGradient id="d"><stop offset="0" stop-color="#737373"/><stop offset=".262" stop-color="#636363"/><stop offset=".705" stop-color="#4b4b4b"/><stop offset="1" stop-color="#3f3f3f"/></linearGradient></defs><path d="M13.466 7.312q0 1.17-.31 2.15-.31.977-.875 1.52-.565.546-1.313.546-.5 0-.89-.285-.383-.293-.545-.765h-.108q-.33.49-.8.773-.472.278-1.05.278-1.193 0-1.88-.863-.686-.87-.686-2.37 0-1.7.888-2.757.896-1.06 2.372-1.06.545 0 1.258.132.714.122 1.166.318l-.154 3.98q0 1.14.51 1.14.432 0 .686-.756.256-.765.256-1.994 0-1.31-.45-2.312-.446-1.01-1.267-1.54-.815-.535-1.87-.535-1.356 0-2.366.685-1.01.684-1.54 1.955-.535 1.265-.535 2.925 0 2.253.99 3.46.997 1.195 2.883 1.195.753 0 1.615-.203.863-.205 1.637-.554v1.573q-1.428.73-3.2.73-2.56 0-3.993-1.626-1.428-1.63-1.428-4.526 0-2.01.734-3.656.74-1.643 2.096-2.563 1.352-.928 3.09-.928 1.48 0 2.647.732 1.165.732 1.798 2.083.634 1.352.634 3.12zM6.57 8.33q0 1.717 1.158 1.717.6 0 .915-.512.324-.522.39-1.693l.09-1.8q-.31-.082-.775-.082-.842 0-1.313.635-.466.635-.466 1.734z" fill="url(#e)" stroke="#000" stroke-opacity=".49"/><path d="M11.22 8c-.125 0-.22.095-.22.22v.624c-.277.07-.526.186-.766.328L9.78 8.72c-.087-.09-.223-.09-.31 0l-.75.75c-.09.087-.09.223 0 .31l.452.454c-.142.24-.257.49-.328.766H8.22c-.125 0-.22.095-.22.22v1.06c0 .125.095.22.22.22h.624c.07.277.186.526.328.766l-.453.453c-.09.087-.09.223 0 .31l.75.75c.087.09.223.09.31 0l.454-.452c.24.142.49.257.766.328v.625c0 .125.095.22.22.22h1.06c.125 0 .22-.095.22-.22v-.624c.277-.07.526-.186.766-.328l.453.453c.087.09.223.09.31 0l.75-.75c.09-.087.09-.223 0-.31l-.452-.454c.142-.24.257-.49.328-.766h.625c.125 0 .22-.095.22-.22v-1.06c0-.125-.095-.22-.22-.22h-.624c-.07-.277-.186-.526-.328-.766l.453-.453c.09-.087.09-.223 0-.31l-.75-.75c-.087-.09-.223-.09-.31 0l-.454.452c-.24-.142-.49-.257-.766-.328V8.22c0-.125-.095-.22-.22-.22zm.53 2.75c.552 0 1 .448 1 1s-.448 1-1 1-1-.448-1-1 .448-1 1-1z" display="block" overflow="visible" fill="url(#f)" stroke="url(#g)" stroke-width=".527" stroke-linejoin="round" transform="matrix(1.1 -.4 .4 1.1 -6 4.3)"/><path d="M10.718 10.03c-1.375.5-2.087 2.027-1.587 3.402.5 1.375 2.027 2.087 3.402 1.587 1.375-.5 2.087-2.027 1.587-3.402-.5-1.375-2.027-2.087-3.402-1.587zm.42 1.152c.74-.27 1.56.113 1.83.855.27.74-.113 1.56-.855 1.83-.74.27-1.56-.112-1.83-.854-.27-.74.112-1.56.854-1.83z" opacity=".05"/><path d="M11.75 9.75c-1.103 0-2 .897-2 2s.897 2 2 2 2-.897 2-2-.897-2-2-2z" fill="none" stroke="url(#h)" stroke-width=".879" transform="matrix(1.1 -.4 .4 1.1 -6 4.3)"/></svg>