<svg xmlns="http://www.w3.org/2000/svg" xmlns:xlink="http://www.w3.org/1999/xlink" height="16" width="16"><defs><linearGradient gradientTransform="matrix(.66667 0 0 .46667 -5.167 .467)" gradientUnits="userSpaceOnUse" xlink:href="#a" id="s" y2="14" x2="24" y1="29" x1="24"/><linearGradient id="a"><stop offset="0" stop-color="#d88f22"/><stop offset="1" stop-color="#d88f22" stop-opacity="0"/></linearGradient><linearGradient gradientTransform="matrix(.66667 0 0 .46667 -14.167 .467)" gradientUnits="userSpaceOnUse" xlink:href="#a" id="r" y2="14" x2="24" y1="29" x1="24"/><linearGradient gradientTransform="matrix(.66667 0 0 .46668 -3.167 -20.534)" gradientUnits="userSpaceOnUse" xlink:href="#b" id="q" y2="14" x2="9" y1="29" x1="9"/><linearGradient id="b"><stop offset="0" stop-color="#fff"/><stop offset="1" stop-color="#fff" stop-opacity="0"/></linearGradient><linearGradient gradientTransform="matrix(.66667 0 0 .46668 3.833 -20.534)" gradientUnits="userSpaceOnUse" xlink:href="#c" id="p" y2="14" x2="9" y1="29" x1="9"/><linearGradient id="c"><stop offset="0" stop-color="#fff"/><stop offset="1" stop-color="#fff" stop-opacity="0"/></linearGradient><linearGradient gradientTransform="matrix(-.93358 0 0 1 21.38 -15)" gradientUnits="userSpaceOnUse" xlink:href="#d" id="o" y2="27.5" x2="23.3" y1="27.5" x1="8.643"/><linearGradient id="d"><stop offset="0"/><stop offset="1" stop-opacity="0"/></linearGradient><linearGradient gradientTransform="matrix(-.93358 0 0 1 21.38 -22)" gradientUnits="userSpaceOnUse" xlink:href="#e" id="n" y2="27.5" x2="23.3" y1="27.5" x1="8.643"/><linearGradient id="e"><stop offset="0" stop-color="#fff"/><stop offset="1" stop-color="#fff" stop-opacity="0"/></linearGradient><linearGradient gradientTransform="translate(-2 -1)" gradientUnits="userSpaceOnUse" xlink:href="#f" id="m" y2="16" x2="10.314" y1="7" x1="10.314"/><linearGradient id="f"><stop offset="0" stop-color="#b19c7d"/><stop offset="1" stop-color="#a08358"/></linearGradient><linearGradient gradientTransform="matrix(.47368 0 0 .42857 -1.58 1.286)" gradientUnits="userSpaceOnUse" xlink:href="#g" id="l" y2="27.925" x2="21.771" y1="14.871" x1="21.771"/><linearGradient id="g"><stop offset="0" stop-color="#fff"/><stop offset=".033" stop-color="#fff" stop-opacity=".235"/><stop offset=".986" stop-color="#fff" stop-opacity=".157"/><stop offset="1" stop-color="#fff" stop-opacity=".392"/></linearGradient><radialGradient gradientTransform="matrix(0 .80952 -1.13905 0 18.95 -6.37)" gradientUnits="userSpaceOnUse" xlink:href="#h" id="k" fy="11.597" fx="16.777" r="10.5" cy="11.368" cx="16.824"/><linearGradient id="h"><stop offset="0" stop-color="#f2e0c4"/><stop offset=".765" stop-color="#e5af5b"/><stop offset="1" stop-color="#af6900"/></linearGradient><linearGradient id="i"><stop offset="0" stop-color="#cad0c6"/><stop offset=".5" stop-color="#eaece9"/><stop offset="1" stop-color="#c5cbc0"/></linearGradient><linearGradient gradientTransform="matrix(.26064 0 0 .3149 5.726 -1.047)" gradientUnits="userSpaceOnUse" xlink:href="#i" id="j" y2="17.47" x2="27.192" y1="2.914" x1="10.651"/></defs><path d="M8.5 7.5V4.126C8.5 1.647 9.87.47 11.986.5 14.115.533 15.5 1.62 15.5 4.126v2.38h-1.43v-1.75c-.002-.63.147-2.668-2.068-2.668-2.198 0-2.038 2.05-2.03 2.665v2.75z" opacity=".4" fill="url(#j)" fill-rule="evenodd"/><path d="M9.2 5S8.61 1.5 12 1.5c3.39 0 2.8 3.5 2.8 3.5" opacity=".6" fill="none" stroke="#fff" stroke-linecap="round"/><path d="M8.5 7.5V4.126C8.5 1.647 9.87.47 11.986.5 14.115.533 15.5 1.62 15.5 4.126v2.38h-2v-1.75c0-.63.15-2.254-1.498-2.254-1.65 0-1.51 1.638-1.503 2.252v2.75z" opacity=".4" fill="none" stroke="#000" stroke-linecap="square"/><rect y="6.5" x=".5" ry="1" rx="1" height="8" width="11" color="#000" overflow="visible" fill="url(#k)"/><path color="#000" overflow="visible" opacity=".5" fill="none" stroke="url(#l)" stroke-linejoin="round" d="M1.5 7.5h9v6h-9z"/><rect y="6.5" x=".5" ry="1" rx="1" height="8" width="11" color="#000" overflow="visible" fill="none" stroke="url(#m)"/><path d="M1.5 7.5h9m-9 2h9m-9 2h9" opacity=".2" fill="none" stroke="url(#n)" stroke-linecap="square"/><path d="M1.5 12.5h9m-9-6h9m-9 2h9m-9 2h9" opacity=".05" fill="none" stroke="url(#o)" stroke-linecap="square"/><rect transform="scale(1 -1)" y="-14" x="9" ry="1" rx="2" height="7" width="1" color="#000" overflow="visible" opacity=".5" fill="url(#p)"/><rect transform="scale(1 -1)" y="-14" x="2" ry="1" rx="2" height="7" width="1" color="#000" overflow="visible" opacity=".5" fill="url(#q)"/><rect y="7" x="1" ry=".5" rx="1.6" height="7" width="1" color="#000" overflow="visible" opacity=".5" fill="url(#r)"/><rect y="7" x="10" ry=".5" rx="1.6" height="7" width="1" color="#000" overflow="visible" opacity=".5" fill="url(#s)"/></svg>