<?xml version="1.0" encoding="UTF-8" standalone="no"?>
<svg
   xmlns:dc="http://purl.org/dc/elements/1.1/"
   xmlns:cc="http://creativecommons.org/ns#"
   xmlns:rdf="http://www.w3.org/1999/02/22-rdf-syntax-ns#"
   xmlns:svg="http://www.w3.org/2000/svg"
   xmlns="http://www.w3.org/2000/svg"
   xmlns:sodipodi="http://sodipodi.sourceforge.net/DTD/sodipodi-0.dtd"
   xmlns:inkscape="http://www.inkscape.org/namespaces/inkscape"
   height="16"
   width="16"
   version="1.1"
   id="svg27"
   sodipodi:docname="sc_verticaltext.svg"
   inkscape:export-filename="/home/rizmut/Dokumen/Rizmut/Github/libreoffice-style-elementary/images_elementary/cmd/sc_verticaltext.png"
   inkscape:export-xdpi="96"
   inkscape:export-ydpi="96"
   inkscape:version="0.92.4 (unknown)">
  <metadata
     id="metadata33">
    <rdf:RDF>
      <cc:Work
         rdf:about="">
        <dc:format>image/svg+xml</dc:format>
        <dc:type
           rdf:resource="http://purl.org/dc/dcmitype/StillImage" />
        <dc:title></dc:title>
      </cc:Work>
    </rdf:RDF>
  </metadata>
  <defs
     id="defs31" />
  <sodipodi:namedview
     pagecolor="#ffffff"
     bordercolor="#666666"
     borderopacity="1"
     objecttolerance="10"
     gridtolerance="10"
     guidetolerance="10"
     inkscape:pageopacity="0"
     inkscape:pageshadow="2"
     inkscape:window-width="1366"
     inkscape:window-height="714"
     id="namedview29"
     showgrid="true"
     inkscape:zoom="8"
     inkscape:cx="-5.816003"
     inkscape:cy="-7.551083"
     inkscape:window-x="0"
     inkscape:window-y="28"
     inkscape:window-maximized="1"
     inkscape:current-layer="g15">
    <inkscape:grid
       type="xygrid"
       id="grid843" />
  </sodipodi:namedview>
  <radialGradient
     id="a"
     cx="10.056182"
     cy="5.487288"
     gradientTransform="matrix(-2.074652,-0.12966574,0.19676909,-3.1483048,28.783349,28.579598)"
     gradientUnits="userSpaceOnUse"
     r="5.0821"
     fx="10.056182"
     fy="5.487288">
    <stop
       offset="0"
       stop-color="#737373"
       id="stop2" />
    <stop
       offset=".26238"
       stop-color="#636363"
       id="stop4" />
    <stop
       offset=".70495"
       stop-color="#4b4b4b"
       id="stop6" />
    <stop
       offset="1"
       stop-color="#3f3f3f"
       id="stop8" />
  </radialGradient>
  <g
     transform="translate(0 -6)"
     id="g15">
    <path
       d="m 5.24957,16.59143 v -5.1162 l -1.9,-0.64578 v -1.5365 l 9.3,3.5376 v 2.4647 l -9.3,3.4118 v -1.4891 z m 1.5,-4.3845 v 3.611 l 4.75,-1.7516 z"
       style="fill:url(#a);stroke:#000000;stroke-width:0.75;stroke-linecap:round;stroke-linejoin:round;stroke-opacity:0.43136998"
       id="path11"
       inkscape:connector-curvature="0" />
    <path
       d="m2 8h1v-1h-1zm2 0h1v-1h-1zm2 0h1v-1h-1zm2 0h1v-1h-1zm2 0h1v-1h-1zm2 0h1v-1h-1zm2 0h1v-1h-1zm-13 1h1v-1h-1zm13 1h1v-1h-1zm-13 1h1v-1h-1zm13 1h1v-1h-1zm-13 1h1v-1h-1zm13 1h1v-1h-1zm-13 1h1v-1h-1zm13 1h1v-1h-1zm-13 1h1v-1h-1zm13 1h1v-1h-1zm-13 1h1v-1h-1zm13 1h1v-1h-1zm-13 1h1v-1h-1zm2 0h1v-1h-1zm2 0h1v-1h-1zm2 0h1v-1h-1zm2 0h1v-1h-1zm2 0h1v-1h-1zm2 0h1v-1h-1z"
       id="path13"
       fill="#565656" />
  </g>
  <g
     fill="#ffc27d"
     stroke="#a62100"
     stroke-opacity=".43015"
     id="g25">
    <path
       d="m 12.5,0.5 h 3 v 3 l -3.002,0.00366 z"
       id="path17"
       inkscape:connector-curvature="0"
       sodipodi:nodetypes="ccccc" />
    <path
       d="M 0.5,0.51336 3.5,0.5 v 3 l -3,0.00366 z"
       id="path19"
       inkscape:connector-curvature="0"
       sodipodi:nodetypes="ccccc" />
    <path
       d="m 0.5,12.5 h 3 v 3 l -3,3e-4 z"
       id="path21"
       inkscape:connector-curvature="0"
       sodipodi:nodetypes="ccccc" />
    <path
       d="m 12.5,12.5 h 3 l -4e-4,3.0003 L 12.5,15.5 Z"
       id="path23"
       inkscape:connector-curvature="0"
       sodipodi:nodetypes="ccccc" />
  </g>
</svg>
