<?xml version="1.0" encoding="UTF-8" standalone="no"?>
<svg
   xmlns:dc="http://purl.org/dc/elements/1.1/"
   xmlns:cc="http://creativecommons.org/ns#"
   xmlns:rdf="http://www.w3.org/1999/02/22-rdf-syntax-ns#"
   xmlns:svg="http://www.w3.org/2000/svg"
   xmlns="http://www.w3.org/2000/svg"
   xmlns:sodipodi="http://sodipodi.sourceforge.net/DTD/sodipodi-0.dtd"
   xmlns:inkscape="http://www.inkscape.org/namespaces/inkscape"
   height="16"
   width="16"
   version="1.1"
   id="svg37"
   sodipodi:docname="sc_wrapthrough.svg"
   inkscape:version="0.92.4 (unknown)">
  <metadata
     id="metadata43">
    <rdf:RDF>
      <cc:Work
         rdf:about="">
        <dc:format>image/svg+xml</dc:format>
        <dc:type
           rdf:resource="http://purl.org/dc/dcmitype/StillImage" />
      </cc:Work>
    </rdf:RDF>
  </metadata>
  <defs
     id="defs41" />
  <sodipodi:namedview
     pagecolor="#ffffff"
     bordercolor="#666666"
     borderopacity="1"
     objecttolerance="10"
     gridtolerance="10"
     guidetolerance="10"
     inkscape:pageopacity="0"
     inkscape:pageshadow="2"
     inkscape:window-width="1366"
     inkscape:window-height="706"
     id="namedview39"
     showgrid="false"
     inkscape:zoom="14.75"
     inkscape:cx="-0.71186441"
     inkscape:cy="8"
     inkscape:window-x="0"
     inkscape:window-y="0"
     inkscape:window-maximized="1"
     inkscape:current-layer="g35" />
  <linearGradient
     id="a"
     gradientUnits="userSpaceOnUse"
     x1="12.889"
     x2="13"
     y1="5.506"
     y2="10">
    <stop
       offset="0"
       stop-color="#cd9ef7"
       id="stop2" />
    <stop
       offset="1"
       stop-color="#a56de2"
       id="stop4" />
  </linearGradient>
  <g
     stroke-linecap="round"
     stroke-linejoin="round"
     id="g35">
    <g
       fill="none"
       id="g33">
      <g
         opacity=".5"
         stroke="#fff"
         transform="translate(0 1)"
         id="g19">
        <path
           d="m14.507122 3.4999999c-4.338048 0-8.676095 0-13.014143 0z"
           id="path9" />
        <path
           d="m14.507122 12.5c-4.338048 0-8.676095 0-13.014143 0z"
           id="path11" />
        <g
           transform="translate(0 -6)"
           id="g17">
          <path
             d="m14.507122 15.5c-4.338048 0-8.676095 0-13.014143 0z"
             id="path13" />
          <path
             d="m14.507122 12.5c-4.338048 0-8.676095 0-13.014143 0z"
             id="path15" />
        </g>
      </g>
      <g
         stroke="#565656"
         id="g31">
        <path
           d="m14.507122 3.4999999c-4.338048 0-8.676095 0-13.014143 0z"
           id="path21" />
        <path
           d="m14.507122 12.5c-4.338048 0-8.676095 0-13.014143 0z"
           id="path23" />
        <g
           transform="translate(0 -6)"
           id="g29">
          <path
             d="m14.507122 15.5c-4.338048 0-8.676095 0-13.014143 0z"
             id="path25" />
          <path
             d="m14.507122 12.5c-4.338048 0-8.676095 0-13.014143 0z"
             id="path27" />
        </g>
      </g>
    </g>
    <path
       d="m5.5 5.5 5 .00781.01953 4.9921875-4.9999998-.0078z"
       fill="url(#a)"
       stroke="#7239b3"
       stroke-opacity=".75"
       id="path7" />
  </g>
</svg>
