<?xml version="1.0" encoding="UTF-8" standalone="no"?>
<svg
   xmlns:dc="http://purl.org/dc/elements/1.1/"
   xmlns:cc="http://creativecommons.org/ns#"
   xmlns:rdf="http://www.w3.org/1999/02/22-rdf-syntax-ns#"
   xmlns:svg="http://www.w3.org/2000/svg"
   xmlns="http://www.w3.org/2000/svg"
   xmlns:xlink="http://www.w3.org/1999/xlink"
   xmlns:sodipodi="http://sodipodi.sourceforge.net/DTD/sodipodi-0.dtd"
   xmlns:inkscape="http://www.inkscape.org/namespaces/inkscape"
   viewBox="0 0 16 16"
   version="1.1"
   id="svg16"
   sodipodi:docname="sf02.svg"
   inkscape:version="0.92.3 (unknown)"><metadata
   id="metadata20">
  <rdf:RDF>
    <cc:Work
       rdf:about="">
      <dc:format>image/svg+xml</dc:format>
      <dc:type
         rdf:resource="http://purl.org/dc/dcmitype/StillImage" />
      <dc:title></dc:title>
    </cc:Work>
  </rdf:RDF>
</metadata>
<sodipodi:namedview
   pagecolor="#ffffff"
   bordercolor="#666666"
   borderopacity="1"
   objecttolerance="10"
   gridtolerance="10"
   guidetolerance="10"
   inkscape:pageopacity="0"
   inkscape:pageshadow="2"
   inkscape:window-width="1366"
   inkscape:window-height="706"
   id="namedview18"
   showgrid="false"
   inkscape:zoom="14.75"
   inkscape:cx="-0.71186441"
   inkscape:cy="7.4576271"
   inkscape:window-x="0"
   inkscape:window-y="0"
   inkscape:window-maximized="1"
   inkscape:current-layer="svg16" />
<defs
   id="defs12">
  <linearGradient
     id="a">
    <stop
       offset="0"
       stop-color="#737373"
       id="stop2" />
    <stop
       offset=".262"
       stop-color="#636363"
       id="stop4" />
    <stop
       offset=".705"
       stop-color="#4b4b4b"
       id="stop6" />
    <stop
       offset="1"
       stop-color="#3f3f3f"
       id="stop8" />
  </linearGradient>
  <radialGradient
     xlink:href="#a"
     id="b"
     cx="8.168"
     cy=".273"
     fx="8.168"
     fy=".273"
     r="6.626"
     gradientTransform="matrix(-1.81092,0,0,-2.56547,21.792,0.7)"
     gradientUnits="userSpaceOnUse" />
  <clipPath
     clipPathUnits="userSpaceOnUse"
     id="clipPath936">
    <path
       style="fill:#4c158a;fill-opacity:1"
       d="m 16,1.7929688 c -1.036913,1.1926078 -1.994844,2.305806 -2.84375,3.2773437 -0.01719,-7.439e-4 -0.01443,-0.00586 -0.0332,-0.00586 A 0.53346598,0.53346598 0 0 0 12.693359,5.28125 L 8.265625,11.267578 C 7.6678935,11.396697 7.0801163,11.724713 6.6621094,12.359375 5.5291817,14.085788 4.2578125,15.634766 4.2578125,15.634766 A 0.53346598,0.53346598 0 0 0 4.1386719,16 h 5.4785156 c 0.1737957,-0.102636 0.340494,-0.219138 0.4882815,-0.365234 0.412334,-0.407618 0.681596,-0.978348 0.802734,-1.691407 0.05267,-0.307763 -0.0127,-0.578532 -0.05664,-0.855468 L 16,8.5996094 Z"
       id="path938"
       inkscape:connector-curvature="0" />
  </clipPath>
  <linearGradient
     id="g"
     y2="23.743"
     gradientUnits="userSpaceOnUse"
     x2="33.437"
     gradientTransform="matrix(0.5656,0,0,0.5621,-0.077,-7.93)"
     y1="18.868"
     x1="28.059">
    <stop
       offset="0"
       stop-color="#6e3d09"
       id="stop27" />
    <stop
       offset=".242"
       stop-color="#ea8113"
       id="stop29" />
    <stop
       offset=".621"
       stop-color="#5c3307"
       id="stop31" />
    <stop
       offset="1"
       stop-color="#e07c12"
       id="stop33" />
  </linearGradient>
  <linearGradient
     id="h"
     y2="31.724001"
     xlink:href="#c-3"
     gradientUnits="userSpaceOnUse"
     x2="22.011999"
     gradientTransform="matrix(0.55645,0,0,0.56274,0.185,-7.95)"
     y1="29.811001"
     x1="20.250999" />
  <linearGradient
     id="c-3">
    <stop
       offset="0"
       stop-color="#f2f2f2"
       id="stop37" />
    <stop
       offset="1"
       stop-color="#c3c3c3"
       id="stop39" />
  </linearGradient>
  <radialGradient
     id="i"
     gradientUnits="userSpaceOnUse"
     cy="35.356998"
     cx="15.415"
     gradientTransform="matrix(0.45238,0,0,0.5118,1.782,-5.44)"
     r="7.579">
    <stop
       offset="0"
       stop-color="#650000"
       id="stop42" />
    <stop
       offset="1"
       stop-color="#fb66f5"
       id="stop44" />
  </radialGradient>
</defs>
/&gt;<path
   d="M 10.173,14.52 9.27,11.428 H 4.73 l -0.903,3.09 H 0.98 L 5.378,1.482 h 3.23 l 4.412,13.04 z M 8.64,9.12 Q 7.388,4.917 7.226,4.367 7.072,3.817 7.004,3.497 6.724,4.633 5.394,9.117 Z"
   id="path14"
   style="fill:url(#b);stroke:#000000;stroke-width:0.96200001;stroke-linejoin:round;stroke-opacity:0.47099998"
   inkscape:connector-curvature="0" />
<g
   id="g931"
   clip-path="url(#clipPath936)">
  <path
     style="fill:url(#g);stroke:#673907;stroke-linecap:round"
     inkscape:connector-curvature="0"
     id="path69"
     d="m 13.247,5.778 2.3,2.136 0.91,-0.942 -0.01,-4.88 c -1.168,1.343 -2.276,2.634 -3.2,3.687 z" />
  <path
     style="fill:url(#h);stroke:#797b75;stroke-linecap:round"
     inkscape:connector-curvature="0"
     id="path71"
     d="m 8.316,12.098 1.437,1.24 6.05,-5.273 c -0.245,-0.88 -1.64,-2.467 -2.68,-2.467 z" />
  <path
     style="fill:url(#i)"
     inkscape:connector-curvature="0"
     id="path73"
     d="m 4.667,15.973 c 3.003,0 5.284,0.417 5.715,-2.12 0.35,-2.045 -2.073,-3.025 -3.275,-1.2 -1.153,1.757 -2.437,3.32 -2.437,3.32 z" />
</g>
</svg>
