<svg xmlns="http://www.w3.org/2000/svg" xmlns:xlink="http://www.w3.org/1999/xlink" height="16" width="16"><defs><linearGradient id="a" gradientTransform="matrix(0 .9738 -1.34684 0 22.08 -7.808)" gradientUnits="userSpaceOnUse" x1="8.532" x2="12.639" y1="10.083" y2="10.083"><stop offset="0" stop-color="#90dbec"/><stop offset=".262" stop-color="#55c1ec"/><stop offset=".705" stop-color="#3689e6"/><stop offset="1" stop-color="#2b63a0"/></linearGradient><linearGradient xlink:href="#a" id="e" x1="8.134" y1="1.443" x2="8.134" y2="5.866" gradientUnits="userSpaceOnUse" gradientTransform="translate(-.134 .134)"/><linearGradient id="c"><stop offset="0" stop-color="#fff"/><stop offset=".063" stop-color="#fff" stop-opacity=".235"/><stop offset=".951" stop-color="#fff" stop-opacity=".157"/><stop offset="1" stop-color="#fff" stop-opacity=".392"/></linearGradient><linearGradient id="b" gradientTransform="matrix(.44577 0 0 .44994 -22.198 -3.024)" gradientUnits="userSpaceOnUse" x1="25.132" x2="25.132" y1="15.5" y2="48.396"><stop offset="0" stop-color="#fafafa"/><stop offset="1" stop-color="#e2e1de"/></linearGradient><linearGradient xlink:href="#b" id="f" x1="8.134" y1="11.866" x2="8.134" y2="1.866" gradientUnits="userSpaceOnUse" gradientTransform="matrix(1 0 0 -1 0 15.732)"/><linearGradient xlink:href="#c" id="g" x1="8" y1="3" x2="8" y2="14" gradientUnits="userSpaceOnUse"/><clipPath id="h"><path d="M16 1.793C14.963 2.986 14.005 4.1 13.156 5.07c-.017 0-.014-.006-.033-.006a.533.533 0 0 0-.43.217L8.266 11.27c-.598.13-1.186.457-1.604 1.09-1.133 1.728-2.404 3.277-2.404 3.277a.533.533 0 0 0-.12.365h5.48c.173-.103.34-.22.487-.365.413-.408.682-.98.803-1.692.053-.307-.012-.578-.056-.855L16 8.6z" fill="#4c158a"/></clipPath><linearGradient id="i" y2="23.743" gradientUnits="userSpaceOnUse" x2="33.437" gradientTransform="matrix(.5656 0 0 .562 -.077 -7.93)" y1="18.868" x1="28.059"><stop offset="0" stop-color="#6e3d09"/><stop offset=".242" stop-color="#ea8113"/><stop offset=".621" stop-color="#5c3307"/><stop offset="1" stop-color="#e07c12"/></linearGradient><linearGradient id="j" y2="31.724" xlink:href="#d" gradientUnits="userSpaceOnUse" x2="22.012" gradientTransform="matrix(.5565 0 0 .5627 .185 -7.95)" y1="29.811" x1="20.251"/><linearGradient id="d"><stop offset="0" stop-color="#f2f2f2"/><stop offset="1" stop-color="#c3c3c3"/></linearGradient><radialGradient id="k" gradientUnits="userSpaceOnUse" cy="35.357" cx="15.415" gradientTransform="matrix(.4524 0 0 .5118 1.782 -5.44)" r="7.579"><stop offset="0" stop-color="#650000"/><stop offset="1" stop-color="#fb66f5"/></radialGradient></defs><path fill="url(#e)" stroke-opacity=".338" stroke="#2a70a7" d="M1.5 1.5v13h13v-13h-13z"/><path transform="translate(-.134 .134)" fill="url(#f)" d="M2.134 13.866h12v-12h-12z"/><path stroke-opacity=".849" stroke="url(#g)" fill="none" opacity=".8" d="M3.146 2.5c-.358 0-.646.223-.646.5v10c0 .277.288.5.646.5h9.708c.358 0 .646-.223.646-.5V3c0-.277-.288-.5-.646-.5H3.146z"/><g clip-path="url(#h)"><path d="M13.247 5.778l2.3 2.136.91-.942-.01-4.88c-1.168 1.343-2.276 2.634-3.2 3.687z" fill="url(#i)" stroke="#673907" stroke-linecap="round"/><path d="M8.316 12.098l1.437 1.24 6.05-5.273c-.245-.88-1.64-2.467-2.68-2.467z" fill="url(#j)" stroke="#797b75" stroke-linecap="round"/><path d="M4.667 15.973c3.003 0 5.284.417 5.715-2.12.35-2.045-2.073-3.025-3.275-1.2-1.153 1.757-2.437 3.32-2.437 3.32z" fill="url(#k)"/></g></svg>