<?xml version="1.0" encoding="UTF-8" standalone="no"?>
<svg
   xmlns:dc="http://purl.org/dc/elements/1.1/"
   xmlns:cc="http://creativecommons.org/ns#"
   xmlns:rdf="http://www.w3.org/1999/02/22-rdf-syntax-ns#"
   xmlns:svg="http://www.w3.org/2000/svg"
   xmlns="http://www.w3.org/2000/svg"
   xmlns:xlink="http://www.w3.org/1999/xlink"
   xmlns:sodipodi="http://sodipodi.sourceforge.net/DTD/sodipodi-0.dtd"
   xmlns:inkscape="http://www.inkscape.org/namespaces/inkscape"
   height="16"
   width="16"
   version="1.1"
   id="svg24"
   sodipodi:docname="sf05.svg"
   inkscape:version="0.92.3 (unknown)">
  <metadata
     id="metadata30">
    <rdf:RDF>
      <cc:Work
         rdf:about="">
        <dc:format>image/svg+xml</dc:format>
        <dc:type
           rdf:resource="http://purl.org/dc/dcmitype/StillImage" />
        <dc:title></dc:title>
      </cc:Work>
    </rdf:RDF>
  </metadata>
  <defs
     id="defs28">
    <clipPath
       clipPathUnits="userSpaceOnUse"
       id="clipPath936">
      <path
         style="fill:#4c158a;fill-opacity:1"
         d="m 16,1.7929688 c -1.036913,1.1926078 -1.994844,2.305806 -2.84375,3.2773437 -0.01719,-7.439e-4 -0.01443,-0.00586 -0.0332,-0.00586 A 0.53346598,0.53346598 0 0 0 12.693359,5.28125 L 8.265625,11.267578 C 7.6678935,11.396697 7.0801163,11.724713 6.6621094,12.359375 5.5291817,14.085788 4.2578125,15.634766 4.2578125,15.634766 A 0.53346598,0.53346598 0 0 0 4.1386719,16 h 5.4785156 c 0.1737957,-0.102636 0.340494,-0.219138 0.4882815,-0.365234 0.412334,-0.407618 0.681596,-0.978348 0.802734,-1.691407 0.05267,-0.307763 -0.0127,-0.578532 -0.05664,-0.855468 L 16,8.5996094 Z"
         id="path938"
         inkscape:connector-curvature="0" />
    </clipPath>
    <linearGradient
       id="g"
       y2="23.743"
       gradientUnits="userSpaceOnUse"
       x2="33.437"
       gradientTransform="matrix(0.5656,0,0,0.5621,-0.077,-7.93)"
       y1="18.868"
       x1="28.059">
      <stop
         offset="0"
         stop-color="#6e3d09"
         id="stop27" />
      <stop
         offset=".242"
         stop-color="#ea8113"
         id="stop29" />
      <stop
         offset=".621"
         stop-color="#5c3307"
         id="stop31" />
      <stop
         offset="1"
         stop-color="#e07c12"
         id="stop33" />
    </linearGradient>
    <linearGradient
       id="h"
       y2="31.724001"
       xlink:href="#c-3"
       gradientUnits="userSpaceOnUse"
       x2="22.011999"
       gradientTransform="matrix(0.55645,0,0,0.56274,0.185,-7.95)"
       y1="29.811001"
       x1="20.250999" />
    <linearGradient
       id="c-3">
      <stop
         offset="0"
         stop-color="#f2f2f2"
         id="stop37" />
      <stop
         offset="1"
         stop-color="#c3c3c3"
         id="stop39" />
    </linearGradient>
    <radialGradient
       id="i"
       gradientUnits="userSpaceOnUse"
       cy="35.356998"
       cx="15.415"
       gradientTransform="matrix(0.45238,0,0,0.5118,1.782,-5.44)"
       r="7.579">
      <stop
         offset="0"
         stop-color="#650000"
         id="stop42" />
      <stop
         offset="1"
         stop-color="#fb66f5"
         id="stop44" />
    </radialGradient>
  </defs>
  <sodipodi:namedview
     pagecolor="#ffffff"
     bordercolor="#666666"
     borderopacity="1"
     objecttolerance="10"
     gridtolerance="10"
     guidetolerance="10"
     inkscape:pageopacity="0"
     inkscape:pageshadow="2"
     inkscape:window-width="1366"
     inkscape:window-height="706"
     id="namedview26"
     showgrid="false"
     inkscape:zoom="14.75"
     inkscape:cx="-0.71186441"
     inkscape:cy="7.4576271"
     inkscape:window-x="0"
     inkscape:window-y="0"
     inkscape:window-maximized="1"
     inkscape:current-layer="svg24" />
  <g
     transform="translate(0 -6)"
     id="g22">
    <path
       d="m5.4921875 9a .50005006.50005006 0 0 0 -.050781.00391.50005006.50005006 0 0 0 -.095703.021484.50005006.50005006 0 0 0 -.046875.017578.50005006.50005006 0 0 0 -.044922.021484.50005006.50005006 0 0 0 -.082031.058594.50005006.50005006 0 0 0 -.037109.033203.50005006.50005006 0 0 0 -.03125.039063.50005006.50005006 0 0 0 -.029297.041016.50005006.50005006 0 0 0 -.0742195.2363242.50005006.50005006 0 0 0 0 .048828.50005006.50005006 0 0 0  .013672.099609.50005006.50005006 0 0 0  .056641.1367187.50005006.50005006 0 0 0  .060547.080078.50005006.50005006 0 0 0  .035156.035156.50005006.50005006 0 0 0  .125.082031.50005006.50005006 0 0 0  .095703.03125.50005006.50005006 0 0 0  .1054685.0136731h9.0156245a.50005006.50005006 0 0 0  .09961-.011719.50005006.50005006 0 0 0  .04687-.013672.50005006.50005006 0 0 0  .134765-.066406.50005006.50005006 0 0 0  .07617-.064453.50005006.50005006 0 0 0  .03125-.039063.50005006.50005006 0 0 0  .0293-.041016.50005006.50005006 0 0 0  .04297-.089844.50005006.50005006 0 0 0  .02539-.095703.50005006.50005006 0 0 0  .0059-.099609.50005006.50005006 0 0 0 -.0039-.050781.50005006.50005006 0 0 0 -.04297-.1425782.50005006.50005006 0 0 0 -.05273-.085937.50005006.50005006 0 0 0 -.03125-.037109.50005006.50005006 0 0 0 -.03516-.035156.50005006.50005006 0 0 0 -.03906-.03125.50005006.50005006 0 0 0 -.230514-.0917976.50005006.50005006 0 0 0 -.050781-.0039062.50005006.50005006 0 0 0 -.00586 0zm0 3a .50005006.50005006 0 0 0 -.050781.0039.50005006.50005006 0 0 0 -.048828.0078.50005006.50005006 0 0 0 -.046875.01367.50005006.50005006 0 0 0 -.1347656.06641.50005006.50005006 0 0 0 -.039063.03125.50005006.50005006 0 0 0 -.037109.0332.50005006.50005006 0 0 0 -.03125.03906.50005006.50005006 0 0 0 -.029297.04101.50005006.50005006 0 0 0 -.023438.04297.50005006.50005006 0 0 0 -.019531.04687.50005006.50005006 0 0 0 -.015625.04687.50005006.50005006 0 0 0 -.00977.04883.50005006.50005006 0 0 0 -.0058549.099644.50005006.50005006 0 0 0  .00391.05078.50005006.50005006 0 0 0  .025391.0957.50005006.50005006 0 0 0  .017578.04687.50005006.50005006 0 0 0  .023437.04297.50005006.50005006 0 0 0  .029297.04297.50005006.50005006 0 0 0  .066406.07227.50005006.50005006 0 0 0  .039063.03125.50005006.50005006 0 0 0  .1328125.06836.50005006.50005006 0 0 0  .154293.027346h5.0156245a.50005006.50005006 0 0 0  .146485-.02539.50005006.50005006 0 0 0  .04687-.01758.50005006.50005006 0 0 0  .04492-.02148.50005006.50005006 0 0 0  .04297-.02734.50005006.50005006 0 0 0  .03906-.03125.50005006.50005006 0 0 0  .03711-.0332.50005006.50005006 0 0 0  .03125-.03906.50005006.50005006 0 0 0  .08789-.177735.50005006.50005006 0 0 0  .0098-.04883.50005006.50005006 0 0 0  .0059-.05078.50005006.50005006 0 0 0 -.09961-.328125.50005006.50005006 0 0 0 -.105469-.103516.50005006.50005006 0 0 0 -.04297-.02734.50005006.50005006 0 0 0 -.08984-.04101.50005006.50005006 0 0 0 -.04883-.01367.50005006.50005006 0 0 0 -.04883-.0098.50005006.50005006 0 0 0 -.056706-.003894zm0 3a .50005006.50005006 0 0 0 -.050781.0039.50005006.50005006 0 0 0 -.1875.06055.50005006.50005006 0 0 0 -.042969.02734.50005006.50005006 0 0 0 -.1367187.144538.50005006.50005006 0 0 0 -.0429688.089844.50005006.50005006 0 0 0 -.03125.195312.50005006.50005006 0 0 0  .00391.05078.50005006.50005006 0 0 0  .025391.0957.50005006.50005006 0 0 0  .070312.132812.50005006.50005006 0 0 0  .1484375.13086.50005006.50005006 0 0 0  .1386719.05469.50005006.50005006 0 0 0  .1054651.013674h9.0156245a.50005006.50005006 0 0 0  .09961-.01172.50005006.50005006 0 0 0  .04687-.01367.50005006.50005006 0 0 0  .04687-.01758.50005006.50005006 0 0 0  .04492-.02148.50005006.50005006 0 0 0  .08203-.05859.50005006.50005006 0 0 0  .03711-.0332.50005006.50005006 0 0 0  .03125-.03906.50005006.50005006 0 0 0  .0293-.04102.50005006.50005006 0 0 0  .02344-.04297.50005006.50005006 0 0 0  .03516-.09375.50005006.50005006 0 0 0  .0098-.04883.50005006.50005006 0 0 0  .0059-.09961.50005006.50005006 0 0 0 -.0039-.05078.50005006.50005006 0 0 0 -.0098-.04883.50005006.50005006 0 0 0 -.05664-.136718.50005006.50005006 0 0 0 -.365235-.238282.50005006.50005006 0 0 0 -.05078-.0039.50005006.50005006 0 0 0 -.0059 0h-9.0156245zm0 3a .50005006.50005006 0 0 0 -.099609.01172.50005006.50005006 0 0 0 -.046875.01367.50005006.50005006 0 0 0 -.046875.01758.50005006.50005006 0 0 0 -.087891.04883.50005006.50005006 0 0 0 -.076172.06445.50005006.50005006 0 0 0 -.03125.03906.50005006.50005006 0 0 0 -.029297.04102.50005006.50005006 0 0 0 -.042969.08984.50005006.50005006 0 0 0 -.015625.04687.50005006.50005006 0 0 0 -.00977.04883.50005006.50005006 0 0 0 -.0058545.050786.50005006.50005006 0 0 0  .013672.148438.50005006.50005006 0 0 0  .056641.136718.50005006.50005006 0 0 0  .060547.08008.50005006.50005006 0 0 0  .074219.06641.50005006.50005006 0 0 0  .042969.02734.50005006.50005006 0 0 0  .089844.04102.50005006.50005006 0 0 0  .048828.01367.50005006.50005006 0 0 0  .1054675.013668h5.0156245a.50005006.50005006 0 0 0  .09961-.01172.50005006.50005006 0 0 0  .04687-.01367.50005006.50005006 0 0 0  .04687-.01758.50005006.50005006 0 0 0  .04492-.02148.50005006.50005006 0 0 0  .04297-.02734.50005006.50005006 0 0 0  .195313-.28125.50005006.50005006 0 0 0  .015635-.148444.50005006.50005006 0 0 0 -.130859-.316407.50005006.50005006 0 0 0 -.117188-.09375.50005006.50005006 0 0 0 -.089844-.041015.50005006.50005006 0 0 0 -.154297-.027344z"
       fill="#565656"
       id="path2" />
    <g
       fill="none"
       stroke="#fff"
       stroke-linecap="round"
       stroke-linejoin="round"
       id="g12">
      <path
         d="m5.4929788 13.5h5.0143092-5.0143091z"
         opacity=".35"
         id="path4" />
      <path
         d="m5.4929788 10.5h9.0143042-9.0143041z"
         opacity=".35"
         id="path6" />
      <path
         d="m5.4929788 19.5h5.0143092-5.0143091z"
         opacity=".35"
         id="path8" />
      <path
         d="m5.4929788 16.5h9.0143042-9.0143041z"
         opacity=".35"
         id="path10" />
    </g>
    <circle
       cx="2.5"
       cy="11.5"
       fill="#fff"
       opacity=".35"
       r="1.5"
       id="circle14" />
    <circle
       cx="2.5"
       cy="10.5"
       fill="#565656"
       r="1.5"
       id="circle16" />
    <circle
       cx="2.5"
       cy="17.5"
       fill="#fff"
       opacity=".35"
       r="1.5"
       id="circle18" />
    <circle
       cx="2.5"
       cy="16.5"
       fill="#565656"
       r="1.5"
       id="circle20" />
  </g>
  <g
     id="g931"
     clip-path="url(#clipPath936)">
    <path
       style="fill:url(#g);stroke:#673907;stroke-linecap:round"
       inkscape:connector-curvature="0"
       id="path69"
       d="m 13.247,5.778 2.3,2.136 0.91,-0.942 -0.01,-4.88 c -1.168,1.343 -2.276,2.634 -3.2,3.687 z" />
    <path
       style="fill:url(#h);stroke:#797b75;stroke-linecap:round"
       inkscape:connector-curvature="0"
       id="path71"
       d="m 8.316,12.098 1.437,1.24 6.05,-5.273 c -0.245,-0.88 -1.64,-2.467 -2.68,-2.467 z" />
    <path
       style="fill:url(#i)"
       inkscape:connector-curvature="0"
       id="path73"
       d="m 4.667,15.973 c 3.003,0 5.284,0.417 5.715,-2.12 0.35,-2.045 -2.073,-3.025 -3.275,-1.2 -1.153,1.757 -2.437,3.32 -2.437,3.32 z" />
  </g>
</svg>
