<?xml version="1.0" encoding="UTF-8" standalone="no"?>
<svg
   xmlns:dc="http://purl.org/dc/elements/1.1/"
   xmlns:cc="http://creativecommons.org/ns#"
   xmlns:rdf="http://www.w3.org/1999/02/22-rdf-syntax-ns#"
   xmlns:svg="http://www.w3.org/2000/svg"
   xmlns="http://www.w3.org/2000/svg"
   xmlns:xlink="http://www.w3.org/1999/xlink"
   xmlns:sodipodi="http://sodipodi.sourceforge.net/DTD/sodipodi-0.dtd"
   xmlns:inkscape="http://www.inkscape.org/namespaces/inkscape"
   viewBox="0 0 16 16"
   version="1.1"
   id="svg6"
   sodipodi:docname="sf06.svg"
   inkscape:version="0.92.3 (unknown)"
   inkscape:export-filename="/home/rizmut/Dokumen/Rizmut/Github/libreoffice-style-elementary/images_elementary/cmd/sc_dbviewtablenames.png"
   inkscape:export-xdpi="96"
   inkscape:export-ydpi="96">
  <metadata
     id="metadata12">
    <rdf:RDF>
      <cc:Work
         rdf:about="">
        <dc:format>image/svg+xml</dc:format>
        <dc:type
           rdf:resource="http://purl.org/dc/dcmitype/StillImage" />
        <dc:title></dc:title>
      </cc:Work>
    </rdf:RDF>
  </metadata>
  <defs
     id="defs10">
    <linearGradient
       gradientTransform="matrix(1.3831741,0,0,1.414422,-36.243337,-3.8728445)"
       id="e"
       gradientUnits="userSpaceOnUse"
       x1="8.2950277"
       x2="8.2950277"
       y1="-4.283906"
       y2="16.849756">
      <stop
         offset="0"
         stop-color="#cdf87e"
         id="stop22" />
      <stop
         offset=".26238"
         stop-color="#a2e34f"
         id="stop24" />
      <stop
         offset=".66093999"
         stop-color="#68b723"
         id="stop26" />
      <stop
         offset="1"
         stop-color="#1d7e0d"
         id="stop28" />
    </linearGradient>
    <linearGradient
       inkscape:collect="always"
       xlink:href="#e"
       id="linearGradient844"
       x1="7"
       y1="-4"
       x2="7"
       y2="17"
       gradientUnits="userSpaceOnUse"
       gradientTransform="matrix(0.94102962,0,0,1.0270126,0.4612697,-4.5603804)" />
    <linearGradient
       id="a"
       gradientTransform="matrix(0.59435835,0,0,0.59991399,-19.26472,-0.0325514)"
       gradientUnits="userSpaceOnUse"
       x1="25.132275"
       x2="25.132275"
       y1="15.499894"
       y2="48.395687">
      <stop
         offset="0"
         stop-color="#fafafa"
         id="stop2" />
      <stop
         offset="1"
         stop-color="#e2e1de"
         id="stop4" />
    </linearGradient>
    <linearGradient
       id="f"
       gradientUnits="userSpaceOnUse"
       x1="11.001243"
       x2="11.001243"
       xlink:href="#c"
       y1="2.2688611"
       y2="19.728327"
       gradientTransform="matrix(0.7677984,0,0,1.0267921,4.1154107,18.507334)" />
    <linearGradient
       id="c">
      <stop
         offset="0"
         stop-color="#fff"
         id="stop8" />
      <stop
         offset="0.5"
         stop-color="#fff"
         stop-opacity=".235294"
         id="stop10" />
      <stop
         offset=".95056331"
         stop-color="#fff"
         stop-opacity=".156863"
         id="stop12" />
      <stop
         offset="1"
         stop-color="#fff"
         stop-opacity=".392157"
         id="stop14" />
    </linearGradient>
    <linearGradient
       inkscape:collect="always"
       xlink:href="#c"
       id="linearGradient896"
       x1="7"
       y1="2"
       x2="7"
       y2="9"
       gradientUnits="userSpaceOnUse"
       gradientTransform="matrix(0.98703551,0,0,0.88413271,0.09322256,-3.3509456)" />
    <clipPath
       clipPathUnits="userSpaceOnUse"
       id="clipPath936">
      <path
         style="fill:#4c158a;fill-opacity:1"
         d="m 16,1.7929688 c -1.036913,1.1926078 -1.994844,2.305806 -2.84375,3.2773437 -0.01719,-7.439e-4 -0.01443,-0.00586 -0.0332,-0.00586 A 0.53346598,0.53346598 0 0 0 12.693359,5.28125 L 8.265625,11.267578 C 7.6678935,11.396697 7.0801163,11.724713 6.6621094,12.359375 5.5291817,14.085788 4.2578125,15.634766 4.2578125,15.634766 A 0.53346598,0.53346598 0 0 0 4.1386719,16 h 5.4785156 c 0.1737957,-0.102636 0.340494,-0.219138 0.4882815,-0.365234 0.412334,-0.407618 0.681596,-0.978348 0.802734,-1.691407 0.05267,-0.307763 -0.0127,-0.578532 -0.05664,-0.855468 L 16,8.5996094 Z"
         id="path938"
         inkscape:connector-curvature="0" />
    </clipPath>
    <linearGradient
       id="g"
       y2="23.743"
       gradientUnits="userSpaceOnUse"
       x2="33.437"
       gradientTransform="matrix(0.5656,0,0,0.5621,-0.077,-7.93)"
       y1="18.868"
       x1="28.059">
      <stop
         offset="0"
         stop-color="#6e3d09"
         id="stop27" />
      <stop
         offset=".242"
         stop-color="#ea8113"
         id="stop29" />
      <stop
         offset=".621"
         stop-color="#5c3307"
         id="stop31" />
      <stop
         offset="1"
         stop-color="#e07c12"
         id="stop33" />
    </linearGradient>
    <linearGradient
       id="h"
       y2="31.724001"
       xlink:href="#c-3"
       gradientUnits="userSpaceOnUse"
       x2="22.011999"
       gradientTransform="matrix(0.55645,0,0,0.56274,0.185,-7.95)"
       y1="29.811001"
       x1="20.250999" />
    <linearGradient
       id="c-3">
      <stop
         offset="0"
         stop-color="#f2f2f2"
         id="stop37" />
      <stop
         offset="1"
         stop-color="#c3c3c3"
         id="stop39" />
    </linearGradient>
    <radialGradient
       id="i"
       gradientUnits="userSpaceOnUse"
       cy="35.356998"
       cx="15.415"
       gradientTransform="matrix(0.45238,0,0,0.5118,1.782,-5.44)"
       r="7.579">
      <stop
         offset="0"
         stop-color="#650000"
         id="stop42" />
      <stop
         offset="1"
         stop-color="#fb66f5"
         id="stop44" />
    </radialGradient>
  </defs>
  <sodipodi:namedview
     pagecolor="#ffffff"
     bordercolor="#666666"
     borderopacity="1"
     objecttolerance="10"
     gridtolerance="10"
     guidetolerance="10"
     inkscape:pageopacity="0"
     inkscape:pageshadow="2"
     inkscape:window-width="1366"
     inkscape:window-height="706"
     id="namedview8"
     showgrid="true"
     inkscape:snap-global="true"
     inkscape:zoom="11.313709"
     inkscape:cx="-0.94573886"
     inkscape:cy="-2.7512591"
     inkscape:window-x="0"
     inkscape:window-y="0"
     inkscape:window-maximized="1"
     inkscape:current-layer="g909">
    <inkscape:grid
       type="xygrid"
       id="grid846" />
  </sodipodi:namedview>
  <g
     id="g909"
     transform="translate(0,1.9999995)">
    <rect
       style="fill:url(#a);stroke-width:1.33332992"
       height="13.999999"
       rx="0.42372692"
       ry="0.4914782"
       width="14"
       x="1"
       y="-0.99999952"
       id="rect32" />
    <path
       style="opacity:0.32000002;fill:#030303;fill-opacity:1"
       d="M 0.5 0 C 0.22369855 -0.0003844 -0.00038442363 0.2236985 0 0.5 L 0 3 L 0 4 L 0 15.5 C -0.00038442363 15.776301 0.22369855 16.000384 0.5 16 L 15.5 16 C 15.776301 16.000384 16.000384 15.776301 16 15.5 L 16 4 L 16 3 L 16 0.5 C 16.000384 0.2236985 15.776301 -0.0003844 15.5 0 L 0.5 0 z M 0.99804688 0.99804688 L 15.001953 0.99804688 L 15.001953 3 L 11 3 L 11 1 L 10 1 L 10 3 L 6 3 L 6 1 L 5 1 L 5 3 L 0.99804688 3 L 0.99804688 0.99804688 z M 0.99804688 4 L 5 4 L 5 7 L 1 7 L 1 8 L 5 8 L 5 11 L 1 11 L 1 12 L 5 12 L 5 15 L 6 15 L 6 12 L 10 12 L 10 15 L 11 15 L 11 12 L 15 12 L 15 11 L 11 11 L 11 8 L 15 8 L 15 7 L 11 7 L 11 4 L 15.001953 4 L 15.001953 15.001953 L 0.99804688 15.001953 L 0.99804688 4 z M 6 4 L 10 4 L 10 7 L 6 7 L 6 4 z M 6 8 L 10 8 L 10 11 L 6 11 L 6 8 z "
       transform="translate(0,-1.9999995)"
       id="path4" />
    <path
       id="path862"
       d="m 0.5,-1.999999 a 0.49930579,0.49930579 0 0 0 -0.5,0.5 v 3.5 H 0.99804688 V -1.0019521 H 15.001953 V 2.000001 H 16 v -3.5 a 0.49930579,0.49930579 0 0 0 -0.5,-0.5 z M 5,-0.99999902 V 1.000001 H 1 v 1 h 4 1 4 1 4 v -1 H 11 V -0.99999902 H 10 V 1.000001 H 6 v -2.00000002 z"
       style="opacity:0.4;fill:#126400;fill-opacity:1"
       inkscape:connector-curvature="0" />
    <path
       sodipodi:nodetypes="ccccc"
       inkscape:connector-curvature="0"
       style="fill:url(#linearGradient844);fill-opacity:1;stroke-width:0.98308158"
       id="path2"
       d="M 0.50129612,-1.4793423 H 15.517744 V 1.601696 H 0.50129612 Z" />
    <path
       sodipodi:nodetypes="ccccccccc"
       inkscape:connector-curvature="0"
       id="rect885"
       d="m 0.50129512,-1.4793423 1e-6,3.0810383 L 1.5107461,1.5938855 1.5,-0.5624995 l 13.0625,0 v 2.1641971 l 0.955238,5e-7 6e-6,-3.0810383 z"
       style="opacity:1;fill:url(#linearGradient896);fill-opacity:1;stroke:none;stroke-width:0.93416828;stroke-linecap:round;stroke-linejoin:round;stroke-miterlimit:4;stroke-dasharray:none;stroke-dashoffset:0;stroke-opacity:1" />
    <rect
       y="-1.5058208"
       x="5"
       height="3.0743246"
       width="1"
       id="rect898"
       style="opacity:0.4;fill:#126400;fill-opacity:1;stroke:none;stroke-width:1.09305108;stroke-linecap:round;stroke-linejoin:round;stroke-miterlimit:4;stroke-dasharray:none;stroke-dashoffset:0;stroke-opacity:1" />
    <rect
       y="-1.5058208"
       x="10"
       height="3.1029625"
       width="1"
       id="rect900"
       style="opacity:0.4;fill:#126400;fill-opacity:1;stroke:none;stroke-width:1.09305108;stroke-linecap:round;stroke-linejoin:round;stroke-miterlimit:4;stroke-dasharray:none;stroke-dashoffset:0;stroke-opacity:1" />
    <g
       transform="translate(0,-1.9999993)"
       id="g931"
       clip-path="url(#clipPath936)">
      <path
         style="fill:url(#g);stroke:#673907;stroke-linecap:round"
         inkscape:connector-curvature="0"
         id="path69"
         d="m 13.247,5.778 2.3,2.136 0.91,-0.942 -0.01,-4.88 c -1.168,1.343 -2.276,2.634 -3.2,3.687 z" />
      <path
         style="fill:url(#h);stroke:#797b75;stroke-linecap:round"
         inkscape:connector-curvature="0"
         id="path71"
         d="m 8.316,12.098 1.437,1.24 6.05,-5.273 c -0.245,-0.88 -1.64,-2.467 -2.68,-2.467 z" />
      <path
         style="fill:url(#i)"
         inkscape:connector-curvature="0"
         id="path73"
         d="m 4.667,15.973 c 3.003,0 5.284,0.417 5.715,-2.12 0.35,-2.045 -2.073,-3.025 -3.275,-1.2 -1.153,1.757 -2.437,3.32 -2.437,3.32 z" />
    </g>
  </g>
</svg>
