<svg xmlns="http://www.w3.org/2000/svg" viewBox="0 0 16 16"><defs><linearGradient id="c" gradientTransform="matrix(.59436 0 0 .5999 -19.265 -.033)" gradientUnits="userSpaceOnUse" x1="25.132" x2="25.132" y1="15.5" y2="48.396"><stop offset="0" stop-color="#fafafa"/><stop offset="1" stop-color="#e2e1de"/></linearGradient><linearGradient id="a"><stop offset="0" stop-color="#fff"/><stop offset=".5" stop-color="#fff" stop-opacity=".235"/><stop offset=".951" stop-color="#fff" stop-opacity=".157"/><stop offset="1" stop-color="#fff" stop-opacity=".392"/></linearGradient><linearGradient id="b"><stop stop-color="#1f1f1f" offset="0"/><stop stop-color="#5c5c5c" offset="1"/></linearGradient></defs><g transform="translate(0 2)"><rect height="14" rx=".424" ry=".491" width="14" x="1" y="-1" fill="url(#c)"/><path d="M.5-2c-.276 0-.5.224-.5.5v15c0 .276.224.5.5.5h15c.276 0 .5-.224.5-.5v-15c0-.276-.224-.5-.5-.5zm.498.998h14.004V1H11v-2h-1v2H6v-2H5v2H.998zM.998 2H5v3H1v1h4v3H1v1h4v3h1V2H15.002v11.002H.998zM15 6V5zm0 4V9zm-5 3h1z" opacity=".32" fill="#030303"/><path d="M.5-2a.5.5 0 0 0-.5.5V2h.998v-3.002h14.004V2H16v-3.5a.5.5 0 0 0-.5-.5zM5-1v2H1v1h14V1h-4v-2h-1v2H6v-2z" opacity=".4" fill="#ababab"/><path opacity=".4" fill="#ababab" d="M5-1.506h1v3.074H5zM10-1.506h1v3.103h-1z"/><path d="M10.265 7.186H8.87v4.854h-.904V7.186H7V6.76l.966-.314v-.32q0-1.012.437-1.52.443-.506 1.36-.506.527 0 1.07.188l-.24.714q-.47-.152-.82-.152-.46 0-.68.304-.222.304-.222.963v.36h1.395z" opacity=".66" fill="#ff8c82" stroke="#7a0000" stroke-width=".559" stroke-linejoin="round"/><path d="M17.716 16.335l-1.92-2.72h1.04l1.432 2.097 1.418-2.097h1.03l-1.92 2.72 2.025 2.842h-1.037l-1.515-2.22-1.535 2.22h-1.028z" transform="matrix(.5534 0 0 .55258 2.196 .974)" opacity=".66" fill="#ff8c82" stroke="#7a0000" stroke-width=".561" stroke-linejoin="round"/></g></svg>