<svg height="32" width="32" xmlns="http://www.w3.org/2000/svg" xmlns:xlink="http://www.w3.org/1999/xlink"><linearGradient id="a"><stop offset="0" stop-color="#181818"/><stop offset="1" stop-color="#181818" stop-opacity="0"/></linearGradient><linearGradient id="b" gradientUnits="userSpaceOnUse" x1="15.99999256324" x2="15.99999256324" y1="4.00000010806" y2="27.99999891031"><stop offset="0" stop-color="#fff"/><stop offset=".04026113" stop-color="#fff" stop-opacity=".235294"/><stop offset=".95833337" stop-color="#fff" stop-opacity=".156863"/><stop offset="1" stop-color="#fff" stop-opacity=".392157"/></linearGradient><radialGradient id="c" cx="4.992979" cy="43.5" gradientTransform="matrix(2.003784 0 0 1.4 27.98813 -17.4)" gradientUnits="userSpaceOnUse" r="2.5" xlink:href="#a"/><radialGradient id="d" cx="4.992979" cy="43.5" gradientTransform="matrix(2.003784 0 0 1.4 -20.01187 -104.4)" gradientUnits="userSpaceOnUse" r="2.5" xlink:href="#a"/><linearGradient id="e" gradientUnits="userSpaceOnUse" x1="25.058096" x2="25.058096" y1="47.027729" y2="39.999443"><stop offset="0" stop-color="#181818" stop-opacity="0"/><stop offset=".5" stop-color="#181818"/><stop offset="1" stop-color="#181818" stop-opacity="0"/></linearGradient><linearGradient id="f" gradientUnits="userSpaceOnUse" x1="16.101694" x2="16.576269" y1="29.152542" y2="2.169492"><stop offset="0" stop-color="#1e74bc"/><stop offset="1" stop-color="#3fa8ea"/></linearGradient><radialGradient id="g" cx="16.191757" cy="6.795628" gradientTransform="matrix(-.03128313 2.5850035 -2.6192824 -.03169798 34.497954 -34.844716)" gradientUnits="userSpaceOnUse" r="13.5"><stop offset="0" stop-color="#54bfec"/><stop offset=".26238" stop-color="#55c1ec"/><stop offset=".704952" stop-color="#3689e6"/><stop offset="1" stop-color="#2b63a0"/></radialGradient><g opacity=".4" transform="matrix(.73684208421 0 0 .42857134286 -1.68421022105 10.85714641906)"><path d="m38 40h5v7h-5z" fill="url(#c)"/><path d="m-10-47h5v7h-5z" fill="url(#d)" transform="scale(-1)"/><path d="m10 40h28v7.000001h-28z" fill="url(#e)"/></g><rect fill="url(#g)" height="27" rx="2.16" width="27" x="2.5" y="2.5"/><rect fill="none" height="25" opacity=".5" rx="1.086957" stroke="url(#b)" stroke-linecap="round" stroke-linejoin="round" width="25" x="3.5" y="3.5"/><rect fill="none" height="27" opacity=".5" rx="2.16" stroke="url(#f)" width="27" x="2.499999" y="2.5"/><path d="m5 5v2h-.5v1h.5v4h-.5v1h.5v4h-.5v1h.5v4h-.5v1h.5v4h1v-4h4v4h1v-4h4v4h1v-4h4v4h1v-4h4v4h1v-4h1.5v-1h-1.5v-4h1.5v-1h-1.5v-4h1.5v-1h-1.5v-4h1.5v-1h-1.5v-2h-1v2h-4v-2h-1v2h-4v-2h-1v2h-4v-2h-1v2h-4v-2zm1 3h4v4h-4zm5 0h4v4h-4zm5 0h4v4h-4zm5 0h4v4h-4zm-15 5h4v4h-4zm5 0h4v4h-4zm5 0h4v4h-4zm5 0h4v4h-4zm-15 5h4v4h-4zm5 0h4v4h-4zm5 0h4v4h-4zm5 0h4v4h-4z" fill="#fff" opacity=".1"/><path d="m16.355469 3.9960938c-1.484743.066397-3.154762.485563-5.056641 1.3476562a1.0050492 1.0050492 0 0 0 -.002 0c-.852915.3870696-1.3510327 1.4264757-1.119094 2.3339844.231939.9075086 1.167478 1.5794258 2.101563 1.5097656l-.02344.00195s1.555646-.023581 2.298829.2226563c.383926.1272055.413687.3037653.320312.085937-.05303-.1236975.118686-.067316-.384766.8046871a1.0050492 1.0050492 0 0 0 -.01172.02539l-1.482422 2.568359c-.642517.06312-1.261333.305323-1.585938.867188l-5.4023435 9.357422c-.5268723.914188-.1742983 2.225678.7402344 2.751953l3.2460937 1.873047c.9141884.526872 2.2256784.174298 2.7519534-.740235l5.402344-9.355468a1.0050492 1.0050492 0 0 0 0-.002c.322884-.561645.22521-1.215697-.04102-1.802735l1.326172-2.298828c.177307.315479.321037.664941.634765.845703l1.470703.84961c.913267.527517 2.224385.174955 2.751954-.738282l2.18164-3.779297c.526881-.9141364.174306-2.2256255-.740226-2.7519012l-1.470703-.8476562a1.0050492 1.0050492 0 0 0 -.002 0c-.45625-.2623599-1.016973-.3355629-1.525344-.1992188h-.002l-.177734.048828c-.477526-.7497402-1.14415-1.5700521-2.380813-2.2070311-1.036195-.5337225-2.329306-.8380745-3.818359-.7714843z" fill="#2e8ed3" opacity=".1"/><path d="m16.400391 5c-1.329009.059433-2.875585.4384515-4.6875 1.2597656a1.0093962 1.0093962 0 0 0 .492187 1.9257813s1.596155-.081037 2.666016.2734375c.53493.1772372.830688.4161867.927734.6425781.09705.2263914.145131.6939787-.4375 1.7031255h.002l-1.765625 3.058593a1.0093962 1.0093962 0 0 0 -1.316453.402344l-5.4023438 9.357422a1.0093962 1.0093962 0 0 0 .3710938 1.378906l3.246094 1.873047a1.0093962 1.0093962 0 0 0 1.378906-.371094l5.402344-9.355468a1.0093962 1.0093962 0 0 0 -.310547-1.339844l1.765625-3.058594a1.0093962 1.0093962 0 0 0 .002 0l.134766-.234375.002-.002c.119285-.195978.39098-.550848.628906-.708984.1211-.08049.242086.0033.330078-.0059l.263672 1.087891a1.0093962 1.0093962 0 0 0 .476562.634765l1.470704.84961a1.0093962 1.0093962 0 0 0 1.378906-.369141l2.18164-3.779297a1.0093962 1.0093962 0 0 0 -.371187-1.378819l-1.470703-.8476562a1.0093962 1.0093962 0 0 0 -.765625-.0996094l-.869141.2324218c-.36697-.7585597-.993985-1.7383046-2.412109-2.46875-.873173-.4497533-1.984095-.7195622-3.3125-.6601562z" fill="#2e8ed3" opacity=".25"/><path d="m19.25019 6.5573541c-1.428395-.7357363-3.677522-.9386927-7.120515.6219651 0 0 6.789984-.5179132 4.107002 4.1291478l-2.269031 3.930078-.811371-.468445-5.401758 9.356119 3.245483 1.873781 5.401758-9.356119-.811371-.468445 2.26903-3.930078.14639-.253553c.31781-.523594 1.292258-1.857064 2.648516-1.074026l.420813 1.730468 1.47061.849057 2.181197-3.7779447-1.470609-.849057-1.67976.4500896s-.489877-1.8170924-2.326384-2.7630378z" fill="#fff"/></svg>