<svg height="32" width="32" xmlns="http://www.w3.org/2000/svg" xmlns:xlink="http://www.w3.org/1999/xlink"><linearGradient id="a"><stop offset="0" stop-color="#fff"/><stop offset=".06316455" stop-color="#fff" stop-opacity=".235294"/><stop offset=".95056331" stop-color="#fff" stop-opacity=".156863"/><stop offset="1" stop-color="#fff" stop-opacity=".392157"/></linearGradient><radialGradient id="b" cx="4.992979" cy="43.5" gradientTransform="matrix(2.003784 0 0 1.4 27.98813 -17.4)" gradientUnits="userSpaceOnUse" r="2.5" xlink:href="#c"/><linearGradient id="c"><stop offset="0" stop-color="#181818"/><stop offset="1" stop-color="#181818" stop-opacity="0"/></linearGradient><radialGradient id="d" cx="4.992979" cy="43.5" gradientTransform="matrix(2.003784 0 0 1.4 -20.01187 -104.4)" gradientUnits="userSpaceOnUse" r="2.5" xlink:href="#c"/><linearGradient id="e" gradientUnits="userSpaceOnUse" x1="25.058096" x2="25.058096" y1="47.027729" y2="39.999443"><stop offset="0" stop-color="#181818" stop-opacity="0"/><stop offset=".5" stop-color="#181818"/><stop offset="1" stop-color="#181818" stop-opacity="0"/></linearGradient><linearGradient id="f" gradientTransform="matrix(.72972973 0 0 .29729729 -1.513515 13.864869)" gradientUnits="userSpaceOnUse" x1="23.99999" x2="23.99999" xlink:href="#a" y1="4.999989" y2="43"/><linearGradient id="g"><stop offset="0" stop-color="#f4f4f4"/><stop offset="1" stop-color="#dbdbdb"/></linearGradient><linearGradient id="h"><stop offset="0" stop-color="#fff"/><stop offset=".03626217" stop-color="#fff" stop-opacity=".235294"/><stop offset=".95056331" stop-color="#fff" stop-opacity=".156863"/><stop offset="1" stop-color="#fff" stop-opacity=".392157"/></linearGradient><linearGradient id="i" gradientTransform="matrix(.45945946 0 0 .72972971 4.972976 -.513506)" gradientUnits="userSpaceOnUse" x1="23.99999" x2="23.99999" xlink:href="#h" y1="5.56415" y2="43"/><linearGradient id="j" gradientTransform="matrix(.54285587 0 0 .22814772 2.971419 20.424493)" gradientUnits="userSpaceOnUse" x1="33.210621" x2="33.210621" xlink:href="#g" y1="46.353771" y2="11.28877"/><linearGradient id="k" gradientTransform="matrix(.45945946 0 0 .72972971 4.972976 .486533)" gradientUnits="userSpaceOnUse" x1="23.99999" x2="23.99999" xlink:href="#h" y1="5.56415" y2="43"/><linearGradient id="l" gradientTransform="matrix(.54285587 0 0 .14123431 2.971419 3.143749)" gradientUnits="userSpaceOnUse" x1="25.132275" x2="25.132275" xlink:href="#g" y1=".985206" y2="62.706093"/><linearGradient id="m" gradientTransform="matrix(.72972973 0 0 .08108108 -1.513515 10.054054)" gradientUnits="userSpaceOnUse" x1="23.99999" x2="23.99999" xlink:href="#a" y1="11.666668" y2="36.333336"/><linearGradient id="n" gradientTransform="matrix(1 0 0 1.3333333 0 -4.333333)" gradientUnits="userSpaceOnUse" x1="17" x2="17" y1="14" y2="10"><stop offset="0"/><stop offset="1" stop-opacity="0"/></linearGradient><radialGradient id="o" cx="7.118353" cy="9.957108" gradientTransform="matrix(0 5.8591313 -8.3440444 0 99.355433 -44.574628)" gradientUnits="userSpaceOnUse" r="12.671875"><stop offset="0" stop-color="#505050"/><stop offset=".26238" stop-color="#2b2b2b"/><stop offset=".704952" stop-color="#0a0a0a"/><stop offset="1"/></radialGradient><radialGradient id="p" cx="22.099527" cy="24.537743" gradientTransform="matrix(.48086521 -.0168127 .01677143 .48085942 10.389289 10.030526)" gradientUnits="userSpaceOnUse" r="8.308505"><stop offset="0" stop-color="#fff" stop-opacity=".58"/><stop offset="1" stop-color="#fff" stop-opacity=".46"/></radialGradient><radialGradient id="q" cx="8.072266" cy="5.962701" fx="6" fy="3.371369" gradientTransform="matrix(.763971 -.03048104 .01729798 .57782578 12.122431 14.146504)" gradientUnits="userSpaceOnUse" r="4.572266"><stop offset="0" stop-color="#fff"/><stop offset="1" stop-color="#fff" stop-opacity=".526471"/></radialGradient><linearGradient id="r" gradientTransform="matrix(.27007055 .0141538 -.0141538 .27007056 .477649 11.128379)" gradientUnits="userSpaceOnUse" x1="67.908051" x2="71.214508" y1="6.663275" y2="44.456295"><stop offset="0" stop-color="#fff"/><stop offset=".507761" stop-color="#fff" stop-opacity=".235294"/><stop offset=".83456558" stop-color="#fff" stop-opacity=".156863"/><stop offset="1" stop-color="#fff" stop-opacity=".392157"/></linearGradient><linearGradient id="s" gradientTransform="matrix(.83333332 0 0 1 27.947001 -6.792735)" gradientUnits="userSpaceOnUse" x1="14.409911" x2="14.465328" y1="6.925648" y2="5.436808"><stop offset="0" stop-color="#a3907c"/><stop offset="1" stop-color="#f9c440"/></linearGradient><linearGradient id="t" gradientTransform="matrix(.99862953 .05233596 -.05233596 .99862953 10.474612 9.068265)" gradientUnits="userSpaceOnUse" x1="19.577271" x2="19.577271" y1="14.756647" y2="21.284676"><stop offset="0" stop-color="#f3f3f3"/><stop offset="1" stop-color="#f3f3f3" stop-opacity="0"/></linearGradient><g opacity=".4" transform="matrix(.84210526316 0 0 .42857134286 -4.21052599579 8.85714641906)"><path d="m38 40h5v7h-5z" fill="url(#b)"/><path d="m-10-47h5v7h-5z" fill="url(#d)" transform="scale(-1)"/><path d="m10 40h28v7.000001h-28z" fill="url(#e)"/></g><path d="m3.5 9.5h25c1.297092 0 2 3.324604 2 5v12.000368c.01033.964169-1.033653 1.068845-1.762738 1-8.745754 0-17.491508 0-26.2372625 0-.9641691.01033-1.0688452-1.033653-1-1.762737v-11.237631s.474654-5 2.0000005-5z" fill="url(#o)" opacity=".9"/><path d="m2.499999 15.5h27v11h-27z" fill="none" opacity=".25" stroke="url(#f)" stroke-linecap="round" stroke-linejoin="round"/><path d="m3.5 9.5h25c1.449291 0 1.999999 5 1.999999 5v11.99961c.0082.980409-1.057344 1.065948-1.793221 1-8.735593 0-17.471186 0-26.2067787 0-.9804089.0082-1.0659481-1.057345-1-1.793221v-11.206389s.5269137-5 2.0000007-5z" fill="none" opacity=".7" stroke="#000" stroke-linecap="round" stroke-linejoin="round"/><path d="m2-15h28v1h-28z" opacity=".4" transform="scale(1 -1)"/><path d="m26.5 17h2v2h-2z" fill="#0cceff"/><path d="m6.4999609 23.000039c4.3538641 0 18.9999761.00067 18.9999761.00067l.000024 8.49933s-12.666667 0-19.0000001 0c0-3.5 0-4.999999 0-8.5z" fill="url(#j)"/><path d="m24.5 30.5h-17.0000001v-7h17.0000001z" fill="none" stroke="url(#i)" stroke-linecap="round" stroke-linejoin="round"/><path d="m6.4999609 22.499961c4.3538821 0 19.0000551.000573 19.0000551.000573l.000023 8.999505s-12.666718 0-19.0000781 0c0-3.000026 0-6.000052 0-9.000077z" fill="none" opacity=".3" stroke="#000" stroke-linejoin="round" stroke-width=".999922"/><path d="m10 24v1h6.65625v-1zm9.34375 0v1h2.65625v-1zm-9.34375 2v1h4v-1zm6.65625 0v1h5.34375v-1zm-6.65625 2v1h12v-1z" opacity=".15"/><path d="m6 23h20v1h-20z" opacity=".15"/><path d="m4 10.499998h24c.835818 0 1.499999 3 1.499999 3-9 0-27 0-27 0s.579915-3 1.500001-3z" fill="none" opacity=".1" stroke="url(#m)" stroke-linecap="round" stroke-linejoin="round"/><path d="m6.4999609 3.5000391c4.3538641 0 18.9999761.0004146 18.9999761.0004146l.000024 8.4995853s-12.666667 0-19.0000001 0c0-2.1666665 0-6.3333327 0-8.4999999z" fill="url(#l)"/><path d="m24.5 11.500039h-17.0000001v-6.9999999h17.0000001z" fill="none" stroke="url(#k)" stroke-linecap="round" stroke-linejoin="round"/><path d="m6.4999609 3.5 19.0000551.00185.000023 8.998189h-19.0000781z" fill="none" opacity=".3" stroke="#000" stroke-linejoin="round" stroke-width=".999922"/><path d="m6 9h20v4h-20z" fill="url(#n)" opacity=".3"/><path d="m15.477073 14.532985c-2.453758 2.209374-2.653459 6.019896-.444085 8.473652 1.98123 2.20038 5.249641 2.58591 7.673006 1.049352l3.068588 3.408019 1.486293-1.338257-3.068589-3.40802c1.781451-2.249472 1.739677-5.540279-.241555-7.740658-2.209371-2.45376-6.019895-2.653458-8.473652-.444085zm1.338258 1.486293c1.650512-1.486128 4.162979-1.354455 5.649104.296054 1.486126 1.650509 1.354451 4.162978-.296061 5.649103-1.650508 1.486124-4.162975 1.354452-5.649101-.296062-1.486125-1.650507-1.354452-4.162975.296058-5.649101z" fill="#8cd5ff"/><path d="m23.152538 18.480569a3.9975098 3.9978559 48 1 1 -7.990539.279377 3.9975098 3.9978559 48 1 1 7.990539-.279377z" fill="url(#p)" fill-rule="evenodd" opacity=".8"/><path d="m19.144631 14.672501a4.1796688 4.2222849 48.622047 0 0 -4.19863 4.366972 4.1796688 4.2222849 48.622047 0 0 .180284 1.081829 9.1192772 9.2122579 48.622127 0 0 6.711843-4.501555 4.1796688 4.2222849 48.622047 0 0 -2.693497-.947246z" fill="url(#q)" fill-rule="evenodd" opacity=".15"/><path d="m24.488175 19.253588c-.144612 2.759476-2.498941 4.879242-5.258096 4.734643-2.759408-.14462-4.879127-2.498884-4.73451-5.258334.144611-2.759344 2.498792-4.878893 5.2582-4.734279 2.759154.144601 4.879014 2.498627 4.734406 5.25797z" fill="none" opacity=".5" stroke="url(#r)" stroke-linecap="round" stroke-linejoin="round"/><path d="m15.477073 14.532985c-2.453758 2.209374-2.653459 6.019896-.444085 8.473652 1.98123 2.20038 5.249641 2.58591 7.673006 1.049352l3.068588 3.408019 1.486293-1.338257-3.068589-3.40802c1.781451-2.249472 1.739677-5.540279-.241555-7.740658-2.209371-2.45376-6.019895-2.653458-8.473652-.444085zm1.338258 1.486293c1.650512-1.486128 4.162979-1.354455 5.649104.296054 1.486126 1.650509 1.354451 4.162978-.296061 5.649103-1.650508 1.486124-4.162975 1.354452-5.649101-.296062-1.486125-1.650507-1.354452-4.162975.296058-5.649101z" fill="none" stroke="#002e99" stroke-linecap="round" stroke-linejoin="round" stroke-opacity=".5"/><rect fill="url(#s)" height="3" rx=".46875" ry=".5" transform="matrix(.66913061 .74314483 -.74314483 .66913061 0 0)" width="7.5" x="35.387615" y="-3.251665"/><g fill="none"><path d="m24.906648 26.538276 1.114735-1.003668 4.014785 4.458871" opacity=".5" stroke="url(#t)"/><rect height="3" rx=".46875" ry=".5" stroke="#a76900" stroke-linejoin="round" stroke-opacity=".5" transform="matrix(.66913061 .74314483 -.74314483 .66913061 0 0)" width="7.5" x="35.387615" y="-3.251665"/></g></svg>