<svg height="32" viewBox="0 0 8.4666665 8.4666668" width="32" xmlns="http://www.w3.org/2000/svg" xmlns:xlink="http://www.w3.org/1999/xlink"><linearGradient id="a" gradientTransform="matrix(.3637 0 0 .41053 .033 -.33)" gradientUnits="userSpaceOnUse" x1="11.001" x2="11.001" xlink:href="#b" y1="2.269" y2="19.728"/><linearGradient id="b"><stop offset="0" stop-color="#fff"/><stop offset=".063" stop-color="#fff" stop-opacity=".235"/><stop offset=".951" stop-color="#fff" stop-opacity=".157"/><stop offset="1" stop-color="#fff" stop-opacity=".392"/></linearGradient><linearGradient id="c" gradientTransform="matrix(.36596 0 0 .37424 .025 -.13)" gradientUnits="userSpaceOnUse" x1="8.295" x2="8.295" y1="-4.284" y2="16.85"><stop offset="0" stop-color="#cdf87e"/><stop offset=".262" stop-color="#a2e34f"/><stop offset=".661" stop-color="#68b723"/><stop offset="1" stop-color="#1d7e0d"/></linearGradient><linearGradient id="d" gradientTransform="matrix(.1764 0 0 .0882 -.177 1.06)" gradientUnits="userSpaceOnUse" x1="23.954" x2="23.954" y1="15.999" y2="19.963"><stop offset="0"/><stop offset="1" stop-opacity="0"/></linearGradient><linearGradient id="e" gradientTransform="matrix(.1796 0 0 .1952 -.088 -.368)" gradientUnits="userSpaceOnUse" x1="24" x2="24" xlink:href="#b" y1="5" y2="43"/><linearGradient id="f" gradientTransform="matrix(.1573 0 0 .1587 .46 -.008)" gradientUnits="userSpaceOnUse" x1="25.132" x2="25.132" y1="15.5" y2="48.396"><stop offset="0" stop-color="#fafafa"/><stop offset="1" stop-color="#e2e1de"/></linearGradient><rect fill="url(#f)" height="7.408" rx=".264" width="6.879" x=".793" y=".53"/><path d="m.9.707h6.644l.023 7.407h-6.644z" fill="none" stroke="url(#e)" stroke-linecap="round" stroke-linejoin="round" stroke-width=".268"/><path d="m.53 2.382h7.406v.264h-7.406z" fill="url(#d)" opacity=".15"/><path d="m.66 2.12-.004 5.524c0 .203.206.423.41.423h6.324c.202 0 .41-.22.41-.424l.005-5.527" fill="none" opacity=".3" stroke="#000" stroke-width=".268"/><path d="m.965.392c-.21 0-.3.227-.3.44v1.286h7.138v-1.284c0-.216-.158-.43-.368-.43z" fill="url(#c)"/><path d="m.923.654.002 1.336 6.634.013v-1.336z" style="opacity:.5;fill:none;stroke-width:.268;stroke-linecap:round;stroke-linejoin:round;stroke:url(#a)"/><path d="m1.083.398c-.203 0-.423.245-.423.448v1.397l7.144.005v-1.406c0-.2-.192-.443-.395-.443z" fill="none" opacity=".4" stroke="#126400" stroke-linecap="round" stroke-width=".268"/><path d="m2.116 2.382h.267v5.556h-.267zm1.852 0h.267v5.556h-.267zm1.852 0h.267v5.556h-.267zm-5.027 1.058h1.323v.264h-1.323z" opacity=".321"/><path d="m2.38 3.44h1.59v.264h-1.59zm1.853 0h1.587v.264h-1.587zm1.852 0h1.587v.264h-1.587zm-5.292 1.587h1.323v.267h-1.323zm1.588 0h1.59v.267h-1.591zm1.854 0h1.585v.267h-1.587zm1.852 0h1.587v.267h-1.589zm-5.294 1.587h1.323v.266h-1.323zm1.588 0h1.59v.266h-1.591zm1.854 0h1.585v.266h-1.587zm1.852 0h1.587v.266h-1.589z" opacity=".321"/><path d="m2.116.53h.267v1.586h-.267zm1.852 0h.267v1.586h-.267zm1.852 0h.267v1.586h-.267z" fill="#126400" opacity=".4"/><path d="m.66145833 8.0687562v-7.6718812l7.14269077.002788.00106 7.6701289z" fill="#8cd5ff" stroke-width="1.036843"/><path d="m2.9941406.99804688c-.5366929 0-.9902343.44623582-.9902344.99804692v28.0058592c0 .551811.4442828 1.001953.9960938 1.001953h26.003906c.544252 0 .990235-.453922.990235-1.001953v-21.001953h.011718v-.9980469h-.011718v-6.0058593c0-.5518111-.446236-.99804693-.998047-.99804692zm.0058594.99414062h26.003906v6.0097656h-26.003906zm4.9980469.0097656v5.9980469h1.0078125v-5.9980469zm7.0000001 0v5.9980469h1.007812v-5.9980469zm6.998047 0 .001953 5.9980469h1.007812l-.001953-5.9980469zm-18.996094 6.9980469h26.003906v20.998047h-6.003906v-3.994141h5.996094v-1.007812h-5.996094v-4.988282h5.996094v-1.007812h-5.996094v-5h5.996094v-.998047h-5.996094l.005859-3.9999999h-1.007812l-.003906 3.9999999h-5.992188l.003906-3.9999999h-1.007812l-.003906 3.9999999h-5.9921879l.0039063-3.9999999h-1.0078125l-.0039063 3.9999999h-4.9941406zm0 5h4.9941406l.0019532 5h-4.9960938zm6.0019531 0h5.9921879l.001953 5h-5.9921878zm6.9999999 0h5.992188l.001953 5h-5.992188zm-13.001953 6.007812h4.9960938v4.988282h-4.9960938zm6.0039062 0h5.9921878v4.988282h-5.9921878zm6.9999998 0h5.992188l.003906 9.992188h-5.994141l-.001953-3.996094h5.992188v-1.007812h-5.992188zm-13.003906 5.996094h4.9980469v3.996094h1.0078125l-.0019532-3.996094h5.9921878l.001953 3.996094-11.998047.001953z" fill="#002e99" fill-opacity=".501961" transform="scale(.26458333)"/></svg>