<svg height="32" width="32" xmlns="http://www.w3.org/2000/svg" xmlns:xlink="http://www.w3.org/1999/xlink"><linearGradient id="a"><stop offset="0" stop-color="#555761"/><stop offset=".3125" stop-color="#abacae" stop-opacity=".988235"/><stop offset=".5625" stop-color="#fafafa" stop-opacity=".988235"/><stop offset=".8125" stop-color="#abacae" stop-opacity=".988235"/><stop offset="1" stop-color="#555761" stop-opacity=".985965"/></linearGradient><linearGradient id="b"><stop offset="0" stop-color="#fff"/><stop offset="1" stop-color="#fff" stop-opacity="0"/></linearGradient><radialGradient id="c" cx="99.157013" cy="186.17059" gradientTransform="matrix(.12745119 0 0 .04055266 3.362322 21.950288)" gradientUnits="userSpaceOnUse" r="62.769119"><stop offset="0" stop-color="#3d3d3d"/><stop offset=".5" stop-color="#686868" stop-opacity=".498039"/><stop offset="1" stop-color="#686868" stop-opacity="0"/></radialGradient><linearGradient id="d" gradientUnits="userSpaceOnUse" x1="16" x2="16" y1="1.5" y2="17"><stop offset="0" stop-color="#ffe16b"/><stop offset="1" stop-color="#f9c440"/></linearGradient><linearGradient id="e" gradientUnits="userSpaceOnUse" x1="16" x2="16" y1="4" y2="14"><stop offset="0" stop-color="#fff"/><stop offset=".42447853" stop-color="#fff" stop-opacity=".235294"/><stop offset=".82089913" stop-color="#fff" stop-opacity=".156863"/><stop offset="1" stop-color="#fff" stop-opacity=".392157"/></linearGradient><radialGradient id="f" cx="15.7047968" cy="8.5793352" gradientUnits="userSpaceOnUse" r="4.545652" xlink:href="#b"/><linearGradient id="g" gradientUnits="userSpaceOnUse" x1="8.000022" x2="23.958959" y1="18.25" y2="18.25"><stop offset="0" stop-color="#d4d4d4"/><stop offset=".5" stop-color="#fafafa" stop-opacity=".988235"/><stop offset="1" stop-color="#d4d4d4" stop-opacity=".975439"/></linearGradient><linearGradient id="h" gradientUnits="userSpaceOnUse" x1="12" x2="20" xlink:href="#a" y1="24.5" y2="24.5"/><linearGradient id="i" gradientUnits="userSpaceOnUse" x1="12.001845" x2="20.001845" xlink:href="#a" y1="26.088561" y2="26.088561"/><linearGradient id="j" gradientUnits="userSpaceOnUse" x1="12.001845" x2="20.001845" xlink:href="#a" y1="27.588561" y2="27.588561"/><linearGradient id="k" gradientUnits="userSpaceOnUse" x1="16" x2="16" xlink:href="#b" y1="15" y2="23.5"/><path d="m24 29.499999a7.9999989 2.5454541 0 1 1 -15.9999976 0 7.9999989 2.5454541 0 1 1 15.9999976 0z" fill="url(#c)"/><g stroke-linecap="round" stroke-linejoin="round" stroke-opacity=".501961"><ellipse cx="16" cy="28.75" fill="#1a1a1a" fill-opacity=".988235" rx="2" ry="1.25" stroke="#000"/><path d="m13 26.5c1.666667.842864 4.322263.525801 5.98893.05904.533474-.149402.512915.475521.512915 1.029521s-.48517.795388-1 1c-1.652852.656902-3.319109.676373-5 0-.513952-.206809-1-.446-1-1s.0038-1.338576.498155-1.088561z" fill="url(#j)" stroke="#485a6c"/><path d="m13 25c1.666667.842864 4.322263.525801 5.98893.05904.533474-.149402.512915.475521.512915 1.029521s-.48517.795388-1 1c-1.652852.656902-3.319109.676373-5 0-.513952-.206809-1-.446-1-1s.0038-1.338576.498155-1.088561z" fill="url(#i)" stroke="#485a6c"/><path d="m12.998155 23.411439c1.666667.842864 4.322263.525801 5.98893.05904.533474-.149402.512915.475521.512915 1.029521s-.48517.795388-1 1c-1.652852.656902-3.319109.676373-5 0-.513952-.206809-1-.446-1-1s.0038-1.338576.498155-1.088561z" fill="url(#h)" stroke="#485a6c"/><path d="m23.5 9a7.5 7.5 0 0 1 -7.5 7.5 7.5 7.5 0 0 1 -7.5-7.5 7.5 7.5 0 0 1 7.5-7.5 7.5 7.5 0 0 1 7.5 7.5z" fill="url(#d)" stroke="#ad5f00"/><path d="m22.5 9a6.5 6.5 0 0 1 -6.5 6.5 6.5 6.5 0 0 1 -6.5-6.5 6.5 6.5 0 0 1 6.5-6.5 6.5 6.5 0 0 1 6.5 6.5z" fill="none" stroke="url(#e)"/></g><circle cx="15.704797" cy="8.579336" fill="url(#f)" opacity=".683" r="4.545652"/><path d="m8.5 12c1.529107 4.133095 3.607428 8.10713 4 10.5v.533203c.852586.294589 2.139264.466194 3.5.466797 1.359558-.000126 2.646028-.170986 3.5-.464844v-.535156c.389171-2.372138 2.433858-6.277196 3.958984-10.388672-2.234753.254918-5.087689.886334-7.458984.888672-2.694028-.003162-4.860999-.672915-7.3554688-1z" fill="url(#g)" stroke="#7e8087" stroke-linecap="round" stroke-linejoin="round" stroke-opacity=".501961"/><path d="m10.042969 13.216797c1.379513 3.398603 2.92888 6.605147 3.355469 8.984375.705324.171621 1.556008.337427 2.601562.33789 1.043229-.000096 1.893332-.165039 2.599609-.335937.424901-2.372031 1.967465-5.552466 3.34375-8.947266-1.89451.290193-3.947896.703111-5.943359.705079a.96035493.96035493 0 0 1 -.002 0c-2.243619-.0026-4.097437-.408689-5.955078-.744141z" fill="none" stroke="url(#k)" stroke-linecap="round" stroke-linejoin="round" stroke-opacity=".501961"/></svg>