<svg height="32" viewBox="0 0 8.4666665 8.4666669" width="32" xmlns="http://www.w3.org/2000/svg" xmlns:xlink="http://www.w3.org/1999/xlink"><linearGradient id="a" gradientTransform="matrix(.12851221 0 0 .12072849 -5.862408 -1.759769)" gradientUnits="userSpaceOnUse" x1="76.499794" x2="76.499794" y1="14.576253" y2="75.939842"><stop offset="0" stop-color="#f4f4f4"/><stop offset="1" stop-color="#dbdbdb"/></linearGradient><linearGradient id="b" gradientTransform="matrix(.01969331 0 0 .00290522 -1.172191 6.563072)" gradientUnits="userSpaceOnUse" x1="302.85715" x2="302.85715" y1="366.64789" y2="609.50507"><stop offset="0" stop-opacity="0"/><stop offset=".5"/><stop offset="1" stop-opacity="0"/></linearGradient><radialGradient id="c" cx="605.71429" cy="486.64789" gradientTransform="matrix(-.00425046 0 0 .00290522 3.752593 6.563076)" gradientUnits="userSpaceOnUse" r="117.14286" xlink:href="#d"/><linearGradient id="d"><stop offset="0"/><stop offset="1" stop-opacity="0"/></linearGradient><radialGradient id="e" cx="605.71429" cy="486.64789" gradientTransform="matrix(.00425046 0 0 .00290522 4.755433 6.550634)" gradientUnits="userSpaceOnUse" r="117.14286" xlink:href="#d"/><linearGradient id="f" gradientTransform="matrix(.14301756 0 0 .1811557 .756981 -.246994)" gradientUnits="userSpaceOnUse" x1="22.457165" x2="22.457165" y1="5.745025" y2="42.258274"><stop offset="0" stop-color="#fff"/><stop offset=".0001" stop-color="#fff" stop-opacity=".235294"/><stop offset=".99989998" stop-color="#fff" stop-opacity=".156863"/><stop offset="1" stop-color="#fff" stop-opacity=".392157"/></linearGradient><linearGradient id="g" gradientTransform="matrix(.52284561 0 0 -.53250221 -1.47603 15.037859)" gradientUnits="userSpaceOnUse" x1="32.892288" x2="36.358372" y1="8.059012" y2="5.456536"><stop offset="0" stop-color="#fefefe"/><stop offset="1" stop-color="#cbcbcb"/></linearGradient><path d="m1.1910058 7.6282641h6.0850359v.7079323h-6.0850359z" fill="url(#b)" opacity=".15" stroke-width=".444216"/><g stroke-width=".352777"><path d="m1.1910062 7.6282962v.705515c-.21888753.0014111-.5291654-.1580722-.5291654-.3528051 0-.1947328.24426273-.3527099.5291654-.3527099z" fill="url(#c)" opacity=".15"/><path d="m7.2760415 7.6128989v.705515c.2188871.00141.5291653-.1580723.5291653-.3528051 0-.1947329-.244263-.3527099-.5291653-.3527099z" fill="url(#e)" opacity=".15"/><path d="m4.8947914.39625527c1.2515636.72032353 1.847874 1.36713743 2.3812501 2.11666653v5.2916667h-6.0854166v-7.40833323z" fill="url(#a)"/></g><path d="m7.0126724 7.5391654-5.5576114.0067627.003115-6.88627273 3.334199-.0330728 2.2263355 1.57142963z" fill="none" stroke="url(#f)" stroke-linecap="round" stroke-width=".264583"/><path d="m1.190992.39656247 3.6028717.000254c.3348417 0 2.4818035 1.71370513 2.4818035 2.28272723l.0003881 5.1250448-6.0850421.0003167z" fill="none" stroke="#000" stroke-linejoin="round" stroke-opacity=".3" stroke-width=".264583"/><g fill-rule="evenodd" transform="matrix(.3527769 0 0 -.3527769 -.043713 5.512078)"><path d="m11.739977 14.104222c1.503218-.01833 1.1604-7.0943368 1.1604-7.0943368s7.489349 1.8420045 7.489349-.2862153c0 .51855.0426 1.2017856-.06107 1.3635856-.74462 1.16251-5.299039 5.5327285-6.460459 5.8746185-1.63639.172321-2.128298.142349-2.128298.142349z" opacity=".05"/><path d="m12.446417 14.147823c1.57259 0 1.45396-6.1379378 1.45396-6.1379378s6.544259.9400745 6.544259-1.2862155c0 .54244.0424 1.1077193-.066 1.2769793-.77894 1.21608-5.5218 5.722515-6.73675 6.080144-.97721.0817-1.195438.06696-1.195438.06696z" opacity=".18"/><path d="m13.354407 14.148973c1.66987 0 1.54105-5.1390878 1.54105-5.1390878s5.485669.078335 5.485669-2.2862155c0 .57613-.0091 1.5068556-.124304 1.6866256-.729634 1.5912947-5.194051 5.2671857-6.530227 5.7111637-.03191.0106-.07322-.008-.102652.0027-.26579.008-.0041.01-.269618.02478z" fill="url(#g)"/></g></svg>