<svg height="32" width="32" xmlns="http://www.w3.org/2000/svg" xmlns:xlink="http://www.w3.org/1999/xlink"><linearGradient id="a" gradientTransform="matrix(-.00816 1.50586 -1.54218 -.00836 -1.94 -18.638)" gradientUnits="userSpaceOnUse" x1="19.234962" x2="32.58604" y1="-8.129719" y2="-8.149069"><stop offset="0" stop-color="#fff394"/><stop offset=".262" stop-color="#ffe16b"/><stop offset=".661" stop-color="#f9c440"/><stop offset="1" stop-color="#d48e15"/></linearGradient><radialGradient id="b" cx="6.703" cy="73.616" gradientTransform="matrix(1.96254 0 0 .3559 -.24 3.227)" gradientUnits="userSpaceOnUse" r="7.228"><stop offset="0" stop-opacity=".326"/><stop offset=".5" stop-opacity=".192"/><stop offset="1" stop-opacity="0"/></radialGradient><linearGradient id="c" gradientTransform="matrix(.52016 -.04737 .05115 .56654 -1.57 7.52)" gradientUnits="userSpaceOnUse" x1="27.261" x2="25.011" y1="11.249" y2="31.265"><stop offset="0" stop-color="#fff"/><stop offset=".334" stop-color="#fff" stop-opacity=".235"/><stop offset=".679" stop-color="#fff" stop-opacity=".157"/><stop offset="1" stop-color="#fff" stop-opacity=".392"/></linearGradient><path d="m10.44 10.395c-5.636.83-9.806 4.708-9.427 8.906.245 2.72 2.335 4.957 5.323 6.138l-1.246 4.851 5.517-3.984.038-.003c.68.032 1.365.043 2.075-.022 6.06-.55 10.665-4.576 10.267-8.98-.397-4.406-5.65-7.533-11.707-6.98-.284.025-.562.035-.84.075z" fill="url(#a)" fill-rule="evenodd" transform="matrix(1.2553 0 0 1.2553 .894 -9.342)"/><path d="m10.628 11.237c-4.83.702-9.086 3.826-8.75 8.057.225 2.84 2.873 4.77 5.627 5.665l-1.01 3.198 3.767-2.675c.583.025 1.694.07 2.302.015 4.598-.42 10.19-3.886 9.657-8.11-.537-4.273-5.637-6.716-10.873-6.216-.243.023-.482.03-.72.065z" fill="none" opacity=".5" stroke="url(#c)" stroke-width=".797" transform="matrix(1.2553 0 0 1.2553 .894 -9.342)"/><path d="m27.1 29.427c0 1.42-6.35 2.573-14.185 2.573s-14.185-1.152-14.185-2.573c0-1.42 6.35-2.572 14.185-2.572s14.186 1.152 14.186 2.572z" fill="url(#b)" opacity=".4" transform="matrix(1.2553 0 0 1.2553 .894 -9.342)"/><path d="m14 3.707c-7.075 1.043-12.31 5.91-11.835 11.18.308 3.412 2.932 6.22 6.683 7.703l-1.566 6.092 6.927-5.002.047-.004c.855.04 1.714.054 2.605-.027 7.605-.694 13.387-5.747 12.888-11.276-.5-5.53-7.092-9.455-14.697-8.763-.356.034-.705.046-1.053.097z" fill="none" opacity=".5" stroke="#956500" stroke-linejoin="round" stroke-width="1.000474"/></svg>