<?xml version="1.0" encoding="UTF-8" standalone="no"?>
<svg
   xmlns:dc="http://purl.org/dc/elements/1.1/"
   xmlns:cc="http://creativecommons.org/ns#"
   xmlns:rdf="http://www.w3.org/1999/02/22-rdf-syntax-ns#"
   xmlns:svg="http://www.w3.org/2000/svg"
   xmlns="http://www.w3.org/2000/svg"
   xmlns:xlink="http://www.w3.org/1999/xlink"
   xmlns:sodipodi="http://sodipodi.sourceforge.net/DTD/sodipodi-0.dtd"
   xmlns:inkscape="http://www.inkscape.org/namespaces/inkscape"
   height="32"
   width="32"
   version="1.1"
   id="svg43"
   sodipodi:docname="underlinedouble.svg"
   inkscape:version="0.92.4 (unknown)"
   inkscape:export-filename="/home/rizmut/Dokumen/Rizmut/Github/libreoffice-style-elementary/images_elementary/cmd/32/ru/underlinedouble.png"
   inkscape:export-xdpi="96"
   inkscape:export-ydpi="96">
  <metadata
     id="metadata49">
    <rdf:RDF>
      <cc:Work
         rdf:about="">
        <dc:format>image/svg+xml</dc:format>
        <dc:type
           rdf:resource="http://purl.org/dc/dcmitype/StillImage" />
        <dc:title></dc:title>
      </cc:Work>
    </rdf:RDF>
  </metadata>
  <defs
     id="defs47">
    <radialGradient
       inkscape:collect="always"
       xlink:href="#a"
       id="radialGradient844"
       cx="10.903473"
       cy="14.502974"
       fx="10.903473"
       fy="14.502974"
       r="6.2253389"
       gradientTransform="matrix(-1.2063324,0.07952741,-0.10938469,-2.3364203,26.420455,44.405781)"
       gradientUnits="userSpaceOnUse" />
    <radialGradient
       inkscape:collect="always"
       xlink:href="#a"
       id="radialGradient845"
       gradientUnits="userSpaceOnUse"
       gradientTransform="matrix(-1.2063324,0.07952741,-0.10938469,-2.3364203,26.420455,44.405781)"
       cx="10.903473"
       cy="14.502974"
       fx="10.903473"
       fy="14.502974"
       r="6.2253389" />
    <linearGradient
       inkscape:collect="always"
       xlink:href="#a"
       id="linearGradient858"
       gradientUnits="userSpaceOnUse"
       x1="12.761326"
       y1="33.638302"
       x2="12.761326"
       y2="11.638302" />
  </defs>
  <sodipodi:namedview
     pagecolor="#ffffff"
     bordercolor="#666666"
     borderopacity="1"
     objecttolerance="10"
     gridtolerance="10"
     guidetolerance="10"
     inkscape:pageopacity="0"
     inkscape:pageshadow="2"
     inkscape:window-width="1366"
     inkscape:window-height="714"
     id="namedview45"
     showgrid="true"
     inkscape:zoom="16"
     inkscape:cx="8.4182024"
     inkscape:cy="11.747148"
     inkscape:window-x="0"
     inkscape:window-y="28"
     inkscape:window-maximized="1"
     inkscape:current-layer="g41">
    <inkscape:grid
       type="xygrid"
       id="grid832" />
  </sodipodi:namedview>
  <linearGradient
     id="a">
    <stop
       offset="0"
       stop-color="#555"
       id="stop2" />
    <stop
       offset="1"
       stop-color="#666"
       id="stop4" />
  </linearGradient>
  <linearGradient
     id="b"
     gradientUnits="userSpaceOnUse"
     x1="12.761326"
     x2="12.761326"
     xlink:href="#a"
     y1="33.638302"
     y2="11.638302" />
  <linearGradient
     id="c">
    <stop
       offset="0"
       id="stop8" />
    <stop
       offset="1"
       stop-opacity="0"
       id="stop10" />
  </linearGradient>
  <radialGradient
     id="d"
     cx="40"
     cy="43.5"
     gradientTransform="matrix(.87733142 0 0 .75 -17.142285 -3.625)"
     gradientUnits="userSpaceOnUse"
     r="2"
     xlink:href="#c" />
  <radialGradient
     id="e"
     cx="9"
     cy="43.5"
     gradientTransform="matrix(.87733142 0 0 .75 -1.350319 -3.625)"
     gradientUnits="userSpaceOnUse"
     r="2"
     xlink:href="#c" />
  <linearGradient
     id="f"
     gradientTransform="matrix(.87733142 0 0 1 -5.736976 -14.5)"
     gradientUnits="userSpaceOnUse"
     x1="25"
     x2="25"
     y1="45"
     y2="42">
    <stop
       offset="0"
       stop-opacity="0"
       id="stop15" />
    <stop
       offset=".5"
       id="stop17" />
    <stop
       offset="1"
       stop-opacity="0"
       id="stop19" />
  </linearGradient>
  <linearGradient
     id="g"
     gradientTransform="matrix(.98244026 0 0 1.0032268 .121605 8.047357)"
     gradientUnits="userSpaceOnUse"
     x1="12.02772"
     x2="11.427851"
     xlink:href="#a"
     y1="25.544678"
     y2="4.392136" />
  <g
     transform="matrix(1.33333 0 0 1.33333 .163341 -11.350962)"
     id="g41">
    <g
       id="g863">
      <path
         id="path25"
         fill="url(#b)"
         d="m1.752716 29.885566.017578 2.234376h19.504467l-.01758-2.234376z" />
      <path
         style="opacity:0.61000001;fill:none;stroke:#000000;stroke-width:0.75000203"
         inkscape:connector-curvature="0"
         id="path27"
         d="m 1.752671,29.885566 0.00414,2.252736 h 19.50447 l -0.0041,-2.252736 z" />
      <path
         id="path29"
         opacity=".2"
         fill="#fff"
         d="m2.1302176 30.242557-.00272.769013h18.7500494l-.01548-.759479z" />
    </g>
    <g
       id="g843"
       transform="translate(0,-3.7499074)">
      <g
         id="text836"
         style="font-style:normal;font-weight:normal;font-size:22.33795929px;line-height:1.25;font-family:sans-serif;letter-spacing:0px;word-spacing:0px;fill:url(#radialGradient844);fill-opacity:1;stroke:#000000;stroke-width:0.75000185;stroke-miterlimit:4;stroke-dasharray:none;stroke-opacity:0.6"
         transform="scale(1.061984,0.94163379)"
         aria-label="Ч">
        <path
           sodipodi:nodetypes="ccccscccsccscsccccc"
           inkscape:connector-curvature="0"
           id="path837"
           style="font-style:normal;font-variant:normal;font-weight:normal;font-stretch:normal;font-family:'Droid Sans';-inkscape-font-specification:'Droid Sans';fill:url(#radialGradient845);fill-opacity:1;stroke:#000000;stroke-width:0.75000185;stroke-miterlimit:4;stroke-dasharray:none;stroke-opacity:0.6"
           d="m 16.462154,29.344606 h -2.02874 v -6.522509 c -0.836219,0.319945 -1.610631,0.563539 -2.323235,0.730783 -0.705333,0.167243 -1.132913,0.2742 -1.845518,0.2742 -0.6762465,0 -1.2797786,-0.08726 -1.810596,-0.261773 C 7.9232476,23.38352 7.4724164,23.121747 7.1015714,22.779989 6.7379978,22.430958 6.4580462,22.005577 6.2617165,21.503845 6.0726582,21.002113 5.9781291,20.427667 5.9781291,19.780507 v -6.358902 h 2.0287405 v 6.097129 c 0,0.836219 0.1890582,1.465201 0.5671747,1.886947 0.385388,0.421745 1.0252774,0.632618 1.9196687,0.632618 0.654432,0 1.034749,-0.09605 1.703724,-0.24148 0.676247,-0.145429 1.421572,-0.363573 2.235977,-0.654432 V 13.39827 h 2.02874 z" />
      </g>
      <path
         sodipodi:nodetypes="cccccccccccscsccccscc"
         inkscape:connector-curvature="0"
         id="text992"
         transform="matrix(0.75000188,0,0,0.75000188,-0.12250606,8.5132428)"
         d="m 8.6289067,5.4999999 v 1.5 H 11.5 v -1.5 z M 20.601562,5.4707031 v 1.5 h 2.871094 v -1.5 z M 11.5,13.154297 v 1.5 c 0,1.04988 0.269284,1.839636 0.804688,2.369141 0.5457,0.529504 1.450362,0.794921 2.716797,0.794921 0.92666,0 1.466809,-0.120146 2.414062,-0.302734 0.957549,-0.182588 2.012839,-0.45709 3.166015,-0.822266 v -1.5 c -1.153176,0.365176 -2.208466,0.639678 -3.166015,0.822266 -0.947253,0.182588 -1.487402,0.302734 -2.414062,0.302734 -1.266435,0 -2.171097,-0.265417 -2.716797,-0.794921 C 11.769284,14.993933 11.5,14.204177 11.5,13.154297 Z"
         style="font-style:normal;font-weight:normal;font-size:22.33795929px;line-height:1.25;font-family:sans-serif;letter-spacing:0px;word-spacing:0px;opacity:0.2;fill:#ffffff;fill-opacity:1;stroke:none;stroke-width:1;stroke-miterlimit:4;stroke-dasharray:none;stroke-opacity:0.6" />
    </g>
    <g
       id="g856"
       transform="translate(1.9687489e-6,-4.4982822)">
      <path
         d="m 1.752716,29.885566 0.017578,2.234376 h 19.504467 l -0.01758,-2.234376 z"
         id="path847"
         style="fill:url(#linearGradient858)"
         inkscape:connector-curvature="0" />
      <path
         d="m 1.752671,29.885566 0.00414,2.252736 h 19.50447 l -0.0041,-2.252736 z"
         id="path849"
         inkscape:connector-curvature="0"
         style="opacity:0.61000001;fill:none;stroke:#000000;stroke-width:0.75000203" />
      <path
         d="m 2.1302176,30.242557 -0.00272,0.769013 H 20.877547 l -0.01548,-0.759479 z"
         id="path851"
         inkscape:connector-curvature="0"
         style="opacity:0.2;fill:#ffffff" />
    </g>
  </g>
</svg>
