<svg xmlns="http://www.w3.org/2000/svg" xmlns:xlink="http://www.w3.org/1999/xlink" height="24" width="24" version="1.2"><defs><linearGradient id="b"><stop offset="0" stop-color="#cd9ef7"/><stop offset="1" stop-color="#a56de2"/></linearGradient><linearGradient id="a"><stop offset="0" stop-color="#fff"/><stop offset=".508" stop-color="#fff" stop-opacity=".235"/><stop offset=".835" stop-color="#fff" stop-opacity=".157"/><stop offset="1" stop-color="#fff" stop-opacity=".392"/></linearGradient><linearGradient gradientTransform="translate(-24.836 -1.02) scale(.5135)" gradientUnits="userSpaceOnUse" xlink:href="#a" id="f" y2="44.341" x2="71.204" y1="6.238" x1="71.204"/><linearGradient gradientTransform="matrix(.8048 0 0 .6017 -1628.82 -1928.08)" gradientUnits="userSpaceOnUse" xlink:href="#b" id="e" y2="3241.997" x2="2035.165" y1="3208.074" x1="2035.165"/><radialGradient cx="99.157" cy="186.171" r="62.769" fx="99.157" fy="186.171" id="d" xlink:href="#c" gradientUnits="userSpaceOnUse" gradientTransform="matrix(.1115 0 0 .0355 .942 15.167)"/><linearGradient id="c"><stop offset="0" stop-color="#3d3d3d"/><stop offset=".5" stop-color="#686868" stop-opacity=".498"/><stop offset="1" stop-color="#686868" stop-opacity="0"/></linearGradient></defs><path d="M19 21.773a7 2.227 0 0 1-14 0 7 2.227 0 1 1 14 0z" fill="url(#d)"/><path d="M12 1.5C6.206 1.5 1.5 6.206 1.5 12S6.206 22.5 12 22.5 22.5 17.794 22.5 12 17.794 1.5 12 1.5z" color="#000" overflow="visible" opacity=".99" fill="url(#e)"/><path style="font-variation-settings:normal" d="M12 1.5C6.206 1.5 1.5 6.206 1.5 12S6.206 22.5 12 22.5 22.5 17.794 22.5 12 17.794 1.5 12 1.5z" color="#000" overflow="visible" opacity=".5" fill="none" stroke="#7239b3" stroke-linecap="round"/><path d="M21.5 12c0 5.247-4.254 9.5-9.5 9.5-5.247 0-9.5-4.254-9.5-9.5 0-5.247 4.253-9.5 9.5-9.5 5.246 0 9.5 4.253 9.5 9.5z" color="#000" overflow="visible" opacity=".4" fill="none" stroke="url(#f)" stroke-linecap="round" stroke-linejoin="round"/></svg>