<?xml version="1.0" encoding="UTF-8" standalone="no"?>
<svg
   xmlns:dc="http://purl.org/dc/elements/1.1/"
   xmlns:cc="http://creativecommons.org/ns#"
   xmlns:rdf="http://www.w3.org/1999/02/22-rdf-syntax-ns#"
   xmlns:svg="http://www.w3.org/2000/svg"
   xmlns="http://www.w3.org/2000/svg"
   xmlns:xlink="http://www.w3.org/1999/xlink"
   xmlns:sodipodi="http://sodipodi.sourceforge.net/DTD/sodipodi-0.dtd"
   xmlns:inkscape="http://www.inkscape.org/namespaces/inkscape"
   height="52"
   viewBox="0 0 60 52"
   width="60"
   version="1.1"
   id="svg71"
   sodipodi:docname="conehorideep_52x60.svg"
   inkscape:version="0.92.3 (unknown)"
   inkscape:export-filename="/home/rizmut/Dokumen/Rizmut/Github/libreoffice-style-elementary/images_elementary/chart2/res/conehorideep_52x60.png"
   inkscape:export-xdpi="96"
   inkscape:export-ydpi="96">
  <metadata
     id="metadata77">
    <rdf:RDF>
      <cc:Work
         rdf:about="">
        <dc:format>image/svg+xml</dc:format>
        <dc:type
           rdf:resource="http://purl.org/dc/dcmitype/StillImage" />
        <dc:title></dc:title>
      </cc:Work>
    </rdf:RDF>
  </metadata>
  <defs
     id="defs75">
    <linearGradient
       id="linearGradient220">
      <stop
         id="stop212"
         stop-color="#fff"
         offset="0" />
      <stop
         id="stop214"
         stop-opacity=".23529"
         stop-color="#fff"
         offset="0.44827589" />
      <stop
         id="stop216"
         stop-opacity=".15686"
         stop-color="#fff"
         offset="1" />
      <stop
         id="stop218"
         stop-opacity=".39216"
         stop-color="#fff"
         offset="1" />
    </linearGradient>
    <linearGradient
       id="linearGradient210">
      <stop
         id="stop202"
         stop-color="#fff"
         offset="0" />
      <stop
         id="stop204"
         stop-opacity=".23529"
         stop-color="#fff"
         offset="0.43333334" />
      <stop
         id="stop206"
         stop-opacity=".15686"
         stop-color="#fff"
         offset="1" />
      <stop
         id="stop208"
         stop-opacity=".39216"
         stop-color="#fff"
         offset="1" />
    </linearGradient>
    <linearGradient
       inkscape:collect="always"
       id="linearGradient1205">
      <stop
         style="stop-color:#f6f6f6;stop-opacity:1;"
         offset="0"
         id="stop1201" />
      <stop
         id="stop2419"
         offset="0.35294119"
         style="stop-color:#fcfcfc;stop-opacity:1" />
      <stop
         style="stop-color:#ffffff;stop-opacity:0.91544116"
         offset="1"
         id="stop1203" />
    </linearGradient>
    <linearGradient
       id="h"
       gradientTransform="matrix(1.3832,0,0,1.4144,-11.892,21.511)"
       gradientUnits="userSpaceOnUse"
       x1="13.697"
       x2="13.3"
       y1="12.091"
       y2="29.436001">
      <stop
         offset="0"
         stop-color="#aff05f"
         id="stop31" />
      <stop
         offset="1"
         stop-color="#68b723"
         id="stop33" />
    </linearGradient>
    <linearGradient
       id="i"
       gradientUnits="userSpaceOnUse"
       x1="12.00126"
       x2="12.00126"
       xlink:href="#a-2"
       y1="8.1875687"
       y2="19.999826" />
    <linearGradient
       id="a-2">
      <stop
         offset="0"
         stop-color="#fff"
         id="stop2-9" />
      <stop
         offset="0.58055538"
         stop-color="#fff"
         stop-opacity=".23529"
         id="stop4-1" />
      <stop
         offset="1"
         stop-color="#fff"
         stop-opacity=".15686"
         id="stop6" />
      <stop
         offset="1"
         stop-color="#fff"
         stop-opacity=".39216"
         id="stop8" />
    </linearGradient>
    <linearGradient
       id="f-2"
       gradientUnits="userSpaceOnUse"
       x1="13.608"
       x2="13.608"
       y1="2.5455"
       y2="21.532">
      <stop
         offset="0"
         stop-color="#f7b19e"
         id="stop25" />
      <stop
         offset="1"
         stop-color="#e2866d"
         id="stop27" />
    </linearGradient>
    <linearGradient
       id="g-7"
       gradientUnits="userSpaceOnUse"
       x1="11.876287"
       x2="12.00126"
       xlink:href="#a-2"
       y1="7.3122978"
       y2="19.999826" />
    <linearGradient
       id="j"
       gradientUnits="userSpaceOnUse"
       x1="15.608"
       x2="15.608"
       y1="2.5455"
       y2="21.532">
      <stop
         offset="0"
         stop-color="#cd9ef7"
         id="stop37" />
      <stop
         offset="1"
         stop-color="#a56de2"
         id="stop39" />
    </linearGradient>
    <linearGradient
       id="k"
       gradientUnits="userSpaceOnUse"
       x1="14.00124"
       x2="14.00124"
       xlink:href="#a-2"
       y1="4.0000048"
       y2="19.999826" />
    <linearGradient
       inkscape:collect="always"
       xlink:href="#linearGradient1205"
       id="linearGradient1207"
       x1="42.5"
       y1="49.5"
       x2="42.5"
       y2="7"
       gradientUnits="userSpaceOnUse" />
    <linearGradient
       id="a-3"
       gradientUnits="userSpaceOnUse"
       x1="9.9784946"
       x2="9.9784946"
       y1="13.912886"
       y2="-5.8720589"
       gradientTransform="translate(-85.554475,-30.546764)">
      <stop
         offset="0"
         id="stop1717" />
      <stop
         offset="1"
         stop-color="#333"
         id="stop1719" />
    </linearGradient>
    <linearGradient
       id="b-6"
       gradientUnits="userSpaceOnUse"
       x1="14"
       x2="6"
       y1="8"
       y2="16">
      <stop
         offset="0"
         stop-color="#fff"
         id="stop1722" />
      <stop
         offset=".125"
         stop-color="#fff"
         stop-opacity="0"
         id="stop1724" />
      <stop
         offset="1"
         stop-color="#fff"
         stop-opacity="0"
         id="stop1726" />
    </linearGradient>
    <clipPath
       id="c-0">
      <path
         inkscape:connector-curvature="0"
         d="M 8,2.6855469 V 16.685547 l 3.132812,-3.820313 2.066407,4.986328 a 1.0001,1.0001 0 1 0 1.847656,-0.765624 L 12.935547,11.990234 17.314453,12 Z"
         id="path1729" />
    </clipPath>
    <linearGradient
       inkscape:collect="always"
       xlink:href="#j"
       id="linearGradient932"
       gradientUnits="userSpaceOnUse"
       x1="-16.5"
       y1="36"
       x2="-29"
       y2="36"
       gradientTransform="matrix(0,-1,-1,0,53.5,15.5)" />
    <linearGradient
       inkscape:collect="always"
       xlink:href="#h"
       id="linearGradient940"
       gradientUnits="userSpaceOnUse"
       x1="20.798828"
       y1="15.152344"
       x2="4.0351558"
       y2="15.652344"
       gradientTransform="matrix(0,-1,-1,0,58.152344,41.035156)" />
    <linearGradient
       inkscape:collect="always"
       xlink:href="#j"
       id="linearGradient1028"
       gradientUnits="userSpaceOnUse"
       gradientTransform="matrix(0,-1,-1,0,53.5,3)"
       x1="-14"
       y1="38.5"
       x2="-27.132818"
       y2="35.326172" />
    <linearGradient
       inkscape:collect="always"
       xlink:href="#f-2"
       id="linearGradient1036"
       gradientUnits="userSpaceOnUse"
       gradientTransform="matrix(0,-1,-1,0,52.791003,33.847655)"
       x1="19.347654"
       y1="25.291002"
       x2="6.8476548"
       y2="25.291002" />
    <linearGradient
       inkscape:collect="always"
       xlink:href="#h"
       id="linearGradient1044"
       gradientUnits="userSpaceOnUse"
       gradientTransform="matrix(0,-1,-1,0,58.152344,30.035156)"
       x1="20.535156"
       y1="20.652344"
       x2="8.0351562"
       y2="20.652344" />
    <linearGradient
       inkscape:collect="always"
       xlink:href="#f-2"
       id="linearGradient1090"
       gradientUnits="userSpaceOnUse"
       gradientTransform="matrix(0,-1,-1,0,52.994796,45)"
       x1="18"
       y1="22.994797"
       x2="5.5"
       y2="22.994797" />
    <linearGradient
       inkscape:collect="always"
       xlink:href="#linearGradient220"
       id="linearGradient1106"
       x1="47.5"
       y1="23.5"
       x2="37.5"
       y2="23.5"
       gradientUnits="userSpaceOnUse" />
    <linearGradient
       inkscape:collect="always"
       xlink:href="#linearGradient220"
       id="linearGradient1124"
       x1="35"
       y1="21"
       x2="27.5"
       y2="21"
       gradientUnits="userSpaceOnUse" />
    <linearGradient
       inkscape:collect="always"
       xlink:href="#linearGradient220"
       id="linearGradient1142"
       x1="42"
       y1="30"
       x2="34"
       y2="30"
       gradientUnits="userSpaceOnUse" />
    <linearGradient
       inkscape:collect="always"
       xlink:href="#linearGradient220"
       id="linearGradient1160"
       x1="28.5"
       y1="29"
       x2="21.5"
       y2="29.5"
       gradientUnits="userSpaceOnUse" />
    <linearGradient
       inkscape:collect="always"
       xlink:href="#linearGradient220"
       id="linearGradient1178"
       x1="25"
       y1="36"
       x2="17.5"
       y2="36"
       gradientUnits="userSpaceOnUse" />
    <linearGradient
       inkscape:collect="always"
       xlink:href="#linearGradient220"
       id="linearGradient1196"
       x1="36.242641"
       y1="38.5"
       x2="30"
       y2="38.5"
       gradientUnits="userSpaceOnUse" />
  </defs>
  <sodipodi:namedview
     pagecolor="#ffffff"
     bordercolor="#666666"
     borderopacity="1"
     objecttolerance="10"
     gridtolerance="10"
     guidetolerance="10"
     inkscape:pageopacity="0"
     inkscape:pageshadow="2"
     inkscape:window-width="1366"
     inkscape:window-height="706"
     id="namedview73"
     showgrid="true"
     inkscape:zoom="22.627418"
     inkscape:cx="19.78592"
     inkscape:cy="21.937577"
     inkscape:window-x="0"
     inkscape:window-y="0"
     inkscape:window-maximized="1"
     inkscape:current-layer="svg71"
     showguides="true"
     inkscape:snap-smooth-nodes="true">
    <inkscape:grid
       type="xygrid"
       id="grid895"
       spacingx="0.5"
       spacingy="0.5" />
  </sodipodi:namedview>
  <linearGradient
     id="a"
     gradientUnits="userSpaceOnUse"
     x1="29.525455894189"
     x2="29.525455894189"
     y1="35.604006871864"
     y2="16.823929761292"
     gradientTransform="translate(-60)">
    <stop
       offset="0"
       stop-color="#fbaeff"
       id="stop2" />
    <stop
       offset="1"
       stop-color="#ffd7d7"
       id="stop4" />
  </linearGradient>
  <linearGradient
     id="b"
     gradientUnits="userSpaceOnUse"
     x1="30.27586192"
     x2="30.27586192"
     y1="43.34487536"
     y2="30.9310824"
     gradientTransform="translate(-60)">
    <stop
       offset="0"
       stop-color="#99c2fc"
       id="stop7" />
    <stop
       offset="1"
       stop-color="#dceafe"
       id="stop9" />
  </linearGradient>
  <linearGradient
     id="c"
     gradientUnits="userSpaceOnUse"
     x1="36.4827584"
     x2="46.56896518"
     xlink:href="#d"
     y1="23.1724618"
     y2="40.64228401192"
     gradientTransform="translate(-60)" />
  <linearGradient
     id="d">
    <stop
       offset="0"
       stop-color="#fff"
       id="stop13" />
    <stop
       offset="1"
       stop-color="#fff"
       stop-opacity="0"
       id="stop15" />
  </linearGradient>
  <linearGradient
     id="e"
     gradientUnits="userSpaceOnUse"
     x1="39.859630516151"
     x2="50.44827548"
     xlink:href="#d"
     y1="3.311739960536"
     y2="29.37935828"
     gradientTransform="translate(-60)" />
  <linearGradient
     id="f"
     gradientUnits="userSpaceOnUse"
     x1="16.31034484"
     x2="24.864886637699"
     y1="34.21645904307"
     y2="2.290471955096"
     gradientTransform="translate(-60)">
    <stop
       offset="0"
       stop-color="#b900c4"
       id="stop19" />
    <stop
       offset="1"
       stop-color="#ae4300"
       id="stop21" />
  </linearGradient>
  <linearGradient
     id="g"
     gradientUnits="userSpaceOnUse"
     x1="13.012931085"
     x2="58.283811165318"
     y1="24.72418592"
     y2="12.593890241207"
     gradientTransform="translate(-60)">
    <stop
       offset="0"
       stop-color="#0968ef"
       id="stop24" />
    <stop
       offset="1"
       stop-color="#aecffc"
       id="stop26" />
  </linearGradient>
  <rect
     y="3"
     x="3"
     height="49"
     width="57"
     id="rect2411"
     style="opacity:0.02;vector-effect:none;fill:#010101;fill-opacity:1;stroke:none;stroke-width:0.99900001;stroke-linecap:round;stroke-linejoin:round;stroke-miterlimit:4;stroke-dasharray:none;stroke-dashoffset:0;stroke-opacity:1" />
  <rect
     style="opacity:0.05;vector-effect:none;fill:#010101;fill-opacity:1;stroke:none;stroke-width:0.98952127;stroke-linecap:round;stroke-linejoin:round;stroke-miterlimit:4;stroke-dasharray:none;stroke-dashoffset:0;stroke-opacity:1"
     id="rect2417"
     width="56.5"
     height="48.5"
     x="3"
     y="3" />
  <rect
     style="opacity:0.2;vector-effect:none;fill:#010101;fill-opacity:1;stroke:none;stroke-width:0.98004192;stroke-linecap:round;stroke-linejoin:round;stroke-miterlimit:4;stroke-dasharray:none;stroke-dashoffset:0;stroke-opacity:1"
     id="rect2415"
     width="56"
     height="48"
     x="3"
     y="3" />
  <rect
     style="opacity:1;vector-effect:none;fill:url(#linearGradient1207);fill-opacity:1;stroke:#939393;stroke-width:0.99900001;stroke-linecap:round;stroke-linejoin:round;stroke-miterlimit:4;stroke-dasharray:none;stroke-dashoffset:0;stroke-opacity:1"
     id="rect1199"
     width="57"
     height="49"
     x="0.5"
     y="0.5" />
  <path
     inkscape:connector-curvature="0"
     id="path903"
     d="m 37,43.5 13.5,-12 v -25 h -24"
     style="fill:none;stroke:#939393;stroke-width:1px;stroke-linecap:round;stroke-linejoin:round;stroke-opacity:1"
     sodipodi:nodetypes="cccc" />
  <path
     style="fill:none;stroke:#939393;stroke-width:1px;stroke-linecap:round;stroke-linejoin:round;stroke-opacity:1"
     d="m 26.5,6.5 -20,13 v 24 l 20,-12"
     id="path897"
     inkscape:connector-curvature="0"
     sodipodi:nodetypes="cccc" />
  <path
     style="fill:none;stroke:#939393;stroke-width:1px;stroke-linecap:butt;stroke-linejoin:miter;stroke-opacity:1"
     d="M 26.5,7 V 31"
     id="path899"
     inkscape:connector-curvature="0"
     sodipodi:nodetypes="cc" />
  <path
     style="fill:none;stroke:#939393;stroke-width:1px;stroke-linecap:round;stroke-linejoin:round;stroke-opacity:1"
     d="M 6.5,43.5 H 37"
     id="path901"
     inkscape:connector-curvature="0"
     sodipodi:nodetypes="cc" />
  <rect
     y="1.5"
     x="1.5"
     height="47"
     width="55"
     id="rect1209"
     style="opacity:1;vector-effect:none;fill:none;fill-opacity:1;stroke:#ffffff;stroke-width:0.99900001;stroke-linecap:round;stroke-linejoin:round;stroke-miterlimit:4;stroke-dasharray:none;stroke-dashoffset:0;stroke-opacity:1" />
  <path
     inkscape:connector-curvature="0"
     id="path908"
     d="m 26.5,31.5 h 24"
     style="fill:none;stroke:#939393;stroke-width:1px;stroke-linecap:round;stroke-linejoin:round;stroke-opacity:1"
     sodipodi:nodetypes="cc" />
  <g
     id="g1281"
     transform="matrix(0,-1,-1,0,57.5,57)">
    <g
       id="g1132"
       transform="translate(0,-1)">
      <path
         style="fill:url(#linearGradient940);fill-opacity:1;stroke:#7bb339;stroke-width:1px;stroke-linecap:round;stroke-linejoin:round;stroke-opacity:0.74509804"
         d="m 25.5,22.5 c -0.828427,0 -1.5,2.014719 -1.5,4.5 0,2.485281 0.671573,4.5 1.5,4.5 0.05877,-0.0014 0.117468,-0.01311 0.175781,-0.03516 h 1.154297 C 26.886451,31.486214 26.94318,31.4979 27,31.5 c 0.05877,-0.0014 0.117468,-0.01312 0.175781,-0.03516 L 47.5,27 27,22.5 Z"
         transform="matrix(0,-1,-1,0,57,58.5)"
         id="path918"
         inkscape:connector-curvature="0"
         sodipodi:nodetypes="sscccccccs" />
      <path
         sodipodi:nodetypes="ccccccsccccc"
         inkscape:connector-curvature="0"
         id="path1116"
         d="m 26.5,31.324219 c -1.82e-4,0.05699 -0.0054,0.113854 -0.01563,0.169922 0.01057,0.05799 0.0158,0.116833 0.01563,0.175781 v 1.154297 c 9.5e-5,0.0078 9.5e-5,0.01563 0,0.02344 0.104135,0.07514 0.305358,0.190979 0.623047,0.296875 0.689261,0.229754 1.783054,0.390625 2.876953,0.390625 1.093899,0 2.187692,-0.160871 2.876953,-0.390625 0.335779,-0.111926 0.563433,-0.241135 0.658203,-0.314453 V 31.5 L 29.999994,15.035156 Z"
         style="fill:none;fill-opacity:1;stroke:url(#linearGradient1124);stroke-width:1px;stroke-linecap:round;stroke-linejoin:round;stroke-opacity:0.74509804" />
    </g>
    <g
       id="g1168"
       transform="translate(0,2)">
      <path
         style="fill:url(#linearGradient1090);fill-opacity:1;stroke:#b35039;stroke-width:1px;stroke-linecap:round;stroke-linejoin:round;stroke-opacity:0.74509804"
         d="m 18.291016,28.5 c -0.828427,0 -1.5,2.014719 -1.5,4.5 0,2.485281 0.671573,4.5 1.5,4.5 0.08183,-0.0015 0.163482,-0.02303 0.24414,-0.06445 v 0.0293 L 33,33 18.5,28.5 v 0.04883 c -0.0692,-0.03088 -0.139028,-0.04719 -0.208984,-0.04883 z"
         transform="matrix(0,-1,-1,0,57,55.5)"
         id="path914"
         inkscape:connector-curvature="0"
         sodipodi:nodetypes="csccccccc" />
      <path
         sodipodi:nodetypes="ccsscccccc"
         inkscape:connector-curvature="0"
         id="path1152"
         d="m 20.527342,35.970703 0.02734,1.078125 c 0.108391,0.07351 0.280683,0.178197 0.578124,0.277344 0.684863,0.228288 1.775865,0.388672 2.867188,0.388672 1.091323,0 2.182325,-0.160384 2.867188,-0.388672 0.304336,-0.101445 0.486167,-0.209987 0.591796,-0.283203 -0.0051,-0.117747 0.01077,-0.235464 0.04687,-0.347657 L 23.999994,26.505871 c 1.017348,4.76e-4 -1.644109,-0.07008 -0.636719,-0.01758 z"
         style="fill:none;fill-opacity:1;stroke:url(#linearGradient1160);stroke-width:1px;stroke-linecap:round;stroke-linejoin:round;stroke-opacity:0.74509804" />
    </g>
    <g
       id="g1114"
       transform="translate(0,-1)">
      <path
         style="fill:url(#linearGradient1044);fill-opacity:1;stroke:#7bb339;stroke-width:1px;stroke-linecap:round;stroke-linejoin:round;stroke-opacity:0.74509804"
         d="m 25.5,11.5 c -0.828427,0 -1.5,2.014719 -1.5,4.5 0,2.485281 0.671573,4.5 1.5,4.5 l 20,-4.5 z"
         transform="matrix(0,-1,-1,0,57,58.5)"
         id="path1018"
         inkscape:connector-curvature="0"
         sodipodi:nodetypes="csccc" />
      <path
         sodipodi:nodetypes="ccscccc"
         inkscape:connector-curvature="0"
         id="path1098"
         d="m 37.494142,32.8125 c 0.09382,0.0709 0.310462,0.195284 0.638671,0.304688 0.684774,0.228257 1.775917,0.388671 2.867188,0.388671 1.091271,0 2.182414,-0.160414 2.867188,-0.388671 0.328209,-0.109404 0.544855,-0.233789 0.638671,-0.304688 L 40.999999,17.005868 Z"
         style="fill:none;fill-opacity:1;stroke:url(#linearGradient1106);stroke-width:1px;stroke-linecap:round;stroke-linejoin:round;stroke-opacity:0.74509804" />
    </g>
    <g
       id="g1150"
       transform="translate(-0.5,2)">
      <path
         style="fill:url(#linearGradient1036);fill-opacity:1;stroke:#b35039;stroke-width:1px;stroke-linecap:round;stroke-linejoin:round;stroke-opacity:0.74509804"
         d="m 18.291016,16.423828 c -0.828427,0 -1.5,2.014719 -1.5,4.5 0,2.485281 0.671573,4.5 1.5,4.5 0.08647,-0.0018 0.172732,-0.02593 0.257812,-0.07227 L 34.484375,20.923828 18.564453,16.5 c -0.09018,-0.05042 -0.181707,-0.07592 -0.273437,-0.07617 z"
         transform="matrix(0,-1,-1,0,57.5,55.5)"
         id="path1008"
         inkscape:connector-curvature="0"
         sodipodi:nodetypes="csccccc" />
      <path
         sodipodi:nodetypes="cccsscccc"
         inkscape:connector-curvature="0"
         id="path1134"
         d="m 36.576173,25.052751 -3.464804,11.880852 c 8e-5,0.0464 -0.0032,0.09275 -0.0098,0.138672 0.110331,0.07601 0.293741,0.183851 0.597657,0.285156 0.68961,0.22987 1.782849,0.388672 2.876953,0.388672 1.094104,0 2.187342,-0.158802 2.876953,-0.388672 0.303107,-0.101036 0.485063,-0.209128 0.595703,-0.285156 -0.0072,-0.04524 -0.01107,-0.09092 -0.01172,-0.136719 z"
         style="fill:none;fill-opacity:1;stroke:url(#linearGradient1142);stroke-width:1px;stroke-linecap:round;stroke-linejoin:round;stroke-opacity:0.74509804" />
    </g>
    <g
       id="g1186"
       transform="translate(0,4)">
      <path
         style="fill:url(#linearGradient932);fill-opacity:1;stroke:#7239b3;stroke-width:1px;stroke-linecap:round;stroke-linejoin:round;stroke-opacity:0.74632353"
         d="m 12.5,32.5 c -0.828427,0 -1.5,2.014719 -1.5,4.5 0,2.485281 0.671573,4.5 1.5,4.5 L 26,37 Z"
         transform="matrix(0,-1,-1,0,57,53.5)"
         id="path910"
         inkscape:connector-curvature="0"
         sodipodi:nodetypes="csccc" />
      <path
         sodipodi:nodetypes="ccscccc"
         inkscape:connector-curvature="0"
         id="path1170"
         d="m 16.492194,40.81641 c 0.09663,0.07226 0.317263,0.194947 0.640624,0.302735 0.670635,0.223545 1.713962,0.388672 2.867188,0.388671 1.153226,0 2.196553,-0.165126 2.867188,-0.388671 0.323361,-0.107788 0.543992,-0.230479 0.640624,-0.302735 l -3.507809,-9.308606 z"
         style="fill:none;fill-opacity:1;stroke:url(#linearGradient1178);stroke-width:1px;stroke-linecap:round;stroke-linejoin:round;stroke-opacity:0.74632353" />
    </g>
    <g
       id="g1204"
       transform="translate(0,4)">
      <path
         style="fill:url(#linearGradient1028);fill-opacity:1;stroke:#7239b3;stroke-width:1px;stroke-linecap:round;stroke-linejoin:round;stroke-opacity:0.74632353"
         d="m 12.5,20.5 c -0.828427,0 -1.5,2.014719 -1.5,4.5 0,2.485281 0.671573,4.5 1.5,4.5 L 23,25 Z"
         transform="matrix(0,-1,-1,0,57,53.5)"
         id="path998"
         inkscape:connector-curvature="0"
         sodipodi:nodetypes="csccc" />
      <path
         sodipodi:nodetypes="ccscccc"
         inkscape:connector-curvature="0"
         id="path1188"
         d="m 28.494142,40.8125 c 0.09382,0.0709 0.310462,0.195284 0.638671,0.304688 0.684774,0.228257 1.775917,0.388671 2.867188,0.388671 1.091271,0 2.182414,-0.160414 2.867188,-0.388671 0.328209,-0.109404 0.544855,-0.233789 0.638671,-0.304688 L 32,32.5 Z"
         style="fill:none;fill-opacity:1;stroke:url(#linearGradient1196);stroke-width:1px;stroke-linecap:round;stroke-linejoin:round;stroke-opacity:0.74632353" />
    </g>
  </g>
</svg>
