<?xml version="1.0" encoding="UTF-8" standalone="no"?>
<svg
   xmlns:dc="http://purl.org/dc/elements/1.1/"
   xmlns:cc="http://creativecommons.org/ns#"
   xmlns:rdf="http://www.w3.org/1999/02/22-rdf-syntax-ns#"
   xmlns:svg="http://www.w3.org/2000/svg"
   xmlns="http://www.w3.org/2000/svg"
   xmlns:xlink="http://www.w3.org/1999/xlink"
   xmlns:sodipodi="http://sodipodi.sourceforge.net/DTD/sodipodi-0.dtd"
   xmlns:inkscape="http://www.inkscape.org/namespaces/inkscape"
   height="52"
   viewBox="0 0 60 52"
   width="60"
   version="1.1"
   id="svg71"
   sodipodi:docname="conehori_52x60.svg"
   inkscape:version="0.92.3 (unknown)"
   inkscape:export-filename="/home/rizmut/Dokumen/Rizmut/Github/libreoffice-style-elementary/images_elementary/chart2/res/conehori_52x60.png"
   inkscape:export-xdpi="96"
   inkscape:export-ydpi="96">
  <metadata
     id="metadata77">
    <rdf:RDF>
      <cc:Work
         rdf:about="">
        <dc:format>image/svg+xml</dc:format>
        <dc:type
           rdf:resource="http://purl.org/dc/dcmitype/StillImage" />
        <dc:title></dc:title>
      </cc:Work>
    </rdf:RDF>
  </metadata>
  <defs
     id="defs75">
    <linearGradient
       id="linearGradient990">
      <stop
         id="stop982"
         stop-color="#fff"
         offset="0" />
      <stop
         id="stop984"
         stop-opacity=".23529"
         stop-color="#fff"
         offset="0.625" />
      <stop
         id="stop986"
         stop-opacity=".15686"
         stop-color="#fff"
         offset="1" />
      <stop
         id="stop988"
         stop-opacity=".39216"
         stop-color="#fff"
         offset="1" />
    </linearGradient>
    <linearGradient
       inkscape:collect="always"
       id="linearGradient1205">
      <stop
         style="stop-color:#f6f6f6;stop-opacity:1;"
         offset="0"
         id="stop1201" />
      <stop
         id="stop2419"
         offset="0.35294119"
         style="stop-color:#fcfcfc;stop-opacity:1" />
      <stop
         style="stop-color:#ffffff;stop-opacity:0.91544116"
         offset="1"
         id="stop1203" />
    </linearGradient>
    <linearGradient
       id="h"
       gradientTransform="matrix(1.3832,0,0,1.4144,-11.892,21.511)"
       gradientUnits="userSpaceOnUse"
       x1="13.697"
       x2="13.3"
       y1="12.091"
       y2="29.436001">
      <stop
         offset="0"
         stop-color="#aff05f"
         id="stop31" />
      <stop
         offset="1"
         stop-color="#68b723"
         id="stop33" />
    </linearGradient>
    <linearGradient
       id="i"
       gradientUnits="userSpaceOnUse"
       x1="12.00126"
       x2="12.00126"
       xlink:href="#a-2"
       y1="8.1875687"
       y2="19.999826" />
    <linearGradient
       id="a-2">
      <stop
         offset="0"
         stop-color="#fff"
         id="stop2-9" />
      <stop
         offset="0.58055538"
         stop-color="#fff"
         stop-opacity=".23529"
         id="stop4-1" />
      <stop
         offset="1"
         stop-color="#fff"
         stop-opacity=".15686"
         id="stop6" />
      <stop
         offset="1"
         stop-color="#fff"
         stop-opacity=".39216"
         id="stop8" />
    </linearGradient>
    <linearGradient
       id="f-2"
       gradientUnits="userSpaceOnUse"
       x1="13.608"
       x2="13.608"
       y1="2.5455"
       y2="21.532">
      <stop
         offset="0"
         stop-color="#f7b19e"
         id="stop25" />
      <stop
         offset="1"
         stop-color="#e2866d"
         id="stop27" />
    </linearGradient>
    <linearGradient
       id="g-7"
       gradientUnits="userSpaceOnUse"
       x1="11.876287"
       x2="12.00126"
       xlink:href="#a-2"
       y1="7.3122978"
       y2="19.999826" />
    <linearGradient
       id="j"
       gradientUnits="userSpaceOnUse"
       x1="15.608"
       x2="15.608"
       y1="2.5455"
       y2="21.532">
      <stop
         offset="0"
         stop-color="#cd9ef7"
         id="stop37" />
      <stop
         offset="1"
         stop-color="#a56de2"
         id="stop39" />
    </linearGradient>
    <linearGradient
       id="k"
       gradientUnits="userSpaceOnUse"
       x1="14.00124"
       x2="14.00124"
       xlink:href="#a-2"
       y1="4.0000048"
       y2="19.999826" />
    <linearGradient
       inkscape:collect="always"
       xlink:href="#linearGradient1205"
       id="linearGradient1207"
       x1="42.5"
       y1="49.5"
       x2="42.5"
       y2="7"
       gradientUnits="userSpaceOnUse" />
    <linearGradient
       id="a-3"
       gradientUnits="userSpaceOnUse"
       x1="9.9784946"
       x2="9.9784946"
       y1="13.912886"
       y2="-5.8720589"
       gradientTransform="translate(-85.554475,-30.546764)">
      <stop
         offset="0"
         id="stop1717" />
      <stop
         offset="1"
         stop-color="#333"
         id="stop1719" />
    </linearGradient>
    <linearGradient
       id="b-6"
       gradientUnits="userSpaceOnUse"
       x1="14"
       x2="6"
       y1="8"
       y2="16">
      <stop
         offset="0"
         stop-color="#fff"
         id="stop1722" />
      <stop
         offset=".125"
         stop-color="#fff"
         stop-opacity="0"
         id="stop1724" />
      <stop
         offset="1"
         stop-color="#fff"
         stop-opacity="0"
         id="stop1726" />
    </linearGradient>
    <clipPath
       id="c-0">
      <path
         inkscape:connector-curvature="0"
         d="M 8,2.6855469 V 16.685547 l 3.132812,-3.820313 2.066407,4.986328 a 1.0001,1.0001 0 1 0 1.847656,-0.765624 L 12.935547,11.990234 17.314453,12 Z"
         id="path1729" />
    </clipPath>
    <linearGradient
       inkscape:collect="always"
       xlink:href="#j"
       id="linearGradient932"
       gradientUnits="userSpaceOnUse"
       x1="-14.459848"
       y1="21.969839"
       x2="-26.959848"
       y2="21.969839"
       gradientTransform="matrix(0,-1,-1,0,51.96984,-2.459848)" />
    <linearGradient
       inkscape:collect="always"
       xlink:href="#h"
       id="linearGradient940"
       gradientUnits="userSpaceOnUse"
       x1="18.62303"
       y1="19.617188"
       x2="8.5753078"
       y2="19.704683"
       gradientTransform="matrix(0,-1,-1,0,43.622184,23.075308)" />
    <linearGradient
       inkscape:collect="always"
       xlink:href="#j"
       id="linearGradient1028"
       gradientUnits="userSpaceOnUse"
       gradientTransform="matrix(0,-1,-1,0,52.004996,16.504996)"
       x1="-17.995005"
       y1="27.004995"
       x2="-32.995003"
       y2="27.004995" />
    <linearGradient
       inkscape:collect="always"
       xlink:href="#f-2"
       id="linearGradient1036"
       gradientUnits="userSpaceOnUse"
       gradientTransform="matrix(0,-1,-1,0,45.639352,45.925365)"
       x1="18.925365"
       y1="20.639351"
       x2="6.425365"
       y2="20.639351" />
    <linearGradient
       inkscape:collect="always"
       xlink:href="#f-2"
       id="linearGradient1090"
       gradientUnits="userSpaceOnUse"
       gradientTransform="matrix(0,-1,-1,0,45.46984,27.040152)"
       x1="20.040152"
       y1="20.469839"
       x2="5.0401521"
       y2="20.469839" />
    <linearGradient
       inkscape:collect="always"
       xlink:href="#linearGradient990"
       id="linearGradient963"
       x1="46.858757"
       y1="33.209709"
       x2="41.004997"
       y2="33.004997"
       gradientUnits="userSpaceOnUse"
       gradientTransform="translate(0.535156,-51.035156)" />
    <linearGradient
       inkscape:collect="always"
       xlink:href="#h"
       id="linearGradient1041"
       gradientUnits="userSpaceOnUse"
       gradientTransform="matrix(0,-1,-1,0,12.970068,72.549304)"
       x1="39.544308"
       y1="-20.989431"
       x2="47.544308"
       y2="-20.989431" />
    <linearGradient
       inkscape:collect="always"
       xlink:href="#a-2"
       id="linearGradient1102"
       x1="38.504997"
       y1="26.004995"
       x2="31.004995"
       y2="26.004995"
       gradientUnits="userSpaceOnUse" />
    <linearGradient
       inkscape:collect="always"
       xlink:href="#a-2"
       id="linearGradient1121"
       x1="41.889088"
       y1="17.535534"
       x2="36.004997"
       y2="17.377787"
       gradientUnits="userSpaceOnUse" />
    <linearGradient
       inkscape:collect="always"
       xlink:href="#a-2"
       id="linearGradient1145"
       x1="29.040152"
       y1="-25.030161"
       x2="22.825447"
       y2="-25.030161"
       gradientUnits="userSpaceOnUse" />
    <linearGradient
       inkscape:collect="always"
       xlink:href="#a-2"
       id="linearGradient1165"
       x1="19.040152"
       y1="-20.030161"
       x2="13.040152"
       y2="-20.030161"
       gradientUnits="userSpaceOnUse" />
    <linearGradient
       inkscape:collect="always"
       xlink:href="#a-2"
       id="linearGradient1198"
       x1="23.504995"
       y1="28.504995"
       x2="17.232233"
       y2="28.504995"
       gradientUnits="userSpaceOnUse" />
  </defs>
  <sodipodi:namedview
     pagecolor="#ffffff"
     bordercolor="#666666"
     borderopacity="1"
     objecttolerance="10"
     gridtolerance="10"
     guidetolerance="10"
     inkscape:pageopacity="0"
     inkscape:pageshadow="2"
     inkscape:window-width="1366"
     inkscape:window-height="706"
     id="namedview73"
     showgrid="true"
     inkscape:zoom="5.6568542"
     inkscape:cx="12.06848"
     inkscape:cy="24.646037"
     inkscape:window-x="0"
     inkscape:window-y="0"
     inkscape:window-maximized="1"
     inkscape:current-layer="svg71"
     inkscape:snap-smooth-nodes="true">
    <inkscape:grid
       type="xygrid"
       id="grid895"
       spacingx="0.5"
       spacingy="0.5" />
  </sodipodi:namedview>
  <linearGradient
     id="a"
     gradientUnits="userSpaceOnUse"
     x1="29.525455894189"
     x2="29.525455894189"
     y1="35.604006871864"
     y2="16.823929761292"
     gradientTransform="translate(-60)">
    <stop
       offset="0"
       stop-color="#fbaeff"
       id="stop2" />
    <stop
       offset="1"
       stop-color="#ffd7d7"
       id="stop4" />
  </linearGradient>
  <linearGradient
     id="b"
     gradientUnits="userSpaceOnUse"
     x1="30.27586192"
     x2="30.27586192"
     y1="43.34487536"
     y2="30.9310824"
     gradientTransform="translate(-60)">
    <stop
       offset="0"
       stop-color="#99c2fc"
       id="stop7" />
    <stop
       offset="1"
       stop-color="#dceafe"
       id="stop9" />
  </linearGradient>
  <linearGradient
     id="c"
     gradientUnits="userSpaceOnUse"
     x1="36.4827584"
     x2="46.56896518"
     xlink:href="#d"
     y1="23.1724618"
     y2="40.64228401192"
     gradientTransform="translate(-60)" />
  <linearGradient
     id="d">
    <stop
       offset="0"
       stop-color="#fff"
       id="stop13" />
    <stop
       offset="1"
       stop-color="#fff"
       stop-opacity="0"
       id="stop15" />
  </linearGradient>
  <linearGradient
     id="e"
     gradientUnits="userSpaceOnUse"
     x1="39.859630516151"
     x2="50.44827548"
     xlink:href="#d"
     y1="3.311739960536"
     y2="29.37935828"
     gradientTransform="translate(-60)" />
  <linearGradient
     id="f"
     gradientUnits="userSpaceOnUse"
     x1="16.31034484"
     x2="24.864886637699"
     y1="34.21645904307"
     y2="2.290471955096"
     gradientTransform="translate(-60)">
    <stop
       offset="0"
       stop-color="#b900c4"
       id="stop19" />
    <stop
       offset="1"
       stop-color="#ae4300"
       id="stop21" />
  </linearGradient>
  <linearGradient
     id="g"
     gradientUnits="userSpaceOnUse"
     x1="13.012931085"
     x2="58.283811165318"
     y1="24.72418592"
     y2="12.593890241207"
     gradientTransform="translate(-60)">
    <stop
       offset="0"
       stop-color="#0968ef"
       id="stop24" />
    <stop
       offset="1"
       stop-color="#aecffc"
       id="stop26" />
  </linearGradient>
  <rect
     y="3"
     x="3"
     height="49"
     width="57"
     id="rect2411"
     style="opacity:0.02;vector-effect:none;fill:#010101;fill-opacity:1;stroke:none;stroke-width:0.99900001;stroke-linecap:round;stroke-linejoin:round;stroke-miterlimit:4;stroke-dasharray:none;stroke-dashoffset:0;stroke-opacity:1" />
  <rect
     style="opacity:0.05;vector-effect:none;fill:#010101;fill-opacity:1;stroke:none;stroke-width:0.98952127;stroke-linecap:round;stroke-linejoin:round;stroke-miterlimit:4;stroke-dasharray:none;stroke-dashoffset:0;stroke-opacity:1"
     id="rect2417"
     width="56.5"
     height="48.5"
     x="3"
     y="3" />
  <rect
     style="opacity:0.2;vector-effect:none;fill:#010101;fill-opacity:1;stroke:none;stroke-width:0.98004192;stroke-linecap:round;stroke-linejoin:round;stroke-miterlimit:4;stroke-dasharray:none;stroke-dashoffset:0;stroke-opacity:1"
     id="rect2415"
     width="56"
     height="48"
     x="3"
     y="3" />
  <rect
     style="opacity:1;vector-effect:none;fill:url(#linearGradient1207);fill-opacity:1;stroke:#939393;stroke-width:0.99900001;stroke-linecap:round;stroke-linejoin:round;stroke-miterlimit:4;stroke-dasharray:none;stroke-dashoffset:0;stroke-opacity:1"
     id="rect1199"
     width="57"
     height="49"
     x="0.5"
     y="0.5" />
  <path
     style="fill:none;stroke:#939393;stroke-width:1px;stroke-linecap:butt;stroke-linejoin:miter;stroke-opacity:1"
     d="M 12.5,7 V 37"
     id="path899"
     inkscape:connector-curvature="0" />
  <rect
     y="1.5"
     x="1.5"
     height="47"
     width="55"
     id="rect1209"
     style="opacity:1;vector-effect:none;fill:none;fill-opacity:1;stroke:#ffffff;stroke-width:0.99900001;stroke-linecap:round;stroke-linejoin:round;stroke-miterlimit:4;stroke-dasharray:none;stroke-dashoffset:0;stroke-opacity:1" />
  <g
     id="g1237">
    <path
       sodipodi:nodetypes="cccc"
       style="fill:none;stroke:#939393;stroke-width:1px;stroke-linecap:round;stroke-linejoin:round;stroke-opacity:1"
       d="m 45,43.5 5.5,-6 V 4.5000001 h -38"
       id="path903"
       inkscape:connector-curvature="0" />
    <path
       sodipodi:nodetypes="cccc"
       inkscape:connector-curvature="0"
       id="path897"
       d="M 12.5,4.5000001 6.5,10.5 V 44 l 6,-6.5"
       style="fill:none;stroke:#939393;stroke-width:1px;stroke-linecap:round;stroke-linejoin:round;stroke-opacity:1" />
    <path
       inkscape:connector-curvature="0"
       id="path901"
       d="M 6.5,43.5 H 45"
       style="fill:none;stroke:#939393;stroke-width:1px;stroke-linecap:round;stroke-linejoin:round;stroke-opacity:1" />
    <path
       sodipodi:nodetypes="cc"
       style="fill:none;stroke:#939393;stroke-width:1px;stroke-linecap:round;stroke-linejoin:round;stroke-opacity:1"
       d="m 12.5,37.5 h 38"
       id="path908"
       inkscape:connector-curvature="0" />
  </g>
  <g
     id="g1086"
     transform="matrix(0,-1,-1,0,-0.0301602,53.540152)">
    <g
       id="g1111">
      <path
         style="fill:url(#linearGradient932);fill-opacity:1;stroke:#7239b3;stroke-width:1px;stroke-linecap:round;stroke-linejoin:round;stroke-opacity:0.74632353"
         d="m 11.041016,16.470703 -0.002,0.07227 c -0.848413,0.01528 -1.5327556,1.576631 -1.5332026,3.498047 0,1.93249 0.6915916,3.499283 1.5449216,3.5 0.06798,-0.0016 0.135835,-0.01334 0.203125,-0.03516 L 39.5,20.035156 Z"
         transform="matrix(0,-1,-1,0,53.540152,-0.0301602)"
         id="path910"
         inkscape:connector-curvature="0"
         sodipodi:nodetypes="ccccccc" />
      <path
         sodipodi:nodetypes="cccscccccc"
         inkscape:connector-curvature="0"
         id="path1094"
         d="M 33.004996,17.504996 30.503906,39.75 c 1.68e-4,0.04309 -0.0024,0.08615 -0.0078,0.128906 0.05836,0.05598 0.182319,0.153742 0.40039,0.25 0.470192,0.207546 1.268362,0.367188 2.06836,0.367188 0.795866,-1.85e-4 1.589879,-0.15894 2.060547,-0.365235 0.235334,-0.103147 0.38473,-0.21624 0.435547,-0.269531 l -0.002,0.08789 0.07031,-0.962888 z"
         style="fill:none;fill-opacity:1;stroke:url(#linearGradient1102);stroke-width:1px;stroke-linecap:round;stroke-linejoin:round;stroke-opacity:0.74632353"
         transform="translate(0.535156,-51.035156)" />
    </g>
    <g
       id="g1174">
      <path
         style="fill:url(#linearGradient1028);fill-opacity:1;stroke:#7239b3;stroke-width:1px;stroke-linecap:round;stroke-linejoin:round;stroke-opacity:0.74632353"
         d="m 11.050781,35.505859 h -0.04492 v 0.0059 c -0.834732,0.05567 -1.4989996,1.602949 -1.4999996,3.49414 5.7e-4,1.891949 0.6649336,3.440404 1.4999996,3.496094 v 0.0039 h 0.04492 L 34.5,39 Z"
         transform="matrix(0,-1,-1,0,53.540152,-0.0301602)"
         id="path998"
         inkscape:connector-curvature="0"
         sodipodi:nodetypes="ccccccccc" />
      <path
         sodipodi:nodetypes="ccscccccc"
         inkscape:connector-curvature="0"
         id="path1157"
         d="m 12.179786,-11.115233 c 2e-6,0.0013 2e-6,0.0026 0,0.0039 -0.01764,-0.264579 -0.07112,-0.101004 0.36914,0.08789 0.440262,0.188895 1.174127,0.343506 1.986328,0.34375 0.811859,-4.29e-4 1.544498,-0.154911 1.984375,-0.34375 0.439878,-0.188838 0.38678,-0.352379 0.369141,-0.08789 6.31e-4,-0.0052 0.0013,-0.01042 0.002,-0.01563 L 14.540152,-29.03016 Z"
         style="fill:none;fill-opacity:1;stroke:url(#linearGradient1165);stroke-width:1px;stroke-linecap:round;stroke-linejoin:round;stroke-opacity:0.74632353" />
    </g>
    <g
       id="g1130">
      <path
         style="fill:url(#linearGradient1090);fill-opacity:1;stroke:#b35039;stroke-width:1px;stroke-linecap:round;stroke-linejoin:round;stroke-opacity:0.74509804"
         d="m 11.505859,11.505859 v 0.160157 c -0.147309,-0.104556 -0.300705,-0.158557 -0.455078,-0.160157 -0.85333,7.17e-4 -1.5449216,1.56751 -1.5449216,3.5 0,1.93249 0.6915916,3.499283 1.5449216,3.5 0.166714,-9.19e-4 0.332266,-0.06291 0.490235,-0.183593 v 0.148437 L 46.5,15 Z"
         transform="matrix(0,-1,-1,0,53.540152,-0.0301602)"
         id="path914"
         inkscape:connector-curvature="0"
         sodipodi:nodetypes="cccsccccc" />
      <path
         sodipodi:nodetypes="cccsccccc"
         inkscape:connector-curvature="0"
         id="path1113"
         d="m 35.53125,38.466797 0.04297,1.445312 c 0.06985,0.05955 0.161028,0.137691 0.353515,0.222657 0.471394,0.208076 1.271483,0.367187 2.072266,0.367187 0.800783,0 1.600872,-0.159111 2.072266,-0.367187 0.195253,-0.08619 0.290414,-0.165162 0.359375,-0.22461 -0.138728,-0.307913 -0.112271,-0.665105 0.07031,-0.949218 L 38.004996,11.504996 Z"
         style="fill:none;fill-opacity:1;stroke:url(#linearGradient1121);stroke-width:1px;stroke-linecap:round;stroke-linejoin:round;stroke-opacity:0.74509804"
         transform="translate(0.535156,-51.035156)" />
    </g>
    <g
       id="g1009">
      <path
         style="fill:url(#linearGradient940);fill-opacity:1;stroke:#7bb339;stroke-width:1px;stroke-linecap:round;stroke-linejoin:round;stroke-opacity:0.74509804"
         d="m 11.160156,6.5058594 c -0.0364,-0.0062 -0.07287,-0.00942 -0.109375,-0.00977 -0.85333,7.17e-4 -1.5449217,1.5675099 -1.5449216,3.5 5.703e-4,1.8919492 0.6649336,3.4404042 1.4999996,3.4960942 v 0.01367 L 29.5,9.9902344 Z"
         transform="matrix(0,-1,-1,0,53.540152,-0.0301602)"
         id="path918"
         inkscape:connector-curvature="0"
         sodipodi:nodetypes="ccccccc" />
      <path
         style="fill:none;fill-opacity:1;stroke:url(#linearGradient963);stroke-width:1px;stroke-linecap:square;stroke-linejoin:miter;stroke-opacity:0.74509804"
         d="m 41.034965,-11.204876 0.466798,0.314453 c 0.473485,0.203149 1.257629,0.355232 2.042969,0.355469 0.800506,0 1.599342,-0.159298 2.070312,-0.367188 0.228243,-0.100747 0.366433,-0.209378 0.419922,-0.263671 -9.2e-5,-0.0078 -9.2e-5,-0.01563 0,-0.02344 l -2.4942,-14.243781 z"
         id="path955"
         inkscape:connector-curvature="0"
         sodipodi:nodetypes="cccccccc" />
    </g>
    <g
       id="g1207">
      <path
         style="fill:url(#linearGradient1036);fill-opacity:1;stroke:#b35039;stroke-width:1px;stroke-linecap:round;stroke-linejoin:round;stroke-opacity:0.74509804"
         d="m 11.050781,30.464844 c -0.85333,7.17e-4 -1.5449216,1.56751 -1.5449216,3.5 5.7e-4,1.891949 0.6649336,3.440404 1.4999996,3.496094 v 0.04492 L 38.5,34 11.271484,30.505859 c -0.07304,-0.0256 -0.146793,-0.03932 -0.220703,-0.04102 z"
         transform="matrix(0,-1,-1,0,53.540152,-0.0301602)"
         id="path1008"
         inkscape:connector-curvature="0"
         sodipodi:nodetypes="ccccccc" />
      <path
         sodipodi:nodetypes="ccccccccc"
         inkscape:connector-curvature="0"
         id="path1190"
         d="m 16.49991,39.709145 c 0.02286,0.07298 0.03728,0.148343 0.04297,0.22461 -0.0121,-0.181478 -0.01841,0.0078 0.455078,0.210937 0.473485,0.203149 1.257629,0.355232 2.042969,0.355469 0.800506,0 1.599342,-0.159298 2.070312,-0.367188 0.217283,-0.09591 0.340948,-0.193296 0.400391,-0.25 -0.0076,-0.04917 -0.01145,-0.09884 -0.01162,-0.148598 L 19.005645,16.596558 Z"
         style="fill:none;fill-opacity:1;stroke:url(#linearGradient1198);stroke-width:1px;stroke-linecap:round;stroke-linejoin:round;stroke-opacity:0.74509804"
         transform="translate(0.535156,-51.035156)" />
    </g>
    <g
       id="g1154">
      <path
         style="fill:url(#linearGradient1041);fill-opacity:1;stroke:#7bb339;stroke-linecap:round;stroke-linejoin:round;stroke-opacity:0.74509804"
         d="m 11.050781,25.505859 h -0.04492 v 0.0059 c -0.834732,0.05567 -1.4989596,1.602949 -1.4999996,3.49414 5.689e-4,1.891951 0.6649326,3.440404 1.4999996,3.496094 v 0.0039 h 0.04492 L 42.5,29 Z"
         transform="matrix(0,-1,-1,0,53.540152,-0.0301602)"
         id="ellipse1039"
         inkscape:connector-curvature="0"
         sodipodi:nodetypes="ccccccccc" />
      <path
         sodipodi:nodetypes="ccccscccc"
         inkscape:connector-curvature="0"
         id="path1137"
         d="m 22.035162,-11.121094 c 7.31e-4,0.0065 0.0014,0.01301 0.002,0.01953 -0.0121,-0.181478 -0.01841,0.0078 0.455079,0.210937 0.473485,0.203149 1.257629,0.355232 2.042968,0.355469 0.785055,-4.3e-4 1.567925,-0.152376 2.041016,-0.355469 0.473091,-0.203093 0.467177,-0.392349 0.455078,-0.210937 0.0011,-0.01109 0.0024,-0.02216 0.0039,-0.0332 L 24.540152,-36.03016 Z"
         style="fill:none;fill-opacity:1;stroke:url(#linearGradient1145);stroke-width:1px;stroke-linecap:round;stroke-linejoin:round;stroke-opacity:0.74509804" />
    </g>
  </g>
</svg>
