<?xml version="1.0" encoding="UTF-8" standalone="no"?>
<svg
   xmlns:dc="http://purl.org/dc/elements/1.1/"
   xmlns:cc="http://creativecommons.org/ns#"
   xmlns:rdf="http://www.w3.org/1999/02/22-rdf-syntax-ns#"
   xmlns:svg="http://www.w3.org/2000/svg"
   xmlns="http://www.w3.org/2000/svg"
   xmlns:xlink="http://www.w3.org/1999/xlink"
   xmlns:sodipodi="http://sodipodi.sourceforge.net/DTD/sodipodi-0.dtd"
   xmlns:inkscape="http://www.inkscape.org/namespaces/inkscape"
   height="52"
   viewBox="0 0 60 52"
   width="60"
   version="1.1"
   id="svg71"
   sodipodi:docname="cylinderdeep_52x60.svg"
   inkscape:version="0.92.3 (unknown)"
   inkscape:export-filename="/home/rizmut/Dokumen/Rizmut/Github/libreoffice-style-elementary/images_elementary/chart2/res/cylinderdeep_52x60.png"
   inkscape:export-xdpi="96"
   inkscape:export-ydpi="96">
  <metadata
     id="metadata77">
    <rdf:RDF>
      <cc:Work
         rdf:about="">
        <dc:format>image/svg+xml</dc:format>
        <dc:type
           rdf:resource="http://purl.org/dc/dcmitype/StillImage" />
        <dc:title></dc:title>
      </cc:Work>
    </rdf:RDF>
  </metadata>
  <defs
     id="defs75">
    <linearGradient
       id="linearGradient220">
      <stop
         id="stop212"
         stop-color="#fff"
         offset="0" />
      <stop
         id="stop214"
         stop-opacity=".23529"
         stop-color="#fff"
         offset="0.44827589" />
      <stop
         id="stop216"
         stop-opacity=".15686"
         stop-color="#fff"
         offset="1" />
      <stop
         id="stop218"
         stop-opacity=".39216"
         stop-color="#fff"
         offset="1" />
    </linearGradient>
    <linearGradient
       id="linearGradient210">
      <stop
         id="stop202"
         stop-color="#fff"
         offset="0" />
      <stop
         id="stop204"
         stop-opacity=".23529"
         stop-color="#fff"
         offset="0.43333334" />
      <stop
         id="stop206"
         stop-opacity=".15686"
         stop-color="#fff"
         offset="1" />
      <stop
         id="stop208"
         stop-opacity=".39216"
         stop-color="#fff"
         offset="1" />
    </linearGradient>
    <linearGradient
       inkscape:collect="always"
       id="linearGradient1205">
      <stop
         style="stop-color:#f6f6f6;stop-opacity:1;"
         offset="0"
         id="stop1201" />
      <stop
         id="stop2419"
         offset="0.35294119"
         style="stop-color:#fcfcfc;stop-opacity:1" />
      <stop
         style="stop-color:#ffffff;stop-opacity:0.91544116"
         offset="1"
         id="stop1203" />
    </linearGradient>
    <linearGradient
       id="h"
       gradientTransform="matrix(1.3832,0,0,1.4144,-11.892,21.511)"
       gradientUnits="userSpaceOnUse"
       x1="13.697"
       x2="13.3"
       y1="12.091"
       y2="29.436001">
      <stop
         offset="0"
         stop-color="#aff05f"
         id="stop31" />
      <stop
         offset="1"
         stop-color="#68b723"
         id="stop33" />
    </linearGradient>
    <linearGradient
       id="i"
       gradientUnits="userSpaceOnUse"
       x1="12.00126"
       x2="12.00126"
       xlink:href="#a-2"
       y1="8.1875687"
       y2="19.999826" />
    <linearGradient
       id="a-2">
      <stop
         offset="0"
         stop-color="#fff"
         id="stop2-9" />
      <stop
         offset="0.58055538"
         stop-color="#fff"
         stop-opacity=".23529"
         id="stop4-1" />
      <stop
         offset="1"
         stop-color="#fff"
         stop-opacity=".15686"
         id="stop6" />
      <stop
         offset="1"
         stop-color="#fff"
         stop-opacity=".39216"
         id="stop8" />
    </linearGradient>
    <linearGradient
       id="f-2"
       gradientUnits="userSpaceOnUse"
       x1="13.608"
       x2="13.608"
       y1="2.5455"
       y2="21.532">
      <stop
         offset="0"
         stop-color="#f7b19e"
         id="stop25" />
      <stop
         offset="1"
         stop-color="#e2866d"
         id="stop27" />
    </linearGradient>
    <linearGradient
       id="g-7"
       gradientUnits="userSpaceOnUse"
       x1="11.876287"
       x2="12.00126"
       xlink:href="#a-2"
       y1="7.3122978"
       y2="19.999826" />
    <linearGradient
       id="j"
       gradientUnits="userSpaceOnUse"
       x1="15.608"
       x2="15.608"
       y1="2.5455"
       y2="21.532">
      <stop
         offset="0"
         stop-color="#cd9ef7"
         id="stop37" />
      <stop
         offset="1"
         stop-color="#a56de2"
         id="stop39" />
    </linearGradient>
    <linearGradient
       id="k"
       gradientUnits="userSpaceOnUse"
       x1="14.00124"
       x2="14.00124"
       xlink:href="#a-2"
       y1="4.0000048"
       y2="19.999826" />
    <linearGradient
       inkscape:collect="always"
       xlink:href="#linearGradient1205"
       id="linearGradient1207"
       x1="42.5"
       y1="49.5"
       x2="42.5"
       y2="7"
       gradientUnits="userSpaceOnUse" />
    <linearGradient
       id="a-3"
       gradientUnits="userSpaceOnUse"
       x1="9.9784946"
       x2="9.9784946"
       y1="13.912886"
       y2="-5.8720589"
       gradientTransform="translate(-85.554475,-30.546764)">
      <stop
         offset="0"
         id="stop1717" />
      <stop
         offset="1"
         stop-color="#333"
         id="stop1719" />
    </linearGradient>
    <linearGradient
       id="b-6"
       gradientUnits="userSpaceOnUse"
       x1="14"
       x2="6"
       y1="8"
       y2="16">
      <stop
         offset="0"
         stop-color="#fff"
         id="stop1722" />
      <stop
         offset=".125"
         stop-color="#fff"
         stop-opacity="0"
         id="stop1724" />
      <stop
         offset="1"
         stop-color="#fff"
         stop-opacity="0"
         id="stop1726" />
    </linearGradient>
    <clipPath
       id="c-0">
      <path
         inkscape:connector-curvature="0"
         d="M 8,2.6855469 V 16.685547 l 3.132812,-3.820313 2.066407,4.986328 a 1.0001,1.0001 0 1 0 1.847656,-0.765624 L 12.935547,11.990234 17.314453,12 Z"
         id="path1729" />
    </clipPath>
    <linearGradient
       inkscape:collect="always"
       xlink:href="#j"
       id="linearGradient932"
       gradientUnits="userSpaceOnUse"
       x1="30"
       y1="27"
       x2="30"
       y2="39.5"
       gradientTransform="translate(41.5)" />
    <linearGradient
       inkscape:collect="always"
       xlink:href="#h"
       id="linearGradient940"
       gradientUnits="userSpaceOnUse"
       x1="31.535156"
       y1="14.152344"
       x2="32.5"
       y2="34.5"
       gradientTransform="translate(15.964844,0.347656)" />
    <linearGradient
       inkscape:collect="always"
       xlink:href="#j"
       id="linearGradient1028"
       gradientUnits="userSpaceOnUse"
       gradientTransform="translate(54)"
       x1="30"
       y1="27"
       x2="30"
       y2="39.5" />
    <linearGradient
       inkscape:collect="always"
       xlink:href="#f-2"
       id="linearGradient1036"
       gradientUnits="userSpaceOnUse"
       gradientTransform="translate(23.652345,2.708997)"
       x1="47.5"
       y1="29.5"
       x2="47.5"
       y2="34.5" />
    <linearGradient
       inkscape:collect="always"
       xlink:href="#h"
       id="linearGradient1044"
       gradientUnits="userSpaceOnUse"
       gradientTransform="translate(26.964844,0.347656)"
       x1="23.035156"
       y1="15.152344"
       x2="24.035156"
       y2="34.152344" />
    <linearGradient
       inkscape:collect="always"
       xlink:href="#f-2"
       id="linearGradient1090"
       gradientUnits="userSpaceOnUse"
       gradientTransform="translate(12,2.505204)"
       x1="25.5"
       y1="22.5"
       x2="23"
       y2="32.5" />
    <linearGradient
       inkscape:collect="always"
       xlink:href="#h"
       id="linearGradient1055"
       x1="25"
       y1="17"
       x2="35"
       y2="17"
       gradientUnits="userSpaceOnUse" />
    <linearGradient
       inkscape:collect="always"
       xlink:href="#h"
       id="linearGradient1057"
       x1="39.5"
       y1="13.5"
       x2="45.5"
       y2="13"
       gradientUnits="userSpaceOnUse" />
    <linearGradient
       inkscape:collect="always"
       xlink:href="#f-2"
       id="linearGradient1065"
       x1="19"
       y1="24.000004"
       x2="29"
       y2="24.000004"
       gradientUnits="userSpaceOnUse" />
    <linearGradient
       inkscape:collect="always"
       xlink:href="#f-2"
       id="linearGradient1067"
       x1="31.576241"
       y1="29"
       x2="41.576241"
       y2="29"
       gradientUnits="userSpaceOnUse" />
    <linearGradient
       inkscape:collect="always"
       xlink:href="#j"
       id="linearGradient1075"
       x1="15"
       y1="31"
       x2="25"
       y2="31"
       gradientUnits="userSpaceOnUse" />
    <linearGradient
       inkscape:collect="always"
       xlink:href="#j"
       id="linearGradient1077"
       x1="27"
       y1="35"
       x2="37"
       y2="35"
       gradientUnits="userSpaceOnUse" />
    <linearGradient
       inkscape:collect="always"
       xlink:href="#linearGradient220"
       id="linearGradient1106"
       x1="41.5"
       y1="14"
       x2="41"
       y2="32.5"
       gradientUnits="userSpaceOnUse" />
    <linearGradient
       inkscape:collect="always"
       xlink:href="#linearGradient220"
       id="linearGradient1124"
       x1="30.5"
       y1="17"
       x2="30.5"
       y2="33"
       gradientUnits="userSpaceOnUse" />
    <linearGradient
       inkscape:collect="always"
       xlink:href="#linearGradient220"
       id="linearGradient1142"
       x1="37"
       y1="24"
       x2="37"
       y2="36"
       gradientUnits="userSpaceOnUse" />
    <linearGradient
       inkscape:collect="always"
       xlink:href="#linearGradient220"
       id="linearGradient1160"
       x1="24.5"
       y1="24.5"
       x2="24.5"
       y2="36"
       gradientUnits="userSpaceOnUse" />
    <linearGradient
       inkscape:collect="always"
       xlink:href="#linearGradient220"
       id="linearGradient1178"
       x1="20"
       y1="29.5"
       x2="20"
       y2="40"
       gradientUnits="userSpaceOnUse" />
    <linearGradient
       inkscape:collect="always"
       xlink:href="#linearGradient220"
       id="linearGradient1196"
       x1="32"
       y1="32.5"
       x2="32"
       y2="40.5"
       gradientUnits="userSpaceOnUse" />
  </defs>
  <sodipodi:namedview
     pagecolor="#ffffff"
     bordercolor="#666666"
     borderopacity="1"
     objecttolerance="10"
     gridtolerance="10"
     guidetolerance="10"
     inkscape:pageopacity="0"
     inkscape:pageshadow="2"
     inkscape:window-width="1366"
     inkscape:window-height="706"
     id="namedview73"
     showgrid="true"
     inkscape:zoom="8.0000004"
     inkscape:cx="38.408207"
     inkscape:cy="31.65936"
     inkscape:window-x="0"
     inkscape:window-y="0"
     inkscape:window-maximized="1"
     inkscape:current-layer="svg71"
     showguides="true"
     inkscape:snap-smooth-nodes="true">
    <inkscape:grid
       type="xygrid"
       id="grid895"
       spacingx="0.5"
       spacingy="0.5" />
  </sodipodi:namedview>
  <linearGradient
     id="a"
     gradientUnits="userSpaceOnUse"
     x1="29.525455894189"
     x2="29.525455894189"
     y1="35.604006871864"
     y2="16.823929761292"
     gradientTransform="translate(-60)">
    <stop
       offset="0"
       stop-color="#fbaeff"
       id="stop2" />
    <stop
       offset="1"
       stop-color="#ffd7d7"
       id="stop4" />
  </linearGradient>
  <linearGradient
     id="b"
     gradientUnits="userSpaceOnUse"
     x1="30.27586192"
     x2="30.27586192"
     y1="43.34487536"
     y2="30.9310824"
     gradientTransform="translate(-60)">
    <stop
       offset="0"
       stop-color="#99c2fc"
       id="stop7" />
    <stop
       offset="1"
       stop-color="#dceafe"
       id="stop9" />
  </linearGradient>
  <linearGradient
     id="c"
     gradientUnits="userSpaceOnUse"
     x1="36.4827584"
     x2="46.56896518"
     xlink:href="#d"
     y1="23.1724618"
     y2="40.64228401192"
     gradientTransform="translate(-60)" />
  <linearGradient
     id="d">
    <stop
       offset="0"
       stop-color="#fff"
       id="stop13" />
    <stop
       offset="1"
       stop-color="#fff"
       stop-opacity="0"
       id="stop15" />
  </linearGradient>
  <linearGradient
     id="e"
     gradientUnits="userSpaceOnUse"
     x1="39.859630516151"
     x2="50.44827548"
     xlink:href="#d"
     y1="3.311739960536"
     y2="29.37935828"
     gradientTransform="translate(-60)" />
  <linearGradient
     id="f"
     gradientUnits="userSpaceOnUse"
     x1="16.31034484"
     x2="24.864886637699"
     y1="34.21645904307"
     y2="2.290471955096"
     gradientTransform="translate(-60)">
    <stop
       offset="0"
       stop-color="#b900c4"
       id="stop19" />
    <stop
       offset="1"
       stop-color="#ae4300"
       id="stop21" />
  </linearGradient>
  <linearGradient
     id="g"
     gradientUnits="userSpaceOnUse"
     x1="13.012931085"
     x2="58.283811165318"
     y1="24.72418592"
     y2="12.593890241207"
     gradientTransform="translate(-60)">
    <stop
       offset="0"
       stop-color="#0968ef"
       id="stop24" />
    <stop
       offset="1"
       stop-color="#aecffc"
       id="stop26" />
  </linearGradient>
  <rect
     y="3"
     x="3"
     height="49"
     width="57"
     id="rect2411"
     style="opacity:0.02;vector-effect:none;fill:#010101;fill-opacity:1;stroke:none;stroke-width:0.99900001;stroke-linecap:round;stroke-linejoin:round;stroke-miterlimit:4;stroke-dasharray:none;stroke-dashoffset:0;stroke-opacity:1" />
  <rect
     style="opacity:0.05;vector-effect:none;fill:#010101;fill-opacity:1;stroke:none;stroke-width:0.98952127;stroke-linecap:round;stroke-linejoin:round;stroke-miterlimit:4;stroke-dasharray:none;stroke-dashoffset:0;stroke-opacity:1"
     id="rect2417"
     width="56.5"
     height="48.5"
     x="3"
     y="3" />
  <rect
     style="opacity:0.2;vector-effect:none;fill:#010101;fill-opacity:1;stroke:none;stroke-width:0.98004192;stroke-linecap:round;stroke-linejoin:round;stroke-miterlimit:4;stroke-dasharray:none;stroke-dashoffset:0;stroke-opacity:1"
     id="rect2415"
     width="56"
     height="48"
     x="3"
     y="3" />
  <rect
     style="opacity:1;vector-effect:none;fill:url(#linearGradient1207);fill-opacity:1;stroke:#939393;stroke-width:0.99900001;stroke-linecap:round;stroke-linejoin:round;stroke-miterlimit:4;stroke-dasharray:none;stroke-dashoffset:0;stroke-opacity:1"
     id="rect1199"
     width="57"
     height="49"
     x="0.5"
     y="0.5" />
  <path
     inkscape:connector-curvature="0"
     id="path903"
     d="m 37,43.5 13.5,-12 v -25 h -24"
     style="fill:none;stroke:#939393;stroke-width:1px;stroke-linecap:round;stroke-linejoin:round;stroke-opacity:1"
     sodipodi:nodetypes="cccc" />
  <path
     style="fill:none;stroke:#939393;stroke-width:1px;stroke-linecap:round;stroke-linejoin:round;stroke-opacity:1"
     d="m 26.5,6.5 -20,13 v 24 l 20,-12"
     id="path897"
     inkscape:connector-curvature="0"
     sodipodi:nodetypes="cccc" />
  <path
     style="fill:none;stroke:#939393;stroke-width:1px;stroke-linecap:butt;stroke-linejoin:miter;stroke-opacity:1"
     d="M 26.5,7 V 31"
     id="path899"
     inkscape:connector-curvature="0"
     sodipodi:nodetypes="cc" />
  <path
     style="fill:none;stroke:#939393;stroke-width:1px;stroke-linecap:round;stroke-linejoin:round;stroke-opacity:1"
     d="M 6.5,43.5 H 37"
     id="path901"
     inkscape:connector-curvature="0"
     sodipodi:nodetypes="cc" />
  <rect
     y="1.5"
     x="1.5"
     height="47"
     width="55"
     id="rect1209"
     style="opacity:1;vector-effect:none;fill:none;fill-opacity:1;stroke:#ffffff;stroke-width:0.99900001;stroke-linecap:round;stroke-linejoin:round;stroke-miterlimit:4;stroke-dasharray:none;stroke-dashoffset:0;stroke-opacity:1" />
  <path
     inkscape:connector-curvature="0"
     id="path908"
     d="m 26.5,31.5 h 24"
     style="fill:none;stroke:#939393;stroke-width:1px;stroke-linecap:round;stroke-linejoin:round;stroke-opacity:1"
     sodipodi:nodetypes="cc" />
  <g
     id="g1281">
    <g
       id="g1132">
      <path
         id="path918"
         d="M 25.535156,13.464844 V 31.324219 C 25.513116,31.382532 25.501377,31.441227 25.5,31.5 c 0.0021,0.05682 0.01379,0.113549 0.03516,0.169922 v 1.154297 C 25.513116,32.882532 25.501377,32.941227 25.5,33 c 0,0.828427 2.014719,1.5 4.5,1.5 2.485281,0 4.5,-0.671573 4.5,-1.5 V 31.5 13.535156 H 34.197266 C 33.532443,14.115431 31.86345,14.499089 30,14.5 28.056873,14.499 26.335164,14.082345 25.730469,13.466797 Z"
         style="fill:url(#linearGradient940);fill-opacity:1;stroke:#7bb339;stroke-width:1px;stroke-linecap:round;stroke-linejoin:round;stroke-opacity:0.74509804"
         inkscape:connector-curvature="0"
         sodipodi:nodetypes="ccccccsscccccc" />
      <path
         style="fill:url(#linearGradient1055);fill-opacity:1;stroke:#7bb339;stroke-linecap:round;stroke-linejoin:round;stroke-opacity:0.74509804"
         d="m 34.5,13 c 0,0.828427 -2.014719,1.5 -4.5,1.5 -2.485282,0 -4.5,-0.671573 -4.5,-1.5 0,-0.828427 2.014718,-1.5 4.5,-1.5 2.485281,0 4.5,0.671573 4.5,1.5 z"
         id="ellipse1002"
         inkscape:connector-curvature="0"
         sodipodi:nodetypes="sssss" />
      <path
         sodipodi:nodetypes="cccccccscccccccsssscscsccssccccccc"
         inkscape:connector-curvature="0"
         id="path1116"
         d="M 26.417969,14.791016 26.5,31.324219 c -1.82e-4,0.05699 -0.0054,0.113854 -0.01563,0.169922 0.01057,0.05799 0.0158,0.116833 0.01563,0.175781 v 1.154297 c 9.5e-5,0.0078 9.5e-5,0.01563 0,0.02344 0.104135,0.07514 0.305358,0.190979 0.623047,0.296875 0.689261,0.229754 1.783054,0.390625 2.876953,0.390625 1.093899,0 2.187692,-0.160871 2.876953,-0.390625 0.335779,-0.111926 0.563433,-0.241135 0.658203,-0.314453 V 31.5 l 0.02734,-16.691406 c 0.284187,-0.248046 -0.359473,0.258719 -0.05469,0.04297 0.304786,-0.21575 -0.41223,0.247508 -0.08789,0.05664 0.32434,-0.190866 -0.463075,0.233483 -0.119141,0.0625 0.343935,-0.170983 -0.510187,0.222668 -0.146484,0.06836 0.727406,-0.308616 -1.172509,0.385052 -0.367188,0.132813 0.805322,-0.252239 -1.331952,0.324618 -0.455078,0.123047 0.876875,-0.201571 -1.460548,0.253675 -0.523437,0.101562 0.93711,-0.152112 -1.556697,0.17841 -0.574219,0.07617 0.982478,-0.102238 -1.620024,0.09849 -0.609375,0.04687 1.010649,-0.05162 -1.645306,0.01612 -0.625,0.01563 1.01061,5.26e-4 -1.650652,-0.07076 -0.650391,-0.01758 1.000262,0.05318 -1.60098,-0.156065 -0.630859,-0.05078 0.970121,0.105284 -1.515471,-0.238623 -0.59375,-0.08203 0.921721,0.156591 -1.392941,-0.316954 -0.535156,-0.109375 0.857784,0.207579 -1.239516,-0.389293 -0.457032,-0.128907 0.391243,0.130193 -0.564523,-0.214852 -0.193359,-0.07031 0.371164,0.14454 -0.518766,-0.230807 -0.167969,-0.07031 0.350798,0.160495 -0.469178,-0.247506 -0.138672,-0.06836 0.330507,0.179147 -0.41587,-0.26466 -0.105468,-0.0625 0.310401,0.20216 -0.362127,-0.282696 -0.07227,-0.05078 0.289861,0.231915 -0.303652,-0.304529 -0.03711,-0.0332 z"
         style="fill:none;fill-opacity:1;stroke:url(#linearGradient1124);stroke-width:1px;stroke-linecap:round;stroke-linejoin:round;stroke-opacity:0.74509804" />
    </g>
    <g
       id="g1168">
      <path
         id="path914"
         d="m 19.5,24.5 0.03516,12.464844 h 0.0293 a 4.5,1.5 0 0 0 -0.06445,0.24414 4.5,1.5 0 0 0 4.5,1.5 4.5,1.5 0 0 0 4.5,-1.5 A 4.5,1.5 0 0 0 28.451172,37 H 28.5 V 24.5 H 28.236328 A 4.5,1.5 0 0 1 24,25.5 a 4.5,1.5 0 0 1 -4.236328,-1 z"
         style="fill:url(#linearGradient1090);fill-opacity:1;stroke:#b35039;stroke-width:1px;stroke-linecap:round;stroke-linejoin:round;stroke-opacity:0.74509804"
         inkscape:connector-curvature="0" />
      <ellipse
         style="fill:url(#linearGradient1065);fill-opacity:1;stroke:#b35039;stroke-linecap:round;stroke-linejoin:round;stroke-opacity:0.74509804"
         id="ellipse1012"
         cx="24"
         cy="24.000004"
         rx="4.5"
         ry="1.5" />
      <path
         sodipodi:nodetypes="cccssccccccccccscscsccccccsccc"
         inkscape:connector-curvature="0"
         id="path1152"
         d="m 20.445312,25.777344 0.08203,10.193359 0.02734,1.078125 c 0.108391,0.07351 0.280683,0.178197 0.578124,0.277344 0.684863,0.228288 1.775865,0.388672 2.867188,0.388672 1.091323,0 2.182325,-0.160384 2.867188,-0.388672 0.304336,-0.101445 0.486167,-0.209987 0.591796,-0.283203 -0.0051,-0.117747 0.01077,-0.235464 0.04687,-0.347657 l 0.04883,-10.917968 c 0.278906,-0.262956 -0.345258,0.261347 -0.04492,0.03516 0.300336,-0.226191 -0.396121,0.250993 -0.07617,0.05273 0.319948,-0.198258 -0.450776,0.238882 -0.111328,0.0625 0.339447,-0.176381 -0.499822,0.224817 -0.140625,0.06641 0.718393,-0.316821 -1.158315,0.394259 -0.361329,0.136718 0.796987,-0.25754 -1.324977,0.330343 -0.455078,0.125 0.869899,-0.205342 -1.459005,0.260296 -0.527343,0.105469 0.931661,-0.154827 -1.560378,0.182155 -0.582032,0.07813 0.978347,-0.10403 -1.62653,0.101331 -0.61914,0.04883 1.00739,-0.0525 -1.654067,0.01805 -0.636719,0.01758 1.017348,4.76e-4 -1.644109,-0.07008 -0.636719,-0.01758 1.00739,0.0525 -1.597487,-0.152858 -0.61914,-0.04883 0.978346,0.10403 -1.513693,-0.232952 -0.582032,-0.07813 0.931662,0.154827 -1.397242,-0.310811 -0.527343,-0.105469 0.869899,0.205343 -1.252065,-0.38254 -0.455078,-0.125 0.796986,0.257541 -1.079722,-0.453539 -0.361329,-0.136718 0.359197,0.15841 -0.480072,-0.242788 -0.140625,-0.06641 0.339448,0.176382 -0.431276,-0.260758 -0.111328,-0.0625 0.319949,0.198259 -0.376508,-0.278925 -0.07617,-0.05273 0.300336,0.226191 -0.323828,-0.298112 -0.04492,-0.03516 z"
         style="fill:none;fill-opacity:1;stroke:url(#linearGradient1160);stroke-width:1px;stroke-linecap:round;stroke-linejoin:round;stroke-opacity:0.74509804" />
    </g>
    <g
       id="g1114">
      <path
         id="path1018"
         d="M 36.5,15.5 V 33 c 0,0.828427 2.014719,1.5 4.5,1.5 2.485281,0 4.5,-0.671573 4.5,-1.5 V 15.5 h -0.263672 c -0.634901,0.598592 -2.331622,0.999109 -4.236328,1 -1.904706,-8.91e-4 -3.601427,-0.401408 -4.236328,-1 z"
         style="fill:url(#linearGradient1044);fill-opacity:1;stroke:#7bb339;stroke-width:1px;stroke-linecap:round;stroke-linejoin:round;stroke-opacity:0.74509804"
         inkscape:connector-curvature="0"
         sodipodi:nodetypes="csssccccc" />
      <path
         style="fill:url(#linearGradient1057);fill-opacity:1;stroke:#7bb339;stroke-linecap:round;stroke-linejoin:round;stroke-opacity:0.74509804"
         d="m 45.5,15 c 0,0.828427 -2.014719,1.5 -4.5,1.5 -2.485282,0 -4.5,-0.671573 -4.5,-1.5 0,-0.828427 2.014718,-1.5 4.5,-1.5 2.485281,0 4.5,0.671573 4.5,1.5 z"
         id="path935"
         inkscape:connector-curvature="0"
         sodipodi:nodetypes="sssss" />
      <path
         sodipodi:nodetypes="cccscccccccccsccccccccccsccc"
         inkscape:connector-curvature="0"
         id="path1098"
         d="m 37.445312,16.775391 0.04883,16.037109 c 0.09382,0.0709 0.310462,0.195284 0.638671,0.304688 0.684774,0.228257 1.775917,0.388671 2.867188,0.388671 1.091271,0 2.182414,-0.160414 2.867188,-0.388671 0.328209,-0.109404 0.544855,-0.233789 0.638671,-0.304688 l 0.04883,-16.037109 c 0.278979,-0.263025 -0.345324,0.263349 -0.04492,0.03711 0.300401,-0.22624 -0.398132,0.251029 -0.07813,0.05273 0.320006,-0.198294 -0.448874,0.238909 -0.109375,0.0625 0.339498,-0.176408 -0.499866,0.224837 -0.140625,0.06641 0.718482,-0.316861 -1.158385,0.394282 -0.361329,0.136718 0.797057,-0.257563 -1.325035,0.330357 -0.455078,0.125 0.869958,-0.205356 -1.459056,0.260304 -0.527343,0.105469 0.931712,-0.154835 -1.560424,0.18216 -0.582032,0.07813 0.978392,-0.104034 -1.626573,0.101334 -0.61914,0.04883 1.007433,-0.05251 -1.654109,0.01805 -0.636719,0.01758 1.01739,4.76e-4 -1.644152,-0.07008 -0.636719,-0.01758 1.007433,0.05251 -1.597532,-0.152862 -0.61914,-0.04883 0.978392,0.104035 -1.513744,-0.23296 -0.582032,-0.07813 0.931713,0.154835 -1.397301,-0.310825 -0.527343,-0.105469 0.869957,0.205357 -1.252135,-0.382563 -0.455078,-0.125 0.797056,0.257564 -1.079811,-0.453579 -0.361329,-0.136718 0.359241,0.15843 -0.480123,-0.242815 -0.140625,-0.06641 0.339499,0.176409 -0.429381,-0.260794 -0.109375,-0.0625 0.320007,0.198295 -0.378526,-0.278974 -0.07813,-0.05273 0.300402,0.22624 -0.323901,-0.300134 -0.04492,-0.03711 z"
         style="fill:none;fill-opacity:1;stroke:url(#linearGradient1106);stroke-width:1px;stroke-linecap:round;stroke-linejoin:round;stroke-opacity:0.74509804" />
    </g>
    <g
       id="g1150"
       transform="translate(-0.5)">
      <path
         id="path1008"
         d="m 32,22.515625 0.148438,14.435547 c -0.04634,0.08508 -0.07052,0.171341 -0.07227,0.257812 0,0.828427 2.014719,1.5 4.5,1.5 2.485281,0 4.5,-0.671573 4.5,-1.5 C 41.075915,37.117254 41.050418,37.025725 41,36.935547 V 22.785156 c -0.390334,0.712315 -2.251528,1.229998 -4.423828,1.230469 -2.485281,0 -4.5,-0.671573 -4.5,-1.5 z"
         style="fill:url(#linearGradient1036);fill-opacity:1;stroke:#b35039;stroke-width:1px;stroke-linecap:round;stroke-linejoin:round;stroke-opacity:0.74509804"
         inkscape:connector-curvature="0"
         sodipodi:nodetypes="cccscccccc" />
      <path
         style="fill:url(#linearGradient1067);fill-opacity:1;stroke:#b35039;stroke-linecap:round;stroke-linejoin:round;stroke-opacity:0.74509804"
         d="m 41.076241,22.515625 c 0,0.828427 -2.014719,1.5 -4.5,1.5 -2.485281,0 -4.5,-0.671573 -4.5,-1.5 0,-0.828427 2.014719,-1.5 4.5,-1.5 2.485281,0 4.5,0.671573 4.5,1.5 z"
         id="ellipse1010"
         inkscape:connector-curvature="0"
         sodipodi:nodetypes="sssss" />
      <path
         sodipodi:nodetypes="ccccccccscccsccccccscccccccsscccccc"
         inkscape:connector-curvature="0"
         id="path1134"
         d="m 40.169922,24.300781 c 0.241202,-0.293347 -0.292081,0.263332 -0.02148,0.01953 0.270596,-0.243801 -0.354274,0.256155 -0.06055,0.04883 0.293726,-0.207328 -0.420954,0.246698 -0.105469,0.06641 0.315485,-0.180292 -0.481882,0.23345 -0.144531,0.07422 0.33735,-0.159231 -0.540995,0.219842 -0.181641,0.07813 0.359354,-0.141718 -0.593936,0.204338 -0.212891,0.07813 0.381045,-0.126214 -0.646014,0.185998 -0.24414,0.07422 0.803748,-0.223559 -1.442413,0.299085 -0.564453,0.13086 0.877959,-0.168225 -1.577575,0.212677 -0.642578,0.09961 0.934996,-0.113068 -1.666076,0.117538 -0.695313,0.06055 0.970763,-0.05699 -1.703692,0.0217 -0.720703,0.02148 0.946568,0 -1.746107,-0.08716 -0.814453,-0.02539 0.931653,0.06177 -1.663448,-0.202693 -0.775391,-0.08008 0.888057,0.122615 -1.520573,-0.305549 -0.701172,-0.123047 0.409701,0.09125 -0.699356,-0.184488 -0.310547,-0.07813 0.388809,0.106362 -0.641567,-0.20409 -0.27539,-0.08203 0.366176,0.122058 -0.582743,-0.227007 -0.240235,-0.08789 0.342509,0.139116 -0.513873,-0.246811 -0.195312,-0.08789 0.318561,0.15892 -0.441337,-0.265908 -0.146484,-0.08203 0.294852,0.183877 -0.366468,-0.2843 -0.0957,-0.06641 0.270764,0.217894 -0.281274,-0.303265 -0.03906,-0.03711 0.242212,0.266156 -0.191687,-0.319324 0.0059,0.01172 0.197546,0.331043 -0.08469,-0.322837 0.0332,0.07617 0.117897,0.399009 0.01758,-0.30574 0.01758,0.125 l 0.07226,12.417969 c 8e-5,0.0464 -0.0032,0.09275 -0.0098,0.138672 0.110331,0.07601 0.293741,0.183851 0.597657,0.285156 0.68961,0.22987 1.782849,0.388672 2.876953,0.388672 1.094104,0 2.187342,-0.158802 2.876953,-0.388672 0.303107,-0.101036 0.485063,-0.209128 0.595703,-0.285156 -0.0072,-0.04524 -0.01107,-0.09092 -0.01172,-0.136719 l 0.119141,-12.613281 c 0.194867,-0.35561 -0.22753,0.271863 0.01367,-0.02148 z"
         style="fill:none;fill-opacity:1;stroke:url(#linearGradient1142);stroke-width:1px;stroke-linecap:round;stroke-linejoin:round;stroke-opacity:0.74509804" />
    </g>
    <g
       id="g1186">
      <path
         id="path910"
         d="m 15.5,29 v 12 c 0,0.828427 2.014719,1.5 4.5,1.5 2.485281,0 4.5,-0.671573 4.5,-1.5 V 29 c 0,0.828427 -2.014719,1.5 -4.5,1.5 -2.485281,0 -4.5,-0.671573 -4.5,-1.5 z"
         style="fill:url(#linearGradient932);fill-opacity:1;stroke:#7239b3;stroke-width:1px;stroke-linecap:round;stroke-linejoin:round;stroke-opacity:0.74632353"
         inkscape:connector-curvature="0"
         sodipodi:nodetypes="cssscsc" />
      <path
         style="fill:url(#linearGradient1075);fill-opacity:1;stroke:#7239b3;stroke-linecap:round;stroke-linejoin:round;stroke-opacity:0.74509804"
         d="m 24.5,29 c 0,0.828427 -2.014719,1.5 -4.5,1.5 -2.485281,0 -4.5,-0.671573 -4.5,-1.5 0,-0.828427 2.014719,-1.5 4.5,-1.5 2.485281,0 4.5,0.671573 4.5,1.5 z"
         id="ellipse1031"
         inkscape:connector-curvature="0"
         sodipodi:nodetypes="sssss" />
      <path
         sodipodi:nodetypes="cccsccsccscccccccsccscsscccccccccc"
         inkscape:connector-curvature="0"
         id="path1170"
         d="m 16.427734,30.767578 c 0.245787,0.270084 -0.189319,-0.321271 0.01172,0.01563 0.201039,0.336896 -0.08508,-0.324896 0.03516,0.08203 0.120237,0.406927 0.01758,-0.304866 0.01758,0.134766 v 9.816406 c 0.09663,0.07226 0.317263,0.194947 0.640624,0.302735 0.670635,0.223545 1.713962,0.388672 2.867188,0.388671 1.153226,0 2.196553,-0.165126 2.867188,-0.388671 0.323361,-0.107788 0.543992,-0.230479 0.640624,-0.302735 V 31 c 0,-0.439632 -0.102658,0.272161 0.01758,-0.134766 0.120236,-0.406927 -0.165883,0.254865 0.03516,-0.08203 0.201038,-0.336896 -0.234068,0.254459 0.01172,-0.01563 0.245786,-0.270083 -0.311063,0.253664 -0.03711,0.0332 0.273954,-0.220461 -0.389365,0.250024 -0.0918,0.06445 0.297569,-0.18557 -0.465385,0.240143 -0.144531,0.08008 0.320855,-0.160064 -0.53782,0.225847 -0.193359,0.08594 0.344461,-0.139909 -0.606145,0.210512 -0.238281,0.08789 0.367863,-0.122622 -0.663731,0.188799 -0.273438,0.08203 0.390293,-0.106768 -0.719623,0.167719 -0.308594,0.07617 0.822059,-0.183094 -1.589526,0.247926 -0.699218,0.125 0.890307,-0.122926 -1.707132,0.140033 -0.773438,0.07813 0.933694,-0.06191 -1.761044,0.02734 -0.8125,0.02734 0.948544,0 -1.746194,-0.08925 -0.8125,-0.02734 0.933694,0.06191 -1.663745,-0.201051 -0.773438,-0.07813 0.890308,0.122926 -1.521277,-0.308094 -0.699218,-0.125 0.411029,0.09155 -0.698887,-0.18294 -0.308594,-0.07617 0.390293,0.106768 -0.641301,-0.204653 -0.273438,-0.08203 0.367864,0.122621 -0.582742,-0.2278 -0.238281,-0.08789 0.344461,0.139909 -0.514214,-0.246002 -0.193359,-0.08594 0.320854,0.160065 -0.4421,-0.265648 -0.144531,-0.08008 0.297568,0.185571 -0.365751,-0.284914 -0.0918,-0.06445 0.273953,0.220461 -0.282896,-0.303286 -0.03711,-0.0332 z"
         style="fill:none;fill-opacity:1;stroke:url(#linearGradient1178);stroke-width:1px;stroke-linecap:round;stroke-linejoin:round;stroke-opacity:0.74632353" />
    </g>
    <g
       id="g1204">
      <path
         id="path998"
         d="M 27.5,32.5 V 41 c 0,0.828427 2.014719,1.5 4.5,1.5 2.485281,0 4.5,-0.671573 4.5,-1.5 v -8.5 h -0.263672 c -0.634901,0.598592 -2.331622,0.999109 -4.236328,1 -1.904706,-8.91e-4 -3.601427,-0.401408 -4.236328,-1 z"
         style="fill:url(#linearGradient1028);fill-opacity:1;stroke:#7239b3;stroke-width:1px;stroke-linecap:round;stroke-linejoin:round;stroke-opacity:0.74632353"
         inkscape:connector-curvature="0"
         sodipodi:nodetypes="csssccccc" />
      <path
         style="fill:url(#linearGradient1077);fill-opacity:1;stroke:#7239b3;stroke-linecap:round;stroke-linejoin:round;stroke-opacity:0.74509804"
         d="m 36.5,32 c 0,0.828427 -2.014719,1.5 -4.5,1.5 -2.485281,0 -4.5,-0.671573 -4.5,-1.5 0,-0.828427 2.014719,-1.5 4.5,-1.5 2.485281,0 4.5,0.671573 4.5,1.5 z"
         id="ellipse1025"
         inkscape:connector-curvature="0"
         sodipodi:nodetypes="sssss" />
      <path
         sodipodi:nodetypes="cccscccccccccsccccccccccsccc"
         inkscape:connector-curvature="0"
         id="path1188"
         d="m 28.445312,33.775391 0.04883,7.037109 c 0.09382,0.0709 0.310462,0.195284 0.638671,0.304688 0.684774,0.228257 1.775917,0.388671 2.867188,0.388671 1.091271,0 2.182414,-0.160414 2.867188,-0.388671 0.328209,-0.109404 0.544855,-0.233789 0.638671,-0.304688 l 0.04883,-7.037109 c 0.278979,-0.263025 -0.345324,0.263349 -0.04492,0.03711 0.300401,-0.22624 -0.398132,0.251029 -0.07813,0.05273 0.320006,-0.198294 -0.448874,0.238909 -0.109375,0.0625 0.339498,-0.176408 -0.499866,0.224837 -0.140625,0.06641 0.718482,-0.316861 -1.158385,0.394282 -0.361329,0.136718 0.797057,-0.257563 -1.325035,0.330357 -0.455078,0.125 0.869958,-0.205356 -1.459056,0.260304 -0.527343,0.105469 0.931712,-0.154835 -1.560424,0.18216 -0.582032,0.07813 0.978392,-0.104034 -1.626573,0.101334 -0.61914,0.04883 1.007433,-0.05251 -1.654109,0.01805 -0.636719,0.01758 1.01739,4.76e-4 -1.644152,-0.07008 -0.636719,-0.01758 1.007433,0.05251 -1.597532,-0.152862 -0.61914,-0.04883 0.978392,0.104035 -1.513744,-0.23296 -0.582032,-0.07813 0.931713,0.154835 -1.397301,-0.310825 -0.527343,-0.105469 0.869957,0.205357 -1.252135,-0.382563 -0.455078,-0.125 0.797056,0.257564 -1.079811,-0.453579 -0.361329,-0.136718 0.359241,0.15843 -0.480123,-0.242815 -0.140625,-0.06641 0.339499,0.176409 -0.429381,-0.260794 -0.109375,-0.0625 0.320007,0.198295 -0.378526,-0.278974 -0.07813,-0.05273 0.300402,0.22624 -0.323901,-0.300134 -0.04492,-0.03711 z"
         style="fill:none;fill-opacity:1;stroke:url(#linearGradient1196);stroke-width:1px;stroke-linecap:round;stroke-linejoin:round;stroke-opacity:0.74632353" />
    </g>
  </g>
</svg>
