<?xml version="1.0" encoding="UTF-8" standalone="no"?>
<svg
   xmlns:dc="http://purl.org/dc/elements/1.1/"
   xmlns:cc="http://creativecommons.org/ns#"
   xmlns:rdf="http://www.w3.org/1999/02/22-rdf-syntax-ns#"
   xmlns:svg="http://www.w3.org/2000/svg"
   xmlns="http://www.w3.org/2000/svg"
   xmlns:xlink="http://www.w3.org/1999/xlink"
   xmlns:sodipodi="http://sodipodi.sourceforge.net/DTD/sodipodi-0.dtd"
   xmlns:inkscape="http://www.inkscape.org/namespaces/inkscape"
   height="52"
   viewBox="0 0 60 52"
   width="60"
   version="1.1"
   id="svg71"
   sodipodi:docname="cylinderhoriprocent_52x60.svg"
   inkscape:version="0.92.3 (unknown)"
   inkscape:export-filename="/home/rizmut/Dokumen/Rizmut/Github/libreoffice-style-elementary/images_elementary/chart2/res/cylinderhoriprocent_52x60.png"
   inkscape:export-xdpi="96"
   inkscape:export-ydpi="96">
  <metadata
     id="metadata77">
    <rdf:RDF>
      <cc:Work
         rdf:about="">
        <dc:format>image/svg+xml</dc:format>
        <dc:type
           rdf:resource="http://purl.org/dc/dcmitype/StillImage" />
        <dc:title></dc:title>
      </cc:Work>
    </rdf:RDF>
  </metadata>
  <defs
     id="defs75">
    <linearGradient
       id="linearGradient1139">
      <stop
         id="stop1131"
         stop-color="#fff"
         offset="0" />
      <stop
         id="stop1133"
         stop-opacity=".23529"
         stop-color="#fff"
         offset="0.58055538" />
      <stop
         id="stop1135"
         stop-opacity=".15686"
         stop-color="#fff"
         offset="1" />
    </linearGradient>
    <linearGradient
       inkscape:collect="always"
       id="linearGradient1205">
      <stop
         style="stop-color:#f6f6f6;stop-opacity:1;"
         offset="0"
         id="stop1201" />
      <stop
         id="stop2419"
         offset="0.35294119"
         style="stop-color:#fcfcfc;stop-opacity:1" />
      <stop
         style="stop-color:#ffffff;stop-opacity:0.91544116"
         offset="1"
         id="stop1203" />
    </linearGradient>
    <linearGradient
       id="h"
       gradientTransform="matrix(1.3832,0,0,1.4144,-11.892,21.511)"
       gradientUnits="userSpaceOnUse"
       x1="13.697"
       x2="13.3"
       y1="12.091"
       y2="29.436001">
      <stop
         offset="0"
         stop-color="#aff05f"
         id="stop31" />
      <stop
         offset="1"
         stop-color="#68b723"
         id="stop33" />
    </linearGradient>
    <linearGradient
       id="i"
       gradientUnits="userSpaceOnUse"
       x1="12.00126"
       x2="12.00126"
       xlink:href="#a-2"
       y1="8.1875687"
       y2="19.999826" />
    <linearGradient
       id="a-2">
      <stop
         offset="0"
         stop-color="#fff"
         id="stop2-9" />
      <stop
         offset="0.58055538"
         stop-color="#fff"
         stop-opacity=".23529"
         id="stop4-1" />
      <stop
         offset="1"
         stop-color="#fff"
         stop-opacity=".15686"
         id="stop6" />
      <stop
         offset="1"
         stop-color="#fff"
         stop-opacity=".39216"
         id="stop8" />
    </linearGradient>
    <linearGradient
       id="f-2"
       gradientUnits="userSpaceOnUse"
       x1="13.608"
       x2="13.608"
       y1="2.5455"
       y2="21.532">
      <stop
         offset="0"
         stop-color="#f7b19e"
         id="stop25" />
      <stop
         offset="1"
         stop-color="#e2866d"
         id="stop27" />
    </linearGradient>
    <linearGradient
       id="g-7"
       gradientUnits="userSpaceOnUse"
       x1="11.876287"
       x2="12.00126"
       xlink:href="#a-2"
       y1="7.3122978"
       y2="19.999826" />
    <linearGradient
       id="j"
       gradientUnits="userSpaceOnUse"
       x1="15.608"
       x2="15.608"
       y1="2.5455"
       y2="21.532">
      <stop
         offset="0"
         stop-color="#cd9ef7"
         id="stop37" />
      <stop
         offset="1"
         stop-color="#a56de2"
         id="stop39" />
    </linearGradient>
    <linearGradient
       id="k"
       gradientUnits="userSpaceOnUse"
       x1="14.00124"
       x2="14.00124"
       xlink:href="#a-2"
       y1="4.0000048"
       y2="19.999826" />
    <linearGradient
       inkscape:collect="always"
       xlink:href="#linearGradient1205"
       id="linearGradient1207"
       x1="42.5"
       y1="49.5"
       x2="42.5"
       y2="7"
       gradientUnits="userSpaceOnUse"
       gradientTransform="translate(-5.0011356e-4,-4.9999348e-4)" />
    <linearGradient
       id="a-3"
       gradientUnits="userSpaceOnUse"
       x1="9.9784946"
       x2="9.9784946"
       y1="13.912886"
       y2="-5.8720589"
       gradientTransform="translate(-85.554475,-30.546764)">
      <stop
         offset="0"
         id="stop1717" />
      <stop
         offset="1"
         stop-color="#333"
         id="stop1719" />
    </linearGradient>
    <linearGradient
       id="b-6"
       gradientUnits="userSpaceOnUse"
       x1="14"
       x2="6"
       y1="8"
       y2="16">
      <stop
         offset="0"
         stop-color="#fff"
         id="stop1722" />
      <stop
         offset=".125"
         stop-color="#fff"
         stop-opacity="0"
         id="stop1724" />
      <stop
         offset="1"
         stop-color="#fff"
         stop-opacity="0"
         id="stop1726" />
    </linearGradient>
    <clipPath
       id="c-0">
      <path
         inkscape:connector-curvature="0"
         d="M 8,2.6855469 V 16.685547 l 3.132812,-3.820313 2.066407,4.986328 a 1.0001,1.0001 0 1 0 1.847656,-0.765624 L 12.935547,11.990234 17.314453,12 Z"
         id="path1729" />
    </clipPath>
    <linearGradient
       inkscape:collect="always"
       xlink:href="#j"
       id="linearGradient969"
       gradientUnits="userSpaceOnUse"
       gradientTransform="translate(39.5,-1)"
       x1="-11.535156"
       y1="38.464844"
       x2="-24.035156"
       y2="38.464844" />
    <linearGradient
       inkscape:collect="always"
       xlink:href="#f-2"
       id="linearGradient977"
       gradientUnits="userSpaceOnUse"
       gradientTransform="translate(4.96484,-1.464844)"
       x1="25.500004"
       y1="26.429688"
       x2="5.5000038"
       y2="26.429688" />
    <linearGradient
       inkscape:collect="always"
       xlink:href="#h"
       id="linearGradient985"
       gradientUnits="userSpaceOnUse"
       gradientTransform="translate(3.964844,-17.152344)"
       x1="24"
       y1="34.617188"
       x2="6.5"
       y2="34.617188" />
    <linearGradient
       inkscape:collect="always"
       xlink:href="#j"
       id="linearGradient1047"
       x1="13"
       y1="29.25"
       x2="28"
       y2="29.25"
       gradientUnits="userSpaceOnUse" />
    <linearGradient
       inkscape:collect="always"
       xlink:href="#a-2"
       id="linearGradient1067"
       x1="27.964844"
       y1="36.36396"
       x2="15.464844"
       y2="35.909008"
       gradientUnits="userSpaceOnUse" />
    <linearGradient
       inkscape:collect="always"
       xlink:href="#f-2"
       id="linearGradient1080"
       x1="13"
       y1="18.179684"
       x2="28"
       y2="18.179684"
       gradientUnits="userSpaceOnUse" />
    <linearGradient
       inkscape:collect="always"
       xlink:href="#a-2"
       id="linearGradient1098"
       x1="29.01301"
       y1="24.964844"
       x2="15.464844"
       y2="24.964844"
       gradientUnits="userSpaceOnUse" />
    <linearGradient
       inkscape:collect="always"
       xlink:href="#h"
       id="linearGradient1119"
       x1="26.464844"
       y1="8.9648428"
       x2="12.964844"
       y2="8.9648428"
       gradientUnits="userSpaceOnUse" />
    <linearGradient
       inkscape:collect="always"
       xlink:href="#linearGradient1139"
       id="linearGradient1129"
       x1="27.964844"
       y1="17.464844"
       x2="15.464844"
       y2="17.464844"
       gradientUnits="userSpaceOnUse" />
    <linearGradient
       inkscape:collect="always"
       xlink:href="#a-2"
       id="linearGradient1153"
       x1="28.896893"
       y1="12.464843"
       x2="17.964844"
       y2="12.464843"
       gradientUnits="userSpaceOnUse" />
    <linearGradient
       inkscape:collect="always"
       xlink:href="#j"
       id="linearGradient1209"
       gradientUnits="userSpaceOnUse"
       gradientTransform="translate(39.5,-1)"
       x1="-7.0351558"
       y1="38.464844"
       x2="-29.535156"
       y2="38.464844" />
    <linearGradient
       inkscape:collect="always"
       xlink:href="#j"
       id="linearGradient1211"
       gradientUnits="userSpaceOnUse"
       x1="13"
       y1="29.25"
       x2="28"
       y2="29.25" />
    <linearGradient
       inkscape:collect="always"
       xlink:href="#a-2"
       id="linearGradient1213"
       gradientUnits="userSpaceOnUse"
       x1="27.464844"
       y1="38.464844"
       x2="15.464844"
       y2="37.464844" />
    <linearGradient
       inkscape:collect="always"
       xlink:href="#f-2"
       id="linearGradient1215"
       gradientUnits="userSpaceOnUse"
       gradientTransform="translate(4.96484,-1.464844)"
       x1="25.000004"
       y1="26.429688"
       x2="7.5000038"
       y2="26.429688" />
    <linearGradient
       inkscape:collect="always"
       xlink:href="#f-2"
       id="linearGradient1217"
       gradientUnits="userSpaceOnUse"
       x1="13"
       y1="18.179684"
       x2="28"
       y2="18.179684" />
    <linearGradient
       inkscape:collect="always"
       xlink:href="#a-2"
       id="linearGradient1219"
       gradientUnits="userSpaceOnUse"
       x1="28.394291"
       y1="26.305902"
       x2="14.964844"
       y2="24.964844" />
    <linearGradient
       inkscape:collect="always"
       xlink:href="#h"
       id="linearGradient1221"
       gradientUnits="userSpaceOnUse"
       x1="27.964844"
       y1="9.4648428"
       x2="14.464844"
       y2="8.4648428" />
    <linearGradient
       inkscape:collect="always"
       xlink:href="#h"
       id="linearGradient1223"
       gradientUnits="userSpaceOnUse"
       gradientTransform="translate(3.964844,-17.152344)"
       x1="26"
       y1="32.117188"
       x2="8.5"
       y2="32.117188" />
    <linearGradient
       inkscape:collect="always"
       xlink:href="#linearGradient1139"
       id="linearGradient1225"
       gradientUnits="userSpaceOnUse"
       x1="29.964844"
       y1="16.063263"
       x2="14.964844"
       y2="14.964843" />
    <linearGradient
       inkscape:collect="always"
       xlink:href="#a-2"
       id="linearGradient1227"
       gradientUnits="userSpaceOnUse"
       x1="27.5"
       y1="11.679688"
       x2="17.464844"
       y2="12.464843" />
  </defs>
  <sodipodi:namedview
     pagecolor="#ffffff"
     bordercolor="#666666"
     borderopacity="1"
     objecttolerance="10"
     gridtolerance="10"
     guidetolerance="10"
     inkscape:pageopacity="0"
     inkscape:pageshadow="2"
     inkscape:window-width="1366"
     inkscape:window-height="706"
     id="namedview73"
     showgrid="true"
     inkscape:zoom="4"
     inkscape:cx="35.923964"
     inkscape:cy="21.440531"
     inkscape:window-x="0"
     inkscape:window-y="0"
     inkscape:window-maximized="1"
     inkscape:current-layer="svg71"
     inkscape:snap-smooth-nodes="true">
    <inkscape:grid
       type="xygrid"
       id="grid895"
       spacingx="0.5"
       spacingy="0.5" />
  </sodipodi:namedview>
  <linearGradient
     id="a"
     gradientUnits="userSpaceOnUse"
     x1="29.525455894189"
     x2="29.525455894189"
     y1="35.604006871864"
     y2="16.823929761292"
     gradientTransform="translate(-60)">
    <stop
       offset="0"
       stop-color="#fbaeff"
       id="stop2" />
    <stop
       offset="1"
       stop-color="#ffd7d7"
       id="stop4" />
  </linearGradient>
  <linearGradient
     id="b"
     gradientUnits="userSpaceOnUse"
     x1="30.27586192"
     x2="30.27586192"
     y1="43.34487536"
     y2="30.9310824"
     gradientTransform="translate(-60)">
    <stop
       offset="0"
       stop-color="#99c2fc"
       id="stop7" />
    <stop
       offset="1"
       stop-color="#dceafe"
       id="stop9" />
  </linearGradient>
  <linearGradient
     id="c"
     gradientUnits="userSpaceOnUse"
     x1="36.4827584"
     x2="46.56896518"
     xlink:href="#d"
     y1="23.1724618"
     y2="40.64228401192"
     gradientTransform="translate(-60)" />
  <linearGradient
     id="d">
    <stop
       offset="0"
       stop-color="#fff"
       id="stop13" />
    <stop
       offset="1"
       stop-color="#fff"
       stop-opacity="0"
       id="stop15" />
  </linearGradient>
  <linearGradient
     id="e"
     gradientUnits="userSpaceOnUse"
     x1="39.859630516151"
     x2="50.44827548"
     xlink:href="#d"
     y1="3.311739960536"
     y2="29.37935828"
     gradientTransform="translate(-60)" />
  <linearGradient
     id="f"
     gradientUnits="userSpaceOnUse"
     x1="16.31034484"
     x2="24.864886637699"
     y1="34.21645904307"
     y2="2.290471955096"
     gradientTransform="translate(-60)">
    <stop
       offset="0"
       stop-color="#b900c4"
       id="stop19" />
    <stop
       offset="1"
       stop-color="#ae4300"
       id="stop21" />
  </linearGradient>
  <linearGradient
     id="g"
     gradientUnits="userSpaceOnUse"
     x1="13.012931085"
     x2="58.283811165318"
     y1="24.72418592"
     y2="12.593890241207"
     gradientTransform="translate(-60)">
    <stop
       offset="0"
       stop-color="#0968ef"
       id="stop24" />
    <stop
       offset="1"
       stop-color="#aecffc"
       id="stop26" />
  </linearGradient>
  <rect
     y="3"
     x="3"
     height="49"
     width="57"
     id="rect2411"
     style="opacity:0.02;vector-effect:none;fill:#010101;fill-opacity:1;stroke:none;stroke-width:0.99900001;stroke-linecap:round;stroke-linejoin:round;stroke-miterlimit:4;stroke-dasharray:none;stroke-dashoffset:0;stroke-opacity:1" />
  <rect
     style="opacity:0.05;vector-effect:none;fill:#010101;fill-opacity:1;stroke:none;stroke-width:0.98952127;stroke-linecap:round;stroke-linejoin:round;stroke-miterlimit:4;stroke-dasharray:none;stroke-dashoffset:0;stroke-opacity:1"
     id="rect2417"
     width="56.5"
     height="48.5"
     x="3"
     y="3" />
  <rect
     style="opacity:0.2;vector-effect:none;fill:#010101;fill-opacity:1;stroke:none;stroke-width:0.98004192;stroke-linecap:round;stroke-linejoin:round;stroke-miterlimit:4;stroke-dasharray:none;stroke-dashoffset:0;stroke-opacity:1"
     id="rect2415"
     width="56"
     height="48"
     x="3"
     y="3" />
  <rect
     style="opacity:1;vector-effect:none;fill:url(#linearGradient1207);fill-opacity:1;stroke:#939393;stroke-width:0.99900001;stroke-linecap:round;stroke-linejoin:round;stroke-miterlimit:4;stroke-dasharray:none;stroke-dashoffset:0;stroke-opacity:1"
     id="rect1199"
     width="57"
     height="49"
     x="0.49950001"
     y="0.49950001" />
  <path
     inkscape:connector-curvature="0"
     id="path903"
     d="m 45,43.5 5.5,-6 v -31 h -38"
     style="fill:none;stroke:#939393;stroke-width:1px;stroke-linecap:round;stroke-linejoin:round;stroke-opacity:1"
     sodipodi:nodetypes="cccc" />
  <path
     style="fill:none;stroke:#939393;stroke-width:1px;stroke-linecap:round;stroke-linejoin:round;stroke-opacity:1"
     d="m 12.5,6.5 -6,6 V 44 l 6,-6.5"
     id="path897"
     inkscape:connector-curvature="0"
     sodipodi:nodetypes="cccc" />
  <path
     style="fill:none;stroke:#939393;stroke-width:1px;stroke-linecap:butt;stroke-linejoin:miter;stroke-opacity:1"
     d="M 12.5,7 V 37"
     id="path899"
     inkscape:connector-curvature="0" />
  <path
     style="fill:none;stroke:#939393;stroke-width:1px;stroke-linecap:round;stroke-linejoin:round;stroke-opacity:1"
     d="M 6.5,43.5 H 45"
     id="path901"
     inkscape:connector-curvature="0" />
  <rect
     y="1.5"
     x="1.5"
     height="47"
     width="55"
     id="rect1209"
     style="opacity:1;vector-effect:none;fill:none;fill-opacity:1;stroke:#ffffff;stroke-width:0.99900001;stroke-linecap:round;stroke-linejoin:round;stroke-miterlimit:4;stroke-dasharray:none;stroke-dashoffset:0;stroke-opacity:1" />
  <path
     inkscape:connector-curvature="0"
     id="path908"
     d="m 12.5,37.5 h 38"
     style="fill:none;stroke:#939393;stroke-width:1px;stroke-linecap:round;stroke-linejoin:round;stroke-opacity:1"
     sodipodi:nodetypes="cc" />
  <g
     id="g1291"
     transform="matrix(0,-1,-1,0,49.964843,54.964844)">
    <g
       id="g1177">
      <g
         id="g976">
        <path
           style="fill:url(#linearGradient969);fill-opacity:1;stroke:#7239b3;stroke-width:1px;stroke-linecap:round;stroke-linejoin:round;stroke-opacity:0.74632353"
           d="M 27.447266,29 A 7,2.25 0 0 1 27.5,29.25 V 29 Z M 27.5,29.25 a 7,2.25 0 0 1 -7,2.25 7,2.25 0 0 1 -6.966797,-2.048828 L 13.5,39 h 0.04687 c -0.03005,0.08299 -0.0457,0.166452 -0.04687,0.25 0,1.242641 3.134007,2.25 7,2.25 3.865993,0 7,-1.007359 7,-2.25 C 27.4969,39.16642 27.47928,39.082954 27.44727,39 H 27.5 Z"
           id="path936"
           inkscape:connector-curvature="0" />
        <ellipse
           style="fill:url(#linearGradient1047);fill-opacity:1;stroke:#7239b3;stroke-linecap:round;stroke-linejoin:round;stroke-opacity:0.74509804"
           id="path963"
           cx="20.5"
           cy="29.25"
           rx="7"
           ry="2.25" />
        <path
           style="fill:none;fill-opacity:1;stroke:url(#linearGradient1067);stroke-width:1px;stroke-linecap:round;stroke-linejoin:round;stroke-opacity:0.74632353"
           d="m 26.429688,30.958984 c 0.0018,0.01759 0.01835,0.103992 0.02734,0.15625 -0.01838,-0.06106 -0.02505,-0.08299 -0.002,0.02344 -0.02382,-0.0706 -0.03565,-0.09719 -0.0078,0.0098 -0.02516,-0.06583 -0.0377,-0.09678 -0.0078,0.002 -0.03171,-0.07354 -0.02843,-0.05821 0.02344,0.08789 0.05458,-0.081 -0.421225,0.339854 -0.101563,0.0918 0.368137,-0.285673 -0.609668,0.380811 -0.197266,0.132813 0.412403,-0.247999 -0.729277,0.363814 -0.273437,0.144531 0.45584,-0.219283 -0.838455,0.343724 -0.339844,0.148437 0.498611,-0.195286 -0.944129,0.316096 -0.404297,0.142579 0.539833,-0.173518 -1.037459,0.287361 -0.458984,0.134765 0.578475,-0.152596 -1.119481,0.250929 -0.505859,0.119141 0.613621,-0.131789 -1.193341,0.218154 -0.548829,0.107422 0.644513,-0.110732 -1.25453,0.177167 -0.583984,0.08789 0.670546,-0.08928 -1.304534,0.137713 -0.613281,0.07031 0.691253,-0.0674 -1.339097,0.09594 -0.632813,0.05078 1.412569,-0.09031 -2.739637,0.04102 -1.302734,0.04102 1.464427,3.47e-4 -2.670723,-0.124248 -1.228516,-0.03711 0.721104,0.04357 -1.307035,-0.109899 -0.599609,-0.04492 0.707426,0.06498 -1.268644,-0.148565 -0.580078,-0.0625 0.688566,0.08607 -1.223398,-0.186856 -0.558594,-0.08008 0.664804,0.106779 -1.165809,-0.220864 -0.529297,-0.09375 0.636512,0.127115 -1.096355,-0.256536 -0.492187,-0.109375 0.604168,0.147161 -1.021493,-0.288242 -0.453125,-0.121093 0.568368,0.167148 -0.936089,-0.318404 -0.40625,-0.13086 0.529838,0.187545 -0.842942,-0.347891 -0.353516,-0.138672 0.489426,0.209219 -0.742924,-0.37239 -0.294922,-0.138672 0.448003,0.233719 -0.638544,-0.398467 -0.232422,-0.134765 0.406123,0.263701 -0.528996,-0.42253 -0.166015,-0.119141 0.36298,0.30339 -0.40761,-0.449906 -0.09375,-0.0918 0.31386,0.35811 -0.277251,-0.470518 -0.03125,-0.04102 0.246001,0.429502 -0.134247,-0.482136 0.0059,0.01953 0.02472,0.08771 0.03721,0.178407 0.03711,0.269531 l -0.03125,7.25586 c 0.05353,0.177308 0.05623,0.366078 0.0078,0.544844 -0.0055,-0.08284 -0.05392,-0.07175 0.148438,0.08203 0.215941,0.164102 0.641507,0.379399 1.205078,0.560547 1.127141,0.362295 2.799441,0.611328 4.646484,0.611328 1.847043,0 3.519343,-0.249033 4.646484,-0.611328 0.563571,-0.181148 0.989137,-0.396445 1.205078,-0.560547 0.191948,-0.14587 0.148209,-0.145178 0.140626,-0.07813 -0.05144,-0.189547 -0.04532,-0.390113 0.01758,-0.576172 V 31.40625 c 0.03795,0.195902 0.05016,0.241905 0.03516,0.128906 0.02837,0.114633 0.02592,0.08861 0.01172,0.0078 0.03267,0.112113 0.02784,0.08585 0.0098,0.0039 0.0368,0.109811 0.0309,0.08394 0.0098,0.0039 0.06552,0.172806 0.09961,0.250494 -0.05273,-0.195312 -0.0014,-0.0036 -5.8e-4,-3.5e-4 -0.002,-0.0039 -0.0013,-0.0037 -7.23e-4,-3.13e-4 -0.002,-0.0039 -5.2e-4,-0.0015 5.17e-4,-4.44e-4 0,-0.002 -7.83e-4,-0.002 -0.0012,5.1e-5 -0.002,-0.002 -5.51e-4,-0.0014 5.47e-4,-5.39e-4 0,-0.002 -9.31e-4,-0.0031 9.18e-4,-8.32e-4 0,-0.0039 -6.04e-4,-0.002 -0.0014,5e-5 -0.002,-0.002 -4.95e-4,-0.0014 4.92e-4,-5.21e-4 0,-0.002 -7.99e-4,-0.0048 8.2e-4,-9.51e-4 0,-0.0059 -0.0017,-0.0067 -3.09e-4,-0.0014 -0.002,-0.0078 -0.0032,-0.01521 -9.07e-4,-0.0035 -0.0039,-0.01758 V 31.25 31.185547 c -0.05375,0.05501 -0.02357,0.0087 -0.02148,0.02734 -0.02857,-0.128907 -0.06153,-0.282624 -0.05859,-0.253907 z"
           id="path1059"
           inkscape:connector-curvature="0"
           sodipodi:nodetypes="cccccccssccscscccccccccsccssccccccccssssccccccccccccccccccccccccc" />
      </g>
      <g
         id="g1107">
        <g
           transform="translate(-21.53516,44.035156)"
           id="g954">
          <path
             transform="translate(21.53516,-44.035156)"
             id="path946"
             d="m 13.5,18 v 0.25 A 7,2.25 0 0 1 13.546875,18 Z m 0,0.25 V 29 h 0.04687 c -0.03005,0.08299 -0.0457,0.166452 -0.04687,0.25 0,1.242641 3.134007,2.25 7,2.25 3.865993,0 7,-1.007359 7,-2.25 C 27.4969,29.16642 27.47928,29.082954 27.44727,29 H 27.5 V 18.25 a 7,2.25 0 0 1 -7,2.25 7,2.25 0 0 1 -7,-2.25 z m 14,0 V 18 H 27.44727 A 7,2.25 0 0 1 27.5,18.25 Z"
             style="fill:url(#linearGradient977);fill-opacity:1;stroke:#b35039;stroke-width:1px;stroke-linecap:round;stroke-linejoin:round;stroke-opacity:0.74509804"
             inkscape:connector-curvature="0" />
        </g>
        <ellipse
           ry="2.25"
           rx="7"
           cy="18.179684"
           cx="20.5"
           id="ellipse1072"
           style="fill:url(#linearGradient1080);fill-opacity:1;stroke:#b35039;stroke-linecap:round;stroke-linejoin:round;stroke-opacity:0.74509804" />
        <path
           sodipodi:nodetypes="ccccsssscccccccssccssccccsccccssccscc"
           inkscape:connector-curvature="0"
           id="path1082"
           d="m 14.488272,20.183598 c 0.01173,1.111475 -2e-4,3.020572 -2e-4,8.517622 0.05682,0.179952 0.06098,0.372405 0.01198,0.554643 -0.006,-0.07963 -0.05212,-0.07038 0.148438,0.08203 0.216035,0.164174 0.641459,0.381337 1.205078,0.5625 1.127236,0.362326 2.799382,0.611328 4.646484,0.611328 1.847102,0 3.519248,-0.249002 4.646484,-0.611328 0.563619,-0.181163 0.989043,-0.398326 1.205078,-0.5625 0.192257,-0.146104 0.150102,-0.145274 0.142579,-0.07813 -0.05268,-0.191379 -0.04655,-0.394181 0.01758,-0.582032 l -3e-4,-8.42812 v -0.06641 c -0.04462,0.04147 -0.0067,-0.0104 -0.02148,0.02734 -0.108367,-0.354737 -0.0026,0.0026 -0.02733,0.02736 0.05454,-0.08096 -0.421163,0.339806 -0.101563,0.0918 0.368066,-0.285618 -0.609608,0.380775 -0.197266,0.132813 0.412343,-0.247963 -0.729227,0.365743 -0.273437,0.146484 0.45579,-0.219259 -0.838412,0.341755 -0.339844,0.146484 0.498569,-0.19527 -0.944092,0.318037 -0.404297,0.144532 0.539796,-0.173506 -1.035474,0.285399 -0.457031,0.132812 0.578443,-0.152587 -1.121405,0.252876 -0.507812,0.121094 0.613592,-0.131782 -1.193315,0.216196 -0.548829,0.105469 0.644487,-0.110728 -1.254506,0.177164 -0.583984,0.08789 0.670522,-0.08927 -1.304511,0.137711 -0.613281,0.07031 0.69123,-0.0674 -1.339075,0.09789 -0.632813,0.05273 1.412525,-0.09031 -2.739594,0.04102 -1.302734,0.04102 1.43686,0 -2.715259,-0.131327 -1.302734,-0.04102 0.706262,0.04516 -1.324043,-0.120132 -0.632813,-0.05273 0.69123,0.0674 -1.283803,-0.159586 -0.613281,-0.07031 0.670522,0.08927 -1.228471,-0.198618 -0.583984,-0.08789 0.644486,0.110727 -1.162421,-0.237251 -0.548829,-0.105469 0.613593,0.131782 -1.086255,-0.273681 -0.507812,-0.121094 0.578443,0.152587 -0.996827,-0.306318 -0.457031,-0.132812 0.539795,0.173505 -0.902866,-0.339802 -0.404297,-0.144532 0.498568,0.195271 -0.795634,-0.365743 -0.339844,-0.146484 0.45579,0.219259 -0.68578,-0.394447 -0.273437,-0.146484 z"
           style="fill:none;fill-opacity:1;stroke:url(#linearGradient1098);stroke-width:1px;stroke-linecap:round;stroke-linejoin:round;stroke-opacity:0.74509804" />
      </g>
      <g
         id="g1161">
        <ellipse
           style="fill:url(#linearGradient1119);fill-opacity:1;stroke:#7bb339;stroke-linecap:round;stroke-linejoin:round;stroke-opacity:0.74509804"
           id="ellipse980"
           cx="20.5"
           cy="11.679684"
           rx="7"
           ry="2.25" />
        <path
           id="path957"
           d="m 13.5,11.5 v 0.173828 A 7,2.25 0 0 1 13.527344,11.5 Z m 13.974609,0 A 7,2.25 0 0 1 27.5,11.679688 V 11.5 Z M 27.5,11.679688 a 7,2.25 0 0 1 -7,2.25 7,2.25 0 0 1 -6.998047,-2.240235 l 0.0332,6.275391 H 13.5625 A 7,2.25 0 0 0 13.5,18.25 a 7,2.25 0 0 0 7,2.25 7,2.25 0 0 0 7,-2.25 A 7,2.25 0 0 0 27.447266,18 H 27.5 Z"
           style="fill:url(#linearGradient985);fill-opacity:1;stroke:#7bb339;stroke-width:1px;stroke-linecap:round;stroke-linejoin:round;stroke-opacity:0.74509804"
           inkscape:connector-curvature="0" />
        <path
           id="path1121"
           d="m 26.5,13.861328 c -0.25586,0.112883 -0.452796,0.267682 -0.744141,0.361328 -1.407826,0.452516 -3.236006,0.707031 -5.255859,0.707032 -2.013293,-1.76e-4 -3.836163,-0.253025 -5.242188,-0.703126 -0.290744,-0.09307 -0.488599,-0.245281 -0.74414,-0.357421 l 0.01563,3.095703 H 13.5625 a 1.0001,1.0001 0 0 1 0.955078,1.292968 c -0.008,-0.07084 -0.05408,-0.07273 0.136719,0.07227 0.214488,0.162999 0.638334,0.377682 1.201172,0.558594 C 16.981144,19.250496 18.65386,19.5 20.5,19.5 c 1.84614,0 3.518856,-0.249504 4.644531,-0.611328 0.562838,-0.180912 0.986684,-0.395595 1.201172,-0.558594 0.187549,-0.142526 0.143204,-0.13634 0.134766,-0.07031 A 1.0001,1.0001 0 0 1 26.5,17.679688 Z"
           style="fill:none;fill-opacity:1;stroke:url(#linearGradient1129);stroke-width:1px;stroke-linecap:round;stroke-linejoin:round;stroke-opacity:0.74509804"
           inkscape:connector-curvature="0" />
        <path
           d="m 20.5,10.5 c -1.742542,0 -3.482617,0.240855 -4.623047,0.607422 -0.570215,0.183283 -0.988459,0.402185 -1.1875,0.55664 -0.199041,0.154456 -0.11914,0.156918 -0.119141,0.01563 0,-0.141293 -0.0799,-0.138831 0.119141,0.01562 0.199041,0.154456 0.617285,0.373358 1.1875,0.556641 1.14043,0.366567 2.880505,0.607422 4.623047,0.607422 1.742542,0 3.482617,-0.240855 4.623047,-0.607422 0.570215,-0.183283 0.988459,-0.402185 1.1875,-0.556641 0.199041,-0.154455 0.11914,-0.156917 0.119141,-0.01562 -10e-7,0.141292 0.0799,0.13883 -0.119141,-0.01563 -0.199041,-0.154455 -0.617285,-0.373357 -1.1875,-0.55664 C 23.982617,10.740855 22.242542,10.5 20.5,10.5 Z"
           id="ellipse1145"
           style="fill:none;fill-opacity:1;stroke:url(#linearGradient1153);stroke-linecap:round;stroke-linejoin:round;stroke-opacity:0.74509804"
           inkscape:original="M 20.5 9.4296875 A 7 2.25 0 0 0 13.5 11.679688 A 7 2.25 0 0 0 20.5 13.929688 A 7 2.25 0 0 0 27.5 11.679688 A 7 2.25 0 0 0 20.5 9.4296875 z "
           inkscape:radius="-1.0701622"
           sodipodi:type="inkscape:offset" />
      </g>
    </g>
    <g
       id="g1259">
      <g
         id="g1185"
         transform="translate(18)">
        <path
           inkscape:connector-curvature="0"
           id="path1179"
           d="m 27.447266,32 c 0.03201,0.08295 0.04962,0.166417 0.05273,0.25 V 32 Z M 27.5,32.25 c 0,1.242641 -3.134007,2.25 -7,2.25 -3.621475,-8.59e-4 -6.643003,-0.889444 -6.966797,-2.048828 L 13.5,39 h 0.04687 c -0.03005,0.08299 -0.0457,0.166452 -0.04687,0.25 0,1.242641 3.134007,2.25 7,2.25 3.865993,0 7,-1.007359 7,-2.25 C 27.4969,39.16642 27.47928,39.082954 27.44727,39 H 27.5 Z"
           style="fill:url(#linearGradient1209);fill-opacity:1;stroke:#7239b3;stroke-width:1px;stroke-linecap:round;stroke-linejoin:round;stroke-opacity:0.74632353"
           sodipodi:nodetypes="ccccccccccscccc" />
        <path
           style="fill:url(#linearGradient1211);fill-opacity:1;stroke:#7239b3;stroke-linecap:round;stroke-linejoin:round;stroke-opacity:0.74509804"
           d="m 27.5,32.25 c 0,1.242641 -3.134007,2.25 -7,2.25 -3.865993,0 -7,-1.007359 -7,-2.25 0,-1.242641 3.134007,-2.25 7,-2.25 3.865993,0 7,1.007359 7,2.25 z"
           id="ellipse1181"
           inkscape:connector-curvature="0"
           sodipodi:nodetypes="sssss" />
        <path
           sodipodi:nodetypes="cccccccssccscscccccccccsccssccccccccssssccccccccccccccccccccccccc"
           inkscape:connector-curvature="0"
           id="path1183"
           d="m 26.429688,33.958984 c 0.0018,0.01759 0.01835,0.103992 0.02734,0.15625 -0.01838,-0.06106 -0.02505,-0.08299 -0.002,0.02344 -0.02382,-0.0706 -0.03565,-0.09719 -0.0078,0.0098 -0.02516,-0.06583 -0.0377,-0.09678 -0.0078,0.002 -0.03171,-0.07354 -0.02843,-0.05821 0.02344,0.08789 0.05458,-0.081 -0.421225,0.339854 -0.101563,0.0918 0.368137,-0.285673 -0.609668,0.380811 -0.197266,0.132813 0.412403,-0.247999 -0.729277,0.363814 -0.273437,0.144531 0.45584,-0.219283 -0.838455,0.343724 -0.339844,0.148437 0.498611,-0.195286 -0.944129,0.316096 -0.404297,0.142579 0.539833,-0.173518 -1.037459,0.287361 -0.458984,0.134765 0.578475,-0.152596 -1.119481,0.250929 -0.505859,0.119141 0.613621,-0.131789 -1.193341,0.218154 -0.548829,0.107422 0.644513,-0.110732 -1.25453,0.177167 -0.583984,0.08789 0.670546,-0.08928 -1.304534,0.137713 -0.613281,0.07031 0.691253,-0.0674 -1.339097,0.09594 -0.632813,0.05078 1.412569,-0.09031 -2.739637,0.04102 -1.302734,0.04102 1.464427,3.47e-4 -2.670723,-0.124248 -1.228516,-0.03711 0.721104,0.04357 -1.307035,-0.109899 -0.599609,-0.04492 0.707426,0.06498 -1.268644,-0.148565 -0.580078,-0.0625 0.688566,0.08607 -1.223398,-0.186856 -0.558594,-0.08008 0.664804,0.106779 -1.165809,-0.220864 -0.529297,-0.09375 0.636512,0.127115 -1.096355,-0.256536 -0.492187,-0.109375 0.604168,0.147161 -1.021493,-0.288242 -0.453125,-0.121093 0.568368,0.167148 -0.936089,-0.318404 -0.40625,-0.13086 0.529838,0.187545 -0.842942,-0.347891 -0.353516,-0.138672 0.489426,0.209219 -0.742924,-0.37239 -0.294922,-0.138672 0.448003,0.233719 -0.638544,-0.398467 -0.232422,-0.134765 0.406123,0.263701 -0.528996,-0.42253 -0.166015,-0.119141 0.36298,0.30339 -0.40761,-0.449906 -0.09375,-0.0918 0.31386,0.35811 -0.277251,-0.470518 -0.03125,-0.04102 0.246001,0.429502 -0.134247,-0.482136 0.0059,0.01953 0.02472,0.08771 0.03721,0.178407 0.03711,0.269531 l -0.03125,4.25586 c 0.05353,0.177308 0.05623,0.366078 0.0078,0.544844 -0.0055,-0.08284 -0.05392,-0.07175 0.148438,0.08203 0.215941,0.164102 0.641507,0.379399 1.205078,0.560547 1.127141,0.362295 2.799441,0.611328 4.646484,0.611328 1.847043,0 3.519343,-0.249033 4.646484,-0.611328 0.563571,-0.181148 0.989137,-0.396445 1.205078,-0.560547 0.191948,-0.14587 0.148209,-0.145178 0.140626,-0.07813 -0.05144,-0.189547 -0.04532,-0.390113 0.01758,-0.576172 V 34.40625 c 0.03795,0.195902 0.05016,0.241905 0.03516,0.128906 0.02837,0.114633 0.02592,0.08861 0.01172,0.0078 0.03267,0.112113 0.02784,0.08585 0.0098,0.0039 0.0368,0.109811 0.0309,0.08394 0.0098,0.0039 0.06552,0.172806 0.09961,0.250494 -0.05273,-0.195312 -0.0014,-0.0036 -5.8e-4,-3.5e-4 -0.002,-0.0039 -0.0013,-0.0037 -7.23e-4,-3.13e-4 -0.002,-0.0039 -5.2e-4,-0.0015 5.17e-4,-4.44e-4 0,-0.002 -7.83e-4,-0.002 -0.0012,5.1e-5 -0.002,-0.002 -5.51e-4,-0.0014 5.47e-4,-5.39e-4 0,-0.002 -9.31e-4,-0.0031 9.18e-4,-8.32e-4 0,-0.0039 -6.04e-4,-0.002 -0.0014,5e-5 -0.002,-0.002 -4.95e-4,-0.0014 4.92e-4,-5.21e-4 0,-0.002 -7.99e-4,-0.0048 8.2e-4,-9.51e-4 0,-0.0059 -0.0017,-0.0067 -3.09e-4,-0.0014 -0.002,-0.0078 -0.0032,-0.01521 -9.07e-4,-0.0035 -0.0039,-0.01758 V 34.25 34.185547 c -0.05375,0.05501 -0.02357,0.0087 -0.02148,0.02734 -0.02857,-0.128907 -0.06153,-0.282624 -0.05859,-0.253907 z"
           style="fill:none;fill-opacity:1;stroke:url(#linearGradient1213);stroke-width:1px;stroke-linecap:round;stroke-linejoin:round;stroke-opacity:0.74632353" />
      </g>
      <g
         id="g1195"
         transform="translate(18)">
        <g
           id="g1189"
           transform="translate(-21.53516,44.035156)">
          <path
             inkscape:connector-curvature="0"
             style="fill:url(#linearGradient1215);fill-opacity:1;stroke:#b35039;stroke-width:1px;stroke-linecap:round;stroke-linejoin:round;stroke-opacity:0.74509804"
             d="m 13.5,16 v 0.25 c 0.0012,-0.08355 0.01682,-0.167011 0.04687,-0.25 z m 0,0.25 V 32 h 0.04687 c -0.03005,0.08299 -0.0457,0.166452 -0.04687,0.25 0,1.242641 3.134007,2.25 7,2.25 3.865993,0 7,-1.007359 7,-2.25 C 27.4969,32.16642 27.47928,32.082954 27.44727,32 H 27.5 V 16.25 c 0,1.242641 -3.134007,2.25 -7,2.25 -3.865993,0 -7,-1.007359 -7,-2.25 z m 14,0 V 16 h -0.05273 c 0.03201,0.08295 0.04961,0.166417 0.05273,0.25 z"
             id="path1187"
             transform="translate(21.53516,-44.035156)"
             sodipodi:nodetypes="ccccccccsccccsccccc" />
        </g>
        <path
           style="fill:url(#linearGradient1217);fill-opacity:1;stroke:#b35039;stroke-linecap:round;stroke-linejoin:round;stroke-opacity:0.74509804"
           d="m 27.5,16.179684 c 0,1.242641 -3.134007,2.25 -7,2.25 -3.865993,0 -7,-1.007359 -7,-2.25 0,-1.242641 3.134007,-2.25 7,-2.25 3.865993,0 7,1.007359 7,2.25 z"
           id="ellipse1191"
           inkscape:connector-curvature="0"
           sodipodi:nodetypes="sssss" />
        <path
           style="fill:none;fill-opacity:1;stroke:url(#linearGradient1219);stroke-width:1px;stroke-linecap:round;stroke-linejoin:round;stroke-opacity:0.74509804"
           d="m 14.488272,18.183598 c 0.01173,1.111475 -2e-4,8.020572 -2e-4,13.517622 0.05682,0.179952 0.06098,0.372405 0.01198,0.554643 -0.006,-0.07963 -0.05212,-0.07038 0.148438,0.08203 0.216035,0.164174 0.641459,0.381337 1.205078,0.5625 1.127236,0.362326 2.799382,0.611328 4.646484,0.611328 1.847102,0 3.519248,-0.249002 4.646484,-0.611328 0.563619,-0.181163 0.989043,-0.398326 1.205078,-0.5625 0.192257,-0.146104 0.150102,-0.145274 0.142579,-0.07813 -0.05268,-0.191379 -0.04655,-0.394181 0.01758,-0.582032 l -3e-4,-13.42812 v -0.06641 c -0.04462,0.04147 -0.0067,-0.0104 -0.02148,0.02734 -0.108367,-0.354737 -0.0026,0.0026 -0.02733,0.02736 0.05454,-0.08096 -0.421163,0.339806 -0.101563,0.0918 0.368066,-0.285618 -0.609608,0.380775 -0.197266,0.132813 0.412343,-0.247963 -0.729227,0.365743 -0.273437,0.146484 0.45579,-0.219259 -0.838412,0.341755 -0.339844,0.146484 0.498569,-0.19527 -0.944092,0.318037 -0.404297,0.144532 0.539796,-0.173506 -1.035474,0.285399 -0.457031,0.132812 0.578443,-0.152587 -1.121405,0.252876 -0.507812,0.121094 0.613592,-0.131782 -1.193315,0.216196 -0.548829,0.105469 0.644487,-0.110728 -1.254506,0.177164 -0.583984,0.08789 0.670522,-0.08927 -1.304511,0.137711 -0.613281,0.07031 0.69123,-0.0674 -1.339075,0.09789 -0.632813,0.05273 1.412525,-0.09031 -2.739594,0.04102 -1.302734,0.04102 1.43686,0 -2.715259,-0.131327 -1.302734,-0.04102 0.706262,0.04516 -1.324043,-0.120132 -0.632813,-0.05273 0.69123,0.0674 -1.283803,-0.159586 -0.613281,-0.07031 0.670522,0.08927 -1.228471,-0.198618 -0.583984,-0.08789 0.644486,0.110727 -1.162421,-0.237251 -0.548829,-0.105469 0.613593,0.131782 -1.086255,-0.273681 -0.507812,-0.121094 0.578443,0.152587 -0.996827,-0.306318 -0.457031,-0.132812 0.539795,0.173505 -0.902866,-0.339802 -0.404297,-0.144532 0.498568,0.195271 -0.795634,-0.365743 -0.339844,-0.146484 0.45579,0.219259 -0.68578,-0.394447 -0.273437,-0.146484 z"
           id="path1193"
           inkscape:connector-curvature="0"
           sodipodi:nodetypes="ccccsssscccccccssccssccccsccccssccscc" />
      </g>
      <g
         id="g1205"
         transform="translate(18)">
        <ellipse
           ry="2.25"
           rx="7"
           cy="11.679684"
           cx="20.5"
           id="ellipse1197"
           style="fill:url(#linearGradient1221);fill-opacity:1;stroke:#7bb339;stroke-linecap:round;stroke-linejoin:round;stroke-opacity:0.74509804" />
        <path
           inkscape:connector-curvature="0"
           style="fill:url(#linearGradient1223);fill-opacity:1;stroke:#7bb339;stroke-width:1px;stroke-linecap:round;stroke-linejoin:round;stroke-opacity:0.74509804"
           d="m 13.5,11.5 v 0.173828 c 0.0021,-0.05803 0.01126,-0.11602 0.02734,-0.173828 z m 13.974609,0 c 0.01591,0.05976 0.02438,0.119707 0.02539,0.179688 V 11.5 Z M 27.5,11.679688 c 0,1.242641 -3.134007,2.25 -7,2.25 -3.853398,-3.34e-4 -6.981323,-1.001654 -6.998047,-2.240235 l 0.0332,4.275391 h 0.02735 c -0.03962,0.09453 -0.06049,0.189774 -0.0625,0.285156 0,1.242641 3.134007,2.25 7,2.25 3.865993,0 7,-1.007359 7,-2.25 -0.0031,-0.08358 -0.02072,-0.167046 -0.05273,-0.25 H 27.5 Z"
           id="path1199"
           sodipodi:nodetypes="ccccccccccccccscccc" />
        <path
           inkscape:connector-curvature="0"
           style="fill:none;fill-opacity:1;stroke:url(#linearGradient1225);stroke-width:1px;stroke-linecap:round;stroke-linejoin:round;stroke-opacity:0.74509804"
           d="m 26.5,13.861328 c -0.25586,0.112883 -0.452796,0.267682 -0.744141,0.361328 -1.407826,0.452516 -3.236006,0.707031 -5.255859,0.707032 -2.013293,-1.76e-4 -3.836163,-0.253025 -5.242188,-0.703126 -0.290744,-0.09307 -0.488599,-0.245281 -0.74414,-0.357421 l 0.01563,1.095703 -0.01172,1.292968 c -0.008,-0.07084 -0.05408,-0.07273 0.136719,0.07227 0.214488,0.162999 0.638334,0.377682 1.201172,0.558594 C 16.981144,17.250496 18.65386,17.5 20.5,17.5 c 1.84614,0 3.518856,-0.249504 4.644531,-0.611328 0.562838,-0.180912 0.986684,-0.395595 1.201172,-0.558594 0.187549,-0.142526 0.143204,-0.13634 0.134766,-0.07031 -0.05098,-0.191039 -0.04418,-0.392902 0.01953,-0.58008 z"
           id="path1201"
           sodipodi:nodetypes="cccccccccsscccc" />
        <path
           sodipodi:type="inkscape:offset"
           inkscape:radius="-1.0701622"
           inkscape:original="M 20.5 9.4296875 A 7 2.25 0 0 0 13.5 11.679688 A 7 2.25 0 0 0 20.5 13.929688 A 7 2.25 0 0 0 27.5 11.679688 A 7 2.25 0 0 0 20.5 9.4296875 z "
           style="fill:none;fill-opacity:1;stroke:url(#linearGradient1227);stroke-linecap:round;stroke-linejoin:round;stroke-opacity:0.74509804"
           id="path1203"
           d="m 20.5,10.5 c -1.742542,0 -3.482617,0.240855 -4.623047,0.607422 -0.570215,0.183283 -0.988459,0.402185 -1.1875,0.55664 -0.199041,0.154456 -0.11914,0.156918 -0.119141,0.01563 0,-0.141293 -0.0799,-0.138831 0.119141,0.01562 0.199041,0.154456 0.617285,0.373358 1.1875,0.556641 1.14043,0.366567 2.880505,0.607422 4.623047,0.607422 1.742542,0 3.482617,-0.240855 4.623047,-0.607422 0.570215,-0.183283 0.988459,-0.402185 1.1875,-0.556641 0.199041,-0.154455 0.11914,-0.156917 0.119141,-0.01562 -10e-7,0.141292 0.0799,0.13883 -0.119141,-0.01563 -0.199041,-0.154455 -0.617285,-0.373357 -1.1875,-0.55664 C 23.982617,10.740855 22.242542,10.5 20.5,10.5 Z" />
      </g>
    </g>
  </g>
</svg>
