<svg height="52" viewBox="0 0 60 52" width="60" xmlns="http://www.w3.org/2000/svg" xmlns:xlink="http://www.w3.org/1999/xlink"><linearGradient id="a"><stop offset="0" stop-color="#fff"/><stop offset=".58055538" stop-color="#fff" stop-opacity=".23529"/><stop offset="1" stop-color="#fff" stop-opacity=".15686"/><stop offset="1" stop-color="#fff" stop-opacity=".39216"/></linearGradient><linearGradient id="b" gradientUnits="userSpaceOnUse" x1="42.5" x2="42.5" y1="49.5" y2="7"><stop offset="0" stop-color="#f6f6f6"/><stop offset=".35294119" stop-color="#fcfcfc"/><stop offset="1" stop-color="#fff" stop-opacity=".915441"/></linearGradient><linearGradient id="c" gradientUnits="userSpaceOnUse" x1="41.02981434912" x2="46.38028298936" y1="34.89007785339" y2="21.39007856254"><stop offset="0" stop-color="#f7b19e"/><stop offset="1" stop-color="#e2866d"/></linearGradient><linearGradient id="d" gradientUnits="userSpaceOnUse" x1="31.40143703125" x2="22.5084461875" y1="32.39129707813" y2="1.5743537375"><stop offset="0" stop-color="#aff05f"/><stop offset="1" stop-color="#68b723"/></linearGradient><linearGradient id="e" gradientUnits="userSpaceOnUse" x1="32.63531194799" x2="32.98318888624" y1="25.01729054737" y2="43.51727115038"><stop offset="0" stop-color="#cd9ef7"/><stop offset="1" stop-color="#a56de2"/></linearGradient><linearGradient id="f" gradientUnits="userSpaceOnUse" x1="19.92173340625" x2="19.5280028125" xlink:href="#a" y1="6.7901815625" y2="29.61492985625"/><linearGradient id="g" gradientUnits="userSpaceOnUse" x1="39.73170990958" x2="39.66153616365" xlink:href="#a" y1="7.05414649387" y2="29.35855262967"/><linearGradient id="h" gradientUnits="userSpaceOnUse" x1="25.30902556305" x2="25.73485214114" xlink:href="#a" y1="25.87067659336" y2="40.10121192699"/><g fill="#010101"><path d="m3 3h57v49h-57z" opacity=".02"/><path d="m3 3h56.5v48.5h-56.5z" opacity=".05"/><path d="m3 3h56v48h-56z" opacity=".2"/></g><path d="m.5.5h57v49h-57z" fill="url(#b)" stroke="#939393" stroke-linecap="round" stroke-linejoin="round" stroke-width=".999"/><path d="m1.5 1.5h55v47h-55z" fill="none" stroke="#fff" stroke-linecap="round" stroke-linejoin="round" stroke-width=".999"/><g fill-rule="evenodd" transform="matrix(.97632876 -.20045633 .21629184 .90484816 -3.175415 5.496594)"><path d="m29.066484 11.766557v17.939182l15.002768 9.809041c1.271913-1.939912 2.297195-4.239695 2.947114-6.924766.326651-1.349521.675524-3.17198.677309-4.337865-.00029-9.707303-8.071815-20.3681917-17.702305-20.6839509-.198809-.00652-.724491 4.1983569-.924886 4.1983589z" fill="#703224" stroke-width="1.38189"/><path d="m29.999997 7.5527323v17.9391817l15.002768 9.809041a17.939718 17.939718 0 0 0 2.93714-9.809041 17.939718 17.939718 0 0 0 -17.939908-17.9391817z" fill="#b35039" stroke-width="1.38189"/><path d="m30.77981 9.1394873v15.5726267l13.392441 8.928528a16.380069 16.380069 0 0 0 2.208036-8.148728 16.380069 16.380069 0 0 0 -15.600477-16.3524267z" fill="url(#c)" stroke="url(#g)"/></g><g transform="matrix(.97632876 -.20045633 .21629184 .90484816 -4.479197 10.612051)"><path d="m29.066484 29.705739-13.887151 5.863717-.933513 4.213825c3.334926 4.911668 8.883815 7.855358 14.820664 7.862373 6.052304-.006 11.69357-3.063367 15.002768-8.130874l.933513-4.213825z" fill="#522981"/><path d="m29.999997 25.491914-14.820664 10.077542a17.939718 17.939718 0 0 0 14.820664 7.862373 17.939718 17.939718 0 0 0 15.002768-8.130874z" fill="#7239b3"/><path d="m30.209946 26.412405-13.199633 8.999944a16.380069 16.380069 0 0 0 12.989684 6.459851 16.380069 16.380069 0 0 0 13.233198-6.77763z" fill="url(#e)" stroke="url(#h)"/></g><g transform="matrix(.97632876 -.20045633 .21629184 .90484816 -7.08073 6.29842)"><path d="m29.066483 11.766557c-9.907695-.000102-17.939606 8.031486-17.939902 17.939181.0063 3.595878 1.093006 7.106892 3.119238 10.077542l14.820664-10.077542.933514-4.213824z" fill="#507525" fill-rule="evenodd"/><path d="m29.999997 7.5527323a17.939718 17.939718 0 0 0 -17.939902 17.9391817 17.939718 17.939718 0 0 0 3.119238 10.077542l14.820664-10.077542z" fill="#7bb339" fill-rule="evenodd"/><path d="m29.220188 9.1516231a16.380069 16.380069 0 0 0 -15.600477 16.3402959 16.380069 16.380069 0 0 0 2.430123 8.520776l13.170354-8.780713z" fill="url(#d)" stroke="url(#f)"/></g><path d="m29.220188 9.1516203a16.380069 16.380069 0 0 0 -15.600476 16.3402937 16.380069 16.380069 0 0 0 2.430123 8.520774l13.170353-8.780707z" fill="none" opacity=".99" stroke-width="1.38189"/></svg>