<?xml version="1.0" encoding="UTF-8" standalone="no"?>
<svg
   xmlns:dc="http://purl.org/dc/elements/1.1/"
   xmlns:cc="http://creativecommons.org/ns#"
   xmlns:rdf="http://www.w3.org/1999/02/22-rdf-syntax-ns#"
   xmlns:svg="http://www.w3.org/2000/svg"
   xmlns="http://www.w3.org/2000/svg"
   xmlns:xlink="http://www.w3.org/1999/xlink"
   xmlns:sodipodi="http://sodipodi.sourceforge.net/DTD/sodipodi-0.dtd"
   xmlns:inkscape="http://www.inkscape.org/namespaces/inkscape"
   height="24"
   width="24"
   version="1.1"
   id="svg39"
   sodipodi:docname="lc_bold.svg"
   inkscape:version="0.92.4 (unknown)"
   inkscape:export-filename="/home/rizmut/Dokumen/Rizmut/Github/libreoffice-style-elementary/images_elementary/cmd/nl/lc_bold.png"
   inkscape:export-xdpi="96"
   inkscape:export-ydpi="96">
  <metadata
     id="metadata45">
    <rdf:RDF>
      <cc:Work
         rdf:about="">
        <dc:format>image/svg+xml</dc:format>
        <dc:type
           rdf:resource="http://purl.org/dc/dcmitype/StillImage" />
        <dc:title />
      </cc:Work>
    </rdf:RDF>
  </metadata>
  <defs
     id="defs43">
    <radialGradient
       inkscape:collect="always"
       xlink:href="#c"
       id="radialGradient884"
       cx="11.904744"
       cy="4.3610497"
       fx="11.904744"
       fy="4.3610497"
       r="6.7582979"
       gradientTransform="matrix(0.01593237,2.9166493,-2.3215578,0.01268165,23.839502,-31.91211)"
       gradientUnits="userSpaceOnUse" />
    <radialGradient
       id="d-0"
       cx="40"
       cy="43.5"
       gradientTransform="matrix(1,0,0,0.75,-26.446602,12.375)"
       gradientUnits="userSpaceOnUse"
       r="2"
       xlink:href="#a" />
    <linearGradient
       id="linearGradient1091">
      <stop
         offset="0"
         id="stop2-9" />
      <stop
         offset="1"
         stop-opacity="0"
         id="stop4-3" />
    </linearGradient>
    <radialGradient
       id="e-6"
       cx="9"
       cy="43.5"
       gradientTransform="matrix(1,0,0,0.75,0.47915456,12.375)"
       gradientUnits="userSpaceOnUse"
       r="2"
       xlink:href="#a" />
    <linearGradient
       id="b-0"
       gradientUnits="userSpaceOnUse"
       x1="17"
       x2="17"
       y1="46.5"
       y2="43.5"
       gradientTransform="matrix(0.29101737,0,0,1,8.0240678,0)">
      <stop
         offset="0"
         stop-opacity="0"
         id="stop7-6" />
      <stop
         offset=".5"
         id="stop9-2" />
      <stop
         offset="1"
         stop-opacity="0"
         id="stop11-6" />
    </linearGradient>
  </defs>
  <sodipodi:namedview
     pagecolor="#ffffff"
     bordercolor="#666666"
     borderopacity="1"
     objecttolerance="10"
     gridtolerance="10"
     guidetolerance="10"
     inkscape:pageopacity="0"
     inkscape:pageshadow="2"
     inkscape:window-width="1366"
     inkscape:window-height="714"
     id="namedview41"
     showgrid="true"
     inkscape:snap-global="true"
     inkscape:zoom="22.627417"
     inkscape:cx="9.4519474"
     inkscape:cy="11.400719"
     inkscape:window-x="0"
     inkscape:window-y="28"
     inkscape:window-maximized="1"
     inkscape:current-layer="svg39">
    <inkscape:grid
       type="xygrid"
       id="grid852" />
  </sodipodi:namedview>
  <linearGradient
     id="a">
    <stop
       offset="0"
       id="stop2" />
    <stop
       offset="1"
       stop-opacity="0"
       id="stop4" />
  </linearGradient>
  <linearGradient
     id="b"
     gradientUnits="userSpaceOnUse"
     x1="17"
     x2="17"
     y1="46.5"
     y2="43.5">
    <stop
       offset="0"
       stop-opacity="0"
       id="stop7" />
    <stop
       offset=".5"
       id="stop9" />
    <stop
       offset="1"
       stop-opacity="0"
       id="stop11" />
  </linearGradient>
  <radialGradient
     id="c"
     cx="13.325464"
     cy="8.331412"
     gradientTransform="matrix(-3.7117719,0.11187051,-0.21033005,-6.7825606,47.356407,56.934853)"
     gradientUnits="userSpaceOnUse"
     r="5.349211">
    <stop
       offset="0"
       stop-color="#737373"
       id="stop14" />
    <stop
       offset=".26238"
       stop-color="#636363"
       id="stop16" />
    <stop
       offset=".704952"
       stop-color="#4b4b4b"
       id="stop18" />
    <stop
       offset="1"
       stop-color="#3f3f3f"
       id="stop20" />
  </radialGradient>
  <radialGradient
     id="d"
     cx="40"
     cy="43.5"
     gradientTransform="matrix(1,0,0,0.75,-32.283838,12.375)"
     gradientUnits="userSpaceOnUse"
     r="2"
     xlink:href="#a" />
  <radialGradient
     id="e"
     cx="9"
     cy="43.5"
     gradientTransform="matrix(1,0,0,0.75,-4,12.375)"
     gradientUnits="userSpaceOnUse"
     r="2"
     xlink:href="#a" />
  <g
     transform="matrix(0.73633307,0,0,1,4.020185,-24)"
     id="g31">
    <path
       style="opacity:0.2;fill:url(#d-0)"
       inkscape:connector-curvature="0"
       d="m 13.553398,43.5 v 3 h 0.5 c 0.831,0 1.5,-0.669 1.5,-1.5 0,-0.831 -0.669,-1.5 -1.5,-1.5 z"
       id="path25" />
    <path
       style="opacity:0.2;fill:url(#e-6)"
       inkscape:connector-curvature="0"
       d="m 8.8854046,43.5 c -0.7790625,0 -1.40625,0.627187 -1.40625,1.40625 v 0.1875 c 0,0.779063 0.6271875,1.40625 1.40625,1.40625 h 0.59375 v -3 z"
       id="path27" />
    <path
       style="opacity:0.2;fill:url(#b-0);stroke-width:0.53946024"
       inkscape:connector-curvature="0"
       d="m 9.4791546,43.5 h 4.0742434 v 3 H 9.4791546 Z"
       id="path29" />
  </g>
  <g
     aria-label="V"
     style="font-style:normal;font-weight:normal;font-size:22.41456604px;line-height:1.25;font-family:sans-serif;letter-spacing:0px;word-spacing:0px;opacity:1;fill:url(#radialGradient884);fill-opacity:1;stroke:#000000;stroke-width:1;stroke-miterlimit:4;stroke-dasharray:none;stroke-opacity:0.6"
     id="text856">
    <path
       d="m 15.730348,4.4989768 h 3.425664 L 14.165269,20.5 H 10.46599 L 5.4861913,4.4989768 h 3.4256636 l 2.7142641,9.6312592 q 0.05472,0.186058 0.14228,0.623843 0.0985,0.437784 0.197003,0.963125 0.109446,0.525342 0.207947,1.050683 0.0985,0.525342 0.153225,0.886514 0.05472,-0.361172 0.153225,-0.886514 0.0985,-0.525341 0.207947,-1.039738 0.109446,-0.525341 0.207948,-0.963126 0.109446,-0.437784 0.164169,-0.634787 z"
       style="font-style:normal;font-variant:normal;font-weight:bold;font-stretch:normal;font-family:'Droid Sans';-inkscape-font-specification:'Droid Sans Bold';fill:url(#radialGradient884);fill-opacity:1;stroke:#000000;stroke-width:1;stroke-miterlimit:4;stroke-dasharray:none;stroke-opacity:0.6"
       id="path843" />
  </g>
  <path
     style="font-style:normal;font-weight:normal;font-size:22.41456604px;line-height:1.25;font-family:sans-serif;letter-spacing:0px;word-spacing:0px;opacity:0.2;fill:#ffffff;fill-opacity:1;stroke:none;stroke-width:0.56036413"
     d="m 5.4863281,4.4980469 0.4667969,1.5 h 2.9589844 l 2.7148436,9.6328121 c 0.03648,0.124039 0.08225,0.331191 0.140625,0.623047 0.06567,0.291857 0.131598,0.612663 0.197266,0.962891 0.07296,0.350227 0.143316,0.700554 0.208984,1.050781 0.06567,0.350228 0.115862,0.645937 0.152344,0.886719 0.03648,-0.240782 0.08863,-0.536491 0.154297,-0.886719 0.06567,-0.350227 0.134067,-0.696131 0.207031,-1.039062 0.07296,-0.350228 0.143317,-0.671035 0.208984,-0.962891 0.07296,-0.291856 0.127581,-0.50343 0.164063,-0.634766 L 15.730469,5.9980469 H 18.6875 l 0.46875,-1.5 h -3.425781 l -2.669922,9.6328121 c -0.03648,0.131336 -0.0911,0.34291 -0.164063,0.634766 -0.06567,0.291856 -0.13602,0.612663 -0.208984,0.962891 -0.07296,0.342931 -0.141364,0.688835 -0.207031,1.039062 -0.06567,0.350228 -0.117815,0.645937 -0.154297,0.886719 -0.03648,-0.240782 -0.08668,-0.536491 -0.152344,-0.886719 -0.06567,-0.350227 -0.13602,-0.700554 -0.208984,-1.050781 -0.06567,-0.350228 -0.131598,-0.671034 -0.197266,-0.962891 -0.05837,-0.291856 -0.104143,-0.499008 -0.140625,-0.623047 L 8.9121094,4.4980469 Z"
     id="text1123"
     inkscape:connector-curvature="0" />
</svg>
