<?xml version="1.0" encoding="UTF-8" standalone="no"?>
<svg
   xmlns:dc="http://purl.org/dc/elements/1.1/"
   xmlns:cc="http://creativecommons.org/ns#"
   xmlns:rdf="http://www.w3.org/1999/02/22-rdf-syntax-ns#"
   xmlns:svg="http://www.w3.org/2000/svg"
   xmlns="http://www.w3.org/2000/svg"
   xmlns:xlink="http://www.w3.org/1999/xlink"
   xmlns:sodipodi="http://sodipodi.sourceforge.net/DTD/sodipodi-0.dtd"
   xmlns:inkscape="http://www.inkscape.org/namespaces/inkscape"
   height="24"
   width="24"
   version="1.1"
   id="svg51"
   sodipodi:docname="lc_underline.svg"
   inkscape:version="0.92.4 (unknown)"
   inkscape:export-filename="/home/rizmut/Dokumen/Rizmut/Github/libreoffice-style-elementary/images_elementary/cmd/nl/lc_underline.png"
   inkscape:export-xdpi="96"
   inkscape:export-ydpi="96">
  <metadata
     id="metadata57">
    <rdf:RDF>
      <cc:Work
         rdf:about="">
        <dc:format>image/svg+xml</dc:format>
        <dc:type
           rdf:resource="http://purl.org/dc/dcmitype/StillImage" />
        <dc:title></dc:title>
      </cc:Work>
    </rdf:RDF>
  </metadata>
  <defs
     id="defs55">
    <radialGradient
       inkscape:collect="always"
       xlink:href="#a"
       id="radialGradient876"
       cx="10.779233"
       cy="4.3337016"
       fx="10.779233"
       fy="4.3337016"
       r="4.989573"
       gradientTransform="matrix(-1.8639066,-0.06932268,0.09816279,-2.8622988,27.87548,13.170548)"
       gradientUnits="userSpaceOnUse" />
  </defs>
  <sodipodi:namedview
     pagecolor="#ffffff"
     bordercolor="#666666"
     borderopacity="1"
     objecttolerance="10"
     gridtolerance="10"
     guidetolerance="10"
     inkscape:pageopacity="0"
     inkscape:pageshadow="2"
     inkscape:window-width="1366"
     inkscape:window-height="714"
     id="namedview53"
     showgrid="true"
     inkscape:zoom="16"
     inkscape:cx="3.3957312"
     inkscape:cy="9.1687413"
     inkscape:window-x="0"
     inkscape:window-y="28"
     inkscape:window-maximized="1"
     inkscape:current-layer="svg51"
     inkscape:snap-global="false">
    <inkscape:grid
       type="xygrid"
       id="grid864" />
  </sodipodi:namedview>
  <linearGradient
     id="a">
    <stop
       offset="0"
       stop-color="#555"
       id="stop2" />
    <stop
       offset="1"
       stop-color="#666"
       id="stop4" />
  </linearGradient>
  <linearGradient
     id="b"
     gradientUnits="userSpaceOnUse"
     x1="13"
     x2="13"
     xlink:href="#a"
     y1="25"
     y2="3" />
  <linearGradient
     id="c">
    <stop
       offset="0"
       id="stop8" />
    <stop
       offset="1"
       stop-opacity="0"
       id="stop10" />
  </linearGradient>
  <linearGradient
     id="d">
    <stop
       offset="0"
       stop-opacity="0"
       id="stop13" />
    <stop
       offset=".5"
       id="stop15" />
    <stop
       offset="1"
       stop-opacity="0"
       id="stop17" />
  </linearGradient>
  <radialGradient
     id="e"
     cx="40"
     cy="43.5"
     gradientTransform="matrix(.87733142 0 0 .75 -17.142285 -11.625)"
     gradientUnits="userSpaceOnUse"
     r="2"
     xlink:href="#c" />
  <radialGradient
     id="f"
     cx="9"
     cy="43.5"
     gradientTransform="matrix(.87733142 0 0 .75 -1.350319 -11.625)"
     gradientUnits="userSpaceOnUse"
     r="2"
     xlink:href="#c" />
  <linearGradient
     id="g"
     gradientTransform="matrix(.87733142 0 0 1 -5.736976 -22.5)"
     gradientUnits="userSpaceOnUse"
     x1="25"
     x2="25"
     xlink:href="#d"
     y1="45"
     y2="42" />
  <radialGradient
     id="h"
     cx="40"
     cy="43.5"
     gradientTransform="matrix(1 0 0 .75 -20 -9.125)"
     gradientUnits="userSpaceOnUse"
     r="2"
     xlink:href="#c" />
  <radialGradient
     id="i"
     cx="9"
     cy="43.5"
     gradientTransform="matrix(1 0 0 .75 -6 -9.125)"
     gradientUnits="userSpaceOnUse"
     r="2"
     xlink:href="#c" />
  <linearGradient
     id="j"
     gradientUnits="userSpaceOnUse"
     x1="14"
     x2="14"
     xlink:href="#d"
     y1="25"
     y2="22" />
  <linearGradient
     id="k"
     gradientUnits="userSpaceOnUse"
     x1="12.046913"
     x2="11.445407"
     xlink:href="#a"
     y1="25.559875"
     y2="4.349593" />
  <path
     d="m20 22v3h.5c.831 0 1.5-.669 1.5-1.5s-.669-1.5-1.5-1.5z"
     fill="url(#h)"
     opacity=".2"
     id="path29" />
  <path
     d="m2.40625 22c-.7790625 0-1.40625.627187-1.40625 1.40625v.1875c0 .779063.6271875 1.40625 1.40625 1.40625h.59375v-3z"
     fill="url(#i)"
     opacity=".2"
     id="path31" />
  <path
     d="m3 22h17v3h-17z"
     fill="url(#j)"
     opacity=".2"
     id="path33" />
  <path
     d="m2.5 21.5v2h19v-2z"
     fill="url(#b)"
     id="path35" />
  <path
     d="m2.5 21.5v2h19v-2z"
     fill="none"
     opacity=".61"
     stroke="#000"
     id="path37" />
  <path
     d="m3 22v1h18v-1z"
     fill="#fff"
     opacity=".2"
     id="path39" />
  <text
     xml:space="preserve"
     style="font-style:normal;font-weight:normal;font-size:23.61852264px;line-height:1.25;font-family:sans-serif;letter-spacing:0px;word-spacing:0px;fill:url(#radialGradient876);fill-opacity:1;stroke:#000000;stroke-width:0.99999998;stroke-miterlimit:4;stroke-dasharray:none;stroke-opacity:0.6"
     x="3.0018103"
     y="18.660664"
     id="text868"
     transform="scale(1.0208454,0.9795803)"><tspan
       sodipodi:role="line"
       id="tspan866"
       x="3.0018103"
       y="18.660664"
       style="font-style:normal;font-variant:normal;font-weight:normal;font-stretch:normal;font-family:'Droid Sans';-inkscape-font-specification:'Droid Sans';fill:url(#radialGradient876);fill-opacity:1;stroke:#000000;stroke-width:0.99999998;stroke-miterlimit:4;stroke-dasharray:none;stroke-opacity:0.6">O</tspan></text>
  <path
     style="font-style:normal;font-weight:normal;font-size:23.61852264px;line-height:1.25;font-family:sans-serif;letter-spacing:0px;word-spacing:0px;fill:#eeeaf5;fill-opacity:1;stroke:none;stroke-width:0.99999998;stroke-miterlimit:4;stroke-dasharray:none;stroke-opacity:0.6;opacity:0.2"
     d="M 12.035156 1.5039062 C 10.755837 1.5039062 9.6449555 1.7065895 8.703125 2.1132812 C 7.7612945 2.5124416 6.9813665 3.0822424 6.3613281 3.8203125 C 5.7412897 4.5583826 5.2806682 5.4492392 4.9824219 6.4960938 C 4.6841756 7.535417 4.5351562 8.6962367 4.5351562 9.9765625 C 4.5351562 10.232096 4.5467134 10.480029 4.5585938 10.726562 C 4.6063132 9.7408623 4.7438248 8.8275523 4.9824219 7.9960938 C 5.2806682 6.9492392 5.7412897 6.0583826 6.3613281 5.3203125 C 6.9813665 4.5822424 7.7612945 4.0124416 8.703125 3.6132812 C 9.6449555 3.2065895 10.755837 3.0039063 12.035156 3.0039062 C 13.251687 3.0039063 14.319997 3.2065895 15.238281 3.6132812 C 16.164415 4.0124416 16.940472 4.5844767 17.568359 5.3300781 C 18.196246 6.0681483 18.666525 6.9609579 18.980469 8.0078125 C 19.237835 8.8390521 19.387926 9.7539231 19.439453 10.744141 C 19.452298 10.498862 19.464844 10.252344 19.464844 9.9980469 C 19.464844 8.7101898 19.302261 7.5471358 18.980469 6.5078125 C 18.666525 5.4609579 18.196246 4.5681483 17.568359 3.8300781 C 16.940472 3.0844767 16.164415 2.5124416 15.238281 2.1132812 C 14.319997 1.7065895 13.251687 1.5039062 12.035156 1.5039062 z M 6.8945312 10.746094 C 6.8813001 10.99658 6.8554688 11.233399 6.8554688 11.498047 C 6.8554688 12.529839 6.9580461 13.460616 7.1621094 14.289062 C 7.3661726 15.109977 7.6758217 15.810713 8.0917969 16.390625 C 8.5156206 16.963006 9.0497752 17.404106 9.6933594 17.712891 C 10.344792 18.014144 11.11698 18.164063 12.011719 18.164062 C 12.906458 18.164062 13.674775 18.014144 14.318359 17.712891 C 14.969792 17.404106 15.503947 16.963006 15.919922 16.390625 C 16.343746 15.810713 16.653395 15.109977 16.849609 14.289062 C 17.045824 13.460616 17.144531 12.529839 17.144531 11.498047 C 17.144531 11.233417 17.120143 10.996565 17.107422 10.746094 C 17.070245 11.477315 16.995992 12.171016 16.849609 12.789062 C 16.653395 13.609977 16.343746 14.310713 15.919922 14.890625 C 15.503947 15.463006 14.969792 15.904106 14.318359 16.212891 C 13.674775 16.514144 12.906458 16.664062 12.011719 16.664062 C 11.11698 16.664063 10.344792 16.514144 9.6933594 16.212891 C 9.0497752 15.904106 8.5156206 15.463006 8.0917969 14.890625 C 7.6758217 14.310713 7.3661726 13.609977 7.1621094 12.789062 C 7.0098752 12.17103 6.9331965 11.477296 6.8945312 10.746094 z "
     id="text864" />
</svg>
