<?xml version="1.0" encoding="UTF-8" standalone="no"?>
<svg
   xmlns:dc="http://purl.org/dc/elements/1.1/"
   xmlns:cc="http://creativecommons.org/ns#"
   xmlns:rdf="http://www.w3.org/1999/02/22-rdf-syntax-ns#"
   xmlns:svg="http://www.w3.org/2000/svg"
   xmlns="http://www.w3.org/2000/svg"
   xmlns:xlink="http://www.w3.org/1999/xlink"
   xmlns:sodipodi="http://sodipodi.sourceforge.net/DTD/sodipodi-0.dtd"
   xmlns:inkscape="http://www.inkscape.org/namespaces/inkscape"
   height="32"
   width="32"
   version="1.1"
   id="svg73"
   sodipodi:docname="actionmode.svg"
   inkscape:version="0.92.3 (unknown)">
  <metadata
     id="metadata79">
    <rdf:RDF>
      <cc:Work
         rdf:about="">
        <dc:format>image/svg+xml</dc:format>
        <dc:type
           rdf:resource="http://purl.org/dc/dcmitype/StillImage" />
      </cc:Work>
    </rdf:RDF>
  </metadata>
  <defs
     id="defs77">
    <radialGradient
       id="a-0"
       cx="6.702713"
       cy="73.615715"
       gradientTransform="matrix(1.3166457,0,0,0.28801944,14.174902,8.61329)"
       gradientUnits="userSpaceOnUse"
       r="7.228416"
       xlink:href="#b-6" />
    <linearGradient
       id="b-6">
      <stop
         offset="0"
         id="stop1264" />
      <stop
         offset="1"
         stop-opacity="0"
         id="stop1266" />
    </linearGradient>
    <linearGradient
       id="c-1"
       gradientUnits="userSpaceOnUse"
       x1="22.881355"
       x2="22.644068"
       y1="14.457627"
       y2="31.338984">
      <stop
         offset="0"
         stop-color="#f6f6f6"
         id="stop1269" />
      <stop
         offset="1"
         stop-color="#d2d2d2"
         id="stop1271" />
    </linearGradient>
    <linearGradient
       id="d-5"
       gradientUnits="userSpaceOnUse"
       x1="23.031893"
       x2="23.040016"
       y1="26.715307"
       y2="18.997057">
      <stop
         offset="0"
         stop-color="#fff"
         id="stop1274" />
      <stop
         offset="1"
         stop-color="#959595"
         id="stop1276" />
    </linearGradient>
    <linearGradient
       id="e-9"
       gradientUnits="userSpaceOnUse"
       x1="23.131727"
       x2="23.398602"
       y1="16.459263"
       y2="30.159456">
      <stop
         offset="0"
         stop-color="#fff"
         id="stop1279" />
      <stop
         offset="1"
         stop-color="#fff"
         stop-opacity="0"
         id="stop1281" />
    </linearGradient>
  </defs>
  <sodipodi:namedview
     pagecolor="#ffffff"
     bordercolor="#666666"
     borderopacity="1"
     objecttolerance="10"
     gridtolerance="10"
     guidetolerance="10"
     inkscape:pageopacity="0"
     inkscape:pageshadow="2"
     inkscape:window-width="1366"
     inkscape:window-height="706"
     id="namedview75"
     showgrid="false"
     inkscape:zoom="7.375"
     inkscape:cx="-2.3050847"
     inkscape:cy="14.915254"
     inkscape:window-x="0"
     inkscape:window-y="0"
     inkscape:window-maximized="1"
     inkscape:current-layer="svg73" />
  <clipPath
     id="a">
    <path
       d="m27.728 6.958c-.204.053-.394.17-.535.336-.282.334-.33.814-.107 1.2l2.648 4.75c.093.167.075.458-.242.92-.32.468-.9.99-1.658 1.402-.762.414-1.514.63-2.082.648-.57.02-.847-.13-.94-.297l-2.668-4.78c-.165-.295-.468-.492-.797-.53-.328-.04-.666.078-.898.334-.117.126-.208.283-.25.464a.58.58 0 0 0 0 .003c-.546 2.35-.31 4.998.762 6.914 1.422 2.544 4.333 3.748 7.196 3.332 1.008.348 2.378 1.105 4.045 2.76l1.277 1.267a.58.58 0 0 0 .408.167h4.946a.58.58 0 0 0 .58-.58v-3.238a.58.58 0 0 0 -.172-.412l-2.12-2.103c-1.492-1.482-2.25-2.72-2.648-3.682.316-1.513.17-3.117-.63-4.545-1.07-1.916-3.206-3.5-5.497-4.297-.198-.07-.414-.084-.62-.032z"
       id="path2" />
  </clipPath>
  <radialGradient
     id="b"
     cx="605.714"
     cy="486.648"
     gradientTransform="matrix(.02304 0 0 .0147 26.36 21.04)"
     gradientUnits="userSpaceOnUse"
     r="117.143">
    <stop
       offset="0"
       id="stop5" />
    <stop
       offset="1"
       stop-opacity="0"
       id="stop7" />
  </radialGradient>
  <linearGradient
     id="c"
     gradientUnits="userSpaceOnUse"
     x1="39.706"
     x2="41.641"
     y1="28.005"
     y2="31.442">
    <stop
       offset="0"
       stop-color="#d4d4d4"
       id="stop10" />
    <stop
       offset="1"
       stop-color="#d4d4d4"
       stop-opacity="0"
       id="stop12" />
  </linearGradient>
  <linearGradient
     id="d"
     gradientUnits="userSpaceOnUse"
     x1="38.833"
     x2="40.777"
     y1="28.152"
     y2="31.46">
    <stop
       offset="0"
       stop-color="#555761"
       id="stop15" />
    <stop
       offset="1"
       stop-color="#555761"
       stop-opacity="0"
       id="stop17" />
  </linearGradient>
  <linearGradient
     id="e"
     gradientTransform="matrix(1.18112 0 0 1.18045 -332.458 -53.518)"
     gradientUnits="userSpaceOnUse"
     x1="302.292"
     x2="308.649"
     y1="58.443"
     y2="60.768">
    <stop
       offset="0"
       stop-color="#abacae"
       id="stop20" />
    <stop
       offset="1"
       stop-color="#fafafa"
       id="stop22" />
  </linearGradient>
  <linearGradient
     id="f"
     gradientUnits="userSpaceOnUse"
     x1="37.789"
     x2="40.78"
     y1="27.895"
     y2="32.102">
    <stop
       offset="0"
       stop-color="#fff"
       id="stop25" />
    <stop
       offset="1"
       stop-color="#fff"
       stop-opacity="0"
       id="stop27" />
  </linearGradient>
  <linearGradient
     id="g"
     gradientUnits="userSpaceOnUse"
     x1="17.609635"
     x2="17.609635"
     y1="7.127934"
     y2="30.010087">
    <stop
       offset="0"
       stop-color="#fff"
       id="stop30" />
    <stop
       offset=".424"
       stop-color="#fff"
       stop-opacity=".235"
       id="stop32" />
    <stop
       offset=".821"
       stop-color="#fff"
       stop-opacity=".157"
       id="stop34" />
    <stop
       offset="1"
       stop-color="#fff"
       stop-opacity=".392"
       id="stop36" />
  </linearGradient>
  <radialGradient
     id="h"
     cx="99.157"
     cy="186.171"
     gradientTransform="matrix(.1448 0 0 .04607 4.137 20.26)"
     gradientUnits="userSpaceOnUse"
     r="62.769">
    <stop
       offset="0"
       stop-color="#3d3d3d"
       id="stop39" />
    <stop
       offset=".5"
       stop-color="#686868"
       stop-opacity=".498"
       id="stop41" />
    <stop
       offset="1"
       stop-color="#686868"
       stop-opacity="0"
       id="stop43" />
  </radialGradient>
  <radialGradient
     id="i"
     cx="-14.891"
     cy="11.546"
     gradientTransform="matrix(0 4.12407 -4.2786 0 68.44 53.678)"
     gradientUnits="userSpaceOnUse"
     r="20">
    <stop
       offset="0"
       stop-color="#f0c1ff"
       id="stop46" />
    <stop
       offset=".262"
       stop-color="#c5a3f2"
       id="stop48" />
    <stop
       offset=".705"
       stop-color="#7a36b1"
       id="stop50" />
    <stop
       offset="1"
       stop-color="#4c2d81"
       id="stop52" />
  </radialGradient>
  <path
     d="m13.494 1.53c-6.61 0-11.98 5.37-11.98 11.98s5.37 11.98 11.98 11.98 11.98-5.37 11.98-11.98-5.37-11.98-11.98-11.98z"
     fill="none"
     stroke="#6326b9"
     stroke-dasharray="3 1"
     stroke-opacity=".498"
     id="path55" />
  <path
     d="m27.583 28.837a9.088 2.892 0 1 1 -18.177 0 9.088 2.892 0 1 1 18.177 0z"
     fill="url(#h)"
     id="path57" />
  <path
     d="m18.494 6.53c-6.61 0-11.98 5.37-11.98 11.98s5.37 11.98 11.98 11.98 11.98-5.37 11.98-11.98-5.37-11.98-11.98-11.98z"
     fill="url(#i)"
     stroke="#6326b9"
     stroke-opacity=".498"
     id="path59" />
  <path
     d="m29.648 18.51c0 6.16-4.994 11.153-11.154 11.153s-11.154-4.993-11.154-11.153 4.994-11.154 11.154-11.154 11.154 4.994 11.154 11.154z"
     fill="none"
     opacity=".5"
     stroke="url(#g)"
     stroke-linecap="round"
     stroke-linejoin="round"
     id="path61" />
  <g
     id="g1949">
    <path
       style="opacity:0.2;fill:url(#a-0)"
       inkscape:connector-curvature="0"
       id="path1324"
       d="m 32.517262,29.816046 c 0,1.149816 -4.261024,2.081925 -9.517262,2.081925 -5.256239,0 -9.517262,-0.932109 -9.517262,-2.081925 0,-1.149815 4.261023,-2.081924 9.517262,-2.081924 5.256238,0 9.517262,0.932109 9.517262,2.081924 z" />
    <path
       style="fill:url(#c-1)"
       inkscape:connector-curvature="0"
       id="path1326"
       d="m 22,14.5 c -0.554,0 -1,0.446 -1,1 v 1.886719 a 5.9661016,5.9661016 0 0 0 -0.556641,0.228515 l -1.332031,-1.332031 c -0.391737,-0.391737 -1.022325,-0.391737 -1.414062,0 l -1.414063,1.414063 c -0.391737,0.391737 -0.391737,1.022325 0,1.414062 l 1.333985,1.333984 A 5.9661016,5.9661016 0 0 0 17.386719,21 H 15.5 c -0.554,0 -1,0.446 -1,1 v 2 c 0,0.554 0.446,1 1,1 h 1.886719 a 5.9661016,5.9661016 0 0 0 0.228515,0.556641 l -1.332031,1.332031 c -0.391737,0.391737 -0.391737,1.022325 0,1.414062 l 1.414063,1.414063 c 0.391737,0.391737 1.022325,0.391737 1.414062,0 l 1.333984,-1.333985 A 5.9661016,5.9661016 0 0 0 21,28.613281 V 30.5 c 0,0.554 0.446,1 1,1 h 2 c 0.554,0 1,-0.446 1,-1 v -1.886719 a 5.9661016,5.9661016 0 0 0 0.556641,-0.228515 l 1.332031,1.332031 c 0.391737,0.391737 1.022325,0.391737 1.414062,0 l 1.414063,-1.414063 c 0.391737,-0.391737 0.391737,-1.022325 0,-1.414062 L 28.382812,25.554688 A 5.9661016,5.9661016 0 0 0 28.613281,25 H 30.5 c 0.554,0 1,-0.446 1,-1 v -2 c 0,-0.554 -0.446,-1 -1,-1 h -1.886719 a 5.9661016,5.9661016 0 0 0 -0.228515,-0.556641 l 1.332031,-1.332031 c 0.391737,-0.391737 0.391737,-1.022325 0,-1.414062 l -1.414063,-1.414063 c -0.391737,-0.391737 -1.022325,-0.391737 -1.414062,0 l -1.333984,1.333985 A 5.9661016,5.9661016 0 0 0 25,17.386719 V 15.5 c 0,-0.554 -0.446,-1 -1,-1 z m 1,6.503906 A 1.9954157,1.9954157 0 0 1 24.996094,23 1.9954157,1.9954157 0 0 1 23,24.996094 1.9954157,1.9954157 0 0 1 21.003906,23 1.9954157,1.9954157 0 0 1 23,21.003906 Z" />
    <g
       style="fill:none;stroke-linecap:square;stroke-linejoin:round"
       id="g1334">
      <path
         style="opacity:0.3;stroke:#000000"
         inkscape:connector-curvature="0"
         id="path1328"
         d="m 22,14.5 c -0.554,0 -1,0.446 -1,1 v 1.886719 a 5.9661016,5.9661016 0 0 0 -0.556641,0.228515 l -1.332031,-1.332031 c -0.391737,-0.391737 -1.022325,-0.391737 -1.414062,0 l -1.414063,1.414063 c -0.391737,0.391737 -0.391737,1.022325 0,1.414062 l 1.333985,1.333984 A 5.9661016,5.9661016 0 0 0 17.386719,21 H 15.5 c -0.554,0 -1,0.446 -1,1 v 2 c 0,0.554 0.446,1 1,1 h 1.886719 a 5.9661016,5.9661016 0 0 0 0.228515,0.556641 l -1.332031,1.332031 c -0.391737,0.391737 -0.391737,1.022325 0,1.414062 l 1.414063,1.414063 c 0.391737,0.391737 1.022325,0.391737 1.414062,0 l 1.333984,-1.333985 A 5.9661016,5.9661016 0 0 0 21,28.613281 V 30.5 c 0,0.554 0.446,1 1,1 h 2 c 0.554,0 1,-0.446 1,-1 v -1.886719 a 5.9661016,5.9661016 0 0 0 0.556641,-0.228515 l 1.332031,1.332031 c 0.391737,0.391737 1.022325,0.391737 1.414062,0 l 1.414063,-1.414063 c 0.391737,-0.391737 0.391737,-1.022325 0,-1.414062 L 28.382812,25.554688 A 5.9661016,5.9661016 0 0 0 28.613281,25 H 30.5 c 0.554,0 1,-0.446 1,-1 v -2 c 0,-0.554 -0.446,-1 -1,-1 h -1.886719 a 5.9661016,5.9661016 0 0 0 -0.228515,-0.556641 l 1.332031,-1.332031 c 0.391737,-0.391737 0.391737,-1.022325 0,-1.414062 l -1.414063,-1.414063 c -0.391737,-0.391737 -1.022325,-0.391737 -1.414062,0 l -1.333984,1.333985 A 5.9661016,5.9661016 0 0 0 25,17.386719 V 15.5 c 0,-0.554 -0.446,-1 -1,-1 z m 1,6.503906 A 1.9954157,1.9954157 0 0 1 24.996094,23 1.9954157,1.9954157 0 0 1 23,24.996094 1.9954157,1.9954157 0 0 1 21.003906,23 1.9954157,1.9954157 0 0 1 23,21.003906 Z" />
      <circle
         style="stroke:url(#d-5)"
         id="circle1330"
         r="3.998385"
         cy="23"
         cx="23" />
      <path
         style="stroke:url(#e-9)"
         inkscape:connector-curvature="0"
         id="path1332"
         d="m 22,15.5 v 1.886719 a 0.99989607,0.99989607 0 0 1 -0.667969,0.943359 c -0.157521,0.05556 -0.311767,0.118308 -0.46289,0.189453 a 0.99989607,0.99989607 0 0 1 -1.132813,-0.197265 l -1.332031,-1.332032 -1.414063,1.414063 1.333985,1.333984 A 0.99989607,0.99989607 0 0 1 18.519531,20.875 c -0.07165,0.150561 -0.135262,0.303936 -0.191406,0.460938 A 0.99989607,0.99989607 0 0 1 17.386719,22 H 15.5 v 2 h 1.886719 a 0.99989607,0.99989607 0 0 1 0.943359,0.667969 c 0.05556,0.157521 0.118308,0.311767 0.189453,0.46289 a 0.99989607,0.99989607 0 0 1 -0.197265,1.132813 l -1.332032,1.332031 1.414063,1.414063 1.333984,-1.333985 A 0.99989607,0.99989607 0 0 1 20.875,27.480469 c 0.150561,0.07165 0.303936,0.135262 0.460938,0.191406 A 0.99989607,0.99989607 0 0 1 22,28.613281 V 30.5 h 2 v -1.886719 a 0.99989607,0.99989607 0 0 1 0.667969,-0.943359 c 0.157521,-0.05556 0.311767,-0.118308 0.46289,-0.189453 a 0.99989607,0.99989607 0 0 1 1.132813,0.197265 l 1.332031,1.332032 1.414063,-1.414063 -1.333985,-1.333984 A 0.99989607,0.99989607 0 0 1 27.480469,25.125 c 0.07165,-0.150561 0.135262,-0.303936 0.191406,-0.460938 A 0.99989607,0.99989607 0 0 1 28.613281,24 H 30.5 v -2 h -1.886719 a 0.99989607,0.99989607 0 0 1 -0.943359,-0.667969 c -0.05556,-0.157521 -0.118308,-0.311767 -0.189453,-0.46289 a 0.99989607,0.99989607 0 0 1 0.197265,-1.132813 l 1.332032,-1.332031 -1.414063,-1.414063 -1.333984,1.333985 A 0.99989607,0.99989607 0 0 1 25.125,18.519531 c -0.150561,-0.07165 -0.303936,-0.135262 -0.460938,-0.191406 A 0.99989607,0.99989607 0 0 1 24,17.386719 V 15.5 Z m 1,6.503906 c -0.588024,2e-4 0.772067,0.134102 0.195312,0.01953 -0.576754,-0.114571 0.728849,0.281575 0.185547,0.05664 -0.543301,-0.224934 0.66278,0.418444 0.173829,0.0918 -0.488952,-0.326647 0.566186,0.538842 0.15039,0.123047 -0.415795,-0.415796 0.449694,0.639342 0.123047,0.15039 -0.326647,-0.488951 0.316731,0.71713 0.0918,0.173829 -0.224935,-0.543302 0.171211,0.762301 0.05664,0.185547 -0.11457,-0.576755 0.01933,0.783336 0.01953,0.195312 -2e-4,-0.588024 -0.134102,0.772067 -0.01953,0.195312 0.114571,-0.576754 -0.281575,0.728849 -0.05664,0.185547 0.224934,-0.543301 -0.418444,0.66278 -0.0918,0.173829 0.326647,-0.488952 -0.538842,0.566186 -0.123047,0.15039 0.415796,-0.415795 -0.639342,0.449694 -0.15039,0.123047 0.488951,-0.326647 -0.71713,0.316731 -0.173829,0.0918 0.543302,-0.224935 -0.762301,0.171211 -0.185547,0.05664 0.576755,-0.11457 -0.783336,0.01933 -0.195312,0.01953 0.588024,-2e-4 -0.772067,-0.134102 -0.195312,-0.01953 0.576754,0.114571 -0.728849,-0.281575 -0.185547,-0.05664 0.543301,0.224934 -0.66278,-0.418444 -0.173829,-0.0918 0.488952,0.326647 -0.566186,-0.538842 -0.15039,-0.123047 0.415795,0.415796 -0.449694,-0.639342 -0.123047,-0.15039 0.326647,0.488951 -0.316731,-0.71713 -0.0918,-0.173829 0.224935,0.543302 -0.171211,-0.762301 -0.05664,-0.185547 0.11457,0.576755 -0.01933,-0.783336 -0.01953,-0.195312 2e-4,0.588024 0.134102,-0.772067 0.01953,-0.195312 -0.114571,0.576754 0.281575,-0.728849 0.05664,-0.185547 -0.224934,0.543301 0.418444,-0.66278 0.0918,-0.173829 -0.326647,0.488952 0.538842,-0.566186 0.123047,-0.15039 -0.415796,0.415795 0.639342,-0.449694 0.15039,-0.123047 -0.488951,0.326647 0.71713,-0.316731 0.173829,-0.0918 -0.543302,0.224935 0.762301,-0.171211 0.185547,-0.05664 -0.576755,0.11457 0.783336,-0.01933 0.195312,-0.01953 z" />
    </g>
  </g>
</svg>
