<svg xmlns="http://www.w3.org/2000/svg" xmlns:xlink="http://www.w3.org/1999/xlink" height="32" width="32"><defs><linearGradient id="a"><stop offset="0" stop-color="#fff"/><stop offset="1" stop-color="#fff" stop-opacity="0"/></linearGradient><linearGradient xlink:href="#a" id="i" x1="11.492" y1="9.788" x2="11.688" y2="16.08" gradientUnits="userSpaceOnUse" gradientTransform="matrix(.94397 0 0 .94397 .615 .79)"/></defs><linearGradient id="d" gradientTransform="matrix(1.3733 0 0 1.375 -4.493 5.125)" gradientUnits="userSpaceOnUse" x1="4.419" x2="20.02" y1="3.523" y2="3.523"><stop offset="0" stop-color="#888a85"/><stop offset="1" stop-color="#888a85" stop-opacity="0"/></linearGradient><radialGradient id="e" cx="1110.5" cy="1543" gradientTransform="matrix(1.815 0 0 1.32015 -2003.643 -2022.362)" gradientUnits="userSpaceOnUse" r="6.141"><stop offset="0" stop-color="#fff"/><stop offset=".553" stop-color="#fff"/><stop offset="1" stop-color="#a2a2a2"/></radialGradient><linearGradient id="j" gradientUnits="userSpaceOnUse" x1="16.372" x2="22.863" y1="9.25" y2="9.25" gradientTransform="translate(0 8)"><stop offset="0" stop-color="#424242" stop-opacity=".741"/><stop offset="1" stop-color="#555753" stop-opacity="0"/></linearGradient><linearGradient id="b" gradientTransform="matrix(.4845 0 0 .34573 69.713 1.858)" gradientUnits="userSpaceOnUse" x1="-51.786" x2="-51.786" y1="53.624" y2="2.906"><stop offset="0" stop-color="#185f9a"/><stop offset="1" stop-color="#599ec9"/></linearGradient><linearGradient id="f" gradientTransform="matrix(2.15356 0 0 2.15625 -2379.475 -3312.997)" gradientUnits="userSpaceOnUse" x1="1107.761" x2="1111.791" y1="1540.819" y2="1544.524"><stop offset="0" stop-color="#90dbec"/><stop offset=".262" stop-color="#55c1ec"/><stop offset=".705" stop-color="#3689e6"/><stop offset="1" stop-color="#2b63a0"/></linearGradient><linearGradient id="h" gradientTransform="matrix(1.3733 0 0 1.2375 -1513.76 -1896.342)" gradientUnits="userSpaceOnUse" x1="1111.665" x2="1106.24" xlink:href="#b" y1="1544.511" y2="1538.409"/><linearGradient id="g" gradientTransform="translate(-1522.32 -2115.592) scale(1.375)" gradientUnits="userSpaceOnUse" x1="1118.513" x2="1111.62" xlink:href="#b" y1="1552.081" y2="1545.444"/><radialGradient id="c" cx="62.625" cy="4.625" gradientTransform="matrix(1.13 0 0 .282 -58.73 18.694)" gradientUnits="userSpaceOnUse" r="10.625"><stop offset="0"/><stop offset="1" stop-opacity="0"/></radialGradient><g transform="matrix(1.333 0 0 1.333 0 -1.838)" fill-rule="evenodd"><path d="M24 20c0 1.657-5.373 3-12 3S0 21.657 0 20s5.373-3 12-3 12 1.343 12 3z" opacity=".3" fill="url(#c)"/><path d="M3.23 14.81l-1.654-.73C2.85 5.937 11.064.59 22.656 10.495l-.202 4.27v.033c-3.134-2.69-5.833-6.14-11.392-6.14-6.382.085-7.377 4.966-7.827 6.153z" fill="url(#d)"/><path d="M22.12 14.8c-2.994 3.856-6.594 4.762-10.21 4.762-3.615 0-8.147-.626-8.848-4.763.76-3.785 2.723-6.1 7.766-6.142 5.51-.047 8.186 3.45 11.292 6.14z" fill="url(#e)" stroke="#000" stroke-width="1.125" stroke-linejoin="round" stroke-dashoffset=".6" stroke-opacity=".659"/><ellipse ry="4.313" rx="4.307" cy="14.097" cx="10.98" fill="url(#f)" stroke="url(#g)" stroke-width=".75"/><ellipse ry="2.475" rx="2.747" cy="13.102" cx="10.613" fill="url(#h)"/><ellipse ry="1.1" rx="1.373" cy="12.551" cx="9.926" fill="#d7e4f1"/><ellipse cx="10.98" cy="14.097" ry="3.739" rx="3.735" fill="none" stroke="url(#i)" stroke-width=".75"/></g><path d="M1.688 22.063c1.218-8.148 10.428-15.02 20.487-3.588" fill="none" stroke="url(#j)" stroke-width="1.125" transform="matrix(1.333 0 0 1.333 0 -12.505)"/></svg>