<?xml version="1.0" encoding="UTF-8" standalone="no"?>
<svg
   xmlns:dc="http://purl.org/dc/elements/1.1/"
   xmlns:cc="http://creativecommons.org/ns#"
   xmlns:rdf="http://www.w3.org/1999/02/22-rdf-syntax-ns#"
   xmlns:svg="http://www.w3.org/2000/svg"
   xmlns="http://www.w3.org/2000/svg"
   xmlns:xlink="http://www.w3.org/1999/xlink"
   xmlns:sodipodi="http://sodipodi.sourceforge.net/DTD/sodipodi-0.dtd"
   xmlns:inkscape="http://www.inkscape.org/namespaces/inkscape"
   height="32"
   width="32"
   version="1.1"
   id="svg51"
   sodipodi:docname="advancedmode.svg"
   inkscape:version="0.92.3 (2405546, 2018-03-11)">
  <metadata
     id="metadata55">
    <rdf:RDF>
      <cc:Work
         rdf:about="">
        <dc:format>image/svg+xml</dc:format>
        <dc:type
           rdf:resource="http://purl.org/dc/dcmitype/StillImage" />
      </cc:Work>
    </rdf:RDF>
  </metadata>
  <sodipodi:namedview
     pagecolor="#ffffff"
     bordercolor="#666666"
     borderopacity="1"
     objecttolerance="10"
     gridtolerance="10"
     guidetolerance="10"
     inkscape:pageopacity="0"
     inkscape:pageshadow="2"
     inkscape:window-width="1316"
     inkscape:window-height="732"
     id="namedview53"
     showgrid="false"
     inkscape:zoom="3.6875"
     inkscape:cx="-34.380639"
     inkscape:cy="-5.8080467"
     inkscape:window-x="50"
     inkscape:window-y="0"
     inkscape:window-maximized="1"
     inkscape:current-layer="svg51" />
  <defs
     id="defs6">
    <linearGradient
       xlink:href="#a"
       id="d"
       gradientUnits="userSpaceOnUse"
       gradientTransform="matrix(0.27962,0,0,-0.26116,5.022,18.693)"
       x1="25.469"
       y1="32.841"
       x2="25.469"
       y2="2.724" />
    <linearGradient
       xlink:href="#b"
       id="e"
       gradientUnits="userSpaceOnUse"
       gradientTransform="matrix(0,0.30606,0.3277,0,5.52,4.564)"
       x1="20.797"
       y1="20.649"
       x2="37.474"
       y2="20.649" />
    <linearGradient
       xlink:href="#a"
       id="f"
       gradientUnits="userSpaceOnUse"
       gradientTransform="matrix(0.27962,0,0,-0.26116,5.022,18.693)"
       x1="25.469"
       y1="32.841"
       x2="25.469"
       y2="2.724" />
    <linearGradient
       xlink:href="#b"
       id="g"
       gradientUnits="userSpaceOnUse"
       gradientTransform="matrix(0,0.30606,0.3277,0,5.52,4.564)"
       x1="20.797"
       y1="20.649"
       x2="37.474"
       y2="20.649" />
  </defs>
  <linearGradient
     id="c"
     gradientTransform="rotate(135 8.168 10.184) scale(.38705 .3192)"
     gradientUnits="userSpaceOnUse"
     x1="23.598"
     x2="37.747"
     y1="23.992"
     y2="39.486">
    <stop
       offset="0"
       stop-color="#eeeeec"
       id="stop8" />
    <stop
       offset="1"
       stop-color="#e0e0de"
       id="stop10" />
  </linearGradient>
  <linearGradient
     id="a"
     gradientTransform="matrix(.27962 0 0 -.26116 5.022 18.693)"
     gradientUnits="userSpaceOnUse"
     x1="25.469"
     x2="25.469"
     y1="32.841"
     y2="2.724">
    <stop
       offset="0"
       stop-color="#cdf87e"
       id="stop13" />
    <stop
       offset=".262"
       stop-color="#a2e34f"
       id="stop15" />
    <stop
       offset=".661"
       stop-color="#68b723"
       id="stop17" />
    <stop
       offset="1"
       stop-color="#1d7e0d"
       id="stop19" />
  </linearGradient>
  <linearGradient
     id="b"
     gradientTransform="matrix(0 .30606 .3277 0 5.52 4.564)"
     gradientUnits="userSpaceOnUse"
     x1="20.797"
     x2="37.474"
     y1="20.649"
     y2="20.649">
    <stop
       offset="0"
       stop-color="#fff"
       id="stop22" />
    <stop
       offset=".512"
       stop-color="#fff"
       stop-opacity=".235"
       id="stop24" />
    <stop
       offset=".585"
       stop-color="#fff"
       stop-opacity=".157"
       id="stop26" />
    <stop
       offset="1"
       stop-color="#fff"
       stop-opacity=".392"
       id="stop28" />
  </linearGradient>
  <g
     stroke-width=".75"
     id="g35">
    <path
       d="M3.484 8.484h13.032v10.032H3.484z"
       fill="url(#c)"
       stroke="#888a85"
       stroke-linecap="round"
       stroke-linejoin="round"
       transform="rotate(-135 14.492 16.565) scale(1.33333)"
       id="path31" />
    <path
       d="M17.453 25.654a.407.407 0 0 0 .574 0l7.583-7.583a.407.407 0 0 0 0-.573L15.2 7.085a.407.407 0 0 0-.575 0l-7.583 7.583a.407.407 0 0 0 0 .575l10.41 10.41z"
       fill="none"
       stroke="#fdfdfb"
       stroke-width=".9999974999999999"
       id="path33" />
  </g>
  <g
     id="g865"
     transform="matrix(1,0,0,-1,-16.418038,25.771149)">
    <path
       id="path37"
       transform="matrix(-0.19156354,-1.3179509,1.3179509,-0.19156354,27.032456,37.33136)"
       display="block"
       d="m 9.303,8.59 c -3.55,2.404 -1.418,7.017 2.2,7.017 v 1.91 l 5,-3.57 -5,-3.34 v 2 c -2.553,0.1 -3.67,-2.34 -1.844,-4.018 z"
       style="display:block;fill:url(#d)"
       inkscape:connector-curvature="0" />
    <path
       id="path39"
       transform="matrix(-0.19156354,-1.3179509,1.3179509,-0.19156354,27.032456,37.33136)"
       stroke-miterlimit="7"
       display="block"
       d="m 8.62,9.833 c -1.252,1.47 -0.124,5.31 3.883,4.785 v 0.99 l 2.33,-1.66 -2.33,-1.51 v 0.79 C 8.106,13.464 8.247,10.428 8.621,9.833 Z"
       style="display:block;opacity:0.8;fill:none;stroke:url(#e);stroke-width:0.75099999;stroke-miterlimit:7"
       inkscape:connector-curvature="0" />
    <path
       id="path41"
       d="m 36.57,23.425 c 3.85,4.22 9.52,0.525 8.828,-4.243 l 2.52,-0.366 -5.666,-5.906 -3.443,7.23 2.635,-0.384 c 0.62,3.345 -2.382,5.283 -4.943,3.2 z"
       inkscape:connector-curvature="0"
       style="opacity:0.5;fill:none;stroke:#0f5a00;stroke-width:1.00018179;stroke-linecap:round;stroke-linejoin:round" />
  </g>
  <g
     id="g49"
     transform="matrix(1,0,0,-1,16.120559,39.669583)">
    <path
       d="m 9.303,8.59 c -3.55,2.404 -1.418,7.017 2.2,7.017 v 1.91 l 5,-3.57 -5,-3.34 v 2 c -2.553,0.1 -3.67,-2.34 -1.844,-4.018 z"
       display="block"
       transform="matrix(0.25281213,1.3091428,-1.3091428,0.25281213,4.4186553,-4.5075911)"
       id="path43"
       style="display:block;fill:url(#f)"
       inkscape:connector-curvature="0" />
    <path
       d="m 8.62,9.833 c -1.252,1.47 -0.124,5.31 3.883,4.785 v 0.99 l 2.33,-1.66 -2.33,-1.51 v 0.79 C 8.106,13.464 8.247,10.428 8.621,9.833 Z"
       display="block"
       stroke-miterlimit="7"
       transform="matrix(0.25281213,1.3091428,-1.3091428,0.25281213,4.4186553,-4.5075911)"
       id="path45"
       style="display:block;opacity:0.8;fill:none;stroke:url(#g);stroke-width:0.75;stroke-miterlimit:7"
       inkscape:connector-curvature="0" />
    <path
       d="m -4.474,9.842 c -4.046,-4.04 -9.546,-0.08 -8.63,4.655 l -2.503,0.483 5.94,5.643 3.107,-7.39 -2.618,0.505 c -0.775,-3.316 2.136,-5.393 4.794,-3.43 z"
       id="path47"
       inkscape:connector-curvature="0"
       style="opacity:0.5;fill:none;stroke:#0f5a00;stroke-width:0.9999975;stroke-linecap:round;stroke-linejoin:round" />
  </g>
</svg>
