<svg xmlns="http://www.w3.org/2000/svg" xmlns:xlink="http://www.w3.org/1999/xlink" width="32" height="32" viewBox="0 0 8.4666665 8.4666669"><defs><linearGradient id="a"><stop offset="0" stop-color="#737373"/><stop offset=".262" stop-color="#636363"/><stop offset=".705" stop-color="#4b4b4b"/><stop offset="1" stop-color="#3f3f3f"/></linearGradient><linearGradient xlink:href="#a" id="d" x1="3.969" y1="290.121" x2="7.938" y2="290.121" gradientUnits="userSpaceOnUse"/><linearGradient xlink:href="#a" id="e" gradientUnits="userSpaceOnUse" x1="3.969" y1="290.121" x2="7.938" y2="290.121"/><linearGradient xlink:href="#a" id="b" gradientUnits="userSpaceOnUse" x1="3.969" y1="290.121" x2="7.938" y2="290.121"/><linearGradient xlink:href="#a" id="c" gradientUnits="userSpaceOnUse" x1="3.969" y1="290.121" x2="7.938" y2="290.121"/><linearGradient xlink:href="#a" id="f" gradientUnits="userSpaceOnUse" x1="3.969" y1="290.121" x2="7.938" y2="290.121"/></defs><path d="M7.938 4.366c0-.07-.387-.132-.838-.132H1.517c-.45 0-.988.06-.988.132v.264c0 .07.535.132.986.132H7.1c.45 0 .838-.06.838-.132z" opacity=".35" fill="#fff"/><path d="M3.97 289.856h3.967v.53H3.97z" fill="url(#b)" transform="matrix(1.86667 0 0 1 -6.88 -285.887)"/><path d="M5.82 5.69c0-.072-.275-.133-.597-.133H1.235c-.323 0-.706.06-.706.132v.262c0 .07.38.132.704.132h3.988c.322 0 .598-.06.598-.132z" opacity=".35" fill="#fff"/><path d="M3.97 289.856h3.967v.53H3.97z" fill="url(#c)" transform="matrix(1.33333 0 0 1 -4.763 -284.565)"/><path d="M7.938 1.72c0-.07-.387-.132-.838-.132H1.517c-.45 0-.988.06-.988.132v.264c0 .072.535.132.986.132H7.1c.45 0 .838-.06.838-.132z" opacity=".35" fill="#fff"/><path d="M3.97 289.856h3.967v.53H3.97z" fill="url(#d)" transform="matrix(1.86667 0 0 1 -6.88 -288.533)"/><path d="M5.82 3.043c0-.07-.275-.132-.597-.132H1.235c-.323 0-.706.063-.706.134v.264c0 .07.38.132.704.132h3.988c.322 0 .598-.062.598-.133z" opacity=".35" fill="#fff"/><path d="M3.97 289.856h3.967v.53H3.97z" fill="url(#e)" transform="matrix(1.33333 0 0 1 -4.763 -287.21)"/><g><path d="M7.938 7.012c0-.072-.387-.133-.838-.133H1.517c-.45 0-.988.06-.988.13v.265c0 .07.535.132.986.132H7.1c.45 0 .838-.06.838-.132z" opacity=".35" fill="#fff"/><path d="M3.97 289.856h3.967v.53H3.97z" fill="url(#f)" transform="matrix(1.86667 0 0 1 -6.88 -283.242)"/></g></svg>