<?xml version="1.0" encoding="UTF-8" standalone="no"?>
<svg
   xmlns:dc="http://purl.org/dc/elements/1.1/"
   xmlns:cc="http://creativecommons.org/ns#"
   xmlns:rdf="http://www.w3.org/1999/02/22-rdf-syntax-ns#"
   xmlns:svg="http://www.w3.org/2000/svg"
   xmlns="http://www.w3.org/2000/svg"
   xmlns:xlink="http://www.w3.org/1999/xlink"
   xmlns:sodipodi="http://sodipodi.sourceforge.net/DTD/sodipodi-0.dtd"
   xmlns:inkscape="http://www.inkscape.org/namespaces/inkscape"
   height="32"
   width="32"
   version="1.1"
   id="svg102"
   sodipodi:docname="animationmode.svg"
   inkscape:version="0.92.3 (unknown)">
  <metadata
     id="metadata108">
    <rdf:RDF>
      <cc:Work
         rdf:about="">
        <dc:format>image/svg+xml</dc:format>
        <dc:type
           rdf:resource="http://purl.org/dc/dcmitype/StillImage" />
      </cc:Work>
    </rdf:RDF>
  </metadata>
  <defs
     id="defs106">
    <radialGradient
       id="a-7"
       cx="6.702713"
       cy="73.615715"
       gradientTransform="matrix(1.3166457,0,0,0.28801944,14.174902,8.61329)"
       gradientUnits="userSpaceOnUse"
       r="7.228416"
       xlink:href="#b" />
    <linearGradient
       id="linearGradient2006">
      <stop
         offset="0"
         id="stop1264" />
      <stop
         offset="1"
         stop-opacity="0"
         id="stop1266" />
    </linearGradient>
    <linearGradient
       id="c-7"
       gradientUnits="userSpaceOnUse"
       x1="22.881355"
       x2="22.644068"
       y1="14.457627"
       y2="31.338984">
      <stop
         offset="0"
         stop-color="#f6f6f6"
         id="stop1269" />
      <stop
         offset="1"
         stop-color="#d2d2d2"
         id="stop1271" />
    </linearGradient>
    <linearGradient
       id="d-4"
       gradientUnits="userSpaceOnUse"
       x1="23.031893"
       x2="23.040016"
       y1="26.715307"
       y2="18.997057">
      <stop
         offset="0"
         stop-color="#fff"
         id="stop1274" />
      <stop
         offset="1"
         stop-color="#959595"
         id="stop1276" />
    </linearGradient>
    <linearGradient
       id="e-0"
       gradientUnits="userSpaceOnUse"
       x1="23.131727"
       x2="23.398602"
       y1="16.459263"
       y2="30.159456">
      <stop
         offset="0"
         stop-color="#fff"
         id="stop1279" />
      <stop
         offset="1"
         stop-color="#fff"
         stop-opacity="0"
         id="stop1281" />
    </linearGradient>
  </defs>
  <sodipodi:namedview
     pagecolor="#ffffff"
     bordercolor="#666666"
     borderopacity="1"
     objecttolerance="10"
     gridtolerance="10"
     guidetolerance="10"
     inkscape:pageopacity="0"
     inkscape:pageshadow="2"
     inkscape:window-width="1366"
     inkscape:window-height="706"
     id="namedview104"
     showgrid="false"
     inkscape:zoom="7.375"
     inkscape:cx="-2.3050847"
     inkscape:cy="14.915254"
     inkscape:window-x="0"
     inkscape:window-y="0"
     inkscape:window-maximized="1"
     inkscape:current-layer="g100" />
  <clipPath
     id="a">
    <path
       d="m27.728118 6.9581596c-.203924.05238-.393807.168814-.535156.335938-.282223.333582-.330464.814213-.107422 1.199218.000337.000581-.000338.0014 0 .002l2.648438 4.7480464c.09352.167248.07541.458328-.242188.921876-.3199.466906-.90081.987788-1.658203 1.40039-.761111.414611-1.51377.629239-2.082031.648438-.569006.01928-.846458-.130557-.939453-.296875l-2.667969-4.78125c-.164708-.29364-.468451-.491106-.796875-.529297-.328559-.03816-.665886.07794-.898438.333984-.116266.125838-.206651.282651-.25.462891a.57980845.57980845 0 0 0 0 .0039c-.545206 2.348225-.308221 4.997126.763672 6.914063 1.421915 2.542922 4.33284 3.746753 7.195313 3.330078 1.008326.348456 2.378214 1.105136 4.044922 2.759765l1.277343 1.267578a.57980845.57980845 0 0 0 .408204.167969h4.945312a.57980845.57980845 0 0 0 .580078-.580118v-3.236328a.57980845.57980845 0 0 0 -.171875-.41211l-2.119141-2.103515c-1.492289-1.481461-2.251316-2.718752-2.648437-3.681641.315556-1.513087.169512-3.117028-.628906-4.544922-1.071273-1.9158004-3.207494-3.5016154-5.498047-4.2968754-.19838-.07131-.414221-.08581-.619141-.0332z"
       id="path2" />
  </clipPath>
  <linearGradient
     id="b">
    <stop
       offset="0"
       id="stop5" />
    <stop
       offset="1"
       stop-opacity="0"
       id="stop7" />
  </linearGradient>
  <radialGradient
     id="c"
     cx="605.71429"
     cy="486.64789"
     gradientTransform="matrix(.02303995 0 0 .01470022 26.360882 21.040176)"
     gradientUnits="userSpaceOnUse"
     r="117.14286"
     xlink:href="#b" />
  <linearGradient
     id="d"
     gradientUnits="userSpaceOnUse"
     x1="39.706413"
     x2="41.641293"
     y1="28.004978"
     y2="31.442352">
    <stop
       offset="0"
       stop-color="#d4d4d4"
       id="stop11" />
    <stop
       offset="1"
       stop-color="#d4d4d4"
       stop-opacity="0"
       id="stop13" />
  </linearGradient>
  <linearGradient
     id="e"
     gradientUnits="userSpaceOnUse"
     x1="38.832764"
     x2="40.777378"
     y1="28.151825"
     y2="31.460476">
    <stop
       offset="0"
       stop-color="#555761"
       id="stop16" />
    <stop
       offset="1"
       stop-color="#555761"
       stop-opacity="0"
       id="stop18" />
  </linearGradient>
  <linearGradient
     id="f"
     gradientTransform="matrix(1.1811195 0 0 1.1804503 -332.45814 -53.518446)"
     gradientUnits="userSpaceOnUse"
     x1="302.29202"
     x2="308.64914"
     y1="58.442768"
     y2="60.767513">
    <stop
       offset="0"
       stop-color="#abacae"
       id="stop21" />
    <stop
       offset="1"
       stop-color="#fafafa"
       id="stop23" />
  </linearGradient>
  <linearGradient
     id="g">
    <stop
       offset="0"
       stop-color="#fff"
       id="stop26" />
    <stop
       offset="1"
       stop-color="#fff"
       stop-opacity="0"
       id="stop28" />
  </linearGradient>
  <linearGradient
     id="h"
     gradientUnits="userSpaceOnUse"
     x1="37.788918"
     x2="40.779758"
     xlink:href="#g"
     y1="27.894802"
     y2="32.102356" />
  <radialGradient
     id="i"
     cx="62.625"
     cy="4.625"
     gradientTransform="matrix(1.1278165 0 0 .2823525 -58.629512 27.694118)"
     gradientUnits="userSpaceOnUse"
     r="10.625"
     xlink:href="#b" />
  <linearGradient
     id="j"
     gradientTransform="matrix(1.2571399 0 0 .76049252 -6.17136 7.081513)"
     gradientUnits="userSpaceOnUse"
     x1="25.132275"
     x2="25.132275"
     y1=".985206"
     y2="47.013336">
    <stop
       offset="0"
       stop-color="#f4f4f4"
       id="stop33" />
    <stop
       offset="1"
       stop-color="#dbdbdb"
       id="stop35" />
  </linearGradient>
  <linearGradient
     id="k"
     gradientTransform="matrix(1.1621622 0 0 .91891889 -3.891888 4.445954)"
     gradientUnits="userSpaceOnUse"
     x1="23.99999"
     x2="23.99999"
     y1="5.56415"
     y2="43">
    <stop
       offset="0"
       stop-color="#fff"
       id="stop38" />
    <stop
       offset=".03626217"
       stop-color="#fff"
       stop-opacity=".235294"
       id="stop40" />
    <stop
       offset=".95056331"
       stop-color="#fff"
       stop-opacity=".156863"
       id="stop42" />
    <stop
       offset="1"
       stop-color="#fff"
       stop-opacity=".392157"
       id="stop44" />
  </linearGradient>
  <linearGradient
     id="l"
     gradientTransform="matrix(-.48995989 .00069868 .00181362 -.38149037 57.128707 48.266601)"
     gradientUnits="userSpaceOnUse"
     x1="45.414135"
     x2="45.567307"
     xlink:href="#m"
     y1="15.270427"
     y2="96.25267" />
  <linearGradient
     id="m">
    <stop
       offset="0"
       stop-color="#262626"
       id="stop48" />
    <stop
       offset="1"
       stop-color="#4d4d4d"
       id="stop50" />
  </linearGradient>
  <linearGradient
     id="n"
     gradientTransform="matrix(1.0382097 0 0 .73204138 69.527413 5.654868)"
     gradientUnits="userSpaceOnUse"
     x1="-65.960899"
     x2="-21.65386"
     xlink:href="#m"
     y1="61.170689"
     y2="-4.016581" />
  <radialGradient
     id="o"
     cx="7.495683"
     cy="8.449767"
     gradientTransform="matrix(.00000002 1.7677232 -2.4310525 -.00000003 44.541938 -1.059662)"
     gradientUnits="userSpaceOnUse"
     r="19.99999">
    <stop
       offset="0"
       stop-color="#f0c1ff"
       id="stop54" />
    <stop
       offset=".26238"
       stop-color="#c5a3f2"
       id="stop56" />
    <stop
       offset=".704952"
       stop-color="#7a36b1"
       id="stop58" />
    <stop
       offset="1"
       stop-color="#4c2d81"
       id="stop60" />
  </radialGradient>
  <linearGradient
     id="p"
     gradientUnits="userSpaceOnUse"
     x1="27.825897"
     x2="10.842305"
     xlink:href="#g"
     y1="20.378443"
     y2="27.73667" />
  <g
     transform="matrix(1.33333 0 0 1.33333 .00004 -12.231805)"
     id="g100">
    <path
       d="m23.983051 29c0 1.656854-5.364995 3-11.983051 3-6.6180568 0-11.98305081-1.343146-11.98305081-3s5.36499401-3 11.98305081-3c6.618056 0 11.983051 1.343146 11.983051 3z"
       fill="url(#i)"
       fill-rule="evenodd"
       opacity=".3"
       id="path64" />
    <g
       transform="matrix(.52173912 0 0 .52173912 -.521736 7.34782)"
       id="g88">
      <path
         d="m44.701172 10.111328s-31.321664.05273-41.404297.05273l.00586 34.15625 41.4003906.002z"
         fill="url(#j)"
         id="path66" />
      <path
         d="m44.202589 43.821573-40.3995691-.001333-.0064485-33.157053 40.4051846-.05482z"
         fill="none"
         stroke="url(#k)"
         stroke-linecap="round"
         stroke-linejoin="round"
         stroke-width="1.437504"
         id="path68" />
      <path
         d="m42.341725 41.882373-36.6658144.073.010832-29.408294 36.6658094-.073z"
         fill="url(#l)"
         stroke="#9a69d7"
         stroke-linecap="round"
         stroke-width=".718752"
         id="path70" />
      <path
         d="m2.7965299 9.6631237c10.3117931 0 42.4052161-.05232 42.4052161-.05232l.000858 35.2108333-42.3996476-.0013-.00645-35.1569673z"
         fill="none"
         opacity=".781"
         stroke="url(#n)"
         stroke-linejoin="round"
         stroke-width=".718752"
         id="path72" />
      <path
         d="m6.0117453 12.797077 36.0158107-.073-.01084 28.908295-36.0158101.073z"
         fill="url(#o)"
         id="path74" />
      <g
         transform="matrix(1.5984524 0 0 1.5984524 -8.386072 -13.558589)"
         id="g86">
        <path
           d="m9.0765278 26.118046c16.6779622 1.057649 9.5829252-9.218023 22.4709852-9.524788l-.01703 7.245176c-5.881284-2.742344-10.064569 11.553607-22.5304829 3.274476z"
           fill="url(#p)"
           fill-rule="evenodd"
           opacity=".444444"
           id="path76" />
        <g
           fill="#fff"
           id="g84">
          <path
             d="m27.986045 24.327006-2.938427-.43211-1.774472 2.24411-.497063-2.928138-2.682618-.994156 2.631225-1.377581.116523-2.858531 2.12325 2.076748 2.754633-.772514-1.318984 2.66108z"
             id="path78" />
          <path
             d="m20.200249 29.319792-1.149915-1.546425-1.843753.215473 1.115394-1.571507-.774678-1.686928 1.839268.575181 1.364975-1.258053.02133 1.926988 1.618279.90941-1.826081.615763-.364824 1.820098z"
             id="path80" />
          <path
             d="m15.27636 29.286702-1.293465-.493574-1.034251.841863.06971-1.38268-1.120261-.723481 1.33655-.36097.341892-1.289.756319 1.159589 1.331562-.07316-.869119 1.077635.481059 1.243782z"
             id="path82" />
        </g>
      </g>
    </g>
    <g
       transform="matrix(0.75000188,0,0,0.75000188,-3.0067425e-5,9.1738766)"
       id="g1949">
      <path
         style="opacity:0.2;fill:url(#a-7)"
         inkscape:connector-curvature="0"
         id="path1324"
         d="m 32.517262,29.816046 c 0,1.149816 -4.261024,2.081925 -9.517262,2.081925 -5.256239,0 -9.517262,-0.932109 -9.517262,-2.081925 0,-1.149815 4.261023,-2.081924 9.517262,-2.081924 5.256238,0 9.517262,0.932109 9.517262,2.081924 z" />
      <path
         style="fill:url(#c-7)"
         inkscape:connector-curvature="0"
         id="path1326"
         d="m 22,14.5 c -0.554,0 -1,0.446 -1,1 v 1.886719 a 5.9661016,5.9661016 0 0 0 -0.556641,0.228515 l -1.332031,-1.332031 c -0.391737,-0.391737 -1.022325,-0.391737 -1.414062,0 l -1.414063,1.414063 c -0.391737,0.391737 -0.391737,1.022325 0,1.414062 l 1.333985,1.333984 A 5.9661016,5.9661016 0 0 0 17.386719,21 H 15.5 c -0.554,0 -1,0.446 -1,1 v 2 c 0,0.554 0.446,1 1,1 h 1.886719 a 5.9661016,5.9661016 0 0 0 0.228515,0.556641 l -1.332031,1.332031 c -0.391737,0.391737 -0.391737,1.022325 0,1.414062 l 1.414063,1.414063 c 0.391737,0.391737 1.022325,0.391737 1.414062,0 l 1.333984,-1.333985 A 5.9661016,5.9661016 0 0 0 21,28.613281 V 30.5 c 0,0.554 0.446,1 1,1 h 2 c 0.554,0 1,-0.446 1,-1 v -1.886719 a 5.9661016,5.9661016 0 0 0 0.556641,-0.228515 l 1.332031,1.332031 c 0.391737,0.391737 1.022325,0.391737 1.414062,0 l 1.414063,-1.414063 c 0.391737,-0.391737 0.391737,-1.022325 0,-1.414062 L 28.382812,25.554688 A 5.9661016,5.9661016 0 0 0 28.613281,25 H 30.5 c 0.554,0 1,-0.446 1,-1 v -2 c 0,-0.554 -0.446,-1 -1,-1 h -1.886719 a 5.9661016,5.9661016 0 0 0 -0.228515,-0.556641 l 1.332031,-1.332031 c 0.391737,-0.391737 0.391737,-1.022325 0,-1.414062 l -1.414063,-1.414063 c -0.391737,-0.391737 -1.022325,-0.391737 -1.414062,0 l -1.333984,1.333985 A 5.9661016,5.9661016 0 0 0 25,17.386719 V 15.5 c 0,-0.554 -0.446,-1 -1,-1 z m 1,6.503906 A 1.9954157,1.9954157 0 0 1 24.996094,23 1.9954157,1.9954157 0 0 1 23,24.996094 1.9954157,1.9954157 0 0 1 21.003906,23 1.9954157,1.9954157 0 0 1 23,21.003906 Z" />
      <g
         style="fill:none;stroke-linecap:square;stroke-linejoin:round"
         id="g1334">
        <path
           style="opacity:0.3;stroke:#000000"
           inkscape:connector-curvature="0"
           id="path1328"
           d="m 22,14.5 c -0.554,0 -1,0.446 -1,1 v 1.886719 a 5.9661016,5.9661016 0 0 0 -0.556641,0.228515 l -1.332031,-1.332031 c -0.391737,-0.391737 -1.022325,-0.391737 -1.414062,0 l -1.414063,1.414063 c -0.391737,0.391737 -0.391737,1.022325 0,1.414062 l 1.333985,1.333984 A 5.9661016,5.9661016 0 0 0 17.386719,21 H 15.5 c -0.554,0 -1,0.446 -1,1 v 2 c 0,0.554 0.446,1 1,1 h 1.886719 a 5.9661016,5.9661016 0 0 0 0.228515,0.556641 l -1.332031,1.332031 c -0.391737,0.391737 -0.391737,1.022325 0,1.414062 l 1.414063,1.414063 c 0.391737,0.391737 1.022325,0.391737 1.414062,0 l 1.333984,-1.333985 A 5.9661016,5.9661016 0 0 0 21,28.613281 V 30.5 c 0,0.554 0.446,1 1,1 h 2 c 0.554,0 1,-0.446 1,-1 v -1.886719 a 5.9661016,5.9661016 0 0 0 0.556641,-0.228515 l 1.332031,1.332031 c 0.391737,0.391737 1.022325,0.391737 1.414062,0 l 1.414063,-1.414063 c 0.391737,-0.391737 0.391737,-1.022325 0,-1.414062 L 28.382812,25.554688 A 5.9661016,5.9661016 0 0 0 28.613281,25 H 30.5 c 0.554,0 1,-0.446 1,-1 v -2 c 0,-0.554 -0.446,-1 -1,-1 h -1.886719 a 5.9661016,5.9661016 0 0 0 -0.228515,-0.556641 l 1.332031,-1.332031 c 0.391737,-0.391737 0.391737,-1.022325 0,-1.414062 l -1.414063,-1.414063 c -0.391737,-0.391737 -1.022325,-0.391737 -1.414062,0 l -1.333984,1.333985 A 5.9661016,5.9661016 0 0 0 25,17.386719 V 15.5 c 0,-0.554 -0.446,-1 -1,-1 z m 1,6.503906 A 1.9954157,1.9954157 0 0 1 24.996094,23 1.9954157,1.9954157 0 0 1 23,24.996094 1.9954157,1.9954157 0 0 1 21.003906,23 1.9954157,1.9954157 0 0 1 23,21.003906 Z" />
        <circle
           style="stroke:url(#d-4)"
           id="circle1330"
           r="3.998385"
           cy="23"
           cx="23" />
        <path
           style="stroke:url(#e-0)"
           inkscape:connector-curvature="0"
           id="path1332"
           d="m 22,15.5 v 1.886719 a 0.99989607,0.99989607 0 0 1 -0.667969,0.943359 c -0.157521,0.05556 -0.311767,0.118308 -0.46289,0.189453 a 0.99989607,0.99989607 0 0 1 -1.132813,-0.197265 l -1.332031,-1.332032 -1.414063,1.414063 1.333985,1.333984 A 0.99989607,0.99989607 0 0 1 18.519531,20.875 c -0.07165,0.150561 -0.135262,0.303936 -0.191406,0.460938 A 0.99989607,0.99989607 0 0 1 17.386719,22 H 15.5 v 2 h 1.886719 a 0.99989607,0.99989607 0 0 1 0.943359,0.667969 c 0.05556,0.157521 0.118308,0.311767 0.189453,0.46289 a 0.99989607,0.99989607 0 0 1 -0.197265,1.132813 l -1.332032,1.332031 1.414063,1.414063 1.333984,-1.333985 A 0.99989607,0.99989607 0 0 1 20.875,27.480469 c 0.150561,0.07165 0.303936,0.135262 0.460938,0.191406 A 0.99989607,0.99989607 0 0 1 22,28.613281 V 30.5 h 2 v -1.886719 a 0.99989607,0.99989607 0 0 1 0.667969,-0.943359 c 0.157521,-0.05556 0.311767,-0.118308 0.46289,-0.189453 a 0.99989607,0.99989607 0 0 1 1.132813,0.197265 l 1.332031,1.332032 1.414063,-1.414063 -1.333985,-1.333984 A 0.99989607,0.99989607 0 0 1 27.480469,25.125 c 0.07165,-0.150561 0.135262,-0.303936 0.191406,-0.460938 A 0.99989607,0.99989607 0 0 1 28.613281,24 H 30.5 v -2 h -1.886719 a 0.99989607,0.99989607 0 0 1 -0.943359,-0.667969 c -0.05556,-0.157521 -0.118308,-0.311767 -0.189453,-0.46289 a 0.99989607,0.99989607 0 0 1 0.197265,-1.132813 l 1.332032,-1.332031 -1.414063,-1.414063 -1.333984,1.333985 A 0.99989607,0.99989607 0 0 1 25.125,18.519531 c -0.150561,-0.07165 -0.303936,-0.135262 -0.460938,-0.191406 A 0.99989607,0.99989607 0 0 1 24,17.386719 V 15.5 Z m 1,6.503906 c -0.588024,2e-4 0.772067,0.134102 0.195312,0.01953 -0.576754,-0.114571 0.728849,0.281575 0.185547,0.05664 -0.543301,-0.224934 0.66278,0.418444 0.173829,0.0918 -0.488952,-0.326647 0.566186,0.538842 0.15039,0.123047 -0.415795,-0.415796 0.449694,0.639342 0.123047,0.15039 -0.326647,-0.488951 0.316731,0.71713 0.0918,0.173829 -0.224935,-0.543302 0.171211,0.762301 0.05664,0.185547 -0.11457,-0.576755 0.01933,0.783336 0.01953,0.195312 -2e-4,-0.588024 -0.134102,0.772067 -0.01953,0.195312 0.114571,-0.576754 -0.281575,0.728849 -0.05664,0.185547 0.224934,-0.543301 -0.418444,0.66278 -0.0918,0.173829 0.326647,-0.488952 -0.538842,0.566186 -0.123047,0.15039 0.415796,-0.415795 -0.639342,0.449694 -0.15039,0.123047 0.488951,-0.326647 -0.71713,0.316731 -0.173829,0.0918 0.543302,-0.224935 -0.762301,0.171211 -0.185547,0.05664 0.576755,-0.11457 -0.783336,0.01933 -0.195312,0.01953 0.588024,-2e-4 -0.772067,-0.134102 -0.195312,-0.01953 0.576754,0.114571 -0.728849,-0.281575 -0.185547,-0.05664 0.543301,0.224934 -0.66278,-0.418444 -0.173829,-0.0918 0.488952,0.326647 -0.566186,-0.538842 -0.15039,-0.123047 0.415795,0.415796 -0.449694,-0.639342 -0.123047,-0.15039 0.326647,0.488951 -0.316731,-0.71713 -0.0918,-0.173829 0.224935,0.543302 -0.171211,-0.762301 -0.05664,-0.185547 0.11457,0.576755 -0.01933,-0.783336 -0.01953,-0.195312 2e-4,0.588024 0.134102,-0.772067 0.01953,-0.195312 -0.114571,0.576754 0.281575,-0.728849 0.05664,-0.185547 -0.224934,0.543301 0.418444,-0.66278 0.0918,-0.173829 -0.326647,0.488952 0.538842,-0.566186 0.123047,-0.15039 -0.415796,0.415795 0.639342,-0.449694 0.15039,-0.123047 -0.488951,0.326647 0.71713,-0.316731 0.173829,-0.0918 -0.543302,0.224935 0.762301,-0.171211 0.185547,-0.05664 -0.576755,0.11457 0.783336,-0.01933 0.195312,-0.01953 z" />
      </g>
    </g>
  </g>
</svg>
