<svg height="32" width="32" xmlns="http://www.w3.org/2000/svg" xmlns:xlink="http://www.w3.org/1999/xlink"><linearGradient id="a"><stop offset="0"/><stop offset="1" stop-opacity="0"/></linearGradient><linearGradient id="b" gradientTransform="matrix(.56756757 0 0 .72972971 2.378382 -2.513506)" gradientUnits="userSpaceOnUse" x1="9.904756" x2="44.261898" y1="21.3309" y2="21.95442"><stop offset="0" stop-color="#fff"/><stop offset=".17391317" stop-color="#fff" stop-opacity=".235294"/><stop offset=".95056331" stop-color="#fff" stop-opacity=".156863"/><stop offset="1" stop-color="#fff" stop-opacity=".392157"/></linearGradient><linearGradient id="c" gradientTransform="matrix(.62856997 0 0 .60839392 .91432 -.534791)" gradientUnits="userSpaceOnUse" x1="3.318135" x2="39.90913" y1="30.465115" y2="30.465115"><stop offset="0" stop-color="#f4f4f4"/><stop offset="1" stop-color="#dbdbdb"/></linearGradient><radialGradient id="d" cx="605.71429" cy="486.64789" gradientTransform="matrix(.01901019 0 0 .02023927 18.043313 18.079355)" gradientUnits="userSpaceOnUse" r="117.14286" xlink:href="#a"/><radialGradient id="e" cx="605.71429" cy="486.64789" gradientTransform="matrix(-.01901019 0 0 .02023927 14.134189 18.079355)" gradientUnits="userSpaceOnUse" r="117.14286" xlink:href="#a"/><linearGradient id="f" gradientTransform="matrix(.05554955 0 0 .02023927 -3.988445 18.079313)" gradientUnits="userSpaceOnUse" x1="302.85715" x2="302.85715" y1="366.64789" y2="609.50507"><stop offset="0" stop-opacity="0"/><stop offset=".5"/><stop offset="1" stop-opacity="0"/></linearGradient><linearGradient id="g" gradientTransform="matrix(.53064141 0 0 .58970049 39.269607 -1.791918)" gradientUnits="userSpaceOnUse" x1="-51.786404" x2="-51.786404" y1="50.786446" y2="2.906247"><stop offset="0" stop-opacity=".317829"/><stop offset="1" stop-opacity=".24031"/></linearGradient><linearGradient id="h" gradientTransform="matrix(1.0698189 0 0 1.0698191 -186.28965 -12.512006)" gradientUnits="userSpaceOnUse" x1="188" x2="188" xlink:href="#i" y1="17" y2="36.026299"/><linearGradient id="i"><stop offset="0" stop-color="#fff"/><stop offset="1" stop-color="#fff" stop-opacity="0"/></linearGradient><linearGradient id="j" gradientTransform="matrix(1.0666675 0 0 1.0666676 -185.98796 -12.145548)" gradientUnits="userSpaceOnUse" x1="182" x2="182" xlink:href="#i" y1="33" y2="24.519934"/><path d="m2.677502 25.5h26.822498v4.915254h-26.822498z" fill="url(#f)" opacity=".15"/><path d="m2.6775017 25.500212v4.914984c-.9789777.0093-2.36669116-1.101199-2.36669116-2.457809s1.09246476-2.457175 2.36669116-2.457175z" fill="url(#e)" opacity=".15"/><path d="m29.500001 25.500212v4.914984c.978977.0093 2.366691-1.101199 2.366691-2.457809s-1.092465-2.457175-2.366691-2.457175z" fill="url(#d)" opacity=".15"/><g transform="matrix(0 1 -1 0 31 -1)"><path d="m5 1c5.041316 0 21.999973.00179 21.999973.00179l.000027 27.99821s-14.666666 0-22 0c0-9.333333 0-18.666664 0-27.9999959z" fill="url(#c)"/><g fill="none" stroke-linejoin="round"><path d="m26.5 28.5h-21v-27h21z" stroke="url(#b)" stroke-linecap="round"/><path d="m4.499961.499944c5.27048 0 23.000054.002 23.000054.002l.000024 28.998112s-15.333385 0-23.000078 0c0-9.666722 0-19.333346 0-28.999956z" stroke="url(#g)" stroke-width=".999922"/></g></g><path d="m1.4999999 4.4999993 22.0000001 21.9999987h-22.0000001zm4.999959 12.0211447v4.978856h4.9788891z" fill="#81d72c" fill-opacity=".588235" fill-rule="evenodd" stroke="#4e9a06" stroke-linejoin="round"/><path d="m2.4999589 6.8729346v18.6270654h18.6270701s-18.6270701-18.6270654-18.6270701-18.6270654z" fill="none" opacity=".5" stroke="url(#h)"/><path d="m5.4999589 14.521141v8.000007h7.3122231" fill="none" opacity=".5" stroke="url(#j)"/><path d="m1.9999589 7.0000005h1v.6799992h-1zm0 2.0399997h1v.6800002h-1zm0 2.0399998h1v.679999h-1zm0 2.04h1v.68h-1zm0 2.039999h1v.680001h-1zm0 2.040002h1v.68h-1zm0 2.039999h1v.68h-1zm0 2.040001h1v.679999h-1zm0 2.039999h1v.68h-1z" opacity=".15"/><path d="m1.9999589 8.0000005h1v.6800003h-1zm0 2.0399995h1v.68h-1zm0 2.04h1v.679999h-1zm0 2.04h1v.680001h-1zm0 2.04h1v.68h-1zm0 2.04h1v.68h-1zm0 2.04h1v.68h-1zm0 2.04h1v.68h-1zm0 2.039999h1v.680001h-1z" fill="#fff" opacity=".15"/><path d="m19.999959 25v1h-.653839v-1zm-1.961518 0v1h-.653839v-1zm-1.961517 0v1h-.65384v-1zm-1.961519 0v1h-.653839v-1zm-1.961519 0v1h-.653839v-1zm-1.961518 0v1h-.6538389v-1zm-1.9615174 0v1h-.6538393v-1zm-1.9615189 0v1h-.6538392v-1zm-1.9615178 0v1h-.6538393v-1z" opacity=".15"/><path d="m19.345944 25v1h-.653839v-1zm-1.961518 0v1h-.65384v-1zm-1.961518 0v1h-.653839v-1zm-1.961518 0v1h-.65384v-1zm-1.961519 0v1h-.65384v-1zm-1.9615173 0v1h-.6538393v-1zm-1.9615188 0v1h-.6538393v-1zm-1.9615179 0v1h-.6538393v-1zm-1.9615189 0v1h-.6538392v-1z" fill="#fff" opacity=".15"/><path d="m4.5 27.5h18.999958" fill="none" opacity=".3" stroke="#85f619" stroke-linecap="square"/></svg>