<svg xmlns="http://www.w3.org/2000/svg" height="32" viewBox="0 0 8.4666665 8.4666669" width="32"><linearGradient id="a" gradientUnits="userSpaceOnUse" x1="17.55" x2="21.499" y1="11.109" y2="14.772"><stop offset="0" stop-color="#fce94f"/><stop offset="1" stop-color="#d7b031"/></linearGradient><radialGradient id="b" cx="16.313" cy="20.938" gradientTransform="matrix(1 0 0 .17347 1.5 17.305)" gradientUnits="userSpaceOnUse" r="6.125"><stop offset="0"/><stop offset="1" stop-opacity="0"/></radialGradient><g transform="matrix(.35278 0 0 .35278 -1.5 -1.62)"><path d="M13.656 17.594l-.75.906 1 1 .844-.656z" fill-rule="evenodd" fill="#cecece"/><path d="M10.906 20.5h2l1-1-1-1z" fill-rule="evenodd" fill="#fce94f"/><path d="M13.5 15l4 4 7-7c.684-.504 0-1 0-1l-3-3s-.496-.576-1 0z" fill-rule="evenodd" fill="url(#a)"/><path d="M13.5 15l4 4 7-7c.612-.504 0-1 0-1l-3-3s-.46-.54-1 0z" stroke-linejoin="round" stroke-width=".75" stroke="#bf830a" fill="none" stroke-opacity=".894"/><path d="M13.5 15v2l2 2h2z" fill-rule="evenodd" fill="#cecece"/><path d="M10.906 20.5h2l1-1-1-1z" stroke-linejoin="round" stroke-width=".75" stroke="#bf830a" fill="none" stroke-opacity=".894"/><path d="M13.656 17.594l-.75.906 1 1 .844-.656z" stroke-width=".75" stroke="#444" fill="none" stroke-opacity=".728"/><ellipse cx="17.813" cy="20.938" rx="6.125" ry="1.063" fill="url(#b)" opacity=".1"/><path d="M13.5 15v2l2 2h2z" stroke-linejoin="round" stroke-width=".75" stroke="#444" fill="none" stroke-opacity=".728"/><g stroke-linecap="round" stroke-width=".75" fill="none"><path d="M14.462 15.022l6.72-6.498M13.835 17.246l-.006-1.13" opacity=".5" stroke="#fff"/><g stroke="#000"><path d="M17.365 18.04l6.622-6.598M15.683 18.73l1.25.064" opacity=".1"/></g></g></g></svg>