<svg xmlns="http://www.w3.org/2000/svg" xmlns:xlink="http://www.w3.org/1999/xlink" width="32" height="32"><defs><linearGradient xlink:href="#a" id="e" gradientUnits="userSpaceOnUse" gradientTransform="matrix(.98295 0 0 1.01735 23.947 8.01)" x1="-20.846" y1="3.243" x2="-13.585" y2="11.795"/><linearGradient id="g" gradientTransform="matrix(0 -.2968 .321 0 4.42 32.012)" gradientUnits="userSpaceOnUse" x1="34.398" x2="34.205" y1="9.103" y2="33.968"><stop offset="0" stop-color="#fff"/><stop offset=".188" stop-color="#fff" stop-opacity=".235"/><stop offset=".971" stop-color="#fff" stop-opacity=".157"/><stop offset="1" stop-color="#fff" stop-opacity=".392"/></linearGradient><linearGradient id="f" gradientTransform="matrix(.29417 0 0 -.27422 3.238 27.707)" gradientUnits="userSpaceOnUse" x1="8.917" x2="43.531" y1="22.499" y2="22.041"><stop offset="0" stop-color="#cdf87e"/><stop offset=".262" stop-color="#a2e34f"/><stop offset=".661" stop-color="#68b723"/><stop offset="1" stop-color="#1d7e0d"/></linearGradient><linearGradient id="b"><stop offset="0"/><stop offset="1" stop-opacity="0"/></linearGradient></defs><radialGradient id="c" cx="2.25" cy="16" gradientTransform="matrix(.51412 0 0 .11634 -12.823 27.175)" gradientUnits="userSpaceOnUse" r="16.875"><stop offset="0"/><stop offset="1" stop-opacity="0"/></radialGradient><linearGradient id="a"><stop offset="0" stop-color="#eeeeec"/><stop offset="1" stop-color="#e0e0de"/></linearGradient><linearGradient id="d" gradientUnits="userSpaceOnUse" x1="-20.846" x2="-13.585" xlink:href="#a" y1="3.243" y2="11.795" gradientTransform="matrix(-.98295 0 0 1.01735 .038 8.01)"/><g transform="translate(-4.49 -9.78) scale(1.33333)"><ellipse cx="-11.666" cy="29.037" display="block" rx="8.676" ry="1.963" transform="scale(-1 1)" opacity=".245" fill="url(#c)" fill-rule="evenodd"/><path d="M17.903 22.85c0-.614.202-1.05.606-1.31.397-.26.978-.39 1.743-.39v-2.27c-.765 0-1.346-.128-1.744-.38-.405-.26-.607-.698-.607-1.312v-3.02c0-.704-.125-1.236-.376-1.597-.25-.36-.66-.623-1.23-.788-.575-.17-1.016-.216-2.05-.216v2.138c.606.013 1.025.127 1.258.342.226.21.34.54.34.997v2.84c0 1.185.715 1.888 2.147 2.11v.114c-1.432.222-2.148.92-2.148 2.1v2.84c0 .462-.116.798-.35 1.007-.23.21-.647.32-1.247.333v2.147c1.016 0 1.45-.123 2.032-.288.574-.165.99-.427 1.247-.788.25-.36.376-.9.376-1.615z" fill="url(#d)" stroke="#888a85" stroke-width=".75" stroke-linejoin="round"/><path d="M6.082 22.85c0-.614-.202-1.05-.606-1.31-.398-.26-.98-.39-1.744-.39v-2.27c.765 0 1.346-.128 1.744-.38.404-.26.606-.698.606-1.312v-3.02c0-.704.125-1.236.376-1.597.25-.36.66-.623 1.23-.788.575-.17 1.016-.216 2.05-.216v2.138c-.606.013-1.025.127-1.258.342-.226.21-.34.54-.34.997v2.84c0 1.185-.715 1.888-2.147 2.11v.114c1.432.222 2.148.92 2.148 2.1v2.84c0 .462.117.798.35 1.007.232.21.648.32 1.248.333v2.147c-1.016 0-1.45-.123-2.032-.288-.575-.165-.99-.427-1.248-.788-.25-.36-.376-.9-.376-1.615z" fill="url(#e)" stroke="#888a85" stroke-width=".75" stroke-linejoin="round"/></g><path display="block" d="M7.74 17.097c-3.734 2.525-1.537 7.163 2.626 7.125v2.25l5.25-3.75-5.25-3.75v2.233c-2.685.104-4.17-2.346-2.25-4.108z" fill="url(#f)" transform="matrix(0 1.33333 1.33333 0 -3.858 -6.325)"/><path d="M7.024 18.403c-1.318 1.545-.17 5.576 4.046 5.025l.046 1.648 3.277-2.353-3.277-2.3v1.546c-4.626.246-4.486-2.942-4.092-3.567z" display="block" opacity=".8" fill="none" stroke="url(#g)" stroke-width=".723" stroke-miterlimit="7" transform="matrix(0 1.33333 1.33333 0 -3.858 -6.325)"/><path d="M18.938 3.996c3.367-4.98 9.55-2.05 9.5 3.5h3l-5 7-5-7h2.977c.14-3.58-3.127-5.56-5.477-3z" opacity=".5" fill="none" stroke="#0f5a00" stroke-width=".9999974999999999" stroke-linecap="round" stroke-linejoin="round"/></svg>