<?xml version="1.0" encoding="UTF-8" standalone="no"?>
<svg
   xmlns:dc="http://purl.org/dc/elements/1.1/"
   xmlns:cc="http://creativecommons.org/ns#"
   xmlns:rdf="http://www.w3.org/1999/02/22-rdf-syntax-ns#"
   xmlns:svg="http://www.w3.org/2000/svg"
   xmlns="http://www.w3.org/2000/svg"
   xmlns:xlink="http://www.w3.org/1999/xlink"
   xmlns:sodipodi="http://sodipodi.sourceforge.net/DTD/sodipodi-0.dtd"
   xmlns:inkscape="http://www.inkscape.org/namespaces/inkscape"
   viewBox="0 0 32 32"
   version="1.1"
   id="svg20"
   sodipodi:docname="basicstepout.svg"
   width="32"
   height="32"
   inkscape:version="0.92.3 (unknown)"
   inkscape:export-filename="/home/rizmut/Dokumen/Rizmut/Github/libreoffice-style-elementary/images_elementary/cmd/32/basicstepover.png"
   inkscape:export-xdpi="96"
   inkscape:export-ydpi="96">
  <metadata
     id="metadata26">
    <rdf:RDF>
      <cc:Work
         rdf:about="">
        <dc:format>image/svg+xml</dc:format>
        <dc:type
           rdf:resource="http://purl.org/dc/dcmitype/StillImage" />
        <dc:title></dc:title>
      </cc:Work>
    </rdf:RDF>
  </metadata>
  <defs
     id="defs24">
    <linearGradient
       inkscape:collect="always"
       xlink:href="#b"
       id="linearGradient842"
       gradientUnits="userSpaceOnUse"
       gradientTransform="matrix(0.98294772,0,0,1.0173481,23.946825,8.0095339)"
       x1="-20.846258"
       y1="3.2427361"
       x2="-13.585115"
       y2="11.795373" />
    <linearGradient
       id="k"
       gradientTransform="matrix(0,-0.29678743,0.32100841,0,4.4193103,32.01171)"
       gradientUnits="userSpaceOnUse"
       x1="34.39753"
       x2="34.205437"
       y1="9.1029119"
       y2="33.968109">
      <stop
         offset="0"
         stop-color="#fff"
         id="stop46" />
      <stop
         offset="0.18761745"
         stop-color="#fff"
         stop-opacity=".235294"
         id="stop48" />
      <stop
         offset="0.9709639"
         stop-color="#fff"
         stop-opacity=".156863"
         id="stop50" />
      <stop
         offset="1"
         stop-color="#fff"
         stop-opacity=".392157"
         id="stop52" />
    </linearGradient>
    <linearGradient
       id="a-3"
       gradientTransform="matrix(0.29416846,0,0,-0.27421922,3.2376884,27.706662)"
       gradientUnits="userSpaceOnUse"
       x1="8.9173737"
       x2="43.530972"
       y1="22.498661"
       y2="22.040781">
      <stop
         offset="0"
         stop-color="#cdf87e"
         id="stop2-6" />
      <stop
         offset=".26238"
         stop-color="#a2e34f"
         id="stop4-7" />
      <stop
         offset=".66093999"
         stop-color="#68b723"
         id="stop6" />
      <stop
         offset="1"
         stop-color="#1d7e0d"
         id="stop8" />
    </linearGradient>
    <radialGradient
       id="b-5"
       cx="24.837126"
       cy="36.421127"
       gradientTransform="matrix(-0.28763738,0,0,-0.19175819,16.323608,32.372131)"
       gradientUnits="userSpaceOnUse"
       r="15.644737"
       xlink:href="#c-3" />
    <linearGradient
       id="c-3">
      <stop
         offset="0"
         id="stop12" />
      <stop
         offset="1"
         stop-opacity="0"
         id="stop14" />
    </linearGradient>
    <radialGradient
       id="j"
       cx="24.837126"
       cy="36.421127"
       gradientTransform="matrix(-0.38351555,0,0,-0.25567694,22.275669,31.384178)"
       gradientUnits="userSpaceOnUse"
       r="15.644737"
       xlink:href="#c-3" />
    <linearGradient
       id="i"
       gradientTransform="matrix(0.39222363,0,0,-0.36562471,4.827819,25.163568)"
       gradientUnits="userSpaceOnUse"
       x1="27.974298"
       x2="27.974298"
       y1="36.127529"
       y2="-1.183923">
      <stop
         offset="0"
         stop-color="#90dbec"
         id="stop1412" />
      <stop
         offset=".25"
         stop-color="#55c1ec"
         id="stop1414" />
      <stop
         offset=".62520313"
         stop-color="#3689e6"
         id="stop1416" />
      <stop
         offset="1"
         stop-color="#2b63a0"
         id="stop1418" />
    </linearGradient>
    <linearGradient
       id="h"
       gradientTransform="matrix(0,-0.39571558,0.42801014,0,6.403311,30.903618)"
       gradientUnits="userSpaceOnUse"
       x1="31.656153"
       x2="31.843084"
       y1="28.390795"
       y2="7.7588472">
      <stop
         offset="0"
         stop-color="#fff"
         id="stop1403" />
      <stop
         offset="0.11135827"
         stop-color="#fff"
         stop-opacity=".235294"
         id="stop1405" />
      <stop
         offset="0.86923146"
         stop-color="#fff"
         stop-opacity=".156863"
         id="stop1407" />
      <stop
         offset="1"
         stop-color="#fff"
         stop-opacity=".392157"
         id="stop1409" />
    </linearGradient>
    <linearGradient
       id="k-6"
       gradientUnits="userSpaceOnUse"
       x1="12.332248"
       x2="11.332248"
       y1="16.517551"
       y2="8.5175524">
      <stop
         offset="0"
         stop-color="#185f9a"
         id="stop1422" />
      <stop
         offset="1"
         stop-color="#599ec9"
         id="stop1424" />
    </linearGradient>
    <radialGradient
       id="j-2"
       cx="24.837126"
       cy="36.421127"
       gradientTransform="matrix(-0.38351555,0,0,-0.25567694,22.275669,31.384178)"
       gradientUnits="userSpaceOnUse"
       r="15.644737"
       xlink:href="#c-3" />
    <linearGradient
       id="k-6-2"
       gradientUnits="userSpaceOnUse"
       x1="8.8746204"
       x2="18.247501"
       y1="18.042974"
       y2="18.026028">
      <stop
         offset="0"
         stop-color="#185f9a"
         id="stop1422-6" />
      <stop
         offset="1"
         stop-color="#599ec9"
         id="stop1424-1" />
    </linearGradient>
  </defs>
  <sodipodi:namedview
     pagecolor="#ffffff"
     bordercolor="#666666"
     borderopacity="1"
     objecttolerance="10"
     gridtolerance="10"
     guidetolerance="10"
     inkscape:pageopacity="0"
     inkscape:pageshadow="2"
     inkscape:window-width="1366"
     inkscape:window-height="706"
     id="namedview22"
     showgrid="true"
     inkscape:snap-global="false"
     inkscape:zoom="27.812867"
     inkscape:cx="18.836799"
     inkscape:cy="15.808306"
     inkscape:window-x="0"
     inkscape:window-y="0"
     inkscape:window-maximized="1"
     inkscape:current-layer="g941">
    <inkscape:grid
       type="xygrid"
       id="grid833" />
  </sodipodi:namedview>
  <radialGradient
     id="a"
     cx="2.25"
     cy="16"
     gradientTransform="matrix(0.51412493,0,0,0.11633788,-12.82308,27.175389)"
     gradientUnits="userSpaceOnUse"
     r="16.875">
    <stop
       offset="0"
       id="stop2" />
    <stop
       offset="1"
       stop-opacity="0"
       id="stop4" />
  </radialGradient>
  <linearGradient
     id="b">
    <stop
       offset="0"
       stop-color="#eeeeec"
       id="stop7" />
    <stop
       offset="1"
       stop-color="#e0e0de"
       id="stop9" />
  </linearGradient>
  <linearGradient
     id="c"
     gradientUnits="userSpaceOnUse"
     x1="-20.846258"
     x2="-13.585115"
     xlink:href="#b"
     y1="3.2427361"
     y2="11.795373"
     gradientTransform="matrix(-0.98294772,0,0,1.0173481,3.7881451,8.0095339)" />
  <linearGradient
     id="d"
     gradientUnits="userSpaceOnUse"
     x1="3.6006529"
     x2="10.861796"
     xlink:href="#b"
     y1="3.2427361"
     y2="11.795373"
     gradientTransform="matrix(0.98294772,0,0,1.0173481,1.9761159,9.344283)" />
  <g
     id="g838"
     transform="matrix(1.33333,0,0,1.33333,0.51091205,-11.778555)">
    <g
       id="g941"
       transform="translate(1.5000038,-0.75000188)">
      <g
         transform="translate(-3.7500094,1.5000038)"
         id="g912">
        <ellipse
           style="display:block;opacity:0.24500002;fill:url(#a);fill-rule:evenodd"
           id="ellipse14"
           transform="scale(-1,1)"
           ry="1.963204"
           rx="8.6758595"
           display="block"
           cy="29.036797"
           cx="-11.666297" />
        <path
           style="fill:url(#c);stroke:#888a85;stroke-width:0.75000191;stroke-linejoin:round;stroke-miterlimit:4;stroke-dasharray:none"
           inkscape:connector-curvature="0"
           id="path16"
           d="m 21.653404,22.850051 c 0,-0.614337 0.201934,-1.051339 0.605802,-1.311008 0.397749,-0.259668 0.979075,-0.389502 1.743977,-0.389502 v -2.270514 c -0.764902,0 -1.346228,-0.126667 -1.743977,-0.380002 -0.403868,-0.259669 -0.605802,-0.696671 -0.605802,-1.311008 v -3.021018 c 0,-0.703004 -0.125444,-1.235007 -0.376332,-1.59601 -0.250888,-0.361002 -0.660875,-0.623837 -1.229962,-0.788504 -0.575207,-0.171001 -1.015843,-0.216053 -2.04999,-0.216053 v 2.137513 c 0.605802,0.01267 1.024968,0.126667 1.257498,0.342002 0.226412,0.209001 0.339618,0.541503 0.339618,0.997506 v 2.840517 c 0,1.18434 0.715948,1.887344 2.147845,2.109012 v 0.114001 c -1.431897,0.221668 -2.147845,0.921506 -2.147845,2.099513 v 2.840517 c 0,0.462336 -0.116265,0.798005 -0.348796,1.007006 -0.23253,0.209001 -0.648637,0.319835 -1.24832,0.332502 v 2.147013 c 1.01579,0 1.450307,-0.122783 2.031632,-0.287451 0.575206,-0.164667 0.991313,-0.427502 1.24832,-0.788505 0.250888,-0.361001 0.376332,-0.899338 0.376332,-1.615009 z"
           sodipodi:nodetypes="sccccsssccccssccsscccccss" />
        <path
           sodipodi:nodetypes="sccccsssccccssccsscccccss"
           d="m 6.0815675,22.850051 c 0,-0.614337 -0.201934,-1.051339 -0.605802,-1.311008 -0.397749,-0.259668 -0.979075,-0.389502 -1.743977,-0.389502 v -2.270514 c 0.764902,0 1.346228,-0.126667 1.743977,-0.380002 0.403868,-0.259669 0.605802,-0.696671 0.605802,-1.311008 v -3.021018 c 0,-0.703004 0.125444,-1.235007 0.376332,-1.59601 0.250888,-0.361002 0.660875,-0.623837 1.229962,-0.788504 0.575207,-0.171001 1.015843,-0.216053 2.04999,-0.216053 v 2.137513 c -0.605802,0.01267 -1.024968,0.126667 -1.257498,0.342002 -0.226412,0.209001 -0.339618,0.541503 -0.339618,0.997506 v 2.840517 c 0,1.18434 -0.715948,1.887344 -2.147845,2.109012 v 0.114001 c 1.431897,0.221668 2.147845,0.921506 2.147845,2.099513 v 2.840517 c 0,0.462336 0.116265,0.798005 0.348796,1.007006 0.23253,0.209001 0.648637,0.319835 1.24832,0.332502 v 2.147013 c -1.01579,0 -1.450307,-0.122783 -2.031632,-0.287451 -0.575206,-0.164667 -0.991313,-0.427502 -1.24832,-0.788505 -0.250888,-0.361001 -0.376332,-0.899338 -0.376332,-1.615009 z"
           id="path840"
           inkscape:connector-curvature="0"
           style="fill:url(#linearGradient842);stroke:#888a85;stroke-width:0.75000191;stroke-linejoin:round;stroke-miterlimit:4;stroke-dasharray:none" />
      </g>
      <g
         transform="matrix(0,-0.75000188,0.75000188,0,-2.6928678,31.925537)"
         id="g1465">
        <path
           style="display:block;fill:url(#i)"
           inkscape:connector-curvature="0"
           d="m 10.832248,11.017552 c -4.9802216,3.367056 -2.0511186,9.550728 3.5,9.5 v 3.000485 l 7,-5 -7,-5 v 2.976351 c -3.580248,0.139062 -5.5595156,-3.12742 -3,-5.476836 z"
           display="block"
           id="path1457" />
        <g
           style="fill:none"
           id="g1463">
          <path
             style="display:block;opacity:0.8;stroke:url(#h);stroke-width:0.96399999;stroke-miterlimit:7"
             inkscape:connector-curvature="0"
             d="m 9.8755864,12.759279 c -1.756852,2.058862 -0.225017,7.434574 5.3950626,6.699241 l 0.0616,2.197396 4.369328,-3.137879 -4.369328,-3.064428 v 2.059765 C 9.1648074,17.842539 9.3507614,13.59157 9.8755874,12.759279 Z"
             display="block"
             stroke-miterlimit="7"
             id="path1459" />
          <path
             style="opacity:0.85799997;stroke:url(#k-6-2);stroke-linecap:round;stroke-linejoin:round"
             inkscape:connector-curvature="0"
             d="m 10.832248,11.017552 c -4.9802216,3.367056 -2.0511186,9.550728 3.5,9.5 v 3.000485 l 6.999999,-5 -6.999999,-5 v 2.976351 c -3.580248,0.139062 -5.5595156,-3.12742 -3,-5.476836 z"
             id="path1461" />
        </g>
      </g>
    </g>
  </g>
</svg>
