<?xml version="1.0" encoding="UTF-8" standalone="no"?>
<svg
   xmlns:dc="http://purl.org/dc/elements/1.1/"
   xmlns:cc="http://creativecommons.org/ns#"
   xmlns:rdf="http://www.w3.org/1999/02/22-rdf-syntax-ns#"
   xmlns:svg="http://www.w3.org/2000/svg"
   xmlns="http://www.w3.org/2000/svg"
   xmlns:xlink="http://www.w3.org/1999/xlink"
   xmlns:sodipodi="http://sodipodi.sourceforge.net/DTD/sodipodi-0.dtd"
   xmlns:inkscape="http://www.inkscape.org/namespaces/inkscape"
   height="32"
   viewBox="0 0 32 32"
   width="32"
   version="1.1"
   id="svg57"
   sodipodi:docname="basicstepout.svg"
   inkscape:version="0.92.3 (unknown)">
  <metadata
     id="metadata63">
    <rdf:RDF>
      <cc:Work
         rdf:about="">
        <dc:format>image/svg+xml</dc:format>
        <dc:type
           rdf:resource="http://purl.org/dc/dcmitype/StillImage" />
      </cc:Work>
    </rdf:RDF>
  </metadata>
  <defs
     id="defs61" />
  <sodipodi:namedview
     pagecolor="#ffffff"
     bordercolor="#666666"
     borderopacity="1"
     objecttolerance="10"
     gridtolerance="10"
     guidetolerance="10"
     inkscape:pageopacity="0"
     inkscape:pageshadow="2"
     inkscape:window-width="1366"
     inkscape:window-height="706"
     id="namedview59"
     showgrid="false"
     inkscape:zoom="7.375"
     inkscape:cx="24.823953"
     inkscape:cy="8.3269985"
     inkscape:window-x="0"
     inkscape:window-y="0"
     inkscape:window-maximized="1"
     inkscape:current-layer="g55" />
  <linearGradient
     id="a"
     gradientTransform="matrix(.98294772 0 0 1.0173481 23.946825 8.009534)"
     gradientUnits="userSpaceOnUse"
     x1="-20.846258"
     x2="-13.585115"
     xlink:href="#f"
     y1="3.242736"
     y2="11.795373" />
  <linearGradient
     id="b"
     gradientTransform="matrix(.39222363 0 0 -.36562471 4.827819 25.163568)"
     gradientUnits="userSpaceOnUse"
     x1="35.796684"
     x2="-2.9485683"
     y1="18.033447"
     y2="17.565741">
    <stop
       offset="0"
       stop-color="#90dbec"
       id="stop3" />
    <stop
       offset=".25"
       stop-color="#55c1ec"
       id="stop5" />
    <stop
       offset=".62520313"
       stop-color="#3689e6"
       id="stop7" />
    <stop
       offset="1"
       stop-color="#2b63a0"
       id="stop9" />
  </linearGradient>
  <linearGradient
     id="c"
     gradientTransform="matrix(0 -.39571558 .42801014 0 6.403311 30.903618)"
     gradientUnits="userSpaceOnUse"
     x1="31.656153"
     x2="31.843084"
     y1="28.390795"
     y2="7.758847">
    <stop
       offset="0"
       stop-color="#fff"
       id="stop12" />
    <stop
       offset=".11135827"
       stop-color="#fff"
       stop-opacity=".235294"
       id="stop14" />
    <stop
       offset=".86923146"
       stop-color="#fff"
       stop-opacity=".156863"
       id="stop16" />
    <stop
       offset="1"
       stop-color="#fff"
       stop-opacity=".392157"
       id="stop18" />
  </linearGradient>
  <linearGradient
     id="d"
     gradientUnits="userSpaceOnUse"
     x1="8.87462"
     x2="19.701576"
     y1="18.042974"
     y2="18.518038">
    <stop
       offset="0"
       stop-color="#185f9a"
       id="stop21" />
    <stop
       offset="1"
       stop-color="#599ec9"
       id="stop23" />
  </linearGradient>
  <radialGradient
     id="e"
     cx="2.25"
     cy="16"
     gradientTransform="matrix(.51412493 0 0 .11633788 -12.82308 27.175389)"
     gradientUnits="userSpaceOnUse"
     r="16.875">
    <stop
       offset="0"
       id="stop26" />
    <stop
       offset="1"
       stop-opacity="0"
       id="stop28" />
  </radialGradient>
  <linearGradient
     id="f">
    <stop
       offset="0"
       stop-color="#eeeeec"
       id="stop31" />
    <stop
       offset="1"
       stop-color="#e0e0de"
       id="stop33" />
  </linearGradient>
  <linearGradient
     id="g"
     gradientTransform="matrix(-.98294772 0 0 1.0173481 3.788145 8.009534)"
     gradientUnits="userSpaceOnUse"
     x1="-20.846258"
     x2="-13.585115"
     xlink:href="#f"
     y1="3.242736"
     y2="11.795373" />
  <g
     transform="matrix(1.33333 0 0 1.33333 -2.489087 -10.778555)"
     id="g45">
    <ellipse
       cx="-11.666297"
       cy="29.036797"
       display="block"
       fill="url(#e)"
       fill-rule="evenodd"
       opacity=".245"
       rx="8.67586"
       ry="1.963204"
       transform="scale(-1 1)"
       id="ellipse37" />
    <g
       stroke="#888a85"
       stroke-linejoin="round"
       stroke-width=".750002"
       id="g43">
      <path
         d="m21.653404 22.850051c0-.614337.201934-1.051339.605802-1.311008.397749-.259668.979075-.389502 1.743977-.389502v-2.270514c-.764902 0-1.346228-.126667-1.743977-.380002-.403868-.259669-.605802-.696671-.605802-1.311008v-3.021018c0-.703004-.125444-1.235007-.376332-1.59601-.250888-.361002-.660875-.623837-1.229962-.788504-.575207-.171001-1.015843-.216053-2.04999-.216053v2.137513c.605802.01267 1.024968.126667 1.257498.342002.226412.209001.339618.541503.339618.997506v2.840517c0 1.18434.715948 1.887344 2.147845 2.109012v.114001c-1.431897.221668-2.147845.921506-2.147845 2.099513v2.840517c0 .462336-.116265.798005-.348796 1.007006-.23253.209001-.648637.319835-1.24832.332502v2.147013c1.01579 0 1.450307-.122783 2.031632-.287451.575206-.164667.991313-.427502 1.24832-.788505.250888-.361001.376332-.899338.376332-1.615009z"
         fill="url(#g)"
         id="path39" />
      <path
         d="m6.0815675 22.850051c0-.614337-.201934-1.051339-.605802-1.311008-.397749-.259668-.979075-.389502-1.743977-.389502v-2.270514c.764902 0 1.346228-.126667 1.743977-.380002.403868-.259669.605802-.696671.605802-1.311008v-3.021018c0-.703004.125444-1.235007.376332-1.59601.250888-.361002.660875-.623837 1.229962-.788504.575207-.171001 1.015843-.216053 2.04999-.216053v2.137513c-.605802.01267-1.024968.126667-1.257498.342002-.226412.209001-.339618.541503-.339618.997506v2.840517c0 1.18434-.715948 1.887344-2.147845 2.109012v.114001c1.431897.221668 2.147845.921506 2.147845 2.099513v2.840517c0 .462336.116265.798005.348796 1.007006.23253.209001.648637.319835 1.24832.332502v2.147013c-1.01579 0-1.450307-.122783-2.031632-.287451-.575206-.164667-.991313-.427502-1.24832-.788505-.250888-.361001-.376332-.899338-.376332-1.615009z"
         fill="url(#a)"
         id="path41" />
    </g>
  </g>
  <g
     transform="rotate(-90,14.354576,15.434145)"
     id="g55">
    <path
       d="m 10.832248,11.017552 c -4.9802216,3.367056 -2.0511186,9.550728 3.5,9.5 v 3.000485 l 7,-5 -7,-5 v 2.976351 c -3.580248,0.139062 -5.5595156,-3.12742 -3,-5.476836 z"
       display="block"
       id="path47"
       inkscape:connector-curvature="0"
       style="display:block;fill:url(#b)" />
    <g
       id="g53"
       style="fill:none">
      <path
         d="m 10.832248,11.017552 c -4.9802216,3.367056 -2.0511186,9.550728 3.5,9.5 v 3.000485 l 6.999999,-5 -6.999999,-5 v 2.976351 c -3.580248,0.139062 -5.5595156,-3.12742 -3,-5.476836 z"
         id="path51"
         inkscape:connector-curvature="0"
         style="opacity:0.85799997;stroke:url(#d);stroke-linecap:round;stroke-linejoin:round" />
      <path
         d="m 9.8755864,12.759279 c -1.756852,2.058862 -0.225017,7.434574 5.3950626,6.699241 l 0.0616,2.197396 4.369328,-3.137879 -4.369328,-3.064428 v 2.059765 C 9.1648074,17.842539 9.3507614,13.59157 9.8755874,12.759279 Z"
         display="block"
         stroke-miterlimit="7"
         id="path49"
         inkscape:connector-curvature="0"
         style="display:block;opacity:0.8;stroke:url(#c);stroke-width:0.96399999;stroke-miterlimit:7" />
    </g>
  </g>
</svg>
