<svg xmlns="http://www.w3.org/2000/svg" xmlns:xlink="http://www.w3.org/1999/xlink" width="32" height="32"><defs><linearGradient id="a"><stop offset="0" stop-color="#c6262e"/><stop offset="1" stop-color="#b5232a"/></linearGradient><linearGradient id="b" gradientTransform="matrix(0 -.59172 -.63517 0 9.814 30.722)" gradientUnits="userSpaceOnUse" x1="38.941" x2="20.576" y1="15.991" y2="15.991"><stop offset="0" stop-color="#fff"/><stop offset=".125" stop-color="#fff" stop-opacity=".235"/><stop offset=".939" stop-color="#fff" stop-opacity=".157"/><stop offset="1" stop-color="#fff" stop-opacity=".392"/></linearGradient><linearGradient xlink:href="#c" id="m" gradientUnits="userSpaceOnUse" gradientTransform="matrix(.97222 0 0 .9722 -21.625 34.187)" x1="12.198" y1="401.096" x2="15.699" y2="404.598"/><linearGradient xlink:href="#d" id="n" gradientUnits="userSpaceOnUse" gradientTransform="matrix(.875 0 0 .87507 -20.313 73.283)" x1="12.816" y1="400.389" x2="12.816" y2="406.511"/><linearGradient xlink:href="#e" id="k" gradientUnits="userSpaceOnUse" gradientTransform="matrix(1.96316 0 0 1.00005 32.088 -395.874)" x1="-16" y1="423.455" x2="-5.521" y2="423.353"/><linearGradient xlink:href="#f" id="l" gradientUnits="userSpaceOnUse" gradientTransform="matrix(1.96316 0 0 1 11.76 -395.863)" x1="-5.913" y1="423.373" x2="4.452" y2="423.363"/><linearGradient id="g"><stop offset="0" stop-color="#fff"/><stop offset="1" stop-color="#fff" stop-opacity="0"/></linearGradient><radialGradient gradientTransform="matrix(0 .52545 -.57163 0 46.193 -21.124)" gradientUnits="userSpaceOnUse" xlink:href="#h" id="p" fy="48.216" fx="65.297" r="31" cy="48.216" cx="65.297"/><linearGradient id="h"><stop offset="0" stop-color="#cdf87e"/><stop offset=".262" stop-color="#a2e34f"/><stop offset=".661" stop-color="#68b723"/><stop offset="1" stop-color="#1d7e0d"/></linearGradient><linearGradient gradientTransform="matrix(.2818 0 0 .2801 12.197 12.015)" gradientUnits="userSpaceOnUse" xlink:href="#i" id="q" y2="35.623" x2="24.139" y1="10.631" x1="24.139"/><linearGradient id="i"><stop offset="0" stop-color="#fff"/><stop offset="0" stop-color="#fff" stop-opacity=".235"/><stop offset="1" stop-color="#fff" stop-opacity=".157"/><stop offset="1" stop-color="#fff" stop-opacity=".392"/></linearGradient><linearGradient gradientTransform="matrix(.2818 0 0 .2801 12.18 12.022)" gradientUnits="userSpaceOnUse" xlink:href="#j" id="r" y2="24.912" x2="24.139" y1="21.342" x1="24.139"/><linearGradient id="j"><stop offset="0" stop-color="#fff"/><stop offset="0" stop-color="#fff" stop-opacity=".235"/><stop offset="1" stop-color="#fff" stop-opacity=".157"/><stop offset="1" stop-color="#fff" stop-opacity=".392"/></linearGradient><radialGradient xlink:href="#h" id="o" cx="18.869" cy="8.197" fx="18.869" fy="8.197" r="5.995" gradientUnits="userSpaceOnUse" gradientTransform="matrix(.0524 2.47022 -2.26792 .04812 33.416 -41.25)"/></defs><linearGradient id="e"><stop offset="0" stop-color="#555753" stop-opacity="0"/><stop offset=".2" stop-color="#555753"/><stop offset=".8" stop-color="#555753"/><stop offset="1" stop-color="#555753" stop-opacity="0"/></linearGradient><linearGradient id="f"><stop offset="0" stop-color="#babdb6" stop-opacity="0"/><stop offset=".2" stop-color="#babdb6"/><stop offset=".844" stop-color="#babdb6"/><stop offset="1" stop-color="#babdb6" stop-opacity="0"/></linearGradient><linearGradient id="c"><stop offset="0" stop-color="#d3d7cf"/><stop offset="1" stop-color="#fafbfa"/></linearGradient><linearGradient id="d"><stop offset="0" stop-color="#fff"/><stop offset="1" stop-color="#fff" stop-opacity="0"/></linearGradient><path d="M.15 26.01L22 26v3l-21.85.01z" fill="url(#k)" transform="translate(.667 -11.667) scale(1.33333)"/><path d="M.3 26.75H22v1.5H.3z" fill="url(#l)" transform="translate(.667 -11.667) scale(1.33333)"/><g stroke-width=".875" stroke-linecap="round"><path transform="translate(25.51 -461.435) scale(1.14285)" d="M-11.386 422.57h6.113l.015 6.11h-6.112z" fill="url(#m)" stroke="#888a85" stroke-linejoin="round"/><path transform="translate(25.51 -461.435) scale(1.14285)" d="M-10.517 423.444l4.393.01-.02 4.37-4.346-.034z" fill="none" stroke="url(#n)"/></g><path d="M14.525 7.515l-.048 2.954-2.98.014.022 3.006 2.97-.016.037 3.047 2.942-.032.007-2.984 3.028.002-.023-3.006h-3.02l.016-2.985z" fill="url(#o)" stroke="#0f5a00" stroke-linecap="round" stroke-linejoin="round" stroke-miterlimit="3.5" stroke-opacity=".722"/><path d="M13.947 11.526l-1.574.112" opacity=".5" fill="none" stroke="#fff" stroke-width=".9999974999999999" stroke-linecap="square" stroke-miterlimit="3.5"/><path d="M16.482 16.507v-3h4v3h3v4h-3v3h-4v-3h-2.99v-4z" color="#000" overflow="visible" fill="url(#p)" transform="translate(-25.675 -12.57)"/><path d="M17.5 18.004V14.5h2V18m0 1v3.5h-2V19" opacity=".5" fill="none" stroke="url(#q)" transform="translate(-25.675 -12.57)"/><path d="M-9.193 3.937v-3h4v3h3v4h-3v3h-4v-3h-2.99v-4z" style="isolation:auto;mix-blend-mode:normal" color="#000" overflow="visible" opacity=".5" solid-color="#000000" fill="none" stroke="#0f5a00" stroke-linecap="round" stroke-linejoin="round"/><path d="M20 17.507l2.482-.007v2L20 19.507m-3 0l-2.5-.007v-2l2.5.007" opacity=".5" fill="none" stroke="url(#r)" transform="translate(-25.675 -12.57)"/><path d="M19.54 11.557l-1.542.02M16.62 8.423l-1.153-.004" opacity=".5" fill="none" stroke="#fff" stroke-width=".9999974999999999" stroke-linecap="square" stroke-miterlimit="3.5"/></svg>