<svg xmlns="http://www.w3.org/2000/svg" xmlns:xlink="http://www.w3.org/1999/xlink" height="32" width="32"><defs><linearGradient id="m"><stop offset="0" stop-color="#fff"/><stop offset=".512" stop-color="#fff" stop-opacity=".235"/><stop offset=".585" stop-color="#fff" stop-opacity=".157"/><stop offset="1" stop-color="#fff" stop-opacity=".392"/></linearGradient><linearGradient id="b"><stop offset="0"/><stop offset="1" stop-opacity="0"/></linearGradient><linearGradient gradientTransform="matrix(.0352 0 0 .00824 -.725 26.98)" gradientUnits="userSpaceOnUse" xlink:href="#c" id="y" y2="609.505" x2="302.857" y1="366.648" x1="302.857"/><linearGradient id="c"><stop offset="0" stop-opacity="0"/><stop offset=".5"/><stop offset="1" stop-opacity="0"/></linearGradient><radialGradient gradientTransform="matrix(-.01205 0 0 .00824 10.76 26.98)" gradientUnits="userSpaceOnUse" xlink:href="#d" id="z" fy="486.648" fx="605.714" r="117.143" cy="486.648" cx="605.714"/><linearGradient id="d"><stop offset="0"/><stop offset="1" stop-opacity="0"/></linearGradient><radialGradient gradientTransform="matrix(.01205 0 0 .00824 13.24 26.98)" gradientUnits="userSpaceOnUse" xlink:href="#d" id="A" fy="486.648" fx="605.714" r="117.143" cy="486.648" cx="605.714"/><linearGradient gradientTransform="matrix(.48572 0 0 .4563 .343 8.35)" gradientUnits="userSpaceOnUse" xlink:href="#e" id="B" y2="47.013" x2="25.132" y1=".985" x1="25.132"/><linearGradient id="e"><stop offset="0" stop-color="#f4f4f4"/><stop offset="1" stop-color="#dbdbdb"/></linearGradient><linearGradient gradientTransform="matrix(.3922 0 0 .42703 29.2 7.84)" gradientUnits="userSpaceOnUse" xlink:href="#f" id="C" y2="2.906" x2="-51.786" y1="50.786" x1="-51.786"/><linearGradient id="f"><stop offset="0" stop-color="#a0a0a0"/><stop offset="1" stop-color="#bebebe"/></linearGradient><linearGradient gradientTransform="matrix(.4054 0 0 .5135 2.27 7.676)" gradientUnits="userSpaceOnUse" xlink:href="#g" id="D" y2="43" x2="24" y1="5.564" x1="24"/><linearGradient id="g"><stop offset="0" stop-color="#fff"/><stop offset=".036" stop-color="#fff" stop-opacity=".235"/><stop offset=".951" stop-color="#fff" stop-opacity=".157"/><stop offset="1" stop-color="#fff" stop-opacity=".392"/></linearGradient><linearGradient gradientTransform="matrix(.0352 0 0 .00824 -.725 26.98)" gradientUnits="userSpaceOnUse" xlink:href="#h" id="s" y2="609.505" x2="302.857" y1="366.648" x1="302.857"/><linearGradient id="h"><stop offset="0" stop-opacity="0"/><stop offset=".5"/><stop offset="1" stop-opacity="0"/></linearGradient><radialGradient gradientTransform="matrix(-.01205 0 0 .00824 10.76 26.98)" gradientUnits="userSpaceOnUse" xlink:href="#i" id="t" fy="486.648" fx="605.714" r="117.143" cy="486.648" cx="605.714"/><linearGradient id="i"><stop offset="0"/><stop offset="1" stop-opacity="0"/></linearGradient><radialGradient gradientTransform="matrix(.01205 0 0 .00824 13.24 26.98)" gradientUnits="userSpaceOnUse" xlink:href="#i" id="u" fy="486.648" fx="605.714" r="117.143" cy="486.648" cx="605.714"/><linearGradient gradientTransform="matrix(.48572 0 0 .4563 .343 8.35)" gradientUnits="userSpaceOnUse" xlink:href="#j" id="v" y2="47.013" x2="25.132" y1=".985" x1="25.132"/><linearGradient id="j"><stop offset="0" stop-color="#f4f4f4"/><stop offset="1" stop-color="#dbdbdb"/></linearGradient><linearGradient gradientTransform="matrix(.3922 0 0 .42703 29.2 7.84)" gradientUnits="userSpaceOnUse" xlink:href="#k" id="w" y2="2.906" x2="-51.786" y1="50.786" x1="-51.786"/><linearGradient id="k"><stop offset="0" stop-color="#a0a0a0"/><stop offset="1" stop-color="#bebebe"/></linearGradient><linearGradient id="l"><stop offset="0" stop-color="#fff"/><stop offset=".036" stop-color="#fff" stop-opacity=".235"/><stop offset=".951" stop-color="#fff" stop-opacity=".157"/><stop offset="1" stop-color="#fff" stop-opacity=".392"/></linearGradient><linearGradient gradientTransform="matrix(.4054 0 0 .5135 2.27 7.676)" gradientUnits="userSpaceOnUse" xlink:href="#l" id="x" y2="43" x2="24" y1="5.564" x1="24"/><linearGradient id="a"><stop offset="0" stop-color="#cdf87e"/><stop offset=".262" stop-color="#a2e34f"/><stop offset=".661" stop-color="#68b723"/><stop offset="1" stop-color="#1d7e0d"/></linearGradient><radialGradient r="62.769" fy="186.171" fx="99.157" cy="186.171" cx="99.157" gradientTransform="matrix(.10025 0 0 .0319 14.328 24.094)" gradientUnits="userSpaceOnUse" id="E" xlink:href="#n"/><linearGradient id="n"><stop offset="0" stop-color="#3d3d3d"/><stop offset=".5" stop-color="#686868" stop-opacity=".498"/><stop offset="1" stop-color="#686868" stop-opacity="0"/></linearGradient><linearGradient y2="3249.04" x2="2094.899" y1="3215.689" x1="2094.899" gradientTransform="matrix(.66762 0 0 .49907 -1376.31 -1590.258)" gradientUnits="userSpaceOnUse" id="F" xlink:href="#o"/><linearGradient id="o"><stop offset="0" stop-color="#64baff"/><stop offset="1" stop-color="#3689e6"/></linearGradient><linearGradient xlink:href="#p" id="G" gradientUnits="userSpaceOnUse" gradientTransform="matrix(.60953 0 0 .6116 9.688 1.02)" x1="30.194" y1="27.546" x2="26.541" y2="33.269"/><linearGradient id="p"><stop offset="0" stop-color="#fff"/><stop offset="0" stop-color="#fff" stop-opacity=".235"/><stop offset=".539" stop-color="#fff" stop-opacity=".157"/><stop offset="1" stop-color="#fff" stop-opacity=".392"/></linearGradient><linearGradient y2="39.83" x2="-6.388" y1="22.461" x1="-6.388" gradientTransform="matrix(.72448 0 0 .72458 29.91 1.457)" gradientUnits="userSpaceOnUse" id="H" xlink:href="#q"/><linearGradient id="q"><stop offset="0" stop-color="#fff"/><stop offset=".5" stop-color="#fff" stop-opacity=".235"/><stop offset=".75" stop-color="#fff" stop-opacity=".157"/><stop offset="1" stop-color="#fff" stop-opacity=".392"/></linearGradient><linearGradient y2="22.673" x2="-2.85" y1="39.618" x1="-2.85" gradientTransform="matrix(.47357 0 0 .47262 27.965 9.305)" gradientUnits="userSpaceOnUse" id="I" xlink:href="#r"/><linearGradient id="r"><stop offset="0" stop-color="#fff"/><stop offset=".429" stop-color="#fff" stop-opacity=".235"/><stop offset=".75" stop-color="#fff" stop-opacity=".157"/><stop offset="1" stop-color="#fff" stop-opacity=".392"/></linearGradient></defs><path overflow="visible" opacity=".15" fill="url(#s)" d="M3.5 30h17v2h-17z" transform="translate(0 -7)"/><path d="M3.5 30v2c-.62.004-1.5-.448-1.5-1s.692-1 1.5-1z" overflow="visible" opacity=".15" fill="url(#t)" transform="translate(0 -7)"/><path d="M20.5 30v2c.62.004 1.5-.448 1.5-1s-.692-1-1.5-1z" overflow="visible" opacity=".15" fill="url(#u)" transform="translate(0 -7)"/><path d="M3.5 9.5h17v21h-17v-21z" fill="url(#v)" stroke="url(#w)" stroke-linejoin="round" transform="translate(0 -7)"/><path d="M19.5 29.5h-15v-19h15z" fill="none" stroke="url(#x)" stroke-linecap="round" transform="translate(0 -7)"/><path d="M10 6h11v18H10V6z" opacity=".05"/><path overflow="visible" opacity=".15" fill="url(#y)" d="M3.5 30h17v2h-17z" transform="translate(8 -2)"/><path d="M3.5 30v2c-.62.004-1.5-.448-1.5-1s.692-1 1.5-1z" overflow="visible" opacity=".15" fill="url(#z)" transform="translate(8 -2)"/><path d="M20.5 30v2c.62.004 1.5-.448 1.5-1s-.692-1-1.5-1z" overflow="visible" opacity=".15" fill="url(#A)" transform="translate(8 -2)"/><path d="M3.5 9.5h17v21h-17v-21z" fill="url(#B)" stroke="url(#C)" stroke-linejoin="round" transform="translate(8 -2)"/><path d="M19.5 29.5h-15v-19h15z" fill="none" stroke="url(#D)" stroke-linecap="round" transform="translate(8 -2)"/><path d="M30.56 30.032a6.293 2.002 0 1 1-12.584 0 6.293 2.002 0 1 1 12.585 0z" fill="url(#E)"/><path d="M24.554 14.586v2.3a7.15 7.15 0 0 0-.286-.012 7.15 7.15 0 0 0-7.15 7.15 7.15 7.15 0 0 0 7.15 7.152 7.15 7.15 0 0 0 7.14-6.865h-3.436a3.718 3.718 0 0 1-3.704 3.433 3.718 3.718 0 0 1-3.718-3.718 3.718 3.718 0 0 1 3.718-3.718 3.718 3.718 0 0 1 .286.014v2.275l6.293-4.005z" opacity=".99" fill="url(#F)"/><path style="isolation:auto;mix-blend-mode:normal" d="M25.125 17.782v-2.17l4.65 2.986-4.65 2.94v-2.023" overflow="visible" color="#000" opacity=".5" solid-color="#000000" fill="none" stroke="url(#G)"/><path d="M30.744 25.203a6.582 6.58 0 0 1-7.442 5.33 6.582 6.58 0 0 1-5.57-7.262 6.582 6.58 0 0 1 7.078-5.803" opacity=".5" fill="none" stroke="url(#H)"/><path d="M31.063 24.885l-2.613-.004c-.325 2.24-2.77 3.78-4.975 3.362-2.323-.44-3.854-2.668-3.428-4.99.413-2.255 2.527-3.777 4.785-3.483" opacity=".5" fill="none" stroke="url(#I)"/><path d="M24.554 14.586v2.3a7.15 7.15 0 0 0-.286-.012 7.15 7.15 0 0 0-7.15 7.15 7.15 7.15 0 0 0 7.15 7.152 7.15 7.15 0 0 0 7.14-6.865h-3.436a3.718 3.718 0 0 1-3.704 3.433 3.718 3.718 0 0 1-3.718-3.718 3.718 3.718 0 0 1 3.718-3.718 3.718 3.718 0 0 1 .286.014v2.275l6.293-4.005z" opacity=".5" fill="none" stroke="#002e99" stroke-linecap="round" stroke-linejoin="round"/></svg>