<svg xmlns="http://www.w3.org/2000/svg" xmlns:xlink="http://www.w3.org/1999/xlink" width="32" height="32"><defs><linearGradient x1="292.857" y1="211.076" x2="292.857" y2="233.827" id="e" xlink:href="#a" gradientUnits="userSpaceOnUse" gradientTransform="matrix(.04846 0 0 .5238 -20.405 -108.176)"/><linearGradient id="a"><stop offset="0"/><stop offset="1" stop-opacity="0"/></linearGradient><linearGradient id="b"><stop offset="0" stop-color="#fff"/><stop offset="1" stop-color="#fff" stop-opacity="0"/></linearGradient><linearGradient x1="731.057" y1="654.815" x2="731.057" y2="619.307" id="d" xlink:href="#c" gradientUnits="userSpaceOnUse" gradientTransform="matrix(.8048 0 0 .60166 -516.818 -396.08)"/><linearGradient id="c"><stop offset="0" stop-color="#55c1ec"/><stop offset="1" stop-color="#3689e6"/></linearGradient></defs>/&gt;<g transform="matrix(2.1242 0 0 2.1242 -.99 -1.003)" color="#000"><rect transform="scale(-1)" y="-14.125" x="-14.104" ry="1.716" rx="1.658" height="12.24" width="12.226" overflow="visible" opacity=".99" fill="url(#d)"/><rect transform="scale(-1 1)" y="1.656" x="-14.344" ry="2" rx="2" height="12.704" width="12.699" overflow="visible" opacity=".3" fill="none" stroke="#000" stroke-width=".471" stroke-linecap="round" stroke-linejoin="round"/><path d="M11.03 4.38l1.554 1.398-5.217 6.894L3.33 9.194l1.335-1.77 2.36 2.05z" overflow="visible" fill="#2f78c7" fill-opacity=".992"/><path d="M11.03 3.61l1.554 1.396L7.367 11.9 3.33 8.423l1.335-1.77 2.36 2.05z" overflow="visible" fill="#fff"/><rect transform="scale(-1 1)" y="2.099" x="-13.881" ry="1.302" rx="1.604" height="11.779" width="11.8" overflow="visible" opacity=".05" fill="none" stroke="url(#e)" stroke-width=".471" stroke-linecap="round" stroke-linejoin="round"/></g></svg>