<svg xmlns="http://www.w3.org/2000/svg" xmlns:xlink="http://www.w3.org/1999/xlink" height="32" width="32"><defs><radialGradient gradientTransform="matrix(0 .76662 -.834 0 48.57 -34.3)" gradientUnits="userSpaceOnUse" xlink:href="#a" id="i" fy="48.19" fx="65.08" r="31" cy="48.19" cx="65.08"/><linearGradient gradientTransform="matrix(.5089 0 0 .50895 -4.523 10.367)" gradientUnits="userSpaceOnUse" xlink:href="#b" id="j" y2="35.86" x2="17.064" y1="23.421" x1="25.344"/><linearGradient id="b"><stop offset="0" stop-color="#fff"/><stop offset=".055" stop-color="#fff" stop-opacity=".235"/><stop offset=".392" stop-color="#fff" stop-opacity=".157"/><stop offset="1" stop-color="#fff" stop-opacity=".392"/></linearGradient><linearGradient id="a" gradientTransform="matrix(.4922 0 0 .4584 4.51 -4.794)" gradientUnits="userSpaceOnUse" x1="23.732" x2="23.732" y1="5.394" y2="39.735"><stop offset="0" stop-color="#90dbec"/><stop offset=".262" stop-color="#55c1ec"/><stop offset=".705" stop-color="#3689e6"/><stop offset="1" stop-color="#2b63a0"/></linearGradient><linearGradient id="c"><stop offset="0" stop-color="#fff"/><stop offset=".002" stop-color="#fff" stop-opacity=".235"/><stop offset=".392" stop-color="#fff" stop-opacity=".157"/><stop offset="1" stop-color="#fff" stop-opacity=".392"/></linearGradient></defs><linearGradient id="d"><stop offset="0" stop-color="#fff"/><stop offset="1" stop-color="#fff" stop-opacity="0"/></linearGradient><linearGradient id="h" gradientUnits="userSpaceOnUse" x1="15.321" x2="15.321" xlink:href="#d" y1="3" y2="29.045"/><linearGradient id="f" gradientUnits="userSpaceOnUse" x1="17.036" x2="17.036" y1="2" y2="30.012"><stop offset="0" stop-color="#f6f6f6"/><stop offset="1" stop-color="#d2d2d2"/></linearGradient><linearGradient id="g" gradientUnits="userSpaceOnUse" x1="10.923" x2="10.923" y1="2" y2="30.045"><stop offset="0" stop-color="#aaa"/><stop offset="1" stop-color="#8c8c8c"/></linearGradient><radialGradient id="e" cx="6.703" cy="73.616" gradientTransform="matrix(2.2135 0 0 .4842 1.164 -7.145)" gradientUnits="userSpaceOnUse" r="7.228"><stop offset="0"/><stop offset="1" stop-opacity="0"/></radialGradient><path d="M32 28.5c0 1.933-7.164 3.5-16 3.5S0 30.433 0 28.5 7.164 25 16 25s16 1.567 16 3.5z" fill="url(#e)" opacity=".2"/><path d="M13.875 2.5c-.75 0-1.375.595-1.375 1.344v1.75c-.473.16-.933.343-1.375.562l-1.22-1.22C9.378 4.41 8.53 4.41 8 4.937L4.938 7.97c-.53.528-.53 1.376 0 1.905l1.218 1.22c-.224.45-.4.923-.562 1.405h-1.72c-.748 0-1.374.595-1.374 1.344v4.312c0 .75.626 1.344 1.375 1.344h1.72c.16.482.337.956.56 1.406l-1.217 1.22c-.53.528-.53 1.376 0 1.905L8 27.063c.53.53 1.377.53 1.906 0l1.22-1.218c.44.22.9.403 1.374.562v1.75c0 .75.626 1.344 1.375 1.344h4.28c.75 0 1.345-.595 1.345-1.344v-1.75c.482-.162.956-.338 1.406-.562l1.22 1.218c.528.53 1.376.53 1.905 0l3.064-3.03c.53-.53.53-1.378 0-1.907l-1.25-1.25c.22-.442.403-.902.562-1.375h1.75c.75 0 1.344-.595 1.344-1.344v-4.312c0-.75-.595-1.344-1.344-1.344h-1.75c-.16-.473-.343-.933-.562-1.375l1.25-1.25c.53-.53.53-1.377 0-1.906L24.03 4.936c-.528-.53-1.376-.53-1.905 0l-1.22 1.22c-.45-.225-.923-.4-1.405-.563v-1.75c0-.75-.595-1.344-1.344-1.344zM16 12.5c1.932 0 3.5 1.568 3.5 3.5s-1.568 3.5-3.5 3.5-3.5-1.568-3.5-3.5 1.568-3.5 3.5-3.5z" display="block" fill="url(#f)" stroke="url(#g)" stroke-linejoin="round"/><path d="M13.875 3.5c-.64.14-.28.97-.375 1.447.046.597.012 1.387-.688 1.584-.765.162-1.646 1.02-2.374.314-.506-.426-.888-1.06-1.485-1.335-.54.274-.93.875-1.415 1.284-.654.678-1.377 1.302-1.988 2.014-.038.54.616.81.907 1.212.5.38.917 1.057.504 1.658-.34.66-.388 1.82-1.366 1.822-.658.053-1.37-.114-1.99.1-.222.62-.05 1.344-.104 2.01.018.892-.036 1.793.027 2.682.377.39 1.024.133 1.525.208.638-.094 1.423.122 1.537.86.175.712.93 1.558.254 2.234-.42.5-1.05.88-1.322 1.467.285.6.922.986 1.357 1.494.644.63 1.297 1.297 1.934 1.908.55.04.828-.62 1.237-.92.38-.5 1.06-.917 1.662-.5.65.34 1.788.4 1.788 1.364.056.66-.12 1.38.104 1.995.71.212 1.51.048 2.257.1.814-.015 1.633.03 2.444-.022.378-.363.12-1.01.196-1.498-.055-.578.023-1.325.688-1.51.777-.15 1.668-1.023 2.406-.314.505.426.887 1.06 1.484 1.335.54-.274.93-.875 1.416-1.284.654-.678 1.377-1.302 1.987-2.014.04-.54-.615-.81-.906-1.21-.506-.39-.962-1.074-.533-1.694.342-.65.4-1.788 1.366-1.788.664-.047 1.375.1 2.006-.088.19-.734.04-1.548.088-2.315-.014-.8.03-1.604-.022-2.4-.363-.38-1.01-.12-1.498-.197-.643.09-1.446-.1-1.567-.85-.188-.703-.928-1.542-.257-2.212.436-.463.93-.877 1.33-1.37.026-.542-.62-.807-.916-1.208-.784-.77-1.577-1.572-2.353-2.322-.55-.04-.827.62-1.236.92-.38.5-1.057.916-1.658.503-.66-.34-1.82-.388-1.822-1.366-.047-.664.1-1.375-.088-2.006-.734-.19-1.548-.04-2.315-.088h-2.222z" display="block" opacity=".8" stroke="url(#h)" stroke-linejoin="round" fill="none"/><g color="#000"><path style="isolation:auto;mix-blend-mode:normal" d="M1.5 31.5v-15l12 7.5z" overflow="visible" solid-color="#000000" fill="url(#i)" transform="translate(10 -8)"/><path style="isolation:auto;mix-blend-mode:normal" d="M11.5 23.5v-15l12 7.5z" overflow="visible" opacity=".5" solid-color="#000000" fill="none" stroke="#004372" stroke-linecap="round" stroke-linejoin="round"/><path style="isolation:auto;mix-blend-mode:normal" d="M2.5 18.17v11.645l8.88-5.813z" overflow="visible" opacity=".6" solid-color="#000000" fill="none" stroke="url(#j)" stroke-width=".992" transform="translate(10 -8)"/></g></svg>