<?xml version="1.0" encoding="UTF-8" standalone="no"?>
<svg
   xmlns:dc="http://purl.org/dc/elements/1.1/"
   xmlns:cc="http://creativecommons.org/ns#"
   xmlns:rdf="http://www.w3.org/1999/02/22-rdf-syntax-ns#"
   xmlns:svg="http://www.w3.org/2000/svg"
   xmlns="http://www.w3.org/2000/svg"
   xmlns:xlink="http://www.w3.org/1999/xlink"
   xmlns:sodipodi="http://sodipodi.sourceforge.net/DTD/sodipodi-0.dtd"
   xmlns:inkscape="http://www.inkscape.org/namespaces/inkscape"
   height="32"
   width="32"
   version="1.1"
   id="svg91"
   sodipodi:docname="copy.svg"
   inkscape:version="0.92.3 (unknown)">
  <metadata
     id="metadata97">
    <rdf:RDF>
      <cc:Work
         rdf:about="">
        <dc:format>image/svg+xml</dc:format>
        <dc:type
           rdf:resource="http://purl.org/dc/dcmitype/StillImage" />
      </cc:Work>
    </rdf:RDF>
  </metadata>
  <defs
     id="defs95" />
  <sodipodi:namedview
     pagecolor="#ffffff"
     bordercolor="#666666"
     borderopacity="1"
     objecttolerance="10"
     gridtolerance="10"
     guidetolerance="10"
     inkscape:pageopacity="0"
     inkscape:pageshadow="2"
     inkscape:window-width="1366"
     inkscape:window-height="706"
     id="namedview93"
     showgrid="false"
     inkscape:zoom="7.375"
     inkscape:cx="-1.4237288"
     inkscape:cy="14.915254"
     inkscape:window-x="0"
     inkscape:window-y="0"
     inkscape:window-maximized="1"
     inkscape:current-layer="svg91" />
  <linearGradient
     id="a"
     gradientTransform="matrix(.39222363 0 0 -.36562471 4.827819 25.163568)"
     gradientUnits="userSpaceOnUse"
     x1="27.974298"
     x2="27.974298"
     y1="36.127529"
     y2="-1.183923">
    <stop
       offset="0"
       stop-color="#cdf87e"
       id="stop2" />
    <stop
       offset=".26238"
       stop-color="#a2e34f"
       id="stop4" />
    <stop
       offset=".66093999"
       stop-color="#68b723"
       id="stop6" />
    <stop
       offset="1"
       stop-color="#1d7e0d"
       id="stop8" />
  </linearGradient>
  <radialGradient
     id="b"
     cx="24.837126"
     cy="36.421127"
     gradientTransform="matrix(-.38351555 0 0 -.25567694 22.275669 31.384178)"
     gradientUnits="userSpaceOnUse"
     r="15.644737"
     xlink:href="#c" />
  <linearGradient
     id="c">
    <stop
       offset="0"
       id="stop12" />
    <stop
       offset="1"
       stop-opacity="0"
       id="stop14" />
  </linearGradient>
  <linearGradient
     id="d"
     gradientTransform="matrix(.0352071 0 0 .0082353 -.724852 26.980547)"
     gradientUnits="userSpaceOnUse"
     x1="302.85715"
     x2="302.85715"
     y1="366.64789"
     y2="609.50507">
    <stop
       offset="0"
       stop-opacity="0"
       id="stop17" />
    <stop
       offset=".5"
       id="stop19" />
    <stop
       offset="1"
       stop-opacity="0"
       id="stop21" />
  </linearGradient>
  <radialGradient
     id="e"
     cx="605.71429"
     cy="486.64789"
     gradientTransform="matrix(-.01204859 0 0 .0082353 10.761206 26.980564)"
     gradientUnits="userSpaceOnUse"
     r="117.14286"
     xlink:href="#c" />
  <radialGradient
     id="f"
     cx="605.71429"
     cy="486.64789"
     gradientTransform="matrix(.01204859 0 0 .0082353 13.238793 26.980564)"
     gradientUnits="userSpaceOnUse"
     r="117.14286"
     xlink:href="#c" />
  <linearGradient
     id="g"
     gradientTransform="matrix(.48571543 0 0 .45629666 .342829 8.348862)"
     gradientUnits="userSpaceOnUse"
     x1="25.132275"
     x2="25.132275"
     y1=".985206"
     y2="47.013336">
    <stop
       offset="0"
       stop-color="#f4f4f4"
       id="stop26" />
    <stop
       offset="1"
       stop-color="#dbdbdb"
       id="stop28" />
  </linearGradient>
  <linearGradient
     id="h"
     gradientTransform="matrix(.39221364 0 0 .42702571 29.199296 7.840329)"
     gradientUnits="userSpaceOnUse"
     x1="-51.786404"
     x2="-51.786404"
     y1="50.786446"
     y2="2.906247">
    <stop
       offset="0"
       stop-color="#a0a0a0"
       id="stop31" />
    <stop
       offset="1"
       stop-color="#bebebe"
       id="stop33" />
  </linearGradient>
  <linearGradient
     id="i"
     gradientTransform="matrix(.40540511 0 0 .51351351 2.269687 7.675681)"
     gradientUnits="userSpaceOnUse"
     x1="23.99999"
     x2="23.99999"
     y1="5.56415"
     y2="43">
    <stop
       offset="0"
       stop-color="#fff"
       id="stop36" />
    <stop
       offset=".03626217"
       stop-color="#fff"
       stop-opacity=".235294"
       id="stop38" />
    <stop
       offset=".95056331"
       stop-color="#fff"
       stop-opacity=".156863"
       id="stop40" />
    <stop
       offset="1"
       stop-color="#fff"
       stop-opacity=".392157"
       id="stop42" />
  </linearGradient>
  <radialGradient
     id="j"
     cx="24.837126"
     cy="36.421127"
     gradientTransform="matrix(-.70660609 0 0 -.47076982 -.754985 39.964493)"
     gradientUnits="userSpaceOnUse"
     r="15.644737"
     xlink:href="#c" />
  <linearGradient
     id="k"
     gradientTransform="matrix(0 -.39571558 .42801014 0 6.403311 30.903618)"
     gradientUnits="userSpaceOnUse"
     x1="38.940514"
     x2="20.576487"
     y1="15.991243"
     y2="15.991243">
    <stop
       offset="0"
       stop-color="#fff"
       id="stop46" />
    <stop
       offset=".51153916"
       stop-color="#fff"
       stop-opacity=".235294"
       id="stop48" />
    <stop
       offset=".58522105"
       stop-color="#fff"
       stop-opacity=".156863"
       id="stop50" />
    <stop
       offset="1"
       stop-color="#fff"
       stop-opacity=".392157"
       id="stop52" />
  </linearGradient>
  <g
     transform="translate(0 -6.999996)"
     id="g65">
    <path
       d="m3.500001 30h16.999998v2h-16.999998z"
       fill="url(#d)"
       opacity=".15"
       id="path55" />
    <path
       d="m3.4999999 30.000085v1.999891c-.6204724.0038-1.4999999-.448075-1.4999999-1.000075 0-.551999.6924-.999816 1.4999999-.999816z"
       fill="url(#e)"
       opacity=".15"
       id="path57" />
    <path
       d="m20.5 30.000085v1.999891c.620472.0038 1.5-.448075 1.5-1.000075 0-.551999-.692402-.999816-1.5-.999816z"
       fill="url(#f)"
       opacity=".15"
       id="path59" />
    <path
       d="m3.4999601 9.4999569c3.8955809 0 17.0000589.00136 17.0000589.00136l.000021 20.9987161s-11.3333862 0-17.0000799 0c0-7.000018 0-14.000035 0-21.0000538z"
       fill="url(#g)"
       stroke="url(#h)"
       stroke-linejoin="round"
       stroke-width=".999922"
       id="path61" />
    <path
       d="m19.5 29.5h-15.0000004v-19h15.0000004z"
       fill="none"
       stroke="url(#i)"
       stroke-linecap="round"
       id="path63" />
  </g>
  <path
     d="m10 6.0000003c2.520657 0 10.999987.0012 10.999987.0012l.000013 17.9988027s-7.333334 0-11 0c0-5.999983 0-11.999966 0-17.9999507z"
     opacity=".05"
     id="path67" />
  <g
     transform="translate(8 -2)"
     id="g79">
    <path
       d="m3.500001 30h16.999998v2h-16.999998z"
       fill="url(#d)"
       opacity=".15"
       id="path69" />
    <path
       d="m3.4999999 30.000085v1.999891c-.6204724.0038-1.4999999-.448075-1.4999999-1.000075 0-.551999.6924-.999816 1.4999999-.999816z"
       fill="url(#e)"
       opacity=".15"
       id="path71" />
    <path
       d="m20.5 30.000085v1.999891c.620472.0038 1.5-.448075 1.5-1.000075 0-.551999-.692402-.999816-1.5-.999816z"
       fill="url(#f)"
       opacity=".15"
       id="path73" />
    <path
       d="m3.4999601 9.4999569c3.8955809 0 17.0000589.00136 17.0000589.00136l.000021 20.9987161s-11.3333862 0-17.0000799 0c0-7.000018 0-14.000035 0-21.0000538z"
       fill="url(#g)"
       stroke="url(#h)"
       stroke-linejoin="round"
       stroke-width=".999922"
       id="path75" />
    <path
       d="m19.5 29.5h-15.0000004v-19h15.0000004z"
       fill="none"
       stroke="url(#i)"
       stroke-linecap="round"
       id="path77" />
  </g>
  <path
     d="m6.750245 22.072131a6 4.0000002 0 1 1 12 0 6 4.0000002 0 0 1 -12 0z"
     fill="url(#b)"
     fill-rule="evenodd"
     opacity=".141176"
     id="path81" />
  <path
     d="m10.832248 11.017552c-4.9802216 3.367056-2.0511186 9.550728 3.5 9.5v3.000485l7-5-7-5v2.976351c-3.580248.139062-5.5595156-3.12742-3-5.476836z"
     display="block"
     fill="url(#a)"
     id="path83" />
  <path
     d="m9.8755864 12.759279c-1.756852 2.058862-.225017 7.434574 5.3950626 6.699241l.0616 2.197396 4.369328-3.137879-4.369328-3.064428v2.059765c-6.1674416.329165-5.9814876-3.921804-5.4566616-4.754095z"
     style="display:block;opacity:.8;fill:none;stroke-width:.964;stroke-miterlimit:7;stroke:url(#k)"
     id="path85" />
  <path
     d="m10.832248 11.017552c-4.9802216 3.367056-2.0511186 9.550728 3.5 9.5v3.000485l6.999999-5-6.999999-5v2.976351c-3.580248.139062-5.5595156-3.12742-3-5.476836z"
     fill="none"
     opacity=".5"
     stroke="#0f5a00"
     stroke-linecap="round"
     stroke-linejoin="round"
     id="path89" />
</svg>
