<svg height="32" viewBox="0 0 32 32" width="32" xmlns="http://www.w3.org/2000/svg" xmlns:xlink="http://www.w3.org/1999/xlink"><linearGradient id="a" gradientTransform="matrix(-.75241781 -.75241802 .73815637 -.73815637 .580462 82.665771)" gradientUnits="userSpaceOnUse" x1="35.31226" x2="1.331919" y1="66.30397" y2="30.932793"><stop offset="0" stop-color="#f0c1ff"/><stop offset=".26238" stop-color="#c5a3f2"/><stop offset=".704952" stop-color="#7a36b1"/><stop offset="1" stop-color="#4c2d81"/></linearGradient><linearGradient id="b" gradientTransform="matrix(.24324324 0 0 .35135133 2.162164 -.432428)" gradientUnits="userSpaceOnUse" x1="24.513842" x2="24.513784" y1="5.055214" y2="19.730726"><stop offset="0" stop-color="#fff"/><stop offset=".00000001" stop-color="#fff" stop-opacity=".235294"/><stop offset="1" stop-color="#fff" stop-opacity=".156863"/><stop offset="1" stop-color="#fff" stop-opacity=".392157"/></linearGradient><linearGradient id="c" gradientTransform="matrix(.25378586 0 0 .30501865 19.128979 -.685477)" gradientUnits="userSpaceOnUse" x1="-53.389248" x2="-51.786404" y1="25.669893" y2="2.906247"><stop offset="0" stop-opacity=".339506"/><stop offset="1" stop-opacity=".246914"/></linearGradient><linearGradient id="d" gradientTransform="matrix(.28571361 0 0 .30419701 1.010328 3.482855)" gradientUnits="userSpaceOnUse" x1="25.132275" x2="26.793295" y1=".985206" y2="18.959322"><stop offset="0" stop-color="#f4f4f4"/><stop offset="1" stop-color="#dbdbdb"/></linearGradient><linearGradient id="e" gradientUnits="userSpaceOnUse" x1="23.50000062912" x2="23.50000062912" y1="13.99999900365" y2="28.00000067577"><stop offset="0" stop-color="#fff"/><stop offset=".16666667" stop-color="#fff" stop-opacity=".235294"/><stop offset="1" stop-color="#fff" stop-opacity=".156863"/><stop offset="1" stop-color="#fff" stop-opacity=".392157"/></linearGradient><g transform="matrix(1.7777689 0 0 1.7777689 -3.542011 -5.976953)"><path d="m20.919922 14.5a8.014026 8.014026 0 0 1 -7.875 6.566406 8.014026 8.014026 0 0 1 -.527344-.027344c.005956.411245.005383.734115-.017578.732422v8.716797a17.455693 17.455693 0 0 0 .544922.019531 17.455693 17.455693 0 0 0 17.388672-16.007812z" fill="url(#a)" stroke="#6326b9" stroke-linecap="round" stroke-linejoin="round" stroke-opacity=".595588" transform="matrix(.56250281 0 0 .56250281 1.992391 3.362053)"/><path d="m3.117397 4.4870585h6.1875309v6.1875305l-6.1875429.00089z" fill="url(#d)"/><g fill="none"><g stroke-width=".562503" transform="translate(.336183 3.705833)"><path d="m8.687493 6.6875049h-5.6250281v-5.6250281h5.6250281z" stroke="url(#b)" stroke-linecap="round"/><path d="m2.4999621.49997396 6.7500169.00000002.0000131 6.74906282-6.75003.0009541z" stroke="url(#c)" stroke-linejoin="round"/></g><path d="m21.722656 15.5a9.0234713 9.0234713 0 0 1 -8.222656 6.558594v7.416015a16.446153 16.446153 0 0 0 15.794922-13.974609z" stroke="url(#e)" stroke-linecap="round" stroke-linejoin="round" stroke-opacity=".595588" transform="matrix(.56250281 0 0 .56250281 1.992391 3.362053)"/><path d="m6.4924138 16.580869h-.937498l-1.5937645-1.406257-.0000001-3.93752v.375001" stroke="#ce5c00" stroke-width=".562503"/></g><path d="m9.0236703 16.299611-2.2500051-2.250005v4.500011z" fill="#fcaf3e" stroke="#ce5c00" stroke-linecap="round" stroke-linejoin="round" stroke-width=".562503"/></g></svg>