<svg xmlns="http://www.w3.org/2000/svg" xmlns:xlink="http://www.w3.org/1999/xlink" width="32" height="32"><defs><linearGradient id="a"><stop offset="0" stop-color="#fff"/><stop offset="0" stop-color="#fff" stop-opacity=".235"/><stop offset="1" stop-color="#fff" stop-opacity=".157"/><stop offset="1" stop-color="#fff" stop-opacity=".392"/></linearGradient><linearGradient id="b"><stop offset="0" stop-color="#f4f4f4"/><stop offset="1" stop-color="#dbdbdb"/></linearGradient><linearGradient id="c"><stop offset="0"/><stop offset="1" stop-opacity="0"/></linearGradient><linearGradient id="d"><stop offset="0" stop-opacity="0"/><stop offset=".5"/><stop offset="1" stop-opacity="0"/></linearGradient><linearGradient x1="24.001" y1="6.381" x2="24.001" y2="41.619" id="p" xlink:href="#a" gradientUnits="userSpaceOnUse" gradientTransform="matrix(.72973 0 0 .56757 -1.515 2.378)"/><linearGradient x1="25.132" y1=".985" x2="25.132" y2="47.013" id="o" xlink:href="#b" gradientUnits="userSpaceOnUse" gradientTransform="matrix(.8 0 0 .47802 -3.2 3.794)"/><radialGradient cx="605.714" cy="486.648" r="117.143" fx="605.714" fy="486.648" id="n" xlink:href="#c" gradientUnits="userSpaceOnUse" gradientTransform="matrix(.01928 0 0 .00824 17.982 23.98)"/><radialGradient cx="605.714" cy="486.648" r="117.143" fx="605.714" fy="486.648" id="m" xlink:href="#c" gradientUnits="userSpaceOnUse" gradientTransform="matrix(-.01928 0 0 .00824 14.018 23.98)"/><linearGradient x1="302.857" y1="366.648" x2="302.857" y2="609.505" id="l" xlink:href="#d" gradientUnits="userSpaceOnUse" gradientTransform="matrix(.05633 0 0 .00824 -4.36 23.98)"/><linearGradient x1="9.61" y1="6.395" x2="9.61" y2="41.619" id="r" xlink:href="#e" gradientUnits="userSpaceOnUse" gradientTransform="matrix(.66892 0 0 .56757 -1.18 2.378)"/><linearGradient id="e"><stop offset="0" stop-color="#fff"/><stop offset="0" stop-color="#fff" stop-opacity=".235"/><stop offset="1" stop-color="#fff" stop-opacity=".157"/><stop offset="1" stop-color="#fff" stop-opacity=".392"/></linearGradient><linearGradient id="f"><stop offset="0" stop-color="#aaa"/><stop offset="1" stop-color="#c8c8c8"/></linearGradient><linearGradient id="i"><stop offset="0" stop-color="#fff"/><stop offset="1" stop-color="#fff" stop-opacity="0"/></linearGradient><linearGradient x1="22.004" y1="63.218" x2="22.004" y2="25.647" id="s" xlink:href="#f" gradientUnits="userSpaceOnUse" gradientTransform="matrix(1.33942 0 0 -1.98263 -11.354 93.863)"/><linearGradient id="g"><stop offset="0" stop-opacity=".318"/><stop offset="1" stop-opacity=".24"/></linearGradient><linearGradient xlink:href="#g" id="v" gradientUnits="userSpaceOnUse" gradientTransform="matrix(.74052 0 0 .4677 46.925 2.682)" x1="-51.786" y1="50.786" x2="-51.786" y2="2.906"/><linearGradient xlink:href="#h" id="w" x1="4.334" y1="6.526" x2="4.334" y2="29.474" gradientUnits="userSpaceOnUse" gradientTransform="translate(0 -2)"/><linearGradient id="h"><stop offset="0" stop-color="#ffa154"/><stop offset="1" stop-color="#f37329"/></linearGradient><linearGradient xlink:href="#h" id="q" gradientUnits="userSpaceOnUse" x1="4.334" y1="6.526" x2="4.334" y2="29.474" gradientTransform="translate(0 -2)"/><linearGradient xlink:href="#h" id="t" gradientUnits="userSpaceOnUse" x1="4.334" y1="6.526" x2="4.334" y2="29.474" gradientTransform="translate(0 -2)"/><linearGradient xlink:href="#h" id="u" gradientUnits="userSpaceOnUse" x1="4.334" y1="6.526" x2="4.334" y2="29.474" gradientTransform="translate(0 -2)"/><linearGradient id="x" gradientTransform="matrix(.384 0 0 .3638 15.74 15.092)" gradientUnits="userSpaceOnUse" x1="34.404" x2="13.759" y1="14.66" y2="46.874"><stop offset="0" stop-color="#fff"/><stop offset="1" stop-color="#fff" stop-opacity="0"/></linearGradient><radialGradient cx="32" cy="41.5" r="21" fx="32" fy="41.5" id="y" xlink:href="#c" gradientUnits="userSpaceOnUse" gradientTransform="matrix(.4524 0 0 .143 .024 15.07)"/><radialGradient cx="25" cy="28.66" r="16" fx="25" fy="28.66" id="z" xlink:href="#j" gradientUnits="userSpaceOnUse" gradientTransform="matrix(.6774 0 0 .193 -5.016 9.998)"/><linearGradient id="j"><stop offset="0" stop-color="#f5f5f5"/><stop offset="1" stop-color="#d2d2d2"/></linearGradient><linearGradient x1="30" y1="25.085" x2="30" y2="45" id="A" xlink:href="#k" gradientUnits="userSpaceOnUse" gradientTransform="matrix(.516 0 0 .5167 -.984 -.492)"/><linearGradient id="k"><stop offset="0" stop-color="#b8b8b8"/><stop offset="1" stop-color="#878787"/></linearGradient><linearGradient x1="29.996" y1="21.44" x2="29.996" y2="43.531" id="B" xlink:href="#i" gradientUnits="userSpaceOnUse" gradientTransform="matrix(.516 0 0 .5167 -.984 -.492)"/><radialGradient cx="26.376" cy="12.313" r="8" fx="26.376" fy="12.313" id="C" xlink:href="#j" gradientUnits="userSpaceOnUse" gradientTransform="matrix(.8655 -.071 .0676 .849 -11.04 -4.205)"/><linearGradient x1="30" y1="5" x2="30" y2="44.679" id="D" xlink:href="#k" gradientUnits="userSpaceOnUse" gradientTransform="matrix(.5277 0 0 .5357 -1.33 -1.404)"/><linearGradient x1="22" y1="39" x2="17" y2="37.438" id="E" xlink:href="#c" gradientUnits="userSpaceOnUse" gradientTransform="matrix(.75 0 0 .4348 -5.128 2.917)"/><radialGradient cx="30" cy="33.188" r="4.688" fx="30" fy="33.188" id="F" xlink:href="#c" gradientUnits="userSpaceOnUse" gradientTransform="matrix(.815 0 0 .2534 -9.948 6.59)"/><linearGradient x1="22" y1="39" x2="17" y2="37.438" id="G" xlink:href="#c" gradientUnits="userSpaceOnUse" gradientTransform="matrix(-.75 0 0 .4348 34.15 2.917)"/><linearGradient x1="30" y1="6.334" x2="30" y2="24.913" id="H" xlink:href="#i" gradientUnits="userSpaceOnUse" gradientTransform="matrix(.5277 0 0 .5357 -1.33 -1.404)"/></defs><path overflow="visible" opacity=".15" fill="url(#l)" d="M2.4 27h27.2v2H2.4z"/><path d="M2.4 27v2c-.993.004-2.4-.448-2.4-1s1.108-1 2.4-1z" overflow="visible" opacity=".15" fill="url(#m)"/><path d="M29.6 27v2c.993.004 2.4-.448 2.4-1s-1.108-1-2.4-1z" overflow="visible" opacity=".15" fill="url(#n)"/><path d="M2 5h28v22H2V5z" fill="url(#o)"/><path d="M29.5 26.5h-27v-21h27z" fill="none" stroke="url(#p)" stroke-linecap="round"/><path d="M6 27.5H1.5v-23H6" color="#000" overflow="visible" fill="url(#q)"/><path d="M5.5 26.5h-3v-21h3" opacity=".5" fill="none" stroke="url(#r)" stroke-linecap="square"/><path d="M11 7.5h4m1 0h2m1 0h1m1 0h2" fill="none" stroke="#aaa"/><path style="line-height:normal;-inkscape-font-specification:Sans;text-indent:0;text-align:start;text-decoration-line:none;text-transform:none" d="M7 24v-1h2v1zm3 0v-1h6v1zm-3-4v-1h3v1zm4 0v-1h2v1zm3 0v-1h1v1zm-7-4v-1h3v1zm4 0v-1h1v1zm2 0v-1h2v1zm-6-4v-1h3v1zm4 0v-1h3v1z" color="#000" font-family="Sans" overflow="visible" fill="url(#s)"/><path d="M29 17a6 6 0 1 1-3.174-5.293L23 17z" style="isolation:auto;mix-blend-mode:normal" color="#000" overflow="visible" opacity=".5" solid-color="#000000" fill="url(#t)"/><path style="isolation:auto;mix-blend-mode:normal" d="M29 17.017c0 2.602-1.892 5.09-4.4 5.783-2.506.694-5.407-.466-6.745-2.697-.01.01 5.145-3.086 5.145-3.086z" color="#000" overflow="visible" opacity=".5" solid-color="#000000" fill="url(#u)"/><path d="M6 27.5h24.5v-23H6" fill="none" stroke="url(#v)" stroke-linejoin="round"/><path d="M6 27.5H1.5c0-7.093.02-15.35.02-22.868l.048-.093.118-.04H6" color="#000" overflow="visible" opacity=".4" fill="none" stroke="#cc3b02" stroke-linejoin="round"/><path style="isolation:auto;mix-blend-mode:normal" d="M29 17.004c0 2.6-1.892 5.088-4.4 5.782-.058-.01-1.6-5.782-1.6-5.782z" color="#000" overflow="visible" solid-color="#000000" fill="url(#w)"/><path d="M17.5 31.5v-15L31 24z" fill="#9cde4a" fill-rule="evenodd" stroke="#5ca12a" stroke-linecap="round" stroke-linejoin="round"/><path d="M18.466 29.85V18.184L28.75 24z" opacity=".41" fill="none" stroke="url(#x)" stroke-linecap="round"/><path d="M24 21a9.5 3 0 0 1-19 0 9.5 3 0 1 1 19 0z" opacity=".8" fill="url(#y)" transform="translate(-5 8)"/><path d="M12.177 10.1c.238 1.125.37 1.975.178 3.1-1.502 1.248-5.345 1.808-5.34 3.1L6.5 20.175c0 1.284 3.582 2.325 8 2.325s8-1.04 8-2.325l-.516-3.875c-.006-1.106-3.87-1.808-5.355-3.1-.128-1.044-.027-2.056.193-3.1z" fill="url(#z)" stroke="url(#A)" transform="translate(-5 8)"/><path d="M13.22 11.094c.086.856.334 1.8-.05 2.616-.642.728-1.594 1.093-2.467 1.472-1.38.328-2.99.818-2.778 1.816l-.425 3.19c.306.16 1.08.584 1.625.687 2.52.667 5.168.725 7.755.52 1.512-.167 3.09-.353 4.433-1.114.335-.072.107-.315.114-.654l-.396-3.064c-.586-.502-1.39-.753-2.105-1.064-1.083-.447-2.252-.853-3.087-1.708-.392-.69-.162-1.54-.107-2.287.26-.528-.223-.4-.552-.41h-1.96z" fill="none" stroke="url(#B)" transform="translate(-5 8)"/><path d="M14.5 1.542c-2.186 0-3.958 1.68-3.958 3.75.017.767.082 1.677.528 3.75.264.804 2.617 2.947 2.638 3.215.512.268 1.32.268 1.847 0 0-.268 2.11-2.41 2.375-3.215.502-2.154.5-2.946.528-3.75 0-2.07-1.772-3.75-3.958-3.75z" fill="url(#C)" stroke="url(#D)" stroke-width="1.084" transform="translate(-5 8)"/><path d="M10.622 21.7c-1.77-.862-.927-2.775-.75-4C9.122 18.57 9.5 21 8 21c1 .356 1.685.598 2.622.7z" opacity=".5" fill="url(#E)" transform="translate(-5 8)"/><path d="M12 13.35c.366.96 1.343 1.65 2.5 1.65s2.134-.69 2.5-1.65z" opacity=".3" fill="url(#F)" transform="translate(-5 8)"/><path d="M18.4 21.7c1.772-.862.927-2.775.75-4 .75.87.372 3.3 1.872 3.3-1 .356-1.684.598-2.622.7z" opacity=".5" fill="url(#G)" transform="translate(-5 8)"/><path d="M14.5 2.53c-1.667 0-2.95 1.232-2.97 2.72v.03c.018.71.087 1.53.5 3.47-.004-.037.098.204.314.47.232.284.566.607.875.936.307.33.598.67.842.938.095.103.172.187.25.28.167.036.416.033.626 0 .06-.083.114-.158.187-.25.218-.27.474-.575.75-.905.276-.332.57-.683.78-.97.2-.268.31-.503.314-.5.46-2 .472-2.67.5-3.47v-.03c-.02-1.488-1.303-2.72-2.97-2.72z" fill="none" stroke="url(#H)" stroke-width="1.084" transform="translate(-5 8)"/></svg>