<?xml version="1.0" encoding="UTF-8" standalone="no"?>
<svg
   xmlns:dc="http://purl.org/dc/elements/1.1/"
   xmlns:cc="http://creativecommons.org/ns#"
   xmlns:rdf="http://www.w3.org/1999/02/22-rdf-syntax-ns#"
   xmlns:svg="http://www.w3.org/2000/svg"
   xmlns="http://www.w3.org/2000/svg"
   xmlns:xlink="http://www.w3.org/1999/xlink"
   xmlns:sodipodi="http://sodipodi.sourceforge.net/DTD/sodipodi-0.dtd"
   xmlns:inkscape="http://www.inkscape.org/namespaces/inkscape"
   height="32"
   viewBox="0 0 8.4666665 8.4666668"
   width="32"
   version="1.1"
   id="svg72"
   sodipodi:docname="datadatapilotrun.svg"
   inkscape:version="0.92.3 (unknown)">
  <metadata
     id="metadata78">
    <rdf:RDF>
      <cc:Work
         rdf:about="">
        <dc:format>image/svg+xml</dc:format>
        <dc:type
           rdf:resource="http://purl.org/dc/dcmitype/StillImage" />
      </cc:Work>
    </rdf:RDF>
  </metadata>
  <defs
     id="defs76" />
  <sodipodi:namedview
     pagecolor="#ffffff"
     bordercolor="#666666"
     borderopacity="1"
     objecttolerance="10"
     gridtolerance="10"
     guidetolerance="10"
     inkscape:pageopacity="0"
     inkscape:pageshadow="2"
     inkscape:window-width="1366"
     inkscape:window-height="706"
     id="namedview74"
     showgrid="false"
     inkscape:zoom="5.2149125"
     inkscape:cx="-13.93031"
     inkscape:cy="8.1201459"
     inkscape:window-x="0"
     inkscape:window-y="0"
     inkscape:window-maximized="1"
     inkscape:current-layer="svg72" />
  <linearGradient
     id="a"
     gradientUnits="userSpaceOnUse"
     x1="16.827135"
     x2="15.820864"
     y1="16.666899"
     y2="5.0028138">
    <stop
       offset="0"
       stop-color="#cd9ef7"
       id="stop2" />
    <stop
       offset="1"
       stop-color="#a56de2"
       id="stop4" />
  </linearGradient>
  <linearGradient
     id="b"
     gradientTransform="matrix(0 -.59172 -.63517 0 32.785 29.686)"
     gradientUnits="userSpaceOnUse"
     x1="25.929493"
     x2="35.738609"
     y1="19.212179"
     y2="19.169613">
    <stop
       offset="0"
       stop-color="#fff"
       id="stop7" />
    <stop
       offset="0.36333463"
       stop-color="#fff"
       stop-opacity=".235"
       id="stop9" />
    <stop
       offset=".585"
       stop-color="#fff"
       stop-opacity=".157"
       id="stop11" />
    <stop
       offset="1"
       stop-color="#fff"
       stop-opacity=".392"
       id="stop13" />
  </linearGradient>
  <linearGradient
     id="c"
     gradientTransform="matrix(.27278 0 0 .3079 -.107 290.402)"
     gradientUnits="userSpaceOnUse"
     x1="11.001"
     x2="11.001"
     xlink:href="#d"
     y1="2.269"
     y2="19.728" />
  <linearGradient
     id="d">
    <stop
       offset="0"
       stop-color="#fff"
       id="stop17" />
    <stop
       offset=".063"
       stop-color="#fff"
       stop-opacity=".235"
       id="stop19" />
    <stop
       offset=".951"
       stop-color="#fff"
       stop-opacity=".157"
       id="stop21" />
    <stop
       offset="1"
       stop-color="#fff"
       stop-opacity=".392"
       id="stop23" />
  </linearGradient>
  <linearGradient
     id="e"
     gradientTransform="matrix(.27447 0 0 .28068 -.113 290.553)"
     gradientUnits="userSpaceOnUse"
     x1="8.295"
     x2="8.295"
     y1="-4.284"
     y2="16.85">
    <stop
       offset="0"
       stop-color="#cdf87e"
       id="stop26" />
    <stop
       offset=".262"
       stop-color="#a2e34f"
       id="stop28" />
    <stop
       offset=".661"
       stop-color="#68b723"
       id="stop30" />
    <stop
       offset="1"
       stop-color="#1d7e0d"
       id="stop32" />
  </linearGradient>
  <linearGradient
     id="f"
     gradientTransform="matrix(.1323 0 0 .06615 -.265 291.444)"
     gradientUnits="userSpaceOnUse"
     x1="23.954"
     x2="23.954"
     y1="15.999"
     y2="19.963">
    <stop
       offset="0"
       id="stop35" />
    <stop
       offset="1"
       stop-opacity="0"
       id="stop37" />
  </linearGradient>
  <linearGradient
     id="g"
     gradientTransform="matrix(.1347 0 0 .14642 -.198 290.374)"
     gradientUnits="userSpaceOnUse"
     x1="24"
     x2="24"
     xlink:href="#d"
     y1="5"
     y2="43" />
  <linearGradient
     id="h"
     gradientTransform="matrix(.59436 0 0 .5999 1.735 -.033)"
     gradientUnits="userSpaceOnUse"
     x1="25.132"
     x2="25.132"
     y1="15.5"
     y2="48.396">
    <stop
       offset="0"
       stop-color="#fafafa"
       id="stop41" />
    <stop
       offset="1"
       stop-color="#e2e1de"
       id="stop43" />
  </linearGradient>
  <g
     stroke-miterlimit="7"
     transform="matrix(0.26458333,0,0,-0.26458333,-0.156808,8.783211)"
     id="g50"
     style="stroke-width:0.96399999;stroke-miterlimit:7">
    <path
       d="M 25.455,21.905 C 31.082,17 29.082,9 20.582,8.785 V 4.643 l -9,6.905 9,6.905 v -4.11 c 4.947,-0.193 7.718,4.318 4.182,7.563 z"
       display="block"
       id="path46"
       inkscape:connector-curvature="0"
       style="display:block;fill:url(#a);stroke:#7239b3;stroke-linejoin:round;stroke-opacity:0.69300005" />
    <path
       d="m 26.776,19.5 c 2.428,-2.844 0.905,-10.267 -7.15,-9.716 l -0.087,-3.15 -6.34,4.913 6.34,4.87 v -2.902 c 7.71,-0.745 7.962,4.835 7.236,5.985 z"
       display="block"
       id="path48"
       inkscape:connector-curvature="0"
       style="display:block;opacity:0.52999998;fill:none;stroke:url(#b)" />
  </g>
  <path
     d="m4 2c-.554 0-1 .446-1 1v26c0 .554.446 1 1 1h5v-21h20v-6c0-.554-.446-1-1-1z"
     fill="url(#h)"
     transform="scale(.26458)"
     id="path52" />
  <path
     d="m.543 291.18h4.983l-5.063.065.096 5.49z"
     fill="none"
     stroke="url(#g)"
     stroke-linecap="round"
     stroke-linejoin="round"
     stroke-width=".201"
     transform="matrix(1.33333 0 0 1.33333 .176 -387.532)"
     id="path54" />
  <path
     d="m.265 292.436h1.39v.198h-1.391z"
     fill="url(#f)"
     opacity=".15"
     transform="matrix(1.33333 0 0 1.33333 .176 -387.532)"
     id="path56" />
  <path
     d="m.66 2.12-.004 5.524c0 .202.207.42.41.42h1.117"
     fill="none"
     opacity=".3"
     stroke="#000"
     stroke-width=".267999"
     id="path58" />
  <path
     d="m2.116 2.382h.265v5.82h-.264zm-1.323 1.058h1.323v.264h-1.323zm0 1.587h1.323v.265h-1.323zm0 1.588h1.323v.264h-1.323z"
     opacity=".321"
     id="path60" />
  <path
     d="m.592 290.944c-.158 0-.226.17-.226.33v.964h5.354v-.963c0-.162-.118-.322-.276-.322z"
     fill="url(#e)"
     transform="matrix(1.33333 0 0 1.33333 .176 -387.532)"
     id="path62" />
  <path
     d="m1.083.397c-.203 0-.423.246-.423.448v1.4l7.144.004-.002-1.409c0-.203-.192-.445-.394-.445z"
     fill="none"
     opacity=".4"
     stroke="#126400"
     stroke-linecap="round"
     stroke-width=".267999"
     id="path64" />
  <path
     d="m.56 291.14.002 1.002 4.975.01v-1.002z"
     style="opacity:.5;fill:none;stroke-width:.201;stroke-linecap:round;stroke-linejoin:round;stroke:url(#c)"
     transform="matrix(1.33333 0 0 1.33333 .176 -387.532)"
     id="path66" />
  <path
     d="m2.117.53h.264v1.587h-.263zm1.853 0h.263v1.587h-.263zm1.85 0h.265v1.587h-.265z"
     fill="#126400"
     opacity=".4"
     id="path68" />
  <path
     d="m6.656 2.862c1.57 1.37 1.012 3.603-1.36 3.662v1.156l-2.512-1.925 2.512-1.928v1.148c1.38.053 2.154-1.206 1.167-2.112z"
     fill="none"
     opacity=".5"
     stroke="#a771db"
     stroke-linejoin="round"
     stroke-width=".264888"
     id="path70" />
</svg>
