<svg xmlns="http://www.w3.org/2000/svg" xmlns:xlink="http://www.w3.org/1999/xlink" height="32" viewBox="0 0 8.4666665 8.4666668" width="32"><defs><radialGradient cx="23.335" cy="41.636" r="22.627" fx="23.335" fy="41.636" id="r" xlink:href="#a" gradientUnits="userSpaceOnUse" gradientTransform="matrix(.48614 0 0 .19884 .656 19.22)"/><linearGradient id="a"><stop offset="0"/><stop offset="1" stop-opacity="0"/></linearGradient><linearGradient x1="103.95" y1="-7.666" x2="89.424" y2="-7.666" id="s" xlink:href="#b" gradientUnits="userSpaceOnUse" gradientTransform="matrix(.37655 0 0 .3584 -27.15 31.67)" spreadMethod="reflect"/><linearGradient id="b"><stop offset="0" stop-color="#868688"/><stop offset="1" stop-color="#d9d9da"/></linearGradient><linearGradient x1="89.018" y1="22.537" x2="89.018" y2="27.546" id="t" xlink:href="#c" gradientUnits="userSpaceOnUse" gradientTransform="matrix(.82245 0 0 .82906 -65.45 8.077)"/><linearGradient id="c"><stop offset="0" stop-color="#a0a0a0"/><stop offset="1" stop-color="#4a4a4a"/></linearGradient><linearGradient x1="103.95" y1="-7.666" x2="89.424" y2="-7.666" id="u" xlink:href="#b" gradientUnits="userSpaceOnUse" gradientTransform="matrix(.37655 0 0 .3584 -27.15 26.67)" spreadMethod="reflect"/><linearGradient x1="89.018" y1="22.537" x2="89.018" y2="27.546" id="v" xlink:href="#c" gradientUnits="userSpaceOnUse" gradientTransform="matrix(.82245 0 0 .82906 -65.45 3.077)"/><linearGradient x1="103.95" y1="-7.666" x2="89.424" y2="-7.666" id="w" xlink:href="#b" gradientUnits="userSpaceOnUse" gradientTransform="matrix(.37655 0 0 .3528 -27.15 21.746)" spreadMethod="reflect"/><linearGradient x1="89.018" y1="22.537" x2="89.018" y2="27.546" id="x" xlink:href="#c" gradientUnits="userSpaceOnUse" gradientTransform="matrix(.82245 0 0 .8161 -65.45 -1.478)"/><linearGradient x1="102.308" y1="-2.393" x2="102.308" y2="-24.582" id="y" xlink:href="#d" gradientUnits="userSpaceOnUse" gradientTransform="matrix(.37845 0 0 .34136 -27.338 17.615)" spreadMethod="reflect"/><linearGradient id="d"><stop offset="0" stop-color="#a5a6a8"/><stop offset="1" stop-color="#e8e8e8"/></linearGradient><linearGradient x1="109.956" y1="-24.911" x2="109.956" y2="-2.376" id="z" xlink:href="#e" gradientUnits="userSpaceOnUse" gradientTransform="matrix(.37845 0 0 .34136 -27.338 17.615)"/><linearGradient id="e"><stop offset="0" stop-color="#b3b3b3"/><stop offset="1" stop-color="#dadada"/></linearGradient><linearGradient x1="21.381" y1="5.052" x2="21.381" y2="44.137" id="A" xlink:href="#f" gradientUnits="userSpaceOnUse" gradientTransform="matrix(.4857 0 0 .5 .343 7.75)"/><linearGradient id="f"><stop offset="0" stop-color="#fff"/><stop offset=".081" stop-color="#fff" stop-opacity=".235"/><stop offset=".923" stop-color="#fff" stop-opacity=".157"/><stop offset="1" stop-color="#fff" stop-opacity=".392"/></linearGradient></defs><linearGradient id="p" gradientTransform="matrix(1.38317 0 0 1.41442 -11.892 21.51)" gradientUnits="userSpaceOnUse" x1="13.697" x2="13.3" y1="12.091" y2="29.436"><stop offset="0" stop-color="#aff05f"/><stop offset="1" stop-color="#68b723"/></linearGradient><linearGradient id="q" gradientUnits="userSpaceOnUse" x1="12.674" x2="12.001" xlink:href="#g" y1="1.33" y2="20"/><linearGradient id="g"><stop offset="0" stop-color="#fff"/><stop offset=".654" stop-color="#fff" stop-opacity=".235"/><stop offset="1" stop-color="#fff" stop-opacity=".157"/><stop offset="1" stop-color="#fff" stop-opacity=".392"/></linearGradient><linearGradient id="n" gradientUnits="userSpaceOnUse" x1="13.561" x2="13.608" y1="-5.013" y2="21.532"><stop offset="0" stop-color="#f7b19e"/><stop offset="1" stop-color="#e2866d"/></linearGradient><linearGradient id="o" gradientUnits="userSpaceOnUse" x1="11.673" x2="12.001" xlink:href="#g" y1="-7.108" y2="20"/><linearGradient id="l" gradientUnits="userSpaceOnUse" x1="15.608" x2="15.608" y1="2.546" y2="21.532"><stop offset="0" stop-color="#cd9ef7"/><stop offset="1" stop-color="#a56de2"/></linearGradient><linearGradient id="m" gradientUnits="userSpaceOnUse" x1="12.993" x2="14.001" xlink:href="#g" y1="-12.336" y2="20"/><radialGradient id="i" cx="4.993" cy="43.5" gradientTransform="matrix(2.00378 0 0 1.4 27.988 -17.4)" gradientUnits="userSpaceOnUse" r="2.5" xlink:href="#h"/><linearGradient id="h"><stop offset="0" stop-color="#181818"/><stop offset="1" stop-color="#181818" stop-opacity="0"/></linearGradient><radialGradient id="j" cx="4.993" cy="43.5" gradientTransform="matrix(2.00378 0 0 1.4 -20.012 -104.4)" gradientUnits="userSpaceOnUse" r="2.5" xlink:href="#h"/><linearGradient id="k" gradientUnits="userSpaceOnUse" x1="25.058" x2="25.058" y1="47.028" y2="39.999"><stop offset="0" stop-color="#181818" stop-opacity="0"/><stop offset=".5" stop-color="#181818"/><stop offset="1" stop-color="#181818" stop-opacity="0"/></linearGradient><g opacity=".4"><path d="M38 40h5v7h-5z" fill="url(#i)" transform="matrix(.22042 0 0 .1134 -1.053 2.873)"/><path d="M-10-47h5v7h-5z" fill="url(#j)" transform="matrix(-.22042 0 0 -.1134 -1.053 2.873)"/><path d="M10 40h28v7H10z" fill="url(#k)" transform="matrix(.22042 0 0 .1134 -1.053 2.873)"/></g><g transform="matrix(.26458 0 0 .26458 -1.326 2.117)"><rect fill="url(#l)" height="27.013" rx="1" width="6.02" x="17.48" y="-5.513"/><g fill="none" stroke-linecap="round" stroke-linejoin="round"><path d="M18.48-4.508h4.02V20.5h-4.02z" opacity=".5" stroke="url(#m)"/><rect height="26.992" opacity=".5" rx="1" stroke="#7239b3" width="5.992" x="17.508" y="-5.492"/></g></g><g transform="matrix(.26458 0 0 .26458 1.59 2.117)"><rect fill="url(#n)" height="21.983" rx="1" width="6.054" x="15.446" y="-.483"/><g fill="none" stroke-linecap="round" stroke-linejoin="round"><path d="M16.49.485h4.01V20.5h-4.01z" opacity=".5" stroke="url(#o)"/><rect height="21.989" opacity=".5" rx="1" stroke="#b35039" width="6.012" x="15.488" y="-.489"/></g></g><g transform="matrix(.26458 0 0 .26458 -3.175 2.117)"><rect fill="url(#p)" height="17.913" rx="1" width="6.029" x="15.471" y="3.587"/><g fill="none" stroke-linecap="round" stroke-linejoin="round"><path d="M16.502 4.506h4V20.5h-4z" opacity=".5" stroke="url(#q)"/><rect height="17.997" opacity=".5" rx="1" stroke="#7bb339" width="6.002" x="15.498" y="3.503"/></g></g><g transform="matrix(.26458 0 0 .26458 2.646 .265)"><path d="M23 27.5c0 2.485-4.924 4.5-11 4.5S1 29.985 1 27.5 5.924 23 12 23s11 2.015 11 4.5z" overflow="visible" opacity=".3" fill="url(#r)" fill-rule="evenodd"/><path d="M21.44 26.825c0 2.03-4.233 3.675-9.45 3.675-5.218 0-9.453-1.646-9.453-3.675 0-6.488-1.155-3.598 9.452-3.674 10.85-.078 9.45-2.848 9.45 3.675z" fill="url(#s)" stroke="url(#t)"/><path d="M21.5 23c0 1.933-4.253 3.5-9.5 3.5S2.5 24.933 2.5 23s4.253-3.5 9.5-3.5 9.5 1.567 9.5 3.5z" fill="none" stroke="#d8d8d8"/><path d="M21.44 21.825c0 2.03-4.233 3.675-9.45 3.675-5.218 0-9.453-1.646-9.453-3.675 0-6.488-1.155-3.598 9.452-3.674 10.85-.078 9.45-2.848 9.45 3.675z" fill="url(#u)" stroke="url(#v)"/><path d="M21.5 18c0 1.933-4.253 3.5-9.5 3.5S2.5 19.933 2.5 18s4.253-3.5 9.5-3.5 9.5 1.567 9.5 3.5z" fill="none" stroke="#d8d8d8"/><path d="M21.44 16.977c0 1.997-4.233 3.523-9.45 3.523-5.218 0-9.453-1.526-9.453-3.523 0-7.19-1.155-3.542 9.452-3.617 10.85-.078 9.45-3.11 9.45 3.617z" fill="url(#w)" stroke="url(#x)"/><path d="M21.5 13c0 1.933-4.253 3.5-9.5 3.5S2.5 14.933 2.5 13 6.753 9.5 12 9.5s9.5 1.567 9.5 3.5z" fill="url(#y)" stroke="url(#z)"/><rect width="17" height="19" rx="17.5" ry="3" x="3.5" y="10.5" color="#000" overflow="visible" opacity=".5" fill="none" stroke="url(#A)"/></g></svg>