<svg xmlns="http://www.w3.org/2000/svg" xmlns:xlink="http://www.w3.org/1999/xlink" width="32" height="32"><defs><linearGradient id="b"><stop offset="0" stop-color="#fff"/><stop offset=".405" stop-color="#fff" stop-opacity=".235"/><stop offset=".744" stop-color="#fff" stop-opacity=".157"/><stop offset="1" stop-color="#fff" stop-opacity=".392"/></linearGradient><linearGradient y2="27.913" x2="107.101" y1="27.59" x1="82.924" spreadMethod="reflect" gradientTransform="matrix(-.22263 -.3738 .38562 -.21582 26.913 54.14)" gradientUnits="userSpaceOnUse" id="f" xlink:href="#a"/><linearGradient id="a"><stop offset="0" stop-color="#c2c3c4"/><stop offset=".095" stop-color="#c4c5c8"/><stop offset="1" stop-color="#fcfcfc"/></linearGradient><linearGradient gradientUnits="userSpaceOnUse" y2="15.044" x2="16.016" y1="1.894" x1="16.016" id="h" xlink:href="#b" gradientTransform="translate(.008 .014)"/><linearGradient id="c"><stop offset="0" stop-opacity=".34"/><stop offset="1" stop-opacity=".247"/></linearGradient><linearGradient xlink:href="#c" id="g" x1=".11" y1="11.067" x2="22.258" y2="11.067" gradientUnits="userSpaceOnUse"/><linearGradient id="i" gradientTransform="matrix(.4223 0 0 .40494 1.865 1.178)" gradientUnits="userSpaceOnUse" x1="25.132" x2="25.132" y1="15.5" y2="48.396"><stop offset="0" stop-color="#fafafa"/><stop offset="1" stop-color="#e2e1de"/></linearGradient><linearGradient id="j" gradientUnits="userSpaceOnUse" x1="12.001" x2="12.001" xlink:href="#d" y1="3.269" y2="20.729"/><linearGradient id="d"><stop offset="0" stop-color="#fff"/><stop offset=".063" stop-color="#fff" stop-opacity=".235"/><stop offset=".951" stop-color="#fff" stop-opacity=".157"/><stop offset="1" stop-color="#fff" stop-opacity=".392"/></linearGradient><linearGradient id="k" gradientTransform="matrix(.5 0 0 .25 0 4)" gradientUnits="userSpaceOnUse" x1="23.954" x2="23.954" xlink:href="#e" y1="15.999" y2="19.963"/><linearGradient id="e"><stop offset="0" stop-opacity=".119"/><stop offset="1" stop-opacity="0"/></linearGradient><linearGradient id="l" gradientUnits="userSpaceOnUse" x1="9.295" x2="9.295" y1="-3.284" y2="17.85"><stop offset="0" stop-color="#cdf87e"/><stop offset=".262" stop-color="#a2e34f"/><stop offset=".661" stop-color="#68b723"/><stop offset="1" stop-color="#1d7e0d"/></linearGradient><linearGradient id="m" gradientUnits="userSpaceOnUse" x1="12.001" x2="12.001" xlink:href="#d" y1="3.269" y2="20.729"/></defs><path d="M10.112 20.64l2.344-1.353 2.578-10.153 7.757-4.49c-.196-1.9-.476-2.214-1.814-3.31l-7.828 4.532L3.1 3.056.754 4.41l4.618 7.994z" fill="url(#f)" fill-rule="evenodd" stroke="url(#g)" stroke-width=".75" stroke-linejoin="round" transform="rotate(120 15.433 12.636) scale(1.33333)"/><path d="M10.384 19.6l1.397-.808 2.55-10.436 7.426-4.207c-.117-1.22-.285-1-.942-1.63L13.47 6.862 3.206 3.87l-1.428.826z" fill="none" stroke="url(#h)" stroke-width=".75" transform="rotate(120 15.433 12.636) scale(1.33333)"/><g transform="matrix(.53177 0 0 .53177 18.098 18.105)"><rect height="18" rx=".5" width="18" x="3" y="3" fill="url(#i)"/><path d="M3.5 3.5h17v17h-17z" fill="none" stroke="url(#j)" stroke-linecap="round" stroke-linejoin="round"/><path d="M2 8h20v1H2z" opacity=".15" fill="url(#k)"/><path d="M2.5 7.164v13.3c0 .574.462 1.036 1.036 1.036h16.928c.574 0 1.036-.462 1.036-1.036v-13.3" opacity=".3" fill="none" stroke="#000" stroke-width="1.79"/><path d="M3.537 2.195c-.738 0-1.342.604-1.342 1.342V7.5a.304.304 0 0 0 .305.305h19a.304.304 0 0 0 .305-.305V3.537c0-.738-.604-1.342-1.342-1.342z" fill="url(#l)"/><g fill="none"><path d="M3.536 2.5c-.574 0-1.036.462-1.036 1.036V7.5h19V3.536c0-.574-.462-1.036-1.036-1.036z" opacity=".4" stroke="#126400" stroke-width="1.79" stroke-linecap="round"/><path d="M18.5 17.5h-13zm-.01-5.988l-12.99-.01V19.5h13zm.01 3.988h-13m13-2h-13m2.545-1.98l-.017 7.98m2.55-7.944l-.005 7.944m2.535-7.972l.004 7.972m2.52-8l.014 8" opacity=".2" stroke="#fff"/><path d="M3.5 3.5v3h17v-3z" opacity=".5" stroke="url(#m)" stroke-linecap="round" stroke-linejoin="round"/></g></g></svg>