<svg xmlns="http://www.w3.org/2000/svg" xmlns:xlink="http://www.w3.org/1999/xlink" height="32" width="32"><defs><radialGradient xlink:href="#a" id="c" cx="33.572" cy="4.911" fx="33.572" fy="4.911" r="9.482" gradientTransform="matrix(2.53093 -.0237 -.0255 -2.72186 -74.843 12.342)" gradientUnits="userSpaceOnUse"/><radialGradient xlink:href="#b" id="d" cx="21" cy="4.911" fx="21" fy="4.911" r="9.482" gradientTransform="matrix(0 2.53104 -1.4237 0 28.99 -53.152)" gradientUnits="userSpaceOnUse"/><radialGradient id="b" cx="7" cy="4.992" gradientTransform="rotate(90 34.09 8.126) scale(4.1846)" gradientUnits="userSpaceOnUse" r="7.01"><stop offset="0" stop-color="#737373"/><stop offset=".262" stop-color="#636363"/><stop offset=".705" stop-color="#4b4b4b"/><stop offset="1" stop-color="#3f3f3f"/></radialGradient></defs><radialGradient id="a" cx="7" cy="4.992" gradientTransform="rotate(90 34.09 8.126) scale(4.1846)" gradientUnits="userSpaceOnUse" r="7.01"><stop offset="0" stop-color="#737373"/><stop offset=".262" stop-color="#636363"/><stop offset=".705" stop-color="#4b4b4b"/><stop offset="1" stop-color="#3f3f3f"/></radialGradient><path d="M9.432 27c-.24 0-.432-.237-.432-.533V2.713L2.227 9.486c-.392.392-1.023.392-1.415 0-.39-.39-.39-1.022 0-1.414L8.59.292c.215-.214.5-.298.78-.276C9.393.012 9.41 0 9.433 0h1.136c.023 0 .043.01.065.016.28-.02.563.067.777.28l7.78 7.778c.39.392.39 1.023 0 1.414-.392.392-1.023.392-1.415 0L11 2.715v23.752c0 .296-.192.533-.432.533z" fill="url(#c)" transform="translate(0 1)"/><path d="M21.432 3c-.24 0-.432.237-.432.533v23.754l-6.773-6.773c-.392-.392-1.023-.392-1.415 0-.39.39-.39 1.022 0 1.414l7.778 7.78c.215.214.5.298.78.276.022.004.04.016.062.016h1.136c.023 0 .043-.01.065-.016.28.02.563-.067.777-.28l7.78-7.778c.39-.392.39-1.023 0-1.414-.392-.392-1.023-.392-1.415 0L23 27.285V3.533c0-.296-.192-.533-.432-.533z" fill="url(#d)" transform="translate(0 1)"/></svg>