<svg xmlns="http://www.w3.org/2000/svg" xmlns:xlink="http://www.w3.org/1999/xlink" width="32" height="32"><defs><linearGradient id="h"><stop offset="0" stop-color="#cd9ef7"/><stop offset="1" stop-color="#a56de2"/></linearGradient><linearGradient x1="24" y1="6.549" x2="24" y2="41.414" id="m" xlink:href="#a" gradientUnits="userSpaceOnUse" gradientTransform="matrix(.45946 0 0 .45946 .974 8.972)"/><linearGradient id="a"><stop offset="0" stop-color="#fff"/><stop offset="0" stop-color="#fff" stop-opacity=".235"/><stop offset="1" stop-color="#fff" stop-opacity=".157"/><stop offset="1" stop-color="#fff" stop-opacity=".392"/></linearGradient><radialGradient cx="4.993" cy="43.5" r="2.5" fx="4.993" fy="43.5" id="i" xlink:href="#b" gradientUnits="userSpaceOnUse" gradientTransform="matrix(2.00378 0 0 1.4 27.988 -17.4)"/><linearGradient id="b"><stop offset="0" stop-color="#181818"/><stop offset="1" stop-color="#181818" stop-opacity="0"/></linearGradient><radialGradient cx="4.993" cy="43.5" r="2.5" fx="4.993" fy="43.5" id="j" xlink:href="#c" gradientUnits="userSpaceOnUse" gradientTransform="matrix(2.00378 0 0 1.4 -20.012 -104.4)"/><linearGradient id="c"><stop offset="0" stop-color="#181818"/><stop offset="1" stop-color="#181818" stop-opacity="0"/></linearGradient><linearGradient x1="25.058" y1="47.028" x2="25.058" y2="39.999" id="k" xlink:href="#d" gradientUnits="userSpaceOnUse"/><linearGradient id="d"><stop offset="0" stop-color="#181818" stop-opacity="0"/><stop offset=".5" stop-color="#181818"/><stop offset="1" stop-color="#181818" stop-opacity="0"/></linearGradient><linearGradient id="e"><stop offset="0" stop-color="#fafafa"/><stop offset="1" stop-color="#d4d4d4"/></linearGradient><linearGradient gradientTransform="matrix(.6923 0 0 .6923 .923 -31.077)" gradientUnits="userSpaceOnUse" y2="-.07" x2="14.33" y1="32.022" x1="14.33" id="l" xlink:href="#e"/><linearGradient gradientTransform="matrix(0 -.5372 -.57682 0 50.01 35.63)" gradientUnits="userSpaceOnUse" xlink:href="#f" id="p" y2="46.971" x2="18.681" y1="46.971" x1="40.958"/><linearGradient id="f"><stop offset="0" stop-color="#fff"/><stop offset=".45" stop-color="#fff" stop-opacity=".235"/><stop offset=".65" stop-color="#fff" stop-opacity=".157"/><stop offset="1" stop-color="#fff" stop-opacity=".392"/></linearGradient><radialGradient gradientTransform="matrix(-.27598 0 0 -.29583 24.336 32.584)" gradientUnits="userSpaceOnUse" xlink:href="#g" id="n" fy="36.421" fx="24.837" r="15.645" cy="36.421" cx="24.837"/><linearGradient id="g"><stop offset="0"/><stop offset="1" stop-opacity="0"/></linearGradient><linearGradient gradientUnits="userSpaceOnUse" y2="17.211" x2="17.151" y1="5.88" x1="17.151" id="o" xlink:href="#h" gradientTransform="translate(.012 7.765)"/></defs><g transform="translate(-.848 -11.51) scale(1.33333)"><g opacity=".4"><path fill="url(#i)" d="M38 40h5v7h-5z" transform="matrix(.57895 0 0 .42857 -1.895 10.857)"/><path transform="matrix(-.57895 0 0 -.42857 -1.895 10.857)" fill="url(#j)" d="M-10-47h5v7h-5z"/><path fill="url(#k)" d="M10 40h28v7H10z" transform="matrix(.57895 0 0 .42857 -1.895 10.857)"/></g><rect transform="scale(1 -1)" width="18" height="18" rx=".5" ry=".5" x="3" y="-29" color="#000" overflow="visible" fill="url(#l)"/><rect width="18.76" height="18.762" rx="1" ry="1" x="2.5" y="10.5" color="#000" overflow="visible" opacity=".5" fill="none" stroke="#555761" stroke-width=".75" stroke-linecap="round" stroke-linejoin="round"/><path fill="none" stroke="url(#m)" stroke-width=".75" stroke-linecap="round" stroke-linejoin="round" d="M3.272 11.308H20.52v17.21H3.272z"/><path d="M13.16 21.558c0-6.173 8.634-6.173 8.636 0 0 2.555-1.93 4.88-4.315 4.88-2.383 0-4.32-2.325-4.32-4.88z" overflow="visible" opacity=".141" fill="url(#n)" fill-rule="evenodd"/><path d="M17.51 24.735l-6.9-5.604 6.902-5.513v3.648h6l-.003 3.748h-6z" color="#000" display="block" overflow="visible" fill="url(#o)"/><path d="M16.51 22.624l-4.333-3.493 4.335-3.44v2.575h6l-.003 1.748h-6z" color="#000" display="block" overflow="visible" opacity=".401" fill="none" stroke="url(#p)" stroke-width=".75" stroke-miterlimit="7"/><path style="isolation:auto;mix-blend-mode:normal" d="M17.51 24.735l-6.9-5.604 6.902-5.513v3.648h6l-.003 3.748h-6z" color="#000" overflow="visible" opacity=".5" solid-color="#000000" fill="none" stroke="#7239b3" stroke-width=".75" stroke-linejoin="round"/></g></svg>