<svg xmlns="http://www.w3.org/2000/svg" xmlns:xlink="http://www.w3.org/1999/xlink" height="32" viewBox="0 0 8.4666665 8.4666668" width="32"><defs><linearGradient y2="22.673" x2="-2.85" y1="39.618" x1="-2.85" gradientTransform="matrix(.1253 0 0 .12505 7.4 2.462)" gradientUnits="userSpaceOnUse" id="s" xlink:href="#a"/><linearGradient id="a"><stop offset="0" stop-color="#fff"/><stop offset=".429" stop-color="#fff" stop-opacity=".235"/><stop offset=".75" stop-color="#fff" stop-opacity=".157"/><stop offset="1" stop-color="#fff" stop-opacity=".392"/></linearGradient><linearGradient y2="39.83" x2="-6.388" y1="22.461" x1="-6.388" gradientTransform="matrix(.1917 0 0 .1917 7.914 .385)" gradientUnits="userSpaceOnUse" id="r" xlink:href="#b"/><linearGradient id="b"><stop offset="0" stop-color="#fff"/><stop offset=".5" stop-color="#fff" stop-opacity=".235"/><stop offset=".75" stop-color="#fff" stop-opacity=".157"/><stop offset="1" stop-color="#fff" stop-opacity=".392"/></linearGradient><linearGradient xlink:href="#c" id="q" gradientUnits="userSpaceOnUse" gradientTransform="matrix(.16127 0 0 .16182 2.563 .27)" x1="30.194" y1="27.546" x2="26.541" y2="33.269"/><linearGradient id="c"><stop offset="0" stop-color="#fff"/><stop offset="0" stop-color="#fff" stop-opacity=".235"/><stop offset=".539" stop-color="#fff" stop-opacity=".157"/><stop offset="1" stop-color="#fff" stop-opacity=".392"/></linearGradient><linearGradient y2="3249.04" x2="2094.899" y1="3215.689" x1="2094.899" gradientTransform="matrix(.17664 0 0 .13205 -364.15 -420.756)" gradientUnits="userSpaceOnUse" id="p" xlink:href="#d"/><linearGradient id="d"><stop offset="0" stop-color="#64baff"/><stop offset="1" stop-color="#3689e6"/></linearGradient><radialGradient r="62.769" fy="186.171" fx="99.157" cy="186.171" cx="99.157" gradientTransform="matrix(.02652 0 0 .00844 3.79 6.375)" gradientUnits="userSpaceOnUse" id="o" xlink:href="#e"/><linearGradient id="e"><stop offset="0" stop-color="#3d3d3d"/><stop offset=".5" stop-color="#686868" stop-opacity=".498"/><stop offset="1" stop-color="#686868" stop-opacity="0"/></linearGradient><radialGradient gradientTransform="matrix(.0032 0 0 .00218 5.62 6.61)" gradientUnits="userSpaceOnUse" xlink:href="#f" id="n" fy="486.648" fx="605.714" r="117.143" cy="486.648" cx="605.714"/><linearGradient id="f"><stop offset="0"/><stop offset="1" stop-opacity="0"/></linearGradient><radialGradient gradientTransform="matrix(.0032 0 0 .00218 3.503 5.286)" gradientUnits="userSpaceOnUse" xlink:href="#f" id="m" fy="486.648" fx="605.714" r="117.143" cy="486.648" cx="605.714"/></defs><linearGradient id="l" gradientTransform="matrix(.27278 0 0 .3079 -.107 290.402)" gradientUnits="userSpaceOnUse" x1="11.001" x2="11.001" xlink:href="#g" y1="2.269" y2="19.728"/><linearGradient id="g"><stop offset="0" stop-color="#fff"/><stop offset=".063" stop-color="#fff" stop-opacity=".235"/><stop offset=".951" stop-color="#fff" stop-opacity=".157"/><stop offset="1" stop-color="#fff" stop-opacity=".392"/></linearGradient><linearGradient id="k" gradientTransform="matrix(.27447 0 0 .28068 -.113 290.553)" gradientUnits="userSpaceOnUse" x1="8.295" x2="8.295" y1="-4.284" y2="16.85"><stop offset="0" stop-color="#cdf87e"/><stop offset=".262" stop-color="#a2e34f"/><stop offset=".661" stop-color="#68b723"/><stop offset="1" stop-color="#1d7e0d"/></linearGradient><linearGradient id="j" gradientTransform="matrix(.1323 0 0 .06615 -.265 291.444)" gradientUnits="userSpaceOnUse" x1="23.954" x2="23.954" y1="15.999" y2="19.963"><stop offset="0"/><stop offset="1" stop-opacity="0"/></linearGradient><linearGradient id="i" gradientTransform="matrix(.1347 0 0 .14642 -.198 290.374)" gradientUnits="userSpaceOnUse" x1="24" x2="24" xlink:href="#g" y1="5" y2="43"/><linearGradient id="h" gradientTransform="matrix(.11794 0 0 .11905 .212 290.644)" gradientUnits="userSpaceOnUse" x1="25.132" x2="25.132" y1="15.5" y2="48.396"><stop offset="0" stop-color="#fafafa"/><stop offset="1" stop-color="#e2e1de"/></linearGradient><g transform="translate(.176 -387.532) scale(1.33333)"><rect height="5.556" rx=".198" width="1.191" x=".463" y="291.047" fill="url(#h)"/><path d="M.543 291.18l.896-.132.016 5.555-.896.132z" fill="none" stroke="url(#i)" stroke-width=".201" stroke-linecap="round" stroke-linejoin="round"/><path d="M.265 292.436H5.82v.198H.266z" fill="url(#j)" opacity=".15"/><path d="M.364 292.24l-.005 4.143c0 .152.154.317.306.317h.87" opacity=".3" fill="none" stroke="#000" stroke-width=".201"/><path d="M1.455 292.436h.2v4.167h-.2zm-.992.794h.992v.198H.463zM1.654 293.23v.198zm-1.19 1.19h.99v.2h-.99zm1.19 0v.2zm-1.19 1.19h.99v.2h-.99zm1.19 0v.2z" opacity=".321"/><path d="M.592 290.944c-.158 0-.226.17-.226.33v.964H5.72v-.963c0-.162-.118-.322-.276-.322z" fill="url(#k)"/><path d="M.68 290.948c-.152 0-.316.184-.316.336v1.048l5.357.004v-1.055c0-.15-.143-.33-.295-.33z" fill="none" opacity=".4" stroke="#126400" stroke-linecap="round" stroke-width=".201"/><path d="M.56 291.14l.002 1.002 4.975.01v-1.002z" opacity=".5" fill="none" stroke-width=".201" stroke-linecap="round" stroke-linejoin="round" stroke="url(#l)"/><path d="M1.455 291.047h.2v1.19h-.2zm1.39 0h.2v1.19h-.2zm1.388 0h.2v1.19h-.2z" fill="#126400" opacity=".4"/></g><path overflow="visible" d="M5.424 6.085v.53c.164 0 .397-.12.397-.265 0-.146-.182-.265-.396-.265z" opacity=".15" fill="url(#m)" transform="translate(-.53 -.265)"/><path overflow="visible" d="M7.54 7.408v.53c.165 0 .397-.12.397-.265 0-.146-.183-.265-.396-.265z" opacity=".15" fill="url(#n)" transform="translate(-.53 -.265)"/><path d="M8.086 7.946a1.665.53 0 1 1-3.33 0 1.665.53 0 1 1 3.33 0z" fill="url(#o)" transform="translate(-.53 -.265)"/><path d="M6.497 3.86v.608a1.892 1.892 0 0 0-.076-.003 1.892 1.892 0 0 0-1.89 1.89A1.892 1.892 0 0 0 6.42 8.25 1.892 1.892 0 0 0 8.31 6.43H7.4a.984.984 0 0 1-.98.91.984.984 0 0 1-.983-.985.984.984 0 0 1 .984-.984.984.984 0 0 1 .077.004v.602l1.665-1.06z" opacity=".99" fill="url(#p)" transform="translate(-.53 -.265)"/><path overflow="visible" d="M6.648 4.705V4.13l1.23.79-1.23.78v-.537" style="isolation:auto;mix-blend-mode:normal" color="#000" opacity=".5" solid-color="#000000" fill="none" stroke="url(#q)" stroke-width=".265" transform="translate(-.53 -.265)"/><path d="M8.134 6.668a1.74 1.74 0 0 1-1.97 1.41 1.74 1.74 0 0 1-1.472-1.92A1.74 1.74 0 0 1 6.564 4.62" opacity=".5" fill="none" stroke="url(#r)" stroke-width=".265" transform="translate(-.53 -.265)"/><path d="M8.22 6.584h-.693c-.086.592-.732 1-1.316.89-.614-.118-1.02-.707-.906-1.322.11-.596.67-1 1.266-.92" opacity=".5" fill="none" stroke="url(#s)" stroke-width=".265" transform="translate(-.53 -.265)"/><path d="M5.967 3.594v.61A1.892 1.892 0 0 0 5.89 4.2 1.892 1.892 0 0 0 4 6.09a1.892 1.892 0 0 0 1.89 1.894 1.892 1.892 0 0 0 1.89-1.817h-.91a.984.984 0 0 1-.98.91.984.984 0 0 1-.983-.985.984.984 0 0 1 .984-.984.984.984 0 0 1 .077.004v.602l1.665-1.06z" opacity=".5" fill="none" stroke="#002e99" stroke-width=".265" stroke-linecap="round" stroke-linejoin="round"/></svg>