<svg xmlns="http://www.w3.org/2000/svg" xmlns:xlink="http://www.w3.org/1999/xlink" width="32" height="32"><defs><linearGradient id="b"><stop offset="0" stop-color="#fff"/><stop offset=".405" stop-color="#fff" stop-opacity=".235"/><stop offset=".744" stop-color="#fff" stop-opacity=".157"/><stop offset="1" stop-color="#fff" stop-opacity=".392"/></linearGradient><linearGradient y2="27.913" x2="107.101" y1="27.59" x1="82.924" spreadMethod="reflect" gradientTransform="matrix(-.22263 -.3738 .38562 -.21582 26.913 54.14)" gradientUnits="userSpaceOnUse" id="d" xlink:href="#a"/><linearGradient id="a"><stop offset="0" stop-color="#c2c3c4"/><stop offset=".095" stop-color="#c4c5c8"/><stop offset="1" stop-color="#fcfcfc"/></linearGradient><linearGradient gradientUnits="userSpaceOnUse" y2="15.044" x2="16.016" y1="1.894" x1="16.016" id="f" xlink:href="#b" gradientTransform="translate(.008 .014)"/><linearGradient id="c"><stop offset="0" stop-opacity=".34"/><stop offset="1" stop-opacity=".247"/></linearGradient><linearGradient xlink:href="#c" id="e" x1=".11" y1="11.067" x2="22.258" y2="11.067" gradientUnits="userSpaceOnUse"/><linearGradient gradientTransform="translate(0 2)" id="g" gradientUnits="userSpaceOnUse" x1="20.36" x2="16.821" y1="9.664" y2="22.907"><stop offset="0" stop-color="#f8b17e"/><stop offset=".312" stop-color="#e35d4f"/><stop offset=".571" stop-color="#c6262e"/><stop offset="1" stop-color="#690b54"/></linearGradient><linearGradient id="h" gradientTransform="matrix(.22094 0 0 .2196 13.77 11.514)" gradientUnits="userSpaceOnUse" x1="24.139" x2="5.748" y1="10.631" y2="45.34"><stop offset="0" stop-color="#fff"/><stop offset="1" stop-color="#fff" stop-opacity="0"/></linearGradient><linearGradient gradientTransform="translate(0 2)" id="i" gradientUnits="userSpaceOnUse" x1="15.105" x2="16.821" y1="20.996" y2="8.923"><stop offset="0" stop-color="#791235"/><stop offset="1" stop-color="#dd3b27"/></linearGradient></defs><path d="M10.112 20.64l2.344-1.353 2.578-10.153 7.757-4.49c-.196-1.9-.476-2.214-1.814-3.31l-7.828 4.532L3.1 3.056.754 4.41l4.618 7.994z" fill="url(#d)" fill-rule="evenodd" stroke="url(#e)" stroke-width=".75" stroke-linejoin="round" transform="rotate(120 15.433 12.636) scale(1.33333)"/><path d="M10.384 19.6l1.397-.808 2.55-10.436 7.426-4.207c-.117-1.22-.285-1-.942-1.63L13.47 6.862 3.206 3.87l-1.428.826z" fill="none" stroke="url(#f)" stroke-width=".75" transform="rotate(120 15.433 12.636) scale(1.33333)"/><path d="M15.2 17.413l1.906 1.46 3.854-6.51 1.51.836.402.27-4.95 9.306-4.695-3.86 1.436-1.9z" fill="url(#g)" transform="translate(-1.274 1.25) scale(1.33333)"/><path d="M17.087 20.047l4.06-6.782 1.22.742m-4.356 7.807l-3.794-2.995.62-.79" opacity=".5" fill="none" stroke="url(#h)" stroke-width=".75" transform="translate(-1.274 1.25) scale(1.33333)"/><path d="M20.993 12.374c-.158-.017-.314.062-.395.212l-3.446 6.405-2.216-1.788c-.197-.11-.443-.04-.55.16l-.995 1.297c-.107.2-.034.45.163.56l4.05 3.396c.047.026.17.063.22.07.16.02.25-.082.332-.235l4.647-8.637c.108-.2.036-.45-.162-.56l-1.49-.83c-.05-.03-.105-.044-.157-.05z" fill="none" stroke="url(#i)" stroke-width=".75" stroke-linecap="round" stroke-linejoin="round" transform="translate(-1.274 1.25) scale(1.33333)"/></svg>