<svg xmlns="http://www.w3.org/2000/svg" xmlns:xlink="http://www.w3.org/1999/xlink" height="32" width="32"><defs><radialGradient id="j" cx="605.714" cy="486.648" gradientTransform="matrix(.019 0 0 .02024 18.043 18.08)" gradientUnits="userSpaceOnUse" r="117.143" xlink:href="#a"/><linearGradient id="a"><stop offset="0"/><stop offset="1" stop-opacity="0"/></linearGradient></defs><radialGradient id="c" cx="4.993" cy="43.5" gradientTransform="matrix(2.00378 0 0 1.4 27.988 -17.4)" gradientUnits="userSpaceOnUse" r="2.5" xlink:href="#b"/><linearGradient id="b"><stop offset="0" stop-color="#181818"/><stop offset="1" stop-color="#181818" stop-opacity="0"/></linearGradient><radialGradient id="d" cx="4.993" cy="43.5" gradientTransform="matrix(2.00378 0 0 1.4 -20.012 -104.4)" gradientUnits="userSpaceOnUse" r="2.5" xlink:href="#b"/><linearGradient id="e" gradientUnits="userSpaceOnUse" x1="25.058" x2="25.058" y1="47.028" y2="39.999"><stop offset="0" stop-color="#181818" stop-opacity="0"/><stop offset=".5" stop-color="#181818"/><stop offset="1" stop-color="#181818" stop-opacity="0"/></linearGradient><linearGradient id="g" gradientTransform="matrix(.67568 0 0 .67568 -.216 -.216)" gradientUnits="userSpaceOnUse" x1="24" x2="24" y1="6.24" y2="41.76"><stop offset="0" stop-color="#fff"/><stop offset=".04" stop-color="#fff" stop-opacity=".235"/><stop offset=".958" stop-color="#fff" stop-opacity=".157"/><stop offset="1" stop-color="#fff" stop-opacity=".392"/></linearGradient><linearGradient id="f" gradientUnits="userSpaceOnUse" x1="14.33" x2="14.33" y1=".022" y2="-32.07"><stop offset="0" stop-color="#fafafa"/><stop offset="1" stop-color="#d4d4d4"/></linearGradient><linearGradient id="h" gradientTransform="matrix(1.05404 0 0 1.2201 -.878 -4.413)" gradientUnits="userSpaceOnUse" x1="16.961" x2="16.961" y1="17.55" y2="22.468"><stop offset="0" stop-color="#fafafa"/><stop offset="1" stop-color="#e1e1e1"/></linearGradient><linearGradient id="i" gradientTransform="matrix(.8558 0 0 .9631 2.294 .66)" gradientUnits="userSpaceOnUse" x1="15" x2="15" y1="17.448" y2="22.249"><stop offset="0" stop-color="#fff"/><stop offset=".508" stop-color="#fff" stop-opacity=".235"/><stop offset=".835" stop-color="#fff" stop-opacity=".157"/><stop offset="1" stop-color="#fff" stop-opacity=".392"/></linearGradient><g opacity=".4"><path fill="url(#c)" d="M38 40h5v7h-5z" transform="matrix(.73684 0 0 .57143 -1.684 4.143)"/><path transform="matrix(-.73684 0 0 -.57143 -1.684 4.143)" fill="url(#d)" d="M-10-47h5v7h-5z"/><path fill="url(#e)" d="M10 40h28v7H10z" transform="matrix(.73684 0 0 .57143 -1.684 4.143)"/></g><rect y="-29" x="3" width="26" transform="scale(1 -1)" rx="1.615" height="26" fill="url(#f)"/><rect y="2.5" x="2.5" width="27" stroke-linejoin="round" stroke-linecap="round" stroke="#555761" rx="2.16" opacity=".5" height="27" fill="none"/><rect y="3.5" x="3.5" width="25" stroke-linejoin="round" stroke-linecap="round" stroke="url(#g)" ry="1.19" rx="1.087" height="25" fill="none"/><g fill-rule="evenodd"><path fill="#fff" d="M5.222 5.222a.444.444 0 0 1-.89 0 .444.444 0 1 1 .89 0z"/><path opacity=".3" d="M5.222 4.778a.444.444 0 0 1-.89 0 .444.444 0 1 1 .89 0z"/><path fill="#fff" d="M27.667 5.222a.444.444 0 0 1-.89 0 .444.444 0 1 1 .89 0z"/><path opacity=".3" d="M27.667 4.778a.444.444 0 0 1-.89 0 .444.444 0 1 1 .89 0z"/><path fill="#fff" d="M5.222 27.667a.444.444 0 0 1-.89 0 .444.444 0 1 1 .89 0z"/><path opacity=".3" d="M5.222 27.222a.444.444 0 0 1-.89 0 .444.444 0 1 1 .89 0z"/><path fill="#fff" d="M27.667 27.667a.444.444 0 0 1-.89 0 .444.444 0 1 1 .89 0z"/><path opacity=".3" d="M27.667 27.222a.444.444 0 0 1-.89 0 .444.444 0 1 1 .89 0z"/></g><rect y="9" x="6" width="20" rx="1" height="5" fill="#b5b5b5"/><rect y="10" x="6" width="20" rx="1" height="4" fill="#cacaca"/><g transform="matrix(.99836 0 0 1.18975 .026 -2.284)"><rect y="17.406" x="7.537" width="16.906" rx="1.054" height="5.023" fill="url(#h)"/><g stroke-width=".918" fill="none"><rect y="18.254" x="8.505" width="14.999" stroke="url(#i)" ry=".627" rx=".324" height="3.408"/><rect y="17.509" x="7.497" width="17.049" stroke="#656565" ry=".846" rx="1.063" opacity=".5" height="4.965"/></g></g><g fill="#4d4d4d"><path d="M12 21h1v1h-1zM13 20h1v1h-1zM14 21h1v1h-1zM12 22h1v1h-1zM14 22h1v1h-1zM13 23h1v1h-1zM16 20h1v1h-1zM16 21h1v1h-1zM16 22h1v1h-1zM16 23h1v1h-1zM18 20h1v1h-1zM17 21h1v1h-1zM18 22h1v1h-1zM18 23h1v1h-1z"/></g><g><path d="M29.5 25.5v4.915c.98.01 2.367-1.1 2.367-2.458S30.774 25.5 29.5 25.5z" opacity=".15" fill="url(#j)"/><path d="M23 1v3h2l1 1v21l-1 1h-2v3h9v-3h-2l-1-1V5l1-1h2V1z" opacity=".52" fill-rule="evenodd"/><path d="M24 2.51l2.17-.016s1.335-.048 1.333 1.286l-.034 22.853s-.138 1.825-1.47 1.86l-2 .05m7-26.015l-2.187-.034S27.48 2.446 27.48 3.78l-.033 22.853s.1 1.86 1.433 1.86H31" fill="none" stroke="#fff"/></g></svg>