<svg xmlns="http://www.w3.org/2000/svg" xmlns:xlink="http://www.w3.org/1999/xlink" viewBox="0 0 32 32"><defs><radialGradient gradientTransform="matrix(0 .68598 -.74626 0 60.288 -27.737)" gradientUnits="userSpaceOnUse" xlink:href="#a" id="m" fy="48.709" fx="65.325" r="31" cy="48.709" cx="65.325"/><linearGradient id="a"><stop offset="0" stop-color="#cdf87e"/><stop offset=".262" stop-color="#a2e34f"/><stop offset=".661" stop-color="#68b723"/><stop offset="1" stop-color="#1d7e0d"/></linearGradient><linearGradient gradientTransform="matrix(.4227 0 0 .38513 14.545 15.083)" gradientUnits="userSpaceOnUse" xlink:href="#b" id="n" y2="36.136" x2="24.139" y1="10.171" x1="24.139"/><linearGradient id="b"><stop offset="0" stop-color="#fff"/><stop offset="0" stop-color="#fff" stop-opacity=".235"/><stop offset="1" stop-color="#fff" stop-opacity=".157"/><stop offset="1" stop-color="#fff" stop-opacity=".392"/></linearGradient><linearGradient gradientTransform="matrix(.38833 0 0 .41842 15.3 14.318)" gradientUnits="userSpaceOnUse" xlink:href="#c" id="o" y2="25.528" x2="24.139" y1="20.749" x1="24.139"/><linearGradient id="c"><stop offset="0" stop-color="#fff"/><stop offset="0" stop-color="#fff" stop-opacity=".235"/><stop offset="1" stop-color="#fff" stop-opacity=".157"/><stop offset="1" stop-color="#fff" stop-opacity=".392"/></linearGradient></defs><linearGradient id="f" gradientTransform="matrix(.03006 0 0 .01647 6.122 18.96)" gradientUnits="userSpaceOnUse" x1="302.857" x2="302.857" y1="366.648" y2="609.505"><stop offset="0" stop-opacity="0"/><stop offset=".5"/><stop offset="1" stop-opacity="0"/></linearGradient><radialGradient id="g" cx="605.714" cy="486.648" gradientTransform="matrix(.03006 0 0 .01647 6.128 18.96)" gradientUnits="userSpaceOnUse" r="117.143" xlink:href="#d"/><linearGradient id="d"><stop offset="0"/><stop offset="1" stop-opacity="0"/></linearGradient><radialGradient id="h" cx="605.714" cy="486.648" gradientTransform="matrix(-.03006 0 0 .01647 27.846 18.96)" gradientUnits="userSpaceOnUse" r="117.143" xlink:href="#d"/><linearGradient id="j" gradientUnits="userSpaceOnUse" x1="20.027" x2="19.977" y1="5.377" y2="28.888"><stop offset="0" stop-color="#f4f4f4"/><stop offset="1" stop-color="#dbdbdb"/></linearGradient><linearGradient id="i" gradientUnits="userSpaceOnUse" x1="17.287" x2="16.667" xlink:href="#e" y1="28.048" y2="-.018"/><linearGradient id="e"><stop offset="0" stop-color="#8d8d8d"/><stop offset="1" stop-color="#c3c3c3"/></linearGradient><linearGradient id="k" gradientUnits="userSpaceOnUse" x1="15.401" x2="15.706" y1="6.918" y2="26.982"><stop offset="0" stop-color="#fff"/><stop offset="1" stop-color="#fff" stop-opacity=".248"/></linearGradient><linearGradient id="l" gradientUnits="userSpaceOnUse" x1="17.119" x2="17.177" xlink:href="#e" y1="28.033" y2="18.664"/><path opacity=".5" fill="url(#f)" d="M9.73 25h14.515v4H9.73z"/><path opacity=".5" fill="url(#g)" d="M24.245 25v4c1.548.007 3.742-.896 3.742-2s-1.727-2-3.742-2z"/><path opacity=".5" fill="url(#h)" d="M9.73 25v4c-1.548.007-3.743-.896-3.743-2s1.728-2 3.743-2z"/><path stroke-linejoin="round" stroke-linecap="round" stroke="url(#i)" fill="url(#j)" d="M6.487 4.5c-1.566-.02-2.093 1.51-1.97 3h1.97v18c0 .943 1.057 2 2 2h17V6.8c0-.943-1.357-2.3-2.3-2.3z"/><path opacity=".1" d="M9.987 7v1h12V7zm0 4v1h12v-1zm0 2v1h12v-1zm0 2v1h12v-1zm0 2v1h12v-1zm0 2v1h12v-1zm0 2v1h12v-1zm0 2v1h12v-1z"/><path fill="#aaa" d="M7.987 7v1h1V7zm0 4v1h1v-1zm0 2v1h1v-1zm0 2v1h1v-1zm0 2v1h1v-1zm0 2v1h1v-1zm0 2v1h1v-1zm0 2v1h1v-1zm0 2v1h1v-1zM22.987 7v1h1V7zm0 4v1h1v-1zm0 2v1h1v-1zm0 2v1h1v-1zm0 2v1h1v-1zm0 2v1h1v-1zm0 2v1h1v-1zm0 2v1h1v-1z"/><path stroke-linejoin="round" stroke-linecap="round" stroke="url(#k)" opacity=".604" fill="none" d="M7.276 5.5c-1.543-.107-1.68.58-1.79 1h2v18.69c0 .853.742 1.31 1.59 1.31h15.41V7.11c0-.853-.75-1.61-1.6-1.61z"/><path stroke-linejoin="round" stroke-linecap="round" stroke="url(#l)" fill="#c8c8c8" d="M10.487 24.5h17c.125 1.5-.408 3.043-2 3h-17c1.512 0 2.004-1.375 2-3z"/><rect y="25.067" x="10.987" width="16" rx=".3" opacity=".7" height=".933" fill="#fff"/><path fill="#aaa" d="M8 9h1v1H8zM23 9h1v1h-1z"/><path fill="#dadada" d="M10 9h12v1H10z"/><g><path d="M21.5 21.5v-4.02h5v4.02h4.007v5H26.5v4.007h-5V26.5h-4.007v-5z" color="#000" overflow="visible" fill="url(#m)"/><path d="M22.5 23.003V18.5h3v4.497m0 2.003v4.5h-3V25" opacity=".5" fill="none" stroke="url(#n)"/><path d="M26 22.512l3.5-.01v2.987l-3.5.01m-4 0l-3.5-.01V22.5l3.5.012" opacity=".5" fill="none" stroke="url(#o)"/><path style="isolation:auto;mix-blend-mode:normal" d="M21.5 21.5v-4.02h5v4.02h4.007v5H26.5v4.007h-5V26.5h-4.007v-5z" color="#000" overflow="visible" opacity=".5" solid-color="#000000" fill="none" stroke="#0f5a00" stroke-linecap="round" stroke-linejoin="round"/></g></svg>