<svg xmlns="http://www.w3.org/2000/svg" xmlns:xlink="http://www.w3.org/1999/xlink" viewBox="0 0 32 32"><defs><linearGradient id="a"><stop offset="0" stop-color="#cdf87e"/><stop offset=".262" stop-color="#a2e34f"/><stop offset=".661" stop-color="#68b723"/><stop offset="1" stop-color="#1d7e0d"/></linearGradient><linearGradient id="b"><stop offset="0" stop-color="#fff"/><stop offset="0" stop-color="#fff" stop-opacity=".235"/><stop offset="1" stop-color="#fff" stop-opacity=".157"/><stop offset="1" stop-color="#fff" stop-opacity=".392"/></linearGradient><linearGradient id="c"><stop offset="0" stop-color="#fff"/><stop offset="0" stop-color="#fff" stop-opacity=".235"/><stop offset="1" stop-color="#fff" stop-opacity=".157"/><stop offset="1" stop-color="#fff" stop-opacity=".392"/></linearGradient><linearGradient gradientTransform="matrix(0 -.71625 .76905 0 -21.827 35.995)" gradientUnits="userSpaceOnUse" xlink:href="#d" id="r" y2="46.971" x2="18.681" y1="46.971" x1="40.958"/><linearGradient id="d"><stop offset="0" stop-color="#fff"/><stop offset=".45" stop-color="#fff" stop-opacity=".235"/><stop offset=".65" stop-color="#fff" stop-opacity=".157"/><stop offset="1" stop-color="#fff" stop-opacity=".392"/></linearGradient><linearGradient gradientUnits="userSpaceOnUse" y2="17.211" x2="17.151" y1="5.88" x1="17.151" id="q" xlink:href="#e" gradientTransform="matrix(-1.3333 0 0 1.3333 44.835 -1.157)"/><linearGradient id="e" gradientTransform="matrix(.4922 0 0 .4584 4.51 11.206)" gradientUnits="userSpaceOnUse" x1="23.732" x2="23.732" y1="5.394" y2="39.735"><stop offset="0" stop-color="#90dbec"/><stop offset=".262" stop-color="#55c1ec"/><stop offset=".705" stop-color="#3689e6"/><stop offset="1" stop-color="#2b63a0"/></linearGradient><radialGradient gradientTransform="matrix(.368 0 0 -.3944 12.405 31.934)" gradientUnits="userSpaceOnUse" xlink:href="#f" id="p" fy="36.421" fx="24.837" r="15.645" cy="36.421" cx="24.837"/><linearGradient id="f"><stop offset="0"/><stop offset="1" stop-opacity="0"/></linearGradient></defs><linearGradient id="i" gradientTransform="matrix(.03 0 0 .0165 6.122 18.96)" gradientUnits="userSpaceOnUse" x1="302.857" x2="302.857" y1="366.648" y2="609.505"><stop offset="0" stop-opacity="0"/><stop offset=".5"/><stop offset="1" stop-opacity="0"/></linearGradient><radialGradient id="j" cx="605.714" cy="486.648" gradientTransform="matrix(.03 0 0 .0165 6.128 18.96)" gradientUnits="userSpaceOnUse" r="117.143" xlink:href="#g"/><linearGradient id="g"><stop offset="0"/><stop offset="1" stop-opacity="0"/></linearGradient><radialGradient id="k" cx="605.714" cy="486.648" gradientTransform="matrix(-.03 0 0 .0165 27.846 18.96)" gradientUnits="userSpaceOnUse" r="117.143" xlink:href="#g"/><linearGradient id="l" gradientUnits="userSpaceOnUse" x1="20.027" x2="19.977" y1="5.377" y2="28.888"><stop offset="0" stop-color="#f4f4f4"/><stop offset="1" stop-color="#dbdbdb"/></linearGradient><linearGradient id="m" gradientUnits="userSpaceOnUse" x1="17.287" x2="16.667" xlink:href="#h" y1="28.048" y2="-.018"/><linearGradient id="h"><stop offset="0" stop-color="#8d8d8d"/><stop offset="1" stop-color="#c3c3c3"/></linearGradient><linearGradient id="n" gradientUnits="userSpaceOnUse" x1="15.401" x2="15.706" y1="6.918" y2="26.982"><stop offset="0" stop-color="#fff"/><stop offset="1" stop-color="#fff" stop-opacity=".248"/></linearGradient><linearGradient id="o" gradientUnits="userSpaceOnUse" x1="17.119" x2="17.177" xlink:href="#h" y1="28.033" y2="18.664"/><path d="M9.73 25h14.515v4H9.73z" fill="url(#i)" opacity=".5"/><path d="M24.245 25v4c1.548.007 3.742-.896 3.742-2s-1.727-2-3.742-2z" fill="url(#j)" opacity=".5"/><path d="M9.73 25v4c-1.548.007-3.743-.896-3.743-2s1.728-2 3.743-2z" fill="url(#k)" opacity=".5"/><path d="M6.487 4.5c-1.566-.02-2.093 1.51-1.97 3h1.97v18c0 .943 1.057 2 2 2h17V6.8c0-.943-1.357-2.3-2.3-2.3z" fill="url(#l)" stroke="url(#m)" stroke-linecap="round" stroke-linejoin="round"/><path d="M9.987 7v1h12V7zm0 4v1h12v-1zm0 2v1h12v-1zm0 2v1h12v-1zm0 2v1h12v-1zm0 2v1h12v-1zm0 2v1h12v-1zm0 2v1h12v-1z" opacity=".1"/><path d="M7.987 7v1h1V7zm0 4v1h1v-1zm0 2v1h1v-1zm0 2v1h1v-1zm0 2v1h1v-1zm0 2v1h1v-1zm0 2v1h1v-1zm0 2v1h1v-1zm0 2v1h1v-1zm15-18v1h1V7zm0 4v1h1v-1zm0 2v1h1v-1zm0 2v1h1v-1zm0 2v1h1v-1zm0 2v1h1v-1zm0 2v1h1v-1zm0 2v1h1v-1z" fill="#aaa"/><path d="M7.276 5.5c-1.543-.107-1.68.58-1.79 1h2v18.69c0 .853.742 1.31 1.59 1.31h15.41V7.11c0-.853-.75-1.61-1.6-1.61z" fill="none" opacity=".604" stroke="url(#n)" stroke-linecap="round" stroke-linejoin="round"/><path d="M10.487 24.5h17c.125 1.5-.408 3.043-2 3h-17c1.512 0 2.004-1.375 2-3z" fill="#c8c8c8" stroke="url(#o)" stroke-linecap="round" stroke-linejoin="round"/><rect fill="#fff" height=".933" opacity=".7" rx=".3" width="16" x="10.987" y="25.067"/><path d="M8 9h1v1H8zm15 0h1v1h-1z" fill="#aaa"/><path d="M10 9h12v1H10z" fill="#dadada"/><g><path overflow="visible" d="M27.305 17.233c0-8.23-11.512-8.23-11.515 0 0 3.407 2.574 6.507 5.752 6.507 3.177 0 5.76-3.1 5.76-6.507z" opacity=".141" fill="url(#p)" fill-rule="evenodd" transform="translate(-13.002 10)"/><path overflow="visible" display="block" d="M21.505 21.47l9.2-7.473-9.203-7.35v4.865h-8l.004 4.997h8z" color="#000" fill="url(#q)" transform="translate(-13.002 10)"/><path stroke-miterlimit="7" overflow="visible" display="block" d="M22.838 18.655l5.777-4.658-5.78-4.586v3.435h-8l.005 2.33h8z" color="#000" opacity=".401" fill="none" stroke="url(#r)" transform="translate(-13.002 10)"/><path overflow="visible" d="M8.503 31.47l9.2-7.473-9.203-7.35v4.865h-8l.004 4.997h8z" style="isolation:auto;mix-blend-mode:normal" color="#000" opacity=".5" solid-color="#000000" fill="none" stroke="#004372" stroke-linejoin="round"/></g></svg>