<svg xmlns="http://www.w3.org/2000/svg" xmlns:xlink="http://www.w3.org/1999/xlink" viewBox="0 0 32 32"><defs><linearGradient id="a"><stop offset="0" stop-color="#181818"/><stop offset=".135" stop-color="#dbdbdb"/><stop offset=".202" stop-color="#a4a4a4"/><stop offset=".27" stop-color="#fff"/><stop offset=".447" stop-color="#8d8d8d"/><stop offset=".571" stop-color="#959595"/><stop offset=".72" stop-color="#cecece"/><stop offset="1" stop-color="#181818"/></linearGradient><linearGradient id="b"><stop offset="0" stop-color="#565656"/><stop offset=".5" stop-color="#9a9a9a"/><stop offset="1" stop-color="#545454"/></linearGradient><linearGradient id="c"><stop offset="0" stop-color="#b1b1b1"/><stop offset=".5" stop-color="#fff"/><stop offset="1" stop-color="#8f8f8f"/></linearGradient><linearGradient id="d"><stop offset="0" stop-color="#ece5a5"/><stop offset="1" stop-color="#fcfbf2"/></linearGradient><linearGradient id="e"><stop offset="0" stop-color="#dbce48"/><stop offset="1" stop-color="#c5b625"/></linearGradient><radialGradient id="p" cx="605.714" cy="486.648" gradientTransform="matrix(.019 0 0 .02024 18.043 18.08)" gradientUnits="userSpaceOnUse" r="117.143" xlink:href="#f"/><linearGradient id="f"><stop offset="0"/><stop offset="1" stop-opacity="0"/></linearGradient></defs><linearGradient id="i" gradientTransform="matrix(.03006 0 0 .01647 6.122 18.96)" gradientUnits="userSpaceOnUse" x1="302.857" x2="302.857" y1="366.648" y2="609.505"><stop offset="0" stop-opacity="0"/><stop offset=".5"/><stop offset="1" stop-opacity="0"/></linearGradient><radialGradient id="j" cx="605.714" cy="486.648" gradientTransform="matrix(.03006 0 0 .01647 6.128 18.96)" gradientUnits="userSpaceOnUse" r="117.143" xlink:href="#g"/><linearGradient id="g"><stop offset="0"/><stop offset="1" stop-opacity="0"/></linearGradient><radialGradient id="k" cx="605.714" cy="486.648" gradientTransform="matrix(-.03006 0 0 .01647 27.846 18.96)" gradientUnits="userSpaceOnUse" r="117.143" xlink:href="#g"/><linearGradient id="l" gradientUnits="userSpaceOnUse" x1="20.027" x2="19.977" y1="5.377" y2="28.888"><stop offset="0" stop-color="#f4f4f4"/><stop offset="1" stop-color="#dbdbdb"/></linearGradient><linearGradient id="m" gradientUnits="userSpaceOnUse" x1="17.287" x2="16.667" xlink:href="#h" y1="28.048" y2="-.018"/><linearGradient id="h"><stop offset="0" stop-color="#8d8d8d"/><stop offset="1" stop-color="#c3c3c3"/></linearGradient><linearGradient id="n" gradientUnits="userSpaceOnUse" x1="15.401" x2="15.706" y1="6.918" y2="26.982"><stop offset="0" stop-color="#fff"/><stop offset="1" stop-color="#fff" stop-opacity=".248"/></linearGradient><linearGradient id="o" gradientUnits="userSpaceOnUse" x1="17.119" x2="17.177" xlink:href="#h" y1="28.033" y2="18.664"/><path d="M9.73 25h14.515v4H9.73z" fill="url(#i)" opacity=".5"/><path d="M24.245 25v4c1.548.007 3.742-.896 3.742-2s-1.727-2-3.742-2z" fill="url(#j)" opacity=".5"/><path d="M9.73 25v4c-1.548.007-3.743-.896-3.743-2s1.728-2 3.743-2z" fill="url(#k)" opacity=".5"/><path d="M6.487 4.5c-1.566-.02-2.093 1.51-1.97 3h1.97v18c0 .943 1.057 2 2 2h17V6.8c0-.943-1.357-2.3-2.3-2.3z" fill="url(#l)" stroke="url(#m)" stroke-linecap="round" stroke-linejoin="round"/><path d="M9.987 7v1h12V7zm0 4v1h12v-1zm0 2v1h12v-1zm0 2v1h12v-1zm0 2v1h12v-1zm0 2v1h12v-1zm0 2v1h12v-1zm0 2v1h12v-1z" opacity=".1"/><path d="M7.987 7v1h1V7zm0 4v1h1v-1zm0 2v1h1v-1zm0 2v1h1v-1zm0 2v1h1v-1zm0 2v1h1v-1zm0 2v1h1v-1zm0 2v1h1v-1zm0 2v1h1v-1zm15-18v1h1V7zm0 4v1h1v-1zm0 2v1h1v-1zm0 2v1h1v-1zm0 2v1h1v-1zm0 2v1h1v-1zm0 2v1h1v-1zm0 2v1h1v-1z" fill="#aaa"/><path d="M7.276 5.5c-1.543-.107-1.68.58-1.79 1h2v18.69c0 .853.742 1.31 1.59 1.31h15.41V7.11c0-.853-.75-1.61-1.6-1.61z" fill="none" opacity=".604" stroke="url(#n)" stroke-linecap="round" stroke-linejoin="round"/><path d="M10.487 24.5h17c.125 1.5-.408 3.043-2 3h-17c1.512 0 2.004-1.375 2-3z" fill="#c8c8c8" stroke="url(#o)" stroke-linecap="round" stroke-linejoin="round"/><rect fill="#fff" height=".933" opacity=".7" rx=".3" width="16" x="10.987" y="25.067"/><path d="M8 9h1v1H8zm15 0h1v1h-1z" fill="#aaa"/><path d="M10 9h12v1H10z" fill="#dadada"/><path d="M29.5 25.5v4.915c.98.01 2.367-1.1 2.367-2.458S30.774 25.5 29.5 25.5z" opacity=".15" fill="url(#p)"/><path d="M23 1v3h2l1 1v21l-1 1h-2v3h9v-3h-2l-1-1V5l1-1h2V1z" opacity=".52" fill-rule="evenodd"/><path d="M24 2.51l2.17-.016s1.335-.048 1.333 1.286l-.034 22.853s-.138 1.825-1.47 1.86l-2 .05m7-26.015l-2.187-.034S27.48 2.446 27.48 3.78l-.033 22.853s.1 1.86 1.433 1.86H31" fill="none" stroke="#fff"/></svg>