<?xml version="1.0" encoding="UTF-8" standalone="no"?>
<svg
   xmlns:dc="http://purl.org/dc/elements/1.1/"
   xmlns:cc="http://creativecommons.org/ns#"
   xmlns:rdf="http://www.w3.org/1999/02/22-rdf-syntax-ns#"
   xmlns:svg="http://www.w3.org/2000/svg"
   xmlns="http://www.w3.org/2000/svg"
   xmlns:xlink="http://www.w3.org/1999/xlink"
   xmlns:sodipodi="http://sodipodi.sourceforge.net/DTD/sodipodi-0.dtd"
   xmlns:inkscape="http://www.inkscape.org/namespaces/inkscape"
   height="32"
   viewBox="0 0 8.4666665 8.4666668"
   width="32"
   version="1.1"
   id="svg54"
   sodipodi:docname="dbtableedit.svg"
   inkscape:version="0.92.3 (unknown)">
  <metadata
     id="metadata60">
    <rdf:RDF>
      <cc:Work
         rdf:about="">
        <dc:format>image/svg+xml</dc:format>
        <dc:type
           rdf:resource="http://purl.org/dc/dcmitype/StillImage" />
        <dc:title></dc:title>
      </cc:Work>
    </rdf:RDF>
  </metadata>
  <defs
     id="defs58">
    <linearGradient
       x1="23.576"
       y1="25.357"
       x2="23.576"
       y2="31.211"
       id="o"
       xlink:href="#a-3"
       gradientUnits="userSpaceOnUse"
       gradientTransform="matrix(0.17371748,-0.17457208,0.19434175,0.19337602,-3.8946667,3.5200167)" />
    <linearGradient
       id="a-3">
      <stop
         offset="0"
         stop-color="#181818"
         id="stop1506" />
      <stop
         offset=".135"
         stop-color="#dbdbdb"
         id="stop1508" />
      <stop
         offset=".202"
         stop-color="#a4a4a4"
         id="stop1510" />
      <stop
         offset=".27"
         stop-color="#fff"
         id="stop1512" />
      <stop
         offset=".447"
         stop-color="#8d8d8d"
         id="stop1514" />
      <stop
         offset=".571"
         stop-color="#959595"
         id="stop1516" />
      <stop
         offset=".72"
         stop-color="#cecece"
         id="stop1518" />
      <stop
         offset="1"
         stop-color="#181818"
         id="stop1520" />
    </linearGradient>
    <linearGradient
       x1="30.038"
       y1="24.99"
       x2="30.038"
       y2="30"
       id="p"
       xlink:href="#b-6"
       gradientUnits="userSpaceOnUse"
       gradientTransform="matrix(0.16880416,-0.16963496,0.22744377,0.22631135,-4.5315188,2.6267834)" />
    <linearGradient
       id="b-6">
      <stop
         offset="0"
         stop-color="#565656"
         id="stop1524" />
      <stop
         offset=".5"
         stop-color="#9a9a9a"
         id="stop1526" />
      <stop
         offset="1"
         stop-color="#545454"
         id="stop1528" />
    </linearGradient>
    <linearGradient
       x1="30.038"
       y1="24.99"
       x2="30.038"
       y2="30"
       id="q"
       xlink:href="#c-7"
       gradientUnits="userSpaceOnUse"
       gradientTransform="matrix(0.16880416,-0.16963496,0.22744377,0.22631135,-4.5799375,2.6754667)" />
    <linearGradient
       id="c-7">
      <stop
         offset="0"
         stop-color="#b1b1b1"
         id="stop1532" />
      <stop
         offset=".5"
         stop-color="#fff"
         id="stop1534" />
      <stop
         offset="1"
         stop-color="#8f8f8f"
         id="stop1536" />
    </linearGradient>
    <linearGradient
       x1="30.038"
       y1="24.99"
       x2="30.038"
       y2="30"
       id="r"
       xlink:href="#b-6"
       gradientUnits="userSpaceOnUse"
       gradientTransform="matrix(0.16880416,-0.16963496,0.22744377,0.22631135,-4.3635083,2.4579792)" />
    <linearGradient
       x1="30.038"
       y1="24.99"
       x2="30.038"
       y2="30"
       id="s"
       xlink:href="#c-7"
       gradientUnits="userSpaceOnUse"
       gradientTransform="matrix(0.16880416,-0.16963496,0.22744377,0.22631135,-4.4119271,2.5066625)" />
    <linearGradient
       x1="30.038"
       y1="24.99"
       x2="30.038"
       y2="30"
       id="t"
       xlink:href="#b-6"
       gradientUnits="userSpaceOnUse"
       gradientTransform="matrix(0.16880416,-0.16963496,0.22744377,0.22631135,-4.1947042,2.2886459)" />
    <linearGradient
       x1="30.038"
       y1="24.99"
       x2="30.038"
       y2="30"
       id="u"
       xlink:href="#c-7"
       gradientUnits="userSpaceOnUse"
       gradientTransform="matrix(0.16880416,-0.16963496,0.22744377,0.22631135,-4.2431229,2.3370646)" />
    <linearGradient
       x1="9"
       y1="29.056999"
       x2="9"
       y2="26.030001"
       id="v"
       xlink:href="#d-5"
       gradientUnits="userSpaceOnUse"
       gradientTransform="matrix(0.16880416,-0.16963496,0.22744377,0.22631135,-4.5958125,2.6913417)" />
    <linearGradient
       id="d-5">
      <stop
         offset="0"
         stop-color="#ece5a5"
         id="stop1544" />
      <stop
         offset="1"
         stop-color="#fcfbf2"
         id="stop1546" />
    </linearGradient>
    <linearGradient
       x1="5.5180001"
       y1="37.372002"
       x2="9.5220003"
       y2="41.391998"
       id="w"
       xlink:href="#e-3"
       gradientUnits="userSpaceOnUse"
       gradientTransform="matrix(0.14826191,0.00640292,0.00639233,0.14807935,1.5446375,1.731698)" />
    <linearGradient
       id="e-3">
      <stop
         offset="0"
         stop-color="#dbce48"
         id="stop1550" />
      <stop
         offset="1"
         stop-color="#c5b625"
         id="stop1552" />
    </linearGradient>
  </defs>
  <sodipodi:namedview
     pagecolor="#ffffff"
     bordercolor="#666666"
     borderopacity="1"
     objecttolerance="10"
     gridtolerance="10"
     guidetolerance="10"
     inkscape:pageopacity="0"
     inkscape:pageshadow="2"
     inkscape:window-width="1366"
     inkscape:window-height="706"
     id="namedview56"
     showgrid="false"
     inkscape:zoom="7.375"
     inkscape:cx="-1.4237288"
     inkscape:cy="14.915254"
     inkscape:window-x="0"
     inkscape:window-y="0"
     inkscape:window-maximized="1"
     inkscape:current-layer="svg54" />
  <linearGradient
     id="a"
     gradientTransform="matrix(.27278 0 0 .3079 -.107 290.402)"
     gradientUnits="userSpaceOnUse"
     x1="11.001"
     x2="11.001"
     xlink:href="#b"
     y1="2.269"
     y2="19.728" />
  <linearGradient
     id="b">
    <stop
       offset="0"
       stop-color="#fff"
       id="stop3" />
    <stop
       offset=".063"
       stop-color="#fff"
       stop-opacity=".235"
       id="stop5" />
    <stop
       offset=".951"
       stop-color="#fff"
       stop-opacity=".157"
       id="stop7" />
    <stop
       offset="1"
       stop-color="#fff"
       stop-opacity=".392"
       id="stop9" />
  </linearGradient>
  <linearGradient
     id="c"
     gradientTransform="matrix(.27447 0 0 .28068 -.113 290.553)"
     gradientUnits="userSpaceOnUse"
     x1="8.295"
     x2="8.295"
     y1="-4.284"
     y2="16.85">
    <stop
       offset="0"
       stop-color="#cdf87e"
       id="stop12" />
    <stop
       offset=".262"
       stop-color="#a2e34f"
       id="stop14" />
    <stop
       offset=".661"
       stop-color="#68b723"
       id="stop16" />
    <stop
       offset="1"
       stop-color="#1d7e0d"
       id="stop18" />
  </linearGradient>
  <linearGradient
     id="d"
     gradientTransform="matrix(.1323 0 0 .06615 -.265 291.444)"
     gradientUnits="userSpaceOnUse"
     x1="23.954"
     x2="23.954"
     y1="15.999"
     y2="19.963">
    <stop
       offset="0"
       id="stop21" />
    <stop
       offset="1"
       stop-opacity="0"
       id="stop23" />
  </linearGradient>
  <linearGradient
     id="e"
     gradientTransform="matrix(.1347 0 0 .14642 -.198 290.374)"
     gradientUnits="userSpaceOnUse"
     x1="24"
     x2="24"
     xlink:href="#b"
     y1="5"
     y2="43" />
  <linearGradient
     id="f"
     gradientTransform="matrix(.11794 0 0 .11905 .212 290.644)"
     gradientUnits="userSpaceOnUse"
     x1="25.132"
     x2="25.132"
     y1="15.5"
     y2="48.396">
    <stop
       offset="0"
       stop-color="#fafafa"
       id="stop27" />
    <stop
       offset="1"
       stop-color="#e2e1de"
       id="stop29" />
  </linearGradient>
  <g
     transform="matrix(1.33333 0 0 1.33333 .176 -387.532)"
     id="g52">
    <rect
       fill="url(#f)"
       height="5.556"
       rx=".198"
       width="5.159"
       x=".463"
       y="291.047"
       id="rect32" />
    <path
       d="m.543 291.18h4.983l.017 5.555h-4.983z"
       fill="none"
       stroke="url(#e)"
       stroke-linecap="round"
       stroke-linejoin="round"
       stroke-width=".201"
       id="path34" />
    <path
       d="m.265 292.436h5.555v.198h-5.554z"
       fill="url(#d)"
       opacity=".15"
       id="path36" />
    <path
       d="m.364 292.24-.005 4.143c0 .152.155.317.307.317h4.744c.152 0 .307-.166.308-.318l.004-4.145"
       fill="none"
       opacity=".3"
       stroke="#000"
       stroke-width=".201"
       id="path38" />
    <path
       d="m1.455 292.436h.2v4.167h-.2zm1.389 0h.2v4.167h-.2zm1.389 0h.2v4.167h-.2zm-3.77.794h.992v.198h-.992z"
       opacity=".321"
       id="path40" />
    <path
       d="m1.654 293.23h1.19v.198h-1.19zm1.389 0h1.19v.198h-1.19zm1.389 0h1.19v.198h-1.19zm-3.969 1.19h.992v.2h-.992zm1.191 0h1.19v.2h-1.19zm1.389 0h1.19v.2h-1.19zm1.389 0h1.19v.2h-1.19zm-3.969 1.19h.992v.2h-.992zm1.191 0h1.19v.2h-1.19zm1.389 0h1.19v.2h-1.19zm1.389 0h1.19v.2h-1.19z"
       opacity=".321"
       id="path42" />
    <path
       d="m.592 290.944c-.158 0-.226.17-.226.33v.964h5.354v-.963c0-.162-.118-.322-.276-.322z"
       fill="url(#c)"
       id="path44" />
    <path
       d="m.68 290.948c-.152 0-.316.184-.316.336v1.048l5.357.004v-1.055c0-.15-.144-.332-.296-.332z"
       fill="none"
       opacity=".4"
       stroke="#126400"
       stroke-linecap="round"
       stroke-width=".201"
       id="path46" />
    <path
       d="m.56 291.14.002 1.002 4.975.01v-1.002z"
       style="opacity:.5;fill:none;stroke-width:.201;stroke-linecap:round;stroke-linejoin:round;stroke:url(#a)"
       id="path48" />
    <path
       d="m1.455 291.047h.2v1.19h-.2zm1.389 0h.2v1.19h-.2zm1.389 0h.2v1.19h-.2z"
       fill="#126400"
       opacity=".4"
       id="path50" />
  </g>
  <g
     id="g2387">
    <path
       id="path1610"
       d="M 7.4178582,6.8834 C 7.3649412,6.87546 7.3239312,6.8797 7.2961499,6.88605 L 3.6316709,7.729277 2.9575125,7.884852 2.936875,7.888552 2.1166667,8.4666666 4.073525,8.4148086 4.089929,8.4108386 4.7685851,8.2555282 8.4325351,7.4062157 C 8.5428666,7.3808167 8.3785603,7.2440271 8.0639707,7.0993 7.8284916,6.9900271 7.5763437,6.9061542 7.4183874,6.8831354 Z"
       style="opacity:0.15;fill:#0c0c0c;fill-rule:evenodd;stroke-width:0.26458332"
       inkscape:connector-curvature="0" />
    <path
       id="path1612"
       d="m 2.9702125,6.4743542 c 0.1180042,-0.088635 0.448998,0.077523 0.7532688,0.3802062 0.3034771,0.301625 0.4630208,0.6249459 0.3767667,0.744273 0,0 0.00741,0.00661 0.00714,0.00688 L 8.3433707,3.3490959 C 8.4507916,3.2406168 8.2838395,2.8993042 7.9703082,2.5870959 7.6557187,2.2748875 7.3130832,2.109523 7.205927,2.2172084 Z"
       style="fill:url(#o);stroke:#0c0c0c;stroke-width:0.13229166;stroke-linejoin:round"
       inkscape:connector-curvature="0" />
    <path
       id="path1614"
       d="m 6.6891957,2.73685 c 0.1180042,-0.088371 0.448998,0.077787 0.7532688,0.3804709 0.3032125,0.301625 0.4630208,0.6249459 0.3765021,0.7442729 0,0 0.00741,0.00661 0.00714,0.00688 l 0.5169996,-0.5191133 0.010583,-0.010583 c 0,-5.292e-4 -0.00741,-0.00661 -0.00714,-0.00714 C 8.4330645,3.2125709 8.2732562,2.8897792 7.9697791,2.587625 7.6655082,2.2849417 7.3347791,2.1187834 7.2165103,2.2074188 L 7.205927,2.2180021 6.6889312,2.7376438 Z"
       style="opacity:0.8;fill:#ffb6ed;stroke:#e28ccd;stroke-width:0.13229166;stroke-linejoin:round"
       inkscape:connector-curvature="0" />
    <path
       id="path1616"
       d="m 2.9702125,6.4743542 c 0.1180042,-0.088635 0.448998,0.077523 0.7532688,0.3802062 0.3034771,0.301625 0.4630208,0.6249459 0.3767667,0.744273 0,0 0.00741,0.00661 0.00714,0.00688 l 2.9170311,-2.9315833 0.010583,-0.010583 c 0,0 -0.00794,-0.00635 -0.00741,-0.00688 C 7.1143812,4.5376043 6.9543082,4.2142834 6.6508312,3.9123938 6.3465603,3.6097105 6.0158312,3.4435522 5.8975624,3.5321876 l -0.010583,0.010583 z"
       style="opacity:0.6;fill:#0c0c0c;stroke-width:0.26458332"
       inkscape:connector-curvature="0" />
    <path
       id="path1618"
       d="m 6.1097582,3.319198 c 0.1180042,-0.088371 0.448998,0.077523 0.7532688,0.3802063 0.3032125,0.3021541 0.4630208,0.6252104 0.3765021,0.7442729 0,5.291e-4 0.00741,0.00661 0.00714,0.00714 l 0.052917,-0.052917 c 0,-5.292e-4 -0.00794,-0.00661 -0.00741,-0.00714 C 7.3786999,4.271698 7.2188916,3.9483772 6.9154145,3.6464876 6.6111437,3.3438043 6.2804145,3.1776459 6.1621457,3.2662813 Z"
       style="fill:url(#p);stroke-width:0.26458332"
       inkscape:connector-curvature="0" />
    <path
       id="path1620"
       d="m 6.0616041,3.3681459 c 0.1177396,-0.0889 0.4487333,0.077258 0.7530041,0.3799417 0.3034771,0.301625 0.4630209,0.6252104 0.3767667,0.7442729 0,0 0.00741,0.00635 0.00714,0.00688 l 0.052917,-0.052917 c 0,-5.292e-4 -0.00794,-0.00688 -0.00714,-0.00714 C 7.3308103,4.3195876 7.1707374,3.9965313 6.8672603,3.6946418 6.5629895,3.3919584 6.2322603,3.2258001 6.1139916,3.3144355 Z"
       style="fill:url(#q);stroke-width:0.26458332"
       inkscape:connector-curvature="0" />
    <path
       id="path1622"
       d="m 6.2777687,3.1503938 c 0.1180041,-0.088371 0.4489979,0.077523 0.7532687,0.3802063 0.3034771,0.3021542 0.4630208,0.6252104 0.3767667,0.7442729 0,5.292e-4 0.00741,0.00661 0.00714,0.00714 l 0.052917,-0.052917 c 0,-5.292e-4 -0.00794,-0.00661 -0.00741,-0.00714 C 7.5469749,4.1028938 7.3871666,3.779573 7.0836895,3.4776834 6.7794187,3.1750001 6.4486895,3.0088417 6.3304207,3.0974771 Z"
       style="fill:url(#r);stroke-width:0.26458332"
       inkscape:connector-curvature="0" />
    <path
       id="path1624"
       d="m 6.2293499,3.1988126 c 0.1180042,-0.088371 0.4489979,0.077788 0.7532688,0.3804708 0.3037416,0.301625 0.46355,0.6252104 0.3770312,0.7442729 0,7.938e-4 0.00741,0.00688 0.00714,0.00741 l 0.052917,-0.052917 c 0,-5.292e-4 -0.00794,-0.00688 -0.00714,-0.00714 C 7.4990853,4.1518418 7.3390124,3.8290501 7.0355353,3.5268959 6.7312645,3.2242126 6.4005353,3.0580542 6.2822666,3.1466897 Z"
       style="fill:url(#s);stroke-width:0.26458332"
       inkscape:connector-curvature="0" />
    <path
       id="path1626"
       d="m 6.4465728,2.9807959 c 0.1180042,-0.088371 0.4489979,0.077523 0.7532688,0.3802063 0.3034771,0.3021541 0.4630208,0.6252104 0.3767666,0.7442729 0,5.292e-4 0.00741,0.00661 0.00714,0.00714 l 0.052917,-0.052917 c 0,-5.292e-4 -0.00794,-0.00661 -0.00741,-0.00714 C 7.7157791,3.9332959 7.5559707,3.6099751 7.2524937,3.3080855 6.9482228,3.0054021 6.6174937,2.8392438 6.4994895,2.9278792 Z"
       style="fill:url(#t);stroke-width:0.26458332"
       inkscape:connector-curvature="0" />
    <path
       id="path1628"
       d="m 6.3981541,3.0294792 c 0.1180041,-0.088635 0.4489979,0.077523 0.7532687,0.3802063 0.3032125,0.301625 0.4630209,0.6249458 0.3765021,0.7442729 0,0 0.00741,0.00661 0.00714,0.00688 l 0.052917,-0.052917 c 0,-5.291e-4 -0.00794,-0.00661 -0.00714,-0.00714 C 7.6673603,3.9817147 7.5072874,3.6583938 7.2038103,3.3565043 6.8995395,3.0535563 6.5688103,2.8876625 6.4505416,2.9760334 Z"
       style="fill:url(#u);stroke-width:0.26458332"
       inkscape:connector-curvature="0" />
    <path
       id="path1630"
       d="M 2.1584708,8.4005209 4.0854313,7.6147084 4.1021,7.5988334 C 4.1886188,7.4792417 4.0266938,7.1561854 3.7232167,6.8542959 3.4189459,6.5516125 3.0887459,6.3859834 2.9707417,6.4748834 Z"
       style="fill:url(#v);fill-rule:evenodd;stroke:url(#w);stroke-width:0.13229166"
       inkscape:connector-curvature="0" />
    <path
       id="path1632"
       d="M 2.3786042,7.8792917 2.1582062,8.3989334 2.6839333,8.1832979 C 2.6416,8.1324979 2.6029708,8.0814334 2.5521708,8.0311625 2.4939625,7.9729542 2.4368125,7.9261229 2.3783396,7.8790271 Z"
       style="fill:#0c0c0c;fill-rule:evenodd;stroke:#0c0c0c;stroke-width:0.13229166"
       inkscape:connector-curvature="0" />
  </g>
</svg>
