<svg xmlns="http://www.w3.org/2000/svg" xmlns:xlink="http://www.w3.org/1999/xlink" height="32" viewBox="0 0 8.4666665 8.4666668" width="32"><defs><linearGradient id="a"><stop offset="0" stop-color="#fff"/><stop offset=".429" stop-color="#fff" stop-opacity=".235"/><stop offset=".75" stop-color="#fff" stop-opacity=".157"/><stop offset="1" stop-color="#fff" stop-opacity=".392"/></linearGradient><linearGradient id="b"><stop offset="0" stop-color="#fff"/><stop offset=".5" stop-color="#fff" stop-opacity=".235"/><stop offset=".75" stop-color="#fff" stop-opacity=".157"/><stop offset="1" stop-color="#fff" stop-opacity=".392"/></linearGradient><linearGradient id="c"><stop offset="0" stop-color="#fff"/><stop offset="0" stop-color="#fff" stop-opacity=".235"/><stop offset=".539" stop-color="#fff" stop-opacity=".157"/><stop offset="1" stop-color="#fff" stop-opacity=".392"/></linearGradient><linearGradient id="d"><stop offset="0" stop-color="#64baff"/><stop offset="1" stop-color="#3689e6"/></linearGradient><linearGradient id="e"><stop offset="0" stop-color="#3d3d3d"/><stop offset=".5" stop-color="#686868" stop-opacity=".498"/><stop offset="1" stop-color="#686868" stop-opacity="0"/></linearGradient><linearGradient id="f"><stop offset="0"/><stop offset="1" stop-opacity="0"/></linearGradient><linearGradient x1="10.824" y1="32" x2="10.824" y2="14.232" id="p" xlink:href="#f" gradientUnits="userSpaceOnUse" gradientTransform="translate(0 7)"/><linearGradient x1=".365" y1="19.599" x2="28.06" y2="19.599" id="q" xlink:href="#g" gradientUnits="userSpaceOnUse" gradientTransform="matrix(.501 0 .12918 .4821 -1.37 6.372)" spreadMethod="reflect"/><linearGradient id="g"><stop offset="0" stop-color="#ffcd7d"/><stop offset=".262" stop-color="#fc8f36"/><stop offset="1" stop-color="#e23a0e"/></linearGradient><linearGradient x1="30" y1="30" x2="-11" y2="30" id="r" xlink:href="#h" gradientUnits="userSpaceOnUse" gradientTransform="matrix(.37774 0 .09673 .36102 1.566 7.157)" spreadMethod="reflect"/><linearGradient id="h"><stop offset="0" stop-color="#ba3d12"/><stop offset="1" stop-color="#db6737"/></linearGradient><linearGradient x1="24.002" y1="9.295" x2="22.876" y2="37.168" id="s" xlink:href="#i" gradientUnits="userSpaceOnUse" gradientTransform="matrix(.46662 0 0 .4721 .802 1.436)"/><linearGradient id="i"><stop offset="0" stop-color="#fff"/><stop offset=".131" stop-color="#fff" stop-opacity=".235"/><stop offset=".902" stop-color="#fff" stop-opacity=".157"/><stop offset="1" stop-color="#fff" stop-opacity=".392"/></linearGradient></defs><linearGradient id="o" gradientTransform="matrix(.27278 0 0 .3079 -.107 290.402)" gradientUnits="userSpaceOnUse" x1="11.001" x2="11.001" xlink:href="#j" y1="2.269" y2="19.728"/><linearGradient id="j"><stop offset="0" stop-color="#fff"/><stop offset=".063" stop-color="#fff" stop-opacity=".235"/><stop offset=".951" stop-color="#fff" stop-opacity=".157"/><stop offset="1" stop-color="#fff" stop-opacity=".392"/></linearGradient><linearGradient id="n" gradientTransform="matrix(.27447 0 0 .28068 -.113 290.553)" gradientUnits="userSpaceOnUse" x1="8.295" x2="8.295" y1="-4.284" y2="16.85"><stop offset="0" stop-color="#cdf87e"/><stop offset=".262" stop-color="#a2e34f"/><stop offset=".661" stop-color="#68b723"/><stop offset="1" stop-color="#1d7e0d"/></linearGradient><linearGradient id="m" gradientTransform="matrix(.1323 0 0 .06615 -.265 291.444)" gradientUnits="userSpaceOnUse" x1="23.954" x2="23.954" y1="15.999" y2="19.963"><stop offset="0"/><stop offset="1" stop-opacity="0"/></linearGradient><linearGradient id="l" gradientTransform="matrix(.1347 0 0 .14642 -.198 290.374)" gradientUnits="userSpaceOnUse" x1="24" x2="24" xlink:href="#j" y1="5" y2="43"/><linearGradient id="k" gradientTransform="matrix(.11794 0 0 .11905 .212 290.644)" gradientUnits="userSpaceOnUse" x1="25.132" x2="25.132" y1="15.5" y2="48.396"><stop offset="0" stop-color="#fafafa"/><stop offset="1" stop-color="#e2e1de"/></linearGradient><g transform="translate(.176 -387.532) scale(1.33333)"><rect height="5.556" rx=".198" width="1.191" x=".463" y="291.047" fill="url(#k)"/><path d="M.543 291.18l.896-.132.016 5.555-.896.132z" fill="none" stroke="url(#l)" stroke-width=".201" stroke-linecap="round" stroke-linejoin="round"/><path d="M.265 292.436H5.82v.198H.266z" fill="url(#m)" opacity=".15"/><path d="M.364 292.24l-.005 4.143c0 .152.154.317.306.317h.87" opacity=".3" fill="none" stroke="#000" stroke-width=".201"/><path d="M1.455 292.436h.2v4.167h-.2zm-.992.794h.992v.198H.463zM1.654 293.23v.198zm-1.19 1.19h.99v.2h-.99zm1.19 0v.2zm-1.19 1.19h.99v.2h-.99zm1.19 0v.2z" opacity=".321"/><path d="M.592 290.944c-.158 0-.226.17-.226.33v.964H5.72v-.963c0-.162-.118-.322-.276-.322z" fill="url(#n)"/><path d="M.68 290.948c-.152 0-.316.184-.316.336v1.048l5.357.004v-1.055c0-.15-.143-.33-.295-.33z" stroke-linecap="round" stroke-width=".201" stroke="#126400" fill="none" opacity=".4"/><path d="M.56 291.14l.002 1.002 4.975.01v-1.002z" opacity=".5" fill="none" stroke-width=".201" stroke-linecap="round" stroke-linejoin="round" stroke="url(#o)"/><path d="M1.455 291.047h.2v1.19h-.2zm1.39 0h.2v1.19h-.2zm1.388 0h.2v1.19h-.2z" fill="#126400" opacity=".4"/></g><path d="M6.938 23.353c-1.817.023-3.338.167-3.75.312l-.22-.27h-2l5.626 7.23h2l-2.28-2.427c.676.087 2.47-.26 4.78-.247 2.803.018 3.63.375 6.594.378 2.964.002 5.447-.178 5.218-.442l-3-4.36c-.138-.2-2.664.24-5.437.203-2.995-.042-3.926-.346-6.564-.377-.33-.004-.652-.004-.968 0z" color="#000" overflow="visible" opacity=".25" fill="url(#p)" transform="translate(2.693 1.267) scale(.22322)"/><path color="#000" overflow="visible" fill="#fff" d="M3.052 3.53h.223L4.47 7.994H4.25z"/><path transform="matrix(.22322 0 .05777 .2156 2.693 1.267)" color="#000" overflow="visible" opacity=".366" fill="none" stroke="#000" stroke-width="1.206" stroke-linejoin="round" d="M-1.608 9.976h2v21.74h-2z"/><path d="M3.078 10.685c-.17-.568 2.195-1.267 4.833-1.177 2.64.09 3.57.96 6.563 1.08 2.773.11 5.284-1.157 5.422-.578l3 11.202c.23.765-2.236 1.296-5.2 1.288-2.965-.008-3.79-1.034-6.593-1.083-2.802-.048-4.84 1.422-5.054.353z" fill="url(#q)" fill-rule="evenodd" stroke="url(#r)" stroke-width="1.185" stroke-linejoin="round" transform="translate(2.693 1.267) scale(.22322)"/><path d="M8.063 5.5c-1.486-.066-2.995.13-4.094.375-.55.123-.974.25-1.25.375-.11.05-.177.096-.22.125V20c.218-.02.624-.13 1.156-.28 1.118-.317 2.693-.758 4.438-.72 1.718.037 2.81.418 3.812.78 1 .364 1.926.714 3.594.72 1.704.006 3.313-.178 4.47-.406.576-.114 1.05-.264 1.343-.375.1-.04.136-.068.187-.095V6.155c-.312.063-.744.16-1.313.282-1.22.266-2.915.565-4.75.5-1.8-.063-2.94-.39-3.968-.718-1.03-.33-1.94-.655-3.408-.72z" transform="matrix(.17622 0 .0444 .16567 2.903 2.686)" opacity=".5" fill="none" stroke="url(#s)" stroke-width="1.548"/></svg>