<svg xmlns="http://www.w3.org/2000/svg" xmlns:xlink="http://www.w3.org/1999/xlink" width="32" height="32" viewBox="0 0 8.4666665 8.4666669"><defs><linearGradient id="d" gradientTransform="matrix(.0147 0 0 .00536 -1.055 293.317)" gradientUnits="userSpaceOnUse" x1="302.857" x2="302.857" y1="366.648" y2="609.505"><stop offset="0" stop-opacity="0"/><stop offset=".5"/><stop offset="1" stop-opacity="0"/></linearGradient><radialGradient id="e" cx="605.714" cy="486.648" gradientTransform="matrix(-.00503 0 0 .00536 3.74 293.317)" gradientUnits="userSpaceOnUse" r="117.143" xlink:href="#a"/><linearGradient id="a"><stop offset="0"/><stop offset="1" stop-opacity="0"/></linearGradient><radialGradient id="f" cx="605.714" cy="486.648" gradientTransform="matrix(.00503 0 0 .00536 4.774 293.317)" gradientUnits="userSpaceOnUse" r="117.143" xlink:href="#a"/><radialGradient id="g" cx="14.357" cy="15.625" gradientTransform="matrix(0 .48316 -.52312 0 12.143 284.772)" gradientUnits="userSpaceOnUse" r="11.5"><stop offset="0" stop-color="#90dbec"/><stop offset=".262" stop-color="#55c1ec"/><stop offset=".788" stop-color="#3689e6"/><stop offset="1" stop-color="#2b63a0"/></radialGradient><radialGradient id="h" cx="13" cy="15.786" gradientTransform="matrix(0 .26458 -.33674 0 9.284 288.27)" gradientUnits="userSpaceOnUse" r="11" xlink:href="#b"/><linearGradient id="b"><stop offset="0" stop-color="#fff"/><stop offset="1" stop-color="#fff" stop-opacity="0"/></linearGradient><linearGradient id="i" gradientTransform="matrix(0 .15017 -.19307 0 8.867 288.898)" gradientUnits="userSpaceOnUse" x1="4.619" x2="43.381" y1="24" y2="24"><stop offset="0" stop-color="#fff"/><stop offset=".044" stop-color="#fff" stop-opacity=".235"/><stop offset=".951" stop-color="#fff" stop-opacity=".157"/><stop offset="1" stop-color="#fff" stop-opacity=".392"/></linearGradient><radialGradient id="j" cx="16" cy="15" gradientTransform="matrix(.26458 0 0 .21167 0 289.327)" gradientUnits="userSpaceOnUse" r="15"><stop offset="0" stop-color="#185f9a"/><stop offset="1" stop-color="#599ec9"/></radialGradient><linearGradient xlink:href="#c" id="k" x1="3.686" y1="-4.226" x2="2.93" y2="28.474" gradientUnits="userSpaceOnUse"/><linearGradient id="c" gradientTransform="matrix(.50842 0 0 .4913 43.485 12.69)" gradientUnits="userSpaceOnUse" x1="10.714" x2="10.767" y1="3.629" y2="26.956"><stop offset="0" stop-color="#f8b17e"/><stop offset=".312" stop-color="#e35d4f"/><stop offset=".571" stop-color="#c6262e"/><stop offset="1" stop-color="#690b54"/></linearGradient><linearGradient id="l" gradientTransform="matrix(.87818 0 0 .88434 13.56 3.406)" gradientUnits="userSpaceOnUse" x1="1.004" x2=".228" y1="20.709" y2="-4.382"><stop offset="0" stop-color="#791235"/><stop offset="1" stop-color="#dd3b27"/></linearGradient><linearGradient id="m" gradientTransform="matrix(.53153 -.53097 .53153 .53097 -14.042 11.965)" gradientUnits="userSpaceOnUse" x1="36.011" x2="16.331" xlink:href="#b" y1="13.023" y2="32.702"/><linearGradient id="n" gradientTransform="matrix(.53153 -.53097 .53153 .53097 -14.578 12.234)" gradientUnits="userSpaceOnUse" x1="28.449" x2="16.331" xlink:href="#b" y1="20.584" y2="32.702"/></defs><path d="M.71 295.28h7.095v1.3H.71z" opacity=".15" fill="url(#d)" transform="translate(0 -288.533)"/><path d="M.71 295.28v1.3c-.26.004-.628-.29-.628-.65 0-.36.29-.65.627-.65z" opacity=".15" fill="url(#e)" transform="translate(0 -288.533)"/><path d="M7.805 295.28v1.3c.26.004.626-.29.626-.65 0-.36-.288-.65-.625-.65z" opacity=".15" fill="url(#f)" transform="translate(0 -288.533)"/><path d="M7.938 289.592v5.82H.527v-5.82z" fill="url(#g)" stroke="url(#h)" stroke-width=".265" transform="translate(0 -288.533)"/><path d="M.66 295.28v-5.556h7.145v5.556z" fill="none" stroke="url(#i)" stroke-width=".265" stroke-linecap="round" stroke-linejoin="round" transform="translate(0 -288.533)"/><path d="M8.07 289.46v6.085H.396v-6.086z" fill="none" stroke="url(#j)" stroke-width=".265" stroke-linejoin="round" transform="translate(0 -288.533)"/><g fill="#fff" fill-opacity=".691"><path d="M1.058 1.323h.265v3.704h-.265z"/><path d="M4.498 1.587v.265H.794v-.265z"/><path d="M7.408 6.615h-.264V2.91h.264z" opacity=".7"/><path d="M3.97 6.35v-.265h3.703v.265z" opacity=".7"/><path d="M2.117 3.175h1.058v.265H2.117zm1.323 0h.53v.265h-.53zm1.058 0h.794v.265h-.794zm1.058 0h.794v.265h-.794zm-3.44.53h.53v.264h-.53zm.794 0h1.06v.264H2.91zm1.323 0h.794v.264h-.794zm1.06 0h.528v.264h-.528zm-3.176.528h1.058v.265H2.117zm1.323 0h.53v.265h-.53zm.793 0h1.06v.265h-1.06zm1.323 0h.53v.265h-.53zm-3.44.53h.794v.264h-.793zm1.06 0h.793v.264h-.795zm1.057 0h.53v.264h-.53zm.794 0h1.058v.264H5.027z"/></g><g stroke-linejoin="round"><path d="M21.5 17.8L16 12.497l5.29-5.557-3.814-3.44-5.448 5.294L6.47 3.5 2.5 7.068l5.558 5.406-5.558 5.32L6.47 21.5l5.552-5.56 5.565 5.56z" transform="matrix(.1909 0 0 .1909 4.06 3.962)" fill="url(#k)" stroke="url(#l)" stroke-width="1.386"/><g fill="none" stroke-width="1.752" stroke-linecap="round"><path d="M18.918 7.066L17.55 5.87l-5.59 5.117-5.48-5.224L5.085 7.17" transform="matrix(.1909 0 0 .1909 4.06 3.962)" opacity=".4" stroke="url(#m)"/><path d="M19.043 17.973l-4.22-4.29m-5.604-.288L4.855 17.66" transform="matrix(.1909 0 0 .1909 4.06 3.962)" opacity=".4" stroke="url(#n)"/></g></g></svg>