<svg height="32" width="32" xmlns="http://www.w3.org/2000/svg" xmlns:xlink="http://www.w3.org/1999/xlink"><linearGradient id="a" gradientTransform="matrix(.50842 0 0 .4913 43.485 12.69)" gradientUnits="userSpaceOnUse" x1="10.714" x2="10.767" y1="3.629" y2="26.956"><stop offset="0" stop-color="#f8b17e"/><stop offset=".312" stop-color="#e35d4f"/><stop offset=".571" stop-color="#c6262e"/><stop offset="1" stop-color="#690b54"/></linearGradient><linearGradient id="b" gradientTransform="matrix(.87818 0 0 .88434 13.56 3.406)" gradientUnits="userSpaceOnUse" x1="1.004" x2=".228" y1="20.709" y2="-4.382"><stop offset="0" stop-color="#791235"/><stop offset="1" stop-color="#dd3b27"/></linearGradient><linearGradient id="c" gradientTransform="matrix(.53153217 -.53096648 .53153217 .53096648 -14.041895 11.964874)" gradientUnits="userSpaceOnUse" x1="36.011" x2="16.331" xlink:href="#d" y1="13.023" y2="32.702"/><linearGradient id="d"><stop offset="0" stop-color="#fff"/><stop offset="1" stop-color="#fff" stop-opacity="0"/></linearGradient><linearGradient id="e" gradientTransform="matrix(.53153217 -.53096648 .53153217 .53096648 -14.577956 12.233958)" gradientUnits="userSpaceOnUse" x1="28.449" x2="16.331" xlink:href="#d" y1="20.584" y2="32.702"/><linearGradient id="f"><stop offset="0"/><stop offset="1" stop-opacity="0"/></linearGradient><linearGradient id="g" gradientTransform="matrix(.56757 0 0 .72973 2.378 -2.514)" gradientUnits="userSpaceOnUse" x1="9.905" x2="44.262" y1="21.331" y2="21.954"><stop offset="0" stop-color="#fff"/><stop offset=".174" stop-color="#fff" stop-opacity=".235"/><stop offset=".951" stop-color="#fff" stop-opacity=".157"/><stop offset="1" stop-color="#fff" stop-opacity=".392"/></linearGradient><linearGradient id="h" gradientTransform="matrix(.62857 0 0 .6084 .914 -.535)" gradientUnits="userSpaceOnUse" x1="3.318" x2="39.909" y1="30.465" y2="30.465"><stop offset="0" stop-color="#f4f4f4"/><stop offset="1" stop-color="#dbdbdb"/></linearGradient><radialGradient id="i" cx="605.714" cy="486.648" gradientTransform="matrix(.019 0 0 .02024 18.043 18.08)" gradientUnits="userSpaceOnUse" r="117.143" xlink:href="#f"/><radialGradient id="j" cx="605.714" cy="486.648" gradientTransform="matrix(-.019 0 0 .02024 14.134 18.08)" gradientUnits="userSpaceOnUse" r="117.143" xlink:href="#f"/><linearGradient id="k" gradientTransform="matrix(.05555 0 0 .02024 -3.988 18.08)" gradientUnits="userSpaceOnUse" x1="302.857" x2="302.857" y1="366.648" y2="609.505"><stop offset="0" stop-opacity="0"/><stop offset=".5"/><stop offset="1" stop-opacity="0"/></linearGradient><linearGradient id="l" gradientTransform="matrix(.53064 0 0 .5897 39.27 -1.792)" gradientUnits="userSpaceOnUse" x1="-51.786" x2="-51.786" y1="50.786" y2="2.906"><stop offset="0" stop-opacity=".318"/><stop offset="1" stop-opacity=".24"/></linearGradient><path d="m2.678 25.5h26.822v4.915h-26.822z" fill="url(#k)" opacity=".15"/><path d="m2.678 25.5v4.915c-.98.01-2.367-1.1-2.367-2.458s1.093-2.457 2.369-2.457z" fill="url(#j)" opacity=".15"/><path d="m29.5 25.5v4.915c.98.01 2.367-1.1 2.367-2.458s-1.093-2.457-2.367-2.457z" fill="url(#i)" opacity=".15"/><path d="m5 1 22 .002v27.998h-22z" fill="url(#h)" transform="matrix(0 1 -1 0 31 -1)"/><g stroke-linejoin="round"><g fill="none"><path d="m26.5 28.5h-21v-27h21z" stroke="url(#g)" stroke-linecap="round" transform="matrix(0 1 -1 0 31 -1)"/><path d="m4.5.5 23 .002v28.998h-23z" stroke="url(#l)" transform="matrix(0 1 -1 0 31 -1)"/></g><g><path d="m21.5 17.8-5.5-5.303 5.29-5.557-3.814-3.44-5.448 5.294-5.558-5.294-3.97 3.568 5.558 5.406-5.558 5.32 3.97 3.706 5.552-5.56 5.565 5.56z" fill="url(#a)" stroke="url(#b)" stroke-width="1.386" transform="matrix(.7215 0 0 .7215 15.342 14.974)"/><g fill="none" stroke-linecap="round" stroke-width="1.752"><path d="m18.918 7.066-1.368-1.196-5.59 5.117-5.48-5.224-1.395 1.407" opacity=".4" stroke="url(#c)" transform="matrix(.7215 0 0 .7215 15.342 14.974)"/><path d="m19.043 17.973-4.22-4.29m-5.604-.288-4.362 4.265" opacity=".4" stroke="url(#e)" transform="matrix(.7215 0 0 .7215 15.342 14.974)"/></g></g></g></svg>