<svg xmlns="http://www.w3.org/2000/svg" xmlns:xlink="http://www.w3.org/1999/xlink" height="32" width="32"><defs><linearGradient xlink:href="#a" id="k" x1="3.686" y1="-4.226" x2="2.93" y2="28.474" gradientUnits="userSpaceOnUse"/><linearGradient id="a" gradientTransform="matrix(.50842 0 0 .4913 43.485 12.69)" gradientUnits="userSpaceOnUse" x1="10.714" x2="10.767" y1="3.629" y2="26.956"><stop offset="0" stop-color="#f8b17e"/><stop offset=".312" stop-color="#e35d4f"/><stop offset=".571" stop-color="#c6262e"/><stop offset="1" stop-color="#690b54"/></linearGradient><linearGradient id="l" gradientTransform="matrix(.87818 0 0 .88434 13.56 3.406)" gradientUnits="userSpaceOnUse" x1="1.004" x2=".228" y1="20.709" y2="-4.382"><stop offset="0" stop-color="#791235"/><stop offset="1" stop-color="#dd3b27"/></linearGradient><linearGradient id="m" gradientTransform="matrix(.53153 -.53097 .53153 .53097 -14.042 11.965)" gradientUnits="userSpaceOnUse" x1="36.011" x2="16.331" xlink:href="#b" y1="13.023" y2="32.702"/><linearGradient id="b"><stop offset="0" stop-color="#fff"/><stop offset="1" stop-color="#fff" stop-opacity="0"/></linearGradient><linearGradient id="n" gradientTransform="matrix(.53153 -.53097 .53153 .53097 -14.578 12.234)" gradientUnits="userSpaceOnUse" x1="28.449" x2="16.331" xlink:href="#b" y1="20.584" y2="32.702"/></defs><radialGradient id="f" cx="6.703" cy="73.616" gradientTransform="matrix(1.96254 0 0 .3559 -.24 3.227)" gradientUnits="userSpaceOnUse" r="7.228"><stop offset="0" stop-opacity=".326"/><stop offset=".5" stop-opacity=".192"/><stop offset="1" stop-opacity="0"/></radialGradient><radialGradient id="c" cx="21.96" cy="-6.637" gradientTransform="matrix(-.00816 1.50586 -1.54218 -.00836 -1.94 -18.638)" gradientUnits="userSpaceOnUse" r="11.509"><stop offset="0" stop-color="#fff3cb"/><stop offset=".262" stop-color="#fdde76"/><stop offset=".661" stop-color="#f9c440"/><stop offset="1" stop-color="#e48b20"/></radialGradient><linearGradient id="d" gradientTransform="matrix(.52016 -.04737 .05115 .56654 -1.57 7.52)" gradientUnits="userSpaceOnUse" x1="27.261" x2="25.011" y1="11.249" y2="31.265"><stop offset="0" stop-color="#fff"/><stop offset=".334" stop-color="#fff" stop-opacity=".235"/><stop offset=".679" stop-color="#fff" stop-opacity=".157"/><stop offset="1" stop-color="#fff" stop-opacity=".392"/></linearGradient><linearGradient id="e" gradientTransform="translate(0 8)" gradientUnits="userSpaceOnUse" x1="6.786" x2="10.909" y1="4.748" y2="10.748"><stop offset="0" stop-color="#fff" stop-opacity=".702"/><stop offset="1" stop-color="#fff" stop-opacity="0"/></linearGradient><radialGradient id="g" cx="21.96" cy="-6.637" gradientTransform="matrix(-.00816 1.50586 -1.54218 -.00836 -1.94 -18.638)" gradientUnits="userSpaceOnUse" r="11.509" xlink:href="#c"/><linearGradient id="h" gradientTransform="matrix(.52016 -.04737 .05115 .56654 -1.57 7.52)" gradientUnits="userSpaceOnUse" x1="27.261" x2="25.011" xlink:href="#d" y1="11.249" y2="31.265"/><linearGradient id="i" gradientTransform="translate(0 8)" gradientUnits="userSpaceOnUse" x1="6.786" x2="10.909" xlink:href="#e" y1="4.748" y2="10.748"/><radialGradient id="j" cx="6.703" cy="73.616" gradientTransform="matrix(1.96254 0 0 .3559 -.24 3.227)" gradientUnits="userSpaceOnUse" r="7.228" xlink:href="#f"/><path d="M10.44 10.395c-5.636.83-9.806 4.708-9.427 8.906.245 2.72 2.335 4.957 5.323 6.138L5.09 30.29l5.517-3.984.038-.003c.68.032 1.365.043 2.075-.022 6.06-.55 10.665-4.576 10.267-8.98-.397-4.406-5.65-7.533-11.707-6.98-.284.025-.562.035-.84.075z" fill="url(#c)" fill-rule="evenodd" transform="translate(.554 -.77) scale(.9874)"/><path d="M10.863 9.495c-5.565.82-9.683 4.647-9.31 8.793.243 2.684 2.307 4.894 5.257 6.06l-1.23 4.79 5.447-3.933.038-.004c.673.033 1.348.044 2.05-.02 5.98-.545 10.53-4.52 10.137-8.87-.393-4.348-5.58-7.436-11.56-6.89-.28.025-.556.034-.83.074z" fill="none" opacity=".5" stroke="#956500" stroke-linejoin="round" stroke-width="1.0002362"/><path d="M10.628 11.237c-4.83.702-9.086 3.826-8.75 8.057.225 2.84 2.873 4.77 5.627 5.665l-1.01 3.198 3.767-2.675c.583.025 1.694.07 2.302.015 4.598-.42 10.19-3.886 9.657-8.11-.537-4.273-5.637-6.716-10.873-6.216-.243.023-.482.03-.72.065z" fill="none" opacity=".8" stroke="url(#d)" stroke-width="1.013" transform="translate(.554 -.77) scale(.9874)"/><path d="M10.44 10.395c-5.636.83-9.806 4.708-9.427 8.906.245 2.72 2.335 4.957 5.323 6.138L5.09 30.29l5.517-3.984.038-.003c.68.032 1.365.043 2.075-.022 6.06-.55 10.665-4.576 10.267-8.98-.397-4.406-5.65-7.533-11.707-6.98-.284.025-.562.035-.84.075z" fill="url(#e)" fill-rule="evenodd" transform="translate(.554 -.77) scale(.9874)"/><path d="M27.1 29.427c0 1.42-6.35 2.573-14.185 2.573C5.08 32-1.27 30.848-1.27 29.427c0-1.42 6.35-2.572 14.185-2.572 7.835 0 14.186 1.152 14.186 2.572z" fill="url(#f)" opacity=".4" transform="translate(.554 -.77) scale(.9874)"/><g><path d="M10.44 10.395c-5.636.83-9.806 4.708-9.427 8.906.245 2.72 2.335 4.957 5.323 6.138L5.09 30.29l5.517-3.984.038-.003c.68.032 1.365.043 2.075-.022 6.06-.55 10.665-4.576 10.267-8.98-.397-4.406-5.65-7.533-11.707-6.98-.284.025-.562.035-.84.075z" fill="url(#g)" fill-rule="evenodd" transform="matrix(-.9874 0 0 .9874 31.897 -9.49)"/><path d="M21.588.775c5.565.82 9.683 4.647 9.31 8.793-.243 2.684-2.307 4.894-5.257 6.06l1.232 4.79-5.448-3.933-.038-.004c-.673.033-1.348.044-2.05-.02-5.98-.545-10.53-4.52-10.137-8.87C9.59 3.243 14.777.155 20.76.7c.28.025.555.034.828.074z" fill="none" opacity=".5" stroke="#956500" stroke-linejoin="round" stroke-width="1.0002362"/><path d="M10.628 11.237c-4.83.702-9.086 3.826-8.75 8.057.225 2.84 2.873 4.77 5.627 5.665l-1.01 3.198 3.767-2.675c.583.025 1.694.07 2.302.015 4.598-.42 10.19-3.886 9.657-8.11-.537-4.273-5.637-6.716-10.873-6.216-.243.023-.482.03-.72.065z" fill="none" opacity=".8" stroke="url(#h)" stroke-width="1.013" transform="matrix(-.9874 0 0 .9874 31.897 -9.49)"/><path d="M10.44 10.395c-5.636.83-9.806 4.708-9.427 8.906.245 2.72 2.335 4.957 5.323 6.138L5.09 30.29l5.517-3.984.038-.003c.68.032 1.365.043 2.075-.022 6.06-.55 10.665-4.576 10.267-8.98-.397-4.406-5.65-7.533-11.707-6.98-.284.025-.562.035-.84.075z" fill="url(#i)" fill-rule="evenodd" transform="matrix(-.9874 0 0 .9874 31.897 -9.49)"/><path d="M27.1 29.427c0 1.42-6.35 2.573-14.185 2.573C5.08 32-1.27 30.848-1.27 29.427c0-1.42 6.35-2.572 14.185-2.572 7.835 0 14.186 1.152 14.186 2.572z" fill="url(#j)" opacity=".4" transform="matrix(-.9874 0 0 .9874 31.897 -9.49)"/></g><g stroke-linejoin="round"><path d="M21.5 17.8L16 12.497l5.29-5.557-3.814-3.44-5.448 5.294L6.47 3.5 2.5 7.068l5.558 5.406-5.558 5.32L6.47 21.5l5.552-5.56 5.565 5.56z" transform="translate(15.342 14.974) scale(.7215)" fill="url(#k)" stroke="url(#l)" stroke-width="1.386"/><g fill="none" stroke-width="1.752" stroke-linecap="round"><path d="M18.918 7.066L17.55 5.87l-5.59 5.117-5.48-5.224L5.085 7.17" transform="translate(15.342 14.974) scale(.7215)" opacity=".4" stroke="url(#m)"/><path d="M19.043 17.973l-4.22-4.29m-5.604-.288L4.855 17.66" transform="translate(15.342 14.974) scale(.7215)" opacity=".4" stroke="url(#n)"/></g></g></svg>