<svg xmlns="http://www.w3.org/2000/svg" xmlns:xlink="http://www.w3.org/1999/xlink" height="32" viewBox="0 0 8.4666665 8.4666668" width="32"><defs><linearGradient gradientTransform="scale(.26458)" id="n" gradientUnits="userSpaceOnUse" x1="8.146" x2="8.146" xlink:href="#a" y1="23.054" y2="14.009"/><linearGradient id="a"><stop offset="0" stop-color="#fff"/><stop offset="1" stop-color="#fff" stop-opacity="0"/></linearGradient><linearGradient gradientTransform="scale(.26458)" id="m" gradientUnits="userSpaceOnUse" x1="14.836" x2="14.836" xlink:href="#a" y1="5.675" y2="26.029"/></defs><linearGradient id="k" gradientTransform="matrix(1.38317 0 0 1.41442 -11.892 21.51)" gradientUnits="userSpaceOnUse" x1="13.697" x2="13.3" y1="12.091" y2="29.436"><stop offset="0" stop-color="#aff05f"/><stop offset="1" stop-color="#68b723"/></linearGradient><linearGradient id="l" gradientUnits="userSpaceOnUse" x1="12.674" x2="12.001" xlink:href="#b" y1="1.33" y2="20"/><linearGradient id="b"><stop offset="0" stop-color="#fff"/><stop offset=".654" stop-color="#fff" stop-opacity=".235"/><stop offset="1" stop-color="#fff" stop-opacity=".157"/><stop offset="1" stop-color="#fff" stop-opacity=".392"/></linearGradient><linearGradient id="i" gradientUnits="userSpaceOnUse" x1="13.561" x2="13.608" y1="-5.013" y2="21.532"><stop offset="0" stop-color="#f7b19e"/><stop offset="1" stop-color="#e2866d"/></linearGradient><linearGradient id="j" gradientUnits="userSpaceOnUse" x1="11.673" x2="12.001" xlink:href="#b" y1="-7.108" y2="20"/><linearGradient id="g" gradientUnits="userSpaceOnUse" x1="15.608" x2="15.608" y1="2.546" y2="21.532"><stop offset="0" stop-color="#cd9ef7"/><stop offset="1" stop-color="#a56de2"/></linearGradient><linearGradient id="h" gradientUnits="userSpaceOnUse" x1="12.993" x2="14.001" xlink:href="#b" y1="-12.336" y2="20"/><radialGradient id="d" cx="4.993" cy="43.5" gradientTransform="matrix(2.00378 0 0 1.4 27.988 -17.4)" gradientUnits="userSpaceOnUse" r="2.5" xlink:href="#c"/><linearGradient id="c"><stop offset="0" stop-color="#181818"/><stop offset="1" stop-color="#181818" stop-opacity="0"/></linearGradient><radialGradient id="e" cx="4.993" cy="43.5" gradientTransform="matrix(2.00378 0 0 1.4 -20.012 -104.4)" gradientUnits="userSpaceOnUse" r="2.5" xlink:href="#c"/><linearGradient id="f" gradientUnits="userSpaceOnUse" x1="25.058" x2="25.058" y1="47.028" y2="39.999"><stop offset="0" stop-color="#181818" stop-opacity="0"/><stop offset=".5" stop-color="#181818"/><stop offset="1" stop-color="#181818" stop-opacity="0"/></linearGradient><g opacity=".4"><path fill="url(#d)" d="M38 40h5v7h-5z" transform="matrix(.22042 0 0 .1134 -1.053 2.873)"/><path transform="matrix(-.22042 0 0 -.1134 -1.053 2.873)" fill="url(#e)" d="M-10-47h5v7h-5z"/><path fill="url(#f)" d="M10 40h28v7H10z" transform="matrix(.22042 0 0 .1134 -1.053 2.873)"/></g><g transform="matrix(.26458 0 0 .26458 -1.326 2.117)"><rect y="-5.513" x="17.48" width="6.02" rx="1" height="27.013" fill="url(#g)"/><g stroke-linejoin="round" stroke-linecap="round" fill="none"><path stroke="url(#h)" opacity=".5" d="M18.48-4.508h4.02V20.5h-4.02z"/><rect y="-5.492" x="17.508" width="5.992" stroke="#7239b3" rx="1" opacity=".5" height="26.992"/></g></g><g transform="matrix(.26458 0 0 .26458 1.59 2.117)"><rect y="-.483" x="15.446" width="6.054" rx="1" height="21.983" fill="url(#i)"/><g stroke-linejoin="round" stroke-linecap="round" fill="none"><path stroke="url(#j)" opacity=".5" d="M16.49.485h4.01V20.5h-4.01z"/><rect y="-.489" x="15.488" width="6.012" stroke="#b35039" rx="1" opacity=".5" height="21.989"/></g></g><g transform="matrix(.26458 0 0 .26458 -3.175 2.117)"><rect y="3.587" x="15.471" width="6.029" rx="1" height="17.913" fill="url(#k)"/><g stroke-linejoin="round" stroke-linecap="round" fill="none"><path stroke="url(#l)" opacity=".5" d="M16.502 4.506h4V20.5h-4z"/><rect y="3.503" x="15.498" width="6.002" stroke="#7bb339" rx="1" opacity=".5" height="17.997"/></g></g><g><path d="M.397 2.25l5.82 5.82H.398zM1.72 5.43v1.317h1.317z" fill="#81d72c" fill-opacity=".588" fill-rule="evenodd" stroke="#4e9a06" stroke-width=".265" stroke-linejoin="round"/><path d="M.66 1.818v4.93h4.93z" opacity=".5" fill="none" stroke="url(#m)" stroke-width=".265" transform="translate(0 1.058)"/><path d="M1.455 3.842v2.116H3.39" opacity=".5" fill="none" stroke="url(#n)" stroke-width=".265" transform="translate(0 1.058)"/><path d="M.53 2.91h.264v.18H.53zm0 .54h.264v.18H.53zm0 .54h.264v.18H.53zm0 .54h.264v.18H.53zm0 .54h.264v.18H.53zm0 .54h.264v.18H.53zm0 .54h.264v.178H.53zm0 .538h.264v.18H.53zm0 .54h.264v.18H.53z" opacity=".15"/><path d="M.53 3.175h.264v.18H.53zm0 .54h.264v.18H.53zm0 .54h.264v.18H.53zm0 .54h.264v.18H.53zm0 .54h.264v.18H.53zm0 .538h.264v.18H.53zm0 .54h.264v.18H.53zm0 .54h.264v.18H.53zm0 .54h.264v.18H.53z" opacity=".15" fill="#fff"/><path d="M5.292 7.673v.264H5.12v-.264zm-.52 0v.264H4.6v-.264zm-.518 0v.264H4.08v-.264zm-.52 0v.264h-.172v-.264zm-.518 0v.264h-.173v-.264zm-.52 0v.264h-.172v-.264zm-.518 0v.264h-.173v-.264zm-.52 0v.264h-.173v-.264zm-.518 0v.264H.967v-.264z" opacity=".15"/><path d="M5.12 7.673v.264h-.174v-.264zm-.52 0v.264h-.173v-.264zm-.52 0v.264H3.91v-.264zm-.518 0v.264H3.39v-.264zm-.52 0v.264H2.87v-.264zm-.518 0v.264H2.35v-.264zm-.52 0v.264h-.172v-.264zm-.518 0v.264h-.174v-.264zm-.52 0v.264H.795v-.264z" opacity=".15" fill="#fff"/><path d="M1.19 8.334H6.22" opacity=".3" fill="none" stroke="#85f619" stroke-width=".265" stroke-linecap="square"/></g></svg>