<svg xmlns="http://www.w3.org/2000/svg" xmlns:xlink="http://www.w3.org/1999/xlink" width="32" height="32"><defs><linearGradient id="a"><stop offset="0" stop-color="#fff"/><stop offset="0" stop-color="#fff" stop-opacity=".235"/><stop offset="1" stop-color="#fff" stop-opacity=".157"/><stop offset="1" stop-color="#fff" stop-opacity=".392"/></linearGradient><linearGradient id="b"><stop offset="0" stop-color="#f4f4f4"/><stop offset="1" stop-color="#dbdbdb"/></linearGradient><linearGradient id="c"><stop offset="0"/><stop offset="1" stop-opacity="0"/></linearGradient><linearGradient id="d"><stop offset="0" stop-opacity="0"/><stop offset=".5"/><stop offset="1" stop-opacity="0"/></linearGradient><linearGradient x1="24.001" y1="6.381" x2="24.001" y2="41.619" id="q" xlink:href="#a" gradientUnits="userSpaceOnUse" gradientTransform="matrix(.72973 0 0 .56757 -1.515 2.378)"/><linearGradient x1="25.132" y1=".985" x2="25.132" y2="47.013" id="p" xlink:href="#b" gradientUnits="userSpaceOnUse" gradientTransform="matrix(.8 0 0 .47802 -3.2 3.794)"/><radialGradient cx="605.714" cy="486.648" r="117.143" fx="605.714" fy="486.648" id="o" xlink:href="#c" gradientUnits="userSpaceOnUse" gradientTransform="matrix(.01928 0 0 .00824 17.982 23.98)"/><radialGradient cx="605.714" cy="486.648" r="117.143" fx="605.714" fy="486.648" id="n" xlink:href="#c" gradientUnits="userSpaceOnUse" gradientTransform="matrix(-.01928 0 0 .00824 14.018 23.98)"/><linearGradient x1="302.857" y1="366.648" x2="302.857" y2="609.505" id="m" xlink:href="#d" gradientUnits="userSpaceOnUse" gradientTransform="matrix(.05633 0 0 .00824 -4.36 23.98)"/><linearGradient x1="9.61" y1="6.395" x2="9.61" y2="41.619" id="r" xlink:href="#e" gradientUnits="userSpaceOnUse" gradientTransform="matrix(.66892 0 0 .56757 -1.18 2.378)"/><linearGradient id="e"><stop offset="0" stop-color="#fff"/><stop offset="0" stop-color="#fff" stop-opacity=".235"/><stop offset="1" stop-color="#fff" stop-opacity=".157"/><stop offset="1" stop-color="#fff" stop-opacity=".392"/></linearGradient><linearGradient id="f"><stop offset="0" stop-color="#aaa"/><stop offset="1" stop-color="#c8c8c8"/></linearGradient><linearGradient id="g"><stop offset="0" stop-opacity=".318"/><stop offset="1" stop-opacity=".24"/></linearGradient><linearGradient id="h"><stop offset="0" stop-color="#ffa154"/><stop offset="1" stop-color="#f37329"/></linearGradient><linearGradient y2="27.652" x2="104.747" y1="27.165" x1="80.82" spreadMethod="reflect" gradientTransform="matrix(-.22263 -.3738 .38562 -.21582 26.904 62.125)" gradientUnits="userSpaceOnUse" id="s" xlink:href="#i"/><linearGradient id="i"><stop offset="0" stop-color="#abacae"/><stop offset=".111" stop-color="#7e8087"/><stop offset="1" stop-color="#fafafa"/></linearGradient><linearGradient gradientTransform="translate(0 8)" gradientUnits="userSpaceOnUse" y2="15.044" x2="16.016" y1="1.894" x1="16.016" id="t" xlink:href="#j"/><linearGradient id="j"><stop offset="0" stop-color="#fff"/><stop offset=".405" stop-color="#fff" stop-opacity=".235"/><stop offset=".744" stop-color="#fff" stop-opacity=".157"/><stop offset="1" stop-color="#fff" stop-opacity=".392"/></linearGradient><radialGradient gradientTransform="matrix(.50706 0 0 .50357 -11.196 9.964)" r="4.301" fy="21.218" fx="24.66" cy="21.218" cx="24.66" gradientUnits="userSpaceOnUse" id="u" xlink:href="#k"/><linearGradient id="k"><stop offset="0" stop-color="#fff"/><stop offset="1" stop-color="#9d9d9d"/></linearGradient><linearGradient y2="240.809" x2="195.835" y1="235.838" x1="194.152" gradientTransform="rotate(-3.515 -3483.11 3227.395)" gradientUnits="userSpaceOnUse" id="v" xlink:href="#l"/><linearGradient id="l"><stop offset="0" stop-color="#cfd1d3"/><stop offset="1" stop-color="#cfd1d3" stop-opacity="0"/></linearGradient></defs><path d="M2.4 27h27.2v2H2.4z" fill="url(#m)" opacity=".15" overflow="visible"/><path fill="url(#n)" opacity=".15" overflow="visible" d="M2.4 27v2c-.993.004-2.4-.448-2.4-1s1.108-1 2.4-1z"/><path fill="url(#o)" opacity=".15" overflow="visible" d="M29.6 27v2c.993.004 2.4-.448 2.4-1s-1.108-1-2.4-1z"/><path fill="url(#p)" d="M2 5h28v22H2V5z"/><path stroke-linecap="round" stroke="url(#q)" fill="none" d="M29.5 26.5h-27v-21h27z"/><path stroke-linecap="square" stroke="url(#r)" fill="none" opacity=".5" d="M5.5 26.5h-3v-21h3"/><path stroke-linejoin="round" stroke="#dd9861" fill="none" d="M6 27.5h24.5v-23H6"/><path stroke-linejoin="round" stroke="#dd9861" fill="none" overflow="visible" color="#000" d="M6 27.5H1.5c0-7.093.02-15.35.02-22.868l.048-.093.118-.04H6"/><g transform="translate(9.087 -7.997)"><path d="M4.142 14.886c-.688.276-1.625 2.844.838 6.998 2.325 3.922 4.707 4.733 5.342 4.344.607-.372.85-3.12-1.31-6.515-1.752-2.75-4.182-5.103-4.872-4.827z" fill="#555753" stroke="#555761"/><path d="M10.362 26.155l11.056-6.317c3.26-3.85-2.19-11.928-6.266-11.195L4.07 14.833c4.117 2.005 6.457 7.13 6.292 11.322z" fill="url(#s)" fill-rule="evenodd" stroke="#555761" stroke-linejoin="round"/><path d="M11.55 24.335l9.23-5.11c2.627-3.118-2.227-10.73-5.654-9.64L5.87 14.84c2.606 1.436 5.383 6.137 5.68 9.493z" fill="none" stroke="url(#t)" stroke-width=".936"/><path d="M11.5 15.197V10.85c0-3.185-5-3.12-5 .098v2.448" fill="none" stroke="#555761" stroke-linecap="round"/><ellipse cy="20.649" cx="1.308" transform="matrix(.8684 -.49587 .50414 .86362 0 0)" rx="1.927" ry="1.914" fill="url(#u)" fill-rule="evenodd" stroke="#555761" stroke-width="1.046" stroke-linecap="round"/><path d="M5.25 27.484c-2.854 0-3.75.85-3.75 1.968 0 .808.972 2.02 5.216 2.02h6.99c3.58 0 7.32-.614 7.32-2.013 0-1.354-3.843-1.985-6.925-1.99l-1.207-.005-1.385.02c-2.352-.452-2.088-2.816-2.705-4.718-1.24.83-1.342 1.894-1.857 3.417-.228.548-1.08 1.31-1.696 1.3z" fill="#fcaf3e" fill-rule="evenodd" stroke="#ce5c00" stroke-linejoin="round"/><path overflow="visible" style="line-height:normal;-inkscape-font-specification:'Bitstream Vera Sans';text-indent:0;text-align:start;text-decoration-line:none;text-transform:none" d="M4.228 16.024c-.19.075-.314.255-.317.458-.176 2.477 1.217 5.12 2.89 6.272.228.16.54.105.7-.12.16-.227.104-.54-.12-.698-1.267-.87-2.607-3.374-2.46-5.39.02-.177-.055-.352-.197-.46-.142-.107-.33-.13-.495-.062z" font-family="Bitstream Vera Sans" fill="url(#v)"/><circle overflow="visible" r=".947" cy="3.474" cx="-28.711" transform="rotate(-90)" fill="#fff"/></g></svg>