<svg xmlns="http://www.w3.org/2000/svg" xmlns:xlink="http://www.w3.org/1999/xlink" width="32" height="32"><defs><linearGradient id="a"><stop offset="0" stop-color="#fff"/><stop offset="0" stop-color="#fff" stop-opacity=".235"/><stop offset="1" stop-color="#fff" stop-opacity=".157"/><stop offset="1" stop-color="#fff" stop-opacity=".392"/></linearGradient><linearGradient id="b"><stop offset="0" stop-color="#f4f4f4"/><stop offset="1" stop-color="#dbdbdb"/></linearGradient><linearGradient id="c"><stop offset="0"/><stop offset="1" stop-opacity="0"/></linearGradient><linearGradient id="d"><stop offset="0" stop-opacity="0"/><stop offset=".5"/><stop offset="1" stop-opacity="0"/></linearGradient><linearGradient x1="24.001" y1="6.381" x2="24.001" y2="41.619" id="o" xlink:href="#a" gradientUnits="userSpaceOnUse" gradientTransform="matrix(.72973 0 0 .56757 -1.515 2.378)"/><linearGradient x1="25.132" y1=".985" x2="25.132" y2="47.013" id="n" xlink:href="#b" gradientUnits="userSpaceOnUse" gradientTransform="matrix(.8 0 0 .47802 -3.2 3.794)"/><radialGradient cx="605.714" cy="486.648" r="117.143" fx="605.714" fy="486.648" id="m" xlink:href="#c" gradientUnits="userSpaceOnUse" gradientTransform="matrix(.01928 0 0 .00824 17.982 23.98)"/><radialGradient cx="605.714" cy="486.648" r="117.143" fx="605.714" fy="486.648" id="l" xlink:href="#c" gradientUnits="userSpaceOnUse" gradientTransform="matrix(-.01928 0 0 .00824 14.018 23.98)"/><linearGradient x1="302.857" y1="366.648" x2="302.857" y2="609.505" id="k" xlink:href="#d" gradientUnits="userSpaceOnUse" gradientTransform="matrix(.05633 0 0 .00824 -4.36 23.98)"/><linearGradient x1="9.61" y1="6.395" x2="9.61" y2="41.619" id="p" xlink:href="#e" gradientUnits="userSpaceOnUse" gradientTransform="matrix(.66892 0 0 .56757 -1.18 2.378)"/><linearGradient id="e"><stop offset="0" stop-color="#fff"/><stop offset="0" stop-color="#fff" stop-opacity=".235"/><stop offset="1" stop-color="#fff" stop-opacity=".157"/><stop offset="1" stop-color="#fff" stop-opacity=".392"/></linearGradient><linearGradient id="f"><stop offset="0" stop-color="#aaa"/><stop offset="1" stop-color="#c8c8c8"/></linearGradient><linearGradient id="g"><stop offset="0" stop-opacity=".318"/><stop offset="1" stop-opacity=".24"/></linearGradient><linearGradient id="h"><stop offset="0" stop-color="#ffa154"/><stop offset="1" stop-color="#f37329"/></linearGradient><radialGradient id="q" cx="4.993" cy="43.5" gradientTransform="matrix(2.00378 0 0 1.4 27.988 -17.4)" gradientUnits="userSpaceOnUse" r="2.5" xlink:href="#i"/><linearGradient id="i"><stop offset="0" stop-color="#181818"/><stop offset="1" stop-color="#181818" stop-opacity="0"/></linearGradient><radialGradient id="r" cx="4.993" cy="43.5" gradientTransform="matrix(2.00378 0 0 1.4 -20.012 -104.4)" gradientUnits="userSpaceOnUse" r="2.5" xlink:href="#i"/><linearGradient id="s" gradientUnits="userSpaceOnUse" x1="25.058" x2="25.058" y1="47.028" y2="39.999"><stop offset="0" stop-color="#181818" stop-opacity="0"/><stop offset=".5" stop-color="#181818"/><stop offset="1" stop-color="#181818" stop-opacity="0"/></linearGradient><linearGradient id="t" gradientUnits="userSpaceOnUse" x1="15.608" x2="15.608" y1="2.546" y2="21.532"><stop offset="0" stop-color="#cd9ef7"/><stop offset="1" stop-color="#a56de2"/></linearGradient><linearGradient id="u" gradientUnits="userSpaceOnUse" x1="12.993" x2="14.001" xlink:href="#j" y1="-12.336" y2="20"/><linearGradient id="j"><stop offset="0" stop-color="#fff"/><stop offset=".654" stop-color="#fff" stop-opacity=".235"/><stop offset="1" stop-color="#fff" stop-opacity=".157"/><stop offset="1" stop-color="#fff" stop-opacity=".392"/></linearGradient><linearGradient id="v" gradientUnits="userSpaceOnUse" x1="13.561" x2="13.608" y1="-5.013" y2="21.532"><stop offset="0" stop-color="#f7b19e"/><stop offset="1" stop-color="#e2866d"/></linearGradient><linearGradient id="w" gradientUnits="userSpaceOnUse" x1="11.673" x2="12.001" xlink:href="#j" y1="-7.108" y2="20"/><linearGradient id="x" gradientTransform="matrix(1.38317 0 0 1.41442 -11.892 21.51)" gradientUnits="userSpaceOnUse" x1="13.697" x2="13.3" y1="12.091" y2="29.436"><stop offset="0" stop-color="#aff05f"/><stop offset="1" stop-color="#68b723"/></linearGradient><linearGradient id="y" gradientUnits="userSpaceOnUse" x1="12.674" x2="12.001" xlink:href="#j" y1="1.33" y2="20"/></defs><path d="M2.4 27h27.2v2H2.4z" fill="url(#k)" opacity=".15" overflow="visible"/><path fill="url(#l)" opacity=".15" overflow="visible" d="M2.4 27v2c-.993.004-2.4-.448-2.4-1s1.108-1 2.4-1z"/><path fill="url(#m)" opacity=".15" overflow="visible" d="M29.6 27v2c.993.004 2.4-.448 2.4-1s-1.108-1-2.4-1z"/><path fill="url(#n)" d="M2 5h28v22H2V5z"/><path stroke-linecap="round" stroke="url(#o)" fill="none" d="M29.5 26.5h-27v-21h27z"/><path stroke-linecap="square" stroke="url(#p)" fill="none" opacity=".5" d="M5.5 26.5h-3v-21h3"/><path stroke-linejoin="round" stroke="#dd9861" fill="none" d="M6 27.5h24.5v-23H6"/><path stroke-linejoin="round" stroke="#dd9861" fill="none" overflow="visible" color="#000" d="M6 27.5H1.5c0-7.093.02-15.35.02-22.868l.048-.093.118-.04H6"/><g><g opacity=".4"><path d="M38 40h5v7h-5z" fill="url(#q)" transform="matrix(.8331 0 0 .42857 .022 12.857)"/><path transform="matrix(-.8331 0 0 -.42857 .022 12.857)" d="M-10-47h5v7h-5z" fill="url(#r)"/><path d="M10 40h28v7H10z" fill="url(#s)" transform="matrix(.8331 0 0 .42857 .022 12.857)"/></g><g transform="translate(-1.012 10)"><rect y="-5.513" x="17.48" width="6.02" rx="1" height="27.013" fill="url(#t)"/><g fill="none" stroke-linecap="round" stroke-linejoin="round"><path d="M18.48-4.508h4.02V20.5h-4.02z" opacity=".5" stroke="url(#u)"/><rect y="-5.492" x="17.508" width="5.992" rx="1" height="26.992" opacity=".5" stroke="#7239b3"/></g></g><g transform="translate(10.012 10)"><rect y="-.483" x="15.446" width="6.054" rx="1" height="21.983" fill="url(#v)"/><g fill="none" stroke-linecap="round" stroke-linejoin="round"><path d="M16.49.485h4.01V20.5h-4.01z" opacity=".5" stroke="url(#w)"/><rect y="-.489" x="15.488" width="6.012" rx="1" height="21.989" opacity=".5" stroke="#b35039"/></g></g><g transform="translate(-8 10)"><rect y="3.587" x="15.471" width="6.029" rx="1" height="17.913" fill="url(#x)"/><g fill="none" stroke-linecap="round" stroke-linejoin="round"><path d="M16.502 4.506h4V20.5h-4z" opacity=".5" stroke="url(#y)"/><rect y="3.503" x="15.498" width="6.002" rx="1" height="17.997" opacity=".5" stroke="#7bb339"/></g></g></g></svg>