<svg xmlns="http://www.w3.org/2000/svg" xmlns:xlink="http://www.w3.org/1999/xlink" height="32" viewBox="0 0 8.4666665 8.4666668" width="32"><defs><linearGradient xlink:href="#a" id="j" gradientUnits="userSpaceOnUse" gradientTransform="matrix(.11794 0 0 .11905 .212 290.644)" x1="25.132" y1="15.5" x2="25.132" y2="48.396"/><linearGradient xlink:href="#b" id="k" gradientUnits="userSpaceOnUse" gradientTransform="matrix(.1347 0 0 .14642 -.198 290.374)" x1="24" y1="5" x2="24" y2="43"/><linearGradient xlink:href="#c" id="l" gradientUnits="userSpaceOnUse" gradientTransform="matrix(.1323 0 0 .06615 -.265 291.444)" x1="23.954" y1="15.999" x2="23.954" y2="19.963"/><linearGradient xlink:href="#d" id="m" gradientUnits="userSpaceOnUse" gradientTransform="matrix(.27447 0 0 .28068 -.113 290.553)" x1="8.295" y1="-4.284" x2="8.295" y2="16.85"/><linearGradient xlink:href="#b" id="n" gradientUnits="userSpaceOnUse" gradientTransform="matrix(.27278 0 0 .3079 -.107 290.402)" x1="11.001" y1="2.269" x2="11.001" y2="19.728"/><linearGradient gradientTransform="matrix(0 -.1895 .20348 0 -5.775 9.524)" gradientUnits="userSpaceOnUse" xlink:href="#e" id="q" y2="46.971" x2="18.681" y1="46.971" x1="40.958"/><linearGradient id="e"><stop offset="0" stop-color="#fff"/><stop offset=".45" stop-color="#fff" stop-opacity=".235"/><stop offset=".65" stop-color="#fff" stop-opacity=".157"/><stop offset="1" stop-color="#fff" stop-opacity=".392"/></linearGradient><linearGradient gradientUnits="userSpaceOnUse" y2="17.211" x2="17.151" y1="5.88" x1="17.151" id="p" xlink:href="#f" gradientTransform="matrix(-.35277 0 0 .35277 11.863 -.306)"/><linearGradient id="f" gradientTransform="matrix(.4922 0 0 .4584 4.51 11.206)" gradientUnits="userSpaceOnUse" x1="23.732" x2="23.732" y1="5.394" y2="39.735"><stop offset="0" stop-color="#90dbec"/><stop offset=".262" stop-color="#55c1ec"/><stop offset=".705" stop-color="#3689e6"/><stop offset="1" stop-color="#2b63a0"/></linearGradient><radialGradient gradientTransform="matrix(.0974 0 0 -.1043 3.282 8.45)" gradientUnits="userSpaceOnUse" xlink:href="#g" id="o" fy="36.421" fx="24.837" r="15.645" cy="36.421" cx="24.837"/><linearGradient id="g"><stop offset="0"/><stop offset="1" stop-opacity="0"/></linearGradient></defs><linearGradient id="i" gradientTransform="matrix(.2728 0 0 .308 -.107 290.402)" gradientUnits="userSpaceOnUse" x1="11.001" x2="11.001" xlink:href="#b" y1="2.269" y2="19.728"/><linearGradient id="b"><stop offset="0" stop-color="#fff"/><stop offset=".063" stop-color="#fff" stop-opacity=".235"/><stop offset=".951" stop-color="#fff" stop-opacity=".157"/><stop offset="1" stop-color="#fff" stop-opacity=".392"/></linearGradient><linearGradient id="d" gradientTransform="matrix(.2745 0 0 .2807 -.113 290.553)" gradientUnits="userSpaceOnUse" x1="8.295" x2="8.295" y1="-4.284" y2="16.85"><stop offset="0" stop-color="#cdf87e"/><stop offset=".262" stop-color="#a2e34f"/><stop offset=".661" stop-color="#68b723"/><stop offset="1" stop-color="#1d7e0d"/></linearGradient><linearGradient id="c" gradientTransform="matrix(.1323 0 0 .066 -.265 291.444)" gradientUnits="userSpaceOnUse" x1="23.954" x2="23.954" y1="15.999" y2="19.963"><stop offset="0"/><stop offset="1" stop-opacity="0"/></linearGradient><linearGradient id="h" gradientTransform="matrix(.1347 0 0 .1464 -.198 290.374)" gradientUnits="userSpaceOnUse" x1="24" x2="24" xlink:href="#b" y1="5" y2="43"/><linearGradient id="a" gradientTransform="matrix(.118 0 0 .119 .212 290.644)" gradientUnits="userSpaceOnUse" x1="25.132" x2="25.132" y1="15.5" y2="48.396"><stop offset="0" stop-color="#fafafa"/><stop offset="1" stop-color="#e2e1de"/></linearGradient><g transform="matrix(1.3333 0 0 1.3333 -2.47 -387.532)"><rect height="5.556" rx=".198" width="1.19" x="4.432" y="291.047" fill="url(#a)"/><path d="M4.54 291.174l.986.006v5.336l-.986-.006z" fill="none" stroke="url(#h)" stroke-width=".201" stroke-linecap="round" stroke-linejoin="round"/><path d="M4.24 292.44l1.58-.004v.198l-1.58.003z" opacity=".15" fill="url(#c)"/><path d="M4.338 292.243l-.005 4.143c0 .152.155.318.307.317l.77-.003c.152 0 .307-.166.308-.318l.004-4.145" opacity=".3" fill="none" stroke="#000" stroke-width=".201"/><path d="M4.233 293.23v.198zm.2 0h1.19v.198h-1.19zm-.2 1.19v.2zm.2 0h1.19v.2h-1.19zm-.2 1.19v.2zm.2 0h1.19v.2h-1.19z" opacity=".321"/><path d="M4.566 290.947c-.158 0-.226.17-.226.33v.964l1.38-.002v-.963c0-.162-.118-.322-.276-.322z" fill="url(#d)"/><path d="M4.654 290.95c-.152 0-.316.185-.316.337v1.048H5.72v-1.054c0-.15-.143-.33-.295-.33z" opacity=".4" fill="none" stroke="#126400" stroke-width=".201" stroke-linecap="round"/><path d="M4.534 291.143l.002 1.002 1 .007v-1.002z" opacity=".5" fill="none" stroke="url(#i)" stroke-width=".201" stroke-linecap="round" stroke-linejoin="round"/></g><g transform="matrix(1.3333 0 0 1.3333 -4.85 -387.532)"><rect y="291.047" x="4.432" width=".992" rx=".198" height="5.556" fill="url(#j)"/><path d="M4.54 291.174l.796-.02v5.337l-.796.02z" fill="none" stroke="url(#k)" stroke-width=".201" stroke-linecap="round" stroke-linejoin="round"/><path d="M4.24 292.44l1.184-.004v.198l-1.184.003z" opacity=".15" fill="url(#l)"/><path d="M4.338 292.243l-.005 4.143c0 .152.155.318.307.317l.77-.003" opacity=".3" fill="none" stroke="#000" stroke-width=".201"/><path d="M4.233 293.23v.198zm.2 0h.99v.197h-.99zm-.2 1.19v.2zm.2 0h.99v.2h-.99zm-.2 1.19v.2zm.2 0h.99v.2h-.99z" opacity=".321"/><path d="M4.566 290.947c-.158 0-.226.17-.226.33v.964l1.084-.003v-1.288z" fill="url(#m)"/><path d="M5.323 290.95h-.67c-.15 0-.315.185-.315.337v1.048h.985z" opacity=".4" fill="none" stroke="#126400" stroke-width=".20101971999999999" stroke-linecap="round"/><path d="M4.534 291.143l.002 1.002.8.012v-1.002z" opacity=".5" fill="none" stroke="url(#n)" stroke-width=".201" stroke-linecap="round" stroke-linejoin="round"/></g><path overflow="visible" d="M7.224 4.56c0-2.178-3.045-2.178-3.046 0 0 .9.68 1.72 1.522 1.72.84 0 1.524-.82 1.524-1.72z" opacity=".141" fill="url(#o)" fill-rule="evenodd" transform="translate(0 2.646)"/><path overflow="visible" display="block" d="M5.69 5.68l2.434-1.977L5.69 1.76v1.286H3.57l.002 1.322H5.69z" color="#000" fill="url(#p)" transform="translate(0 2.646)"/><path stroke-miterlimit="7" overflow="visible" display="block" d="M6.043 4.936L7.57 3.703 6.043 2.49v.91H3.925v.615h2.118z" color="#000" opacity=".401" fill="none" stroke="url(#q)" stroke-width=".265" transform="translate(0 2.646)"/><path overflow="visible" d="M5.69 8.326L8.124 6.35 5.69 4.404v1.287H3.57l.002 1.322H5.69z" style="isolation:auto;mix-blend-mode:normal" color="#000" opacity=".5" solid-color="#000000" fill="none" stroke="#004372" stroke-width=".265" stroke-linejoin="round"/></svg>