<svg xmlns="http://www.w3.org/2000/svg" xmlns:xlink="http://www.w3.org/1999/xlink" height="32" viewBox="0 0 8.4666665 8.4666668" width="32"><defs><linearGradient id="c"><stop offset="0"/><stop offset="1" stop-opacity="0"/></linearGradient><linearGradient gradientTransform="matrix(0 -.1895 -.2035 0 17.418 9.524)" gradientUnits="userSpaceOnUse" xlink:href="#a" id="i" y2="63.491" x2="30.71" y1="49.189" x1="30.71"/><linearGradient id="a"><stop offset="0" stop-color="#fff"/><stop offset=".273" stop-color="#fff" stop-opacity=".235"/><stop offset=".818" stop-color="#fff" stop-opacity=".157"/><stop offset="1" stop-color="#fff" stop-opacity=".392"/></linearGradient><linearGradient gradientUnits="userSpaceOnUse" y2="11.368" x2="11.875" y1="11.368" x1="22.375" id="h" xlink:href="#b" gradientTransform="translate(-.22 -.306) scale(.3528)"/><linearGradient id="b"><stop offset="0" stop-color="#cd9ef7"/><stop offset="1" stop-color="#a56de2"/></linearGradient><radialGradient gradientTransform="matrix(-.0974 0 0 -.1044 8.36 8.45)" gradientUnits="userSpaceOnUse" xlink:href="#c" id="g" fy="36.421" fx="24.837" r="15.645" cy="36.421" cx="24.837"/></defs><linearGradient id="d"><stop offset="0" stop-color="#fff"/><stop offset=".063" stop-color="#fff" stop-opacity=".235"/><stop offset=".951" stop-color="#fff" stop-opacity=".157"/><stop offset="1" stop-color="#fff" stop-opacity=".392"/></linearGradient><linearGradient id="f" gradientTransform="matrix(.1796 0 0 .1952 -.087 -.368)" gradientUnits="userSpaceOnUse" x1="24" x2="24" xlink:href="#d" y1="5" y2="43"/><linearGradient id="e" gradientTransform="matrix(.5946 0 0 .5997 1.738 -.03)" gradientUnits="userSpaceOnUse" x1="25.132" x2="25.132" y1="15.5" y2="48.396"><stop offset="0" stop-color="#fafafa"/><stop offset="1" stop-color="#e2e1de"/></linearGradient><path d="M4.007 7c-.553 0-.998.445-.998.998V11h26V7.998c0-.553-.446-.998-1-.998H4.008zM3 13v5.002c0 .553.445.998.998.998h24.004c.553 0 .998-.445.998-.998V13z" transform="scale(.2646)" fill="url(#e)"/><path d="M.532 1.587V2.91h.264V1.587zm.264.265H4.5v-.264H.798zm6.88-.265H4.5v.265h3.173V2.91h.264V1.587h-.264zm-5.293.266V2.91h.267V1.853zm1.853 0V2.91h.267V1.853zm1.853 0V2.91h.265V1.853zM.53 3.44v1.852h.264V3.44zm.266 0v.263H2.38l.002 1.324v.266h1.852v-.266H2.648l-.002-1.323H4.23v1.588h.27v.002h3.173v-.002h.264V3.44zm1.586 1.587H.796v.267h1.586zM4.5 3.704h1.586v1.323H4.5zm1.853 0h1.32v1.323h-1.32z" opacity=".321"/><path d="M.932 1.985h6.623l.015 2.91H.925z" fill="none" stroke="url(#f)" stroke-width=".268" stroke-linecap="round" stroke-linejoin="round"/><path overflow="visible" d="M4.418 4.56c0-2.178 3.046-2.178 3.047 0 0 .9-.68 1.72-1.522 1.72-.84 0-1.524-.82-1.524-1.72z" transform="rotate(-90 7.144 4.763)" opacity=".141" fill="url(#g)" fill-rule="evenodd"/><path overflow="visible" display="block" d="M5.953 5.68L3.52 3.705 5.952 1.76v1.286H8.07v1.322H5.95z" transform="rotate(-90 7.144 4.763)" color="#000" fill="url(#h)"/><path stroke-miterlimit="7" overflow="visible" display="block" d="M5.6 4.936L4.07 3.704 5.6 2.49v.908h2.117v.617H5.6z" transform="rotate(-90 7.144 4.763)" color="#000" opacity=".401" fill="none" stroke="url(#i)" stroke-width=".265"/><path overflow="visible" d="M8.062 5.954L6.085 8.388 4.14 5.954h1.287V3.837H6.75v2.118z" style="isolation:auto;mix-blend-mode:normal" color="#000" opacity=".5" solid-color="#000000" fill="none" stroke="#7239b3" stroke-width=".265" stroke-linejoin="round"/></svg>