<?xml version="1.0" encoding="UTF-8" standalone="no"?>
<svg
   xmlns:dc="http://purl.org/dc/elements/1.1/"
   xmlns:cc="http://creativecommons.org/ns#"
   xmlns:rdf="http://www.w3.org/1999/02/22-rdf-syntax-ns#"
   xmlns:svg="http://www.w3.org/2000/svg"
   xmlns="http://www.w3.org/2000/svg"
   xmlns:xlink="http://www.w3.org/1999/xlink"
   xmlns:sodipodi="http://sodipodi.sourceforge.net/DTD/sodipodi-0.dtd"
   xmlns:inkscape="http://www.inkscape.org/namespaces/inkscape"
   height="32"
   width="32"
   version="1.1"
   id="svg38"
   sodipodi:docname="drawcaption.svg"
   inkscape:version="0.92.4 (unknown)"
   inkscape:export-filename="/home/rizmut/Dokumen/Rizmut/Github/libreoffice-style-elementary/images_elementary/cmd/32/drawcaption.png"
   inkscape:export-xdpi="96"
   inkscape:export-ydpi="96">
  <metadata
     id="metadata44">
    <rdf:RDF>
      <cc:Work
         rdf:about="">
        <dc:format>image/svg+xml</dc:format>
        <dc:type
           rdf:resource="http://purl.org/dc/dcmitype/StillImage" />
      </cc:Work>
    </rdf:RDF>
  </metadata>
  <defs
     id="defs42">
    <linearGradient
       gradientTransform="matrix(1,0,0,-1,3.999875,27.005006)"
       id="h"
       gradientUnits="userSpaceOnUse"
       x1="19"
       x2="19"
       y1="30"
       y2="0">
      <stop
         offset="0"
         stop-color="#aaa"
         id="stop1134" />
      <stop
         offset="1"
         stop-color="#c8c8c8"
         id="stop1136" />
    </linearGradient>
    <radialGradient
       id="d-3"
       cx="605.71429"
       cy="486.64789"
       gradientTransform="matrix(0.01566318,0,0,-0.00823529,16.560422,6.019411)"
       gradientUnits="userSpaceOnUse"
       r="117.14286"
       xlink:href="#a-6" />
    <linearGradient
       id="a-6">
      <stop
         offset="0"
         id="stop1743" />
      <stop
         offset="1"
         stop-opacity="0"
         id="stop1745" />
    </linearGradient>
    <radialGradient
       id="e"
       cx="605.71429"
       cy="486.64789"
       gradientTransform="matrix(-0.01566318,0,0,-0.00823529,20.339555,6.019387)"
       gradientUnits="userSpaceOnUse"
       r="117.14286"
       xlink:href="#a-6" />
    <linearGradient
       id="f"
       gradientTransform="matrix(0.04576928,0,0,-0.00823529,-0.592335,6.019428)"
       gradientUnits="userSpaceOnUse"
       x1="302.85715"
       x2="302.85715"
       y1="366.64789"
       y2="609.50507">
      <stop
         offset="0"
         stop-opacity="0"
         id="stop1764" />
      <stop
         offset=".5"
         id="stop1766" />
      <stop
         offset="1"
         stop-opacity="0"
         id="stop1768" />
    </linearGradient>
  </defs>
  <sodipodi:namedview
     pagecolor="#ffffff"
     bordercolor="#666666"
     borderopacity="1"
     objecttolerance="10"
     gridtolerance="10"
     guidetolerance="10"
     inkscape:pageopacity="0"
     inkscape:pageshadow="2"
     inkscape:window-width="1366"
     inkscape:window-height="714"
     id="namedview40"
     showgrid="true"
     inkscape:zoom="10.429825"
     inkscape:cx="23.934789"
     inkscape:cy="8.9177861"
     inkscape:window-x="0"
     inkscape:window-y="28"
     inkscape:window-maximized="1"
     inkscape:current-layer="g859">
    <inkscape:grid
       type="xygrid"
       id="grid851" />
  </sodipodi:namedview>
  <linearGradient
     id="a"
     gradientTransform="matrix(0.53064141,0,0,0.58970049,39.269607,-1.791918)"
     gradientUnits="userSpaceOnUse"
     x1="5"
     x2="4.63863"
     y1="27"
     y2="5.861876">
    <stop
       offset="0"
       stop-opacity=".317829"
       id="stop2" />
    <stop
       offset="1"
       stop-opacity=".24031"
       id="stop4" />
  </linearGradient>
  <linearGradient
     id="b"
     gradientTransform="matrix(0.56756757,0,0,0.72972971,2.378382,-2.513506)"
     gradientUnits="userSpaceOnUse"
     x1="31.047613"
     x2="31.047613"
     y1="34.962955"
     y2="11.666656">
    <stop
       offset="0"
       stop-color="#fff"
       id="stop7" />
    <stop
       offset=".03626217"
       stop-color="#fff"
       stop-opacity=".235294"
       id="stop9" />
    <stop
       offset=".95056331"
       stop-color="#fff"
       stop-opacity=".156863"
       id="stop11" />
    <stop
       offset="1"
       stop-color="#fff"
       stop-opacity=".392157"
       id="stop13" />
  </linearGradient>
  <linearGradient
     id="c"
     gradientTransform="matrix(0.62856997,0,0,0.60839392,-41.164737,-20.534791)"
     gradientUnits="userSpaceOnUse"
     x1="97.307762"
     x2="97.307762"
     y1="73.200584"
     y2="41.970818">
    <stop
       offset="0"
       stop-color="#f4f4f4"
       id="stop16" />
    <stop
       offset="1"
       stop-color="#dbdbdb"
       id="stop18" />
  </linearGradient>
  <radialGradient
     id="d"
     cx="2.25"
     cy="16"
     gradientTransform="matrix(.33947 0 0 .0828 5.28 28.227)"
     gradientUnits="userSpaceOnUse"
     r="16.875">
    <stop
       offset="0"
       id="stop21" />
    <stop
       offset="1"
       stop-opacity="0"
       id="stop23" />
  </radialGradient>
  <g
     id="g859"
     transform="matrix(1,0,0,-1,0,32)">
    <path
       id="path28"
       d="m 12.396,4.665 -0.018,19.97 16.334,-0.03 0.018,-19.97 z m -5.084,9.637 c -0.94,4.81 -1.913,9.613 -2.875,14.417 l -0.04,0.25 h 2.667 c 0.872,-3.895 1.48,-7.85 2.34,-11.748 0.053,-0.25 3.27,0.03 3.596,-0.222 0.952,-0.733 -0.316,-2.007 -0.125,-2.727 z"
       style="fill:url(#c)"
       inkscape:connector-curvature="0" />
    <path
       id="path30"
       d="M 13.496,5.53 27.523,5.486 27.505,23.552 13.508,23.556 Z"
       style="fill:none;stroke:url(#b)"
       inkscape:connector-curvature="0" />
    <path
       id="path34"
       d="M 12,4 V 14 H 7 L 6.896,14.54 4.02,28.592 v 0.013 L 3.847,29.64 7.443,29.623 7.561,29.103 9.884,18 H 12 l -0.018,7 H 29 V 4 Z M 13,5.03 28,5 l 0.045,18.94 -15,0.03 0.018,-7 h -2.89 l 0.002,-0.01 H 8.828 L 6.518,28.302 H 5.202 L 7.86,14.97 l 5.203,0.015 z"
       style="fill:url(#a)"
       inkscape:connector-curvature="0" />
    <path
       id="path36"
       d="m 9.13,15.95 3.933,0.02 v 1 L 8.828,16.96 Z"
       inkscape:connector-curvature="0"
       style="fill:#fdfdfb"
       sodipodi:nodetypes="ccccc" />
    <path
       inkscape:connector-curvature="0"
       style="stroke:url(#h)"
       d="m 15,21.5 h 1.343625 z m 1.687375,0 h 2.1875 z m 2.53125,0 h 1.9375 z m 2.25,0 h 0.84375 z m 1.1875,0 h 1.875 z M 15,19.5 h 2.656125 z m 3.062375,0 h 1.75 z m 2.0625,0 h 0.875 z m 1.21875,0 h 1.59375 z m 1.9375,0 h 1.625 z M 15,17.505005 h 3.281125 z m 3.624875,0 h 4.625 z m 4.9375,0 h 1.84375 z m -8.562375,-2 h 1.59375 z m 1.093625,0 h 5.90625 z M 15,12.467762 h 2.093625 z m 2.406125,0 h 5.0625 z m 5.375,0 h 2.46875 z M 15,10.505005 h 1.343625 z m 1.687375,0 h 2.15625 z m 2.53125,0 h 1.9375 z m 2.25,0 h 0.84375 z m 1.1875,0 h 1.875 z M 15,8.429663 h 3.281125 z m 3.624875,0 h 4.625 z m 4.9375,0 h 1.84375 z"
       id="path1156"
       sodipodi:nodetypes="cccccccccccccccccccccccccccccccccccccccccccccccccccccccccccccccccccccccccccccc" />
    <g
       id="g2421"
       transform="translate(2,2)">
      <path
         id="path1786"
         d="M 11,3 H 26 V 1 H 11 Z"
         style="opacity:0.15;fill:url(#f)"
         inkscape:connector-curvature="0"
         sodipodi:nodetypes="ccccc" />
      <path
         id="path1788"
         d="M 11,2.99989 V 1 C 10.193385,0.9962 8.9499757,1.44805 8.9499757,2.00005 c 0,0.552 1.000143,0.99984 2.0500243,0.99984 z"
         style="opacity:0.15;fill:url(#e)"
         inkscape:connector-curvature="0"
         sodipodi:nodetypes="ccsc" />
      <path
         id="path1790"
         d="M 26,2.99989 V 1 c 0.806614,-0.0038 1.950002,0.448074 1.950002,1.000074 0,0.552 -0.900122,0.999816 -1.950002,0.999816 z"
         style="opacity:0.15;fill:url(#d-3)"
         inkscape:connector-curvature="0"
         sodipodi:nodetypes="ccsc" />
    </g>
  </g>
</svg>
