<svg xmlns="http://www.w3.org/2000/svg" xmlns:xlink="http://www.w3.org/1999/xlink" height="32" width="32"><defs><linearGradient x1="103.95" y1="-7.666" x2="89.424" y2="-7.666" id="m" xlink:href="#a" gradientUnits="userSpaceOnUse" gradientTransform="matrix(.25764 0 0 .256 -18.787 32.336)" spreadMethod="reflect"/><linearGradient id="a"><stop offset="0" stop-color="#868688"/><stop offset="1" stop-color="#d9d9da"/></linearGradient><linearGradient x1="89.018" y1="22.537" x2="89.018" y2="27.546" id="n" xlink:href="#b" gradientUnits="userSpaceOnUse" gradientTransform="matrix(.56273 0 0 .59218 -44.99 15.484)"/><linearGradient id="b"><stop offset="0" stop-color="#a0a0a0"/><stop offset="1" stop-color="#4a4a4a"/></linearGradient><linearGradient x1="103.95" y1="-7.666" x2="89.424" y2="-7.666" id="o" xlink:href="#a" gradientUnits="userSpaceOnUse" gradientTransform="matrix(.25764 0 0 .256 -18.787 28.336)" spreadMethod="reflect"/><linearGradient x1="89.018" y1="22.537" x2="89.018" y2="27.546" id="p" xlink:href="#b" gradientUnits="userSpaceOnUse" gradientTransform="matrix(.56273 0 0 .59218 -44.99 11.484)"/><linearGradient x1="103.95" y1="-7.666" x2="89.424" y2="-7.666" id="q" xlink:href="#a" gradientUnits="userSpaceOnUse" gradientTransform="matrix(.25764 0 0 .252 -18.787 24.39)" spreadMethod="reflect"/><linearGradient x1="89.018" y1="22.537" x2="89.018" y2="27.546" id="r" xlink:href="#b" gradientUnits="userSpaceOnUse" gradientTransform="matrix(.56273 0 0 .58293 -44.99 7.8)"/><linearGradient x1="102.308" y1="-2.393" x2="102.308" y2="-24.582" id="s" xlink:href="#c" gradientUnits="userSpaceOnUse" gradientTransform="matrix(.25894 0 0 .19506 -18.915 21.137)" spreadMethod="reflect"/><linearGradient id="c"><stop offset="0" stop-color="#a5a6a8"/><stop offset="1" stop-color="#e8e8e8"/></linearGradient><linearGradient x1="109.956" y1="-24.911" x2="109.956" y2="-2.376" id="t" xlink:href="#d" gradientUnits="userSpaceOnUse" gradientTransform="matrix(.25894 0 0 .19506 -18.915 21.137)"/><linearGradient id="d"><stop offset="0" stop-color="#b3b3b3"/><stop offset="1" stop-color="#dadada"/></linearGradient><linearGradient x1="21.381" y1="5.052" x2="21.381" y2="44.137" id="u" xlink:href="#e" gradientUnits="userSpaceOnUse" gradientTransform="matrix(.3143 0 0 .3421 .457 15.618)"/><linearGradient id="e"><stop offset="0" stop-color="#fff"/><stop offset=".081" stop-color="#fff" stop-opacity=".235"/><stop offset=".923" stop-color="#fff" stop-opacity=".157"/><stop offset="1" stop-color="#fff" stop-opacity=".392"/></linearGradient></defs><linearGradient id="f"><stop offset="0"/><stop offset="1" stop-opacity="0"/></linearGradient><linearGradient id="k" gradientTransform="matrix(.56757 0 0 .72973 2.378 -2.514)" gradientUnits="userSpaceOnUse" x1="24" x2="24" y1="5.564" y2="43"><stop offset="0" stop-color="#fff"/><stop offset=".036" stop-color="#fff" stop-opacity=".235"/><stop offset=".951" stop-color="#fff" stop-opacity=".157"/><stop offset="1" stop-color="#fff" stop-opacity=".392"/></linearGradient><linearGradient id="j" gradientTransform="matrix(.62857 0 0 .6084 .914 -.535)" gradientUnits="userSpaceOnUse" x1="25.132" x2="25.132" y1=".985" y2="47.013"><stop offset="0" stop-color="#f4f4f4"/><stop offset="1" stop-color="#dbdbdb"/></linearGradient><radialGradient id="i" cx="605.714" cy="486.648" gradientTransform="matrix(.01566 0 0 .00824 17.61 25.98)" gradientUnits="userSpaceOnUse" r="117.143" xlink:href="#f"/><radialGradient id="h" cx="605.714" cy="486.648" gradientTransform="matrix(-.01566 0 0 .00824 14.39 25.98)" gradientUnits="userSpaceOnUse" r="117.143" xlink:href="#f"/><linearGradient id="g" gradientTransform="matrix(.04577 0 0 .00824 -.542 25.98)" gradientUnits="userSpaceOnUse" x1="302.857" x2="302.857" y1="366.648" y2="609.505"><stop offset="0" stop-opacity="0"/><stop offset=".5"/><stop offset="1" stop-opacity="0"/></linearGradient><linearGradient id="l" gradientTransform="matrix(.53064 0 0 .5897 39.27 -1.792)" gradientUnits="userSpaceOnUse" x1="-51.786" x2="-51.786" y1="50.786" y2="2.906"><stop offset="0" stop-opacity=".318"/><stop offset="1" stop-opacity=".24"/></linearGradient><path d="M4.95 29h22.1v2H4.95z" fill="url(#g)" opacity=".15"/><path d="M4.95 29v2c-.807.004-1.95-.448-1.95-1s.9-1 1.95-1z" fill="url(#h)" opacity=".15"/><path d="M27.05 29v2c.807.004 1.95-.448 1.95-1s-.9-1-1.95-1z" fill="url(#i)" opacity=".15"/><path d="M5 1l22 .002V29H5V1z" fill="url(#j)"/><g fill="none" stroke-linejoin="round"><path d="M26.5 28.5h-21v-27h21z" stroke="url(#k)" stroke-linecap="round"/><path d="M4.5.5l23 .002V29.5h-23V.5z" stroke="url(#l)"/></g><g transform="translate(11 -4)" opacity=".6"><path d="M14.46 29.5c0 1.2-2.898 2-6.467 2-3.57 0-6.468-.8-6.468-2 0-4.634-.79-3.195 6.468-3.25 7.424-.056 6.467-1.41 6.467 3.25z" fill="url(#m)" stroke="url(#n)"/><path d="M14.5 26.5c0 1.105-2.91 2-6.5 2s-6.5-.895-6.5-2 2.91-2 6.5-2 6.5.895 6.5 2z" fill="none" stroke="#d8d8d8"/><path d="M14.46 25.5c0 1.157-2.898 2-6.467 2-3.57 0-6.468-.8-6.468-2 0-4.634-.79-3.195 6.468-3.25 7.424-.056 6.467-1.41 6.467 3.25z" fill="url(#o)" stroke="url(#p)"/><path d="M14.5 22.5c0 1.105-2.91 2-6.5 2s-6.5-.895-6.5-2 2.91-2 6.5-2 6.5.895 6.5 2z" fill="none" stroke="#d8d8d8"/><path d="M14.46 21.5c0 1.218-2.898 2-6.467 2-3.57 0-6.468-.95-6.468-2 0-4.344-.79-3.046 6.468-3.1 7.424-.056 6.467-.83 6.467 3.1z" fill="url(#q)" stroke="url(#r)"/><path d="M14.5 18.5c0 1.105-2.91 2-6.5 2s-6.5-.895-6.5-2 2.91-2 6.5-2 6.5.895 6.5 2z" fill="url(#s)" stroke="url(#t)"/><rect width="11" height="13" rx="17.5" ry="1.5" x="2.5" y="17.5" color="#000" overflow="visible" opacity=".5" fill="none" stroke="url(#u)"/></g></svg>