<svg height="32" width="32" xmlns="http://www.w3.org/2000/svg" xmlns:xlink="http://www.w3.org/1999/xlink"><linearGradient id="a" gradientTransform="matrix(.56756757 0 0 .72972971 2.378382 -2.513506)" gradientUnits="userSpaceOnUse" x1="8.142803" x2="45.142803" y1="25.372807" y2="25.372807"><stop offset="0" stop-color="#fff"/><stop offset=".5028311" stop-color="#fff" stop-opacity=".235294"/><stop offset=".95056331" stop-color="#fff" stop-opacity=".156863"/><stop offset="1" stop-color="#fff" stop-opacity=".392157"/></linearGradient><linearGradient id="b" gradientTransform="matrix(.62856997 0 0 .60839392 .914293 -.533001)" gradientUnits="userSpaceOnUse" x1="9.681744" x2="38.318172" y1="30.468048" y2="28.824377"><stop offset="0" stop-color="#f4f4f4"/><stop offset="1" stop-color="#dbdbdb"/></linearGradient><linearGradient id="c" gradientTransform="matrix(.53064141 0 0 .58970049 39.269607 -1.791918)" gradientUnits="userSpaceOnUse" x1="-25.006783" x2="-60.812508" y1="30.174137" y2="30.174137"><stop offset="0" stop-opacity=".317829"/><stop offset="1" stop-opacity=".24031"/></linearGradient><linearGradient id="d" gradientTransform="matrix(0 -.39571558 .42801014 0 6.403311 30.903618)" gradientUnits="userSpaceOnUse" x1="38.940514" x2="20.576487" y1="15.991243" y2="15.991243"><stop offset="0" stop-color="#fff"/><stop offset=".51153916" stop-color="#fff" stop-opacity=".235294"/><stop offset=".58522105" stop-color="#fff" stop-opacity=".156863"/><stop offset="1" stop-color="#fff" stop-opacity=".392157"/></linearGradient><linearGradient id="e" gradientTransform="matrix(.39222363 0 0 -.36562471 4.827819 25.163568)" gradientUnits="userSpaceOnUse" x1="27.974298" x2="27.974298" y1="36.127529" y2="-1.183923"><stop offset="0" stop-color="#90dbec"/><stop offset=".25" stop-color="#55c1ec"/><stop offset=".62520313" stop-color="#3689e6"/><stop offset="1" stop-color="#2b63a0"/></linearGradient><radialGradient id="f" cx="24.837126" cy="36.421127" gradientTransform="matrix(-.38351555 0 0 -.25567694 22.275669 31.384178)" gradientUnits="userSpaceOnUse" r="15.644737"><stop offset="0"/><stop offset="1" stop-opacity="0"/></radialGradient><linearGradient id="g" gradientUnits="userSpaceOnUse" x1="12.332248" x2="11.332248" y1="16.517551" y2="8.517552"><stop offset="0" stop-color="#185f9a"/><stop offset="1" stop-color="#599ec9"/></linearGradient><g transform="matrix(0 1 -1 0 30.000017 -5.000001)"><path d="m7.999973 4.001785c5.041316 0 18.999973.00179 18.999973.00179l.000027 24.998214h-19v-24.9999999z" fill="url(#b)"/><g fill="none" stroke-linejoin="round"><path d="m7.499961 3.4999399c5.27048 0 20.000054.002 20.000054.002l.000024 25.9981161h-20.000078v-25.9999601z" stroke="url(#c)" stroke-width=".999922"/><path d="m26.5 28.5h-18v-24.0000041h18z" stroke="url(#a)" stroke-linecap="round"/></g></g><g transform="matrix(0 1 -1 0 35.001785 2.000027)"><path d="m7.999973 4.001785c5.041316 0 18.999973.00179 18.999973.00179l.000027 24.998214h-19v-24.9999999z" fill="url(#b)"/><g fill="none" stroke-linejoin="round"><path d="m7.499961 3.4999399c5.27048 0 20.000054.002 20.000054.002l.000024 25.9981161h-20.000078v-25.9999601z" stroke="url(#c)" stroke-width=".999922"/><path d="m26.5 28.5h-18v-24.0000041h18z" stroke="url(#a)" stroke-linecap="round"/></g></g><g transform="translate(-6.332249 3.546391)"><path d="m6.750245 22.072131a6 4.0000002 0 1 1 12 0 6 4.0000002 0 0 1 -12 0z" fill="url(#f)" fill-rule="evenodd" opacity=".141176"/><path d="m10.832248 11.017552c-4.9802216 3.367056-2.0511186 9.550728 3.5 9.5v3.000485l7-5-7-5v2.976351c-3.580248.139062-5.5595156-3.12742-3-5.476836z" display="block" fill="url(#e)"/><g fill="none"><path d="m9.8755864 12.759279c-1.756852 2.058862-.225017 7.434574 5.3950626 6.699241l.0616 2.197396 4.369328-3.137879-4.369328-3.064428v2.059765c-6.1674416.329165-5.9814876-3.921804-5.4566616-4.754095z" display="block" opacity=".8" stroke="url(#d)" stroke-miterlimit="7" stroke-width=".964"/><path d="m10.832248 11.017552c-4.9802216 3.367056-2.0511186 9.550728 3.5 9.5v3.000485l6.999999-5-6.999999-5v2.976351c-3.580248.139062-5.5595156-3.12742-3-5.476836z" opacity=".858" stroke="url(#g)" stroke-linecap="round" stroke-linejoin="round"/></g></g></svg>