<?xml version="1.0" encoding="UTF-8" standalone="no"?>
<svg
   xmlns:dc="http://purl.org/dc/elements/1.1/"
   xmlns:cc="http://creativecommons.org/ns#"
   xmlns:rdf="http://www.w3.org/1999/02/22-rdf-syntax-ns#"
   xmlns:svg="http://www.w3.org/2000/svg"
   xmlns="http://www.w3.org/2000/svg"
   xmlns:xlink="http://www.w3.org/1999/xlink"
   xmlns:sodipodi="http://sodipodi.sourceforge.net/DTD/sodipodi-0.dtd"
   xmlns:inkscape="http://www.inkscape.org/namespaces/inkscape"
   height="32"
   width="32"
   version="1.1"
   id="svg1484"
   sodipodi:docname="editdoc.svg"
   inkscape:version="0.92.3 (unknown)">
  <metadata
     id="metadata1488">
    <rdf:RDF>
      <cc:Work
         rdf:about="">
        <dc:format>image/svg+xml</dc:format>
        <dc:type
           rdf:resource="http://purl.org/dc/dcmitype/StillImage" />
      </cc:Work>
    </rdf:RDF>
  </metadata>
  <sodipodi:namedview
     pagecolor="#ffffff"
     bordercolor="#666666"
     borderopacity="1"
     objecttolerance="10"
     gridtolerance="10"
     guidetolerance="10"
     inkscape:pageopacity="0"
     inkscape:pageshadow="2"
     inkscape:window-width="1366"
     inkscape:window-height="706"
     id="namedview1486"
     showgrid="false"
     inkscape:zoom="7.375"
     inkscape:cx="3.9052214"
     inkscape:cy="25.893505"
     inkscape:window-x="0"
     inkscape:window-y="0"
     inkscape:window-maximized="1"
     inkscape:current-layer="svg1484" />
  <defs
     id="defs1411">
    <linearGradient
       x1="23.576"
       y1="25.357"
       x2="23.576"
       y2="31.211"
       id="m"
       xlink:href="#a"
       gradientUnits="userSpaceOnUse"
       gradientTransform="matrix(.65657 -.6598 .73452 .73087 -21.95 5.314)" />
    <linearGradient
       id="a">
      <stop
         offset="0"
         stop-color="#181818"
         id="stop1362" />
      <stop
         offset=".135"
         stop-color="#dbdbdb"
         id="stop1364" />
      <stop
         offset=".202"
         stop-color="#a4a4a4"
         id="stop1366" />
      <stop
         offset=".27"
         stop-color="#fff"
         id="stop1368" />
      <stop
         offset=".447"
         stop-color="#8d8d8d"
         id="stop1370" />
      <stop
         offset=".571"
         stop-color="#959595"
         id="stop1372" />
      <stop
         offset=".72"
         stop-color="#cecece"
         id="stop1374" />
      <stop
         offset="1"
         stop-color="#181818"
         id="stop1376" />
    </linearGradient>
    <linearGradient
       x1="30.038"
       y1="24.99"
       x2="30.038"
       y2="30"
       id="n"
       xlink:href="#b"
       gradientUnits="userSpaceOnUse"
       gradientTransform="matrix(.638 -.64114 .85963 .85535 -24.357 1.938)" />
    <linearGradient
       id="b">
      <stop
         offset="0"
         stop-color="#565656"
         id="stop1380" />
      <stop
         offset=".5"
         stop-color="#9a9a9a"
         id="stop1382" />
      <stop
         offset="1"
         stop-color="#545454"
         id="stop1384" />
    </linearGradient>
    <linearGradient
       x1="30.038"
       y1="24.99"
       x2="30.038"
       y2="30"
       id="o"
       xlink:href="#c"
       gradientUnits="userSpaceOnUse"
       gradientTransform="matrix(.638 -.64114 .85963 .85535 -24.54 2.122)" />
    <linearGradient
       id="c">
      <stop
         offset="0"
         stop-color="#b1b1b1"
         id="stop1388" />
      <stop
         offset=".5"
         stop-color="#fff"
         id="stop1390" />
      <stop
         offset="1"
         stop-color="#8f8f8f"
         id="stop1392" />
    </linearGradient>
    <linearGradient
       x1="30.038"
       y1="24.99"
       x2="30.038"
       y2="30"
       id="p"
       xlink:href="#b"
       gradientUnits="userSpaceOnUse"
       gradientTransform="matrix(.638 -.64114 .85963 .85535 -23.722 1.3)" />
    <linearGradient
       x1="30.038"
       y1="24.99"
       x2="30.038"
       y2="30"
       id="q"
       xlink:href="#c"
       gradientUnits="userSpaceOnUse"
       gradientTransform="matrix(.638 -.64114 .85963 .85535 -23.905 1.484)" />
    <linearGradient
       x1="30.038"
       y1="24.99"
       x2="30.038"
       y2="30"
       id="r"
       xlink:href="#b"
       gradientUnits="userSpaceOnUse"
       gradientTransform="matrix(.638 -.64114 .85963 .85535 -23.084 .66)" />
    <linearGradient
       x1="30.038"
       y1="24.99"
       x2="30.038"
       y2="30"
       id="s"
       xlink:href="#c"
       gradientUnits="userSpaceOnUse"
       gradientTransform="matrix(.638 -.64114 .85963 .85535 -23.267 .843)" />
    <linearGradient
       x1="9"
       y1="29.057"
       x2="9"
       y2="26.03"
       id="t"
       xlink:href="#d"
       gradientUnits="userSpaceOnUse"
       gradientTransform="matrix(.638 -.64114 .85963 .85535 -24.6 2.182)" />
    <linearGradient
       id="d">
      <stop
         offset="0"
         stop-color="#ece5a5"
         id="stop1400" />
      <stop
         offset="1"
         stop-color="#fcfbf2"
         id="stop1402" />
    </linearGradient>
    <linearGradient
       x1="5.518"
       y1="37.372"
       x2="9.522"
       y2="41.392"
       id="u"
       xlink:href="#e"
       gradientUnits="userSpaceOnUse"
       gradientTransform="matrix(.56036 .0242 .02416 .55967 -1.392 -1.445)" />
    <linearGradient
       id="e">
      <stop
         offset="0"
         stop-color="#dbce48"
         id="stop1406" />
      <stop
         offset="1"
         stop-color="#c5b625"
         id="stop1408" />
    </linearGradient>
  </defs>
  <linearGradient
     id="f">
    <stop
       offset="0"
       id="stop1413" />
    <stop
       offset="1"
       stop-opacity="0"
       id="stop1415" />
  </linearGradient>
  <linearGradient
     id="k"
     gradientTransform="matrix(.56757 0 0 .72973 2.378 -2.514)"
     gradientUnits="userSpaceOnUse"
     x1="24"
     x2="24"
     y1="5.564"
     y2="43">
    <stop
       offset="0"
       stop-color="#fff"
       id="stop1418" />
    <stop
       offset=".036"
       stop-color="#fff"
       stop-opacity=".235"
       id="stop1420" />
    <stop
       offset=".951"
       stop-color="#fff"
       stop-opacity=".157"
       id="stop1422" />
    <stop
       offset="1"
       stop-color="#fff"
       stop-opacity=".392"
       id="stop1424" />
  </linearGradient>
  <linearGradient
     id="j"
     gradientTransform="matrix(.62857 0 0 .6084 .914 -.535)"
     gradientUnits="userSpaceOnUse"
     x1="25.132"
     x2="25.132"
     y1=".985"
     y2="47.013">
    <stop
       offset="0"
       stop-color="#f4f4f4"
       id="stop1427" />
    <stop
       offset="1"
       stop-color="#dbdbdb"
       id="stop1429" />
  </linearGradient>
  <radialGradient
     id="i"
     cx="605.714"
     cy="486.648"
     gradientTransform="matrix(.01566 0 0 .00824 17.61 25.98)"
     gradientUnits="userSpaceOnUse"
     r="117.143"
     xlink:href="#f" />
  <radialGradient
     id="h"
     cx="605.714"
     cy="486.648"
     gradientTransform="matrix(-.01566 0 0 .00824 14.39 25.98)"
     gradientUnits="userSpaceOnUse"
     r="117.143"
     xlink:href="#f" />
  <linearGradient
     id="g"
     gradientTransform="matrix(.04577 0 0 .00824 -.542 25.98)"
     gradientUnits="userSpaceOnUse"
     x1="302.857"
     x2="302.857"
     y1="366.648"
     y2="609.505">
    <stop
       offset="0"
       stop-opacity="0"
       id="stop1434" />
    <stop
       offset=".5"
       id="stop1436" />
    <stop
       offset="1"
       stop-opacity="0"
       id="stop1438" />
  </linearGradient>
  <linearGradient
     id="l"
     gradientTransform="matrix(.53064 0 0 .5897 39.27 -1.792)"
     gradientUnits="userSpaceOnUse"
     x1="-51.786"
     x2="-51.786"
     y1="50.786"
     y2="2.906">
    <stop
       offset="0"
       stop-opacity=".318"
       id="stop1441" />
    <stop
       offset="1"
       stop-opacity=".24"
       id="stop1443" />
  </linearGradient>
  <g
     id="g2040">
    <path
       opacity=".15"
       fill="url(#g)"
       id="path1446"
       d="M4.95 29h22.1v2H4.95z" />
    <path
       opacity=".15"
       fill="url(#h)"
       id="path1448"
       d="M4.95 29v2c-.807.004-1.95-.448-1.95-1s.9-1 1.95-1z" />
    <path
       opacity=".15"
       fill="url(#i)"
       id="path1450"
       d="M27.05 29v2c.807.004 1.95-.448 1.95-1s-.9-1-1.95-1z" />
    <path
       id="path1452"
       fill="url(#j)"
       d="M5 1l22 .002V29H5V1z" />
    <g
       fill="none"
       stroke-linejoin="round"
       id="g1458">
      <path
         stroke="url(#k)"
         stroke-linecap="round"
         id="path1454"
         d="M26.5 28.5h-21v-27h21z" />
      <path
         stroke="url(#l)"
         id="path1456"
         d="M4.5.5l23 .002V29.5h-23V.5z" />
    </g>
  </g>
  <g
     id="g2054">
    <path
       id="path1460"
       fill-rule="evenodd"
       fill="#0c0c0c"
       opacity=".15"
       d="M28.036 18.017c-.2-.03-.355-.015-.46.01l-13.85 3.186-2.548.588-.078.014L8 24l7.396-.196.062-.014 2.565-.586 13.848-3.21c.417-.097-.204-.614-1.393-1.162-.89-.41-1.843-.727-2.44-.815z" />
    <path
       id="path1462"
       transform="translate(7.23 -.01)"
       stroke-linejoin="round"
       stroke-width=".5"
       stroke="#0c0c0c"
       fill="url(#m)"
       d="M3.996 16.48c.446-.335 1.697.293 2.847 1.437 1.147 1.14 1.75 2.362 1.424 2.813 0 0 .028.025.027.026l16.01-16.088c.406-.41-.225-1.7-1.41-2.88C21.705.608 20.41-.017 20.005.39z" />
    <path
       id="path1464"
       stroke-linejoin="round"
       stroke-width=".5"
       stroke="#e28ccd"
       fill="#ffb6ed"
       opacity=".8"
       d="M25.282 2.344c.446-.334 1.697.294 2.847 1.438 1.146 1.14 1.75 2.362 1.423 2.813 0 0 .028.025.027.026l1.954-1.962.04-.04c0-.002-.028-.025-.027-.027.327-.45-.277-1.67-1.424-2.812C28.973.634 27.723.006 27.276.34l-.04.04-1.954 1.964z" />
    <path
       id="path1466"
       fill="#0c0c0c"
       opacity=".6"
       d="M11.226 16.47c.446-.335 1.697.293 2.847 1.437 1.147 1.14 1.75 2.362 1.424 2.813 0 0 .028.025.027.026L26.55 9.666l.04-.04s-.03-.024-.028-.026c.328-.45-.277-1.672-1.424-2.813-1.15-1.144-2.4-1.772-2.847-1.437l-.04.04z" />
    <path
       id="path1468"
       transform="translate(7.23 -.01)"
       fill="url(#n)"
       d="M15.862 4.555c.446-.334 1.697.293 2.847 1.437 1.146 1.142 1.75 2.363 1.423 2.813 0 .002.028.025.027.027l.2-.2c0-.002-.03-.025-.028-.027.327-.45-.277-1.672-1.424-2.813-1.15-1.144-2.4-1.772-2.847-1.437z" />
    <path
       id="path1470"
       transform="translate(7.23 -.01)"
       fill="url(#o)"
       d="M15.68 4.74c.445-.336 1.696.292 2.846 1.436 1.147 1.14 1.75 2.363 1.424 2.813 0 0 .028.024.027.026l.2-.2c0-.002-.03-.026-.027-.027.327-.452-.278-1.673-1.425-2.814-1.15-1.144-2.4-1.772-2.847-1.437z" />
    <path
       id="path1472"
       transform="translate(7.23 -.01)"
       fill="url(#p)"
       d="M16.497 3.917c.446-.334 1.697.293 2.847 1.437 1.147 1.142 1.75 2.363 1.424 2.813 0 .002.028.025.027.027l.2-.2c0-.002-.03-.025-.028-.027.327-.45-.277-1.672-1.424-2.813-1.15-1.144-2.4-1.772-2.847-1.437z" />
    <path
       id="path1474"
       transform="translate(7.23 -.01)"
       fill="url(#q)"
       d="M16.314 4.1c.446-.334 1.697.294 2.847 1.438 1.148 1.14 1.752 2.363 1.425 2.813 0 .003.028.026.027.028l.2-.2c0-.002-.03-.026-.027-.027.327-.45-.278-1.67-1.425-2.812-1.15-1.144-2.4-1.772-2.847-1.437z" />
    <path
       id="path1476"
       transform="translate(7.23 -.01)"
       fill="url(#r)"
       d="M17.135 3.276c.446-.334 1.697.293 2.847 1.437 1.147 1.142 1.75 2.363 1.424 2.813 0 .002.028.025.027.027l.2-.2c0-.002-.03-.025-.028-.027.327-.45-.277-1.672-1.424-2.813-1.15-1.144-2.4-1.772-2.846-1.437l-.2.2z" />
    <path
       id="path1478"
       transform="translate(7.23 -.01)"
       fill="url(#s)"
       d="M16.952 3.46c.446-.335 1.697.293 2.847 1.437 1.146 1.14 1.75 2.362 1.423 2.813 0 0 .028.025.027.026l.2-.2c0-.002-.03-.025-.027-.027.327-.45-.278-1.672-1.425-2.813-1.15-1.145-2.4-1.772-2.847-1.438z" />
    <path
       id="path1480"
       transform="translate(7.23 -.01)"
       stroke-width=".5"
       stroke="url(#u)"
       fill-rule="evenodd"
       fill="url(#t)"
       d="M.928 23.76l7.283-2.97.063-.06c.327-.452-.285-1.673-1.432-2.814-1.15-1.144-2.398-1.77-2.844-1.434z" />
    <path
       id="path1482"
       stroke-width=".5"
       stroke="#0c0c0c"
       fill-rule="evenodd"
       fill="#0c0c0c"
       d="M8.99 21.78l-.833 1.964 1.987-.815c-.16-.192-.306-.385-.498-.575-.22-.22-.436-.397-.657-.575z" />
  </g>
</svg>
