<?xml version="1.0" encoding="UTF-8" standalone="no"?>
<svg
   xmlns:dc="http://purl.org/dc/elements/1.1/"
   xmlns:cc="http://creativecommons.org/ns#"
   xmlns:rdf="http://www.w3.org/1999/02/22-rdf-syntax-ns#"
   xmlns:svg="http://www.w3.org/2000/svg"
   xmlns="http://www.w3.org/2000/svg"
   xmlns:xlink="http://www.w3.org/1999/xlink"
   xmlns:sodipodi="http://sodipodi.sourceforge.net/DTD/sodipodi-0.dtd"
   xmlns:inkscape="http://www.inkscape.org/namespaces/inkscape"
   height="32"
   width="32"
   version="1.1"
   id="svg145"
   sodipodi:docname="editprintarea.svg"
   inkscape:version="0.92.3 (unknown)">
  <metadata
     id="metadata151">
    <rdf:RDF>
      <cc:Work
         rdf:about="">
        <dc:format>image/svg+xml</dc:format>
        <dc:type
           rdf:resource="http://purl.org/dc/dcmitype/StillImage" />
        <dc:title></dc:title>
      </cc:Work>
    </rdf:RDF>
  </metadata>
  <defs
     id="defs149">
    <linearGradient
       x1="23.576"
       y1="25.357"
       x2="23.576"
       y2="31.211"
       id="m-3"
       xlink:href="#a-6"
       gradientUnits="userSpaceOnUse"
       gradientTransform="matrix(0.65657,-0.6598,0.73452,0.73087,-21.95,5.314)" />
    <linearGradient
       id="a-6">
      <stop
         offset="0"
         stop-color="#181818"
         id="stop1362" />
      <stop
         offset=".135"
         stop-color="#dbdbdb"
         id="stop1364" />
      <stop
         offset=".202"
         stop-color="#a4a4a4"
         id="stop1366" />
      <stop
         offset=".27"
         stop-color="#fff"
         id="stop1368" />
      <stop
         offset=".447"
         stop-color="#8d8d8d"
         id="stop1370" />
      <stop
         offset=".571"
         stop-color="#959595"
         id="stop1372" />
      <stop
         offset=".72"
         stop-color="#cecece"
         id="stop1374" />
      <stop
         offset="1"
         stop-color="#181818"
         id="stop1376" />
    </linearGradient>
    <linearGradient
       x1="30.038"
       y1="24.99"
       x2="30.038"
       y2="30"
       id="n-7"
       xlink:href="#b-5"
       gradientUnits="userSpaceOnUse"
       gradientTransform="matrix(0.638,-0.64114,0.85963,0.85535,-24.357,1.938)" />
    <linearGradient
       id="b-5">
      <stop
         offset="0"
         stop-color="#565656"
         id="stop1380" />
      <stop
         offset=".5"
         stop-color="#9a9a9a"
         id="stop1382" />
      <stop
         offset="1"
         stop-color="#545454"
         id="stop1384" />
    </linearGradient>
    <linearGradient
       x1="30.038"
       y1="24.99"
       x2="30.038"
       y2="30"
       id="o-3"
       xlink:href="#c-5"
       gradientUnits="userSpaceOnUse"
       gradientTransform="matrix(0.638,-0.64114,0.85963,0.85535,-24.54,2.122)" />
    <linearGradient
       id="c-5">
      <stop
         offset="0"
         stop-color="#b1b1b1"
         id="stop1388" />
      <stop
         offset=".5"
         stop-color="#fff"
         id="stop1390" />
      <stop
         offset="1"
         stop-color="#8f8f8f"
         id="stop1392" />
    </linearGradient>
    <linearGradient
       x1="30.038"
       y1="24.99"
       x2="30.038"
       y2="30"
       id="p-6"
       xlink:href="#b-5"
       gradientUnits="userSpaceOnUse"
       gradientTransform="matrix(0.638,-0.64114,0.85963,0.85535,-23.722,1.3)" />
    <linearGradient
       x1="30.038"
       y1="24.99"
       x2="30.038"
       y2="30"
       id="q-2"
       xlink:href="#c-5"
       gradientUnits="userSpaceOnUse"
       gradientTransform="matrix(0.638,-0.64114,0.85963,0.85535,-23.905,1.484)" />
    <linearGradient
       x1="30.038"
       y1="24.99"
       x2="30.038"
       y2="30"
       id="r"
       xlink:href="#b-5"
       gradientUnits="userSpaceOnUse"
       gradientTransform="matrix(0.638,-0.64114,0.85963,0.85535,-23.084,0.66)" />
    <linearGradient
       x1="30.038"
       y1="24.99"
       x2="30.038"
       y2="30"
       id="s"
       xlink:href="#c-5"
       gradientUnits="userSpaceOnUse"
       gradientTransform="matrix(0.638,-0.64114,0.85963,0.85535,-23.267,0.843)" />
    <linearGradient
       x1="9"
       y1="29.056999"
       x2="9"
       y2="26.030001"
       id="t"
       xlink:href="#d-9"
       gradientUnits="userSpaceOnUse"
       gradientTransform="matrix(0.638,-0.64114,0.85963,0.85535,-24.6,2.182)" />
    <linearGradient
       id="d-9">
      <stop
         offset="0"
         stop-color="#ece5a5"
         id="stop1400" />
      <stop
         offset="1"
         stop-color="#fcfbf2"
         id="stop1402" />
    </linearGradient>
    <linearGradient
       x1="5.5180001"
       y1="37.372002"
       x2="9.5220003"
       y2="41.391998"
       id="u"
       xlink:href="#e-1"
       gradientUnits="userSpaceOnUse"
       gradientTransform="matrix(0.56036,0.0242,0.02416,0.55967,-1.392,-1.445)" />
    <linearGradient
       id="e-1">
      <stop
         offset="0"
         stop-color="#dbce48"
         id="stop1406" />
      <stop
         offset="1"
         stop-color="#c5b625"
         id="stop1408" />
    </linearGradient>
  </defs>
  <sodipodi:namedview
     pagecolor="#ffffff"
     bordercolor="#666666"
     borderopacity="1"
     objecttolerance="10"
     gridtolerance="10"
     guidetolerance="10"
     inkscape:pageopacity="0"
     inkscape:pageshadow="2"
     inkscape:window-width="1366"
     inkscape:window-height="706"
     id="namedview147"
     showgrid="false"
     inkscape:zoom="7.375"
     inkscape:cx="-1.4237288"
     inkscape:cy="14.915254"
     inkscape:window-x="0"
     inkscape:window-y="0"
     inkscape:window-maximized="1"
     inkscape:current-layer="svg145" />
  <linearGradient
     id="a"
     gradientTransform="matrix(.38833 0 0 .41842 15.3 14.318)"
     gradientUnits="userSpaceOnUse"
     x1="24.139"
     x2="24.139"
     xlink:href="#b"
     y1="20.749"
     y2="25.528" />
  <linearGradient
     id="b">
    <stop
       offset="0"
       stop-color="#fff"
       id="stop3" />
    <stop
       offset="0"
       stop-color="#fff"
       stop-opacity=".235"
       id="stop5" />
    <stop
       offset="1"
       stop-color="#fff"
       stop-opacity=".157"
       id="stop7" />
    <stop
       offset="1"
       stop-color="#fff"
       stop-opacity=".392"
       id="stop9" />
  </linearGradient>
  <linearGradient
     id="c"
     gradientTransform="matrix(.4227 0 0 .38513 14.546 15.083)"
     gradientUnits="userSpaceOnUse"
     x1="24.139"
     x2="24.139"
     xlink:href="#b"
     y1="10.171"
     y2="36.136" />
  <radialGradient
     id="d"
     cx="65.325"
     cy="48.709"
     gradientTransform="matrix(0 .68598 -.74626 0 60.29 -27.737)"
     gradientUnits="userSpaceOnUse"
     r="31">
    <stop
       offset="0"
       stop-color="#cdf87e"
       id="stop13" />
    <stop
       offset=".262"
       stop-color="#a2e34f"
       id="stop15" />
    <stop
       offset=".661"
       stop-color="#68b723"
       id="stop17" />
    <stop
       offset="1"
       stop-color="#1d7e0d"
       id="stop19" />
  </radialGradient>
  <linearGradient
     id="e">
    <stop
       offset="0"
       id="stop22" />
    <stop
       offset="1"
       stop-opacity="0"
       id="stop24" />
  </linearGradient>
  <linearGradient
     id="f"
     gradientTransform="matrix(.56757 0 0 .72973 2.378 -2.514)"
     gradientUnits="userSpaceOnUse"
     x1="4.619"
     x2="43.381"
     y1="32.222"
     y2="32.222">
    <stop
       offset="0"
       stop-color="#fff"
       id="stop27" />
    <stop
       offset=".036"
       stop-color="#fff"
       stop-opacity=".235"
       id="stop29" />
    <stop
       offset=".951"
       stop-color="#fff"
       stop-opacity=".157"
       id="stop31" />
    <stop
       offset="1"
       stop-color="#fff"
       stop-opacity=".392"
       id="stop33" />
  </linearGradient>
  <linearGradient
     id="g">
    <stop
       offset="0"
       stop-color="#f4f4f4"
       id="stop36" />
    <stop
       offset="1"
       stop-color="#dbdbdb"
       id="stop38" />
  </linearGradient>
  <linearGradient
     id="h"
     gradientTransform="matrix(.62857 0 0 .6084 .914 -.535)"
     gradientUnits="userSpaceOnUse"
     x1="11.273"
     x2="44.682"
     xlink:href="#g"
     y1="27.178"
     y2="25.534" />
  <radialGradient
     id="i"
     cx="605.71"
     cy="486.65"
     gradientTransform="matrix(.01566 0 0 .00824 17.61 25.98)"
     gradientUnits="userSpaceOnUse"
     r="117.14"
     xlink:href="#e" />
  <radialGradient
     id="j"
     cx="605.71"
     cy="486.65"
     gradientTransform="matrix(-.01566 0 0 .00824 14.39 25.98)"
     gradientUnits="userSpaceOnUse"
     r="117.14"
     xlink:href="#e" />
  <linearGradient
     id="k"
     gradientTransform="matrix(.04577 0 0 .00824 -.542 25.98)"
     gradientUnits="userSpaceOnUse"
     x1="302.86"
     x2="302.86"
     y1="366.65"
     y2="609.51">
    <stop
       offset="0"
       stop-opacity="0"
       id="stop44" />
    <stop
       offset=".5"
       id="stop46" />
    <stop
       offset="1"
       stop-opacity="0"
       id="stop48" />
  </linearGradient>
  <linearGradient
     id="l"
     gradientTransform="matrix(.53064 0 0 .5897 39.27 -1.792)"
     gradientUnits="userSpaceOnUse"
     x1="-21.238"
     x2="-68.351"
     y1="31.867"
     y2="35.258">
    <stop
       offset="0"
       stop-opacity=".318"
       id="stop51" />
    <stop
       offset="1"
       stop-opacity=".24"
       id="stop53" />
  </linearGradient>
  <linearGradient
     id="m"
     gradientTransform="translate(0 -5)"
     gradientUnits="userSpaceOnUse"
     x1="10"
     x2="10"
     y2="22">
    <stop
       offset="0"
       stop-color="#fff"
       id="stop56" />
    <stop
       offset="1"
       stop-color="#fff"
       stop-opacity="0"
       id="stop58" />
  </linearGradient>
  <linearGradient
     id="n"
     gradientUnits="userSpaceOnUse"
     x1="12"
     x2="12"
     y1="18"
     y2="7">
    <stop
       offset="0"
       stop-color="#232323"
       id="stop61" />
    <stop
       offset=".8"
       stop-color="#535353"
       id="stop63" />
    <stop
       offset=".8"
       stop-color="#676767"
       id="stop65" />
    <stop
       offset="1"
       stop-color="#676767"
       id="stop67" />
  </linearGradient>
  <linearGradient
     id="o"
     gradientTransform="matrix(.48572 0 0 -.25857 -.657 10.22)"
     gradientUnits="userSpaceOnUse"
     x1="30.176"
     x2="30.176"
     xlink:href="#g"
     y1="47.256"
     y2="-26.225" />
  <linearGradient
     id="p"
     gradientTransform="matrix(.48572 0 0 -.25857 -.657 24.72)"
     gradientUnits="userSpaceOnUse"
     x1="28.118"
     x2="28.118"
     xlink:href="#g"
     y1="91.732"
     y2="22.118" />
  <linearGradient
     id="q"
     gradientTransform="matrix(.4054 0 0 .5135 2.27 -2.324)"
     gradientUnits="userSpaceOnUse"
     x1="24"
     x2="24"
     y1="6.474"
     y2="41.526">
    <stop
       offset="0"
       stop-color="#fff"
       id="stop72" />
    <stop
       offset=".056"
       stop-color="#fff"
       stop-opacity=".235"
       id="stop74" />
    <stop
       offset="1"
       stop-color="#fff"
       stop-opacity=".157"
       id="stop76" />
    <stop
       offset="1"
       stop-color="#fff"
       stop-opacity=".392"
       id="stop78" />
  </linearGradient>
  <path
     d="m4.95 29h22.1v2h-22.1z"
     fill="url(#k)"
     opacity=".15"
     transform="translate(-2.44 -2.44)"
     id="path81" />
  <path
     d="m4.95 29v2c-.807.004-1.95-.448-1.95-1s.9-1 1.95-1z"
     fill="url(#j)"
     opacity=".15"
     transform="translate(-2.44 -2.44)"
     id="path83" />
  <path
     d="m27.05 29v2c.807.004 1.95-.448 1.95-1s-.9-1-1.95-1z"
     fill="url(#i)"
     opacity=".15"
     transform="translate(-2.44 -2.44)"
     id="path85" />
  <path
     d="m5 1 22 .002v27.998h-22z"
     fill="url(#h)"
     transform="matrix(0 1 -1 0 31 -1)"
     id="path87" />
  <g
     fill="none"
     stroke-linejoin="round"
     id="g93">
    <path
       d="m26.5 28.5h-21v-27h21z"
       stroke="url(#f)"
       stroke-linecap="round"
       transform="matrix(0 1 -1 0 31 -1)"
       id="path89" />
    <path
       d="m4.5.5 23 .002v28.998h-23z"
       stroke="url(#l)"
       transform="matrix(0 1 -1 0 31 -1)"
       id="path91" />
  </g>
  <path
     d="m4 4h1v22h-1zm6 0h1v22h-1zm6 0h1v22h-1zm6 0h1v22h-1zm6 0h1v22h-1z"
     fill="#2c465d"
     fill-opacity=".325"
     opacity=".7"
     id="path95" />
  <path
     d="m30 7v1h-28v-1zm0 6v1h-28v-1zm0 6v1h-28v-1zm0 6v1h-28v-1z"
     fill="#2c465d"
     fill-opacity=".325"
     opacity=".7"
     id="path97" />
  <path
     d="m4.5 7.494h24.01v17.976h-24.01z"
     fill="none"
     stroke="#e25757"
     stroke-dasharray="1 1"
     stroke-dashoffset=".5"
     id="path99" />
  <path
     d="m4 12v1h12v-1z"
     fill="#fff"
     opacity=".4"
     id="path101" />
  <path
     d="m6 1v14h12v-14zm1 1h10v12h-10z"
     fill="url(#m)"
     opacity=".4"
     transform="translate(-2 11)"
     id="path103" />
  <path
     d="m4.78 5.5-.124.156-2 2-.156.125v9.72h19v-9.721l-.156-.124-2-2-.125-.156h-14.219z"
     fill="url(#n)"
     transform="translate(-2 11)"
     id="path105" />
  <path
     d="m2.78 16.5-.124.156-2 2-.156.125v9.72h19v-9.72l-.156-.124-2-2-.125-.156h-14.219z"
     fill="none"
     opacity=".71"
     stroke="#000"
     id="path107" />
  <path
     d="m5.5 7h13v-6.5h-13z"
     fill="url(#o)"
     transform="translate(-2 11)"
     id="path109" />
  <path
     d="m1 19h18v1h-18z"
     fill="#fff"
     opacity=".2"
     id="path111" />
  <path
     d="m3.344 11c-.214.07-.355.275-.344.5v6.5h1v-6h12v6h1v-6.5c0-.276-.224-.5-.5-.5h-13c-.03-.003-.063-.003-.094 0z"
     opacity=".3"
     id="path113" />
  <path
     d="m3.5 18h13v1h-13z"
     opacity=".4"
     id="path115" />
  <path
     d="m3 27h14v-1h-14z"
     fill="#505050"
     id="path117" />
  <path
     d="m4 25h12v1h-12z"
     opacity=".2"
     id="path119" />
  <path
     d="m3 27h14v1h-14z"
     opacity=".4"
     id="path121" />
  <path
     d="m19 20-.5-5h-13l-.5 5z"
     fill="url(#p)"
     transform="translate(-2 11)"
     id="path123" />
  <path
     d="m3 25.875-.5 5.5c-.077.3.19.635.5.625h14c.31.01.577-.326.5-.625l-.5-5.5v.125h-.906v.5l.25 4.5h-.25v.03h-11.094v-.03h-1.344l.25-4.5v-.5h-.906z"
     opacity=".3"
     id="path125" />
  <path
     d="m5 27h9v1h-9z"
     opacity=".2"
     id="path127" />
  <path
     d="m16 21h2v2h-2z"
     fill="#0cceff"
     id="path129" />
  <path
     d="m17.502 6.505-11.008-.005.01-5 10.997.005z"
     fill="none"
     stroke="url(#q)"
     stroke-linecap="round"
     transform="translate(-2 11)"
     id="path131" />
  <path
     d="m8 29h6v1h-6z"
     opacity=".2"
     id="path133" />
  <g
     id="g2054"
     transform="translate(-7.3776344e-4,7.7902837)">
    <path
       style="opacity:0.15;fill:#0c0c0c;fill-rule:evenodd"
       inkscape:connector-curvature="0"
       id="path1460"
       d="m 28.036,18.017 c -0.2,-0.03 -0.355,-0.015 -0.46,0.01 L 13.726,21.213 11.178,21.801 11.1,21.815 8,24 l 7.396,-0.196 0.062,-0.014 2.565,-0.586 13.848,-3.21 c 0.417,-0.097 -0.204,-0.614 -1.393,-1.162 -0.89,-0.41 -1.843,-0.727 -2.44,-0.815 z" />
    <path
       style="fill:url(#m-3);stroke:#0c0c0c;stroke-width:0.5;stroke-linejoin:round"
       inkscape:connector-curvature="0"
       id="path1462"
       transform="translate(7.23,-0.01)"
       d="m 3.996,16.48 c 0.446,-0.335 1.697,0.293 2.847,1.437 1.147,1.14 1.75,2.362 1.424,2.813 0,0 0.028,0.025 0.027,0.026 L 24.304,4.668 C 24.71,4.258 24.079,2.968 22.894,1.788 21.705,0.608 20.41,-0.017 20.005,0.39 Z" />
    <path
       style="opacity:0.8;fill:#ffb6ed;stroke:#e28ccd;stroke-width:0.5;stroke-linejoin:round"
       inkscape:connector-curvature="0"
       id="path1464"
       d="m 25.282,2.344 c 0.446,-0.334 1.697,0.294 2.847,1.438 1.146,1.14 1.75,2.362 1.423,2.813 0,0 0.028,0.025 0.027,0.026 l 1.954,-1.962 0.04,-0.04 C 31.573,4.617 31.545,4.594 31.546,4.592 31.873,4.142 31.269,2.922 30.122,1.78 28.973,0.634 27.723,0.006 27.276,0.34 l -0.04,0.04 z" />
    <path
       style="opacity:0.6;fill:#0c0c0c"
       inkscape:connector-curvature="0"
       id="path1466"
       d="m 11.226,16.47 c 0.446,-0.335 1.697,0.293 2.847,1.437 1.147,1.14 1.75,2.362 1.424,2.813 0,0 0.028,0.025 0.027,0.026 L 26.55,9.666 26.59,9.626 c 0,0 -0.03,-0.024 -0.028,-0.026 C 26.89,9.15 26.285,7.928 25.138,6.787 23.988,5.643 22.738,5.015 22.291,5.35 l -0.04,0.04 z" />
    <path
       style="fill:url(#n-7)"
       inkscape:connector-curvature="0"
       id="path1468"
       transform="translate(7.23,-0.01)"
       d="m 15.862,4.555 c 0.446,-0.334 1.697,0.293 2.847,1.437 1.146,1.142 1.75,2.363 1.423,2.813 0,0.002 0.028,0.025 0.027,0.027 l 0.2,-0.2 C 20.359,8.63 20.329,8.607 20.331,8.605 20.658,8.155 20.054,6.933 18.907,5.792 17.757,4.648 16.507,4.02 16.06,4.355 Z" />
    <path
       style="fill:url(#o-3)"
       inkscape:connector-curvature="0"
       id="path1470"
       transform="translate(7.23,-0.01)"
       d="m 15.68,4.74 c 0.445,-0.336 1.696,0.292 2.846,1.436 1.147,1.14 1.75,2.363 1.424,2.813 0,0 0.028,0.024 0.027,0.026 l 0.2,-0.2 C 20.177,8.813 20.147,8.789 20.15,8.788 20.477,8.336 19.872,7.115 18.725,5.974 17.575,4.83 16.325,4.202 15.878,4.537 Z" />
    <path
       style="fill:url(#p-6)"
       inkscape:connector-curvature="0"
       id="path1472"
       transform="translate(7.23,-0.01)"
       d="m 16.497,3.917 c 0.446,-0.334 1.697,0.293 2.847,1.437 1.147,1.142 1.75,2.363 1.424,2.813 0,0.002 0.028,0.025 0.027,0.027 l 0.2,-0.2 c 0,-0.002 -0.03,-0.025 -0.028,-0.027 C 21.294,7.517 20.69,6.295 19.543,5.154 18.393,4.01 17.143,3.382 16.696,3.717 Z" />
    <path
       style="fill:url(#q-2)"
       inkscape:connector-curvature="0"
       id="path1474"
       transform="translate(7.23,-0.01)"
       d="m 16.314,4.1 c 0.446,-0.334 1.697,0.294 2.847,1.438 1.148,1.14 1.752,2.363 1.425,2.813 0,0.003 0.028,0.026 0.027,0.028 l 0.2,-0.2 c 0,-0.002 -0.03,-0.026 -0.027,-0.027 0.327,-0.45 -0.278,-1.67 -1.425,-2.812 -1.15,-1.144 -2.4,-1.772 -2.847,-1.437 z" />
    <path
       style="fill:url(#r)"
       inkscape:connector-curvature="0"
       id="path1476"
       transform="translate(7.23,-0.01)"
       d="m 17.135,3.276 c 0.446,-0.334 1.697,0.293 2.847,1.437 1.147,1.142 1.75,2.363 1.424,2.813 0,0.002 0.028,0.025 0.027,0.027 l 0.2,-0.2 c 0,-0.002 -0.03,-0.025 -0.028,-0.027 0.327,-0.45 -0.277,-1.672 -1.424,-2.813 -1.15,-1.144 -2.4,-1.772 -2.846,-1.437 z" />
    <path
       style="fill:url(#s)"
       inkscape:connector-curvature="0"
       id="path1478"
       transform="translate(7.23,-0.01)"
       d="m 16.952,3.46 c 0.446,-0.335 1.697,0.293 2.847,1.437 1.146,1.14 1.75,2.362 1.423,2.813 0,0 0.028,0.025 0.027,0.026 l 0.2,-0.2 c 0,-0.002 -0.03,-0.025 -0.027,-0.027 0.327,-0.45 -0.278,-1.672 -1.425,-2.813 -1.15,-1.145 -2.4,-1.772 -2.847,-1.438 z" />
    <path
       style="fill:url(#t);fill-rule:evenodd;stroke:url(#u);stroke-width:0.5"
       inkscape:connector-curvature="0"
       id="path1480"
       transform="translate(7.23,-0.01)"
       d="M 0.928,23.76 8.211,20.79 8.274,20.73 C 8.601,20.278 7.989,19.057 6.842,17.916 5.692,16.772 4.444,16.146 3.998,16.482 Z" />
    <path
       style="fill:#0c0c0c;fill-rule:evenodd;stroke:#0c0c0c;stroke-width:0.5"
       inkscape:connector-curvature="0"
       id="path1482"
       d="m 8.99,21.78 -0.833,1.964 1.987,-0.815 C 9.984,22.737 9.838,22.544 9.646,22.354 9.426,22.134 9.21,21.957 8.989,21.779 Z" />
  </g>
</svg>
