<svg xmlns="http://www.w3.org/2000/svg" xmlns:xlink="http://www.w3.org/1999/xlink" height="32" viewBox="0 0 8.4666665 8.4666669" width="32"><defs><radialGradient id="d" cx="605.714" cy="486.648" gradientTransform="matrix(.00503 0 0 .00536 4.774 4.784)" gradientUnits="userSpaceOnUse" r="117.143" xlink:href="#a"/><linearGradient id="a"><stop offset="0"/><stop offset="1" stop-opacity="0"/></linearGradient><radialGradient id="c" cx="605.714" cy="486.648" gradientTransform="matrix(.00414 0 0 .00218 4.66 6.874)" gradientUnits="userSpaceOnUse" r="117.143" xlink:href="#a"/></defs><radialGradient id="b" cx="4.333" cy="288.644" gradientTransform="matrix(-2.36637 .0798 -.0789 -2.33915 37.355 964.564)" gradientUnits="userSpaceOnUse" r="2.799"><stop offset="0" stop-color="#737373"/><stop offset=".262" stop-color="#636363"/><stop offset=".705" stop-color="#4b4b4b"/><stop offset="1" stop-color="#3f3f3f"/></radialGradient><path d="M5.384 294.538H3.046l-.403 1.01H1.566l2.206-5.292h1l2.128 5.292H5.775zm-2.06-.8H5.08l-.784-2.395z" stroke="#000" stroke-width=".265" stroke-linecap="round" stroke-linejoin="round" stroke-opacity=".537" fill="url(#b)" transform="translate(0 -288.533)"/><path d="M3.772 1.723l-2.206 5.29h.11l2.096-5.026h1l2.022 5.027H6.9l-2.127-5.29zm-.34 3.48l-.11.266H5.08l-.087-.267z" opacity=".1" fill="#fff"/><path d="M7.157 7.673v.53c.213 0 .516-.12.516-.265 0-.147-.238-.265-.516-.265z" opacity=".15" fill="url(#c)"/><path d="M7.805 6.747v1.3c.26.003.626-.29.626-.65 0-.36-.288-.65-.625-.65z" opacity=".15" fill="url(#d)"/><path d="M6.085.265v.793h.53l.264.265V6.88l-.265.264h-.53v.793h2.382v-.793h-.53l-.264-.265V1.322l.264-.265h.53V.265z" opacity=".52" fill-rule="evenodd"/><path d="M6.35.664L6.924.66s.353-.013.353.34l-.01 6.047s-.036.483-.388.492l-.53.012M8.202.67l-.58-.01s-.35-.013-.35.34l-.01 6.047s.026.492.38.492h.56" fill="none" stroke="#fff" stroke-width=".265"/></svg>