<svg xmlns="http://www.w3.org/2000/svg" xmlns:xlink="http://www.w3.org/1999/xlink" width="32" height="32"><defs><linearGradient x1="24" y1="6.549" x2="24" y2="41.414" id="m" xlink:href="#a" gradientUnits="userSpaceOnUse" gradientTransform="translate(.974 8.972) scale(.45946)"/><linearGradient id="a"><stop offset="0" stop-color="#fff"/><stop offset="0" stop-color="#fff" stop-opacity=".235"/><stop offset="1" stop-color="#fff" stop-opacity=".157"/><stop offset="1" stop-color="#fff" stop-opacity=".392"/></linearGradient><radialGradient cx="4.993" cy="43.5" r="2.5" fx="4.993" fy="43.5" id="i" xlink:href="#b" gradientUnits="userSpaceOnUse" gradientTransform="matrix(2.00378 0 0 1.4 27.988 -17.4)"/><linearGradient id="b"><stop offset="0" stop-color="#181818"/><stop offset="1" stop-color="#181818" stop-opacity="0"/></linearGradient><radialGradient cx="4.993" cy="43.5" r="2.5" fx="4.993" fy="43.5" id="j" xlink:href="#c" gradientUnits="userSpaceOnUse" gradientTransform="matrix(2.00378 0 0 1.4 -20.012 -104.4)"/><linearGradient id="c"><stop offset="0" stop-color="#181818"/><stop offset="1" stop-color="#181818" stop-opacity="0"/></linearGradient><linearGradient x1="25.058" y1="47.028" x2="25.058" y2="39.999" id="k" xlink:href="#d" gradientUnits="userSpaceOnUse"/><linearGradient id="d"><stop offset="0" stop-color="#181818" stop-opacity="0"/><stop offset=".5" stop-color="#181818"/><stop offset="1" stop-color="#181818" stop-opacity="0"/></linearGradient><linearGradient id="e"><stop offset="0" stop-color="#fafafa"/><stop offset="1" stop-color="#d4d4d4"/></linearGradient><linearGradient gradientTransform="translate(.923 -31.077) scale(.6923)" gradientUnits="userSpaceOnUse" y2="-.07" x2="14.33" y1="32.022" x1="14.33" id="l" xlink:href="#e"/><linearGradient gradientTransform="matrix(0 -.5372 .5768 0 -15.735 35.63)" gradientUnits="userSpaceOnUse" xlink:href="#f" id="p" y2="46.971" x2="18.681" y1="46.971" x1="40.958"/><linearGradient id="f"><stop offset="0" stop-color="#fff"/><stop offset=".45" stop-color="#fff" stop-opacity=".235"/><stop offset=".65" stop-color="#fff" stop-opacity=".157"/><stop offset="1" stop-color="#fff" stop-opacity=".392"/></linearGradient><radialGradient gradientTransform="matrix(.276 0 0 -.2958 9.94 32.584)" gradientUnits="userSpaceOnUse" xlink:href="#g" id="n" fy="36.421" fx="24.837" r="15.645" cy="36.421" cx="24.837"/><linearGradient id="g"><stop offset="0"/><stop offset="1" stop-opacity="0"/></linearGradient><linearGradient gradientUnits="userSpaceOnUse" y2="17.211" x2="17.151" y1="5.88" x1="17.151" id="o" xlink:href="#h" gradientTransform="matrix(-1 0 0 1 34.263 7.765)"/><linearGradient id="h" gradientTransform="matrix(.4922 0 0 .4584 4.51 11.206)" gradientUnits="userSpaceOnUse" x1="23.732" x2="23.732" y1="5.394" y2="39.735"><stop offset="0" stop-color="#90dbec"/><stop offset=".262" stop-color="#55c1ec"/><stop offset=".705" stop-color="#3689e6"/><stop offset="1" stop-color="#2b63a0"/></linearGradient></defs><g transform="matrix(1.3333 0 0 1.3333 -.848 -11.51)"><g opacity=".4"><path fill="url(#i)" d="M38 40h5v7h-5z" transform="matrix(.579 0 0 .4286 -1.895 10.857)"/><path transform="matrix(-.579 0 0 -.4286 -1.895 10.857)" fill="url(#j)" d="M-10-47h5v7h-5z"/><path fill="url(#k)" d="M10 40h28v7H10z" transform="matrix(.579 0 0 .4286 -1.895 10.857)"/></g><rect transform="scale(1 -1)" width="18" height="18" rx=".5" ry=".5" x="3" y="-29" color="#000" overflow="visible" fill="url(#l)"/><rect width="18.76" height="18.762" rx="1" ry="1" x="2.5" y="10.5" color="#000" overflow="visible" opacity=".5" fill="none" stroke="#555761" stroke-width=".75" stroke-linecap="round" stroke-linejoin="round"/><path fill="none" stroke="url(#m)" stroke-width=".75" stroke-linecap="round" stroke-linejoin="round" d="M3.272 11.308H20.52v17.21H3.272z"/><path d="M21.115 21.558c0-6.173-8.634-6.173-8.636 0 0 2.555 1.93 4.88 4.314 4.88 2.383 0 4.32-2.325 4.32-4.88z" overflow="visible" opacity=".141" fill="url(#n)" fill-rule="evenodd"/><path d="M16.765 24.735l6.9-5.604-6.902-5.512v3.648h-6l.003 3.748h6z" display="block" overflow="visible" color="#000" fill="url(#o)"/><path d="M17.765 22.624l4.333-3.493-4.335-3.44v2.576h-6l.003 1.748h6z" display="block" overflow="visible" stroke-miterlimit="7" color="#000" opacity=".401" fill="none" stroke="url(#p)" stroke-width=".75"/><path style="isolation:auto;mix-blend-mode:normal" d="M16.765 24.735l6.9-5.604-6.902-5.512v3.648h-6l.003 3.748h6z" overflow="visible" color="#000" opacity=".5" solid-color="#000000" fill="none" stroke="#004372" stroke-width=".75" stroke-linejoin="round"/></g></svg>