<svg xmlns="http://www.w3.org/2000/svg" xmlns:xlink="http://www.w3.org/1999/xlink" width="32" height="32"><defs><linearGradient x1="24" y1="6.549" x2="24" y2="41.414" id="n" xlink:href="#a" gradientUnits="userSpaceOnUse" gradientTransform="translate(.974 8.972) scale(.45946)"/><linearGradient id="a"><stop offset="0" stop-color="#fff"/><stop offset="0" stop-color="#fff" stop-opacity=".235"/><stop offset="1" stop-color="#fff" stop-opacity=".157"/><stop offset="1" stop-color="#fff" stop-opacity=".392"/></linearGradient><radialGradient cx="4.993" cy="43.5" r="2.5" fx="4.993" fy="43.5" id="j" xlink:href="#b" gradientUnits="userSpaceOnUse" gradientTransform="matrix(2.00378 0 0 1.4 27.988 -17.4)"/><linearGradient id="b"><stop offset="0" stop-color="#181818"/><stop offset="1" stop-color="#181818" stop-opacity="0"/></linearGradient><radialGradient cx="4.993" cy="43.5" r="2.5" fx="4.993" fy="43.5" id="k" xlink:href="#c" gradientUnits="userSpaceOnUse" gradientTransform="matrix(2.00378 0 0 1.4 -20.012 -104.4)"/><linearGradient id="c"><stop offset="0" stop-color="#181818"/><stop offset="1" stop-color="#181818" stop-opacity="0"/></linearGradient><linearGradient x1="25.058" y1="47.028" x2="25.058" y2="39.999" id="l" xlink:href="#d" gradientUnits="userSpaceOnUse"/><linearGradient id="d"><stop offset="0" stop-color="#181818" stop-opacity="0"/><stop offset=".5" stop-color="#181818"/><stop offset="1" stop-color="#181818" stop-opacity="0"/></linearGradient><linearGradient id="e"><stop offset="0" stop-color="#fafafa"/><stop offset="1" stop-color="#d4d4d4"/></linearGradient><linearGradient gradientTransform="translate(.923 -31.077) scale(.6923)" gradientUnits="userSpaceOnUse" y2="-.07" x2="14.33" y1="32.022" x1="14.33" id="m" xlink:href="#e"/><linearGradient gradientTransform="matrix(0 -.5372 .5768 0 -15.735 35.63)" gradientUnits="userSpaceOnUse" xlink:href="#f" id="q" y2="46.971" x2="18.681" y1="46.971" x1="40.958"/><linearGradient id="f"><stop offset="0" stop-color="#fff"/><stop offset=".45" stop-color="#fff" stop-opacity=".235"/><stop offset=".65" stop-color="#fff" stop-opacity=".157"/><stop offset="1" stop-color="#fff" stop-opacity=".392"/></linearGradient><radialGradient gradientTransform="matrix(.276 0 0 -.2958 9.94 32.584)" gradientUnits="userSpaceOnUse" xlink:href="#g" id="o" fy="36.421" fx="24.837" r="15.645" cy="36.421" cx="24.837"/><linearGradient id="g"><stop offset="0"/><stop offset="1" stop-opacity="0"/></linearGradient><linearGradient gradientUnits="userSpaceOnUse" y2="17.211" x2="17.151" y1="5.88" x1="17.151" id="p" xlink:href="#h" gradientTransform="matrix(-1 0 0 1 34.263 7.765)"/><linearGradient id="h" gradientTransform="matrix(.4922 0 0 .4584 4.51 11.206)" gradientUnits="userSpaceOnUse" x1="23.732" x2="23.732" y1="5.394" y2="39.735"><stop offset="0" stop-color="#90dbec"/><stop offset=".262" stop-color="#55c1ec"/><stop offset=".705" stop-color="#3689e6"/><stop offset="1" stop-color="#2b63a0"/></linearGradient><clipPath id="r"><path d="M27.728 6.958c-.204.053-.394.17-.535.336-.282.334-.33.814-.107 1.2l2.648 4.75c.093.167.075.458-.242.92-.32.468-.9.99-1.658 1.402-.762.414-1.514.63-2.082.648-.57.02-.847-.13-.94-.297l-2.668-4.78c-.165-.295-.468-.492-.797-.53-.328-.04-.666.078-.898.334-.118.127-.21.284-.25.465a.58.58 0 0 0 0 .003c-.547 2.35-.31 4.998.76 6.914 1.423 2.544 4.334 3.748 7.197 3.332 1.008.348 2.378 1.105 4.045 2.76l1.277 1.267a.58.58 0 0 0 .407.168h4.946a.58.58 0 0 0 .58-.58V22.03a.58.58 0 0 0-.172-.412l-2.12-2.103c-1.49-1.482-2.25-2.72-2.647-3.682.316-1.513.17-3.117-.63-4.545-1.07-1.916-3.206-3.5-5.497-4.297-.198-.07-.414-.083-.62-.03z"/></clipPath><radialGradient id="s" cx="605.714" cy="486.648" gradientTransform="matrix(.023 0 0 .0147 26.36 21.04)" gradientUnits="userSpaceOnUse" r="117.143" xlink:href="#g"/><linearGradient id="t" gradientUnits="userSpaceOnUse" x1="39.706" x2="41.641" y1="28.005" y2="31.442"><stop offset="0" stop-color="#d4d4d4"/><stop offset="1" stop-color="#d4d4d4" stop-opacity="0"/></linearGradient><linearGradient id="u" gradientUnits="userSpaceOnUse" x1="38.833" x2="40.777" y1="28.152" y2="31.46"><stop offset="0" stop-color="#555761"/><stop offset="1" stop-color="#555761" stop-opacity="0"/></linearGradient><linearGradient id="v" gradientTransform="matrix(1.181 0 0 1.1804 -332.458 -53.518)" gradientUnits="userSpaceOnUse" x1="302.292" x2="308.649" y1="58.443" y2="60.768"><stop offset="0" stop-color="#abacae"/><stop offset="1" stop-color="#fafafa"/></linearGradient><linearGradient id="w" gradientUnits="userSpaceOnUse" x1="37.789" x2="40.78" xlink:href="#i" y1="27.895" y2="32.102"/><linearGradient id="i"><stop offset="0" stop-color="#fff"/><stop offset="1" stop-color="#fff" stop-opacity="0"/></linearGradient></defs><g transform="matrix(1.3333 0 0 1.3333 -.848 -11.51)"><g opacity=".4"><path fill="url(#j)" d="M38 40h5v7h-5z" transform="matrix(.579 0 0 .4286 -1.895 10.857)"/><path transform="matrix(-.579 0 0 -.4286 -1.895 10.857)" fill="url(#k)" d="M-10-47h5v7h-5z"/><path fill="url(#l)" d="M10 40h28v7H10z" transform="matrix(.579 0 0 .4286 -1.895 10.857)"/></g><rect transform="scale(1 -1)" width="18" height="18" rx=".5" ry=".5" x="3" y="-29" color="#000" overflow="visible" fill="url(#m)"/><rect width="18.76" height="18.762" rx="1" ry="1" x="2.5" y="10.5" color="#000" overflow="visible" opacity=".5" fill="none" stroke="#555761" stroke-width=".75" stroke-linecap="round" stroke-linejoin="round"/><path fill="none" stroke="url(#n)" stroke-width=".75" stroke-linecap="round" stroke-linejoin="round" d="M3.272 11.308H20.52v17.21H3.272z"/><path d="M21.115 21.558c0-6.173-8.634-6.173-8.636 0 0 2.555 1.93 4.88 4.314 4.88 2.383 0 4.32-2.325 4.32-4.88z" overflow="visible" opacity=".141" fill="url(#o)" fill-rule="evenodd"/><path d="M16.765 24.735l6.9-5.604-6.902-5.512v3.648h-6l.003 3.748h6z" display="block" overflow="visible" color="#000" fill="url(#p)"/><path d="M17.765 22.624l4.333-3.493-4.335-3.44v2.576h-6l.003 1.748h6z" display="block" overflow="visible" stroke-miterlimit="7" color="#000" opacity=".401" fill="none" stroke="url(#q)" stroke-width=".75"/><path style="isolation:auto;mix-blend-mode:normal" d="M16.765 24.735l6.9-5.604-6.902-5.512v3.648h-6l.003 3.748h6z" overflow="visible" color="#000" opacity=".5" solid-color="#000000" fill="none" stroke="#004372" stroke-width=".75" stroke-linejoin="round"/><g clip-path="url(#r)" transform="matrix(.75 0 0 .75 -4.92 13.25)"><path d="M40.246 26.43V30c1.187.007 2.87-.8 2.87-1.785 0-.986-1.326-1.785-2.87-1.785z" opacity=".3" fill="url(#s)"/><path d="M20.876 11.33c-.054.06-.094.13-.112.207-.514 2.214-.27 4.757.703 6.5 1.332 2.38 4.104 3.517 6.82 3.037 1.11.373 2.58 1.194 4.325 2.926l21.775 21.617 4.102-4.073-21.777-21.617c-1.572-1.56-2.398-2.9-2.82-3.956.367-1.46.217-3.02-.554-4.4-.976-1.74-3.02-3.28-5.187-4.033-.186-.068-.39-.016-.518.134-.126.15-.148.365-.05.535l2.654 4.755c.237.425.113.973-.27 1.534-.39.566-1.034 1.13-1.86 1.58-.825.45-1.65.697-2.34.72-.686.024-1.225-.166-1.464-.594l-2.67-4.78c-.074-.134-.204-.22-.356-.238-.15-.018-.303.037-.404.15z" fill="url(#t)" fill-rule="evenodd" stroke="url(#u)" stroke-linecap="round" stroke-linejoin="round" stroke-dashoffset=".361" stroke-opacity=".5"/><path d="M28.005 7.94c.022.007.008.036 0 .036l2.657 4.758c.36.64.1 1.4-.332 2.03-.436.636-1.113 1.253-1.993 1.733-.882.48-1.808.712-2.584.738-.774.026-1.5-.195-1.845-.812l-2.658-4.795c-.015-.003-.04.002-.037 0 .025-.026.005.02 0 .037-.49 2.11-.236 4.55.665 6.16 1.23 2.202 3.802 3.254 6.348 2.804 2.534-.456 4.7-2.66 5.24-4.76.343-1.36.197-2.82-.515-4.096-.896-1.605-2.87-3.117-4.944-3.836z" fill="url(#v)" fill-rule="evenodd"/><path d="M29.334 9.267l1.77 3.21c.505.9.16 1.866-.33 2.58-.496.724-1.23 1.367-2.18 1.883-.95.518-1.925.818-2.804.848-.88.03-1.852-.26-2.325-1.107l-1.846-3.32c-.08 1.558.097 3.13.7 4.208 1.11 1.986 3.453 2.96 5.794 2.545.172-.034.352-.02.517.037 1.27.426 2.858 1.317 4.69 3.135l21.776 21.617 2.694-2.656L36.015 20.63c-1.65-1.64-2.548-3.086-3.026-4.28-.073-.187-.086-.396-.038-.59.31-1.238.2-2.58-.442-3.727-.586-1.048-1.827-2.008-3.174-2.766z" fill="none" stroke="url(#w)" stroke-linecap="round" stroke-linejoin="round" stroke-dashoffset=".361"/></g></g></svg>