<svg xmlns="http://www.w3.org/2000/svg" xmlns:xlink="http://www.w3.org/1999/xlink" width="32" height="32"><defs><linearGradient id="b"><stop offset="0" stop-color="#fff"/><stop offset=".405" stop-color="#fff" stop-opacity=".235"/><stop offset=".744" stop-color="#fff" stop-opacity=".157"/><stop offset="1" stop-color="#fff" stop-opacity=".392"/></linearGradient><linearGradient y2="27.913" x2="107.101" y1="27.59" x1="82.924" spreadMethod="reflect" gradientTransform="matrix(-.22263 -.3738 .38562 -.21582 26.913 54.14)" gradientUnits="userSpaceOnUse" id="d" xlink:href="#a"/><linearGradient id="a"><stop offset="0" stop-color="#c2c3c4"/><stop offset=".095" stop-color="#c4c5c8"/><stop offset="1" stop-color="#fcfcfc"/></linearGradient><linearGradient gradientUnits="userSpaceOnUse" y2="15.044" x2="16.016" y1="1.894" x1="16.016" id="f" xlink:href="#b" gradientTransform="translate(.008 .014)"/><linearGradient id="c"><stop offset="0" stop-opacity=".34"/><stop offset="1" stop-opacity=".247"/></linearGradient><linearGradient xlink:href="#c" id="e" x1=".11" y1="11.067" x2="22.258" y2="11.067" gradientUnits="userSpaceOnUse"/><linearGradient id="g" gradientTransform="matrix(.15797 -.15797 .15498 .15498 9.975 8.564)" gradientUnits="userSpaceOnUse" x1="39.401" x2="-33.299" y1="-5.302" y2="68.803"><stop offset="0" stop-color="#90dbec"/><stop offset=".262" stop-color="#55c1ec"/><stop offset=".705" stop-color="#3689e6"/><stop offset="1" stop-color="#2b63a0"/></linearGradient><linearGradient id="h" gradientTransform="matrix(.15797 -.15797 .15498 .15498 9.975 8.564)" gradientUnits="userSpaceOnUse" x1="32.326" x2="7.347" y1="5.02" y2="39.696"><stop offset="0" stop-color="#fff"/><stop offset="1" stop-color="#fff" stop-opacity="0"/></linearGradient></defs><path d="M10.112 20.64l2.344-1.353 2.578-10.153 7.757-4.49c-.196-1.9-.476-2.214-1.814-3.31l-7.828 4.532L3.1 3.056.754 4.41l4.618 7.994z" fill="url(#d)" fill-rule="evenodd" stroke="url(#e)" stroke-width=".75" stroke-linejoin="round" transform="rotate(120 15.433 12.636) scale(1.33333)"/><path d="M10.384 19.6l1.397-.808 2.55-10.436 7.426-4.207c-.117-1.22-.285-1-.942-1.63L13.47 6.862 3.206 3.87l-1.428.826z" fill="none" stroke="url(#f)" stroke-width=".75" transform="rotate(120 15.433 12.636) scale(1.33333)"/><path d="M17.488 2.23l-.006 1.293c-1.205.023-2.348.42-3.263 1.317-1.864 1.823-1.916 4.82-.08 6.586 1.424 1.37 2.78 1.32 3.292 1.334.68.02 3.8-.417 4.61-3.76H20.21c-.056 1.197-3.45 2.47-4.608.988-.698-.893-.99-2.7-.008-3.65.397-.385 1.34-.885 1.888-.9l.006 1.375L19 5.62v-.28h.357l.926-.73z" fill="url(#g)" transform="translate(1.833 14.307) scale(1.33333)"/><path d="M25.15 17.278l-.007 1.727c-1.608.03-3.13.56-4.352 1.755-2.482 2.43-2.478 6.354-.106 8.78 1.185 1.213 2.727 1.773 4.284 1.793.263.003.516-.007.758-.03 3.897-.353 5.334-3.57 5.607-4.996h-2.617c-.32 1.54-4.38 3.518-6.08 1.318-.925-1.196-1.32-3.6-.01-4.868.528-.513 1.788-1.18 2.517-1.2l.008 1.833 3.727-2.937-3.726-3.175z" fill="none" stroke="#559ac6" stroke-width=".9999974999999999" stroke-linejoin="round"/><path d="M18.145 3.613v.408a.203.203 0 0 1-.213.205c-1.188-.054-2.408.245-3.274 1.11-1.606 1.607-1.51 4.166-.035 5.642.864.863 1.938 1.084 2.588 1.148 1.4.138 2.56-.41 3.347-1.166.707-.68 1.068-1.517 1.06-2.112l-.8.125c-.054.36-.234.722-.538 1.06-.356.396-.846.757-1.41 1.008-1.126.503-2.58.546-3.72-.57-.638-.63-.928-1.528-.92-2.398.01-.87.313-1.726.91-2.277.477-.44 1.265-.992 2.8-.992a.203.203 0 0 1 .205.203v.474l1.166-.88z" opacity=".4" fill="none" stroke="url(#h)" stroke-width=".75" transform="translate(1.833 14.307) scale(1.33333)"/></svg>