<svg xmlns="http://www.w3.org/2000/svg" xmlns:xlink="http://www.w3.org/1999/xlink" width="32" height="32"><defs><linearGradient id="d"><stop offset="0" stop-color="#fff"/><stop offset=".405" stop-color="#fff" stop-opacity=".235"/><stop offset=".744" stop-color="#fff" stop-opacity=".157"/><stop offset="1" stop-color="#fff" stop-opacity=".392"/></linearGradient><linearGradient y2="27.913" x2="107.101" y1="27.59" x1="82.924" spreadMethod="reflect" gradientTransform="matrix(-.22263 -.3738 .38562 -.21582 26.913 54.14)" gradientUnits="userSpaceOnUse" id="h" xlink:href="#a"/><linearGradient id="a"><stop offset="0" stop-color="#c2c3c4"/><stop offset=".095" stop-color="#c4c5c8"/><stop offset="1" stop-color="#fcfcfc"/></linearGradient><linearGradient id="b"><stop offset="0" stop-color="#fff"/><stop offset="1" stop-color="#9d9d9d"/></linearGradient><linearGradient id="c"><stop offset="0" stop-color="#cfd1d3"/><stop offset="1" stop-color="#cfd1d3" stop-opacity="0"/></linearGradient><linearGradient gradientUnits="userSpaceOnUse" y2="15.044" x2="16.016" y1="1.894" x1="16.016" id="j" xlink:href="#d" gradientTransform="translate(.008 .014)"/><linearGradient id="e"><stop offset="0" stop-color="#f4f4f4"/><stop offset="1" stop-color="#dbdbdb"/></linearGradient><linearGradient id="f"><stop offset="0" stop-color="#fff"/><stop offset="0" stop-color="#fff" stop-opacity=".235"/><stop offset="1" stop-color="#fff" stop-opacity=".157"/><stop offset="1" stop-color="#fff" stop-opacity=".392"/></linearGradient><linearGradient id="g"><stop offset="0" stop-opacity=".34"/><stop offset="1" stop-opacity=".247"/></linearGradient><linearGradient xlink:href="#g" id="i" x1=".11" y1="11.067" x2="22.258" y2="11.067" gradientUnits="userSpaceOnUse"/><radialGradient id="k" cx="5.78" cy="8.45" gradientTransform="matrix(0 .89893 -.95096 0 649.035 -150.015)" gradientUnits="userSpaceOnUse" r="20"><stop offset="0" stop-color="#90dbec"/><stop offset=".262" stop-color="#55c1ec"/><stop offset=".705" stop-color="#3689e6"/><stop offset="1" stop-color="#2b63a0"/></radialGradient><linearGradient id="l" gradientTransform="translate(631.768 -145.232) scale(.38465)" gradientUnits="userSpaceOnUse" x1="24" x2="24" y1="44" y2="3.899"><stop offset="0" stop-color="#185f9a"/><stop offset="1" stop-color="#599ec9"/></linearGradient><linearGradient id="m" gradientUnits="userSpaceOnUse" x1="640.814" x2="640.814" y1="-142.718" y2="-129.33"><stop offset="0" stop-color="#fff"/><stop offset=".508" stop-color="#fff" stop-opacity=".235"/><stop offset=".835" stop-color="#fff" stop-opacity=".157"/><stop offset="1" stop-color="#fff" stop-opacity=".392"/></linearGradient></defs><path d="M10.112 20.64l2.344-1.353 2.578-10.153 7.757-4.49c-.197-1.9-.477-2.214-1.815-3.31l-7.828 4.532L3.1 3.056.754 4.41l4.618 7.994z" fill="url(#h)" fill-rule="evenodd" stroke="url(#i)" stroke-width=".75" stroke-linejoin="round" transform="rotate(120 15.433 12.636) scale(1.33333)"/><path d="M10.384 19.6l1.397-.808 2.55-10.436 7.425-4.207c-.117-1.22-.285-1-.942-1.63L13.47 6.863 3.206 3.87l-1.428.826z" fill="none" stroke="url(#j)" stroke-width=".75" transform="rotate(120 15.433 12.636) scale(1.33333)"/><path d="M641-143.5c-4.138 0-7.5 3.362-7.5 7.5s3.362 7.5 7.5 7.5 7.5-3.362 7.5-7.5-3.362-7.5-7.5-7.5z" fill="url(#k)" stroke="url(#l)" stroke-width="1.091" stroke-linecap="round" stroke-linejoin="round" transform="matrix(.91733 0 0 .91636 -563.386 149.252)"/><path d="M647.5-136c0 3.59-2.91 6.5-6.5 6.5s-6.5-2.91-6.5-6.5 2.91-6.5 6.5-6.5 6.5 2.91 6.5 6.5z" opacity=".5" fill="none" stroke="url(#m)" stroke-width="1.091" stroke-linecap="round" stroke-linejoin="round" transform="matrix(.91733 0 0 .91636 -563.386 149.252)"/><path d="M28.49 19.502a1.872 1.87 0 0 0-.086.086l-3.842 4.18-1.376-1.374a1.872 1.87 0 0 0-2.637 0l-1.835 1.833a1.872 1.87 0 0 0-.488.8 1.872 1.87 0 0 0 0 .06c.038.532.127 1.056.287 1.545a1.872 1.87 0 0 0 .344.372l4.586 3.666a1.872 1.87 0 0 0 .66.343c.02.002.038 0 .057 0a1.872 1.87 0 0 0 .116.03c.114.005.228 0 .344 0 .164 0 .326-.017.487-.03a1.872 1.87 0 0 0 .89-.544l5.015-5.384c.01-.152.03-.304.03-.458 0-2.088-1.006-3.955-2.552-5.126z" opacity=".1" fill="#185f9a"/><path d="M29.235 20.19a.87.87 0 0 0-.086.056l-4.56 4.983-2.12-2.12a.87.87 0 0 0-1.204 0l-1.835 1.833a.87.87 0 0 0 .058 1.288l4.587 3.667a.87.87 0 0 0 1.175-.086l5.705-6.127c-.2-1.35-.815-2.556-1.72-3.494z" opacity=".25" fill="#185f9a"/><path d="M29.783 20.847l-5.16 5.613-2.752-2.75-1.834 1.833 4.587 3.666 6.106-6.56z" fill="#fff"/></svg>