<?xml version="1.0" encoding="UTF-8" standalone="no"?>
<svg
   xmlns:dc="http://purl.org/dc/elements/1.1/"
   xmlns:cc="http://creativecommons.org/ns#"
   xmlns:rdf="http://www.w3.org/1999/02/22-rdf-syntax-ns#"
   xmlns:svg="http://www.w3.org/2000/svg"
   xmlns="http://www.w3.org/2000/svg"
   xmlns:xlink="http://www.w3.org/1999/xlink"
   xmlns:sodipodi="http://sodipodi.sourceforge.net/DTD/sodipodi-0.dtd"
   xmlns:inkscape="http://www.inkscape.org/namespaces/inkscape"
   height="32"
   width="32"
   version="1.1"
   id="svg72"
   sodipodi:docname="formatallnotes.svg"
   inkscape:version="0.92.4 (unknown)"
   inkscape:export-filename="/home/rizmut/Dokumen/Rizmut/Github/libreoffice-style-elementary/images_elementary/cmd/32/formatallnotes.png"
   inkscape:export-xdpi="96"
   inkscape:export-ydpi="96">
  <metadata
     id="metadata78">
    <rdf:RDF>
      <cc:Work
         rdf:about="">
        <dc:format>image/svg+xml</dc:format>
        <dc:type
           rdf:resource="http://purl.org/dc/dcmitype/StillImage" />
        <dc:title></dc:title>
      </cc:Work>
    </rdf:RDF>
  </metadata>
  <defs
     id="defs76" />
  <sodipodi:namedview
     pagecolor="#ffffff"
     bordercolor="#666666"
     borderopacity="1"
     objecttolerance="10"
     gridtolerance="10"
     guidetolerance="10"
     inkscape:pageopacity="0"
     inkscape:pageshadow="2"
     inkscape:window-width="1366"
     inkscape:window-height="706"
     id="namedview74"
     showgrid="false"
     inkscape:zoom="7.375"
     inkscape:cx="-1.0847458"
     inkscape:cy="16"
     inkscape:window-x="0"
     inkscape:window-y="0"
     inkscape:window-maximized="1"
     inkscape:current-layer="svg72" />
  <linearGradient
     id="a"
     gradientTransform="matrix(.36682503 0 0 .35447295 46.948399 24.314667)"
     gradientUnits="userSpaceOnUse"
     x1="5.515625"
     x2="2.93"
     y1="-26.405602"
     y2="28.474001">
    <stop
       offset="0"
       stop-color="#f8b17e"
       id="stop2" />
    <stop
       offset=".312"
       stop-color="#e35d4f"
       id="stop4" />
    <stop
       offset=".571"
       stop-color="#c6262e"
       id="stop6" />
    <stop
       offset="1"
       stop-color="#690b54"
       id="stop8" />
  </linearGradient>
  <linearGradient
     id="b"
     gradientTransform="matrix(.63360687 0 0 .63805131 25.357512 17.616261)"
     gradientUnits="userSpaceOnUse"
     x1="1.004"
     x2=".228"
     y1="20.709"
     y2="-4.382">
    <stop
       offset="0"
       stop-color="#791235"
       id="stop11" />
    <stop
       offset="1"
       stop-color="#dd3b27"
       id="stop13" />
  </linearGradient>
  <linearGradient
     id="c"
     gradientTransform="matrix(.53153 -.53097 .53153 .53097 -14.042 11.965)"
     gradientUnits="userSpaceOnUse"
     x1="36.011"
     x2="16.331"
     xlink:href="#d"
     y1="13.023"
     y2="32.702" />
  <linearGradient
     id="d">
    <stop
       offset="0"
       stop-color="#fff"
       id="stop17" />
    <stop
       offset="1"
       stop-color="#fff"
       stop-opacity="0"
       id="stop19" />
  </linearGradient>
  <linearGradient
     id="e"
     gradientTransform="matrix(.53153 -.53097 .53153 .53097 -14.578 12.234)"
     gradientUnits="userSpaceOnUse"
     x1="28.449"
     x2="16.331"
     xlink:href="#d"
     y1="20.584"
     y2="32.702" />
  <radialGradient
     id="f"
     cx="6.703"
     cy="73.616"
     gradientTransform="matrix(1.96254 0 0 .3559 -.24 3.227)"
     gradientUnits="userSpaceOnUse"
     r="7.228">
    <stop
       offset="0"
       stop-opacity=".326"
       id="stop23" />
    <stop
       offset=".5"
       stop-opacity=".192"
       id="stop25" />
    <stop
       offset="1"
       stop-opacity="0"
       id="stop27" />
  </radialGradient>
  <radialGradient
     id="g"
     cx="21.96"
     cy="-6.637"
     gradientTransform="matrix(-.00816 1.50586 -1.54218 -.00836 -1.94 -18.638)"
     gradientUnits="userSpaceOnUse"
     r="11.509">
    <stop
       offset="0"
       stop-color="#fff3cb"
       id="stop30" />
    <stop
       offset=".262"
       stop-color="#fdde76"
       id="stop32" />
    <stop
       offset=".661"
       stop-color="#f9c440"
       id="stop34" />
    <stop
       offset="1"
       stop-color="#e48b20"
       id="stop36" />
  </radialGradient>
  <linearGradient
     id="h"
     gradientTransform="matrix(.52016 -.04737 .05115 .56654 -1.57 7.52)"
     gradientUnits="userSpaceOnUse"
     x1="27.261"
     x2="25.011"
     y1="11.249"
     y2="31.265">
    <stop
       offset="0"
       stop-color="#fff"
       id="stop39" />
    <stop
       offset=".334"
       stop-color="#fff"
       stop-opacity=".235"
       id="stop41" />
    <stop
       offset=".679"
       stop-color="#fff"
       stop-opacity=".157"
       id="stop43" />
    <stop
       offset="1"
       stop-color="#fff"
       stop-opacity=".392"
       id="stop45" />
  </linearGradient>
  <radialGradient
     id="i"
     cx="19.340446"
     cy="-6.15088"
     fx="19.340446"
     fy="-6.15088"
     gradientTransform="matrix(-2.466118 -.43902932 .27030516 -1.5183294 64.06622 14.050101)"
     gradientUnits="userSpaceOnUse"
     r="11.509"
     xlink:href="#g" />
  <linearGradient
     id="j"
     gradientTransform="matrix(.52016 -.04737 .05115 .56654 -1.57 7.52)"
     gradientUnits="userSpaceOnUse"
     x1="27.261"
     x2="25.011"
     xlink:href="#h"
     y1="11.249"
     y2="31.265" />
  <path
     d="m10.44 10.395c-5.636.83-9.806 4.708-9.427 8.906.245 2.72 2.335 4.957 5.323 6.138l-1.246 4.851 5.517-3.984.038-.003c.68.032 1.365.043 2.075-.022 6.06-.55 10.665-4.576 10.267-8.98-.397-4.406-5.65-7.533-11.707-6.98-.284.025-.562.035-.84.075z"
     fill="url(#g)"
     fill-rule="evenodd"
     transform="matrix(.9874 0 0 .9874 .554 -.77)"
     id="path50" />
  <path
     d="m10.863 9.495c-5.565.82-9.683 4.647-9.31 8.793.243 2.684 2.307 4.894 5.257 6.06l-1.23 4.79 5.447-3.933.038-.004c.673.033 1.348.044 2.05-.02 5.98-.545 10.53-4.52 10.137-8.87-.393-4.348-5.58-7.436-11.56-6.89-.28.025-.556.034-.83.074z"
     fill="none"
     opacity=".5"
     stroke="#956500"
     stroke-linejoin="round"
     stroke-width="1.000236"
     id="path52" />
  <path
     d="m10.628 11.237c-4.83.702-9.086 3.826-8.75 8.057.225 2.84 2.873 4.77 5.627 5.665l-1.01 3.198 3.767-2.675c.583.025 1.694.07 2.302.015 4.598-.42 10.19-3.886 9.657-8.11-.537-4.273-5.637-6.716-10.873-6.216-.243.023-.482.03-.72.065z"
     fill="none"
     opacity=".8"
     stroke="url(#h)"
     stroke-width="1.013"
     transform="matrix(.9874 0 0 .9874 .554 -.77)"
     id="path54" />
  <path
     d="m27.1 29.427c0 1.42-6.35 2.573-14.185 2.573s-14.185-1.152-14.185-2.573c0-1.42 6.35-2.572 14.185-2.572s14.186 1.152 14.186 2.572z"
     fill="url(#f)"
     opacity=".4"
     transform="matrix(.9874 0 0 .9874 .554 -.77)"
     id="path56" />
  <path
     d="m10.44 10.395c-5.636.83-9.806 4.708-9.427 8.906.245 2.72 2.335 4.957 5.323 6.138l-1.246 4.851 5.517-3.984.038-.003c.68.032 1.365.043 2.075-.022 6.06-.55 10.665-4.576 10.267-8.98-.397-4.406-5.65-7.533-11.707-6.98-.284.025-.562.035-.84.075z"
     fill="url(#i)"
     fill-rule="evenodd"
     transform="matrix(-.9874 0 0 .9874 31.897 -9.49)"
     id="path58" />
  <path
     d="m21.588.775c5.565.82 9.683 4.647 9.31 8.793-.243 2.684-2.307 4.894-5.257 6.06l1.232 4.79-5.448-3.933-.038-.004c-.673.033-1.348.044-2.05-.02-5.98-.545-10.53-4.52-10.137-8.87.39-4.348 5.577-7.436 11.56-6.891.28.025.555.034.828.074z"
     fill="none"
     opacity=".5"
     stroke="#956500"
     stroke-linejoin="round"
     stroke-width="1.000236"
     id="path60" />
  <path
     d="m10.628 11.237c-4.83.702-9.086 3.826-8.75 8.057.225 2.84 2.873 4.77 5.627 5.665l-1.01 3.198 3.767-2.675c.583.025 1.694.07 2.302.015 4.598-.42 10.19-3.886 9.657-8.11-.537-4.273-5.637-6.716-10.873-6.216-.243.023-.482.03-.72.065z"
     fill="none"
     opacity=".8"
     stroke="url(#j)"
     stroke-width="1.013"
     transform="matrix(-.9874 0 0 .9874 31.897 -9.49)"
     id="path62" />
</svg>
