<svg xmlns="http://www.w3.org/2000/svg" xmlns:xlink="http://www.w3.org/1999/xlink" width="32" height="32"><defs><linearGradient id="b"><stop offset="0" stop-color="#fff"/><stop offset=".405" stop-color="#fff" stop-opacity=".235"/><stop offset=".744" stop-color="#fff" stop-opacity=".157"/><stop offset="1" stop-color="#fff" stop-opacity=".392"/></linearGradient><linearGradient y2="27.913" x2="107.101" y1="27.59" x1="82.924" spreadMethod="reflect" gradientTransform="matrix(-.22263 -.3738 .38562 -.21582 26.913 54.14)" gradientUnits="userSpaceOnUse" id="j" xlink:href="#a"/><linearGradient id="a"><stop offset="0" stop-color="#c2c3c4"/><stop offset=".095" stop-color="#c4c5c8"/><stop offset="1" stop-color="#fcfcfc"/></linearGradient><linearGradient gradientUnits="userSpaceOnUse" y2="15.044" x2="16.016" y1="1.894" x1="16.016" id="k" xlink:href="#b" gradientTransform="translate(.008 .014)"/><linearGradient id="c"><stop offset="0" stop-opacity=".34"/><stop offset="1" stop-opacity=".247"/></linearGradient><linearGradient xlink:href="#c" id="i" x1=".11" y1="11.067" x2="22.258" y2="11.067" gradientUnits="userSpaceOnUse"/><radialGradient r="20" fy="8.45" fx="5.78" cy="8.45" cx="5.78" gradientTransform="matrix(0 .89893 -.95096 0 16.035 9.985)" gradientUnits="userSpaceOnUse" id="l" xlink:href="#d"/><linearGradient id="d"><stop offset="0" stop-color="#90dbec"/><stop offset=".262" stop-color="#55c1ec"/><stop offset=".705" stop-color="#3689e6"/><stop offset="1" stop-color="#2b63a0"/></linearGradient><linearGradient y2="3.899" x2="24" y1="44" x1="24" gradientTransform="translate(-1.232 14.768) scale(.38465)" gradientUnits="userSpaceOnUse" id="m" xlink:href="#e"/><linearGradient id="e"><stop offset="0" stop-color="#185f9a"/><stop offset="1" stop-color="#599ec9"/></linearGradient><linearGradient xlink:href="#f" id="n" gradientUnits="userSpaceOnUse" gradientTransform="translate(-17.204 15.09) scale(.35135)" x1="71.204" y1="6.238" x2="71.204" y2="44.341"/><linearGradient id="f"><stop offset="0" stop-color="#fff"/><stop offset=".508" stop-color="#fff" stop-opacity=".235"/><stop offset=".835" stop-color="#fff" stop-opacity=".157"/><stop offset="1" stop-color="#fff" stop-opacity=".392"/></linearGradient><linearGradient xlink:href="#g" id="o" gradientUnits="userSpaceOnUse" gradientTransform="translate(-.67 15.22) scale(.36122)" x1="27.925" y1="15.149" x2="33.448" y2="22.986"/><linearGradient id="g"><stop offset="0" stop-color="#f8b17e"/><stop offset=".232" stop-color="#e35d4f"/><stop offset=".591" stop-color="#c6262e"/><stop offset="1" stop-color="#690b54"/></linearGradient><linearGradient xlink:href="#h" id="p" gradientUnits="userSpaceOnUse" gradientTransform="translate(-.67 15.22) scale(.36122)" x1="21.014" y1="25.434" x2="22.806" y2="27.344"/><linearGradient id="h"><stop offset="0" stop-color="#fff"/><stop offset="1" stop-color="#c1c1c1"/></linearGradient><linearGradient xlink:href="#h" id="q" gradientUnits="userSpaceOnUse" gradientTransform="matrix(.5 0 0 .5 -4 12)" x1="24" y1="22" x2="24" y2="26"/></defs><g stroke-width=".75"><path transform="matrix(-.7 1.2 -1.2 -.7 34.1 5.6)" stroke-linejoin="round" stroke="url(#i)" fill-rule="evenodd" fill="url(#j)" d="M10.112 20.64l2.344-1.353 2.578-10.153 7.757-4.49c-.195-1.9-.475-2.214-1.813-3.31L13.15 5.866 3.1 3.056.754 4.41l4.618 7.994z"/><path transform="matrix(-.7 1.2 -1.2 -.7 34.1 5.6)" stroke="url(#k)" fill="none" d="M10.384 19.6l1.397-.808 2.55-10.436 7.427-4.207c-.117-1.22-.285-1-.942-1.63L13.47 6.86 3.206 3.87l-1.428.826z"/></g><path overflow="visible" d="M8 16.5C3.862 16.5.5 19.862.5 24s3.362 7.5 7.5 7.5 7.5-3.362 7.5-7.5-3.362-7.5-7.5-7.5z" color="#000" fill="url(#l)" stroke="url(#m)" stroke-linecap="round" stroke-linejoin="round" transform="translate(16)"/><path overflow="visible" d="M14.5 24c0 3.59-2.91 6.5-6.5 6.5S1.5 27.59 1.5 24s2.91-6.5 6.5-6.5 6.5 2.91 6.5 6.5z" color="#000" opacity=".5" fill="none" stroke="url(#n)" stroke-linecap="round" stroke-linejoin="round" transform="translate(16)"/><path overflow="visible" d="M28.563 19.216a.588.588 0 0 0-.334.128l-5.11 4.086a.588.588 0 0 0-.092.092l-4.084 5.108a.588.588 0 0 0 .827.826l5.11-4.086a.588.588 0 0 0 .093-.092l4.086-5.107a.588.588 0 0 0-.494-.953z" color="#000" opacity=".05"/><path overflow="visible" d="M28.598 19.802l-5.103 4.088-4.086 5.1 5.812-3.536z" color="#000" opacity=".15"/><path d="M7 23l2 2 3.598-5.708z" fill="url(#o)" transform="translate(16)"/><path overflow="visible" d="M7 23l2 2-5.597 3.487z" color="#000" fill="url(#p)" transform="translate(16)"/><path overflow="visible" d="M25.25 24.25a1.25 1.25 0 0 1-2.5 0 1.25 1.25 0 1 1 2.5 0z" color="#000" opacity=".2"/><path overflow="visible" d="M23.754 24.154a.36.36 0 0 1 .246-.626v.36z" color="#000" opacity=".05" fill="#fff"/><path overflow="visible" d="M25 24.25a1 1 0 0 1-2 0 1 1 0 1 1 2 0z" color="#000" opacity=".2"/><path overflow="visible" d="M9 24a1 1 0 0 1-2 0 1 1 0 1 1 2 0z" color="#000" fill="url(#q)" transform="translate(16)"/></svg>