<svg xmlns="http://www.w3.org/2000/svg" xmlns:xlink="http://www.w3.org/1999/xlink" height="32" width="32"><defs><linearGradient id="b"><stop offset="0" stop-color="#0d0d0d"/><stop offset="1" stop-color="#727272"/></linearGradient><linearGradient xlink:href="#a" id="j" x1="10.803" y1="-3.027" x2="10.909" y2="10.244" gradientUnits="userSpaceOnUse"/><linearGradient xlink:href="#b" id="k" x1="10.557" y1="11.323" x2="10.9" y2="16.716" gradientUnits="userSpaceOnUse"/></defs><linearGradient id="c"><stop offset="0"/><stop offset="1" stop-opacity="0"/></linearGradient><linearGradient id="d" gradientTransform="matrix(.0207 0 0 .00618 23.006 8.634)" gradientUnits="userSpaceOnUse" x1="302.857" x2="302.857" y1="366.648" y2="609.505"><stop offset="0" stop-opacity="0"/><stop offset=".5"/><stop offset="1" stop-opacity="0"/></linearGradient><radialGradient id="e" cx="605.714" cy="486.648" gradientTransform="matrix(-.00803 0 0 .00618 30.332 8.634)" gradientUnits="userSpaceOnUse" r="117.143" xlink:href="#c"/><radialGradient id="f" cx="605.714" cy="486.648" gradientTransform="matrix(.00803 0 0 .00618 30.65 8.634)" gradientUnits="userSpaceOnUse" r="117.143" xlink:href="#c"/><linearGradient id="g" gradientTransform="matrix(.46667 0 0 -.5 -.933 -.75)" gradientUnits="userSpaceOnUse" x1="25.5" x2="26" y1="-13.625" y2="-39.125"><stop offset="0" stop-color="#e2b369"/><stop offset="1" stop-color="#c79b55"/></linearGradient><linearGradient id="a" gradientTransform="matrix(.42857 0 0 .46667 0 -.067)" gradientUnits="userSpaceOnUse" x1="14.389" x2="14.389" y1="-8.841" y2="-40.204"><stop offset="0" stop-color="#fff"/><stop offset=".062" stop-color="#fff" stop-opacity=".235"/><stop stop-opacity=".42" stop-color="#fff" offset=".515"/><stop stop-opacity=".849" stop-color="#fff" offset=".562"/><stop stop-opacity=".196" stop-color="#fff" offset=".614"/><stop offset=".963" stop-color="#fff" stop-opacity=".157"/><stop offset="1" stop-color="#fff" stop-opacity=".392"/></linearGradient><linearGradient id="h" gradientUnits="userSpaceOnUse" x1="10" x2="10" y1="-1" y2="9"><stop offset="0" stop-color="#fff"/><stop offset=".066" stop-color="#ddd"/><stop offset=".661" stop-color="#abacae"/><stop offset="1" stop-color="#89898b"/></linearGradient><linearGradient id="i" gradientUnits="userSpaceOnUse" x1="10.502" x2="10.502" y1=".998" y2="5"><stop offset="0" stop-color="#fff"/><stop offset="1" stop-color="#fff" stop-opacity="0"/></linearGradient><g transform="translate(6.378 6.493) scale(1.33333)"><path d="M25.492 10.898h10v1.5h-10z" transform="matrix(1.14407 0 0 1 -24.156 6.77)" opacity=".15" fill="url(#d)"/><path d="M25.492 10.898v1.5c-.414.003-1-.336-1-.75s.46-.75 1-.75z" transform="matrix(1.14407 0 0 1 -24.156 6.77)" opacity=".15" fill="url(#e)"/><path d="M35.492 10.898v1.5c.414.003 1-.336 1-.75s-.462-.75-1-.75z" transform="matrix(1.14407 0 0 1 -24.156 6.77)" opacity=".15" fill="url(#f)"/><path d="M10.557-4.495c-.966 0-1.85.063-1.807 1.995.026 1.147.585 2.308.88 4.016.05.29-.23 1.682-.265 2.26H6.1c-.83 0-1.5.668-1.5 1.5v5.167h12.01V5.275c0-.83-.67-1.5-1.5-1.5h-3.366c-.035-.612-.262-2.03-.273-2.17-.122-1.503.696-2.932.78-4.105.14-1.928-.725-1.995-1.692-1.995z" display="block" fill="url(#g)" stroke="#66430b" stroke-width=".75" stroke-opacity=".498"/><path transform="translate(2 6)" display="block" d="M14.565 4.49l.015-2.995-11.98.037-.004 2.993z" fill="url(#h)" stroke="#000" stroke-width=".75" stroke-opacity=".345"/><path d="M2.63 2.63c-.04-.632.226-.664 1.018-.63h9.95c.464.074.924-.254.982.63H3.63z" transform="translate(2 6)" fill="url(#i)" opacity=".65"/><path d="M10.557-3.813c-.244 0-.43.018-.56.038-.067.01-.117.018-.16.03-.02.004-.04.01-.058.016l-.033.014-.02.012-.04.023s-.062.052-.096.105c-.034.052-.062.117-.087.203-.05.173-.084.43-.074.857.02.958.557 2.11.87 3.914a.267.267 0 0 0 .53-.05c-.012-.825.15-1.596.33-2.257.18-.662.377-1.198.41-1.64.03-.43.01-.68-.028-.847-.02-.082-.04-.144-.068-.193-.014-.024-.03-.045-.045-.064-.01-.01-.016-.018-.03-.03l-.032-.024s-.076.1-.15.203l-.036-.243.037-.002h.03l-.005-.002c-.03-.007-.077-.016-.14-.025-.122-.02-.305-.04-.55-.04zm.422.23l.23.097-.154.213-.03-.028-.048-.08-.02-.06v-.084l.02-.06zM10.55 1.62a.267.267 0 0 0-.258.23c-.008.05-.004.044-.004.06v.357c-.022.172-.054.357-.09.548-.07.388-.14.786-.153 1.004-.022.362-.32.64-.682.64H6.1c-.45 0-.817.37-.82.816v4.21a.267.267 0 0 0 .273.267l10.11-.123a.267.267 0 0 0 .265-.27V5.276c0-.448-.37-.818-.82-.818h-3.364c-.364 0-.66-.28-.68-.643-.016-.25-.075-.668-.136-1.033-.03-.18-.06-.35-.084-.485.005.03-.002-.015-.004-.055l-.004-.14-.006-.143c-.002-.043.006-.038-.01-.12a.267.267 0 0 0-.267-.217z" display="block" opacity=".65" fill="none" stroke="url(#j)" stroke-width=".75"/><path d="M4.217 10.88h12.75v6H4.217z" fill="url(#k)"/><path d="M1.25 14.484l-3.75 1.968c-.715.375.972 1.957 5.216 2.02 1.772.026 3.75.584 5.25-.092l.958.28c.696.205 1.263-.613 2.034-.79.43-.096 1.155.34 1.49.175 1.01-.498 1.785-.472 3.016-.353.554.054 1.346-2.124 1.346-2.51 0-1.352-3.627-.707-6.71-.713l-1.207-.006-1.385.02c-2.352-.452-1.872 1.21-2.49-.69-1.24.83-1.557-2.134-2.072-.61-.228.547-1.08 1.31-1.696 1.3z" fill="#fcaf3e" fill-rule="evenodd" stroke="#ce5c00" stroke-width=".75" stroke-linejoin="round"/><circle transform="rotate(-90)" cx="-16.067" cy=".847" r=".947" overflow="visible" fill="#fff"/></g></svg>