<?xml version="1.0" encoding="UTF-8" standalone="no"?>
<svg
   xmlns:dc="http://purl.org/dc/elements/1.1/"
   xmlns:cc="http://creativecommons.org/ns#"
   xmlns:rdf="http://www.w3.org/1999/02/22-rdf-syntax-ns#"
   xmlns:svg="http://www.w3.org/2000/svg"
   xmlns="http://www.w3.org/2000/svg"
   xmlns:xlink="http://www.w3.org/1999/xlink"
   xmlns:sodipodi="http://sodipodi.sourceforge.net/DTD/sodipodi-0.dtd"
   xmlns:inkscape="http://www.inkscape.org/namespaces/inkscape"
   id="svg2437"
   height="32"
   width="32"
   version="1.1"
   sodipodi:docname="formatpaintbrush.svg"
   inkscape:version="0.92.3 (unknown)"
   inkscape:export-filename="/home/rizmut/Dokumen/Rizmut/Github/libreoffice-style-elementary/images_elementary/cmd/32/formatpaintbrush.png"
   inkscape:export-xdpi="96"
   inkscape:export-ydpi="96">
  <sodipodi:namedview
     pagecolor="#ffffff"
     bordercolor="#666666"
     borderopacity="1"
     objecttolerance="10"
     gridtolerance="10"
     guidetolerance="10"
     inkscape:pageopacity="0"
     inkscape:pageshadow="2"
     inkscape:window-width="1366"
     inkscape:window-height="706"
     id="namedview53"
     showgrid="false"
     inkscape:zoom="29.5"
     inkscape:cx="8.9758051"
     inkscape:cy="5.5864699"
     inkscape:window-x="0"
     inkscape:window-y="0"
     inkscape:window-maximized="1"
     inkscape:current-layer="svg2437" />
  <defs
     id="defs2439">
    <linearGradient
       id="linearGradient6019">
      <stop
         offset="0"
         style="stop-color:#000000;stop-opacity:1"
         id="stop6021" />
      <stop
         offset="1"
         style="stop-color:#000000;stop-opacity:0"
         id="stop6023" />
    </linearGradient>
    <radialGradient
       gradientTransform="matrix(0.66666667,0,0,0.20000004,-9.3333327,13.533331)"
       gradientUnits="userSpaceOnUse"
       xlink:href="#linearGradient6019"
       id="radialGradient6025"
       fy="69"
       fx="28.603323"
       r="20"
       cy="69"
       cx="38" />
    <linearGradient
       id="linearGradient5996">
      <stop
         offset="0"
         style="stop-color:#8f5902;stop-opacity:1"
         id="stop5998" />
      <stop
         offset="1"
         style="stop-color:#73521e;stop-opacity:1"
         id="stop6000" />
    </linearGradient>
    <linearGradient
       gradientTransform="matrix(0.66666667,0,0,0.66666667,-1.3333333,0)"
       gradientUnits="userSpaceOnUse"
       xlink:href="#linearGradient5996"
       id="linearGradient6002"
       y2="24.101694"
       x2="36.542374"
       y1="9.2407961"
       x1="30.324829" />
    <linearGradient
       id="linearGradient5958">
      <stop
         offset="0"
         style="stop-color:#c17d11;stop-opacity:1"
         id="stop5960" />
      <stop
         offset="1"
         style="stop-color:#e9b96e;stop-opacity:1"
         id="stop5962" />
    </linearGradient>
    <linearGradient
       gradientTransform="matrix(0.66666667,0,0,0.66666667,-1.3333333,0)"
       gradientUnits="userSpaceOnUse"
       xlink:href="#linearGradient5958"
       id="linearGradient5964"
       y2="8"
       x2="26"
       y1="27.472578"
       x1="30.279045" />
    <linearGradient
       id="linearGradient5984">
      <stop
         offset="0"
         style="stop-color:#ffffff;stop-opacity:1"
         id="stop5986" />
      <stop
         offset="1"
         style="stop-color:#ffffff;stop-opacity:0.13438736"
         id="stop5988" />
    </linearGradient>
    <linearGradient
       gradientTransform="matrix(0.66666667,0,0,0.66666667,-1.3333333,0)"
       gradientUnits="userSpaceOnUse"
       xlink:href="#linearGradient5984"
       id="linearGradient5994"
       y2="16.685888"
       x2="33.447109"
       y1="8"
       x1="28" />
    <linearGradient
       id="linearGradient5966">
      <stop
         offset="0"
         style="stop-color:#fdef72;stop-opacity:1"
         id="stop5968" />
      <stop
         offset="1"
         style="stop-color:#e2cb0b;stop-opacity:1"
         id="stop5970" />
    </linearGradient>
    <linearGradient
       gradientTransform="matrix(0.66666667,0,0,0.66666667,-1.3333333,0)"
       gradientUnits="userSpaceOnUse"
       xlink:href="#linearGradient5966"
       id="linearGradient5972"
       y2="30.742676"
       x2="30.208115"
       y1="25.060659"
       x1="20.933708" />
    <linearGradient
       id="linearGradient5981">
      <stop
         offset="0"
         style="stop-color:#ffffff;stop-opacity:1"
         id="stop5983" />
      <stop
         offset="1"
         style="stop-color:#ffffff;stop-opacity:0.69411767"
         id="stop5985" />
    </linearGradient>
    <linearGradient
       gradientTransform="matrix(0.66666667,0,0,0.66666667,-1.3333333,0)"
       gradientUnits="userSpaceOnUse"
       xlink:href="#linearGradient5981"
       id="linearGradient5973"
       y2="37.029255"
       x2="18.985712"
       y1="41.955986"
       x1="22.319767" />
    <linearGradient
       id="linearGradient5999">
      <stop
         offset="0"
         style="stop-color:#c4a000;stop-opacity:1"
         id="stop6001" />
      <stop
         offset="1"
         style="stop-color:#c4a000;stop-opacity:0"
         id="stop6003" />
    </linearGradient>
    <linearGradient
       gradientTransform="matrix(0.66666667,0,0,0.66666667,-1.3333333,0)"
       gradientUnits="userSpaceOnUse"
       xlink:href="#linearGradient5999"
       id="linearGradient6005"
       y2="34.728424"
       x2="23.489431"
       y1="36.218422"
       x1="27.354809" />
    <linearGradient
       id="linearGradient5974-892">
      <stop
         offset="0"
         style="stop-color:#919191;stop-opacity:1"
         id="stop2473" />
      <stop
         offset="1"
         style="stop-color:#cecece;stop-opacity:1"
         id="stop2475" />
    </linearGradient>
    <linearGradient
       gradientTransform="matrix(0.65121287,0,0,0.66666667,-0.9164422,0)"
       gradientUnits="userSpaceOnUse"
       xlink:href="#linearGradient5974-892"
       id="linearGradient5980-761"
       y2="20.618719"
       x2="21.59099"
       y1="23.145937"
       x1="27.651777" />
    <linearGradient
       inkscape:collect="always"
       xlink:href="#linearGradient5996"
       id="linearGradient870"
       x1="7.180295"
       y1="12.113278"
       x2="25.403616"
       y2="12.113278"
       gradientUnits="userSpaceOnUse" />
  </defs>
  <metadata
     id="metadata2442">
    <rdf:RDF>
      <cc:Work
         rdf:about="">
        <dc:format>image/svg+xml</dc:format>
        <dc:type
           rdf:resource="http://purl.org/dc/dcmitype/StillImage" />
        <dc:title />
      </cc:Work>
    </rdf:RDF>
  </metadata>
  <path
     d="m 29.333334,27.333333 a 13.333333,4.0000009 0 1 1 -26.6666667,0 13.333333,4.0000009 0 1 1 26.6666667,0 z"
     id="path6017"
     style="opacity:0.25;fill:url(#radialGradient6025);fill-opacity:1;stroke:none;stroke-width:0.81649667" />
  <path
     d="m 12.322034,13.451977 c -1.333954,0.397155 -9.0338716,8.381555 -11.75303559,10.966418 -0.98373217,0.935145 2.01847709,0.838179 1.61917309,1.444917 -0.1592889,0.242039 1.7604778,-2.171555 1.6132339,-1.937148 -1.1105399,1.767944 0.7635106,1.219191 -0.7316016,2.407795 0.445192,0.464932 1.2732358,0.183125 1.7268064,0.584616 L 6.636046,25.210059 5.663296,27.00457 9.4293786,28.949153 11.5,25.5625 9.8587567,29.519774 c 0.9679963,0.392588 3.9898583,1.815033 5.3330013,1.827016 l 2.294716,-4.713243 -1.300902,4.75491 c 0.553042,0.105573 1.625443,0.249477 2.339519,0.270833 2.241458,-3.666666 4.634179,-11.563411 3.300846,-14.230078 z"
     id="path5367"
     style="fill:url(#linearGradient5972);fill-opacity:1;fill-rule:evenodd;stroke:none;stroke-width:0.99999994;stroke-linecap:butt;stroke-linejoin:miter;stroke-miterlimit:20;stroke-dasharray:none;stroke-opacity:1"
     inkscape:connector-curvature="0"
     sodipodi:nodetypes="csssccccccccccccc" />
  <path
     d="m 12.322034,13.451977 c -1.460346,0.434786 -9.3764281,8.270543 -12.05944925,10.97852 -0.74984956,0.756824 2.31353545,1.103736 2.00393435,1.59711 -0.3325787,0.529991 1.4935588,-1.963011 1.3093872,-1.357524 l -0.5061025,1.663876 c 0.445192,0.464932 1.2732358,0.183125 1.7268064,0.584616 l 1.4201977,-1.09993 -0.5535119,1.185925 3.7660826,1.944583 1.2909604,-2.132416 -0.8615823,2.703037 c 0.9679963,0.392588 3.9898583,1.815033 5.3330013,1.827016 l 1.335927,-2.268331 -0.342113,2.309998 c 0.553042,0.105573 1.625443,0.249477 2.339519,0.270833 2.241458,-3.666666 4.634179,-11.563411 3.300846,-14.230078 3.064073,4.048309 -5.973647,-1.942451 -9.503903,-3.977235 z"
     id="path5367-6"
     style="opacity:0.5;fill:none;fill-opacity:1;fill-rule:evenodd;stroke:#ad5f00;stroke-width:0.99999994;stroke-linecap:butt;stroke-linejoin:miter;stroke-miterlimit:20;stroke-dasharray:none;stroke-opacity:1"
     inkscape:connector-curvature="0"
     sodipodi:nodetypes="csssccccccccccccc" />
  <path
     d="M 6.2372881,27.192091 C 9.4482848,23.851494 6.7393939,24.05049 10.50679,21.167956 8.5184949,24.38691 10.738604,23.586751 8.3050847,27.711864 7.1179644,27.007193 6.9039548,27.636535 6.2372881,27.192091 Z"
     id="path5975"
     style="opacity:0.26666667;fill:#c4a000;fill-rule:evenodd;stroke:none;stroke-width:1"
     inkscape:connector-curvature="0"
     sodipodi:nodetypes="cccc" />
  <path
     d="m 10.766539,28.134968 0.835955,-0.711486 c 1.109675,-1.989151 0.07594,-1.335967 1.188807,-2.920834 -1.067969,3.612025 0.631444,-0.411485 -1.128929,3.923987 z"
     id="path5979"
     style="opacity:0.41568627;fill:#c4a000;fill-rule:evenodd;stroke:none;stroke-width:1"
     inkscape:connector-curvature="0"
     sodipodi:nodetypes="ccccc" />
  <path
     d="m 12.614956,14.421378 -1.322034,0.305084 C 9.7698031,15.350592 -0.75853882,25.214354 1.0596678,25.214669 l 1.1822775,2.05e-4 c 1.3522506,2.33e-4 1.4193523,-1.261477 2.0138677,-1.505301 1.381583,-0.566616 0.710846,0.56019 -0.4402465,1.776929 l 1.1709779,0.446194 c 0.319382,-0.265216 3.6078063,-2.412015 3.3787073,-2.06581 l -1.4234621,2.698989 c 0.682761,0.517878 1.3343008,0.791066 2.1147076,1.12904 l 2.7986208,-4.335647 c 0.253205,-0.343888 0.856172,-0.0063 0.690843,0.387415 l -1.372642,5.540827 c 0.536208,0.274245 2.00493,0.786824 3.481459,0.889799 l 1.734183,-1.874231 c 0.206367,-0.341006 1.165241,-2.062322 1.097513,-1.669531 l -0.21375,3.83197 0.806993,0.02628 c 0.844784,-1.589356 2.445188,-3.540698 2.697463,-5.515625 0.111172,-0.870305 0.237427,-2.033016 0.315483,-3.175412 0.115055,-1.683897 0.125386,-3.323657 -0.171674,-3.917772 -0.0021,-0.0045 -0.004,-0.0091 -0.0059,-0.01367 -0.02502,-0.05545 -0.04803,-0.119652 -0.06445,-0.191407 -3.52e-4,-0.0015 -0.0016,-0.0024 -0.002,-0.0039 4.711909,3.617187 -7.064005,-1.84105 -9.555717,-2.947549 z"
     id="path6014"
     style="opacity:0.47843137;fill:none;stroke:url(#linearGradient5973);stroke-width:0.99999994px;stroke-linecap:butt;stroke-linejoin:miter;stroke-opacity:1"
     inkscape:connector-curvature="0"
     sodipodi:nodetypes="ccssscccccccccccccsscccccc" />
  <path
     d="m 12.645833,28.666667 c 1.451711,-3.834581 4.602927,-2.712629 5.683592,-6.623608 0.03436,2.441382 -0.172503,2.802484 -1.600258,7.144441 -0.213178,0.0012 -0.115952,-0.07387 -0.313254,-0.07904 l 0.872845,0.183655 -2.526641,-0.297077 c -1.460538,-0.104216 -0.863074,0.02173 -2.116284,-0.328376 z"
     id="path5977"
     style="opacity:0.24705882;fill:url(#linearGradient6005);fill-opacity:1;fill-rule:evenodd;stroke:none;stroke-width:1"
     inkscape:connector-curvature="0"
     sodipodi:nodetypes="cccccccc" />
  <path
     d="m 14.002045,15.073631 c -0.834664,0.41092 -1.374806,1.018186 -1.988738,1.576259 0.817658,-0.472429 1.585991,-0.965996 2.666382,-1.325825 z"
     id="path5995"
     style="opacity:0.48235294;fill:#c4a000;fill-rule:evenodd;stroke:none;stroke-width:1"
     inkscape:connector-curvature="0"
     sodipodi:nodetypes="cccc" />
  <path
     d="m 15.339132,15.374033 -0.677643,1.325825 1.987142,-1.058833 z"
     id="path5997"
     style="opacity:0.48235294;fill:#c4a000;fill-rule:evenodd;stroke:none;stroke-width:1"
     inkscape:connector-curvature="0"
     sodipodi:nodetypes="cccc" />
  <path
     d="m 7.6341891,17.395824 c -0.377854,-1.97699 12.7642629,3.909845 13.9002539,4.470823 -0.0043,0.719378 0.0339,1.604519 -0.617315,1.604519 C 19.205436,22.542513 9.984021,18.321974 7.6341891,17.395824 Z"
     id="path6013"
     style="opacity:0.2;fill:#000000;fill-opacity:1;fill-rule:evenodd;stroke:none;stroke-width:1"
     inkscape:connector-curvature="0"
     sodipodi:nodetypes="cccc" />
  <path
     d="m 23.0625,1.6458333 c -4.725643,0.060862 -5.826379,7.561997 -7.087339,10.9981387 -0.107259,0.292284 -2.481227,0.404096 -3.7384,0.549108 -1.067098,0.123087 -2.091752,0.399963 -2.189629,0.520946 l -2.4384519,2.522595 c 0.1669986,-0.277448 10.5714579,4.27708 13.9903729,5.607863 0.65751,0.25593 0.641161,0.808127 0.697495,0.730243 0.107593,-0.148751 1.272514,-2.328972 0.792288,-4.246044 -0.444682,-1.775179 -4.33125,-3.696421 -3.676363,-5.108954 C 21.499848,8.7174478 27.532601,2.5702061 23.604167,1.6666667 23.41784,1.6460206 23.238913,1.6435613 23.0625,1.6458333 Z m -0.6875,1.375 c 0.129042,-0.012493 0.245324,0.00381 0.354167,0.0625 0.43537,0.2347484 0.482436,0.9965848 0.104166,1.6875001 C 22.455063,5.4617486 21.789536,5.838915 21.354167,5.6041667 20.918798,5.3694182 20.87173,4.607582 21.25,3.9166667 21.533703,3.3984802 21.987875,3.0583106 22.375,3.0208333 Z"
     id="path5371"
     style="fill:url(#linearGradient5964);fill-opacity:1;fill-rule:evenodd;stroke:none;stroke-width:1px;stroke-linecap:butt;stroke-linejoin:miter;stroke-opacity:1"
     inkscape:connector-curvature="0"
     sodipodi:nodetypes="sssccsssscsccsssc" />
  <path
     d="m 23.068359,2.6933594 c -1.027117,0.013228 -1.757601,0.4809927 -2.503906,1.3828125 -0.739332,0.8933949 -1.376682,2.204974 -1.894531,3.6171875 -0.518915,1.4151179 -0.940782,2.9279666 -1.326172,4.2265626 -0.222828,0.750831 -0.446308,1.327645 -0.689453,1.890625 l -5.617582,0.313736 -2.1822017,1.867062 11.5378847,5.4143 0.445822,-1.851472 -0.507976,-2.866506 -1.761123,-2.444652 c 1.149806,-1.716612 2.176682,-4.4142991 3.753145,-6.9656712 0.870495,-1.4088216 1.486758,-2.7546278 1.613281,-3.5644532 0.06439,-0.4121483 0.0077,-0.6545656 -0.03711,-0.7324218 -0.05416,-0.094216 -0.14078,-0.1780001 -0.498047,-0.2695313 -0.112723,-0.01013 -0.218666,-0.019038 -0.332032,-0.017578 z"
     id="path5992"
     style="opacity:0.26666667;fill:none;stroke:url(#linearGradient5994);stroke-width:1px;stroke-linecap:butt;stroke-linejoin:miter;stroke-opacity:1"
     inkscape:connector-curvature="0"
     sodipodi:nodetypes="cssscccccccsccccc" />
  <path
     sodipodi:nodetypes="sssccsssscsccsssc"
     inkscape:connector-curvature="0"
     style="fill:none;fill-opacity:1;fill-rule:evenodd;stroke:url(#linearGradient870);stroke-width:1px;stroke-linecap:butt;stroke-linejoin:miter;stroke-opacity:1;opacity:0.56"
     id="path862"
     d="m 23.0625,1.6458333 c -4.725643,0.060862 -5.826379,7.561997 -7.087339,10.9981387 -0.107259,0.292284 -2.481227,0.404096 -3.7384,0.549108 -1.067098,0.123087 -2.091752,0.399963 -2.189629,0.520946 l -2.4384519,2.522595 c 0.1669986,-0.277448 10.5714579,4.27708 13.9903729,5.607863 0.65751,0.25593 0.641161,0.808127 0.697495,0.730243 0.107593,-0.148751 1.272514,-2.328972 0.792288,-4.246044 -0.444682,-1.775179 -4.33125,-3.696421 -3.676363,-5.108954 C 21.499848,8.7174478 27.532601,2.5702061 23.604167,1.6666667 23.41784,1.6460206 23.238913,1.6435613 23.0625,1.6458333 Z m -0.6875,1.375 c 0.129042,-0.012493 0.245324,0.00381 0.354167,0.0625 0.43537,0.2347484 0.482436,0.9965848 0.104166,1.6875001 C 22.455063,5.4617486 21.789536,5.838915 21.354167,5.6041667 20.918798,5.3694182 20.87173,4.607582 21.25,3.9166667 21.533703,3.3984802 21.987875,3.0583106 22.375,3.0208333 Z" />
</svg>
