<svg xmlns="http://www.w3.org/2000/svg" xmlns:xlink="http://www.w3.org/1999/xlink" height="32" viewBox="0 0 8.4666665 8.4666668" width="32"><defs><linearGradient id="a" gradientTransform="matrix(.4922 0 0 .4584 4.51 -4.794)" gradientUnits="userSpaceOnUse" x1="23.732" x2="23.732" y1="5.394" y2="39.735"><stop offset="0" stop-color="#90dbec"/><stop offset=".262" stop-color="#55c1ec"/><stop offset=".705" stop-color="#3689e6"/><stop offset="1" stop-color="#2b63a0"/></linearGradient><linearGradient xlink:href="#a" id="g" gradientUnits="userSpaceOnUse" gradientTransform="matrix(.27447 0 0 .28068 -.113 290.553)" x1="8.295" y1="-4.284" x2="8.295" y2="16.85"/></defs><linearGradient id="f" gradientTransform="matrix(0 -.27447 .28068 0 -.23 297.082)" gradientUnits="userSpaceOnUse" x1="8.295" x2="8.295" xlink:href="#a" y1="-4.284" y2="16.85"/><linearGradient id="i" gradientTransform="matrix(0 -.27278 .3079 0 -.187 297.176)" gradientUnits="userSpaceOnUse" x1="11.001" x2="11.001" xlink:href="#b" y1="2.269" y2="19.728"/><linearGradient id="h" gradientTransform="matrix(.27278 0 0 .3079 -.107 290.402)" gradientUnits="userSpaceOnUse" x1="11.001" x2="11.001" xlink:href="#b" y1="2.269" y2="19.728"/><linearGradient id="b"><stop offset="0" stop-color="#fff"/><stop offset=".063" stop-color="#fff" stop-opacity=".235"/><stop offset=".951" stop-color="#fff" stop-opacity=".157"/><stop offset="1" stop-color="#fff" stop-opacity=".392"/></linearGradient><linearGradient id="e" gradientTransform="matrix(.1323 0 0 .06615 -.265 291.444)" gradientUnits="userSpaceOnUse" x1="23.954" x2="23.954" y1="15.999" y2="19.963"><stop offset="0"/><stop offset="1" stop-opacity="0"/></linearGradient><linearGradient id="d" gradientTransform="matrix(.1347 0 0 .14642 -.198 290.374)" gradientUnits="userSpaceOnUse" x1="24" x2="24" xlink:href="#b" y1="5" y2="43"/><linearGradient id="c" gradientTransform="matrix(.11794 0 0 .11905 .212 290.644)" gradientUnits="userSpaceOnUse" x1="25.132" x2="25.132" y1="15.5" y2="48.396"><stop offset="0" stop-color="#fafafa"/><stop offset="1" stop-color="#e2e1de"/></linearGradient><g transform="translate(.176 -387.532) scale(1.33333)"><path d="M.36 296.384c0 .152.183.316.335.316h.846l.013-5.74H.7c-.15 0-.333.144-.333.296z" fill="none" opacity=".4" stroke="#126400" stroke-linecap="round" stroke-width=".201"/><rect fill="url(#c)" height="5.556" rx=".198" width="5.159" x=".463" y="291.047"/><path d="M.543 291.18h4.983l.017 5.555H.56z" fill="none" stroke="url(#d)" stroke-linecap="round" stroke-linejoin="round" stroke-width=".201"/><path d="M.265 292.436H5.82v.198H.266z" fill="url(#e)" opacity=".15"/><path d="M.345 296.372c0 .158.17.225.33.226l.78.005v-5.554l-.78-.007c-.16 0-.32.118-.32.276z" fill="url(#f)"/><path d="M.364 292.24l-.005 4.143c0 .152.153.317.305.317H5.41c.152 0 .307-.166.308-.318l.004-4.145" fill="none" stroke="#004372" stroke-width=".201" stroke-opacity=".49"/><path d="M1.456 292.435h.2v4.167h-.2zm1.39 0h.2v4.167h-.2zm1.388 0h.2v4.167h-.2zm-3.77.794h.992v.196H.464z" opacity=".321"/><path d="M1.654 293.23h1.19v.198h-1.19zm1.39 0h1.19v.198h-1.19zm1.388 0h1.19v.198h-1.19zm-2.778 1.19h1.19v.2h-1.19zm1.39 0h1.19v.2h-1.19zm1.388 0h1.19v.2h-1.19zm-2.778 1.19h1.19v.2h-1.19zm1.39 0h1.19v.2h-1.19zm1.388 0h1.19v.2h-1.19z" opacity=".321"/><path d="M.592 290.944c-.158 0-.226.17-.226.33v.964H5.72v-.963c0-.162-.118-.322-.276-.322z" fill="url(#g)"/><path d="M.68 290.948c-.152 0-.316.184-.316.336v1.048l5.357.004v-1.055c0-.15-.142-.33-.294-.33z" fill="none" stroke="#004372" stroke-linecap="round" stroke-width=".201" stroke-opacity=".49"/><path d="M.56 291.14l.002 1.002 4.975.01v-1.002z" opacity=".5" fill="none" stroke-width=".201" stroke-linecap="round" stroke-linejoin="round" stroke="url(#h)"/><path d="M1.455 291.047h.2v1.19h-.2zm1.39 0h.2v1.19h-.2zm1.388 0h.2v1.19h-.2z" fill="#004372" fill-opacity=".49"/><path d="M.55 296.51l1.003-.003.03-5.358h-1z" opacity=".5" fill="none" stroke-width=".201" stroke-linecap="round" stroke-linejoin="round" stroke="url(#i)"/><path d="M1.654 294.42v.2H.464v-.2zm0 1.19v.2H.464v-.2z" fill="#126400" opacity=".4"/></g></svg>