<svg xmlns="http://www.w3.org/2000/svg" xmlns:xlink="http://www.w3.org/1999/xlink" height="32" viewBox="0 0 8.4666665 8.4666668" width="32"><defs><linearGradient id="a" gradientTransform="matrix(.4922 0 0 .4584 4.51 -4.794)" gradientUnits="userSpaceOnUse" x1="23.732" x2="23.732" y1="5.394" y2="39.735"><stop offset="0" stop-color="#90dbec"/><stop offset=".262" stop-color="#55c1ec"/><stop offset=".705" stop-color="#3689e6"/><stop offset="1" stop-color="#2b63a0"/></linearGradient><linearGradient xlink:href="#a" id="f" gradientUnits="userSpaceOnUse" gradientTransform="matrix(.2745 0 0 .2807 -.113 290.553)" x1="8.295" y1="-4.284" x2="8.295" y2="16.85"/></defs><linearGradient id="g" gradientTransform="matrix(.2728 0 0 .308 -.107 290.402)" gradientUnits="userSpaceOnUse" x1="11.001" x2="11.001" xlink:href="#b" y1="2.269" y2="19.728"/><linearGradient id="b"><stop offset="0" stop-color="#fff"/><stop offset=".063" stop-color="#fff" stop-opacity=".235"/><stop offset=".951" stop-color="#fff" stop-opacity=".157"/><stop offset="1" stop-color="#fff" stop-opacity=".392"/></linearGradient><linearGradient id="e" gradientTransform="matrix(.1323 0 0 .066 -.265 291.444)" gradientUnits="userSpaceOnUse" x1="23.954" x2="23.954" y1="15.999" y2="19.963"><stop offset="0"/><stop offset="1" stop-opacity="0"/></linearGradient><linearGradient id="d" gradientTransform="matrix(.1347 0 0 .1464 -.198 290.374)" gradientUnits="userSpaceOnUse" x1="24" x2="24" xlink:href="#b" y1="5" y2="43"/><linearGradient id="c" gradientTransform="matrix(.118 0 0 .119 .212 290.644)" gradientUnits="userSpaceOnUse" x1="25.132" x2="25.132" y1="15.5" y2="48.396"><stop offset="0" stop-color="#fafafa"/><stop offset="1" stop-color="#e2e1de"/></linearGradient><g transform="matrix(1.3333 0 0 1.3333 .176 -387.532)"><path d="M.364 292.24l-.005 4.143c0 .152.152.317.304.317H5.41c.152 0 .307-.166.308-.318l.004-4.145" stroke-opacity=".49" stroke-width=".201" stroke="#353a3d" fill="none"/><rect height="5.556" rx=".198" width="5.159" x=".463" y="291.047" fill="url(#c)"/><path d="M.543 291.18h4.983l-.023 5.326H.52z" fill="none" stroke="url(#d)" stroke-width=".201" stroke-linecap="round" stroke-linejoin="round"/><path d="M.265 292.436H5.82v.198H.266z" fill="url(#e)" opacity=".15"/><path d="M1.456 292.435h.2v4.167h-.2zm1.39 0h.2v4.167h-.2zm1.388 0h.2v4.167h-.2zm-3.77.794h.992v.195H.464z" opacity=".321"/><path d="M1.654 293.23h1.19v.198h-1.19zm1.39 0h1.19v.198h-1.19zm1.388 0h1.19v.198h-1.19zm-2.778 1.19h1.19v.2h-1.19zm1.39 0h1.19v.2h-1.19zm1.388 0h1.19v.2h-1.19zm-2.778 1.19h1.19v.2h-1.19zm1.39 0h1.19v.2h-1.19zm1.388 0h1.19v.2h-1.19z" opacity=".321"/><path d="M.592 290.944c-.158 0-.226.17-.226.33v.964H5.72v-.963c0-.162-.118-.322-.276-.322z" fill="url(#f)"/><path d="M.68 290.948c-.152 0-.316.184-.316.336v1.048l5.357.004v-1.055c0-.15-.14-.33-.293-.33z" stroke-opacity=".49" stroke-linecap="round" stroke-width=".201" stroke="#004372" fill="none"/><path d="M.56 291.14l.002 1.002 4.975.01v-1.002z" stroke-linejoin="round" stroke-linecap="round" stroke-width=".201" stroke="url(#g)" fill="none" opacity=".5"/><path d="M1.455 291.047h.2v1.19h-.2zm1.39 0h.2v1.19h-.2zm1.388 0h.2v1.19h-.2z" fill-opacity=".49" fill="#004372"/><path d="M1.654 294.42v.2H.464v-.2zm0 1.19v.2H.464v-.2z" fill="#a1a19f"/></g></svg>