<svg xmlns="http://www.w3.org/2000/svg" xmlns:xlink="http://www.w3.org/1999/xlink" height="32" width="32" version="1"><defs><linearGradient id="a"><stop offset="0"/><stop stop-opacity="0" offset="1"/></linearGradient><linearGradient id="e" y2="43" gradientUnits="userSpaceOnUse" x2="24" gradientTransform="matrix(1.09478 0 0 .8656 -2.274 5.725)" y1="5.564" x1="24"><stop stop-color="#fff" offset="0"/><stop stop-color="#fff" stop-opacity=".235" offset=".036"/><stop stop-color="#fff" stop-opacity=".157" offset=".951"/><stop stop-color="#fff" stop-opacity=".392" offset="1"/></linearGradient><linearGradient id="d" y2="47.013" gradientUnits="userSpaceOnUse" x2="25.132" gradientTransform="matrix(1.2571 0 0 .7605 -6.17 7.082)" y1=".985" x1="25.132"><stop stop-color="#f4f4f4" offset="0"/><stop stop-color="#dbdbdb" offset="1"/></linearGradient><linearGradient id="g" y2="2.906" gradientUnits="userSpaceOnUse" x2="-51.786" gradientTransform="matrix(1.00374 0 0 .70082 68.054 6.546)" y1="50.786" x1="-51.786"><stop stop-opacity=".318" offset="0"/><stop stop-opacity=".24" offset="1"/></linearGradient><linearGradient id="f" y2="96.253" gradientUnits="userSpaceOnUse" x2="45.567" gradientTransform="matrix(-.471 .00067 .00174 -.36537 55.847 47.4)" y1="15.27" x1="45.414"><stop stop-color="#262626" offset="0"/><stop stop-color="#4d4d4d" offset="1"/></linearGradient><radialGradient id="h" gradientUnits="userSpaceOnUse" cy="8.45" cx="7.496" gradientTransform="matrix(0 1.62736 -2.28014 0 43.293 1.155)" r="20"><stop stop-color="#90dbec" offset="0"/><stop stop-color="#55c1ec" offset=".262"/><stop stop-color="#3689e6" offset=".705"/><stop stop-color="#2b63a0" offset="1"/></radialGradient><radialGradient xlink:href="#b" id="p" gradientUnits="userSpaceOnUse" cx="29.095" cy="31.602" fx="29.095" fy="31.602" r="7.245" gradientTransform="rotate(30 -15.332 40.2) scale(.25727)"/><linearGradient id="b"><stop offset="0" stop-color="#ffe375"/><stop offset="1" stop-color="#ffa600"/></linearGradient><radialGradient xlink:href="#c" id="o" gradientUnits="userSpaceOnUse" cx="32" cy="32" fx="32" fy="32" r="8" gradientTransform="translate(12.218 15.59) scale(.25727)"/><linearGradient id="c"><stop offset="0" stop-color="#ffb800"/><stop offset="1" stop-color="#ffb800" stop-opacity="0"/></linearGradient><radialGradient xlink:href="#c" id="m" gradientUnits="userSpaceOnUse" cx="32" cy="32" fx="32" fy="32" r="8"/><radialGradient xlink:href="#b" id="n" gradientUnits="userSpaceOnUse" cx="29.095" cy="31.602" fx="29.095" fy="31.602" r="7.245"/><radialGradient xlink:href="#c" id="k" gradientUnits="userSpaceOnUse" cx="32" cy="32" fx="32" fy="32" r="8"/><radialGradient xlink:href="#b" id="l" gradientUnits="userSpaceOnUse" cx="29.095" cy="31.602" fx="29.095" fy="31.602" r="7.245"/><radialGradient xlink:href="#c" id="i" gradientUnits="userSpaceOnUse" cx="32" cy="32" fx="32" fy="32" r="8"/><radialGradient r="7.245" fy="31.602" fx="29.095" cy="31.602" cx="29.095" gradientUnits="userSpaceOnUse" id="j" xlink:href="#b"/><radialGradient id="q" cx="6.703" cy="73.616" gradientTransform="matrix(3.32017 0 0 .7263 2.11 -7.497)" gradientUnits="userSpaceOnUse" r="7.228"><stop offset="0"/><stop offset="1" stop-opacity="0"/></radialGradient><linearGradient id="r" gradientTransform="matrix(.26726 0 0 1.15755 9.316 -10.704)" gradientUnits="userSpaceOnUse" x1="-32.957" x2="-25.474" y1="27.389" y2="27.389"><stop offset="0" stop-color="#2e3436"/><stop offset=".644" stop-color="#888a85"/><stop offset="1" stop-color="#555753"/></linearGradient><linearGradient id="s" gradientTransform="matrix(.77602 .23906 -.31605 .56748 -20.168 4.55)" gradientUnits="userSpaceOnUse" x1="27.528" x2="30.42" y1="4.167" y2="2.949"><stop offset="0" stop-color="#eeeeec"/><stop offset=".789" stop-color="#fff"/><stop offset="1" stop-color="#eeeeec"/></linearGradient></defs><path d="M2 9l44 .002V44H2V9z" fill="url(#d)" transform="translate(0 -1.667) scale(.66667)"/><path d="M44.253 42.514H3.747V10.486h40.506z" fill="none" stroke="url(#e)" stroke-width="1.413" stroke-linecap="round" stroke-linejoin="round" transform="translate(0 -1.667) scale(.66667)"/><path d="M42.746 40.92H5.254V12.188h37.492z" fill="url(#f)" stroke="#185f9a" stroke-width="1.497" stroke-linecap="round" transform="translate(0 -1.667) scale(.66667)"/><path d="M2.285 9.27l43.506.002v34.463H2.286V9.27z" fill="none" stroke="url(#g)" stroke-width="1.497" stroke-linejoin="round" transform="translate(0 -1.667) scale(.66667)"/><path color="#000" fill="url(#h)" d="M6.043 12.948h35.97v27.158H6.042z" transform="translate(0 -1.667) scale(.66667)"/><g color="#000"><g fill="#fc0"><path transform="matrix(.29433 0 0 .29433 6.27 8.862)" d="M40 32a8 8 0 1 1-16 0 8 8 0 1 1 16 0z" overflow="visible" fill="url(#i)"/><path d="M15.702 15.247l-.602 2.445-2.45.602 2.45.576.605 2.48.573-2.48 2.483-.574-2.482-.604z" overflow="visible" opacity=".1"/><path d="M15.705 21.053l-.442-2.305-2.315-.45 2.306-.42.45-2.338.424 2.306 2.333.45-2.323.48z" overflow="visible" opacity=".2"/><path transform="matrix(.2549 .14717 -.14717 .2549 12.94 5.96)" d="M33.278 38.847l-4.53-5.952-6.898 2.89 5.952-4.53-2.89-6.898 4.53 5.952 6.898-2.89-5.952 4.528z" overflow="visible" fill="url(#j)"/></g><g fill="#fc0"><path transform="matrix(.19495 0 0 .19495 17.4 7.296)" d="M40 32a8 8 0 1 1-16 0 8 8 0 1 1 16 0z" overflow="visible" fill="url(#k)"/><path d="M23.646 11.525l-.4 1.62-1.62.397 1.62.382.402 1.642.38-1.642 1.644-.38-1.645-.4z" overflow="visible" opacity=".1"/><path d="M23.648 15.37l-.293-1.527-1.533-.3 1.527-.276.298-1.55.28 1.53 1.545.297-1.54.317z" overflow="visible" opacity=".2"/><path transform="scale(.19495) rotate(30 4.523 222.602)" d="M33.278 38.847l-4.53-5.952-6.898 2.89 5.952-4.53-2.89-6.898 4.53 5.952 6.898-2.89-5.952 4.528z" overflow="visible" fill="url(#l)"/></g><g fill="#fc0"><path transform="matrix(.47928 0 0 .47928 -3.978 -1.844)" d="M40 32a8 8 0 1 1-16 0 8 8 0 1 1 16 0z" overflow="visible" fill="url(#m)"/><path d="M11.38 8.553l-.98 3.98-3.99.98 3.99.938.984 4.04.933-4.04 4.043-.934-4.043-.982z" overflow="visible" opacity=".1"/><path d="M11.384 18.007l-.72-3.755-3.77-.734 3.757-.682.734-3.806.69 3.754 3.8.734-3.785.78z" overflow="visible" opacity=".2"/><path transform="scale(.47928) rotate(30 32.76 19.935)" d="M33.278 38.847l-4.53-5.952-6.898 2.89 5.952-4.53-2.89-6.898 4.53 5.952 6.898-2.89-5.952 4.528z" overflow="visible" fill="url(#n)"/></g><path d="M22.51 23.822a2.058 2.058 0 0 1-4.118 0 2.058 2.058 0 1 1 4.117 0z" overflow="visible" fill="url(#o)" transform="translate(-.17 -11.424) scale(.8889)"/><path d="M18.018 7.394l-.467 1.9-1.903.467 1.904.448.47 1.927.446-1.927 1.93-.446-1.93-.468z" overflow="visible" opacity=".1" fill="#fc0"/><path d="M18.02 11.905l-.343-1.79-1.798-.352 1.79-.325.35-1.817.33 1.793 1.812.35-1.805.372z" overflow="visible" opacity=".2" fill="#fc0"/><path d="M20.464 25.988l-.243-1.91-1.908-.243 1.91-.243.242-1.91.244 1.91 1.908.243-1.908.244z" overflow="visible" fill="url(#p)" transform="translate(-.17 -11.424) scale(.8889)"/></g><path d="M48.364 45.97c0 2.898-10.746 5.25-24 5.25-13.255 0-24-2.352-24-5.25 0-2.9 10.745-5.25 24-5.25 13.254 0 24 2.35 24 5.25z" opacity=".2" fill="url(#q)" transform="translate(0 -1.667) scale(.66667)"/><g transform="matrix(1.41113 -.81472 .6894 1.1941 4.267 -6.127)"><path d="M.5 18v12.438c0 .58.297 1.062.667 1.062h.666c.37 0 .667-.48.667-1.063V18z" fill="url(#r)" fill-rule="evenodd"/><rect height="21" rx=".749" ry=".929" width="2" x=".5" y="10.5" opacity=".3" fill="none" stroke="#000" stroke-width=".667"/><path d="M1.167 10.5c-.37 0-.667.48-.667 1.063V18h2v-6.438c0-.58-.297-1.062-.667-1.062z" opacity=".9" fill="url(#s)" fill-rule="evenodd"/></g></svg>