<svg xmlns="http://www.w3.org/2000/svg" xmlns:xlink="http://www.w3.org/1999/xlink" width="32" height="32"><defs><linearGradient id="a"><stop offset="0" stop-color="#fff"/><stop offset=".063" stop-color="#fff" stop-opacity=".235"/><stop offset=".951" stop-color="#fff" stop-opacity=".157"/><stop offset="1" stop-color="#fff" stop-opacity=".392"/></linearGradient><linearGradient xlink:href="#a" id="d" x1="13" y1="4" x2="13" y2="21" gradientUnits="userSpaceOnUse" gradientTransform="matrix(.78855 0 0 .74617 2.53 10.574)"/><linearGradient xlink:href="#b" id="f" gradientUnits="userSpaceOnUse" gradientTransform="matrix(.6104 0 0 .6104 27.317 -2.875)" x1="-31" y1="12" x2="-36" y2="6"/><linearGradient xlink:href="#b" id="g" gradientUnits="userSpaceOnUse" gradientTransform="matrix(.6104 0 0 .6104 27.317 -2.875)" x1="-31" y1="12" x2="-36" y2="6"/><linearGradient xlink:href="#b" id="e" gradientUnits="userSpaceOnUse" gradientTransform="matrix(.6104 0 0 .6104 27.317 -2.875)" x1="-31" y1="12" x2="-36" y2="6"/></defs><linearGradient id="c" gradientTransform="matrix(1.0054 0 0 .89598 -.07 8.604)" gradientUnits="userSpaceOnUse" x1="15.922" x2="17.49" y1="7.121" y2="23.385"><stop offset="0" stop-color="#f9f9f9"/><stop offset="1" stop-color="#dbdbdb"/></linearGradient><linearGradient id="b" gradientTransform="matrix(.6104 0 0 .6104 27.317 -2.875)" gradientUnits="userSpaceOnUse" x1="-31" x2="-36" y1="12" y2="6"><stop offset="0" stop-color="#1f1f1f"/><stop offset="1" stop-color="#5c5c5c"/></linearGradient><g transform="translate(-3.99 -16.627) scale(1.66667)"><rect y="12.188" x="3.951" width="16.086" ry="2.205" rx="2.475" height="14.336" fill="url(#c)"/><path d="M4.594 12.738c-.246.31-.648.29-.69 1.035l-.043 11.09c.23 1.007.628 1.235 1.468 1.725l13.116-.13c.96-.14 1.472-.586 1.553-1.337 0 0 .12-10.422.086-11-.133-.382-.013-.7-1.013-1.296" fill="none" stroke="#9c9c9c" stroke-width=".6" stroke-opacity=".875"/><rect y="12.82" x="4.485" width="14.969" ry="1.993" rx="2.184" height="12.944" fill="none" stroke="url(#d)" stroke-width=".6" stroke-opacity=".502"/><g transform="matrix(.75888 0 0 .7631 3.013 10.46)" opacity=".66" fill="url(#e)" stroke="#000" stroke-width=".6" stroke-linecap="round" stroke-linejoin="round"><path d="M11.916 8.547H9.963l-1.876-3.05-1.876 3.05H4.38l2.675-4.16L4.55.48H6.44l1.737 2.903L9.88.48h1.843l-2.533 4z" fill="url(#f)"/><path d="M15.452 3.802l1.683-3.32h1.842l-2.675 4.926v3.14h-1.7V5.462L11.927.48h1.853z" fill="url(#g)"/></g></g></svg>