<?xml version="1.0" encoding="UTF-8" standalone="no"?>
<svg
   xmlns:dc="http://purl.org/dc/elements/1.1/"
   xmlns:cc="http://creativecommons.org/ns#"
   xmlns:rdf="http://www.w3.org/1999/02/22-rdf-syntax-ns#"
   xmlns:svg="http://www.w3.org/2000/svg"
   xmlns="http://www.w3.org/2000/svg"
   xmlns:xlink="http://www.w3.org/1999/xlink"
   xmlns:sodipodi="http://sodipodi.sourceforge.net/DTD/sodipodi-0.dtd"
   xmlns:inkscape="http://www.inkscape.org/namespaces/inkscape"
   height="32"
   width="32"
   version="1.1"
   id="svg96"
   sodipodi:docname="hideslide.svg"
   inkscape:version="0.92.3 (unknown)"
   inkscape:export-filename="/home/rizmut/Dokumen/Rizmut/Github/libreoffice-style-elementary/images_elementary/cmd/32/showslide.png"
   inkscape:export-xdpi="96"
   inkscape:export-ydpi="96">
  <metadata
     id="metadata102">
    <rdf:RDF>
      <cc:Work
         rdf:about="">
        <dc:format>image/svg+xml</dc:format>
        <dc:type
           rdf:resource="http://purl.org/dc/dcmitype/StillImage" />
        <dc:title></dc:title>
      </cc:Work>
    </rdf:RDF>
  </metadata>
  <defs
     id="defs100" />
  <sodipodi:namedview
     pagecolor="#ffffff"
     bordercolor="#666666"
     borderopacity="1"
     objecttolerance="10"
     gridtolerance="10"
     guidetolerance="10"
     inkscape:pageopacity="0"
     inkscape:pageshadow="2"
     inkscape:window-width="1366"
     inkscape:window-height="706"
     id="namedview98"
     showgrid="false"
     inkscape:zoom="7.375"
     inkscape:cx="-2.3050847"
     inkscape:cy="14.915254"
     inkscape:window-x="0"
     inkscape:window-y="0"
     inkscape:window-maximized="1"
     inkscape:current-layer="svg96" />
  <linearGradient
     id="a">
    <stop
       offset="0"
       stop-color="#fff"
       id="stop2" />
    <stop
       offset="0"
       stop-color="#fff"
       stop-opacity=".235"
       id="stop4" />
    <stop
       offset="1"
       stop-color="#fff"
       stop-opacity=".157"
       id="stop6" />
    <stop
       offset="1"
       stop-color="#fff"
       stop-opacity=".392"
       id="stop8" />
  </linearGradient>
  <linearGradient
     id="b">
    <stop
       offset="0"
       id="stop11" />
    <stop
       offset="1"
       stop-opacity="0"
       id="stop13" />
  </linearGradient>
  <linearGradient
     id="c"
     gradientTransform="matrix(.72973 0 0 .56757 -1.515 2.378)"
     gradientUnits="userSpaceOnUse"
     x1="24.001"
     x2="24.001"
     xlink:href="#a"
     y1="6.381"
     y2="41.619" />
  <linearGradient
     id="d"
     gradientTransform="matrix(.8 0 0 .47802 -3.2 3.794)"
     gradientUnits="userSpaceOnUse"
     x1="25.132"
     x2="25.132"
     y1=".985"
     y2="47.013">
    <stop
       offset="0"
       stop-color="#f4f4f4"
       id="stop17" />
    <stop
       offset="1"
       stop-color="#dbdbdb"
       id="stop19" />
  </linearGradient>
  <radialGradient
     id="e"
     cx="605.714"
     cy="486.648"
     gradientTransform="matrix(.01928 0 0 .00824 17.982 23.98)"
     gradientUnits="userSpaceOnUse"
     r="117.143"
     xlink:href="#b" />
  <radialGradient
     id="f"
     cx="605.714"
     cy="486.648"
     gradientTransform="matrix(-.01928 0 0 .00824 14.018 23.98)"
     gradientUnits="userSpaceOnUse"
     r="117.143"
     xlink:href="#b" />
  <linearGradient
     id="g"
     gradientTransform="matrix(.05633 0 0 .00824 -4.36 23.98)"
     gradientUnits="userSpaceOnUse"
     x1="302.857"
     x2="302.857"
     y1="366.648"
     y2="609.505">
    <stop
       offset="0"
       stop-opacity="0"
       id="stop24" />
    <stop
       offset=".5"
       id="stop26" />
    <stop
       offset="1"
       stop-opacity="0"
       id="stop28" />
  </linearGradient>
  <linearGradient
     id="h"
     gradientTransform="matrix(.66892 0 0 .56757 -1.18 2.378)"
     gradientUnits="userSpaceOnUse"
     x1="9.61"
     x2="9.61"
     xlink:href="#a"
     y1="6.395"
     y2="41.619" />
  <linearGradient
     id="i"
     gradientTransform="matrix(1.33942 0 0 -1.98263 -11.354 93.863)"
     gradientUnits="userSpaceOnUse"
     x1="22.004"
     x2="22.004"
     y1="63.218"
     y2="25.647">
    <stop
       offset="0"
       stop-color="#aaa"
       id="stop32" />
    <stop
       offset="1"
       stop-color="#c8c8c8"
       id="stop34" />
  </linearGradient>
  <linearGradient
     id="j"
     gradientTransform="matrix(.74052 0 0 .4677 46.925 2.682)"
     gradientUnits="userSpaceOnUse"
     x1="-51.786"
     x2="-51.786"
     y1="50.786"
     y2="2.906">
    <stop
       offset="0"
       stop-opacity=".318"
       id="stop37" />
    <stop
       offset="1"
       stop-opacity=".24"
       id="stop39" />
  </linearGradient>
  <linearGradient
     id="k"
     gradientUnits="userSpaceOnUse"
     x1="4.334"
     x2="4.334"
     y1="4.526"
     y2="27.474">
    <stop
       offset="0"
       stop-color="#ffa154"
       id="stop42" />
    <stop
       offset="1"
       stop-color="#f37329"
       id="stop44" />
  </linearGradient>
  <linearGradient
     id="l"
     gradientTransform="matrix(.4227 0 0 .38513 14.545 15.083)"
     gradientUnits="userSpaceOnUse"
     x1="24.139"
     x2="24.139"
     xlink:href="#a"
     y1="10.171"
     y2="36.136" />
  <linearGradient
     id="m"
     gradientTransform="matrix(.38833 0 0 .41842 15.3 14.318)"
     gradientUnits="userSpaceOnUse"
     x1="24.139"
     x2="24.139"
     xlink:href="#a"
     y1="20.749"
     y2="25.528" />
  <radialGradient
     id="n"
     cx="65.325"
     cy="48.709"
     gradientTransform="matrix(0 .68598 -.74626 0 60.288 -27.737)"
     gradientUnits="userSpaceOnUse"
     r="31">
    <stop
       offset="0"
       stop-color="#cdf87e"
       id="stop49" />
    <stop
       offset=".262"
       stop-color="#a2e34f"
       id="stop51" />
    <stop
       offset=".661"
       stop-color="#68b723"
       id="stop53" />
    <stop
       offset="1"
       stop-color="#1d7e0d"
       id="stop55" />
  </radialGradient>
  <g
     id="g942"
     style="opacity:0.5">
    <path
       id="path58"
       opacity=".15"
       fill="url(#g)"
       d="m2.4 27h27.2v2h-27.2z"
       style="" />
    <path
       id="path60"
       opacity=".15"
       fill="url(#f)"
       d="m2.4 27v2c-.993.004-2.4-.448-2.4-1s1.108-1 2.4-1z"
       style="" />
    <path
       id="path62"
       opacity=".15"
       fill="url(#e)"
       d="m29.6 27v2c.993.004 2.4-.448 2.4-1s-1.108-1-2.4-1z"
       style="" />
    <path
       id="path64"
       fill="url(#d)"
       d="m2 5h28v22h-28z"
       style="" />
    <path
       id="path66"
       stroke-linecap="round"
       stroke="url(#c)"
       fill="none"
       d="m29.5 26.5h-27v-21h27z"
       style="" />
    <path
       id="path68"
       fill="url(#k)"
       d="m6 27.5h-4.5v-23h4.5"
       style="" />
    <path
       id="path70"
       stroke-linecap="square"
       stroke="url(#h)"
       opacity=".5"
       fill="none"
       d="m5.5 26.5h-3v-21h3"
       style="" />
    <path
       id="path72"
       stroke="#aaa"
       fill="none"
       d="m11 7.5h4m1 0h2m1 0h1m1 0h2"
       style="" />
    <path
       id="path74"
       fill="url(#i)"
       d="m7 24v-1h2v1zm3 0v-1h6v1zm-3-4v-1h3v1zm4 0v-1h2v1zm3 0v-1h1v1zm-7-4v-1h3v1zm4 0v-1h1v1zm2 0v-1h2v1zm-6-4v-1h3v1zm4 0v-1h3v1z"
       style="" />
    <path
       id="path76"
       opacity=".5"
       fill="url(#k)"
       d="m29 17a6 6 0 1 1 -3.174-5.293l-2.826 5.293z"
       style="" />
    <path
       id="path78"
       opacity=".5"
       fill="url(#k)"
       d="m29 17.017c0 2.602-1.892 5.09-4.4 5.783-2.506.694-5.407-.466-6.745-2.697-.01.01 5.145-3.086 5.145-3.086z"
       style="" />
    <path
       id="path80"
       stroke-linejoin="round"
       stroke="url(#j)"
       fill="none"
       d="m6 27.5h24.5v-23h-24.5"
       style="" />
    <path
       id="path82"
       stroke-linejoin="round"
       stroke="#cc3b02"
       opacity=".4"
       fill="none"
       d="m6 27.5h-4.5c0-7.093.02-15.35.02-22.868l.048-.093.118-.04h4.314"
       style="" />
    <path
       id="path84"
       fill="url(#k)"
       d="m29 17.004c0 2.6-1.892 5.088-4.4 5.782-.058-.01-1.6-5.782-1.6-5.782z"
       style="" />
  </g>
</svg>
