<?xml version="1.0" encoding="UTF-8" standalone="no"?>
<!-- Created with Inkscape (http://www.inkscape.org/) -->

<svg
   xmlns:dc="http://purl.org/dc/elements/1.1/"
   xmlns:cc="http://creativecommons.org/ns#"
   xmlns:rdf="http://www.w3.org/1999/02/22-rdf-syntax-ns#"
   xmlns:svg="http://www.w3.org/2000/svg"
   xmlns="http://www.w3.org/2000/svg"
   xmlns:xlink="http://www.w3.org/1999/xlink"
   xmlns:sodipodi="http://sodipodi.sourceforge.net/DTD/sodipodi-0.dtd"
   xmlns:inkscape="http://www.inkscape.org/namespaces/inkscape"
   width="32"
   height="32"
   viewBox="0 0 8.4666665 8.4666669"
   version="1.1"
   id="svg6353"
   inkscape:version="0.92.3 (unknown)"
   sodipodi:docname="imagebutton.svg">
  <defs
     id="defs6347">
    <linearGradient
       id="linearGradient8510">
      <stop
         offset="0"
         style="stop-color:#ffffff;stop-opacity:1"
         id="stop8512" />
      <stop
         offset="0.52165675"
         style="stop-color:#ffffff;stop-opacity:0.23529412"
         id="stop8514" />
      <stop
         offset="0.76604813"
         style="stop-color:#ffffff;stop-opacity:0.15686275"
         id="stop8516" />
      <stop
         offset="1"
         style="stop-color:#ffffff;stop-opacity:0.39215687"
         id="stop8518" />
    </linearGradient>
    <linearGradient
       x1="89.788513"
       y1="61.257942"
       x2="89.788513"
       y2="50.416183"
       id="linearGradient10844"
       xlink:href="#linearGradient10838"
       gradientUnits="userSpaceOnUse"
       gradientTransform="matrix(0.26458484,0,0,0.26458333,-25.138834,279.41379)" />
    <linearGradient
       id="linearGradient10838">
      <stop
         id="stop10840"
         style="stop-color:#ffffff;stop-opacity:1"
         offset="0" />
      <stop
         id="stop10842"
         style="stop-color:#ffffff;stop-opacity:0"
         offset="1" />
    </linearGradient>
    <linearGradient
       x1="105.47171"
       y1="283.47653"
       x2="105.47171"
       y2="303.33859"
       id="linearGradient10008"
       xlink:href="#linearGradient3924-4-8-4"
       gradientUnits="userSpaceOnUse"
       gradientTransform="matrix(1.0000057,0,0,0.99999999,-79.012815,-278.25812)" />
    <linearGradient
       id="linearGradient3924-4-8-4">
      <stop
         id="stop3926-8-2-03"
         style="stop-color:#ffffff;stop-opacity:1"
         offset="0" />
      <stop
         id="stop3928-5-1-1"
         style="stop-color:#ffffff;stop-opacity:0.23529412"
         offset="0.06316455" />
      <stop
         id="stop3930-6-4-1-37"
         style="stop-color:#ffffff;stop-opacity:0.15686275"
         offset="0.95056331" />
      <stop
         id="stop3932-25-8-9"
         style="stop-color:#ffffff;stop-opacity:0.39215687"
         offset="1" />
    </linearGradient>
    <linearGradient
       x1="235.91496"
       y1="35.258293"
       x2="235.88756"
       y2="57.140381"
       id="linearGradient10011"
       xlink:href="#linearGradient4489-3-1-3-5-4-6-8-5-9-0"
       gradientUnits="userSpaceOnUse"
       gradientTransform="matrix(3.5488514,0,0,0.99999999,-822.22715,-30.258293)" />
    <linearGradient
       id="linearGradient4489-3-1-3-5-4-6-8-5-9-0">
      <stop
         id="stop4491-8-7-9-3-7-4-0-5-6-0"
         style="stop-color:#f4f4f4;stop-opacity:0.74632353"
         offset="0" />
      <stop
         id="stop10783"
         style="stop-color:#f7f7f7;stop-opacity:1"
         offset="0.5" />
      <stop
         id="stop4493-2-9-6-5-0-0-2-4-0-9"
         style="stop-color:#dcdcdc;stop-opacity:1"
         offset="1" />
    </linearGradient>
    <linearGradient
       id="h"
       gradientTransform="matrix(0.22678518,0,0,0.13797507,-1.3759596,280.70637)"
       gradientUnits="userSpaceOnUse"
       x1="25.132275"
       x2="25.132275"
       y1="0.98520601"
       y2="47.013336">
      <stop
         offset="0"
         stop-color="#f4f4f4"
         id="stop35" />
      <stop
         offset="1"
         stop-color="#dbdbdb"
         id="stop37" />
    </linearGradient>
    <linearGradient
       id="o"
       gradientTransform="matrix(0.03132973,0,0,0.03161449,8.3099244,291.48627)"
       gradientUnits="userSpaceOnUse"
       x1="-96.557358"
       x2="-96.557358"
       y1="110.92493"
       y2="39.991924">
      <stop
         offset="0"
         stop-color="#e89c42"
         id="stop82" />
      <stop
         offset="1"
         stop-color="#faca67"
         id="stop84" />
    </linearGradient>
    <linearGradient
       id="n"
       gradientTransform="matrix(0.03138491,0,0,0.03386477,8.3129103,291.49604)"
       gradientUnits="userSpaceOnUse"
       x1="-107.45584"
       x2="-107.45584"
       y1="-37.385227"
       y2="38.561256">
      <stop
         offset="0"
         stop-color="#0b85e9"
         id="stop77" />
      <stop
         offset="1"
         stop-color="#69d1ef"
         id="stop79" />
    </linearGradient>
    <linearGradient
       id="e"
       gradientTransform="matrix(0.71521168,0,0,0.50836186,47.363354,2.524216)"
       gradientUnits="userSpaceOnUse"
       x1="-51.786404"
       x2="-51.786404"
       y1="50.786446"
       y2="2.9062469">
      <stop
         offset="0"
         stop-opacity=".317829"
         id="stop16" />
      <stop
         offset="1"
         stop-opacity=".24031"
         id="stop18" />
    </linearGradient>
    <linearGradient
       id="g"
       gradientTransform="matrix(0.7837838,0,0,0.6216216,-2.810809,2.081085)"
       gradientUnits="userSpaceOnUse"
       x1="23.99999"
       x2="23.99999"
       y1="5.5641499"
       y2="43">
      <stop
         offset="0"
         stop-color="#fff"
         id="stop26" />
      <stop
         offset=".03626217"
         stop-color="#fff"
         stop-opacity=".235294"
         id="stop28" />
      <stop
         offset=".95056331"
         stop-color="#fff"
         stop-opacity=".156863"
         id="stop30" />
      <stop
         offset="1"
         stop-color="#fff"
         stop-opacity=".392157"
         id="stop32" />
    </linearGradient>
    <linearGradient
       id="f"
       gradientTransform="matrix(-0.7700459,0.00111029,0.00366806,-0.78014046,-2.43265,-4.10784)"
       gradientUnits="userSpaceOnUse"
       x1="-24.032034"
       x2="-24.097931"
       y1="-13.090545"
       y2="-40.163883">
      <stop
         offset="0"
         stop-color="#1d1d1d"
         id="stop21" />
      <stop
         offset="1"
         id="stop23" />
    </linearGradient>
    <linearGradient
       id="m"
       gradientTransform="matrix(0.12340306,0.00964049,-0.01017635,0.11747859,36.510036,14.379667)"
       gradientUnits="userSpaceOnUse"
       x1="-211.28862"
       x2="-208.49672"
       y1="88.750069"
       y2="75.190559">
      <stop
         offset="0"
         stop-color="#ec4502"
         id="stop72" />
      <stop
         offset="1"
         stop-color="#fe7617"
         id="stop74" />
    </linearGradient>
    <linearGradient
       id="l"
       gradientTransform="matrix(0.1232702,0,0,0.12419035,31.35918,11.605105)"
       gradientUnits="userSpaceOnUse"
       x1="-184.92441"
       x2="-175.25337"
       y1="113.97943"
       y2="88.801025">
      <stop
         offset="0"
         stop-color="#7a0f01"
         id="stop67" />
      <stop
         offset="1"
         stop-color="#d31807"
         id="stop69" />
    </linearGradient>
  </defs>
  <sodipodi:namedview
     id="base"
     pagecolor="#ffffff"
     bordercolor="#666666"
     borderopacity="1.0"
     inkscape:pageopacity="0.0"
     inkscape:pageshadow="2"
     inkscape:zoom="11.313709"
     inkscape:cx="18.668237"
     inkscape:cy="21.178316"
     inkscape:document-units="mm"
     inkscape:current-layer="g6972"
     showgrid="true"
     units="px"
     inkscape:snap-global="false"
     inkscape:window-width="1366"
     inkscape:window-height="706"
     inkscape:window-x="0"
     inkscape:window-y="0"
     inkscape:window-maximized="1">
    <inkscape:grid
       type="xygrid"
       id="grid6954" />
  </sodipodi:namedview>
  <metadata
     id="metadata6350">
    <rdf:RDF>
      <cc:Work
         rdf:about="">
        <dc:format>image/svg+xml</dc:format>
        <dc:type
           rdf:resource="http://purl.org/dc/dcmitype/StillImage" />
        <dc:title></dc:title>
      </cc:Work>
    </rdf:RDF>
  </metadata>
  <g
     inkscape:label="Layer 1"
     inkscape:groupmode="layer"
     id="layer1"
     transform="translate(0,-288.53332)">
    <g
       id="g6972"
       transform="translate(0,0.12170833)">
      <path
         id="rect6132-8-2-8-0-0-0-50-8-6-0-7-1-5-8-0-6"
         transform="matrix(0.26458333,0,0,0.26458333,0,288.53332)"
         d="m 3.9980469,4.0332031 c -1.1079987,0 -2,0.8919937 -2,2 V 25.033203 c 0,1.108006 0.8920013,2 2,2 H 28.488281 c 1.107999,0 2,-0.891994 2,-2 V 6.0332031 c 0,-1.1080063 -0.892001,-2 -2,-2 z"
         style="color:#000000;display:inline;overflow:visible;visibility:visible;fill:url(#linearGradient10011);fill-opacity:1;fill-rule:nonzero;stroke:none;stroke-width:0.9999997;marker:none;enable-background:accumulate"
         inkscape:connector-curvature="0" />
      <path
         id="rect6132-8-2-8-0-0-0-4-6-9-7-9-6"
         transform="matrix(0.26458333,0,0,0.26458333,0,288.53332)"
         d="m 28.496094,5.0351562 -24.9863284,0.00781 c -0.5540031,2.267e-4 -1,0.4459968 -1,1 V 25.042969 c 0,0.53669 0.4213402,0.963744 0.9511719,0.990234 H 28.488281 c 0.554003,0 1,-0.445997 1,-1 V 6.0332031 c 0,-0.5511928 -0.442093,-0.9935534 -0.992187,-0.9980469 z"
         style="color:#000000;display:inline;overflow:visible;visibility:visible;opacity:1;fill:none;stroke:url(#linearGradient10008);stroke-width:0.99999982;stroke-linecap:round;stroke-linejoin:round;stroke-miterlimit:4;stroke-dasharray:none;stroke-dashoffset:0;stroke-opacity:1;marker:none;enable-background:accumulate"
         inkscape:connector-curvature="0" />
      <path
         id="rect6132-8-2-8-0-0-0-50-8-6-0-7-1-5-8-0-6-4"
         transform="matrix(0.26458333,0,0,0.26458333,0,288.53332)"
         d="m 3.5,4.0449219 c -1.1079984,0 -2,0.8919937 -2,2 V 25.044922 c 0,1.068339 0.83218,1.927535 1.8847656,1.988281 H 28.488281 c 1.107999,0 2,-0.891994 2,-2 V 6.0332031 c 0,-1.0665223 -0.828871,-1.9249004 -1.878906,-1.9882812 z"
         style="color:#000000;display:inline;overflow:visible;visibility:visible;opacity:0.2;fill:none;stroke:#000000;stroke-width:0.9999997;stroke-linecap:round;stroke-linejoin:round;stroke-miterlimit:4;stroke-dasharray:none;stroke-dashoffset:0;stroke-opacity:1;marker:none;enable-background:accumulate"
         inkscape:connector-curvature="0" />
      <path
         inkscape:connector-curvature="0"
         style="fill:url(#o);stroke-width:0.28253132"
         d="m 1.8520833,290.79286 v 3.70417 h 4.7625 v -3.70417 z"
         id="path89" />
      <path
         inkscape:connector-curvature="0"
         style="fill:url(#n);stroke-width:0.28202474"
         d="m 1.8436952,290.75327 v 2.02485 c 0.070841,0.0352 0.1605471,0.0673 0.2575194,0.0673 0.2214553,0 0.4380258,-0.19303 0.8077974,-0.19303 0.3697729,0 0.6478894,0.24275 1.1141112,0.24275 0.466222,0 0.5711509,-0.35096 1.1656153,-0.35096 0.5944631,0 0.5385642,0.22227 0.9108049,0.22227 0.2564075,0 0.3659096,-0.0966 0.5150399,-0.15793 v -1.85522 z"
         id="path91" />
      <path
         inkscape:connector-curvature="0"
         style="opacity:0.07000002;stroke-width:0.28122744"
         d="m 1.8520833,290.75445 v 2.19284 c 0.1063252,0.0305 0.2442039,0.0553 0.4084057,0.0553 0.4186625,0 0.3589294,-0.15156 0.7194456,-0.15156 0.3605136,0 0.5728626,0.24775 1.0602337,0.24775 0.6036661,0 0.7421954,-0.39932 1.2198093,-0.39932 0.3729469,0 0.4009477,0.21861 0.8114027,0.21861 0.2772811,0 0.3693663,-0.11485 0.5409359,-0.18946 v -1.97423 z"
         id="path93" />
      <g
         style="fill:#ffffff"
         transform="matrix(0.28068029,0,0,0.28244627,0.69628928,288.84281)"
         id="g101">
        <path
           style="opacity:0.1"
           inkscape:connector-curvature="0"
           d="m 15.919319,11.806635 c -1.112768,0 -1.812739,0.336631 -2.385799,0.650123 -0.573056,0.313491 -1.00538,0.588206 -1.767613,0.588206 -0.783322,0 -1.40242,-0.199955 -2.0187501,-0.412776 -0.616326,-0.212822 -1.23268,-0.443735 -1.951137,-0.443735 -0.706237,0 -1.274028,0.177476 -1.738633,0.35086 -0.46461,0.173384 -0.824429,0.330221 -1.139774,0.330221 -0.28552,0 -0.563838,-0.104285 -0.792044,-0.216707 a 0.29415704,0.31426635 0 0 0 -0.125569,-0.03096 v 1.351843 c 0.391132,0.104566 0.881785,0.185749 1.45852,0.185749 0.780512,0 1.177609,-0.152178 1.477843,-0.288944 0.300234,-0.136765 0.485983,-0.247665 1.09148,-0.247665 0.581221,0 1.048758,0.20154 1.622726,0.423095 C 10.224531,14.267501 10.897693,14.5 11.814206,14.5 c 1.138098,0 1.878958,-0.385644 2.492044,-0.742998 0.613086,-0.357354 1.087424,-0.670762 1.864206,-0.670762 0.612614,0 0.897189,0.166095 1.275,0.36118 0.377801,0.195085 0.841349,0.412776 1.622725,0.412776 0.995062,0 1.431212,-0.394433 1.931819,-0.639803 V 12.03366 a 0.29415704,0.31426635 0 0 0 -0.10625,0.02064 c -0.582708,0.237219 -0.883811,0.53661 -1.72898,0.53661 -0.60894,0 -0.798986,-0.155864 -1.197726,-0.36118 -0.398744,-0.205315 -0.95463,-0.423096 -2.047725,-0.423095 z"
           id="path95" />
        <path
           style="opacity:0.3"
           inkscape:connector-curvature="0"
           d="m 15.919319,12.425798 c -2.118243,0 -2.492134,1.238329 -4.153412,1.238329 -1.661278,0 -2.6522831,-0.856511 -3.9698871,-0.856511 -1.317599,0 -2.0893,0.681081 -2.878407,0.681081 -0.345539,0 -0.665187,-0.112993 -0.917613,-0.237346 v 0.712039 c 0.379714,0.107869 0.872114,0.196069 1.45852,0.196069 1.49515,0 1.281828,-0.536609 2.569323,-0.536609 1.287486,0 2.0458371,0.87715 3.7863631,0.87715 2.155845,0 2.650569,-1.41376 4.35625,-1.41376 1.331888,0 1.431886,0.773956 2.897725,0.773956 0.990241,0 1.319101,-0.406588 1.931819,-0.670761 v -0.53661 c -0.531392,0.216329 -0.921579,0.557248 -1.83523,0.557248 -1.326397,0 -1.127214,-0.784275 -3.245451,-0.784275 z"
           id="path97" />
        <path
           inkscape:connector-curvature="0"
           d="m 15.919319,12.925799 c -2.118243,0 -2.492134,1.238329 -4.153412,1.238329 -1.661278,0 -2.6522831,-0.856511 -3.9698871,-0.856511 -1.317599,0 -2.0893,0.681081 -2.878407,0.681081 -0.345539,0 -0.665187,-0.112993 -0.917613,-0.237346 v 0.712039 c 0.379714,0.107868 0.872114,0.196069 1.45852,0.196069 1.49515,0 1.281828,-0.536609 2.569323,-0.536609 1.287486,0 2.0458371,0.877149 3.7863631,0.877149 2.155845,0 2.650569,-1.413758 4.35625,-1.413758 1.331888,0 1.431886,0.773955 2.897725,0.773955 0.990241,0 1.319101,-0.406588 1.931819,-0.670761 v -0.53661 c -0.531392,0.216329 -0.921579,0.557248 -1.83523,0.557248 -1.326397,0 -1.127214,-0.784275 -3.245451,-0.784275 z"
           id="path99" />
      </g>
      <g
         transform="matrix(0.17191384,0,0,0.17191384,1.4669018,289.72304)"
         style="stroke-width:1.64295304"
         id="g137">
        <path
           style="opacity:0.05"
           inkscape:connector-curvature="0"
           d="m 8.7498782,19.006704 c -0.1195084,-0.009 -0.2538592,1.58e-4 -0.3893256,0.04585 -0.5287711,0.178396 -0.5894091,0.529827 -0.6366227,0.698496 -0.047219,0.168667 -0.056978,0.299761 -0.06465,0.438076 -0.015279,0.276623 -0.00345,0.567382 0.00969,0.857946 0.01068,0.238667 0.020209,0.450499 0.02489,0.637577 -0.1823481,0.04227 -0.3833026,0.08769 -0.6147206,0.137219 -0.290042,0.06209 -0.5832563,0.12424 -0.8536979,0.209354 -0.1352149,0.04257 -0.2622432,0.08552 -0.4236254,0.177572 -0.080686,0.04602 -0.1736256,0.100759 -0.2824285,0.221292 -0.1087963,0.120527 -0.2406219,0.347186 -0.2331185,0.621053 0.014622,0.534643 0.3458185,0.696311 0.4999751,0.790919 0.1541582,0.0946 0.2785001,0.142756 0.4144873,0.192197 0.271976,0.0989 0.5719907,0.179067 0.8667512,0.256585 0.2429335,0.06389 0.4557582,0.124092 0.6446814,0.177491 -0.014129,0.17793 -0.033713,0.374579 -0.055663,0.598594 -0.027635,0.282041 -0.054678,0.563612 -0.053248,0.834874 7.164e-4,0.135626 0.00378,0.264969 0.045872,0.439446 0.021013,0.08724 0.049404,0.187315 0.1360858,0.323 0.086683,0.135691 0.2686046,0.327975 0.544785,0.405777 0.5380768,0.15158 0.8026677,-0.09568 0.9449622,-0.205855 0.1422961,-0.11016 0.2299278,-0.212238 0.3214962,-0.319942 0.1831366,-0.215406 0.3538098,-0.461187 0.5226218,-0.703768 0.138846,-0.199515 0.262272,-0.37594 0.374041,-0.530137 0.173622,0.06756 0.364681,0.145303 0.582523,0.234382 0.272928,0.111606 0.54906,0.225416 0.820378,0.307446 0.135658,0.04101 0.262461,0.07771 0.449765,0.09325 0.09364,0.0078 0.206007,0.01462 0.368187,-0.02208 0.162176,-0.03677 0.407096,-0.143922 0.569976,-0.36954 0.317679,-0.44005 0.153796,-0.760123 0.08759,-0.922998 -0.06621,-0.162866 -0.138879,-0.271548 -0.218243,-0.387531 -0.158726,-0.231969 -0.352935,-0.461752 -0.543147,-0.688961 -0.156212,-0.186585 -0.291258,-0.352336 -0.410662,-0.500631 0.121349,-0.136316 0.256806,-0.284816 0.413271,-0.454427 0.196239,-0.21273 0.393492,-0.426067 0.559619,-0.646397 0.08307,-0.11016 0.161617,-0.216418 0.235231,-0.381163 0.0368,-0.08238 0.07676,-0.179753 0.09033,-0.338002 0.01364,-0.158249 -0.01802,-0.415246 -0.193205,-0.632564 -0.341562,-0.423711 -0.709039,-0.369719 -0.892108,-0.360267 -0.183069,0.0095 -0.316289,0.04106 -0.456875,0.07691 -0.281168,0.0717 -0.572923,0.172582 -0.85932,0.274292 -0.236079,0.08384 -0.443596,0.157395 -0.629481,0.219605 -0.09843,-0.151729 -0.204614,-0.321947 -0.325422,-0.515773 C 9.9900445,20.052847 9.8369854,19.808877 9.6684677,19.590599 9.5842007,19.481459 9.5068833,19.379317 9.3650144,19.261789 9.2940717,19.20302 9.2071431,19.135051 9.0531639,19.073978 8.976175,19.043439 8.8694473,19.015749 8.7499472,19.006698 Z m 1.3813858,1.891319 c 0.0041,-5.88e-4 0.02833,0.0064 0.0338,0.0062 -0.0097,0.0025 -0.03736,0.01005 -0.04293,0.01117 -0.01364,0.0028 -0.02395,-0.01265 0.0092,-0.01745 z m 0.504774,0.162932 c 0.04206,0.03344 0.03932,0.0484 0.03098,0.03874 -0.0037,-0.0045 -0.02348,-0.02911 -0.03098,-0.03874 z m -2.6170782,0.525617 c 0.033943,-0.01527 0.036836,0.0053 0.025909,0.0093 -0.00575,0.0022 -0.038281,0.01015 -0.050833,0.01412 0.00493,-0.003 0.020882,-0.02165 0.024924,-0.02348 z m -0.3245833,0.399605 c -6.26e-4,0.01004 6.637e-4,0.038 3.45e-5,0.04359 -0.00165,0.01495 -0.015115,0.0036 -3.45e-5,-0.04359 z m 4.2925745,0.789366 c -0.0078,-0.01281 0.01051,-0.01051 0.0275,0.03485 -0.0058,-0.0086 -0.02456,-0.03 -0.0275,-0.03485 z m 0.01314,0.509529 c -0.02029,0.04739 -0.03736,0.05179 -0.03028,0.04123 0.0033,-0.005 0.02282,-0.03123 0.03028,-0.04123 z m -4.2727873,0.832131 c 3.517e-4,0.0058 -7.015e-4,0.03826 -5.931e-4,0.0508 -0.013143,-0.05029 -1.988e-4,-0.06337 5.931e-4,-0.0508 z m 0.2861859,0.440058 c 0.0092,0.0034 0.035619,0.01199 0.040746,0.01413 0.014458,0.0061 0.00197,0.01412 -0.040746,-0.01413 z m 2.6944074,0.475642 c 0.01068,-0.01134 0.01232,0.0074 -0.02997,0.03761 0.0076,-0.0087 0.02569,-0.03311 0.02997,-0.03761 z m -0.555328,0.156392 c 0.0062,0.0016 0.03836,0.01462 0.0518,0.01858 -0.05387,-0.0036 -0.06455,-0.02172 -0.0518,-0.01858 z"
           id="path127" />
        <path
           style="opacity:0.15"
           inkscape:connector-curvature="0"
           d="m 8.5229158,19.799088 c -0.2959056,0.09983 0.049502,2.247045 -0.1377945,2.486918 -0.1808398,0.231609 -2.405846,0.466416 -2.3979434,0.754841 0.00821,0.298714 2.2639951,0.645776 2.4456909,0.889378 0.1754378,0.23521 -0.2778134,2.324448 0.012815,2.406311 0.3009642,0.08478 1.3468892,-1.847447 1.6464782,-1.936766 0.289267,-0.08624 2.233695,0.965187 2.405392,0.727356 0.177821,-0.246318 -1.429685,-1.785639 -1.426227,-2.084442 0.0033,-0.288508 1.657802,-1.725136 1.47332,-1.953986 -0.191063,-0.237015 -2.230691,0.740264 -2.528141,0.644909 -0.2872032,-0.09207 -1.2078365,-2.030911 -1.4935493,-1.934519 z"
           id="path129" />
        <path
           style="fill:url(#m)"
           inkscape:connector-curvature="0"
           d="m 8.607674,19.239573 c 0.2858097,-0.09642 1.2094037,1.845095 1.496705,1.937195 0.297551,0.09539 2.335973,-0.884405 2.527101,-0.647307 0.184545,0.228928 -1.470078,1.665821 -1.47342,1.954429 -0.0034,0.298905 1.604531,1.84128 1.426648,2.087678 -0.171753,0.237911 -2.117961,-0.81556 -2.407326,-0.72929 -0.2996892,0.08934 -1.3443179,2.022377 -1.645384,1.937565 C 8.2413022,25.697963 8.6931059,23.609976 8.51754,23.374685 8.335785,23.131003 6.0821766,22.783304 6.0739915,22.484488 6.0661015,22.195965 8.2915222,21.958998 8.4724245,21.72731 8.6597802,21.487357 8.3116123,19.339438 8.6076066,19.239573 Z"
           id="path131" />
        <path
           style="opacity:0.5;fill:#9d0f06"
           inkscape:connector-curvature="0"
           d="m 8.6363994,19.183396 -0.079207,0.07616 c -5.652e-4,0.0018 -0.00312,0.0023 -0.00312,0.0034 -0.1590214,0.384807 0.095718,2.068747 -0.064831,2.274339 -0.0069,0.0086 -0.016446,0.02042 -0.028817,0.02902 l 0.064831,0.04353 c 1.2984714,0.388911 0.1619459,-2.345716 0.1296126,-2.423056 -0.00608,-0.0011 -0.012158,-0.0041 -0.017974,-0.0034 z"
           id="path133" />
        <path
           style="opacity:0.75;fill:url(#l)"
           inkscape:connector-curvature="0"
           d="m 6.5240833,22.398011 c -0.2732953,0.0025 -0.4314426,0.01544 -0.4314426,0.01544 v 0.0036 0.0621 c 0.1602865,0.294622 2.2843102,0.631711 2.4615504,0.869332 0.1775259,0.23801 -0.2786448,2.350514 0.015444,2.433349 0.3045409,0.0858 1.360994,-1.869494 1.6641449,-1.959876 0.29088,-0.08672 2.235918,0.964286 2.430737,0.741262 l -0.0033,-0.0036 C 11.021082,22.549026 7.7087458,22.387966 6.5244842,22.398012 Z"
           id="path135" />
      </g>
    </g>
  </g>
</svg>
