<svg height="32" width="32" xmlns="http://www.w3.org/2000/svg" xmlns:xlink="http://www.w3.org/1999/xlink"><linearGradient id="a"><stop offset="0"/><stop offset="1" stop-opacity="0"/></linearGradient><linearGradient id="b" gradientTransform="matrix(.56757 0 0 .72973 2.378 -2.514)" gradientUnits="userSpaceOnUse" x1="9.905" x2="44.262" y1="21.331" y2="21.954"><stop offset="0" stop-color="#fff"/><stop offset=".174" stop-color="#fff" stop-opacity=".235"/><stop offset=".951" stop-color="#fff" stop-opacity=".157"/><stop offset="1" stop-color="#fff" stop-opacity=".392"/></linearGradient><linearGradient id="c" gradientTransform="matrix(.62857 0 0 .6084 .914 -.535)" gradientUnits="userSpaceOnUse" x1="3.318" x2="39.909" y1="30.465" y2="30.465"><stop offset="0" stop-color="#f4f4f4"/><stop offset="1" stop-color="#dbdbdb"/></linearGradient><radialGradient id="d" cx="605.714" cy="486.648" gradientTransform="matrix(.019 0 0 .02024 18.043 18.08)" gradientUnits="userSpaceOnUse" r="117.143" xlink:href="#a"/><radialGradient id="e" cx="605.714" cy="486.648" gradientTransform="matrix(-.019 0 0 .02024 14.134 18.08)" gradientUnits="userSpaceOnUse" r="117.143" xlink:href="#a"/><linearGradient id="f" gradientTransform="matrix(.05555 0 0 .02024 -3.988 18.08)" gradientUnits="userSpaceOnUse" x1="302.857" x2="302.857" y1="366.648" y2="609.505"><stop offset="0" stop-opacity="0"/><stop offset=".5"/><stop offset="1" stop-opacity="0"/></linearGradient><linearGradient id="g" gradientTransform="matrix(.53064 0 0 .5897 39.27 -1.792)" gradientUnits="userSpaceOnUse" x1="-51.786" x2="-51.786" y1="50.786" y2="2.906"><stop offset="0" stop-opacity=".318"/><stop offset="1" stop-opacity=".24"/></linearGradient><radialGradient id="h" cx="65.325" cy="48.709" gradientTransform="matrix(0 .68598 -.74626 0 60.288 -27.737)" gradientUnits="userSpaceOnUse" r="31"><stop offset="0" stop-color="#cdf87e"/><stop offset=".262" stop-color="#a2e34f"/><stop offset=".661" stop-color="#68b723"/><stop offset="1" stop-color="#1d7e0d"/></radialGradient><linearGradient id="i"><stop offset="0" stop-color="#fff"/><stop offset="0" stop-color="#fff" stop-opacity=".235"/><stop offset="1" stop-color="#fff" stop-opacity=".157"/><stop offset="1" stop-color="#fff" stop-opacity=".392"/></linearGradient><linearGradient id="j" gradientTransform="matrix(.4227 0 0 .38513 14.545 15.083)" gradientUnits="userSpaceOnUse" x1="24.139" x2="24.139" xlink:href="#i" y1="10.171" y2="36.136"/><linearGradient id="k" gradientTransform="matrix(.38833 0 0 .41842 15.3 14.318)" gradientUnits="userSpaceOnUse" x1="24.139" x2="24.139" xlink:href="#i" y1="20.749" y2="25.528"/><path d="m2.678 25.5h26.822v4.915h-26.822z" fill="url(#f)" opacity=".15"/><path d="m2.678 25.5v4.915c-.98.01-2.367-1.1-2.367-2.458s1.093-2.457 2.369-2.457z" fill="url(#e)" opacity=".15"/><path d="m29.5 25.5v4.915c.98.01 2.367-1.1 2.367-2.458s-1.093-2.457-2.367-2.457z" fill="url(#d)" opacity=".15"/><path d="m5 1 22 .002v27.998h-22z" fill="url(#c)" transform="matrix(0 1 -1 0 31 -1)"/><g fill="none" stroke-linejoin="round"><path d="m26.5 28.5h-21v-27h21z" stroke="url(#b)" stroke-linecap="round" transform="matrix(0 1 -1 0 31 -1)"/><path d="m4.5.5 23 .002v28.998h-23z" stroke="url(#g)" transform="matrix(0 1 -1 0 31 -1)"/></g><path d="m21.5 21.5v-4.02h5v4.02h4.007v5h-4.007v4.007h-5v-4.007h-4.007v-5z" fill="url(#h)"/><g fill="none"><path d="m22.5 23.003v-4.503h3v4.497m0 2.003v4.5h-3v-4.5" opacity=".5" stroke="url(#j)"/><path d="m26 22.512 3.5-.01v2.987l-3.5.01m-4 0-3.5-.01v-2.989l3.5.012" opacity=".5" stroke="url(#k)"/><path d="m21.5 21.5v-4.02h5v4.02h4.007v5h-4.007v4.007h-5v-4.007h-4.007v-5z" opacity=".5" stroke="#0f5a00" stroke-linecap="round" stroke-linejoin="round"/></g></svg>