<svg xmlns="http://www.w3.org/2000/svg" xmlns:xlink="http://www.w3.org/1999/xlink" height="32" viewBox="0 0 8.4666665 8.4666668" width="32"><defs><linearGradient gradientTransform="matrix(0 -.1895 .20348 0 -5.775 9.524)" gradientUnits="userSpaceOnUse" xlink:href="#a" id="i" y2="46.971" x2="18.681" y1="46.971" x1="40.958"/><linearGradient id="a"><stop offset="0" stop-color="#fff"/><stop offset=".45" stop-color="#fff" stop-opacity=".235"/><stop offset=".65" stop-color="#fff" stop-opacity=".157"/><stop offset="1" stop-color="#fff" stop-opacity=".392"/></linearGradient><linearGradient gradientUnits="userSpaceOnUse" y2="17.211" x2="17.151" y1="5.88" x1="17.151" id="h" xlink:href="#b" gradientTransform="matrix(-.35277 0 0 .35277 11.863 -.306)"/><linearGradient id="b" gradientTransform="matrix(.4922 0 0 .4584 4.51 11.206)" gradientUnits="userSpaceOnUse" x1="23.732" x2="23.732" y1="5.394" y2="39.735"><stop offset="0" stop-color="#90dbec"/><stop offset=".262" stop-color="#55c1ec"/><stop offset=".705" stop-color="#3689e6"/><stop offset="1" stop-color="#2b63a0"/></linearGradient><radialGradient gradientTransform="matrix(.0974 0 0 -.1043 3.282 8.45)" gradientUnits="userSpaceOnUse" xlink:href="#c" id="g" fy="36.421" fx="24.837" r="15.645" cy="36.421" cx="24.837"/><linearGradient id="c"><stop offset="0"/><stop offset="1" stop-opacity="0"/></linearGradient></defs><linearGradient id="d"><stop offset="0" stop-color="#fff"/><stop offset=".063" stop-color="#fff" stop-opacity=".235"/><stop offset=".951" stop-color="#fff" stop-opacity=".157"/><stop offset="1" stop-color="#fff" stop-opacity=".392"/></linearGradient><linearGradient id="f" gradientTransform="matrix(.1347 0 0 .1464 -.198 290.374)" gradientUnits="userSpaceOnUse" x1="24" x2="24" xlink:href="#d" y1="5" y2="43"/><linearGradient id="e" gradientTransform="matrix(.118 0 0 .119 .212 290.644)" gradientUnits="userSpaceOnUse" x1="25.132" x2="25.132" y1="15.5" y2="48.396"><stop offset="0" stop-color="#fafafa"/><stop offset="1" stop-color="#e2e1de"/></linearGradient><g transform="matrix(1.3333 0 0 1.3333 .176 -387.532)"><rect height="5.556" rx=".198" width="5.159" x=".463" y="291.047" fill="url(#e)"/><path d="M.68 290.948c-.152 0-.316.184-.316.336l.002.853 5.357.004-.002-.86c0-.15-.142-.33-.294-.33z" stroke-linecap="round" stroke-width=".201" stroke="#323232" fill="none" opacity=".4"/><path d="M.555 291.15h4.968l-.004 5.366H.535z" fill="none" stroke="url(#f)" stroke-width=".201" stroke-linecap="round" stroke-linejoin="round"/><path d="M.364 292.24l-.005 4.143c0 .152.153.317.305.317H5.41c.152 0 .307-.166.308-.318l.004-4.145" fill="none" opacity=".3" stroke="#000" stroke-width=".201"/><path d="M1.652 292.238h.2l.002 4.365h-.2zm1.39 0h.2v4.364h-.2zm1.39 0h.2v4.364h-.2zm-3.968.99l1.19.002v.197H.464z" opacity=".321"/><path d="M1.852 293.23h1.19v.198H1.85zm1.39 0h1.19v.198h-1.19zm1.19 0h1.19v.198h-1.19zm-2.58 1.19h1.19v.2H1.85zm1.39 0h1.19v.2h-1.19zm1.19 0h1.19v.2h-1.19zm-2.58 1.19h1.19v.2H1.85zm1.39 0h1.19v.2h-1.19zm1.19 0h1.19v.2h-1.19z" opacity=".321"/><path d="M1.654 294.42v.2H.464v-.2zm0 1.19v.2H.464v-.2z" fill="#a1a19f"/><path d="M1.653 291.048h.2v1.19h-.2zm1.39 0h.2v1.19h-.2zm1.39 0h.2v1.19h-.2z" opacity=".4" fill="#5b5b5b"/></g><path d="M7.938.265H6.35v7.937h1.588z" fill="#8ed440"/><path d="M7.938 0c.146 0 .264.118.264.265v7.937c0 .147-.118.265-.264.265H6.35c-.147 0-.265-.118-.265-.265V.265c0-.147.118-.265.265-.265zm0 .265H6.35v7.937h1.588z" fill="#126400" fill-opacity=".571"/><path d="M7.938 5.027v.265H6.35v-.265zm0 1.588v.264H6.35v-.265zM7.938 1.852v.265H6.35v-.265zm0 1.588v.264H6.35V3.44z" opacity=".5" fill="#c0e98e"/><g><path overflow="visible" d="M7.224 4.56c0-2.178-3.045-2.178-3.046 0 0 .9.68 1.72 1.522 1.72.84 0 1.524-.82 1.524-1.72z" opacity=".141" fill="url(#g)" fill-rule="evenodd" transform="translate(-3.44 2.646)"/><path overflow="visible" display="block" d="M5.69 5.68l2.434-1.977L5.69 1.76v1.286H3.57l.002 1.322H5.69z" color="#000" fill="url(#h)" transform="translate(-3.44 2.646)"/><path stroke-miterlimit="7" overflow="visible" display="block" d="M6.043 4.936L7.57 3.703 6.043 2.49v.91H3.925v.615h2.118z" color="#000" opacity=".401" fill="none" stroke="url(#i)" stroke-width=".265" transform="translate(-3.44 2.646)"/><path overflow="visible" d="M2.25 8.326L4.684 6.35 2.25 4.404v1.287H.13l.002 1.322H2.25z" style="isolation:auto;mix-blend-mode:normal" color="#000" opacity=".5" solid-color="#000000" fill="none" stroke="#004372" stroke-width=".265" stroke-linejoin="round"/></g></svg>