<?xml version="1.0" encoding="UTF-8" standalone="no"?>
<svg
   xmlns:dc="http://purl.org/dc/elements/1.1/"
   xmlns:cc="http://creativecommons.org/ns#"
   xmlns:rdf="http://www.w3.org/1999/02/22-rdf-syntax-ns#"
   xmlns:svg="http://www.w3.org/2000/svg"
   xmlns="http://www.w3.org/2000/svg"
   xmlns:xlink="http://www.w3.org/1999/xlink"
   xmlns:sodipodi="http://sodipodi.sourceforge.net/DTD/sodipodi-0.dtd"
   xmlns:inkscape="http://www.inkscape.org/namespaces/inkscape"
   height="32"
   viewBox="0 0 8.4666665 8.4666668"
   width="32"
   version="1.1"
   id="svg892"
   sodipodi:docname="insertrowsbefore.svg"
   inkscape:export-filename="/home/rizmut/Dokumen/Rizmut/Github/libreoffice-style-elementary/images_elementary/cmd/32/insertrowsbefore.png"
   inkscape:export-xdpi="96"
   inkscape:export-ydpi="96"
   inkscape:version="0.92.3 (unknown)">
  <metadata
     id="metadata896">
    <rdf:RDF>
      <cc:Work
         rdf:about="">
        <dc:format>image/svg+xml</dc:format>
        <dc:type
           rdf:resource="http://purl.org/dc/dcmitype/StillImage" />
      </cc:Work>
    </rdf:RDF>
  </metadata>
  <sodipodi:namedview
     pagecolor="#ffffff"
     bordercolor="#666666"
     borderopacity="1"
     objecttolerance="10"
     gridtolerance="10"
     guidetolerance="10"
     inkscape:pageopacity="0"
     inkscape:pageshadow="2"
     inkscape:window-width="1366"
     inkscape:window-height="706"
     id="namedview894"
     showgrid="true"
     inkscape:zoom="7.6875"
     inkscape:cx="-1.0661218"
     inkscape:cy="18.194553"
     inkscape:window-x="0"
     inkscape:window-y="0"
     inkscape:window-maximized="1"
     inkscape:current-layer="svg892">
    <inkscape:grid
       type="xygrid"
       id="grid898" />
  </sodipodi:namedview>
  <defs
     id="defs841">
    <linearGradient
       gradientTransform="matrix(0,-0.1895,0.20348,0,-5.775,9.524)"
       gradientUnits="userSpaceOnUse"
       xlink:href="#a"
       id="i"
       y2="46.575012"
       x2="30.717188"
       y1="63.478802"
       x1="30.717188" />
    <linearGradient
       id="a">
      <stop
         offset="0"
         stop-color="#fff"
         id="stop816" />
      <stop
         offset="0.2307692"
         stop-color="#fff"
         stop-opacity=".235"
         id="stop818" />
      <stop
         offset="0.76923078"
         stop-color="#fff"
         stop-opacity=".157"
         id="stop820" />
      <stop
         offset="1"
         stop-color="#fff"
         stop-opacity=".392"
         id="stop822" />
    </linearGradient>
    <linearGradient
       gradientUnits="userSpaceOnUse"
       y2="12.114625"
       x2="23.133818"
       y1="12.114625"
       x1="11.883569"
       id="h"
       xlink:href="#b"
       gradientTransform="matrix(-0.35277,0,0,0.35277,11.863,-0.306)" />
    <linearGradient
       id="b"
       gradientTransform="matrix(.4922 0 0 .4584 4.51 11.206)"
       gradientUnits="userSpaceOnUse"
       x1="23.732"
       x2="23.732"
       y1="5.394"
       y2="39.735">
      <stop
         offset="0"
         stop-color="#90dbec"
         id="stop826" />
      <stop
         offset=".262"
         stop-color="#55c1ec"
         id="stop828" />
      <stop
         offset=".705"
         stop-color="#3689e6"
         id="stop830" />
      <stop
         offset="1"
         stop-color="#2b63a0"
         id="stop832" />
    </linearGradient>
    <radialGradient
       gradientTransform="matrix(0.0974,0,0,-0.1043,3.282,8.45)"
       gradientUnits="userSpaceOnUse"
       xlink:href="#c"
       id="g"
       fy="36.421"
       fx="24.837"
       r="15.645"
       cy="36.421"
       cx="24.837" />
    <linearGradient
       id="c">
      <stop
         offset="0"
         id="stop836" />
      <stop
         offset="1"
         stop-opacity="0"
         id="stop838" />
    </linearGradient>
  </defs>
  <linearGradient
     id="d">
    <stop
       offset="0"
       stop-color="#fff"
       id="stop843" />
    <stop
       offset=".063"
       stop-color="#fff"
       stop-opacity=".235"
       id="stop845" />
    <stop
       offset=".951"
       stop-color="#fff"
       stop-opacity=".157"
       id="stop847" />
    <stop
       offset="1"
       stop-color="#fff"
       stop-opacity=".392"
       id="stop849" />
  </linearGradient>
  <linearGradient
     id="f"
     gradientTransform="matrix(0.1347,0,0,0.1464,-0.198,290.374)"
     gradientUnits="userSpaceOnUse"
     x1="24"
     x2="24"
     xlink:href="#d"
     y1="5"
     y2="43" />
  <linearGradient
     id="e"
     gradientTransform="matrix(0.118,0,0,0.119,0.212,290.644)"
     gradientUnits="userSpaceOnUse"
     x1="25.132"
     x2="25.132"
     y1="15.5"
     y2="48.396">
    <stop
       offset="0"
       stop-color="#fafafa"
       id="stop853" />
    <stop
       offset="1"
       stop-color="#e2e1de"
       id="stop855" />
  </linearGradient>
  <g
     transform="matrix(1.3333,0,0,1.3333,0.1771044,-387.52328)"
     id="g874">
    <rect
       height="5.5560002"
       rx="0.198"
       width="5.1589999"
       x="0.463"
       y="291.047"
       id="rect858"
       style="fill:url(#e)" />
    <path
       d="m 0.68,290.948 c -0.152,0 -0.316,0.184 -0.316,0.336 l 0.002,0.853 5.357,0.004 -0.002,-0.86 c 0,-0.15 -0.142,-0.33 -0.294,-0.33 z"
       id="path860"
       inkscape:connector-curvature="0"
       style="opacity:0.4;fill:none;stroke:#323232;stroke-width:0.20100001;stroke-linecap:round" />
    <path
       d="m 0.555,291.15 h 4.968 l -0.004,5.366 H 0.535 Z"
       id="path862"
       style="fill:none;stroke:url(#f);stroke-width:0.20100001;stroke-linecap:round;stroke-linejoin:round"
       inkscape:connector-curvature="0" />
    <path
       d="m 0.364,292.24 -0.005,4.143 c 0,0.152 0.153,0.317 0.305,0.317 H 5.41 c 0.152,0 0.307,-0.166 0.308,-0.318 l 0.004,-4.145"
       id="path864"
       inkscape:connector-curvature="0"
       style="opacity:0.3;fill:none;stroke:#000000;stroke-width:0.20100001" />
    <path
       d="m 1.652,292.238 h 0.2 l 0.002,4.365 h -0.2 z m 1.39,0 h 0.2 v 4.364 h -0.2 z m 1.39,0 h 0.2 v 4.364 h -0.2 z m -3.968,0.99 1.19,0.002 v 0.197 h -1.19 z"
       id="path866"
       inkscape:connector-curvature="0"
       style="opacity:0.32100004" />
    <path
       d="m 1.852,293.23 h 1.19 v 0.198 H 1.85 Z m 1.39,0 h 1.19 v 0.198 h -1.19 z m 1.19,0 h 1.19 v 0.198 h -1.19 z m -2.58,1.19 h 1.19 v 0.2 H 1.85 Z m 1.39,0 h 1.19 v 0.2 h -1.19 z m 1.19,0 h 1.19 v 0.2 h -1.19 z m -2.58,1.19 h 1.19 v 0.2 H 1.85 Z m 1.39,0 h 1.19 v 0.2 h -1.19 z m 1.19,0 h 1.19 v 0.2 h -1.19 z"
       id="path868"
       inkscape:connector-curvature="0"
       style="opacity:0.32100004" />
    <path
       d="m 1.654,294.42 v 0.2 h -1.19 v -0.2 z m 0,1.19 v 0.2 h -1.19 v -0.2 z"
       id="path870"
       inkscape:connector-curvature="0"
       style="fill:#a1a19f" />
    <path
       d="m 1.653,291.048 h 0.2 v 1.19 h -0.2 z m 1.39,0 h 0.2 v 1.19 h -0.2 z m 1.39,0 h 0.2 v 1.19 h -0.2 z"
       id="path872"
       inkscape:connector-curvature="0"
       style="opacity:0.4;fill:#5b5b5b" />
  </g>
  <g
     id="g903"
     transform="rotate(-90,4.7627917,5.0272917)">
    <path
       id="path876"
       d="m 7.9385001,0.79366667 h -1.588 L 6.35,8.202 h 1.588 z"
       inkscape:connector-curvature="0"
       style="fill:#8ed440"
       sodipodi:nodetypes="ccccc" />
    <path
       id="path878"
       d="m 7.9385001,0.52866667 c 0.146,0 0.2640099,0.118 0.264,0.265 L 8.202,8.202 C 8.2019901,8.349 8.084,8.467 7.938,8.467 H 6.35 C 6.203,8.467 6.0849901,8.349 6.085,8.202 l 5.001e-4,-7.40833333 c 9.9e-6,-0.147 0.118,-0.265 0.265,-0.265 z m 0,0.265 h -1.588 L 6.35,8.202 h 1.588 z"
       inkscape:connector-curvature="0"
       style="fill:#126400;fill-opacity:0.57099998"
       sodipodi:nodetypes="sssssssssccccc" />
    <path
       id="path880"
       d="m 7.9385001,4.4978333 v 0.265 h -1.588 v -0.265 z m 0,1.8526667 v 0.264 h -1.588 v -0.265 z m 0,-3.70475 v 0.264 h -1.588 v -0.264 z"
       inkscape:connector-curvature="0"
       style="opacity:0.5;fill:#c0e98e"
       sodipodi:nodetypes="ccccccccccccccc" />
  </g>
  <g
     id="g890"
     transform="rotate(-90,4.1002453,4.3639214)">
    <path
       overflow="visible"
       d="m 7.224,4.56 c 0,-2.178 -3.045,-2.178 -3.046,0 0,0.9 0.68,1.72 1.522,1.72 0.84,0 1.524,-0.82 1.524,-1.72 z"
       transform="translate(-3.44,2.646)"
       id="path882"
       style="overflow:visible;opacity:0.14100001;fill:url(#g);fill-rule:evenodd"
       inkscape:connector-curvature="0" />
    <path
       overflow="visible"
       display="block"
       d="M 5.69,5.68 8.124,3.703 5.69,1.76 V 3.046 H 3.57 L 3.572,4.368 H 5.69 Z"
       transform="translate(-3.44,2.646)"
       id="path884"
       style="color:#000000;display:block;overflow:visible;fill:url(#h)"
       inkscape:connector-curvature="0" />
    <path
       stroke-miterlimit="7"
       overflow="visible"
       display="block"
       d="M 6.043,4.936 7.57,3.703 6.043,2.49 V 3.4 H 3.925 v 0.615 h 2.118 z"
       transform="translate(-3.44,2.646)"
       id="path886"
       style="color:#000000;display:block;overflow:visible;opacity:0.40100002;fill:none;stroke:url(#i);stroke-width:0.26499999;stroke-miterlimit:7"
       inkscape:connector-curvature="0" />
    <path
       overflow="visible"
       d="M 2.25,8.326 4.684,6.35 2.25,4.404 V 5.691 H 0.13 L 0.132,7.013 H 2.25 Z"
       style="color:#000000;overflow:visible;opacity:0.5;isolation:auto;mix-blend-mode:normal;solid-color:#000000;fill:none;stroke:#004372;stroke-width:0.26499999;stroke-linejoin:round"
       id="path888"
       inkscape:connector-curvature="0" />
  </g>
</svg>
