<svg xmlns="http://www.w3.org/2000/svg" xmlns:xlink="http://www.w3.org/1999/xlink" height="32" viewBox="0 0 8.4666665 8.4666669" width="32"><defs><linearGradient xlink:href="#a" id="j" gradientUnits="userSpaceOnUse" gradientTransform="matrix(.0121 0 0 .00218 -.143 295.407)" x1="302.857" y1="366.648" x2="302.857" y2="609.505"/><radialGradient xlink:href="#b" id="k" gradientUnits="userSpaceOnUse" gradientTransform="matrix(-.00414 0 0 .00218 3.807 295.407)" cx="605.714" cy="486.648" r="117.143"/><linearGradient xlink:href="#c" id="l" gradientUnits="userSpaceOnUse" gradientTransform="matrix(.1663 0 0 .16097 .242 288.392)" x1="25.132" y1=".985" x2="25.132" y2="47.013"/><linearGradient xlink:href="#d" id="m" gradientUnits="userSpaceOnUse" gradientTransform="matrix(.15017 0 0 .19307 .63 287.868)" x1="24" y1="5.564" x2="24" y2="43"/><linearGradient xlink:href="#e" id="n" gradientUnits="userSpaceOnUse" gradientTransform="matrix(.1404 0 0 .15602 10.39 288.06)" x1="-51.786" y1="50.786" x2="-51.786" y2="2.906"/><linearGradient xlink:href="#a" id="p" gradientUnits="userSpaceOnUse" gradientTransform="matrix(.0121 0 0 .00218 -.143 295.407)" x1="302.857" y1="366.648" x2="302.857" y2="609.505"/><radialGradient xlink:href="#b" id="q" gradientUnits="userSpaceOnUse" gradientTransform="matrix(-.00414 0 0 .00218 3.807 295.407)" cx="605.714" cy="486.648" r="117.143"/><linearGradient xlink:href="#c" id="r" gradientUnits="userSpaceOnUse" gradientTransform="matrix(.1663 0 0 .16097 .242 288.392)" x1="25.132" y1=".985" x2="25.132" y2="47.013"/><linearGradient xlink:href="#d" id="s" gradientUnits="userSpaceOnUse" gradientTransform="matrix(.15017 0 0 .19307 .63 287.868)" x1="24" y1="5.564" x2="24" y2="43"/><linearGradient xlink:href="#e" id="t" gradientUnits="userSpaceOnUse" gradientTransform="matrix(.1404 0 0 .15602 10.39 288.06)" x1="-51.786" y1="50.786" x2="-51.786" y2="2.906"/><radialGradient xlink:href="#f" id="u" gradientUnits="userSpaceOnUse" gradientTransform="matrix(0 .68598 -.74626 0 60.288 -27.737)" cx="65.325" cy="48.709" r="31"/><linearGradient xlink:href="#g" id="v" gradientUnits="userSpaceOnUse" gradientTransform="matrix(.34578 0 0 .43493 16.29 13.936)" x1="24.139" y1="20.749" x2="24.139" y2="25.528"/><clipPath id="i"><path d="M.53 293.296h6.35v3.44H.53z" stroke-width="1.121"/></clipPath><clipPath id="o"><path d="M.53 288.533h6.35v3.175H.53z" stroke-width="1.095"/></clipPath><clipPath id="x"><path d="M27.728 6.958c-.204.053-.394.17-.535.336-.282.334-.33.814-.107 1.2l2.648 4.75c.093.167.075.458-.242.92-.32.468-.9.99-1.658 1.402-.762.414-1.514.63-2.082.648-.57.02-.847-.13-.94-.297l-2.668-4.78c-.165-.295-.468-.492-.797-.53-.328-.04-.666.078-.898.334-.117.126-.208.283-.25.464a.58.58 0 0 0 0 .003c-.546 2.35-.31 4.998.762 6.914 1.422 2.544 4.333 3.748 7.196 3.332 1.008.348 2.378 1.105 4.045 2.76l1.277 1.267a.58.58 0 0 0 .408.167h4.946a.58.58 0 0 0 .58-.58V22.03a.58.58 0 0 0-.172-.412l-2.12-2.103c-1.492-1.482-2.25-2.72-2.648-3.682.316-1.513.17-3.117-.63-4.545-1.07-1.916-3.206-3.5-5.497-4.297-.198-.07-.414-.084-.62-.032z"/></clipPath><radialGradient id="y" cx="605.714" cy="486.648" gradientTransform="matrix(.02304 0 0 .0147 26.36 21.04)" gradientUnits="userSpaceOnUse" r="117.143" xlink:href="#h"/><linearGradient id="h"><stop offset="0"/><stop offset="1" stop-opacity="0"/></linearGradient><linearGradient id="z" gradientUnits="userSpaceOnUse" x1="39.706" x2="41.641" y1="28.005" y2="31.442"><stop offset="0" stop-color="#d4d4d4"/><stop offset="1" stop-color="#d4d4d4" stop-opacity="0"/></linearGradient><linearGradient id="A" gradientUnits="userSpaceOnUse" x1="38.833" x2="40.777" y1="28.152" y2="31.46"><stop offset="0" stop-color="#555761"/><stop offset="1" stop-color="#555761" stop-opacity="0"/></linearGradient><linearGradient id="B" gradientTransform="matrix(1.18112 0 0 1.18045 -332.458 -53.518)" gradientUnits="userSpaceOnUse" x1="302.292" x2="308.649" y1="58.443" y2="60.768"><stop offset="0" stop-color="#abacae"/><stop offset="1" stop-color="#fafafa"/></linearGradient><linearGradient id="C" gradientUnits="userSpaceOnUse" x1="37.789" x2="40.78" y1="27.895" y2="32.102"><stop offset="0" stop-color="#fff"/><stop offset="1" stop-color="#fff" stop-opacity="0"/></linearGradient></defs><linearGradient id="e" gradientTransform="matrix(.1404 0 0 .15602 10.39 288.06)" gradientUnits="userSpaceOnUse" x1="-51.786" x2="-51.786" y1="50.786" y2="2.906"><stop offset="0" stop-opacity=".318"/><stop offset="1" stop-opacity=".24"/></linearGradient><linearGradient id="d" gradientTransform="matrix(.15017 0 0 .19307 .63 287.868)" gradientUnits="userSpaceOnUse" x1="24" x2="24" y1="5.564" y2="43"><stop offset="0" stop-color="#fff"/><stop offset=".036" stop-color="#fff" stop-opacity=".235"/><stop offset=".951" stop-color="#fff" stop-opacity=".157"/><stop offset="1" stop-color="#fff" stop-opacity=".392"/></linearGradient><linearGradient id="c" gradientTransform="matrix(.1663 0 0 .16097 .242 288.392)" gradientUnits="userSpaceOnUse" x1="25.132" x2="25.132" y1=".985" y2="47.013"><stop offset="0" stop-color="#f4f4f4"/><stop offset="1" stop-color="#dbdbdb"/></linearGradient><radialGradient id="b" cx="605.714" cy="486.648" gradientTransform="matrix(-.00414 0 0 .00218 3.807 295.407)" gradientUnits="userSpaceOnUse" r="117.143"><stop offset="0"/><stop offset="1" stop-opacity="0"/></radialGradient><linearGradient id="a" gradientTransform="matrix(.0121 0 0 .00218 -.143 295.407)" gradientUnits="userSpaceOnUse" x1="302.857" x2="302.857" y1="366.648" y2="609.505"><stop offset="0" stop-opacity="0"/><stop offset=".5"/><stop offset="1" stop-opacity="0"/></linearGradient><radialGradient id="f" cx="65.325" cy="48.709" gradientTransform="matrix(0 .68598 -.74626 0 60.288 -27.737)" gradientUnits="userSpaceOnUse" r="31"><stop offset="0" stop-color="#cdf87e"/><stop offset=".262" stop-color="#a2e34f"/><stop offset=".661" stop-color="#68b723"/><stop offset="1" stop-color="#1d7e0d"/></radialGradient><linearGradient id="w" gradientTransform="matrix(.4227 0 0 .38513 14.545 15.083)" gradientUnits="userSpaceOnUse" x1="24.371" x2="24.139" y1="10.483" y2="36.136"><stop offset="0" stop-color="#fff"/><stop offset=".014" stop-color="#fff" stop-opacity=".235"/><stop offset="1" stop-color="#fff" stop-opacity=".157"/><stop offset="1" stop-color="#fff" stop-opacity=".392"/></linearGradient><linearGradient id="g" gradientTransform="matrix(.34578 0 0 .43493 16.29 13.936)" gradientUnits="userSpaceOnUse" x1="24.139" x2="24.139" y1="20.749" y2="25.528"><stop offset="0" stop-color="#fff"/><stop offset="0" stop-color="#fff" stop-opacity=".235"/><stop offset="1" stop-color="#fff" stop-opacity=".157"/><stop offset="1" stop-color="#fff" stop-opacity=".392"/></linearGradient><g clip-path="url(#i)" transform="translate(1.587 -293.296)"><path d="M1.31 296.206h5.847v.53H1.31z" opacity=".15" fill="url(#j)"/><path d="M1.31 296.206v.53c-.214 0-.516-.12-.516-.265 0-.145.238-.264.516-.264z" opacity=".15" fill="url(#k)"/><path d="M1.323 288.798h5.82v7.408h-5.82v-7.408z" fill="url(#l)"/><g fill="none" stroke-linejoin="round" stroke-width=".265"><path d="M7.01 296.074H1.456v-7.144H7.01z" stroke="url(#m)" stroke-linecap="round"/><path d="M1.19 288.666h6.086v7.673H1.19v-7.674z" stroke="url(#n)"/></g></g><g clip-path="url(#o)" transform="translate(1.587 -283.242)"><path d="M1.31 296.206h5.847v.53H1.31z" opacity=".15" fill="url(#p)"/><path d="M1.31 296.206v.53c-.214 0-.516-.12-.516-.265 0-.145.238-.264.516-.264z" opacity=".15" fill="url(#q)"/><path d="M1.323 288.798h5.82v7.408h-5.82v-7.408z" fill="url(#r)"/><g fill="none" stroke-linejoin="round" stroke-width=".265"><path d="M7.01 296.074H1.456v-7.144H7.01z" stroke="url(#s)" stroke-linecap="round"/><path d="M1.19 288.666h6.086v7.673H1.19v-7.674z" stroke="url(#t)"/></g></g><path d="M21.92 21.93V17.75h4.198v4.177h4.098v4.132h-4.098v4.17H21.92v-4.17H17.788V21.93z" fill="url(#u)" transform="translate(-2.95 -.304) scale(.18912)"/><g fill="none"><path d="M1.19 3.836l-.003-.794h.8v.794h.793v.79l-.794.003v.804H1.19l.003-.807-.793.005-.003-.792z" opacity=".5" stroke="#0f5a00" stroke-width=".26798304" stroke-linecap="round" stroke-linejoin="round"/><path d="M25.76 23.29l3.116-.013-.042 1.453-3.116.01m-3.562 0l-3.116-.01.042-1.453 3.116.012" opacity=".5" stroke="url(#v)" stroke-width="1.363" transform="translate(-2.95 -.304) scale(.18912)"/><path d="M23.335 22.988l-.045-3.885 1.42.006.064 3.887m0 2.003v3.866h-1.44V25" opacity=".5" stroke="url(#w)" stroke-width="1.417" transform="translate(-2.95 -.304) scale(.18912)"/></g><path d="M23.2 21.945v4.133l-5.412-.016V21.93z" fill="url(#f)" transform="translate(.49 -.304) scale(.18912)"/><g fill="none"><path d="M4.893 3.838v.79l-1.053.004-.003-.792z" opacity=".5" stroke="#0f5a00" stroke-linecap="round" stroke-linejoin="round" stroke-width=".26798304"/><path d="M21.86 23.294l-.043 1.452m-2.777-.016l.042-1.453" opacity=".5" stroke="url(#g)" stroke-width="1.363" transform="translate(.49 -.304) scale(.18912)"/></g><path d="M23.2 21.945v4.133l-5.412-.016V21.93z" fill="url(#f)" transform="translate(2.078 -.304) scale(.18912)"/><g fill="none"><path d="M6.48 3.838v.79l-1.052.004-.003-.792z" opacity=".5" stroke="#0f5a00" stroke-linecap="round" stroke-linejoin="round" stroke-width=".26798304"/><path d="M21.86 23.294l-.043 1.452m-2.777-.016l.042-1.453" opacity=".5" stroke="url(#g)" stroke-width="1.363" transform="translate(2.078 -.304) scale(.18912)"/></g><g><path d="M23.2 21.945v4.133l-5.412-.016V21.93z" fill="url(#f)" transform="translate(3.665 -.304) scale(.18912)"/><g fill="none"><path d="M8.068 3.838v.79l-1.053.004-.003-.792z" opacity=".5" stroke="#0f5a00" stroke-linecap="round" stroke-linejoin="round" stroke-width=".26798304"/><path d="M21.86 23.294l-.043 1.452m-2.777-.016l.042-1.453" opacity=".5" stroke="url(#g)" stroke-width="1.363" transform="translate(3.665 -.304) scale(.18912)"/></g></g><g clip-path="url(#x)" transform="matrix(.26458 0 0 .26458 -1.808 1.78)"><path d="M40.246 26.43V30c1.187.007 2.87-.8 2.87-1.785 0-.986-1.326-1.785-2.87-1.785z" opacity=".3" fill="url(#y)"/><path d="M20.876 11.33c-.054.06-.094.13-.112.207-.514 2.214-.27 4.757.703 6.5 1.332 2.38 4.104 3.517 6.82 3.037 1.11.373 2.58 1.194 4.325 2.926l21.775 21.617 4.102-4.073-21.776-21.617c-1.572-1.56-2.398-2.9-2.82-3.956.367-1.46.217-3.02-.554-4.4-.975-1.742-3.02-3.282-5.186-4.034-.186-.068-.39-.016-.518.134-.126.15-.148.364-.05.534l2.654 4.755c.238.425.114.973-.27 1.534-.388.566-1.033 1.13-1.858 1.58-.826.45-1.65.697-2.34.72-.687.024-1.226-.166-1.465-.594l-2.67-4.78c-.074-.134-.204-.22-.356-.238-.15-.018-.303.037-.404.15z" fill="url(#z)" fill-rule="evenodd" stroke="url(#A)" stroke-linecap="round" stroke-linejoin="round" stroke-dashoffset=".361" stroke-opacity=".5"/><path d="M28.005 7.94c.022.007.008.036 0 .036l2.657 4.758c.36.64.1 1.4-.332 2.03-.436.636-1.113 1.253-1.993 1.733-.882.48-1.808.712-2.584.738-.774.026-1.5-.195-1.845-.812l-2.658-4.795c-.015-.003-.04.002-.037 0 .025-.026.005.02 0 .037-.49 2.11-.236 4.55.665 6.16 1.23 2.202 3.802 3.254 6.348 2.804 2.534-.455 4.7-2.66 5.24-4.76.343-1.36.197-2.82-.515-4.095-.897-1.605-2.872-3.117-4.945-3.836z" fill="url(#B)" fill-rule="evenodd"/><path d="M29.334 9.267l1.77 3.21c.505.9.16 1.866-.33 2.58-.496.724-1.23 1.367-2.18 1.883-.95.518-1.925.818-2.804.848-.88.03-1.852-.26-2.325-1.107l-1.846-3.32c-.08 1.557.098 3.13.7 4.207 1.11 1.986 3.454 2.96 5.795 2.545.172-.034.352-.02.517.037 1.27.426 2.857 1.317 4.688 3.135l21.777 21.617 2.694-2.656L36.015 20.63c-1.65-1.64-2.548-3.086-3.026-4.28-.072-.187-.085-.396-.037-.59.31-1.238.2-2.58-.442-3.727-.586-1.048-1.827-2.008-3.174-2.766z" fill="none" stroke="url(#C)" stroke-linecap="round" stroke-linejoin="round" stroke-dashoffset=".361"/></g></svg>