<svg xmlns="http://www.w3.org/2000/svg" xmlns:xlink="http://www.w3.org/1999/xlink" height="32" width="32"><defs><radialGradient gradientTransform="matrix(.01205 0 0 .00824 13.24 27.23)" gradientUnits="userSpaceOnUse" xlink:href="#a" id="i" fy="486.648" fx="605.714" r="117.143" cy="486.648" cx="605.714"/><linearGradient id="a"><stop offset="0"/><stop offset="1" stop-opacity="0"/></linearGradient><radialGradient gradientTransform="matrix(-.01205 0 0 .00824 10.76 27.23)" gradientUnits="userSpaceOnUse" xlink:href="#a" id="h" fy="486.648" fx="605.714" r="117.143" cy="486.648" cx="605.714"/><linearGradient id="b"><stop offset="0" stop-opacity="0"/><stop offset=".5"/><stop offset="1" stop-opacity="0"/></linearGradient><linearGradient gradientTransform="matrix(.0352 0 0 .00824 -.725 27.23)" gradientUnits="userSpaceOnUse" xlink:href="#b" id="g" y2="609.505" x2="302.857" y1="366.648" x1="302.857"/><linearGradient id="d"><stop offset="0" stop-color="#8cd5ff"/><stop offset="1" stop-color="#3689e6"/></linearGradient><linearGradient id="c"><stop offset="0" stop-color="#fff"/><stop offset="0" stop-color="#fff" stop-opacity=".235"/><stop offset="1" stop-color="#fff" stop-opacity=".157"/><stop offset="1" stop-color="#fff" stop-opacity=".392"/></linearGradient><linearGradient gradientTransform="matrix(.45946 0 0 .4865 .973 9.074)" gradientUnits="userSpaceOnUse" xlink:href="#c" id="k" y2="41.472" x2="24" y1="6.528" x1="24"/><linearGradient gradientTransform="translate(0 1.25)" xlink:href="#d" id="j" x1="12" y1="5.369" x2="12" y2="40.669" gradientUnits="userSpaceOnUse"/><radialGradient gradientTransform="matrix(0 .68598 -.74626 0 60.288 -27.737)" gradientUnits="userSpaceOnUse" xlink:href="#e" id="l" fy="48.709" fx="65.325" r="31" cy="48.709" cx="65.325"/><linearGradient id="e"><stop offset="0" stop-color="#cdf87e"/><stop offset=".262" stop-color="#a2e34f"/><stop offset=".661" stop-color="#68b723"/><stop offset="1" stop-color="#1d7e0d"/></linearGradient><linearGradient gradientTransform="matrix(.4227 0 0 .38513 14.545 15.083)" gradientUnits="userSpaceOnUse" xlink:href="#c" id="m" y2="36.136" x2="24.139" y1="10.171" x1="24.139"/><linearGradient gradientTransform="matrix(.38833 0 0 .41842 15.3 14.318)" gradientUnits="userSpaceOnUse" xlink:href="#f" id="n" y2="25.528" x2="24.139" y1="20.749" x1="24.139"/><linearGradient id="f"><stop offset="0" stop-color="#fff"/><stop offset="0" stop-color="#fff" stop-opacity=".235"/><stop offset="1" stop-color="#fff" stop-opacity=".157"/><stop offset="1" stop-color="#fff" stop-opacity=".392"/></linearGradient></defs><g transform="matrix(1.35113 0 0 1.33333 .298 -12.333)"><path overflow="visible" opacity=".15" fill="url(#g)" d="M3.5 30.25h17v2h-17z"/><path d="M3.3 30.237l.2 2.013c-.62.004-1.5-.448-1.5-1s.493-1.013 1.3-1.013z" overflow="visible" opacity=".15" fill="url(#h)"/><path d="M20.743 30.24l-.243 2.01c.62.004 1.5-.448 1.5-1s-.45-1.01-1.257-1.01z" overflow="visible" opacity=".15" fill="url(#i)"/><rect y="10.75" x="5.5" ry="0" rx="0" height="20" width="13" fill="url(#j)"/><path style="line-height:normal;text-indent:0;text-align:start;text-decoration-line:none;text-decoration-style:solid;text-decoration-color:#000000;text-transform:none;isolation:auto;mix-blend-mode:normal" d="M2.46 10c-.276 0-.5.224-.5.5L2 30.75c0 .276.224.5.5.5H5l14.023-.02 2.477.02c.276 0 .5-.224.5-.5l-.04-20.25c0-.276-.223-.5-.5-.5l-2.477-.02L4.96 10zm.347.75l2.16.014-.006 1.486-2.16-.013zm3.193.5h12v19H6zm13.03-.506l2.22.01-.007 1.487-2.22-.01zM2.74 13.75l2.16.014.06 1.486-2.16-.013zm16.283 0l2.19.004v1.496l-2.19-.02zM2.8 16.756l2.16.013v1.5l-2.16-.014zm16.223-.006l2.22.02v1.5l-2.22-.02zM2.8 19.756l2.16.013v1.5l-2.16-.014zm16.223-.006l2.22.01v1.5l-2.22-.01zm-16.283 3l2.16.014v1.5l-2.16-.014zm16.283 0l2.22.01v1.5l-2.22-.01zM2.8 25.737l2.16.013v1.5l-2.16-.013zm16.223.013l2.22.01v1.48l-2.22-.01zM2.8 28.756l2.16.013v1.48l-2.16-.013zm16.223-.006l2.22.01v1.48l-2.22-.01z" color="#000" font-family="sans-serif" white-space="normal" overflow="visible" opacity=".7" solid-color="#000000"/><path d="M6.353 20.133l11.275.012" display="block" overflow="visible" opacity=".7" fill="none" stroke="#000" stroke-width=".745" stroke-linecap="square" stroke-linejoin="round"/><path d="M6.404 20.89l11.226.006" display="block" overflow="visible" opacity=".3" fill="none" stroke="#fff" stroke-width=".745" stroke-linecap="square" stroke-linejoin="round"/><path opacity=".3" fill="none" stroke="url(#k)" stroke-width=".745" stroke-linecap="round" d="M3.144 11.5H20.5v18.25H3.144z"/><path d="M19.023 28.75l2.22.01v1.48l-2.22-.01zm0-2.52l2.22.01v1l-2.22-.01zm0-3.48l2.22.01v1.5l-2.22-.01zM2.8 28.756l2.16.013v1.48l-2.16-.013zm0-3.02l2.16.014v1.5l-2.16-.013zm-.06-2.986l2.16.014v1.5l-2.16-.014zm.06-3.013l2.16.013v1.52l-2.16-.014zm0-2.98l2.16.012v1.5l-2.16-.014zm-.06-3.007l2.16.014.06 1.486-2.16-.013zm.067-3l2.16.014-.006 1.486-2.16-.013z" color="#000" overflow="visible" opacity=".3" fill="#e6e6e6"/><path d="M21.5 21.5v-4.02h5v4.02h4.007v5H26.5v4.007h-5V26.5h-4.007v-5z" color="#000" overflow="visible" fill="url(#l)" transform="matrix(.74012 0 0 .75 -.22 9.25)"/><path d="M22.5 23.003V18.5h3v4.497m0 2.003v4.5h-3V25" opacity=".5" fill="none" stroke="url(#m)" transform="matrix(.74012 0 0 .75 -.22 9.25)"/><path d="M26 22.512l3.5-.01v2.987l-3.5.01m-4 0l-3.5-.01V22.5l3.5.012" opacity=".5" fill="none" stroke="url(#n)" transform="matrix(.74012 0 0 .75 -.22 9.25)"/><path style="isolation:auto;mix-blend-mode:normal" d="M21.5 21.5v-4.02h5v4.02h4.007v5H26.5v4.007h-5V26.5h-4.007v-5z" color="#000" overflow="visible" opacity=".5" solid-color="#000000" fill="none" stroke="#0f5a00" stroke-linecap="round" stroke-linejoin="round" transform="matrix(.74012 0 0 .75 -.22 9.25)"/></g></svg>