<svg xmlns="http://www.w3.org/2000/svg" xmlns:xlink="http://www.w3.org/1999/xlink" height="32" viewBox="0 0 8.4666665 8.4666669" width="32"><defs><linearGradient xlink:href="#a" id="i" gradientUnits="userSpaceOnUse" gradientTransform="matrix(.0121 0 0 .00218 -.143 295.407)" x1="302.857" y1="366.648" x2="302.857" y2="609.505"/><radialGradient xlink:href="#b" id="j" gradientUnits="userSpaceOnUse" gradientTransform="matrix(-.00414 0 0 .00218 3.807 295.407)" cx="605.714" cy="486.648" r="117.143"/><linearGradient xlink:href="#c" id="k" gradientUnits="userSpaceOnUse" gradientTransform="matrix(.1663 0 0 .16097 .242 288.392)" x1="25.132" y1=".985" x2="25.132" y2="47.013"/><linearGradient xlink:href="#d" id="l" gradientUnits="userSpaceOnUse" gradientTransform="matrix(.15017 0 0 .19307 .63 287.868)" x1="24" y1="5.564" x2="24" y2="43"/><linearGradient xlink:href="#e" id="m" gradientUnits="userSpaceOnUse" gradientTransform="matrix(.1404 0 0 .15602 10.39 288.06)" x1="-51.786" y1="50.786" x2="-51.786" y2="2.906"/><linearGradient xlink:href="#a" id="o" gradientUnits="userSpaceOnUse" gradientTransform="matrix(.0121 0 0 .00218 -.143 295.407)" x1="302.857" y1="366.648" x2="302.857" y2="609.505"/><radialGradient xlink:href="#b" id="p" gradientUnits="userSpaceOnUse" gradientTransform="matrix(-.00414 0 0 .00218 3.807 295.407)" cx="605.714" cy="486.648" r="117.143"/><linearGradient xlink:href="#c" id="q" gradientUnits="userSpaceOnUse" gradientTransform="matrix(.1663 0 0 .16097 .242 288.392)" x1="25.132" y1=".985" x2="25.132" y2="47.013"/><linearGradient xlink:href="#d" id="r" gradientUnits="userSpaceOnUse" gradientTransform="matrix(.15017 0 0 .19307 .63 287.868)" x1="24" y1="5.564" x2="24" y2="43"/><linearGradient xlink:href="#e" id="s" gradientUnits="userSpaceOnUse" gradientTransform="matrix(.1404 0 0 .15602 10.39 288.06)" x1="-51.786" y1="50.786" x2="-51.786" y2="2.906"/><radialGradient xlink:href="#f" id="t" gradientUnits="userSpaceOnUse" gradientTransform="matrix(0 .68598 -.74626 0 60.288 -27.737)" cx="65.325" cy="48.709" r="31"/><linearGradient xlink:href="#g" id="u" gradientUnits="userSpaceOnUse" gradientTransform="matrix(.34578 0 0 .43493 16.29 13.936)" x1="24.139" y1="20.749" x2="24.139" y2="25.528"/><clipPath id="h"><path d="M.53 293.296h6.35v3.44H.53z" stroke-width="1.121"/></clipPath><clipPath id="n"><path d="M.53 288.533h6.35v3.175H.53z" stroke-width="1.095"/></clipPath></defs><linearGradient id="e" gradientTransform="matrix(.1404 0 0 .15602 10.39 288.06)" gradientUnits="userSpaceOnUse" x1="-51.786" x2="-51.786" y1="50.786" y2="2.906"><stop offset="0" stop-opacity=".318"/><stop offset="1" stop-opacity=".24"/></linearGradient><linearGradient id="d" gradientTransform="matrix(.15017 0 0 .19307 .63 287.868)" gradientUnits="userSpaceOnUse" x1="24" x2="24" y1="5.564" y2="43"><stop offset="0" stop-color="#fff"/><stop offset=".036" stop-color="#fff" stop-opacity=".235"/><stop offset=".951" stop-color="#fff" stop-opacity=".157"/><stop offset="1" stop-color="#fff" stop-opacity=".392"/></linearGradient><linearGradient id="c" gradientTransform="matrix(.1663 0 0 .16097 .242 288.392)" gradientUnits="userSpaceOnUse" x1="25.132" x2="25.132" y1=".985" y2="47.013"><stop offset="0" stop-color="#f4f4f4"/><stop offset="1" stop-color="#dbdbdb"/></linearGradient><radialGradient id="b" cx="605.714" cy="486.648" gradientTransform="matrix(-.00414 0 0 .00218 3.807 295.407)" gradientUnits="userSpaceOnUse" r="117.143"><stop offset="0"/><stop offset="1" stop-opacity="0"/></radialGradient><linearGradient id="a" gradientTransform="matrix(.0121 0 0 .00218 -.143 295.407)" gradientUnits="userSpaceOnUse" x1="302.857" x2="302.857" y1="366.648" y2="609.505"><stop offset="0" stop-opacity="0"/><stop offset=".5"/><stop offset="1" stop-opacity="0"/></linearGradient><radialGradient id="f" cx="65.325" cy="48.709" gradientTransform="matrix(0 .68598 -.74626 0 60.288 -27.737)" gradientUnits="userSpaceOnUse" r="31"><stop offset="0" stop-color="#cdf87e"/><stop offset=".262" stop-color="#a2e34f"/><stop offset=".661" stop-color="#68b723"/><stop offset="1" stop-color="#1d7e0d"/></radialGradient><linearGradient id="v" gradientTransform="matrix(.4227 0 0 .38513 14.545 15.083)" gradientUnits="userSpaceOnUse" x1="24.371" x2="24.139" y1="10.483" y2="36.136"><stop offset="0" stop-color="#fff"/><stop offset=".014" stop-color="#fff" stop-opacity=".235"/><stop offset="1" stop-color="#fff" stop-opacity=".157"/><stop offset="1" stop-color="#fff" stop-opacity=".392"/></linearGradient><linearGradient id="g" gradientTransform="matrix(.34578 0 0 .43493 16.29 13.936)" gradientUnits="userSpaceOnUse" x1="24.139" x2="24.139" y1="20.749" y2="25.528"><stop offset="0" stop-color="#fff"/><stop offset="0" stop-color="#fff" stop-opacity=".235"/><stop offset="1" stop-color="#fff" stop-opacity=".157"/><stop offset="1" stop-color="#fff" stop-opacity=".392"/></linearGradient><g clip-path="url(#h)" transform="translate(1.587 -293.296)"><path d="M1.31 296.206h5.847v.53H1.31z" opacity=".15" fill="url(#i)"/><path d="M1.31 296.206v.53c-.214 0-.516-.12-.516-.265 0-.145.238-.264.516-.264z" opacity=".15" fill="url(#j)"/><path d="M1.323 288.798h5.82v7.408h-5.82v-7.408z" fill="url(#k)"/><g fill="none" stroke-linejoin="round" stroke-width=".265"><path d="M7.01 296.074H1.456v-7.144H7.01z" stroke="url(#l)" stroke-linecap="round"/><path d="M1.19 288.666h6.086v7.673H1.19v-7.674z" stroke="url(#m)"/></g></g><g clip-path="url(#n)" transform="translate(1.587 -283.242)"><path d="M1.31 296.206h5.847v.53H1.31z" opacity=".15" fill="url(#o)"/><path d="M1.31 296.206v.53c-.214 0-.516-.12-.516-.265 0-.145.238-.264.516-.264z" opacity=".15" fill="url(#p)"/><path d="M1.323 288.798h5.82v7.408h-5.82v-7.408z" fill="url(#q)"/><g fill="none" stroke-linejoin="round" stroke-width=".265"><path d="M7.01 296.074H1.456v-7.144H7.01z" stroke="url(#r)" stroke-linecap="round"/><path d="M1.19 288.666h6.086v7.673H1.19v-7.674z" stroke="url(#s)"/></g></g><path d="M21.92 21.93V17.75h4.198v4.177h4.098v4.132h-4.098v4.17H21.92v-4.17H17.788V21.93z" fill="url(#t)" transform="translate(-2.95 -.304) scale(.18912)"/><g fill="none"><path d="M1.19 3.836l-.003-.794h.8v.794h.793v.79l-.794.003v.804H1.19l.003-.807-.793.005-.003-.792z" opacity=".5" stroke="#0f5a00" stroke-width=".26798304" stroke-linecap="round" stroke-linejoin="round"/><path d="M25.76 23.29l3.116-.013-.042 1.453-3.116.01m-3.562 0l-3.116-.01.042-1.453 3.116.012" opacity=".5" stroke="url(#u)" stroke-width="1.363" transform="translate(-2.95 -.304) scale(.18912)"/><path d="M23.335 22.988l-.045-3.885 1.42.006.064 3.887m0 2.003v3.866h-1.44V25" opacity=".5" stroke="url(#v)" stroke-width="1.417" transform="translate(-2.95 -.304) scale(.18912)"/></g><path d="M23.2 21.945v4.133l-5.412-.016V21.93z" fill="url(#f)" transform="translate(.49 -.304) scale(.18912)"/><g fill="none"><path d="M4.893 3.838v.79l-1.053.004-.003-.792z" opacity=".5" stroke="#0f5a00" stroke-linecap="round" stroke-linejoin="round" stroke-width=".26798304"/><path d="M21.86 23.294l-.043 1.452m-2.777-.016l.042-1.453" opacity=".5" stroke="url(#g)" stroke-width="1.363" transform="translate(.49 -.304) scale(.18912)"/></g><g><path d="M23.2 21.945v4.133l-5.412-.016V21.93z" fill="url(#f)" transform="translate(2.078 -.304) scale(.18912)"/><g fill="none"><path d="M6.48 3.838v.79l-1.052.004-.003-.792z" opacity=".5" stroke="#0f5a00" stroke-linecap="round" stroke-linejoin="round" stroke-width=".26798304"/><path d="M21.86 23.294l-.043 1.452m-2.777-.016l.042-1.453" opacity=".5" stroke="url(#g)" stroke-width="1.363" transform="translate(2.078 -.304) scale(.18912)"/></g></g><g><path d="M23.2 21.945v4.133l-5.412-.016V21.93z" fill="url(#f)" transform="translate(3.665 -.304) scale(.18912)"/><g fill="none"><path d="M8.068 3.838v.79l-1.053.004-.003-.792z" opacity=".5" stroke="#0f5a00" stroke-linecap="round" stroke-linejoin="round" stroke-width=".26798304"/><path d="M21.86 23.294l-.043 1.452m-2.777-.016l.042-1.453" opacity=".5" stroke="url(#g)" stroke-width="1.363" transform="translate(3.665 -.304) scale(.18912)"/></g></g></svg>