<svg xmlns="http://www.w3.org/2000/svg" xmlns:xlink="http://www.w3.org/1999/xlink" width="32" height="32"><defs><linearGradient id="d" gradientTransform="matrix(.3712 0 0 .40353 .212 8.052)" gradientUnits="userSpaceOnUse" x1="25.029" x2="24" xlink:href="#a" y1="6.925" y2="43"/></defs><linearGradient id="c" gradientTransform="matrix(.44577 0 0 .44994 .802 7.975)" gradientUnits="userSpaceOnUse" x1="25.132" x2="25.132" y1="15.5" y2="48.396"><stop offset="0" stop-color="#fafafa"/><stop offset="1" stop-color="#e2e1de"/></linearGradient><linearGradient id="b" gradientTransform="matrix(.48484 0 0 .52706 -.165 7.6)" gradientUnits="userSpaceOnUse" x1="24" x2="24" xlink:href="#a" y1="5" y2="43"/><linearGradient id="a"><stop offset="0" stop-color="#fff"/><stop offset=".063" stop-color="#fff" stop-opacity=".235"/><stop offset=".951" stop-color="#fff" stop-opacity=".157"/><stop offset="1" stop-color="#fff" stop-opacity=".392"/></linearGradient><path d="M2.252 10.272l19.922.014.028 19.156-19.922-.014z" fill="none" stroke="url(#b)" stroke-width=".766" stroke-linecap="round" stroke-linejoin="round" transform="translate(.522 -9.892) scale(1.30612)"/><path d="M2.47 9.895l19.588.017c.293 0 .53.248.528.556l-.03 18.768c0 .308-.236.556-.528.556L2.44 29.774c-.293 0-.53-.248-.528-.556l.03-18.767c0-.307.236-.556.53-.555z" fill="url(#c)" transform="translate(.522 -9.892) scale(1.30612)"/><path d="M3.87 2.516c-.75 0-1.35.604-1.352 1.355l-.01 4.735H2.48l.014 7.4-.014 7.4h.028l.01 4.736c0 .752.603 1.354 1.353 1.354H29.17c.75 0 1.355-.602 1.353-1.35L30.5 16.005 30.52 3.87c.003-.75-.602-1.354-1.352-1.354H3.87z" opacity=".5" fill="none" stroke="#2a70a7"/><path d="M2.252 10.272l19.922.014.028 19.156-19.922-.014z" fill="none" stroke="url(#d)" stroke-width=".842" stroke-linecap="round" stroke-linejoin="round" transform="translate(.522 -9.892) scale(1.30612)"/></svg>