<svg xmlns="http://www.w3.org/2000/svg" xmlns:xlink="http://www.w3.org/1999/xlink" width="32" height="32"><linearGradient id="b" gradientTransform="matrix(.44577 0 0 .44994 .802 7.975)" gradientUnits="userSpaceOnUse" x1="25.132" x2="25.132" y1="15.5" y2="48.396"><stop offset="0" stop-color="#fafafa"/><stop offset="1" stop-color="#e2e1de"/></linearGradient><linearGradient id="c" gradientTransform="matrix(.48484 0 0 .52706 -.165 7.6)" gradientUnits="userSpaceOnUse" x1="24" x2="24" xlink:href="#a" y1="5" y2="43"/><linearGradient id="a"><stop offset="0" stop-color="#fff"/><stop offset=".063" stop-color="#fff" stop-opacity=".235"/><stop offset=".951" stop-color="#fff" stop-opacity=".157"/><stop offset="1" stop-color="#fff" stop-opacity=".392"/></linearGradient><linearGradient id="d" gradientTransform="matrix(.5 0 0 .25 -1 11)" gradientUnits="userSpaceOnUse" x1="23.954" x2="23.954" y1="15.999" y2="19.963"><stop offset="0"/><stop offset="1" stop-opacity="0"/></linearGradient><linearGradient id="e" gradientTransform="matrix(0 .97 -1.35 0 23.58 1.69)" gradientUnits="userSpaceOnUse" x1="8.532" x2="12.639" y1="10.083" y2="10.083"><stop offset="0" stop-color="#90dbec"/><stop offset=".262" stop-color="#55c1ec"/><stop offset=".705" stop-color="#3689e6"/><stop offset="1" stop-color="#2b63a0"/></linearGradient><linearGradient id="f" gradientUnits="userSpaceOnUse" x1="11.001" x2="11.001" xlink:href="#a" y1="2.269" y2="19.728" gradientTransform="translate(0 8)"/><path d="M2.47 9.895l19.588.017c.293 0 .53.248.528.556l-.03 18.768c0 .308-.236.556-.528.556L2.44 29.774c-.293 0-.53-.248-.528-.556l.03-18.767c0-.307.236-.556.53-.555z" fill="url(#b)" transform="matrix(1.3 0 0 1.3 .5 -9.9)"/><path d="M2.252 10.272l19.922.014.028 19.156-19.922-.014z" fill="none" stroke="url(#c)" stroke-width=".766" stroke-linecap="round" stroke-linejoin="round" transform="matrix(1.3 0 0 1.3 .5 -9.9)"/><path d="M1.156 15.214l22.18.016v.766H1.13z" opacity=".15" fill="url(#d)" transform="matrix(1.3 0 0 1.3 .5 -9.9)"/><path d="M2.45 8.512l.036 19.443c0 .747.6 1.348 1.347 1.348h25.18c.745 0 1.347-.6 1.345-1.347l-.035-19.443" opacity=".5" fill="none" stroke="#2a70a7" stroke-width=".9958"/><path d="M2.536 9.5c-.574 0-1.036.462-1.036 1.036V14.5h21.44v-3.964c0-.574-.462-1.036-1.036-1.036z" fill="url(#e)" transform="matrix(1.3 0 0 1.3 .5 -9.9)"/><path d="M3.797 2.45c-.746 0-1.347.6-1.347 1.347l-.01 5.6h27.874l.01-5.6c0-.746-.602-1.347-1.348-1.347z" opacity=".8" fill="none" stroke="#2a70a7" stroke-width=".9958" stroke-linecap="round"/><path d="M2.252 10.272l.055 3.82 19.922.014-.056-3.82z" opacity=".5" fill="none" stroke="url(#f)" stroke-width=".766" stroke-linecap="round" stroke-linejoin="round" transform="matrix(1.3 0 0 1.3 .5 -9.9)"/></svg>