<svg xmlns="http://www.w3.org/2000/svg" xmlns:xlink="http://www.w3.org/1999/xlink" height="32" viewBox="0 0 8.4666665 8.4666668" width="32"><defs><linearGradient gradientTransform="matrix(0 -.1895 -.2035 0 17.418 9.524)" gradientUnits="userSpaceOnUse" xlink:href="#a" id="g" y2="46.971" x2="18.681" y1="46.971" x1="40.958"/><linearGradient id="a"><stop offset="0" stop-color="#fff"/><stop offset=".45" stop-color="#fff" stop-opacity=".235"/><stop offset=".65" stop-color="#fff" stop-opacity=".157"/><stop offset="1" stop-color="#fff" stop-opacity=".392"/></linearGradient><linearGradient gradientUnits="userSpaceOnUse" y2="17.211" x2="17.151" y1="5.88" x1="17.151" id="f" xlink:href="#b" gradientTransform="matrix(.35278 0 0 .35278 -.22 -.306)"/><linearGradient id="b"><stop offset="0" stop-color="#cd9ef7"/><stop offset="1" stop-color="#a56de2"/></linearGradient></defs><linearGradient id="c"><stop offset="0" stop-color="#fff"/><stop offset=".063" stop-color="#fff" stop-opacity=".235"/><stop offset=".951" stop-color="#fff" stop-opacity=".157"/><stop offset="1" stop-color="#fff" stop-opacity=".392"/></linearGradient><linearGradient id="e" gradientTransform="matrix(.1347 0 0 .14642 -.198 290.374)" gradientUnits="userSpaceOnUse" x1="24" x2="24" xlink:href="#c" y1="5" y2="43"/><linearGradient id="d" gradientTransform="matrix(.11794 0 0 .11905 .212 290.644)" gradientUnits="userSpaceOnUse" x1="25.132" x2="25.132" y1="15.5" y2="48.396"><stop offset="0" stop-color="#fafafa"/><stop offset="1" stop-color="#e2e1de"/></linearGradient><g transform="translate(.176 -387.532) scale(1.33333)"><rect height="5.556" rx=".198" width="5.159" x=".463" y="291.047" fill="url(#d)"/><path d="M.68 290.948c-.152 0-.316.184-.316.336l.002.853 5.357.004-.002-.86c0-.15-.142-.33-.294-.33z" stroke-linecap="round" stroke-width=".201" stroke="#323232" fill="none" opacity=".4"/><path d="M.555 291.15h4.968l-.004 5.366H.535z" fill="none" stroke="url(#e)" stroke-width=".201" stroke-linecap="round" stroke-linejoin="round"/><path d="M.364 292.24l-.005 4.143c0 .152.153.317.305.317H5.41c.152 0 .307-.166.308-.318l.004-4.145" fill="none" opacity=".3" stroke="#000" stroke-width=".201"/><path d="M1.454 292.237h.2l.002 4.365h-.2zm1.39 0h.2v4.365h-.2zm1.388 0h.2l.002 4.365h-.2zm-3.768.992h.992v.196H.464z" opacity=".321"/><path d="M1.654 293.23h1.19v.198h-1.19zm1.39 0h1.19v.198h-1.19zm1.388 0h1.19v.198h-1.19zm-2.778 1.19h1.19v.2h-1.19zm1.39 0h1.19v.2h-1.19zm1.388 0h1.19v.2h-1.19zm-2.778 1.19h1.19v.2h-1.19zm1.39 0h1.19v.2h-1.19zm1.388 0h1.19v.2h-1.19z" opacity=".321"/><path d="M1.654 294.42v.2H.464v-.2zm0 1.19v.2H.464v-.2z" fill="#a1a19f"/><path d="M1.455 291.047h.2v1.19h-.2zm1.39 0h.2v1.19h-.2zm1.388 0h.2v1.19h-.2z" fill="#5b5b5b" opacity=".4"/></g><path d="M1.852 5.82H.794v.265h1.058zM1.852 6.88H.794v.264h1.058z" opacity=".321"/><path d="M2.117.265H.53v7.937h1.587z" fill="#8ed440"/><path d="M2.117 0c.146 0 .264.118.264.265v7.937c0 .147-.117.265-.263.265H.53c-.147 0-.265-.118-.265-.265V.265C.265.118.383 0 .53 0zm0 .265H.53v7.937h1.587z" fill="#126400" fill-opacity=".571"/><path d="M2.117 5.027v.265H.53v-.265zm0 1.588v.264H.53v-.265zM2.117 1.852v.265H.53v-.265zm0 1.588v.264H.53V3.44z" opacity=".5" fill="#c0e98e"/><g color="#000"><path overflow="visible" display="block" d="M5.953 5.68L3.52 3.705 5.952 1.76v1.286H8.07v1.322H5.95z" fill="url(#f)" transform="translate(.264 2.646)"/><path stroke-miterlimit="7" overflow="visible" display="block" d="M5.6 4.936L4.07 3.704 5.6 2.49v.908h2.117v.617H5.6z" opacity=".401" fill="none" stroke="url(#g)" stroke-width=".265" transform="translate(.264 2.646)"/><path overflow="visible" d="M6.217 8.327L3.783 6.35l2.434-1.945v1.287h2.117v1.322H6.215z" style="isolation:auto;mix-blend-mode:normal" opacity=".5" solid-color="#000000" fill="none" stroke="#7239b3" stroke-width=".265" stroke-linejoin="round"/></g></svg>