<svg xmlns="http://www.w3.org/2000/svg" xmlns:xlink="http://www.w3.org/1999/xlink" width="32" height="32"><defs><linearGradient id="h"><stop offset="0" stop-color="#002e99"/><stop offset="1" stop-color="#206b00"/></linearGradient><linearGradient id="g"><stop offset="0" stop-color="#fff"/><stop offset=".42" stop-color="#fff" stop-opacity=".235"/><stop offset="1" stop-color="#fff" stop-opacity=".157"/><stop offset="1" stop-color="#fff" stop-opacity=".392"/></linearGradient><linearGradient id="f"><stop offset="0" stop-color="#fff"/><stop offset="0" stop-color="#fff" stop-opacity=".235"/><stop offset="1" stop-color="#fff" stop-opacity=".157"/><stop offset="1" stop-color="#fff" stop-opacity=".392"/></linearGradient><linearGradient id="e"><stop offset="0" stop-color="#8cd5ff"/><stop offset="1" stop-color="#9bdb4d"/></linearGradient><linearGradient x1="24" y1="6.591" x2="24" y2="41.414" id="m" xlink:href="#a" gradientUnits="userSpaceOnUse" gradientTransform="matrix(.45946 0 0 .45946 .974 8.972)"/><linearGradient id="a"><stop offset="0" stop-color="#fff"/><stop offset="0" stop-color="#fff" stop-opacity=".235"/><stop offset="1" stop-color="#fff" stop-opacity=".157"/><stop offset="1" stop-color="#fff" stop-opacity=".392"/></linearGradient><radialGradient cx="4.993" cy="43.5" r="2.5" fx="4.993" fy="43.5" id="i" xlink:href="#b" gradientUnits="userSpaceOnUse" gradientTransform="matrix(2.00378 0 0 1.4 27.988 -17.4)"/><linearGradient id="b"><stop offset="0" stop-color="#181818"/><stop offset="1" stop-color="#181818" stop-opacity="0"/></linearGradient><radialGradient cx="4.993" cy="43.5" r="2.5" fx="4.993" fy="43.5" id="j" xlink:href="#c" gradientUnits="userSpaceOnUse" gradientTransform="matrix(2.00378 0 0 1.4 -20.012 -104.4)"/><linearGradient id="c"><stop offset="0" stop-color="#181818"/><stop offset="1" stop-color="#181818" stop-opacity="0"/></linearGradient><linearGradient x1="25.058" y1="47.028" x2="25.058" y2="39.999" id="k" xlink:href="#d" gradientUnits="userSpaceOnUse"/><linearGradient id="d"><stop offset="0" stop-color="#181818" stop-opacity="0"/><stop offset=".5" stop-color="#181818"/><stop offset="1" stop-color="#181818" stop-opacity="0"/></linearGradient><linearGradient xlink:href="#e" id="l" x1="7.284" y1="6.993" x2="17.171" y2="16.88" gradientUnits="userSpaceOnUse" gradientTransform="translate(0 8)"/><linearGradient xlink:href="#f" id="o" gradientUnits="userSpaceOnUse" gradientTransform="matrix(.54032 0 0 .54316 21.2 -199.74)" x1="-8.688" y1="411.436" x2="-8.688" y2="414.752"/><linearGradient xlink:href="#g" id="p" gradientUnits="userSpaceOnUse" gradientTransform="matrix(.3618 0 0 .36374 13.485 -135.257)" x1="-8.688" y1="410.109" x2="-8.688" y2="418.67"/><linearGradient xlink:href="#h" id="n" x1="2.935" y1="2.62" x2="21.571" y2="21.733" gradientUnits="userSpaceOnUse" gradientTransform="translate(0 8)"/></defs><g transform="translate(0 -10.333) scale(1.33333)"><g opacity=".4"><path fill="url(#i)" d="M38 40h5v7h-5z" transform="matrix(.57895 0 0 .42857 -1.895 10.857)"/><path transform="matrix(-.57895 0 0 -.42857 -1.895 10.857)" fill="url(#j)" d="M-10-47h5v7h-5z"/><path fill="url(#k)" d="M10 40h28v7H10z" transform="matrix(.57895 0 0 .42857 -1.895 10.857)"/></g><rect width="18.79" height="18.752" rx="1" ry="1" x="2.595" y="10.462" color="#000" overflow="visible" fill="url(#l)"/><path opacity=".5" fill="none" stroke="url(#m)" stroke-width=".75" stroke-linecap="round" stroke-linejoin="round" d="M3.393 11.094h17.24v17.29H3.394z"/><rect width="18.733" height="18.828" rx="1" ry="1" x="2.633" y="10.367" color="#000" overflow="visible" opacity=".5" fill="none" stroke="url(#n)" stroke-width=".75" stroke-linecap="round" stroke-linejoin="round"/><path d="M17.34 24.788L8 15.45l-.522.522 9.342 9.338z" fill="#555761" stroke="#555761" stroke-width=".375"/><path d="M14.627 22.383h4.503v4.502h-4.503z" fill="#fafafa" stroke="#555761" stroke-width=".75" stroke-linecap="round" stroke-linejoin="round" stroke-opacity=".75"/><path d="M15.528 23.283h2.7v2.702h-2.7z" fill="none" stroke="url(#o)" stroke-width=".75" stroke-linecap="round"/><path d="M7.02 12.5c1.424.002 2.49 1.017 2.48 2.476-.01 1.577-.968 2.523-2.447 2.524-1.584 0-2.547-1.023-2.553-2.506-.006-1.507.96-2.496 2.52-2.494z" fill="#fafafa" stroke="#555761" stroke-width=".75" stroke-linecap="round" stroke-linejoin="round" stroke-opacity=".75"/><path d="M6.984 13.493c.86.014 1.5.614 1.496 1.494-.006.95-.584 1.52-1.476 1.52-1.023.002-1.536-.513-1.54-1.51-.002-.98.58-1.52 1.52-1.504z" overflow="visible" fill="none" stroke="url(#p)" stroke-linecap="round"/></g></svg>