<svg xmlns="http://www.w3.org/2000/svg" xmlns:xlink="http://www.w3.org/1999/xlink" width="32" height="32"><defs><linearGradient id="h"><stop offset="0" stop-color="#002e99"/><stop offset="1" stop-color="#206b00"/></linearGradient><linearGradient id="g"><stop offset="0" stop-color="#fff"/><stop offset=".42" stop-color="#fff" stop-opacity=".235"/><stop offset="1" stop-color="#fff" stop-opacity=".157"/><stop offset="1" stop-color="#fff" stop-opacity=".392"/></linearGradient><linearGradient id="f"><stop offset="0" stop-color="#fff"/><stop offset="0" stop-color="#fff" stop-opacity=".235"/><stop offset="1" stop-color="#fff" stop-opacity=".157"/><stop offset="1" stop-color="#fff" stop-opacity=".392"/></linearGradient><linearGradient id="e"><stop offset="0" stop-color="#8cd5ff"/><stop offset="1" stop-color="#9bdb4d" stop-opacity=".011"/></linearGradient><linearGradient x1="24" y1="6.591" x2="24" y2="41.414" id="j" xlink:href="#a" gradientUnits="userSpaceOnUse" gradientTransform="translate(1.3 1.63) scale(.6126)"/><linearGradient id="a"><stop offset="0" stop-color="#fff"/><stop offset="0" stop-color="#fff" stop-opacity=".235"/><stop offset="1" stop-color="#fff" stop-opacity=".157"/><stop offset="1" stop-color="#fff" stop-opacity=".392"/></linearGradient><radialGradient cx="4.993" cy="43.5" r="2.5" fx="4.993" fy="43.5" id="l" xlink:href="#b" gradientUnits="userSpaceOnUse" gradientTransform="matrix(2.00378 0 0 1.4 27.988 -17.4)"/><linearGradient id="b"><stop offset="0" stop-color="#181818"/><stop offset="1" stop-color="#181818" stop-opacity="0"/></linearGradient><radialGradient cx="4.993" cy="43.5" r="2.5" fx="4.993" fy="43.5" id="m" xlink:href="#c" gradientUnits="userSpaceOnUse" gradientTransform="matrix(2.00378 0 0 1.4 -20.012 -104.4)"/><linearGradient id="c"><stop offset="0" stop-color="#181818"/><stop offset="1" stop-color="#181818" stop-opacity="0"/></linearGradient><linearGradient x1="25.058" y1="47.028" x2="25.058" y2="39.999" id="n" xlink:href="#d" gradientUnits="userSpaceOnUse"/><linearGradient id="d"><stop offset="0" stop-color="#181818" stop-opacity="0"/><stop offset=".5" stop-color="#181818"/><stop offset="1" stop-color="#181818" stop-opacity="0"/></linearGradient><linearGradient xlink:href="#f" id="o" gradientUnits="userSpaceOnUse" gradientTransform="matrix(.72042 0 0 .7242 28.268 -276.653)" x1="-8.688" y1="411.436" x2="-8.688" y2="414.752"/><linearGradient xlink:href="#g" id="p" gradientUnits="userSpaceOnUse" gradientTransform="matrix(.4824 0 0 .48498 17.98 -190.675)" x1="-8.688" y1="410.109" x2="-8.688" y2="418.67"/><linearGradient xlink:href="#h" id="k" x1="2.935" y1="2.62" x2="21.571" y2="21.733" gradientUnits="userSpaceOnUse" gradientTransform="translate(0 .333) scale(1.33333)"/><linearGradient xlink:href="#e" id="i" gradientUnits="userSpaceOnUse" gradientTransform="translate(0 .333) scale(1.33333)" x1="7.284" y1="6.993" x2="17.171" y2="16.88"/></defs><path d="M24 24v4.52h3.174c.738 0 1.332-.594 1.332-1.332V24H24z" fill="#777"/><path d="M19 24v4.52h5V24h-5z" fill="#b3b3b3"/><path d="M14 24v4.52h5V24h-5z" fill="#777"/><path d="M9 24v4.52h5V24H9z" fill="#b3b3b3"/><path d="M19 19h5v5h-5z" fill="#777"/><path d="M14 19h5v5h-5z" fill="#b3b3b3"/><path d="M24 14v5h4.506v-5H24z" fill="#777"/><path d="M19 14h5v5h-5z" fill="#b3b3b3"/><path d="M19 9h5v5h-5zM24 4v5h4.506V4.95c0-.374-.152-.708-.397-.95H24z" fill="#777"/><path d="M19 4h5v5h-5z" fill="#b3b3b3"/><path d="M14 14h5v5h-5zM9 19h5v5H9z" fill="#777"/><path d="M24 19v5h4.506v-5H24z" fill="#b3b3b3"/><path d="M4 24v4.232c.224.17.49.29.793.29H9V24H4z" fill="#777"/><path d="M24 9v5h4.506V9H24z" fill="#b3b3b3"/><rect y="3.616" x="3.46" ry="1.333" rx="1.333" height="24.905" width="25.046" color="#000" overflow="visible" fill="url(#i)"/><path opacity=".5" fill="none" stroke="url(#j)" stroke-linecap="round" stroke-linejoin="round" d="M4.525 4.46h22.988V27.51H4.525z"/><rect y="3.489" x="3.511" ry="1.333" rx="1.333" height="25.104" width="24.977" color="#000" overflow="visible" opacity=".5" fill="none" stroke="url(#k)" stroke-linecap="round" stroke-linejoin="round"/><g><g opacity=".4"><path fill="url(#l)" d="M38 40h5v7h-5z" transform="matrix(.77193 0 0 .57143 -2.526 4.143)"/><path transform="matrix(-.77193 0 0 -.57143 -2.526 4.143)" fill="url(#m)" d="M-10-47h5v7h-5z"/><path fill="url(#n)" d="M10 40h28v7H10z" transform="matrix(.77193 0 0 .57143 -2.526 4.143)"/></g></g><path d="M23.122 22.718l-12.455-12.45-.696.695 12.456 12.45z" fill="#555761" stroke="#555761" stroke-width=".5"/><path d="M19.503 19.51h6.003v6.004h-6.003z" fill="#fafafa" stroke="#555761" stroke-linecap="round" stroke-linejoin="round" stroke-opacity=".75"/><path d="M20.703 20.71h3.603v3.603h-3.603z" fill="none" stroke="url(#o)" stroke-linecap="round"/><path d="M9.36 6.333c1.9.003 3.318 1.356 3.307 3.302C12.654 11.737 11.377 13 9.404 13 7.292 13.002 6.007 11.636 6 9.658c-.008-2.01 1.28-3.328 3.36-3.325z" fill="#fafafa" stroke="#555761" stroke-linecap="round" stroke-linejoin="round" stroke-opacity=".75"/><path d="M9.31 7.658c1.147.018 2.003.817 1.996 1.99-.008 1.268-.778 2.03-1.967 2.03-1.366 0-2.05-.686-2.054-2.015-.004-1.305.773-2.025 2.025-2.005z" overflow="visible" fill="none" stroke="url(#p)" stroke-width="1.333" stroke-linecap="round"/></svg>