<svg height="32" width="32" xmlns="http://www.w3.org/2000/svg" xmlns:xlink="http://www.w3.org/1999/xlink"><linearGradient id="a" gradientTransform="matrix(.04577 0 0 .00824 -2.542 25.98)" gradientUnits="userSpaceOnUse" x1="302.85699" x2="302.85699" y1="366.64801" y2="609.505"><stop offset="0" stop-opacity="0"/><stop offset=".5"/><stop offset="1" stop-opacity="0"/></linearGradient><radialGradient id="b" cx="605.71399" cy="486.64801" gradientTransform="matrix(-.01566 0 0 .00824 12.39 25.98)" gradientUnits="userSpaceOnUse" r="117.143" xlink:href="#l"/><radialGradient id="c" cx="605.71399" cy="486.64801" gradientTransform="matrix(.01566 0 0 .00824 5.51 25.98)" gradientUnits="userSpaceOnUse" r="117.143" xlink:href="#l"/><linearGradient id="d" gradientTransform="matrix(.62857 0 0 .6084 -1.086 .465)" gradientUnits="userSpaceOnUse" x1="25.132" x2="25.591421" xlink:href="#j" y1=".985" y2="35.396122"/><linearGradient id="e" gradientTransform="matrix(.56757 0 0 .72973 .378 -1.514)" gradientUnits="userSpaceOnUse" x1="24" x2="24.000565" y1="5.564" y2="26.741398"><stop offset="0" stop-color="#fff"/><stop offset=".036" stop-color="#fff" stop-opacity=".235"/><stop offset=".951" stop-color="#fff" stop-opacity=".157"/><stop offset="1" stop-color="#fff" stop-opacity=".392"/></linearGradient><linearGradient id="f" gradientTransform="matrix(.53064 0 0 .5897 37.27 -.792)" gradientUnits="userSpaceOnUse" x1="-51.390774" x2="-51.785999" y1="38.650162" y2="2.906"><stop offset="0" stop-opacity=".318"/><stop offset="1" stop-opacity=".24"/></linearGradient><linearGradient id="g" gradientTransform="matrix(.24324 0 0 .35135 2.162 7.568)" gradientUnits="userSpaceOnUse" x1="24.000986" x2="24" y1="1.229543" y2="41.077"><stop offset="0" stop-color="#fff"/><stop offset=".04163364" stop-color="#fff" stop-opacity=".235"/><stop offset="1" stop-color="#fff" stop-opacity=".157"/><stop offset="1" stop-color="#fff" stop-opacity=".392"/></linearGradient><linearGradient id="h" gradientTransform="matrix(.2538 0 0 .30502 19.13 7.315)" gradientUnits="userSpaceOnUse" x1="-51.785999" x2="-51.785999" y1="50.785999" y2="2.906"><stop offset="0" stop-opacity=".34"/><stop offset="1" stop-opacity=".247"/></linearGradient><linearGradient id="i" gradientTransform="matrix(.2857 0 0 .3042 17.143 14.233)" gradientUnits="userSpaceOnUse" x1="25.132" x2="25.132" xlink:href="#j" y1=".985" y2="47.013"/><linearGradient id="j"><stop offset="0" stop-color="#f4f4f4"/><stop offset="1" stop-color="#dbdbdb"/></linearGradient><linearGradient id="k" gradientUnits="userSpaceOnUse" x1="16.655" x2="16.659" y1="20.009" y2="12.433"><stop offset="0" stop-color="#fff"/><stop offset="1" stop-color="#fff" stop-opacity="0"/></linearGradient><linearGradient id="l"><stop offset="0"/><stop offset="1" stop-opacity="0"/></linearGradient><g transform="translate(0 1)"><g transform="translate(.05 -10)"><path d="m2.95 29h12v2h-12z" fill="url(#a)" opacity=".15"/><path d="m2.95 29v2c-.807.004-1.95-.448-1.95-1s.9-1 1.95-1z" fill="url(#b)" opacity=".15"/><path d="m14.95 29v2c.807.004 1.95-.448 1.95-1s-.9-1-1.95-1z" fill="url(#c)" opacity=".15"/></g><path d="m3 2h12v16.998l-12 .002z" fill="url(#d)"/><g fill="none" stroke-linejoin="round"><path d="m14.5 18.498-11 .002v-16l11-.002z" stroke="url(#e)" stroke-linecap="round"/><path d="m2.5 1.5h13v17.998l-13 .002z" stroke="url(#f)"/></g></g><path d="m5 4 10.999987.0012.000013 16.9988h-11v-16.999948z" opacity=".05"/><g transform="translate(4 4)"><g transform="translate(.05 -10)"><path d="m2.95 29h12v2h-12z" fill="url(#a)" opacity=".15"/><path d="m2.95 29v2c-.807.004-1.95-.448-1.95-1s.9-1 1.95-1z" fill="url(#b)" opacity=".15"/><path d="m14.95 29v2c.807.004 1.95-.448 1.95-1s-.9-1-1.95-1z" fill="url(#c)" opacity=".15"/></g><path d="m3 2h12v16.998l-12 .002z" fill="url(#d)"/><g fill="none" stroke-linejoin="round"><path d="m14.5 18.498-11 .002v-16l11-.002z" stroke="url(#e)" stroke-linecap="round"/><path d="m2.5 1.5h13v17.998l-13 .002z" stroke="url(#f)"/></g></g><path d="m17 13h12v16h-12z" fill="url(#i)"/><g fill="none" transform="translate(6 6)"><path d="m12.5 22.5h-11v-15h11z" stroke="url(#g)" stroke-linecap="round" transform="translate(10)"/><path d="m.5 6.5h13v17h-13z" stroke="url(#h)" stroke-linejoin="round" transform="translate(10)"/><path d="m20.677 16.145-3.088 3.63-3.266-3.63h2.177v-3.645h1.999v3.645z" opacity=".6" stroke="url(#k)" stroke-linecap="round"/></g><path d="m26.677 21.145-3.088 3.63-3.266-3.63h2.177v-3.645h2v3.645z" fill="#46a8ea" fill-opacity=".984" stroke="#2f78c8" stroke-linecap="round"/></svg>