<svg height="32" width="32" xmlns="http://www.w3.org/2000/svg" xmlns:xlink="http://www.w3.org/1999/xlink"><linearGradient id="a" gradientTransform="matrix(.04577 0 0 .00824 -2.542 25.98)" gradientUnits="userSpaceOnUse" x1="302.85699" x2="302.85699" y1="366.64801" y2="609.505"><stop offset="0" stop-opacity="0"/><stop offset=".5"/><stop offset="1" stop-opacity="0"/></linearGradient><radialGradient id="b" cx="605.71399" cy="486.64801" gradientTransform="matrix(-.01566 0 0 .00824 12.39 25.98)" gradientUnits="userSpaceOnUse" r="117.143" xlink:href="#g"/><radialGradient id="c" cx="605.71399" cy="486.64801" gradientTransform="matrix(.01566 0 0 .00824 5.51 25.98)" gradientUnits="userSpaceOnUse" r="117.143" xlink:href="#g"/><linearGradient id="d" gradientTransform="matrix(.62857 0 0 .6084 -1.086 .465)" gradientUnits="userSpaceOnUse" x1="25.132" x2="25.591421" y1=".985" y2="35.396122"><stop offset="0" stop-color="#f4f4f4"/><stop offset="1" stop-color="#dbdbdb"/></linearGradient><linearGradient id="e" gradientTransform="matrix(.56757 0 0 .72973 .378 -1.514)" gradientUnits="userSpaceOnUse" x1="24" x2="24.000565" y1="5.564" y2="26.741398"><stop offset="0" stop-color="#fff"/><stop offset=".036" stop-color="#fff" stop-opacity=".235"/><stop offset=".951" stop-color="#fff" stop-opacity=".157"/><stop offset="1" stop-color="#fff" stop-opacity=".392"/></linearGradient><linearGradient id="f" gradientTransform="matrix(.53064 0 0 .5897 37.27 -.792)" gradientUnits="userSpaceOnUse" x1="-51.390774" x2="-51.785999" y1="38.650162" y2="2.906"><stop offset="0" stop-opacity=".318"/><stop offset="1" stop-opacity=".24"/></linearGradient><linearGradient id="g"><stop offset="0"/><stop offset="1" stop-opacity="0"/></linearGradient><g transform="translate(0 1)"><g transform="translate(.05 -10)"><path d="m2.95 29h12v2h-12z" fill="url(#a)" opacity=".15"/><path d="m2.95 29v2c-.807.004-1.95-.448-1.95-1s.9-1 1.95-1z" fill="url(#b)" opacity=".15"/><path d="m14.95 29v2c.807.004 1.95-.448 1.95-1s-.9-1-1.95-1z" fill="url(#c)" opacity=".15"/></g><path d="m3 2h12v16.998l-12 .002z" fill="url(#d)"/><g fill="none" stroke-linejoin="round"><path d="m14.5 18.498-11 .002v-16l11-.002z" stroke="url(#e)" stroke-linecap="round"/><path d="m2.5 1.5h13v17.998l-13 .002z" stroke="url(#f)"/></g></g><path d="m5 4 10.999987.0012.000013 16.9988h-11v-16.999948z" opacity=".05"/><g transform="translate(4 4)"><g transform="translate(.05 -10)"><path d="m2.95 29h12v2h-12z" fill="url(#a)" opacity=".15"/><path d="m2.95 29v2c-.807.004-1.95-.448-1.95-1s.9-1 1.95-1z" fill="url(#b)" opacity=".15"/><path d="m14.95 29v2c.807.004 1.95-.448 1.95-1s-.9-1-1.95-1z" fill="url(#c)" opacity=".15"/></g><path d="m3 2h12v16.998l-12 .002z" fill="url(#d)"/><g fill="none" stroke-linejoin="round"><path d="m14.5 18.498-11 .002v-16l11-.002z" stroke="url(#e)" stroke-linecap="round"/><path d="m2.5 1.5h13v17.998l-13 .002z" stroke="url(#f)"/></g></g><g transform="translate(6 -2)"><path d="m10.868 30.5c.008.36.03.914.343.99 3.3.02 6.28.003 9.58.01.34.015.353-.622.342-1h-10.263z" fill="#505050" stroke="#565656" stroke-linecap="square"/><g transform="translate(0 8)"><g stroke-linecap="round"><path d="m8.647 14.556.748-3.05 13.216.003.716 3.062z" fill="#4f4f4f" fill-rule="evenodd"/><path d="m9.225 14.517h13.55c.402 0 .725.348.725.78v6.203h-15v-6.203c0-.432.324-.78.726-.78z" fill="#4f4f4f"/><path d="m9.225 14.517h13.55c.402 0 .725.348.725.78v6.203h-15v-6.203c0-.432.324-.78.726-.78z" fill="none" opacity=".71" stroke="#393939" stroke-linejoin="round"/><path d="m20 16h2v2h-2z" fill="#0cceff"/><path d="m8.647 14.556.748-3.05 13.216.003.716 3.062z" fill="none" opacity=".7" stroke="#393939" stroke-linecap="butt"/></g><g fill="#e9e9e9"><path d="m21 19v3.506c0 .274-.07.494-.156.494h-9.688c-.086 0-.156-.22-.156-.494v-3.506z"/><path d="m11.483 8.498 9.027.002v4.856h-9.027z" stroke="#8c8c8c" stroke-linejoin="round" stroke-width=".995"/></g></g></g></svg>