<svg xmlns="http://www.w3.org/2000/svg" xmlns:xlink="http://www.w3.org/1999/xlink" height="32" width="32" version="1"><defs><radialGradient id="n" gradientUnits="userSpaceOnUse" cy="486.65" cx="605.71" gradientTransform="matrix(-.06553 0 0 .0247 -21.83 10.577)" r="117.14"><stop offset="0" stop-color="#1e1e1e"/><stop offset="1" stop-color="#1e1e1e" stop-opacity="0"/></radialGradient><radialGradient id="m" gradientUnits="userSpaceOnUse" cy="486.65" cx="605.71" gradientTransform="matrix(.06553 0 0 .0247 -69.175 10.577)" r="117.14"><stop offset="0" stop-color="#1e1e1e"/><stop offset="1" stop-color="#1e1e1e" stop-opacity="0"/></radialGradient><linearGradient id="l" y2="609.51" gradientUnits="userSpaceOnUse" x2="302.86" gradientTransform="matrix(.06553 0 0 .0247 -69.188 10.577)" y1="366.65" x1="302.86"><stop offset="0" stop-color="#1e1e1e" stop-opacity="0"/><stop offset=".5" stop-color="#1e1e1e"/><stop offset="1" stop-color="#1e1e1e" stop-opacity="0"/></linearGradient><linearGradient id="p" y2="14.038" gradientUnits="userSpaceOnUse" x2="28.103" gradientTransform="matrix(.46667 0 0 .50064 .8 -3.725)" y1="45" x1="28.103"><stop offset="0" stop-color="#727272"/><stop offset="1" stop-color="#bebebe"/></linearGradient><linearGradient id="o" y2="45.6" gradientUnits="userSpaceOnUse" x2="19.875" gradientTransform="matrix(.46667 0 0 .45455 .8 -1.673)" y1="8.163" x1="20.053"><stop offset="0" stop-color="#fff"/><stop offset=".874" stop-color="#cfcfcf"/><stop offset="1" stop-color="#999"/></linearGradient><linearGradient id="q" y2="44.001" gradientUnits="userSpaceOnUse" x2="25.577" gradientTransform="matrix(.44186 0 0 .4643 1.395 -2.642)" y1="15" x1="25.577"><stop offset="0" stop-color="#fff"/><stop offset="1" stop-color="#fff" stop-opacity="0"/></linearGradient><linearGradient id="r" y2="45.531" xlink:href="#a" gradientUnits="userSpaceOnUse" x2="23.929" gradientTransform="matrix(.46574 0 0 .4851 .822 -3.048)" y1="30.773" x1="23.929"/><linearGradient id="a"><stop offset="0" stop-color="#1e1e1e"/><stop offset="1" stop-color="#1e1e1e" stop-opacity="0"/></linearGradient><linearGradient id="s" y2="16.007" xlink:href="#a" gradientUnits="userSpaceOnUse" x2="23.904" gradientTransform="matrix(.46574 0 0 .4851 .822 -1.414)" y1="35.75" x1="23.904"/><linearGradient id="b"><stop offset="0" stop-opacity="0"/><stop offset=".5"/><stop offset="1" stop-opacity="0"/></linearGradient><linearGradient id="c"><stop offset="0"/><stop offset="1" stop-opacity="0"/></linearGradient><linearGradient id="d"><stop offset="0" stop-color="#f4f4f4"/><stop offset="1" stop-color="#dbdbdb"/></linearGradient><linearGradient id="e"><stop offset="0" stop-color="#fff"/><stop offset="0" stop-color="#fff" stop-opacity=".235"/><stop offset="1" stop-color="#fff" stop-opacity=".157"/><stop offset="1" stop-color="#fff" stop-opacity=".392"/></linearGradient><linearGradient id="f" gradientTransform="matrix(.04577 0 0 .00824 -.542 25.98)" gradientUnits="userSpaceOnUse" x1="302.857" x2="302.857" y1="366.648" y2="609.505"><stop offset="0" stop-opacity="0"/><stop offset=".5"/><stop offset="1" stop-opacity="0"/></linearGradient><radialGradient id="g" cx="605.714" cy="486.648" gradientTransform="matrix(-.01566 0 0 .00824 14.39 25.98)" gradientUnits="userSpaceOnUse" r="117.143" xlink:href="#c"/><radialGradient id="h" cx="605.714" cy="486.648" gradientTransform="matrix(.01566 0 0 .00824 17.61 25.98)" gradientUnits="userSpaceOnUse" r="117.143" xlink:href="#c"/><linearGradient id="i" gradientTransform="matrix(.62857 0 0 .6084 .914 -.535)" gradientUnits="userSpaceOnUse" x1="25.132" x2="25.132" y1=".985" y2="47.013"><stop offset="0" stop-color="#f4f4f4"/><stop offset="1" stop-color="#dbdbdb"/></linearGradient><linearGradient id="j" gradientTransform="matrix(.56757 0 0 .72973 2.378 -2.514)" gradientUnits="userSpaceOnUse" x1="24" x2="24" y1="5.564" y2="43"><stop offset="0" stop-color="#fff"/><stop offset=".036" stop-color="#fff" stop-opacity=".235"/><stop offset=".951" stop-color="#fff" stop-opacity=".157"/><stop offset="1" stop-color="#fff" stop-opacity=".392"/></linearGradient><linearGradient id="k" gradientTransform="matrix(.53064 0 0 .5897 39.27 -1.792)" gradientUnits="userSpaceOnUse" x1="-51.786" x2="-51.786" y1="50.786" y2="2.906"><stop offset="0" stop-opacity=".318"/><stop offset="1" stop-opacity=".24"/></linearGradient></defs><path d="M4.95 29h22.1v2H4.95z" opacity=".15" fill="url(#f)" transform="translate(-2)"/><path d="M4.95 29v2c-.807.004-1.95-.448-1.95-1s.9-1 1.95-1z" opacity=".15" fill="url(#g)" transform="translate(-2)"/><path d="M27.05 29v2c.807.004 1.95-.448 1.95-1s-.9-1-1.95-1z" opacity=".15" fill="url(#h)" transform="translate(-2)"/><path d="M5 1l22 .002V29H5V1z" fill="url(#i)" transform="translate(-2)"/><g fill="none" stroke-linejoin="round"><path d="M26.5 28.5h-21v-27h21z" stroke="url(#j)" stroke-linecap="round" transform="translate(-2)"/><path d="M4.5.5l23 .002V29.5h-23V.5z" stroke="url(#k)" transform="translate(-2)"/></g><g transform="translate(0 5.062) scale(1.33333)"><g stroke-width="1.03"><path opacity=".402" fill="url(#l)" d="M-61.324 19.636h31.644v6h-31.644z" transform="matrix(.5004 0 0 .5 34.77 7.636)"/><path d="M-29.68 19.636v6c3.375.01 8.16-1.344 8.16-3s-3.767-3-8.16-3z" opacity=".402" fill="url(#m)" transform="matrix(.5004 0 0 .5 34.77 7.636)"/><path d="M-61.324 19.636v6c-3.375.01-8.16-1.344-8.16-3s3.767-3 8.16-3z" opacity=".402" fill="url(#n)" transform="matrix(.5004 0 0 .5 34.77 7.636)"/></g><rect rx=".467" ry=".406" height="12.711" width="20.268" y="5.599" x="1.888" fill="url(#o)" fill-rule="evenodd" stroke="url(#p)" stroke-width=".75" stroke-linecap="square" stroke-linejoin="round"/><rect rx=".036" ry=".035" height="11.141" width="19" y="6.413" x="2.5" opacity=".4" fill="none" stroke="url(#q)" stroke-linecap="square"/><path d="M8.622 13.067L2.66 18.132m12.81-5.245l6.195 5.294" opacity=".5" fill="none" stroke="url(#r)" stroke-width=".75"/><path d="M2.337 6.2L12 15.336l9.742-9.087" opacity=".5" fill="none" stroke="url(#s)" stroke-width=".75"/></g></svg>