<svg height="32" width="32" xmlns="http://www.w3.org/2000/svg" xmlns:xlink="http://www.w3.org/1999/xlink"><linearGradient id="a" gradientTransform="matrix(.04577 0 0 .00824 -2.542 25.98)" gradientUnits="userSpaceOnUse" x1="302.85699" x2="302.85699" xlink:href="#q" y1="366.64801" y2="609.505"/><radialGradient id="b" cx="605.71399" cy="486.64801" gradientTransform="matrix(-.01566 0 0 .00824 12.39 25.98)" gradientUnits="userSpaceOnUse" r="117.143" xlink:href="#t"/><radialGradient id="c" cx="605.71399" cy="486.64801" gradientTransform="matrix(.01566 0 0 .00824 5.51 25.98)" gradientUnits="userSpaceOnUse" r="117.143" xlink:href="#t"/><linearGradient id="d" gradientTransform="matrix(.62857 0 0 .6084 -1.086 .465)" gradientUnits="userSpaceOnUse" x1="25.132" x2="25.591421" xlink:href="#o" y1=".985" y2="35.396122"/><linearGradient id="e" gradientTransform="matrix(.56757 0 0 .72973 .378 -1.514)" gradientUnits="userSpaceOnUse" x1="24" x2="24.000565" y1="5.564" y2="26.741398"><stop offset="0" stop-color="#fff"/><stop offset=".036" stop-color="#fff" stop-opacity=".235"/><stop offset=".951" stop-color="#fff" stop-opacity=".157"/><stop offset="1" stop-color="#fff" stop-opacity=".392"/></linearGradient><linearGradient id="f" gradientTransform="matrix(.53064 0 0 .5897 37.27 -.792)" gradientUnits="userSpaceOnUse" x1="-51.390774" x2="-51.785999" y1="38.650162" y2="2.906"><stop offset="0" stop-opacity=".318"/><stop offset="1" stop-opacity=".24"/></linearGradient><linearGradient id="g" gradientTransform="matrix(.39078075 0 0 .4337445 4.602995 15.52236)" gradientUnits="userSpaceOnUse" x1="16.626165" x2="20.054544" xlink:href="#j" y1="15.298182" y2="24.627615"/><linearGradient id="h" gradientTransform="matrix(.45945946 0 0 .29729728 2.972974 16.864868)" gradientUnits="userSpaceOnUse" x1="23.99999" x2="23.99999" y1="6.675988" y2="41.184601"><stop offset="0" stop-color="#fff"/><stop offset=".01864429" stop-color="#fff" stop-opacity=".235294"/><stop offset=".98085731" stop-color="#fff" stop-opacity=".156863"/><stop offset="1" stop-color="#fff" stop-opacity=".392157"/></linearGradient><linearGradient id="i" gradientTransform="matrix(.42307923 0 0 .39244743 3.84619 12.352884)" gradientUnits="userSpaceOnUse" spreadMethod="reflect" x1="25.795622" x2="25.795622" y1="35.817699" y2="11.656369"><stop offset="0" stop-color="#969696"/><stop offset=".5511902" stop-color="#858585" stop-opacity=".634783"/><stop offset="1" stop-color="#939393" stop-opacity="0"/></linearGradient><linearGradient id="j"><stop offset="0" stop-color="#fff"/><stop offset="1" stop-color="#fff" stop-opacity="0"/></linearGradient><linearGradient id="k" gradientTransform="matrix(.42307923 0 0 .39244743 3.84619 11.014342)" gradientUnits="userSpaceOnUse" spreadMethod="reflect" x1="25.525208" x2="25.525208" xlink:href="#j" y1="30.188753" y2="15.737678"/><linearGradient id="l" gradientTransform="matrix(.42223777 0 0 .41882295 3.90701 12.452607)" gradientUnits="userSpaceOnUse" x1="23.903786" x2="23.903786" y1="35.75" y2="20.443331"><stop offset="0"/><stop offset=".5" stop-opacity=".498039"/><stop offset="1" stop-opacity="0"/></linearGradient><linearGradient id="m" gradientTransform="matrix(.42307923 0 0 .39244743 3.84619 13.747128)" gradientUnits="userSpaceOnUse" spreadMethod="reflect" x1="25.525208" x2="25.525208" xlink:href="#j" y1="30.188753" y2="15.737678"/><linearGradient id="n" gradientTransform="matrix(.42307923 0 0 .39244743 3.84619 12.352884)" gradientUnits="userSpaceOnUse" spreadMethod="reflect" x1="25.705484" x2="25.525208" y1="32.32658" y2="15.737678"><stop offset="0" stop-color="#a0a0a0"/><stop offset=".5" stop-color="#8f8f8f" stop-opacity=".634783"/><stop offset="1" stop-color="#9d9d9d" stop-opacity="0"/></linearGradient><linearGradient id="o"><stop offset="0" stop-color="#f4f4f4"/><stop offset="1" stop-color="#dbdbdb"/></linearGradient><linearGradient id="p" gradientTransform="matrix(.40000003 0 0 .36363633 4.4 13.81818)" gradientUnits="userSpaceOnUse" x1="20.052792" x2="20.052792" xlink:href="#o" y1="10.636821" y2="45.243549"/><linearGradient id="q"><stop offset="0" stop-opacity="0"/><stop offset=".5"/><stop offset="1" stop-opacity="0"/></linearGradient><linearGradient id="r" gradientTransform="matrix(2.774389 0 0 1.969706 -1892.179 -872.8854)" gradientUnits="userSpaceOnUse" x1="302.85715" x2="302.85715" xlink:href="#q" y1="366.64789" y2="609.50507"/><radialGradient id="s" cx="605.71429" cy="486.64789" gradientTransform="matrix(2.774389 0 0 1.969706 -1891.633 -872.8854)" gradientUnits="userSpaceOnUse" r="117.14286" xlink:href="#t"/><linearGradient id="t"><stop offset="0"/><stop offset="1" stop-opacity="0"/></linearGradient><radialGradient id="u" cx="605.71429" cy="486.64789" gradientTransform="matrix(-2.774389 0 0 1.969706 112.7623 -872.8854)" gradientUnits="userSpaceOnUse" r="117.14286" xlink:href="#t"/><g transform="translate(0 1)"><g transform="translate(.05 -10)"><path d="m2.95 29h12v2h-12z" fill="url(#a)" opacity=".15"/><path d="m2.95 29v2c-.807.004-1.95-.448-1.95-1s.9-1 1.95-1z" fill="url(#b)" opacity=".15"/><path d="m14.95 29v2c.807.004 1.95-.448 1.95-1s-.9-1-1.95-1z" fill="url(#c)" opacity=".15"/></g><path d="m3 2h12v16.998l-12 .002z" fill="url(#d)"/><g fill="none" stroke-linejoin="round"><path d="m14.5 18.498-11 .002v-16l11-.002z" stroke="url(#e)" stroke-linecap="round"/><path d="m2.5 1.5h13v17.998l-13 .002z" stroke="url(#f)"/></g></g><path d="m5 4 10.999987.0012.000013 16.9988h-11v-16.999948z" opacity=".05"/><g transform="translate(4 4)"><g transform="translate(.05 -10)"><path d="m2.95 29h12v2h-12z" fill="url(#a)" opacity=".15"/><path d="m2.95 29v2c-.807.004-1.95-.448-1.95-1s.9-1 1.95-1z" fill="url(#b)" opacity=".15"/><path d="m14.95 29v2c.807.004 1.95-.448 1.95-1s-.9-1-1.95-1z" fill="url(#c)" opacity=".15"/></g><path d="m3 2h12v16.998l-12 .002z" fill="url(#d)"/><g fill="none" stroke-linejoin="round"><path d="m14.5 18.498-11 .002v-16l11-.002z" stroke="url(#e)" stroke-linecap="round"/><path d="m2.5 1.5h13v17.998l-13 .002z" stroke="url(#f)"/></g></g><g transform="matrix(.9999975 0 0 .9999975 5.625035 -.749937)"><g opacity=".7" transform="matrix(.01071131 0 0 .00543807 23.525282 30.21816)"><path d="m-1559.2523-150.69685h1339.6335v478.35718h-1339.6335z" fill="url(#r)" opacity=".39196"/><path d="m-219.61876-150.68038v478.33079c142.874166.90045 345.40022-107.16966 345.40014-239.196175 0-132.026537-159.436816-239.134595-345.40014-239.134615z" fill="url(#s)" opacity=".402062"/><path d="m-1559.2523-150.68038v478.33079c-142.8742.90045-345.4002-107.16966-345.4002-239.196175 0-132.026537 159.4368-239.134595 345.4002-239.134615z" fill="url(#u)" opacity=".402062"/></g><rect fill="url(#p)" fill-rule="evenodd" height="12.000031" rx=".5" width="18.000046" x="5.374978" y="17.749981"/><g stroke-width="1.000002"><g fill="none"><path d="m11.918667 24.449151-5.4187773 5.250013zm4.584992-.02331 5.196082 5.32417z" stroke="url(#n)"/><path d="m12.499905 24.824152-4.8750125 4.875012zm3.75001 0 3.947736 4.475487z" opacity=".7" stroke="url(#m)"/><path d="m7.8013254 21.369566 6.6143006 5.494264 6.158139-5.443416" opacity=".06" stroke="url(#l)"/><path d="m6.1249802 18.499984 8.2500208 6.750016 7.500019-6.750016" opacity=".7" stroke="url(#k)"/></g><rect fill="none" height="13.000031" opacity=".3" rx=".750001" ry=".750002" stroke="#000" width="19.000046" x="4.874977" y="17.249979"/><path d="m5.8749793 18.249982 8.5000217 7.787714 8.625021-7.537712" fill="none" stroke="url(#i)"/><path d="m5.9550592 17.760843c-.3217186-.0017-.6151563.194425-.6151563.49027l.035075 7.998889c.5178166-.0081 17.6070061-2.858546 18.0000451-3.000007l-.02911-4.812875c-.0014-.226131-.271012-.584358-.549585-.585854z" fill="url(#g)" fill-rule="evenodd" opacity=".2"/><path d="m5.8749792 18.249982h17.0000428v11.000029h-17.0000428z" fill="none" stroke="url(#h)" stroke-linecap="round" stroke-linejoin="round"/></g></g></svg>