<svg xmlns="http://www.w3.org/2000/svg" xmlns:xlink="http://www.w3.org/1999/xlink" width="32" height="32"><title>elementary Symbolic Icon Theme</title><defs><linearGradient id="g"><stop offset="0" stop-color="#64baff"/><stop offset="1" stop-color="#3689e6"/></linearGradient><linearGradient id="f"><stop offset="0" stop-color="#fff"/><stop offset=".567" stop-color="#fff" stop-opacity=".235"/><stop offset=".867" stop-color="#fff" stop-opacity=".157"/><stop offset="1" stop-color="#fff" stop-opacity=".392"/></linearGradient><linearGradient id="e"><stop offset="0" stop-color="#fff"/><stop offset=".233" stop-color="#fff" stop-opacity=".235"/><stop offset=".733" stop-color="#fff" stop-opacity=".157"/><stop offset="1" stop-color="#fff" stop-opacity=".392"/></linearGradient><linearGradient id="b"><stop offset="0" stop-color="#499119"/><stop offset="1" stop-color="#8fd625"/></linearGradient><linearGradient id="c"><stop offset="0"/><stop offset="1" stop-opacity="0"/></linearGradient><linearGradient gradientTransform="scale(1.00587 .99417)" gradientUnits="userSpaceOnUse" id="h" y2="7.017" x2="45.448" y1="92.54" x1="45.448"><stop offset="0"/><stop offset="1" stop-opacity=".588"/></linearGradient><linearGradient id="a"><stop offset="0" stop-color="#fff"/><stop offset="1" stop-color="#fff" stop-opacity="0"/></linearGradient><filter id="i" color-interpolation-filters="sRGB"><feGaussianBlur stdDeviation="1.71"/></filter><linearGradient gradientTransform="matrix(.625 0 0 .625 28.5 31.25)" gradientUnits="userSpaceOnUse" xlink:href="#a" id="p" y2="50.069" x2="65.263" y1="64.205" x1="65.263"/><linearGradient gradientTransform="matrix(.938 0 0 .938 -140.5 3.5)" gradientUnits="userSpaceOnUse" xlink:href="#b" id="k" y2="72" x2="88" y1="72" x1="56"/><linearGradient gradientTransform="translate(0 4)" gradientUnits="userSpaceOnUse" xlink:href="#a" id="l" y2="75.095" x2="70" y1="54" x1="70"/><filter id="j" color-interpolation-filters="sRGB"><feGaussianBlur stdDeviation="1.2"/></filter><linearGradient gradientTransform="matrix(.625 0 0 .625 78.5 32.25)" gradientUnits="userSpaceOnUse" xlink:href="#c" id="n" y2="50.069" x2="65.263" y1="64.205" x1="65.263"/><clipPath id="m"><path d="M108.813 58c-1.56 0-2.813 1.254-2.813 2.813v24.374c0 1.56 1.254 2.813 2.813 2.813h24.374c1.56 0 2.813-1.254 2.813-2.813V60.814c0-1.56-1.254-2.813-2.813-2.813zM116 62.5h10v8.75h5L121 85l-10-13.75h5z" fill="#fff"/></clipPath><filter id="o" color-interpolation-filters="sRGB"><feGaussianBlur stdDeviation=".637"/></filter><linearGradient id="d"><stop offset="0"/><stop offset="1" stop-opacity="0"/></linearGradient><radialGradient xlink:href="#d" id="q" gradientUnits="userSpaceOnUse" gradientTransform="matrix(-2.07 0 0 .847 153.658 17.084)" cx="62.625" cy="4.625" fx="62.625" fy="4.625" r="10.625"/><linearGradient xlink:href="#e" id="s" gradientUnits="userSpaceOnUse" gradientTransform="matrix(0 -.898 .964 0 -63.34 46.436)" x1="61.748" y1="87.465" x2="28.332" y2="87.465"/><linearGradient y2="78.153" x2="61.726" y1="78.153" x1="28.31" gradientTransform="matrix(0 .898 -.964 0 111.36 -30.416)" gradientUnits="userSpaceOnUse" id="t" xlink:href="#f"/><linearGradient xlink:href="#g" id="r" x1="19.628" y1="5.181" x2="19.628" y2="42.928" gradientUnits="userSpaceOnUse" gradientTransform="translate(0 -16)"/></defs><path d="M2.002 21a21.998 9 0 0 0 43.996 0 21.998 9 0 1 0-43.996 0z" overflow="visible" opacity=".1" fill="url(#q)" fill-rule="evenodd" transform="matrix(.667 0 0 .667 0 9.823)"/><path d="M18.5-10.97v5.5H16C8.52-5.47 2.5.553 2.5 8.03c0 7.31 5.758 13.205 13 13.47v-5.125c-3.988-.705-7-4.147-7-8.344 0-4.708 3.79-8.5 8.5-8.5h1.5v5.5l11.5-8zm14 5.5v5.126c3.988.706 7 4.147 7 8.344 0 4.71-3.79 8.5-8.5 8.5h-1.5V11L18 19l11.5 8v-5.5H32c7.48 0 13.5-6.02 13.5-13.5 0-7.31-5.758-13.203-13-13.47z" color="#000" display="block" overflow="visible" fill="url(#r)" enable-background="accumulate" transform="matrix(.667 0 0 .667 0 9.823)"/><path d="M12.34 2.507v3.668h-1.668c-4.99 0-9.005 4.016-9.005 9.005 0 4.875 3.84 8.807 8.672 8.984v-3.42c-2.66-.47-4.67-2.765-4.67-5.564 0-3.14 2.528-5.67 5.67-5.67h1v3.67l7.67-5.337z" color="#000" overflow="visible" opacity=".5" fill="none" stroke="#002e99" stroke-width="1.0005000000000002" stroke-linecap="round" stroke-linejoin="round" enable-background="accumulate"/><path d="M19.5-9.063v3.594a.988.988 0 0 1-1 1H16c-6.95 0-12.5 5.552-12.5 12.5 0 6.42 4.798 11.46 11 12.22v-3.188c-4.016-1.1-7-4.666-7-9.03 0-5.24 4.26-9.5 9.5-9.5h1.5a.988.988 0 0 1 1 1v3.593l8.78-6.094z" color="#000" display="block" overflow="visible" opacity=".401" fill="none" stroke="url(#s)" stroke-width="1.5" stroke-miterlimit="7" enable-background="accumulate" transform="matrix(.667 0 0 .667 0 9.823)"/><path d="M21.678 6.175v3.42c2.66.47 4.67 2.765 4.67 5.564 0 3.14-2.53 5.67-5.67 5.67h-1v-3.67l-7.672 5.336 7.67 5.336v-3.67l1.668.002c4.99 0 9.005-4.016 9.005-9.005 0-4.876-3.842-8.808-8.672-8.985z" color="#000" overflow="visible" opacity=".5" fill="none" stroke="#002e99" stroke-width="1.0005000000000002" stroke-linecap="round" stroke-linejoin="round" enable-background="accumulate"/><path d="M28.52 25.082V21.49a.988.988 0 0 1 1-1h2.5c6.95 0 12.5-5.552 12.5-12.5 0-6.42-4.797-11.46-11-12.22v3.187c4.017 1.102 7 4.667 7 9.032 0 5.238-4.26 9.5-9.5 9.5h-1.5a.988.988 0 0 1-1-1v-3.595l-8.78 6.094z" color="#000" display="block" overflow="visible" opacity=".401" fill="none" stroke="url(#t)" stroke-width="1.5" stroke-miterlimit="7" enable-background="accumulate" transform="matrix(.667 0 0 .667 0 9.823)"/></svg>