<?xml version="1.0" encoding="UTF-8" standalone="no"?>
<svg
   xmlns:dc="http://purl.org/dc/elements/1.1/"
   xmlns:cc="http://creativecommons.org/ns#"
   xmlns:rdf="http://www.w3.org/1999/02/22-rdf-syntax-ns#"
   xmlns:svg="http://www.w3.org/2000/svg"
   xmlns="http://www.w3.org/2000/svg"
   xmlns:xlink="http://www.w3.org/1999/xlink"
   xmlns:sodipodi="http://sodipodi.sourceforge.net/DTD/sodipodi-0.dtd"
   xmlns:inkscape="http://www.inkscape.org/namespaces/inkscape"
   height="32"
   width="32"
   version="1.1"
   id="svg105"
   sodipodi:docname="mergedialog.svg"
   inkscape:version="0.92.3 (unknown)">
  <metadata
     id="metadata111">
    <rdf:RDF>
      <cc:Work
         rdf:about="">
        <dc:format>image/svg+xml</dc:format>
        <dc:type
           rdf:resource="http://purl.org/dc/dcmitype/StillImage" />
        <dc:title></dc:title>
      </cc:Work>
    </rdf:RDF>
  </metadata>
  <defs
     id="defs109">
    <clipPath
       id="s">
      <path
         inkscape:connector-curvature="0"
         d="m 27.728118,6.9581596 c -0.203924,0.05238 -0.393807,0.168814 -0.535156,0.335938 -0.282223,0.333582 -0.330464,0.814213 -0.107422,1.199218 3.37e-4,5.81e-4 -3.38e-4,0.0014 0,0.002 l 2.648438,4.7480464 c 0.09352,0.167248 0.07541,0.458328 -0.242188,0.921876 -0.3199,0.466906 -0.90081,0.987788 -1.658203,1.40039 -0.761111,0.414611 -1.51377,0.629239 -2.082031,0.648438 -0.569006,0.01928 -0.846458,-0.130557 -0.939453,-0.296875 l -2.667969,-4.78125 c -0.164708,-0.29364 -0.468451,-0.491106 -0.796875,-0.529297 -0.328559,-0.03816 -0.665886,0.07794 -0.898438,0.333984 -0.116266,0.125838 -0.206651,0.282651 -0.25,0.462891 a 0.57980845,0.57980845 0 0 0 0,0.0039 c -0.545206,2.348225 -0.308221,4.997126 0.763672,6.914063 1.421915,2.542922 4.33284,3.746753 7.195313,3.330078 1.008326,0.348456 2.378214,1.105136 4.044922,2.759765 l 1.277343,1.267578 a 0.57980845,0.57980845 0 0 0 0.408204,0.167969 h 4.945312 a 0.57980845,0.57980845 0 0 0 0.580078,-0.580118 V 22.030426 A 0.57980845,0.57980845 0 0 0 39.24179,21.618316 L 37.122649,19.514801 C 35.63036,18.03334 34.871333,16.796049 34.474212,15.83316 34.789768,14.320073 34.643724,12.716132 33.845306,11.288238 32.774033,9.3724376 30.637812,7.7866226 28.347259,6.9913626 c -0.19838,-0.07131 -0.414221,-0.08581 -0.619141,-0.0332 z"
         id="path1311" />
    </clipPath>
    <radialGradient
       id="r"
       cx="605.71429"
       cy="486.64789"
       gradientTransform="matrix(0.02303995,0,0,0.01470022,26.360882,21.040176)"
       gradientUnits="userSpaceOnUse"
       r="117.14286"
       xlink:href="#i-3" />
    <linearGradient
       id="i-3">
      <stop
         offset="0"
         id="stop1281" />
      <stop
         offset="1"
         stop-opacity="0"
         id="stop1283" />
    </linearGradient>
    <linearGradient
       id="p-6"
       gradientUnits="userSpaceOnUse"
       x1="39.706413"
       x2="41.641293"
       y1="28.004978"
       y2="31.442352">
      <stop
         offset="0"
         stop-color="#d4d4d4"
         id="stop1300" />
      <stop
         offset="1"
         stop-color="#d4d4d4"
         stop-opacity="0"
         id="stop1302" />
    </linearGradient>
    <linearGradient
       id="q-7"
       gradientUnits="userSpaceOnUse"
       x1="38.832764"
       x2="40.777378"
       y1="28.151825"
       y2="31.460476">
      <stop
         offset="0"
         stop-color="#555761"
         id="stop1305" />
      <stop
         offset="1"
         stop-color="#555761"
         stop-opacity="0"
         id="stop1307" />
    </linearGradient>
    <linearGradient
       id="o-5"
       gradientTransform="matrix(1.1811195,0,0,1.1804503,-332.45814,-53.518446)"
       gradientUnits="userSpaceOnUse"
       x1="302.29202"
       x2="308.64914"
       y1="58.442768"
       y2="60.767513">
      <stop
         offset="0"
         stop-color="#abacae"
         id="stop1295" />
      <stop
         offset="1"
         stop-color="#fafafa"
         id="stop1297" />
    </linearGradient>
    <linearGradient
       id="n-3"
       gradientUnits="userSpaceOnUse"
       x1="37.788918"
       x2="40.779758"
       xlink:href="#l-5"
       y1="27.894802"
       y2="32.102356" />
    <linearGradient
       id="l-5">
      <stop
         offset="0"
         stop-color="#fff"
         id="stop1288" />
      <stop
         offset="1"
         stop-color="#fff"
         stop-opacity="0"
         id="stop1290" />
    </linearGradient>
  </defs>
  <sodipodi:namedview
     pagecolor="#ffffff"
     bordercolor="#666666"
     borderopacity="1"
     objecttolerance="10"
     gridtolerance="10"
     guidetolerance="10"
     inkscape:pageopacity="0"
     inkscape:pageshadow="2"
     inkscape:window-width="1366"
     inkscape:window-height="706"
     id="namedview107"
     showgrid="false"
     inkscape:zoom="7.375"
     inkscape:cx="-1.4237288"
     inkscape:cy="14.915254"
     inkscape:window-x="0"
     inkscape:window-y="0"
     inkscape:window-maximized="1"
     inkscape:current-layer="svg105" />
  <linearGradient
     id="a">
    <stop
       offset="0"
       stop-color="#1e1e1e"
       id="stop2" />
    <stop
       offset="1"
       stop-color="#1e1e1e"
       stop-opacity="0"
       id="stop4" />
  </linearGradient>
  <radialGradient
     id="b"
     cx="605.71"
     cy="486.65"
     gradientTransform="matrix(-.06553 0 0 .0247 -21.83 10.577)"
     gradientUnits="userSpaceOnUse"
     r="117.14"
     xlink:href="#a" />
  <radialGradient
     id="c"
     cx="605.71"
     cy="486.65"
     gradientTransform="matrix(.06553 0 0 .0247 -69.175 10.577)"
     gradientUnits="userSpaceOnUse"
     r="117.14"
     xlink:href="#a" />
  <linearGradient
     id="d"
     gradientTransform="matrix(.06553 0 0 .0247 -69.188 10.577)"
     gradientUnits="userSpaceOnUse"
     x1="302.86"
     x2="302.86"
     y1="366.65"
     y2="609.51">
    <stop
       offset="0"
       stop-color="#1e1e1e"
       stop-opacity="0"
       id="stop9" />
    <stop
       offset=".5"
       stop-color="#1e1e1e"
       id="stop11" />
    <stop
       offset="1"
       stop-color="#1e1e1e"
       stop-opacity="0"
       id="stop13" />
  </linearGradient>
  <linearGradient
     id="e"
     gradientTransform="matrix(.46667 0 0 .50064 .8 -3.725)"
     gradientUnits="userSpaceOnUse"
     x1="28.103"
     x2="28.103"
     y1="45"
     y2="14.038">
    <stop
       offset="0"
       stop-color="#727272"
       id="stop16" />
    <stop
       offset="1"
       stop-color="#bebebe"
       id="stop18" />
  </linearGradient>
  <linearGradient
     id="f"
     gradientTransform="matrix(.46667 0 0 .45455 .8 -1.673)"
     gradientUnits="userSpaceOnUse"
     x1="20.053"
     x2="19.875"
     y1="8.163"
     y2="45.6">
    <stop
       offset="0"
       stop-color="#fff"
       id="stop21" />
    <stop
       offset=".874"
       stop-color="#cfcfcf"
       id="stop23" />
    <stop
       offset="1"
       stop-color="#999"
       id="stop25" />
  </linearGradient>
  <linearGradient
     id="g"
     gradientTransform="matrix(.44186 0 0 .4643 1.395 -2.642)"
     gradientUnits="userSpaceOnUse"
     x1="25.577"
     x2="25.577"
     y1="15"
     y2="44.001">
    <stop
       offset="0"
       stop-color="#fff"
       id="stop28" />
    <stop
       offset="1"
       stop-color="#fff"
       stop-opacity="0"
       id="stop30" />
  </linearGradient>
  <linearGradient
     id="h"
     gradientTransform="matrix(.46574 0 0 .4851 .822 -3.048)"
     gradientUnits="userSpaceOnUse"
     x1="23.929"
     x2="23.929"
     xlink:href="#i"
     y1="30.773"
     y2="45.531" />
  <linearGradient
     id="i"
     xlink:href="#a" />
  <linearGradient
     id="j"
     gradientTransform="matrix(.46574 0 0 .4851 .822 -1.414)"
     gradientUnits="userSpaceOnUse"
     x1="23.904"
     x2="23.904"
     xlink:href="#i"
     y1="35.75"
     y2="16.007" />
  <linearGradient
     id="k">
    <stop
       offset="0"
       id="stop36" />
    <stop
       offset="1"
       stop-opacity="0"
       id="stop38" />
  </linearGradient>
  <linearGradient
     id="l"
     gradientTransform="matrix(.04577 0 0 .00824 -.542 25.98)"
     gradientUnits="userSpaceOnUse"
     x1="302.857"
     x2="302.857"
     y1="366.648"
     y2="609.505">
    <stop
       offset="0"
       stop-opacity="0"
       id="stop41" />
    <stop
       offset=".5"
       id="stop43" />
    <stop
       offset="1"
       stop-opacity="0"
       id="stop45" />
  </linearGradient>
  <radialGradient
     id="m"
     cx="605.714"
     cy="486.648"
     gradientTransform="matrix(-.01566 0 0 .00824 14.39 25.98)"
     gradientUnits="userSpaceOnUse"
     r="117.143"
     xlink:href="#k" />
  <radialGradient
     id="n"
     cx="605.714"
     cy="486.648"
     gradientTransform="matrix(.01566 0 0 .00824 17.61 25.98)"
     gradientUnits="userSpaceOnUse"
     r="117.143"
     xlink:href="#k" />
  <linearGradient
     id="o"
     gradientTransform="matrix(.62857 0 0 .6084 .914 -.535)"
     gradientUnits="userSpaceOnUse"
     x1="25.132"
     x2="25.132"
     y1=".985"
     y2="47.013">
    <stop
       offset="0"
       stop-color="#f4f4f4"
       id="stop50" />
    <stop
       offset="1"
       stop-color="#dbdbdb"
       id="stop52" />
  </linearGradient>
  <linearGradient
     id="p"
     gradientTransform="matrix(.56757 0 0 .72973 2.378 -2.514)"
     gradientUnits="userSpaceOnUse"
     x1="24"
     x2="24"
     y1="5.564"
     y2="43">
    <stop
       offset="0"
       stop-color="#fff"
       id="stop55" />
    <stop
       offset=".036"
       stop-color="#fff"
       stop-opacity=".235"
       id="stop57" />
    <stop
       offset=".951"
       stop-color="#fff"
       stop-opacity=".157"
       id="stop59" />
    <stop
       offset="1"
       stop-color="#fff"
       stop-opacity=".392"
       id="stop61" />
  </linearGradient>
  <linearGradient
     id="q"
     gradientTransform="matrix(.53064 0 0 .5897 39.27 -1.792)"
     gradientUnits="userSpaceOnUse"
     x1="-51.786"
     x2="-51.786"
     y1="50.786"
     y2="2.906">
    <stop
       offset="0"
       stop-opacity=".318"
       id="stop64" />
    <stop
       offset="1"
       stop-opacity=".24"
       id="stop66" />
  </linearGradient>
  <path
     d="m4.95 29h22.1v2h-22.1z"
     fill="url(#l)"
     opacity=".15"
     transform="translate(-2)"
     id="path69" />
  <path
     d="m4.95 29v2c-.807.004-1.95-.448-1.95-1s.9-1 1.95-1z"
     fill="url(#m)"
     opacity=".15"
     transform="translate(-2)"
     id="path71" />
  <path
     d="m27.05 29v2c.807.004 1.95-.448 1.95-1s-.9-1-1.95-1z"
     fill="url(#n)"
     opacity=".15"
     transform="translate(-2)"
     id="path73" />
  <path
     d="m5 1 22 .002v27.998h-22z"
     fill="url(#o)"
     transform="translate(-2)"
     id="path75" />
  <g
     fill="none"
     stroke-linejoin="round"
     id="g81">
    <path
       d="m26.5 28.5h-21v-27h21z"
       stroke="url(#p)"
       stroke-linecap="round"
       transform="translate(-2)"
       id="path77" />
    <path
       d="m4.5.5 23 .002v28.998h-23z"
       stroke="url(#q)"
       transform="translate(-2)"
       id="path79" />
  </g>
  <g
     transform="matrix(1.33333 0 0 1.33333 0 5.062)"
     id="g103">
    <g
       stroke-width="1.03"
       id="g89">
      <path
         d="m-61.324 19.636h31.644v6h-31.644z"
         fill="url(#d)"
         opacity=".402"
         transform="matrix(.5004 0 0 .5 34.77 7.636)"
         id="path83" />
      <path
         d="m-29.68 19.636v6c3.375.01 8.16-1.344 8.16-3s-3.767-3-8.16-3z"
         fill="url(#c)"
         opacity=".402"
         transform="matrix(.5004 0 0 .5 34.77 7.636)"
         id="path85" />
      <path
         d="m-61.324 19.636v6c-3.375.01-8.16-1.344-8.16-3s3.767-3 8.16-3z"
         fill="url(#b)"
         opacity=".402"
         transform="matrix(.5004 0 0 .5 34.77 7.636)"
         id="path87" />
    </g>
    <rect
       height="12.711"
       rx=".467"
       ry=".406"
       style="fill-rule:evenodd;stroke-width:.75;stroke-linecap:square;stroke-linejoin:round;fill:url(#f);stroke:url(#e)"
       width="20.268"
       x="1.888"
       y="5.599"
       id="rect91" />
    <g
       fill="none"
       id="g101">
      <rect
         height="11.141"
         opacity=".4"
         rx=".036"
         ry=".035"
         stroke="url(#g)"
         stroke-linecap="square"
         width="19"
         x="2.5"
         y="6.413"
         id="rect93" />
      <g
         stroke-width=".75"
         id="g99">
        <path
           d="m8.622 13.067-5.962 5.065m12.81-5.245 6.195 5.294"
           opacity=".5"
           stroke="url(#h)"
           id="path95" />
        <path
           d="m2.337 6.2 9.663 9.136 9.742-9.087"
           opacity=".5"
           stroke="url(#j)"
           id="path97" />
      </g>
    </g>
  </g>
  <g
     clip-path="url(#s)"
     transform="translate(-7.4136651,6.1531279)"
     id="g1340">
    <path
       clip-path="none"
       d="m 40.246148,26.430102 v 3.569856 c 1.1865,0.0067 2.86838,-0.799823 2.86838,-1.785158 0,-0.985333 -1.324045,-1.784697 -2.86838,-1.784698 z"
       id="path1332"
       inkscape:connector-curvature="0"
       style="opacity:0.3;fill:url(#r)" />
    <path
       d="m 20.876076,11.330901 c -0.05457,0.05832 -0.09378,0.129 -0.112443,0.206591 -0.513929,2.213521 -0.270961,4.756837 0.703841,6.500138 1.331263,2.380803 4.103906,3.516797 6.81891,3.036248 1.109425,0.373022 2.581053,1.194238 4.325283,2.925828 l 21.774977,21.617245 4.1023,-4.072767 L 36.713979,19.92694 c -1.572378,-1.560968 -2.397496,-2.899079 -2.820136,-3.955724 0.366691,-1.460725 0.217303,-3.020265 -0.554323,-4.400246 -0.9744,-1.7425584 -3.019036,-3.2833524 -5.185918,-4.0347214 -0.185943,-0.06799 -0.390726,-0.01605 -0.5172,0.133486 -0.126486,0.149504 -0.148467,0.363933 -0.04925,0.534437 l 2.653019,4.7549724 c 0.238303,0.426154 0.113978,0.974273 -0.270098,1.534845 -0.387715,0.565884 -1.032795,1.131308 -1.858185,1.580953 -0.825555,0.449716 -1.650969,0.696454 -2.341049,0.719768 -0.686006,0.02325 -1.225081,-0.167034 -1.463986,-0.594309 l -2.668964,-4.781367 c -0.07441,-0.132659 -0.205007,-0.219611 -0.356462,-0.237223 -0.151443,-0.01759 -0.304292,0.03683 -0.405325,0.14909 z"
       style="fill:url(#p-6);fill-rule:evenodd;stroke:url(#q-7);stroke-width:0.99999899;stroke-linecap:round;stroke-linejoin:round;stroke-dashoffset:0.3612;stroke-opacity:0.5"
       clip-path="none"
       id="path1334"
       inkscape:connector-curvature="0" />
    <path
       clip-path="none"
       d="m 28.00477,7.9387476 c 0.02209,0.0083 0.0083,0.03683 0,0.03695 l 2.657518,4.7586904 c 0.358506,0.641079 0.09992,1.398184 -0.332189,2.028899 -0.436412,0.636959 -1.112615,1.25411 -1.99314,1.733786 -0.882414,0.480703 -1.807963,0.711564 -2.583699,0.737782 -0.774034,0.02621 -1.500576,-0.194668 -1.845499,-0.81156 l -2.657519,-4.795579 c -0.01524,-0.0024 -0.03945,0.0024 -0.03697,0 0.02433,-0.02597 0.0047,0.01889 0,0.03695 -0.49007,2.110799 -0.235893,4.550459 0.66438,6.160475 1.231459,2.202319 3.802508,3.254206 6.348517,2.803569 2.534057,-0.453316 4.700809,-2.659755 5.241218,-4.75869 0.341237,-1.359383 0.195865,-2.820261 -0.51674,-4.094687 C 32.052819,10.16972 30.077728,8.6576926 28.004709,7.9388696 Z"
       id="path1336"
       inkscape:connector-curvature="0"
       style="fill:url(#o-5);fill-rule:evenodd" />
    <path
       d="m 29.333527,9.2667536 1.771679,3.2093504 c 0.503818,0.900923 0.158034,1.866726 -0.33219,2.582235 -0.49529,0.722899 -1.230514,1.365362 -2.177689,1.881342 -0.951155,0.518149 -1.925874,0.818732 -2.805159,0.848449 -0.880453,0.02977 -1.852243,-0.260566 -2.325329,-1.106672 L 21.61934,13.361441 c -0.07866,1.555962 0.09862,3.127549 0.70129,4.205355 1.110807,1.986545 3.453156,2.959822 5.794867,2.545345 0.171428,-0.03384 0.351856,-0.02096 0.51674,0.03689 1.269219,0.426735 2.856703,1.317985 4.687568,3.135571 L 55.096696,44.901598 57.791125,42.245585 36.014234,20.628588 c -1.650697,-1.638708 -2.548691,-3.084275 -3.026619,-4.279132 -0.07205,-0.186842 -0.08504,-0.395886 -0.03685,-0.590225 0.310481,-1.236868 0.198334,-2.578973 -0.442919,-3.725796 -0.586084,-1.048119 -1.82659,-2.008378 -3.174259,-2.7666814 z"
       style="fill:none;stroke:url(#n-3);stroke-linecap:round;stroke-linejoin:round;stroke-dashoffset:0.3612"
       clip-path="none"
       id="path1338"
       inkscape:connector-curvature="0" />
  </g>
</svg>
