<?xml version="1.0" encoding="UTF-8" standalone="no"?>
<svg
   xmlns:dc="http://purl.org/dc/elements/1.1/"
   xmlns:cc="http://creativecommons.org/ns#"
   xmlns:rdf="http://www.w3.org/1999/02/22-rdf-syntax-ns#"
   xmlns:svg="http://www.w3.org/2000/svg"
   xmlns="http://www.w3.org/2000/svg"
   xmlns:xlink="http://www.w3.org/1999/xlink"
   xmlns:sodipodi="http://sodipodi.sourceforge.net/DTD/sodipodi-0.dtd"
   xmlns:inkscape="http://www.inkscape.org/namespaces/inkscape"
   height="32"
   width="32"
   version="1.1"
   id="svg57"
   sodipodi:docname="modifyframe.svg"
   inkscape:version="0.92.3 (unknown)">
  <metadata
     id="metadata63">
    <rdf:RDF>
      <cc:Work
         rdf:about="">
        <dc:format>image/svg+xml</dc:format>
        <dc:type
           rdf:resource="http://purl.org/dc/dcmitype/StillImage" />
      </cc:Work>
    </rdf:RDF>
  </metadata>
  <defs
     id="defs61">
    <radialGradient
       id="a-3"
       cx="6.702713"
       cy="73.615715"
       gradientTransform="matrix(1.3166457,0,0,0.28801944,14.174902,8.61329)"
       gradientUnits="userSpaceOnUse"
       r="7.228416"
       xlink:href="#b-6" />
    <linearGradient
       id="b-6">
      <stop
         offset="0"
         id="stop1149" />
      <stop
         offset="1"
         stop-opacity="0"
         id="stop1151" />
    </linearGradient>
    <linearGradient
       id="c-7"
       gradientUnits="userSpaceOnUse"
       x1="22.881355"
       x2="22.644068"
       y1="14.457627"
       y2="31.338984">
      <stop
         offset="0"
         stop-color="#f6f6f6"
         id="stop1154" />
      <stop
         offset="1"
         stop-color="#d2d2d2"
         id="stop1156" />
    </linearGradient>
    <linearGradient
       id="d-5"
       gradientUnits="userSpaceOnUse"
       x1="23.031893"
       x2="23.040016"
       y1="26.715307"
       y2="18.997057">
      <stop
         offset="0"
         stop-color="#fff"
         id="stop1159" />
      <stop
         offset="1"
         stop-color="#959595"
         id="stop1161" />
    </linearGradient>
    <linearGradient
       id="e-3"
       gradientUnits="userSpaceOnUse"
       x1="23.131727"
       x2="23.398602"
       y1="16.459263"
       y2="30.159456">
      <stop
         offset="0"
         stop-color="#fff"
         id="stop1164" />
      <stop
         offset="1"
         stop-color="#fff"
         stop-opacity="0"
         id="stop1166" />
    </linearGradient>
  </defs>
  <sodipodi:namedview
     pagecolor="#ffffff"
     bordercolor="#666666"
     borderopacity="1"
     objecttolerance="10"
     gridtolerance="10"
     guidetolerance="10"
     inkscape:pageopacity="0"
     inkscape:pageshadow="2"
     inkscape:window-width="1366"
     inkscape:window-height="706"
     id="namedview59"
     showgrid="false"
     inkscape:zoom="5.2149125"
     inkscape:cx="3.4447773"
     inkscape:cy="-0.24038916"
     inkscape:window-x="0"
     inkscape:window-y="0"
     inkscape:window-maximized="1"
     inkscape:current-layer="svg57" />
  <clipPath
     id="a">
    <path
       d="m27.728 6.958c-.204.053-.394.17-.535.336-.282.334-.33.814-.107 1.2l2.648 4.75c.093.167.075.458-.242.92-.32.468-.9.99-1.658 1.402-.762.414-1.514.63-2.082.648-.57.02-.847-.13-.94-.297l-2.668-4.78c-.165-.295-.468-.492-.797-.53-.328-.04-.666.078-.898.334-.117.126-.208.283-.25.464a.58.58 0 0 0 0 .003c-.546 2.35-.31 4.998.762 6.914 1.422 2.544 4.333 3.748 7.196 3.332 1.008.348 2.378 1.105 4.045 2.76l1.277 1.267a.58.58 0 0 0 .408.167h4.946a.58.58 0 0 0 .58-.58v-3.238a.58.58 0 0 0 -.172-.412l-2.12-2.103c-1.492-1.482-2.25-2.72-2.648-3.682.316-1.513.17-3.117-.63-4.545-1.07-1.916-3.206-3.5-5.497-4.297-.198-.07-.414-.084-.62-.032z"
       id="path2" />
  </clipPath>
  <radialGradient
     id="b"
     cx="605.714"
     cy="486.648"
     gradientTransform="matrix(.02304 0 0 .0147 26.36 21.04)"
     gradientUnits="userSpaceOnUse"
     r="117.143">
    <stop
       offset="0"
       id="stop5" />
    <stop
       offset="1"
       stop-opacity="0"
       id="stop7" />
  </radialGradient>
  <linearGradient
     id="c"
     gradientUnits="userSpaceOnUse"
     x1="39.706"
     x2="41.641"
     y1="28.005"
     y2="31.442">
    <stop
       offset="0"
       stop-color="#d4d4d4"
       id="stop10" />
    <stop
       offset="1"
       stop-color="#d4d4d4"
       stop-opacity="0"
       id="stop12" />
  </linearGradient>
  <linearGradient
     id="d"
     gradientUnits="userSpaceOnUse"
     x1="38.833"
     x2="40.777"
     y1="28.152"
     y2="31.46">
    <stop
       offset="0"
       stop-color="#555761"
       id="stop15" />
    <stop
       offset="1"
       stop-color="#555761"
       stop-opacity="0"
       id="stop17" />
  </linearGradient>
  <linearGradient
     id="e"
     gradientTransform="matrix(1.18112 0 0 1.18045 -332.458 -53.518)"
     gradientUnits="userSpaceOnUse"
     x1="302.292"
     x2="308.649"
     y1="58.443"
     y2="60.768">
    <stop
       offset="0"
       stop-color="#abacae"
       id="stop20" />
    <stop
       offset="1"
       stop-color="#fafafa"
       id="stop22" />
  </linearGradient>
  <linearGradient
     id="f"
     gradientUnits="userSpaceOnUse"
     x1="37.789"
     x2="40.78"
     y1="27.895"
     y2="32.102">
    <stop
       offset="0"
       stop-color="#fff"
       id="stop25" />
    <stop
       offset="1"
       stop-color="#fff"
       stop-opacity="0"
       id="stop27" />
  </linearGradient>
  <linearGradient
     id="g"
     gradientUnits="userSpaceOnUse"
     x1="13.3333"
     x2="18.66662"
     y1="18.66662"
     y2="13.3333">
    <stop
       offset="0"
       id="stop30" />
    <stop
       offset="1"
       stop-color="#fff"
       id="stop32" />
  </linearGradient>
  <path
     d="m5.294 22.59c0-.46.16-.85.48-1.17l3.57-3.568c.32-.32.71-.48 1.166-.48.48 0 .89.183 1.236.55-.035.033-.143.143-.327.325-.185.17-.305.292-.36.36-.07.068-.156.178-.26.327-.114.147-.19.297-.223.446-.045.136-.068.292-.068.464 0 .456.16.845.48 1.166.32.32.71.48 1.166.48.17 0 .33-.017.48-.052.137-.046.282-.12.43-.222.148-.114.256-.2.326-.257.068-.07.193-.197.378-.38l.308-.327c.378.356.567.773.567 1.254 0 .457-.16.846-.48 1.166l-3.535 3.55c-.31.31-.698.465-1.167.465-.457 0-.846-.15-1.166-.447l-2.523-2.505c-.32-.32-.48-.703-.48-1.148m12.06-12.098c0-.458.16-.847.482-1.167l3.536-3.552c.32-.32.71-.48 1.17-.48.444 0 .833.155 1.165.464l2.52 2.505c.32.32.482.702.482 1.15 0 .456-.16.845-.48 1.165l-3.57 3.57c-.307.308-.696.462-1.166.462-.48 0-.89-.178-1.233-.532.033-.034.143-.137.325-.31l.38-.376.256-.327c.103-.15.177-.292.224-.43.032-.148.05-.308.05-.48 0-.457-.16-.846-.48-1.166s-.708-.48-1.167-.48c-.17 0-.325.022-.463.068-.148.034-.297.11-.446.223-.15.104-.257.19-.325.258-.07.058-.19.178-.36.36-.185.184-.292.292-.33.327-.375-.355-.564-.772-.564-1.253m-13.918 8.6c-.96.96-1.44 2.128-1.44 3.5 0 1.373.486 2.533 1.458 3.484l2.522 2.503c.95.95 2.11 1.425 3.483 1.425 1.384 0 2.55-.487 3.5-1.458l3.535-3.553c.95-.95 1.423-2.11 1.423-3.483 0-1.408-.5-2.602-1.506-3.586l1.508-1.51c.985 1.008 2.176 1.51 3.57 1.51 1.373 0 2.54-.48 3.5-1.442l3.57-3.568c.96-.96 1.44-2.128 1.44-3.5 0-1.373-.485-2.534-1.458-3.483l-2.52-2.506c-.955-.946-2.115-1.421-3.488-1.421-1.384 0-2.552.486-3.5 1.458l-3.535 3.55c-.95.95-1.425 2.112-1.425 3.484 0 1.407.503 2.602 1.51 3.586l-1.51 1.51c-.984-1.006-2.172-1.51-3.568-1.51-1.374 0-2.54.48-3.5 1.44l-3.57 3.57"
     fill="#d3d7cf"
     stroke="#000"
     stroke-opacity=".427"
     id="path35" />
  <path
     d="m12 20 7.74-7.827"
     fill="none"
     opacity=".2"
     stroke="url(#g)"
     stroke-linecap="round"
     stroke-width="2"
     id="path37" />
  <path
     d="m17.057 11.8-1.46 1.416.93.958 1.457-1.42zm2.26 2.205-1.458 1.417.925.958 1.46-1.42zm-6.153 1.56-1.458 1.417.927.955 1.46-1.416zm2.328 2.367-1.46 1.42.93.955 1.457-1.416z"
     fill-opacity=".427"
     fill-rule="evenodd"
     id="path39" />
  <g
     fill="none"
     stroke="#fff"
     stroke-linecap="round"
     id="g45">
    <path
       d="m11.958 19.583 7.625-7.75"
       opacity=".4"
       stroke-width="1.333"
       id="path41" />
    <path
       d="m15.747 8.072 4.292-4.46c.75-.707 2.572-1.505 4.49-.255l3.59 3.632m-24.446 13.597 4.292-4.458c.75-.71 2.574-1.51 4.49-.26m-7.505 8.55 2.124 2.25c1.647 1.53 3.008 1.355 4.453.234.287-.22 3-3.4 3.37-3.642m5.35-8.298c1.397.405 2.05.69 3.495-.432.287-.223 3-3.402 3.37-3.644"
       opacity=".4"
       id="path43" />
  </g>
  <g
     id="g1242">
    <path
       style="opacity:0.2;fill:url(#a-3)"
       inkscape:connector-curvature="0"
       id="path1209"
       d="m 32.517262,29.816046 c 0,1.149816 -4.261024,2.081925 -9.517262,2.081925 -5.256239,0 -9.517262,-0.932109 -9.517262,-2.081925 0,-1.149815 4.261023,-2.081924 9.517262,-2.081924 5.256238,0 9.517262,0.932109 9.517262,2.081924 z" />
    <path
       style="fill:url(#c-7)"
       inkscape:connector-curvature="0"
       id="path1211"
       d="m 22,14.5 c -0.554,0 -1,0.446 -1,1 v 1.886719 a 5.9661016,5.9661016 0 0 0 -0.556641,0.228515 l -1.332031,-1.332031 c -0.391737,-0.391737 -1.022325,-0.391737 -1.414062,0 l -1.414063,1.414063 c -0.391737,0.391737 -0.391737,1.022325 0,1.414062 l 1.333985,1.333984 A 5.9661016,5.9661016 0 0 0 17.386719,21 H 15.5 c -0.554,0 -1,0.446 -1,1 v 2 c 0,0.554 0.446,1 1,1 h 1.886719 a 5.9661016,5.9661016 0 0 0 0.228515,0.556641 l -1.332031,1.332031 c -0.391737,0.391737 -0.391737,1.022325 0,1.414062 l 1.414063,1.414063 c 0.391737,0.391737 1.022325,0.391737 1.414062,0 l 1.333984,-1.333985 A 5.9661016,5.9661016 0 0 0 21,28.613281 V 30.5 c 0,0.554 0.446,1 1,1 h 2 c 0.554,0 1,-0.446 1,-1 v -1.886719 a 5.9661016,5.9661016 0 0 0 0.556641,-0.228515 l 1.332031,1.332031 c 0.391737,0.391737 1.022325,0.391737 1.414062,0 l 1.414063,-1.414063 c 0.391737,-0.391737 0.391737,-1.022325 0,-1.414062 L 28.382812,25.554688 A 5.9661016,5.9661016 0 0 0 28.613281,25 H 30.5 c 0.554,0 1,-0.446 1,-1 v -2 c 0,-0.554 -0.446,-1 -1,-1 h -1.886719 a 5.9661016,5.9661016 0 0 0 -0.228515,-0.556641 l 1.332031,-1.332031 c 0.391737,-0.391737 0.391737,-1.022325 0,-1.414062 l -1.414063,-1.414063 c -0.391737,-0.391737 -1.022325,-0.391737 -1.414062,0 l -1.333984,1.333985 A 5.9661016,5.9661016 0 0 0 25,17.386719 V 15.5 c 0,-0.554 -0.446,-1 -1,-1 z m 1,6.503906 A 1.9954157,1.9954157 0 0 1 24.996094,23 1.9954157,1.9954157 0 0 1 23,24.996094 1.9954157,1.9954157 0 0 1 21.003906,23 1.9954157,1.9954157 0 0 1 23,21.003906 Z" />
    <path
       d="m 22,14.5 c -0.554,0 -1,0.446 -1,1 v 1.886719 a 5.9661016,5.9661016 0 0 0 -0.556641,0.228515 l -1.332031,-1.332031 c -0.391737,-0.391737 -1.022325,-0.391737 -1.414062,0 l -1.414063,1.414063 c -0.391737,0.391737 -0.391737,1.022325 0,1.414062 l 1.333985,1.333984 A 5.9661016,5.9661016 0 0 0 17.386719,21 H 15.5 c -0.554,0 -1,0.446 -1,1 v 2 c 0,0.554 0.446,1 1,1 h 1.886719 a 5.9661016,5.9661016 0 0 0 0.228515,0.556641 l -1.332031,1.332031 c -0.391737,0.391737 -0.391737,1.022325 0,1.414062 l 1.414063,1.414063 c 0.391737,0.391737 1.022325,0.391737 1.414062,0 l 1.333984,-1.333985 A 5.9661016,5.9661016 0 0 0 21,28.613281 V 30.5 c 0,0.554 0.446,1 1,1 h 2 c 0.554,0 1,-0.446 1,-1 v -1.886719 a 5.9661016,5.9661016 0 0 0 0.556641,-0.228515 l 1.332031,1.332031 c 0.391737,0.391737 1.022325,0.391737 1.414062,0 l 1.414063,-1.414063 c 0.391737,-0.391737 0.391737,-1.022325 0,-1.414062 L 28.382812,25.554688 A 5.9661016,5.9661016 0 0 0 28.613281,25 H 30.5 c 0.554,0 1,-0.446 1,-1 v -2 c 0,-0.554 -0.446,-1 -1,-1 h -1.886719 a 5.9661016,5.9661016 0 0 0 -0.228515,-0.556641 l 1.332031,-1.332031 c 0.391737,-0.391737 0.391737,-1.022325 0,-1.414062 l -1.414063,-1.414063 c -0.391737,-0.391737 -1.022325,-0.391737 -1.414062,0 l -1.333984,1.333985 A 5.9661016,5.9661016 0 0 0 25,17.386719 V 15.5 c 0,-0.554 -0.446,-1 -1,-1 z m 1,6.503906 A 1.9954157,1.9954157 0 0 1 24.996094,23 1.9954157,1.9954157 0 0 1 23,24.996094 1.9954157,1.9954157 0 0 1 21.003906,23 1.9954157,1.9954157 0 0 1 23,21.003906 Z"
       id="path1213"
       inkscape:connector-curvature="0"
       style="opacity:0.3;fill:none;stroke:#000000;stroke-linecap:square;stroke-linejoin:round" />
    <circle
       cx="23"
       cy="23"
       r="3.998385"
       id="circle1215"
       style="fill:none;stroke:url(#d-5);stroke-linecap:square;stroke-linejoin:round" />
    <path
       d="m 22,15.5 v 1.886719 a 0.99989607,0.99989607 0 0 1 -0.667969,0.943359 c -0.157521,0.05556 -0.311767,0.118308 -0.46289,0.189453 a 0.99989607,0.99989607 0 0 1 -1.132813,-0.197265 l -1.332031,-1.332032 -1.414063,1.414063 1.333985,1.333984 A 0.99989607,0.99989607 0 0 1 18.519531,20.875 c -0.07165,0.150561 -0.135262,0.303936 -0.191406,0.460938 A 0.99989607,0.99989607 0 0 1 17.386719,22 H 15.5 v 2 h 1.886719 a 0.99989607,0.99989607 0 0 1 0.943359,0.667969 c 0.05556,0.157521 0.118308,0.311767 0.189453,0.46289 a 0.99989607,0.99989607 0 0 1 -0.197265,1.132813 l -1.332032,1.332031 1.414063,1.414063 1.333984,-1.333985 A 0.99989607,0.99989607 0 0 1 20.875,27.480469 c 0.150561,0.07165 0.303936,0.135262 0.460938,0.191406 A 0.99989607,0.99989607 0 0 1 22,28.613281 V 30.5 h 2 v -1.886719 a 0.99989607,0.99989607 0 0 1 0.667969,-0.943359 c 0.157521,-0.05556 0.311767,-0.118308 0.46289,-0.189453 a 0.99989607,0.99989607 0 0 1 1.132813,0.197265 l 1.332031,1.332032 1.414063,-1.414063 -1.333985,-1.333984 A 0.99989607,0.99989607 0 0 1 27.480469,25.125 c 0.07165,-0.150561 0.135262,-0.303936 0.191406,-0.460938 A 0.99989607,0.99989607 0 0 1 28.613281,24 H 30.5 v -2 h -1.886719 a 0.99989607,0.99989607 0 0 1 -0.943359,-0.667969 c -0.05556,-0.157521 -0.118308,-0.311767 -0.189453,-0.46289 a 0.99989607,0.99989607 0 0 1 0.197265,-1.132813 l 1.332032,-1.332031 -1.414063,-1.414063 -1.333984,1.333985 A 0.99989607,0.99989607 0 0 1 25.125,18.519531 c -0.150561,-0.07165 -0.303936,-0.135262 -0.460938,-0.191406 A 0.99989607,0.99989607 0 0 1 24,17.386719 V 15.5 Z m 1,6.503906 c -0.588024,2e-4 0.772067,0.134102 0.195312,0.01953 -0.576754,-0.114571 0.728849,0.281575 0.185547,0.05664 -0.543301,-0.224934 0.66278,0.418444 0.173829,0.0918 -0.488952,-0.326647 0.566186,0.538842 0.15039,0.123047 -0.415795,-0.415796 0.449694,0.639342 0.123047,0.15039 -0.326647,-0.488951 0.316731,0.71713 0.0918,0.173829 -0.224935,-0.543302 0.171211,0.762301 0.05664,0.185547 -0.11457,-0.576755 0.01933,0.783336 0.01953,0.195312 -2e-4,-0.588024 -0.134102,0.772067 -0.01953,0.195312 0.114571,-0.576754 -0.281575,0.728849 -0.05664,0.185547 0.224934,-0.543301 -0.418444,0.66278 -0.0918,0.173829 0.326647,-0.488952 -0.538842,0.566186 -0.123047,0.15039 0.415796,-0.415795 -0.639342,0.449694 -0.15039,0.123047 0.488951,-0.326647 -0.71713,0.316731 -0.173829,0.0918 0.543302,-0.224935 -0.762301,0.171211 -0.185547,0.05664 0.576755,-0.11457 -0.783336,0.01933 -0.195312,0.01953 0.588024,-2e-4 -0.772067,-0.134102 -0.195312,-0.01953 0.576754,0.114571 -0.728849,-0.281575 -0.185547,-0.05664 0.543301,0.224934 -0.66278,-0.418444 -0.173829,-0.0918 0.488952,0.326647 -0.566186,-0.538842 -0.15039,-0.123047 0.415795,0.415796 -0.449694,-0.639342 -0.123047,-0.15039 0.326647,0.488951 -0.316731,-0.71713 -0.0918,-0.173829 0.224935,0.543302 -0.171211,-0.762301 -0.05664,-0.185547 0.11457,0.576755 -0.01933,-0.783336 -0.01953,-0.195312 2e-4,0.588024 0.134102,-0.772067 0.01953,-0.195312 -0.114571,0.576754 0.281575,-0.728849 0.05664,-0.185547 -0.224934,0.543301 0.418444,-0.66278 0.0918,-0.173829 -0.326647,0.488952 0.538842,-0.566186 0.123047,-0.15039 -0.415796,0.415795 0.639342,-0.449694 0.15039,-0.123047 -0.488951,0.326647 0.71713,-0.316731 0.173829,-0.0918 -0.543302,0.224935 0.762301,-0.171211 0.185547,-0.05664 -0.576755,0.11457 0.783336,-0.01933 0.195312,-0.01953 z"
       id="path1217"
       style="fill:none;stroke:url(#e-3);stroke-linecap:square;stroke-linejoin:round"
       inkscape:connector-curvature="0" />
  </g>
</svg>
