<?xml version="1.0" encoding="UTF-8" standalone="no"?>
<svg
   xmlns:dc="http://purl.org/dc/elements/1.1/"
   xmlns:cc="http://creativecommons.org/ns#"
   xmlns:rdf="http://www.w3.org/1999/02/22-rdf-syntax-ns#"
   xmlns:svg="http://www.w3.org/2000/svg"
   xmlns="http://www.w3.org/2000/svg"
   xmlns:xlink="http://www.w3.org/1999/xlink"
   xmlns:sodipodi="http://sodipodi.sourceforge.net/DTD/sodipodi-0.dtd"
   xmlns:inkscape="http://www.inkscape.org/namespaces/inkscape"
   height="32"
   width="32"
   version="1.1"
   id="svg1318"
   sodipodi:docname="moduledialog.svg"
   inkscape:version="0.92.3 (unknown)">
  <metadata
     id="metadata1322">
    <rdf:RDF>
      <cc:Work
         rdf:about="">
        <dc:format>image/svg+xml</dc:format>
        <dc:type
           rdf:resource="http://purl.org/dc/dcmitype/StillImage" />
        <dc:title></dc:title>
      </cc:Work>
    </rdf:RDF>
  </metadata>
  <sodipodi:namedview
     pagecolor="#ffffff"
     bordercolor="#666666"
     borderopacity="1"
     objecttolerance="10"
     gridtolerance="10"
     guidetolerance="10"
     inkscape:pageopacity="0"
     inkscape:pageshadow="2"
     inkscape:window-width="1366"
     inkscape:window-height="706"
     id="namedview1320"
     showgrid="false"
     inkscape:zoom="7.375"
     inkscape:cx="-1.4237288"
     inkscape:cy="14.915254"
     inkscape:window-x="0"
     inkscape:window-y="0"
     inkscape:window-maximized="1"
     inkscape:current-layer="svg1318" />
  <defs
     id="defs1281">
    <radialGradient
       gradientTransform="matrix(0 .76662 -.834 0 48.57 -34.3)"
       gradientUnits="userSpaceOnUse"
       xlink:href="#a"
       id="h"
       fy="48.19"
       fx="65.08"
       r="31"
       cy="48.19"
       cx="65.08" />
    <linearGradient
       id="a">
      <stop
         offset="0"
         stop-color="#cdf87e"
         id="stop1262" />
      <stop
         offset=".262"
         stop-color="#a2e34f"
         id="stop1264" />
      <stop
         offset=".661"
         stop-color="#68b723"
         id="stop1266" />
      <stop
         offset="1"
         stop-color="#1d7e0d"
         id="stop1268" />
    </linearGradient>
    <linearGradient
       gradientTransform="matrix(.5089 0 0 .50895 -4.523 10.367)"
       gradientUnits="userSpaceOnUse"
       xlink:href="#b"
       id="i"
       y2="35.86"
       x2="17.064"
       y1="23.421"
       x1="25.344" />
    <linearGradient
       id="b">
      <stop
         offset="0"
         stop-color="#fff"
         id="stop1272" />
      <stop
         offset=".055"
         stop-color="#fff"
         stop-opacity=".235"
         id="stop1274" />
      <stop
         offset=".392"
         stop-color="#fff"
         stop-opacity=".157"
         id="stop1276" />
      <stop
         offset="1"
         stop-color="#fff"
         stop-opacity=".392"
         id="stop1278" />
    </linearGradient>
    <clipPath
       id="i-3">
      <path
         inkscape:connector-curvature="0"
         d="m 27.728118,6.9581596 c -0.203924,0.05238 -0.393807,0.168814 -0.535156,0.335938 -0.282223,0.333582 -0.330464,0.814213 -0.107422,1.199218 3.37e-4,5.81e-4 -3.38e-4,0.0014 0,0.002 l 2.648438,4.7480464 c 0.09352,0.167248 0.07541,0.458328 -0.242188,0.921876 -0.3199,0.466906 -0.90081,0.987788 -1.658203,1.40039 -0.761111,0.414611 -1.51377,0.629239 -2.082031,0.648438 -0.569006,0.01928 -0.846458,-0.130557 -0.939453,-0.296875 l -2.667969,-4.78125 c -0.164708,-0.29364 -0.468451,-0.491106 -0.796875,-0.529297 -0.328559,-0.03816 -0.665886,0.07794 -0.898438,0.333984 -0.116266,0.125838 -0.206651,0.282651 -0.25,0.462891 a 0.57980845,0.57980845 0 0 0 0,0.0039 c -0.545206,2.348225 -0.308221,4.997126 0.763672,6.914063 1.421915,2.542922 4.33284,3.746753 7.195313,3.330078 1.008326,0.348456 2.378214,1.105136 4.044922,2.759765 l 1.277343,1.267578 a 0.57980845,0.57980845 0 0 0 0.408204,0.167969 h 4.945312 a 0.57980845,0.57980845 0 0 0 0.580078,-0.580118 V 22.030426 A 0.57980845,0.57980845 0 0 0 39.24179,21.618316 L 37.122649,19.514801 C 35.63036,18.03334 34.871333,16.796049 34.474212,15.83316 34.789768,14.320073 34.643724,12.716132 33.845306,11.288238 32.774033,9.3724376 30.637812,7.7866226 28.347259,6.9913626 c -0.19838,-0.07131 -0.414221,-0.08581 -0.619141,-0.0332 z"
         id="path42" />
    </clipPath>
    <radialGradient
       id="j"
       cx="605.71429"
       cy="486.64789"
       gradientTransform="matrix(0.02303995,0,0,0.01470022,26.360882,21.040176)"
       gradientUnits="userSpaceOnUse"
       r="117.14286"
       xlink:href="#e-6" />
    <linearGradient
       id="e-6">
      <stop
         offset="0"
         id="stop18" />
      <stop
         offset="1"
         stop-opacity="0"
         id="stop20" />
    </linearGradient>
    <linearGradient
       id="k"
       gradientUnits="userSpaceOnUse"
       x1="39.706413"
       x2="41.641293"
       y1="28.004978"
       y2="31.442352">
      <stop
         offset="0"
         stop-color="#d4d4d4"
         id="stop46" />
      <stop
         offset="1"
         stop-color="#d4d4d4"
         stop-opacity="0"
         id="stop48" />
    </linearGradient>
    <linearGradient
       id="l"
       gradientUnits="userSpaceOnUse"
       x1="38.832764"
       x2="40.777378"
       y1="28.151825"
       y2="31.460476">
      <stop
         offset="0"
         stop-color="#555761"
         id="stop51" />
      <stop
         offset="1"
         stop-color="#555761"
         stop-opacity="0"
         id="stop53" />
    </linearGradient>
    <linearGradient
       id="m"
       gradientTransform="matrix(1.1811195,0,0,1.1804503,-332.45814,-53.518446)"
       gradientUnits="userSpaceOnUse"
       x1="302.29202"
       x2="308.64914"
       y1="58.442768"
       y2="60.767513">
      <stop
         offset="0"
         stop-color="#abacae"
         id="stop56" />
      <stop
         offset="1"
         stop-color="#fafafa"
         id="stop58" />
    </linearGradient>
    <linearGradient
       id="n"
       gradientUnits="userSpaceOnUse"
       x1="37.788918"
       x2="40.779758"
       xlink:href="#a-7"
       y1="27.894802"
       y2="32.102356" />
    <linearGradient
       id="a-7">
      <stop
         offset="0"
         stop-color="#fff"
         id="stop2" />
      <stop
         offset="1"
         stop-color="#fff"
         stop-opacity="0"
         id="stop4" />
    </linearGradient>
  </defs>
  <linearGradient
     id="c">
    <stop
       offset="0"
       stop-color="#fff"
       id="stop1283" />
    <stop
       offset="1"
       stop-color="#fff"
       stop-opacity="0"
       id="stop1285" />
  </linearGradient>
  <linearGradient
     id="g"
     gradientUnits="userSpaceOnUse"
     x1="15.321"
     x2="15.321"
     xlink:href="#c"
     y1="3"
     y2="29.045" />
  <linearGradient
     id="e"
     gradientUnits="userSpaceOnUse"
     x1="17.036"
     x2="17.036"
     y1="2"
     y2="30.012">
    <stop
       offset="0"
       stop-color="#f6f6f6"
       id="stop1289" />
    <stop
       offset="1"
       stop-color="#d2d2d2"
       id="stop1291" />
  </linearGradient>
  <linearGradient
     id="f"
     gradientUnits="userSpaceOnUse"
     x1="10.923"
     x2="10.923"
     y1="2"
     y2="30.045">
    <stop
       offset="0"
       stop-color="#aaa"
       id="stop1294" />
    <stop
       offset="1"
       stop-color="#8c8c8c"
       id="stop1296" />
  </linearGradient>
  <radialGradient
     id="d"
     cx="6.703"
     cy="73.616"
     gradientTransform="matrix(2.21346 0 0 .4842 1.164 -7.145)"
     gradientUnits="userSpaceOnUse"
     r="7.228">
    <stop
       offset="0"
       id="stop1299" />
    <stop
       offset="1"
       stop-opacity="0"
       id="stop1301" />
  </radialGradient>
  <path
     d="M32 28.5c0 1.933-7.164 3.5-16 3.5S0 30.433 0 28.5 7.164 25 16 25s16 1.567 16 3.5z"
     fill="url(#d)"
     opacity=".2"
     id="path1304" />
  <path
     d="M13.875 2.5c-.75 0-1.375.595-1.375 1.344v1.75c-.473.16-.933.343-1.375.562l-1.22-1.22C9.378 4.41 8.53 4.41 8 4.937L4.938 7.97c-.53.528-.53 1.376 0 1.905l1.218 1.22c-.224.45-.4.923-.562 1.405h-1.72c-.748 0-1.374.595-1.374 1.344v4.312c0 .75.626 1.344 1.375 1.344h1.72c.16.482.337.956.56 1.406l-1.217 1.22c-.53.528-.53 1.376 0 1.905L8 27.063c.53.53 1.377.53 1.906 0l1.22-1.218c.44.22.9.403 1.374.562v1.75c0 .75.626 1.344 1.375 1.344h4.28c.75 0 1.345-.595 1.345-1.344v-1.75c.482-.162.956-.338 1.406-.562l1.22 1.218c.528.53 1.376.53 1.905 0l3.064-3.03c.53-.53.53-1.378 0-1.907l-1.25-1.25c.22-.442.403-.902.562-1.375h1.75c.75 0 1.344-.595 1.344-1.344v-4.312c0-.75-.595-1.344-1.344-1.344h-1.75c-.16-.473-.343-.933-.562-1.375l1.25-1.25c.53-.53.53-1.377 0-1.906L24.03 4.936c-.528-.53-1.376-.53-1.905 0l-1.22 1.22c-.45-.225-.923-.4-1.405-.563v-1.75c0-.75-.595-1.344-1.344-1.344zM16 12.5c1.932 0 3.5 1.568 3.5 3.5s-1.568 3.5-3.5 3.5-3.5-1.568-3.5-3.5 1.568-3.5 3.5-3.5z"
     display="block"
     fill="url(#e)"
     stroke="url(#f)"
     stroke-linejoin="round"
     id="path1306" />
  <path
     d="M13.875 3.5c-.64.14-.28.97-.375 1.447.046.597.012 1.387-.688 1.584-.765.162-1.646 1.02-2.374.314-.506-.426-.888-1.06-1.485-1.335-.54.274-.93.875-1.415 1.284-.654.678-1.377 1.302-1.988 2.014-.038.54.616.81.907 1.212.5.38.917 1.057.504 1.658-.34.66-.388 1.82-1.366 1.822-.658.053-1.37-.114-1.99.1-.222.62-.05 1.344-.104 2.01.018.892-.036 1.793.027 2.682.377.39 1.024.133 1.525.208.638-.094 1.423.122 1.537.86.175.712.93 1.558.254 2.234-.42.5-1.05.88-1.322 1.467.285.6.922.986 1.357 1.494.644.63 1.297 1.297 1.934 1.908.55.04.828-.62 1.237-.92.38-.5 1.06-.917 1.662-.5.65.34 1.788.4 1.788 1.364.056.66-.12 1.38.104 1.995.71.212 1.51.048 2.257.1.814-.015 1.633.03 2.444-.022.378-.363.12-1.01.196-1.498-.055-.578.023-1.325.688-1.51.777-.15 1.668-1.023 2.406-.314.505.426.887 1.06 1.484 1.335.54-.274.93-.875 1.416-1.284.654-.678 1.377-1.302 1.987-2.014.04-.54-.615-.81-.906-1.21-.506-.39-.962-1.074-.533-1.694.342-.65.4-1.788 1.366-1.788.664-.047 1.375.1 2.006-.088.19-.734.04-1.548.088-2.315-.014-.8.03-1.604-.022-2.4-.363-.38-1.01-.12-1.498-.197-.643.09-1.446-.1-1.567-.85-.188-.703-.928-1.542-.257-2.212.436-.463.93-.877 1.33-1.37.026-.542-.62-.807-.916-1.208-.784-.77-1.577-1.572-2.353-2.322-.55-.04-.827.62-1.236.92-.38.5-1.057.916-1.658.503-.66-.34-1.82-.388-1.822-1.366-.047-.664.1-1.375-.088-2.006-.734-.19-1.548-.04-2.315-.088h-2.222z"
     display="block"
     opacity=".8"
     stroke="url(#g)"
     stroke-linejoin="round"
     fill="none"
     id="path1308" />
  <g
     color="#000"
     id="g1316">
    <path
       style="isolation:auto;mix-blend-mode:normal"
       d="M1.5 31.5v-15l12 7.5z"
       overflow="visible"
       solid-color="#000000"
       fill="url(#h)"
       transform="translate(10 -8)"
       id="path1310" />
    <path
       style="isolation:auto;mix-blend-mode:normal"
       d="M11.5 23.5v-15l12 7.5z"
       overflow="visible"
       opacity=".5"
       solid-color="#000000"
       fill="none"
       stroke="#0f5a00"
       stroke-linecap="round"
       stroke-linejoin="round"
       id="path1312" />
    <path
       style="isolation:auto;mix-blend-mode:normal"
       d="M2.5 18.17v11.645l8.88-5.813z"
       overflow="visible"
       opacity=".6"
       solid-color="#000000"
       fill="none"
       stroke="url(#i)"
       stroke-width=".992"
       transform="translate(10 -8)"
       id="path1314" />
  </g>
  <g
     clip-path="url(#i-3)"
     transform="translate(-7.4136651,6.1531279)"
     id="g86">
    <path
       style="opacity:0.3;fill:url(#j)"
       inkscape:connector-curvature="0"
       clip-path="none"
       d="m 40.246148,26.430102 v 3.569856 c 1.1865,0.0067 2.86838,-0.799823 2.86838,-1.785158 0,-0.985333 -1.324045,-1.784697 -2.86838,-1.784698 z"
       id="path78" />
    <path
       inkscape:connector-curvature="0"
       d="m 20.876076,11.330901 c -0.05457,0.05832 -0.09378,0.129 -0.112443,0.206591 -0.513929,2.213521 -0.270961,4.756837 0.703841,6.500138 1.331263,2.380803 4.103906,3.516797 6.81891,3.036248 1.109425,0.373022 2.581053,1.194238 4.325283,2.925828 l 21.774977,21.617245 4.1023,-4.072767 L 36.713979,19.92694 c -1.572378,-1.560968 -2.397496,-2.899079 -2.820136,-3.955724 0.366691,-1.460725 0.217303,-3.020265 -0.554323,-4.400246 -0.9744,-1.7425584 -3.019036,-3.2833524 -5.185918,-4.0347214 -0.185943,-0.06799 -0.390726,-0.01605 -0.5172,0.133486 -0.126486,0.149504 -0.148467,0.363933 -0.04925,0.534437 l 2.653019,4.7549724 c 0.238303,0.426154 0.113978,0.974273 -0.270098,1.534845 -0.387715,0.565884 -1.032795,1.131308 -1.858185,1.580953 -0.825555,0.449716 -1.650969,0.696454 -2.341049,0.719768 -0.686006,0.02325 -1.225081,-0.167034 -1.463986,-0.594309 l -2.668964,-4.781367 c -0.07441,-0.132659 -0.205007,-0.219611 -0.356462,-0.237223 -0.151443,-0.01759 -0.304292,0.03683 -0.405325,0.14909 z"
       style="fill:url(#k);fill-rule:evenodd;stroke:url(#l);stroke-width:0.99999899;stroke-linecap:round;stroke-linejoin:round;stroke-dashoffset:0.3612;stroke-opacity:0.5"
       clip-path="none"
       id="path80" />
    <path
       style="fill:url(#m);fill-rule:evenodd"
       inkscape:connector-curvature="0"
       clip-path="none"
       d="m 28.00477,7.9387476 c 0.02209,0.0083 0.0083,0.03683 0,0.03695 l 2.657518,4.7586904 c 0.358506,0.641079 0.09992,1.398184 -0.332189,2.028899 -0.436412,0.636959 -1.112615,1.25411 -1.99314,1.733786 -0.882414,0.480703 -1.807963,0.711564 -2.583699,0.737782 -0.774034,0.02621 -1.500576,-0.194668 -1.845499,-0.81156 l -2.657519,-4.795579 c -0.01524,-0.0024 -0.03945,0.0024 -0.03697,0 0.02433,-0.02597 0.0047,0.01889 0,0.03695 -0.49007,2.110799 -0.235893,4.550459 0.66438,6.160475 1.231459,2.202319 3.802508,3.254206 6.348517,2.803569 2.534057,-0.453316 4.700809,-2.659755 5.241218,-4.75869 0.341237,-1.359383 0.195865,-2.820261 -0.51674,-4.094687 C 32.052819,10.16972 30.077728,8.6576926 28.004709,7.9388696 Z"
       id="path82" />
    <path
       inkscape:connector-curvature="0"
       d="m 29.333527,9.2667536 1.771679,3.2093504 c 0.503818,0.900923 0.158034,1.866726 -0.33219,2.582235 -0.49529,0.722899 -1.230514,1.365362 -2.177689,1.881342 -0.951155,0.518149 -1.925874,0.818732 -2.805159,0.848449 -0.880453,0.02977 -1.852243,-0.260566 -2.325329,-1.106672 L 21.61934,13.361441 c -0.07866,1.555962 0.09862,3.127549 0.70129,4.205355 1.110807,1.986545 3.453156,2.959822 5.794867,2.545345 0.171428,-0.03384 0.351856,-0.02096 0.51674,0.03689 1.269219,0.426735 2.856703,1.317985 4.687568,3.135571 L 55.096696,44.901598 57.791125,42.245585 36.014234,20.628588 c -1.650697,-1.638708 -2.548691,-3.084275 -3.026619,-4.279132 -0.07205,-0.186842 -0.08504,-0.395886 -0.03685,-0.590225 0.310481,-1.236868 0.198334,-2.578973 -0.442919,-3.725796 -0.586084,-1.048119 -1.82659,-2.008378 -3.174259,-2.7666814 z"
       style="fill:none;stroke:url(#n);stroke-linecap:round;stroke-linejoin:round;stroke-dashoffset:0.3612"
       clip-path="none"
       id="path84" />
  </g>
</svg>
