<svg xmlns="http://www.w3.org/2000/svg" xmlns:xlink="http://www.w3.org/1999/xlink" height="32" width="32"><defs><linearGradient id="f"><stop offset="0" stop-color="#fff"/><stop offset=".063" stop-color="#fff" stop-opacity=".235"/><stop offset=".951" stop-color="#fff" stop-opacity=".157"/><stop offset="1" stop-color="#fff" stop-opacity=".392"/></linearGradient><linearGradient id="e"><stop offset="0" stop-color="#55c1ec"/><stop offset="1" stop-color="#3689e6"/></linearGradient><linearGradient id="g"><stop offset="0" stop-color="#fafafa"/><stop offset="1" stop-color="#e1e1e1"/></linearGradient><linearGradient id="a"><stop offset="0" stop-color="#181818"/><stop offset="1" stop-color="#181818" stop-opacity="0"/></linearGradient><linearGradient id="b"><stop offset="0" stop-color="#181818" stop-opacity="0"/><stop offset=".5" stop-color="#181818"/><stop offset="1" stop-color="#181818" stop-opacity="0"/></linearGradient><linearGradient id="h"><stop offset="0" stop-opacity=".322"/><stop offset="1" stop-opacity=".278"/></linearGradient><linearGradient id="c"><stop offset="0" stop-color="#fff"/><stop offset=".508" stop-color="#fff" stop-opacity=".235"/><stop offset=".835" stop-color="#fff" stop-opacity=".157"/><stop offset="1" stop-color="#fff" stop-opacity=".392"/></linearGradient><linearGradient id="d"><stop offset="0" stop-color="#e9e9e9"/><stop offset="1" stop-color="#fff"/></linearGradient><linearGradient id="k"><stop offset="0" stop-color="#7d7d7d"/><stop offset="1" stop-color="#a0a0a0"/></linearGradient><linearGradient id="l"><stop offset="0" stop-color="#696969"/><stop offset="1" stop-color="#949494"/></linearGradient><linearGradient id="i"><stop offset="0" stop-color="#90dbec"/><stop offset=".262" stop-color="#55c1ec"/><stop offset=".705" stop-color="#3689e6"/><stop offset="1" stop-color="#2b63a0"/></linearGradient><linearGradient id="j"><stop offset="0" stop-color="#0e73c8"/><stop offset="1" stop-color="#40a5e4"/></linearGradient><linearGradient xlink:href="#f" id="q" x1="278.737" y1="275.478" x2="278.904" y2="293.593" gradientUnits="userSpaceOnUse"/><linearGradient xlink:href="#g" id="m" x1="282.654" y1="275.593" x2="283.404" y2="295.843" gradientUnits="userSpaceOnUse"/><linearGradient xlink:href="#i" id="o" x1="276.654" y1="271.843" x2="276.654" y2="277.843" gradientUnits="userSpaceOnUse"/><linearGradient xlink:href="#j" id="p" x1="281.154" y1="272.593" x2="281.154" y2="275.593" gradientUnits="userSpaceOnUse"/><linearGradient xlink:href="#k" id="v" x1="3.372" y1="6.995" x2="5.612" y2="6.995" gradientUnits="userSpaceOnUse"/><linearGradient xlink:href="#k" id="w" gradientUnits="userSpaceOnUse" x1="3.372" y1="6.995" x2="5.612" y2="6.995" gradientTransform="translate(0 4.5)"/><linearGradient xlink:href="#k" id="x" gradientUnits="userSpaceOnUse" gradientTransform="translate(0 9)" x1="3.372" y1="6.995" x2="5.612" y2="6.995"/><linearGradient xlink:href="#k" id="y" gradientUnits="userSpaceOnUse" gradientTransform="translate(0 13.5)" x1="3.372" y1="6.995" x2="5.612" y2="6.995"/><linearGradient xlink:href="#l" id="u" x1="10.868" y1="6.624" x2="10.868" y2="7.374" gradientUnits="userSpaceOnUse"/><linearGradient xlink:href="#l" id="r" gradientUnits="userSpaceOnUse" x1="10.868" y1="6.624" x2="10.868" y2="7.374" gradientTransform="translate(0 4.5)"/><linearGradient xlink:href="#l" id="s" gradientUnits="userSpaceOnUse" gradientTransform="translate(0 9)" x1="10.868" y1="6.624" x2="10.868" y2="7.374"/><linearGradient xlink:href="#l" id="t" gradientUnits="userSpaceOnUse" gradientTransform="translate(0 13.5)" x1="10.868" y1="6.624" x2="10.868" y2="7.374"/></defs><linearGradient id="n" gradientUnits="userSpaceOnUse" x1="277.054" x2="277.054" y1="294.668" y2="274.769"><stop offset="0" stop-color="#9c9c9c"/><stop offset="1" stop-color="#afafaf"/></linearGradient><g transform="translate(3.51 -.832) scale(1.33333)"><g stroke-width=".75"><path d="M285.458 274.482c.743 0 1.4.164 1.32 1.343v17.902c.018.866-.9 1.053-1.577.976h-12.426c-.863.018-1.05-.903-.972-1.584v-18.935c.325-.69 5.868-.285 10.113.27 1.008 0 2.57-.018 3.543.027z" fill="url(#m)" stroke="url(#n)" transform="translate(-270.286 -271.22)"/><path d="M271.786 275.22l.007-2.016c.002-.545.424-.986.952-.984l8.01.03c.528.002.783.43.782.974l-.007 2.016" fill="url(#o)" stroke="url(#p)" transform="translate(-270.286 -271.22)"/><path d="M273.014 272.93l7.342.03c.608.062.413.6.445 1.025 0 .355-.008 1.022.003 1.215 1.015 0 2.432-.017 4.144-.017 1.712 0 1.073.19 1.074.754l.02 17.593c-.06.616-.75.418-1.17.45h-11.842c-.608-.06-.413-.76-.445-1.185l-.014-19.414c-.007-.24.205-.456.444-.45z" fill="none" opacity=".6" stroke="url(#q)" transform="translate(-270.286 -271.22)"/></g><rect y="11.124" x="7.118" width="7.5" ry=".375" rx=".286" height=".75" fill="url(#r)"/><rect height=".75" rx=".286" ry=".375" width="7.5" x="7.118" y="15.624" fill="url(#s)"/><rect y="20.124" x="7.118" width="7.5" ry=".375" rx=".286" height=".75" fill="url(#t)"/><rect height=".75" rx=".286" ry=".375" width="7.5" x="7.118" y="6.624" fill="url(#u)"/><g stroke-linecap="round" stroke-width=".75" stroke="#2e3436" fill="#a2a2a2"><rect height="1.486" rx=".417" ry=".421" width="1.49" x="3.747" y="6.252" stroke="url(#v)"/><rect y="10.752" x="3.747" width="1.49" ry=".421" rx=".417" height="1.486" stroke="url(#w)"/><rect height="1.486" rx=".417" ry=".421" width="1.49" x="3.747" y="15.252" stroke="url(#x)"/><rect y="19.752" x="3.747" width="1.49" ry=".421" rx=".417" height="1.486" stroke="url(#y)"/></g></g></svg>