<svg xmlns="http://www.w3.org/2000/svg" xmlns:xlink="http://www.w3.org/1999/xlink" height="32" width="32"><defs><linearGradient id="m"><stop offset="0" stop-color="#fff"/><stop offset=".512" stop-color="#fff" stop-opacity=".235"/><stop offset=".585" stop-color="#fff" stop-opacity=".157"/><stop offset="1" stop-color="#fff" stop-opacity=".392"/></linearGradient><linearGradient id="b"><stop offset="0"/><stop offset="1" stop-opacity="0"/></linearGradient><linearGradient gradientTransform="matrix(.0352 0 0 .00824 -.725 26.98)" gradientUnits="userSpaceOnUse" xlink:href="#c" id="t" y2="609.505" x2="302.857" y1="366.648" x1="302.857"/><linearGradient id="c"><stop offset="0" stop-opacity="0"/><stop offset=".5"/><stop offset="1" stop-opacity="0"/></linearGradient><radialGradient gradientTransform="matrix(-.01205 0 0 .00824 10.76 26.98)" gradientUnits="userSpaceOnUse" xlink:href="#d" id="u" fy="486.648" fx="605.714" r="117.143" cy="486.648" cx="605.714"/><linearGradient id="d"><stop offset="0"/><stop offset="1" stop-opacity="0"/></linearGradient><radialGradient gradientTransform="matrix(.01205 0 0 .00824 13.24 26.98)" gradientUnits="userSpaceOnUse" xlink:href="#d" id="v" fy="486.648" fx="605.714" r="117.143" cy="486.648" cx="605.714"/><linearGradient gradientTransform="matrix(.48572 0 0 .4563 .343 8.35)" gradientUnits="userSpaceOnUse" xlink:href="#e" id="w" y2="47.013" x2="25.132" y1=".985" x1="25.132"/><linearGradient id="e"><stop offset="0" stop-color="#f4f4f4"/><stop offset="1" stop-color="#dbdbdb"/></linearGradient><linearGradient gradientTransform="matrix(.3922 0 0 .42703 29.2 7.84)" gradientUnits="userSpaceOnUse" xlink:href="#f" id="x" y2="2.906" x2="-51.786" y1="50.786" x1="-51.786"/><linearGradient id="f"><stop offset="0" stop-color="#a0a0a0"/><stop offset="1" stop-color="#bebebe"/></linearGradient><linearGradient gradientTransform="matrix(.4054 0 0 .5135 2.27 7.676)" gradientUnits="userSpaceOnUse" xlink:href="#g" id="y" y2="43" x2="24" y1="5.564" x1="24"/><linearGradient id="g"><stop offset="0" stop-color="#fff"/><stop offset=".036" stop-color="#fff" stop-opacity=".235"/><stop offset=".951" stop-color="#fff" stop-opacity=".157"/><stop offset="1" stop-color="#fff" stop-opacity=".392"/></linearGradient><linearGradient gradientTransform="matrix(.0352 0 0 .00824 -.725 26.98)" gradientUnits="userSpaceOnUse" xlink:href="#h" id="n" y2="609.505" x2="302.857" y1="366.648" x1="302.857"/><linearGradient id="h"><stop offset="0" stop-opacity="0"/><stop offset=".5"/><stop offset="1" stop-opacity="0"/></linearGradient><radialGradient gradientTransform="matrix(-.01205 0 0 .00824 10.76 26.98)" gradientUnits="userSpaceOnUse" xlink:href="#i" id="o" fy="486.648" fx="605.714" r="117.143" cy="486.648" cx="605.714"/><linearGradient id="i"><stop offset="0"/><stop offset="1" stop-opacity="0"/></linearGradient><radialGradient gradientTransform="matrix(.01205 0 0 .00824 13.24 26.98)" gradientUnits="userSpaceOnUse" xlink:href="#i" id="p" fy="486.648" fx="605.714" r="117.143" cy="486.648" cx="605.714"/><linearGradient gradientTransform="matrix(.48572 0 0 .4563 .343 8.35)" gradientUnits="userSpaceOnUse" xlink:href="#j" id="q" y2="47.013" x2="25.132" y1=".985" x1="25.132"/><linearGradient id="j"><stop offset="0" stop-color="#f4f4f4"/><stop offset="1" stop-color="#dbdbdb"/></linearGradient><linearGradient gradientTransform="matrix(.3922 0 0 .42703 29.2 7.84)" gradientUnits="userSpaceOnUse" xlink:href="#k" id="r" y2="2.906" x2="-51.786" y1="50.786" x1="-51.786"/><linearGradient id="k"><stop offset="0" stop-color="#a0a0a0"/><stop offset="1" stop-color="#bebebe"/></linearGradient><linearGradient id="l"><stop offset="0" stop-color="#fff"/><stop offset=".036" stop-color="#fff" stop-opacity=".235"/><stop offset=".951" stop-color="#fff" stop-opacity=".157"/><stop offset="1" stop-color="#fff" stop-opacity=".392"/></linearGradient><linearGradient gradientTransform="matrix(.4054 0 0 .5135 2.27 7.676)" gradientUnits="userSpaceOnUse" xlink:href="#l" id="s" y2="43" x2="24" y1="5.564" x1="24"/><linearGradient id="a"><stop offset="0" stop-color="#cdf87e"/><stop offset=".262" stop-color="#a2e34f"/><stop offset=".661" stop-color="#68b723"/><stop offset="1" stop-color="#1d7e0d"/></linearGradient></defs><path overflow="visible" opacity=".15" fill="url(#n)" d="M3.5 30h17v2h-17z" transform="translate(0 -7)"/><path d="M3.5 30v2c-.62.004-1.5-.448-1.5-1s.692-1 1.5-1z" overflow="visible" opacity=".15" fill="url(#o)" transform="translate(0 -7)"/><path d="M20.5 30v2c.62.004 1.5-.448 1.5-1s-.692-1-1.5-1z" overflow="visible" opacity=".15" fill="url(#p)" transform="translate(0 -7)"/><path d="M3.5 9.5h17v21h-17v-21z" fill="url(#q)" stroke="url(#r)" stroke-linejoin="round" transform="translate(0 -7)"/><path d="M19.5 29.5h-15v-19h15z" fill="none" stroke="url(#s)" stroke-linecap="round" transform="translate(0 -7)"/><path d="M10 6h11v18H10V6z" opacity=".05"/><g><path overflow="visible" opacity=".15" fill="url(#t)" d="M3.5 30h17v2h-17z" transform="translate(8 -2)"/><path d="M3.5 30v2c-.62.004-1.5-.448-1.5-1s.692-1 1.5-1z" overflow="visible" opacity=".15" fill="url(#u)" transform="translate(8 -2)"/><path d="M20.5 30v2c.62.004 1.5-.448 1.5-1s-.692-1-1.5-1z" overflow="visible" opacity=".15" fill="url(#v)" transform="translate(8 -2)"/><path d="M3.5 9.5h17v21h-17v-21z" fill="url(#w)" stroke="url(#x)" stroke-linejoin="round" transform="translate(8 -2)"/><path d="M19.5 29.5h-15v-19h15z" fill="none" stroke="url(#y)" stroke-linecap="round" transform="translate(8 -2)"/></g></svg>