<svg height="32" width="32" xmlns="http://www.w3.org/2000/svg" xmlns:xlink="http://www.w3.org/1999/xlink"><linearGradient id="a" gradientTransform="matrix(.0352 0 0 .00824 -.725 26.98)" gradientUnits="userSpaceOnUse" x1="302.857" x2="302.857" xlink:href="#b" y1="366.648" y2="609.505"/><linearGradient id="b"><stop offset="0" stop-opacity="0"/><stop offset=".5"/><stop offset="1" stop-opacity="0"/></linearGradient><radialGradient id="c" cx="605.714" cy="486.648" gradientTransform="matrix(-.01205 0 0 .00824 10.76 26.98)" gradientUnits="userSpaceOnUse" r="117.143" xlink:href="#d"/><linearGradient id="d"><stop offset="0"/><stop offset="1" stop-opacity="0"/></linearGradient><radialGradient id="e" cx="605.714" cy="486.648" gradientTransform="matrix(.01205 0 0 .00824 13.24 26.98)" gradientUnits="userSpaceOnUse" r="117.143" xlink:href="#d"/><linearGradient id="f" gradientTransform="matrix(.48572 0 0 .4563 .343 8.35)" gradientUnits="userSpaceOnUse" x1="25.132" x2="25.132" xlink:href="#g" y1=".985" y2="47.013"/><linearGradient id="g"><stop offset="0" stop-color="#f4f4f4"/><stop offset="1" stop-color="#dbdbdb"/></linearGradient><linearGradient id="h" gradientTransform="matrix(.3922 0 0 .42703 29.2 7.84)" gradientUnits="userSpaceOnUse" x1="-51.786" x2="-51.786" xlink:href="#i" y1="50.786" y2="2.906"/><linearGradient id="i"><stop offset="0" stop-color="#a0a0a0"/><stop offset="1" stop-color="#bebebe"/></linearGradient><linearGradient id="j" gradientTransform="matrix(.4054 0 0 .5135 2.27 7.676)" gradientUnits="userSpaceOnUse" x1="24" x2="24" xlink:href="#k" y1="5.564" y2="43"/><linearGradient id="k"><stop offset="0" stop-color="#fff"/><stop offset=".036" stop-color="#fff" stop-opacity=".235"/><stop offset=".951" stop-color="#fff" stop-opacity=".157"/><stop offset="1" stop-color="#fff" stop-opacity=".392"/></linearGradient><linearGradient id="l" gradientTransform="matrix(.0352 0 0 .00824 -.725 26.98)" gradientUnits="userSpaceOnUse" x1="302.857" x2="302.857" xlink:href="#b" y1="366.648" y2="609.505"/><linearGradient id="m" gradientTransform="matrix(.48572 0 0 .4563 .343 8.35)" gradientUnits="userSpaceOnUse" x1="25.132" x2="25.132" xlink:href="#g" y1=".985" y2="47.013"/><linearGradient id="n" gradientTransform="matrix(.3922 0 0 .42703 29.2 7.84)" gradientUnits="userSpaceOnUse" x1="-51.786" x2="-51.786" xlink:href="#i" y1="50.786" y2="2.906"/><linearGradient id="o" gradientTransform="matrix(.4054 0 0 .5135 2.27 7.676)" gradientUnits="userSpaceOnUse" x1="24" x2="24" xlink:href="#k" y1="5.564" y2="43"/><path d="m3.5 30h17v2h-17z" fill="url(#l)" opacity=".15" transform="translate(0 -7)"/><path d="m3.5 30v2c-.62.004-1.5-.448-1.5-1s.692-1 1.5-1z" fill="url(#c)" opacity=".15" transform="translate(0 -7)"/><path d="m20.5 30v2c.62.004 1.5-.448 1.5-1s-.692-1-1.5-1z" fill="url(#e)" opacity=".15" transform="translate(0 -7)"/><path d="m3.5 9.5h17v21h-17z" fill="url(#m)" stroke="url(#n)" stroke-linejoin="round" transform="translate(0 -7)"/><path d="m19.5 29.5h-15v-19h15z" fill="none" stroke="url(#o)" stroke-linecap="round" transform="translate(0 -7)"/><path d="m10 6h11v18h-11z" opacity=".05"/><path d="m3.5 30h17v2h-17z" fill="url(#a)" opacity=".15" transform="translate(8 -2)"/><path d="m3.5 30v2c-.62.004-1.5-.448-1.5-1s.692-1 1.5-1z" fill="url(#c)" opacity=".15" transform="translate(8 -2)"/><path d="m20.5 30v2c.62.004 1.5-.448 1.5-1s-.692-1-1.5-1z" fill="url(#e)" opacity=".15" transform="translate(8 -2)"/><path d="m3.5 9.5h17v21h-17z" fill="url(#f)" stroke="url(#h)" stroke-linejoin="round" transform="translate(8 -2)"/><path d="m19.5 29.5h-15v-19h15z" fill="none" stroke="url(#j)" stroke-linecap="round" transform="translate(8 -2)"/></svg>