<svg xmlns="http://www.w3.org/2000/svg" xmlns:xlink="http://www.w3.org/1999/xlink" height="32" viewBox="0 0 8.4666665 8.4666668" width="32"><linearGradient id="a"><stop offset="0" stop-color="#fff"/><stop offset=".063" stop-color="#fff" stop-opacity=".235"/><stop offset=".951" stop-color="#fff" stop-opacity=".157"/><stop offset="1" stop-color="#fff" stop-opacity=".392"/></linearGradient><linearGradient id="c" gradientTransform="matrix(.1347 0 0 .14642 -.198 290.374)" gradientUnits="userSpaceOnUse" x1="24" x2="24" xlink:href="#a" y1="5" y2="43"/><linearGradient id="b" gradientTransform="matrix(.11794 0 0 .11905 .212 290.644)" gradientUnits="userSpaceOnUse" x1="25.132" x2="25.132" y1="15.5" y2="48.396"><stop offset="0" stop-color="#fafafa"/><stop offset="1" stop-color="#e2e1de"/></linearGradient><g transform="translate(.176 -387.532) scale(1.33333)"><rect fill="url(#b)" height="5.556" rx=".198" width="5.159" x=".463" y="291.047"/><path d="M.543 291.18h4.983l.017 5.555H.56z" fill="none" stroke="url(#c)" stroke-linecap="round" stroke-linejoin="round" stroke-width=".201"/><path d="M.364 292.24l-.005 4.143c0 .152.154.317.306.317H5.41c.152 0 .307-.166.308-.318l.004-4.145" fill="none" opacity=".3" stroke="#000" stroke-width=".201"/><path d="M1.455 292.436h.2v4.167h-.2zm1.39 0h.2v4.167h-.2zm1.388 0h.2v4.167h-.2zm-3.77.794h.992v.198H.463z" opacity=".321"/><path d="M1.654 293.23h1.19v.198h-1.19zm1.39 0h1.19v.198h-1.19zm1.388 0h1.19v.198h-1.19zm-3.97 1.19h.993v.2H.463zm1.192 0h1.19v.2h-1.19zm1.39 0h1.19v.2h-1.19zm1.388 0h1.19v.2h-1.19zm-3.97 1.19h.993v.2H.463zm1.192 0h1.19v.2h-1.19zm1.39 0h1.19v.2h-1.19zm1.388 0h1.19v.2h-1.19z" opacity=".321"/><path d="M.68 290.948c-.152 0-.316.184-.316.336v1.048l5.357.004v-1.055c0-.15-.143-.33-.295-.33z" fill="none" stroke="#a9a9a8" stroke-linecap="round" stroke-width=".201"/><path d="M1.455 291.047h.2v1.19h-.2zm1.39 0h.2v1.19h-.2zm1.388 0h.2v1.19h-.2z" fill="#a9a9a8"/></g></svg>