<svg xmlns="http://www.w3.org/2000/svg" xmlns:xlink="http://www.w3.org/1999/xlink" height="32" viewBox="0 0 8.4666665 8.4666668" width="32"><defs><radialGradient id="a" cx="65.325" cy="48.709" gradientTransform="matrix(0 .68598 -.74626 0 60.288 -27.737)" gradientUnits="userSpaceOnUse" r="31"><stop offset="0" stop-color="#cdf87e"/><stop offset=".262" stop-color="#a2e34f"/><stop offset=".661" stop-color="#68b723"/><stop offset="1" stop-color="#1d7e0d"/></radialGradient><linearGradient id="b" gradientTransform="matrix(.34578 0 0 .43493 16.29 13.936)" gradientUnits="userSpaceOnUse" x1="24.139" x2="24.139" y1="20.749" y2="25.528"><stop offset="0" stop-color="#fff"/><stop offset="0" stop-color="#fff" stop-opacity=".235"/><stop offset="1" stop-color="#fff" stop-opacity=".157"/><stop offset="1" stop-color="#fff" stop-opacity=".392"/></linearGradient><radialGradient r="31" cy="48.709" cx="65.325" gradientTransform="matrix(0 .12973 -.14113 0 11.892 -5.55)" gradientUnits="userSpaceOnUse" id="f" xlink:href="#a"/><linearGradient y2="25.528" x2="24.139" y1="20.749" x1="24.139" gradientTransform="matrix(.34578 0 0 .43493 16.29 13.936)" gradientUnits="userSpaceOnUse" id="k" xlink:href="#b"/><radialGradient r="31" cy="48.709" cx="65.325" gradientTransform="matrix(0 .68598 -.74626 0 60.288 -27.737)" gradientUnits="userSpaceOnUse" id="h" xlink:href="#a"/><radialGradient r="31" cy="48.709" cx="65.325" gradientTransform="matrix(0 .68598 -.74626 0 60.288 -27.737)" gradientUnits="userSpaceOnUse" id="j" xlink:href="#a"/><linearGradient xlink:href="#b" id="g" gradientUnits="userSpaceOnUse" gradientTransform="matrix(.34578 0 0 .43493 16.29 13.936)" x1="24.139" y1="20.749" x2="24.139" y2="25.528"/><linearGradient xlink:href="#b" id="i" gradientUnits="userSpaceOnUse" gradientTransform="matrix(.34578 0 0 .43493 16.29 13.936)" x1="24.139" y1="20.749" x2="24.139" y2="25.528"/><radialGradient xlink:href="#a" id="l" gradientUnits="userSpaceOnUse" gradientTransform="matrix(0 .12973 -.14113 0 11.892 -5.55)" cx="65.325" cy="48.709" r="31"/><linearGradient xlink:href="#b" id="m" gradientUnits="userSpaceOnUse" gradientTransform="matrix(.34578 0 0 .43493 16.29 13.936)" x1="24.139" y1="20.749" x2="24.139" y2="25.528"/><radialGradient xlink:href="#a" id="n" gradientUnits="userSpaceOnUse" gradientTransform="matrix(0 .12973 -.14113 0 11.892 -5.55)" cx="65.325" cy="48.709" r="31"/><linearGradient xlink:href="#b" id="o" gradientUnits="userSpaceOnUse" gradientTransform="matrix(.34578 0 0 .43493 16.29 13.936)" x1="24.139" y1="20.749" x2="24.139" y2="25.528"/></defs><linearGradient id="c"><stop offset="0" stop-color="#fff"/><stop offset=".063" stop-color="#fff" stop-opacity=".235"/><stop offset=".951" stop-color="#fff" stop-opacity=".157"/><stop offset="1" stop-color="#fff" stop-opacity=".392"/></linearGradient><linearGradient id="e" gradientTransform="matrix(.1347 0 0 .14642 -.198 290.374)" gradientUnits="userSpaceOnUse" x1="24" x2="24" xlink:href="#c" y1="5" y2="43"/><linearGradient id="d" gradientTransform="matrix(.59434 0 0 .59994 1.734 -.03)" gradientUnits="userSpaceOnUse" x1="25.132" x2="25.132" y1="15.5" y2="48.396"><stop offset="0" stop-color="#fafafa"/><stop offset="1" stop-color="#e2e1de"/></linearGradient><path d="M3.996 2.002c-.553 0-.998.445-.998.998v16h25.998V3c0-.553-.445-.998-.998-.998H3.996zM2.998 25v4.002c0 .553.445.998.998.998h24.002c.553 0 .998-.445.998-.998V25H2.998z" transform="matrix(.26458 0 0 .26458 0 0)" fill="url(#d)"/><path d="M.543 291.18h4.983l.017 5.555H.56z" fill="none" stroke="url(#e)" stroke-linecap="round" stroke-linejoin="round" stroke-width=".201" transform="translate(.176 -387.532) scale(1.33333)"/><path d="M7.805 2.116L.66 2.12.663 4.9h7.145zM.655 6.754v.89c0 .203.205.423.407.423H7.39c.202 0 .41-.22.41-.424v-.89z" opacity=".3" fill="none" stroke="#000" stroke-width=".26801953999999995"/><path d="M2.116 2.382V3.44H.793v.264h1.323v1.06h.266V2.38zm1.853 0l-.002 2.38h.267v-2.38zm1.85 0v2.38h.265v-2.38zM2.115 6.88v1.058h.268v-1.06zm1.853 0v1.058h.268v-1.06zm1.85 0l.002 1.058h.266v-1.06z" opacity=".321"/><path d="M2.38 3.44H3.97v.264H2.38zm1.855 0H5.82v.264H4.236zm1.85 0h1.587v.264H6.085z" opacity=".321"/><path d="M1.083.398C.88.398.66.643.66.846v1.397l7.144.005V.842c0-.2-.19-.44-.393-.44z" fill="none" stroke="#a9a9a8" stroke-linecap="round" stroke-width=".26799933"/><path d="M2.116.53h.267v1.586h-.267zm1.853 0h.266v1.586H3.97zm1.85 0h.267v1.586H5.82z" fill="#a9a9a8"/><g><path d="M4.878 3.846v.782l-1.024-.003v-.782z" fill="url(#f)" transform="translate(0 1.588)"/><g fill="none"><path d="M4.893 5.426v.79L3.84 6.22l-.003-.792z" opacity=".5" stroke="#0f5a00" stroke-width=".268" stroke-linecap="round" stroke-linejoin="round"/><path d="M21.86 23.294l-.043 1.452m-2.777-.016l.042-1.453" transform="translate(.49 1.284) scale(.18912)" opacity=".5" stroke="url(#g)" stroke-width="1.363"/></g><path transform="translate(2.078 1.284) scale(.18912)" d="M23.2 21.945v4.133l-5.412-.016V21.93z" fill="url(#h)"/><g fill="none"><path d="M6.48 5.426v.79l-1.052.004-.003-.792z" opacity=".5" stroke="#0f5a00" stroke-width=".268" stroke-linecap="round" stroke-linejoin="round"/><path transform="translate(2.078 1.284) scale(.18912)" d="M21.86 23.294l-.043 1.452m-2.777-.016l.042-1.453" opacity=".5" stroke="url(#i)" stroke-width="1.363"/></g><path transform="translate(3.665 1.284) scale(.18912)" d="M23.2 21.945v4.133l-5.412-.016V21.93z" fill="url(#j)"/><g fill="none"><path d="M8.068 5.426v.79l-1.053.004-.003-.792z" opacity=".5" stroke="#0f5a00" stroke-width=".268" stroke-linecap="round" stroke-linejoin="round"/><path transform="translate(3.665 1.284) scale(.18912)" d="M21.86 23.294l-.043 1.452m-2.777-.016l.042-1.453" opacity=".5" stroke="url(#k)" stroke-width="1.363"/></g><g><path d="M4.878 3.846v.782l-1.024-.003v-.782z" fill="url(#l)" transform="translate(-1.587 1.588)"/><g fill="none"><path d="M3.306 5.426v.79l-1.053.004-.003-.792z" opacity=".5" stroke="#0f5a00" stroke-width=".268" stroke-linecap="round" stroke-linejoin="round"/><path transform="translate(-1.097 1.284) scale(.18912)" d="M21.86 23.294l-.043 1.452m-2.777-.016l.042-1.453" opacity=".5" stroke="url(#m)" stroke-width="1.363"/></g></g><g><path d="M4.878 3.846v.782l-1.024-.003v-.782z" fill="url(#n)" transform="translate(-3.175 1.588)"/><g fill="none"><path d="M1.718 5.426v.79L.665 6.22l-.003-.792z" opacity=".5" stroke="#0f5a00" stroke-width=".268" stroke-linecap="round" stroke-linejoin="round"/><path d="M21.86 23.294l-.043 1.452m-2.777-.016l.042-1.453" transform="translate(-2.685 1.284) scale(.18912)" opacity=".5" stroke="url(#o)" stroke-width="1.363"/></g></g></g></svg>