<?xml version="1.0" encoding="UTF-8" standalone="no"?>
<svg
   xmlns:dc="http://purl.org/dc/elements/1.1/"
   xmlns:cc="http://creativecommons.org/ns#"
   xmlns:rdf="http://www.w3.org/1999/02/22-rdf-syntax-ns#"
   xmlns:svg="http://www.w3.org/2000/svg"
   xmlns="http://www.w3.org/2000/svg"
   xmlns:xlink="http://www.w3.org/1999/xlink"
   xmlns:sodipodi="http://sodipodi.sourceforge.net/DTD/sodipodi-0.dtd"
   xmlns:inkscape="http://www.inkscape.org/namespaces/inkscape"
   height="32"
   width="32"
   version="1.1"
   id="svg1336"
   sodipodi:docname="pagedialog.svg"
   inkscape:version="0.92.3 (unknown)">
  <metadata
     id="metadata1342">
    <rdf:RDF>
      <cc:Work
         rdf:about="">
        <dc:format>image/svg+xml</dc:format>
        <dc:type
           rdf:resource="http://purl.org/dc/dcmitype/StillImage" />
      </cc:Work>
    </rdf:RDF>
  </metadata>
  <defs
     id="defs1340" />
  <sodipodi:namedview
     pagecolor="#ffffff"
     bordercolor="#666666"
     borderopacity="1"
     objecttolerance="10"
     gridtolerance="10"
     guidetolerance="10"
     inkscape:pageopacity="0"
     inkscape:pageshadow="2"
     inkscape:window-width="1366"
     inkscape:window-height="706"
     id="namedview1338"
     showgrid="false"
     inkscape:zoom="10.429825"
     inkscape:cx="14.770999"
     inkscape:cy="13.651303"
     inkscape:window-x="0"
     inkscape:window-y="0"
     inkscape:window-maximized="1"
     inkscape:current-layer="svg1336" />
  <radialGradient
     id="a"
     cx="6.702713"
     cy="73.615715"
     gradientTransform="matrix(1.3166457 0 0 .28801944 14.174902 8.61329)"
     gradientUnits="userSpaceOnUse"
     r="7.228416"
     xlink:href="#b" />
  <linearGradient
     id="b">
    <stop
       offset="0"
       id="stop1264" />
    <stop
       offset="1"
       stop-opacity="0"
       id="stop1266" />
  </linearGradient>
  <linearGradient
     id="c"
     gradientUnits="userSpaceOnUse"
     x1="22.881355"
     x2="22.644068"
     y1="14.457627"
     y2="31.338984">
    <stop
       offset="0"
       stop-color="#f6f6f6"
       id="stop1269" />
    <stop
       offset="1"
       stop-color="#d2d2d2"
       id="stop1271" />
  </linearGradient>
  <linearGradient
     id="d"
     gradientUnits="userSpaceOnUse"
     x1="23.031893"
     x2="23.040016"
     y1="26.715307"
     y2="18.997057">
    <stop
       offset="0"
       stop-color="#fff"
       id="stop1274" />
    <stop
       offset="1"
       stop-color="#959595"
       id="stop1276" />
  </linearGradient>
  <linearGradient
     id="e"
     gradientUnits="userSpaceOnUse"
     x1="23.131727"
     x2="23.398602"
     y1="16.459263"
     y2="30.159456">
    <stop
       offset="0"
       stop-color="#fff"
       id="stop1279" />
    <stop
       offset="1"
       stop-color="#fff"
       stop-opacity="0"
       id="stop1281" />
  </linearGradient>
  <linearGradient
     id="f"
     gradientTransform="matrix(.56756757 0 0 .72972971 2.378382 -2.513506)"
     gradientUnits="userSpaceOnUse"
     x1="23.99999"
     x2="23.99999"
     y1="5.56415"
     y2="43">
    <stop
       offset="0"
       stop-color="#fff"
       id="stop1284" />
    <stop
       offset=".03626217"
       stop-color="#fff"
       stop-opacity=".235294"
       id="stop1286" />
    <stop
       offset=".95056331"
       stop-color="#fff"
       stop-opacity=".156863"
       id="stop1288" />
    <stop
       offset="1"
       stop-color="#fff"
       stop-opacity=".392157"
       id="stop1290" />
  </linearGradient>
  <linearGradient
     id="g"
     gradientTransform="matrix(.62856997 0 0 .60839392 .91432 -.534791)"
     gradientUnits="userSpaceOnUse"
     x1="25.132275"
     x2="25.132275"
     y1=".985206"
     y2="47.013336">
    <stop
       offset="0"
       stop-color="#f4f4f4"
       id="stop1293" />
    <stop
       offset="1"
       stop-color="#dbdbdb"
       id="stop1295" />
  </linearGradient>
  <radialGradient
     id="h"
     cx="605.71429"
     cy="486.64789"
     gradientTransform="matrix(.01566318 0 0 .00823529 17.610433 25.980565)"
     gradientUnits="userSpaceOnUse"
     r="117.14286"
     xlink:href="#b" />
  <radialGradient
     id="i"
     cx="605.71429"
     cy="486.64789"
     gradientTransform="matrix(-.01566318 0 0 .00823529 14.389566 25.980565)"
     gradientUnits="userSpaceOnUse"
     r="117.14286"
     xlink:href="#b" />
  <linearGradient
     id="j"
     gradientTransform="matrix(.04576928 0 0 .00823529 -.542324 25.980548)"
     gradientUnits="userSpaceOnUse"
     x1="302.85715"
     x2="302.85715"
     y1="366.64789"
     y2="609.50507">
    <stop
       offset="0"
       stop-opacity="0"
       id="stop1300" />
    <stop
       offset=".5"
       id="stop1302" />
    <stop
       offset="1"
       stop-opacity="0"
       id="stop1304" />
  </linearGradient>
  <linearGradient
     id="k"
     gradientTransform="matrix(.53064141 0 0 .58970049 39.269607 -1.791918)"
     gradientUnits="userSpaceOnUse"
     x1="-51.786404"
     x2="-51.786404"
     y1="50.786446"
     y2="2.906247">
    <stop
       offset="0"
       stop-opacity=".317829"
       id="stop1307" />
    <stop
       offset="1"
       stop-opacity=".24031"
       id="stop1309" />
  </linearGradient>
  <g
     id="g1941">
    <path
       id="path1316"
       d="m5 1c5.041316 0 21.999973.00179 21.999973.00179l.000027 27.99821s-14.666666 0-22 0c0-9.333333 0-18.666664 0-27.9999959z"
       fill="url(#g)" />
    <path
       id="path1318"
       d="m26.5 28.5h-21v-27h21z"
       stroke-linejoin="round"
       stroke-linecap="round"
       stroke="url(#f)"
       fill="none" />
    <path
       id="path1320"
       d="m4.499961.499944c5.27048 0 23.000054.002 23.000054.002l.000024 28.998112s-15.333385 0-23.000078 0c0-9.666722 0-19.333346 0-28.999956z"
       stroke-linejoin="round"
       stroke-width=".999922"
       stroke="url(#k)"
       fill="none" />
    <g
       id="g1932">
      <path
         d="m4.949989 29h22.100021v2h-22.100021z"
         id="path1312"
         fill="url(#j)"
         opacity=".15" />
      <path
         d="m4.9499887 29.000086v1.99989c-.806615.0038-1.950002-.448074-1.950002-1.000074s.900121-.999816 1.950002-.999816z"
         id="path1314"
         fill="url(#i)"
         opacity=".15" />
      <path
         d="m27.050011 29.000086v1.99989c.806614.0038 1.950002-.448074 1.950002-1.000074s-.900122-.999816-1.950002-.999816z"
         id="path1322"
         fill="url(#h)"
         opacity=".15" />
    </g>
  </g>
  <g
     id="g1949">
    <path
       id="path1324"
       opacity=".2"
       fill="url(#a)"
       d="m32.517262 29.816046c0 1.149816-4.261024 2.081925-9.517262 2.081925-5.256239 0-9.517262-.932109-9.517262-2.081925 0-1.149815 4.261023-2.081924 9.517262-2.081924 5.256238 0 9.517262.932109 9.517262 2.081924z" />
    <path
       id="path1326"
       fill="url(#c)"
       d="m22 14.5c-.554 0-1 .446-1 1v1.886719a5.9661016 5.9661016 0 0 0 -.556641.228515l-1.332031-1.332031c-.391737-.391737-1.022325-.391737-1.414062 0l-1.414063 1.414063c-.391737.391737-.391737 1.022325 0 1.414062l1.333985 1.333984a5.9661016 5.9661016 0 0 0 -.230469.554688h-1.886719c-.554 0-1 .446-1 1v2c0 .554.446 1 1 1h1.886719a5.9661016 5.9661016 0 0 0 .228515.556641l-1.332031 1.332031c-.391737.391737-.391737 1.022325 0 1.414062l1.414063 1.414063c.391737.391737 1.022325.391737 1.414062 0l1.333984-1.333985a5.9661016 5.9661016 0 0 0 .554688.230469v1.886719c0 .554.446 1 1 1h2c.554 0 1-.446 1-1v-1.886719a5.9661016 5.9661016 0 0 0 .556641-.228515l1.332031 1.332031c.391737.391737 1.022325.391737 1.414062 0l1.414063-1.414063c.391737-.391737.391737-1.022325 0-1.414062l-1.333985-1.333984a5.9661016 5.9661016 0 0 0 .230469-.554688h1.886719c.554 0 1-.446 1-1v-2c0-.554-.446-1-1-1h-1.886719a5.9661016 5.9661016 0 0 0 -.228515-.556641l1.332031-1.332031c.391737-.391737.391737-1.022325 0-1.414062l-1.414063-1.414063c-.391737-.391737-1.022325-.391737-1.414062 0l-1.333984 1.333985a5.9661016 5.9661016 0 0 0 -.554688-.230469v-1.886719c0-.554-.446-1-1-1zm1 6.503906a1.9954157 1.9954157 0 0 1 1.996094 1.996094 1.9954157 1.9954157 0 0 1 -1.996094 1.996094 1.9954157 1.9954157 0 0 1 -1.996094-1.996094 1.9954157 1.9954157 0 0 1 1.996094-1.996094z" />
    <g
       id="g1334"
       stroke-linejoin="round"
       stroke-linecap="square"
       fill="none">
      <path
         id="path1328"
         stroke="#000"
         opacity=".3"
         d="m22 14.5c-.554 0-1 .446-1 1v1.886719a5.9661016 5.9661016 0 0 0 -.556641.228515l-1.332031-1.332031c-.391737-.391737-1.022325-.391737-1.414062 0l-1.414063 1.414063c-.391737.391737-.391737 1.022325 0 1.414062l1.333985 1.333984a5.9661016 5.9661016 0 0 0 -.230469.554688h-1.886719c-.554 0-1 .446-1 1v2c0 .554.446 1 1 1h1.886719a5.9661016 5.9661016 0 0 0 .228515.556641l-1.332031 1.332031c-.391737.391737-.391737 1.022325 0 1.414062l1.414063 1.414063c.391737.391737 1.022325.391737 1.414062 0l1.333984-1.333985a5.9661016 5.9661016 0 0 0 .554688.230469v1.886719c0 .554.446 1 1 1h2c.554 0 1-.446 1-1v-1.886719a5.9661016 5.9661016 0 0 0 .556641-.228515l1.332031 1.332031c.391737.391737 1.022325.391737 1.414062 0l1.414063-1.414063c.391737-.391737.391737-1.022325 0-1.414062l-1.333985-1.333984a5.9661016 5.9661016 0 0 0 .230469-.554688h1.886719c.554 0 1-.446 1-1v-2c0-.554-.446-1-1-1h-1.886719a5.9661016 5.9661016 0 0 0 -.228515-.556641l1.332031-1.332031c.391737-.391737.391737-1.022325 0-1.414062l-1.414063-1.414063c-.391737-.391737-1.022325-.391737-1.414062 0l-1.333984 1.333985a5.9661016 5.9661016 0 0 0 -.554688-.230469v-1.886719c0-.554-.446-1-1-1zm1 6.503906a1.9954157 1.9954157 0 0 1 1.996094 1.996094 1.9954157 1.9954157 0 0 1 -1.996094 1.996094 1.9954157 1.9954157 0 0 1 -1.996094-1.996094 1.9954157 1.9954157 0 0 1 1.996094-1.996094z" />
      <circle
         id="circle1330"
         stroke="url(#d)"
         r="3.998385"
         cy="23"
         cx="23" />
      <path
         id="path1332"
         stroke="url(#e)"
         d="m22 15.5v1.886719a.99989607.99989607 0 0 1 -.667969.943359c-.157521.05556-.311767.118308-.46289.189453a.99989607.99989607 0 0 1 -1.132813-.197265l-1.332031-1.332032-1.414063 1.414063 1.333985 1.333984a.99989607.99989607 0 0 1 .195312 1.136719c-.07165.150561-.135262.303936-.191406.460938a.99989607.99989607 0 0 1 -.941406.664062h-1.886719v2h1.886719a.99989607.99989607 0 0 1 .943359.667969c.05556.157521.118308.311767.189453.46289a.99989607.99989607 0 0 1 -.197265 1.132813l-1.332032 1.332031 1.414063 1.414063 1.333984-1.333985a.99989607.99989607 0 0 1 1.136719-.195312c.150561.07165.303936.135262.460938.191406a.99989607.99989607 0 0 1 .664062.941406v1.886719h2v-1.886719a.99989607.99989607 0 0 1 .667969-.943359c.157521-.05556.311767-.118308.46289-.189453a.99989607.99989607 0 0 1 1.132813.197265l1.332031 1.332032 1.414063-1.414063-1.333985-1.333984a.99989607.99989607 0 0 1 -.195312-1.136719c.07165-.150561.135262-.303936.191406-.460938a.99989607.99989607 0 0 1 .941406-.664062h1.886719v-2h-1.886719a.99989607.99989607 0 0 1 -.943359-.667969c-.05556-.157521-.118308-.311767-.189453-.46289a.99989607.99989607 0 0 1 .197265-1.132813l1.332032-1.332031-1.414063-1.414063-1.333984 1.333985a.99989607.99989607 0 0 1 -1.136719.195312c-.150561-.07165-.303936-.135262-.460938-.191406a.99989607.99989607 0 0 1 -.664062-.941406v-1.886719zm1 6.503906c-.588024.0002.772067.134102.195312.01953-.576754-.114571.728849.281575.185547.05664-.543301-.224934.66278.418444.173829.0918-.488952-.326647.566186.538842.15039.123047-.415795-.415796.449694.639342.123047.15039-.326647-.488951.316731.71713.0918.173829-.224935-.543302.171211.762301.05664.185547-.11457-.576755.01933.783336.01953.195312-.0002-.588024-.134102.772067-.01953.195312.114571-.576754-.281575.728849-.05664.185547.224934-.543301-.418444.66278-.0918.173829.326647-.488952-.538842.566186-.123047.15039.415796-.415795-.639342.449694-.15039.123047.488951-.326647-.71713.316731-.173829.0918.543302-.224935-.762301.171211-.185547.05664.576755-.11457-.783336.01933-.195312.01953.588024-.0002-.772067-.134102-.195312-.01953.576754.114571-.728849-.281575-.185547-.05664.543301.224934-.66278-.418444-.173829-.0918.488952.326647-.566186-.538842-.15039-.123047.415795.415796-.449694-.639342-.123047-.15039.326647.488951-.316731-.71713-.0918-.173829.224935.543302-.171211-.762301-.05664-.185547.11457.576755-.01933-.783336-.01953-.195312.0002.588024.134102-.772067.01953-.195312-.114571.576754.281575-.728849.05664-.185547-.224934.543301.418444-.66278.0918-.173829-.326647.488952.538842-.566186.123047-.15039-.415796.415795.639342-.449694.15039-.123047-.488951.326647.71713-.316731.173829-.0918-.543302.224935.762301-.171211.185547-.05664-.576755.11457.783336-.01933.195312-.01953z" />
    </g>
  </g>
</svg>
