<?xml version="1.0" encoding="UTF-8" standalone="no"?>
<svg
   xmlns:dc="http://purl.org/dc/elements/1.1/"
   xmlns:cc="http://creativecommons.org/ns#"
   xmlns:rdf="http://www.w3.org/1999/02/22-rdf-syntax-ns#"
   xmlns:svg="http://www.w3.org/2000/svg"
   xmlns="http://www.w3.org/2000/svg"
   xmlns:xlink="http://www.w3.org/1999/xlink"
   xmlns:sodipodi="http://sodipodi.sourceforge.net/DTD/sodipodi-0.dtd"
   xmlns:inkscape="http://www.inkscape.org/namespaces/inkscape"
   height="32"
   width="32"
   version="1.1"
   id="svg1221"
   sodipodi:docname="pagedialog.svg"
   inkscape:version="0.92.3 (unknown)">
  <metadata
     id="metadata1227">
    <rdf:RDF>
      <cc:Work
         rdf:about="">
        <dc:format>image/svg+xml</dc:format>
        <dc:type
           rdf:resource="http://purl.org/dc/dcmitype/StillImage" />
      </cc:Work>
    </rdf:RDF>
  </metadata>
  <defs
     id="defs1225" />
  <sodipodi:namedview
     pagecolor="#ffffff"
     bordercolor="#666666"
     borderopacity="1"
     objecttolerance="10"
     gridtolerance="10"
     guidetolerance="10"
     inkscape:pageopacity="0"
     inkscape:pageshadow="2"
     inkscape:window-width="1366"
     inkscape:window-height="706"
     id="namedview1223"
     showgrid="false"
     inkscape:zoom="14.75"
     inkscape:cx="23.318209"
     inkscape:cy="3.6947441"
     inkscape:window-x="0"
     inkscape:window-y="0"
     inkscape:window-maximized="1"
     inkscape:current-layer="svg1221" />
  <radialGradient
     id="a"
     cx="6.702713"
     cy="73.615715"
     gradientTransform="matrix(1.3166457 0 0 .28801944 14.174902 8.61329)"
     gradientUnits="userSpaceOnUse"
     r="7.228416"
     xlink:href="#b" />
  <linearGradient
     id="b">
    <stop
       offset="0"
       id="stop1149" />
    <stop
       offset="1"
       stop-opacity="0"
       id="stop1151" />
  </linearGradient>
  <linearGradient
     id="c"
     gradientUnits="userSpaceOnUse"
     x1="22.881355"
     x2="22.644068"
     y1="14.457627"
     y2="31.338984">
    <stop
       offset="0"
       stop-color="#f6f6f6"
       id="stop1154" />
    <stop
       offset="1"
       stop-color="#d2d2d2"
       id="stop1156" />
  </linearGradient>
  <linearGradient
     id="d"
     gradientUnits="userSpaceOnUse"
     x1="23.031893"
     x2="23.040016"
     y1="26.715307"
     y2="18.997057">
    <stop
       offset="0"
       stop-color="#fff"
       id="stop1159" />
    <stop
       offset="1"
       stop-color="#959595"
       id="stop1161" />
  </linearGradient>
  <linearGradient
     id="e"
     gradientUnits="userSpaceOnUse"
     x1="23.131727"
     x2="23.398602"
     y1="16.459263"
     y2="30.159456">
    <stop
       offset="0"
       stop-color="#fff"
       id="stop1164" />
    <stop
       offset="1"
       stop-color="#fff"
       stop-opacity="0"
       id="stop1166" />
  </linearGradient>
  <linearGradient
     id="f"
     gradientTransform="matrix(.56756757 0 0 .72972971 2.378382 -2.513506)"
     gradientUnits="userSpaceOnUse"
     x1="23.99999"
     x2="23.99999"
     y1="5.56415"
     y2="43">
    <stop
       offset="0"
       stop-color="#fff"
       id="stop1169" />
    <stop
       offset=".03626217"
       stop-color="#fff"
       stop-opacity=".235294"
       id="stop1171" />
    <stop
       offset=".95056331"
       stop-color="#fff"
       stop-opacity=".156863"
       id="stop1173" />
    <stop
       offset="1"
       stop-color="#fff"
       stop-opacity=".392157"
       id="stop1175" />
  </linearGradient>
  <linearGradient
     id="g"
     gradientTransform="matrix(.62856997 0 0 .60839392 .91432 -.534791)"
     gradientUnits="userSpaceOnUse"
     x1="25.132275"
     x2="25.132275"
     y1=".985206"
     y2="47.013336">
    <stop
       offset="0"
       stop-color="#f4f4f4"
       id="stop1178" />
    <stop
       offset="1"
       stop-color="#dbdbdb"
       id="stop1180" />
  </linearGradient>
  <radialGradient
     id="h"
     cx="605.71429"
     cy="486.64789"
     gradientTransform="matrix(.01566318 0 0 .00823529 17.610433 25.980565)"
     gradientUnits="userSpaceOnUse"
     r="117.14286"
     xlink:href="#b" />
  <radialGradient
     id="i"
     cx="605.71429"
     cy="486.64789"
     gradientTransform="matrix(-.01566318 0 0 .00823529 14.389566 25.980565)"
     gradientUnits="userSpaceOnUse"
     r="117.14286"
     xlink:href="#b" />
  <linearGradient
     id="j"
     gradientTransform="matrix(.04576928 0 0 .00823529 -.542324 25.980548)"
     gradientUnits="userSpaceOnUse"
     x1="302.85715"
     x2="302.85715"
     y1="366.64789"
     y2="609.50507">
    <stop
       offset="0"
       stop-opacity="0"
       id="stop1185" />
    <stop
       offset=".5"
       id="stop1187" />
    <stop
       offset="1"
       stop-opacity="0"
       id="stop1189" />
  </linearGradient>
  <linearGradient
     id="k"
     gradientTransform="matrix(.53064141 0 0 .58970049 39.269607 -1.791918)"
     gradientUnits="userSpaceOnUse"
     x1="-51.786404"
     x2="-51.786404"
     y1="50.786446"
     y2="2.906247">
    <stop
       offset="0"
       stop-opacity=".317829"
       id="stop1192" />
    <stop
       offset="1"
       stop-opacity=".24031"
       id="stop1194" />
  </linearGradient>
  <g
     id="g1235">
    <path
       id="path1203"
       opacity=".15"
       fill="url(#j)"
       d="m4.949989 29h22.100021v2h-22.100021z" />
    <path
       id="path1205"
       opacity=".15"
       fill="url(#i)"
       d="m4.9499887 29.000086v1.99989c-.806615.0038-1.950002-.448074-1.950002-1.000074s.900121-.999816 1.950002-.999816z" />
    <path
       id="path1207"
       opacity=".15"
       fill="url(#h)"
       d="m27.050011 29.000086v1.99989c.806614.0038 1.950002-.448074 1.950002-1.000074s-.900122-.999816-1.950002-.999816z" />
  </g>
  <path
     d="m5 1c5.041316 0 21.999973.00179 21.999973.00179l.000027 27.99821s-14.666666 0-22 0c0-9.333333 0-18.666664 0-27.9999959z"
     fill="url(#g)"
     id="path1197" />
  <path
     d="m26.5 28.5h-21v-27h21z"
     fill="none"
     stroke="url(#f)"
     stroke-linecap="round"
     stroke-linejoin="round"
     id="path1199" />
  <path
     d="m4.499961.499944c5.27048 0 23.000054.002 23.000054.002l.000024 28.998112s-15.333385 0-23.000078 0c0-9.666722 0-19.333346 0-28.999956z"
     fill="none"
     stroke="url(#k)"
     stroke-linejoin="round"
     stroke-width=".999922"
     id="path1201" />
  <g
     id="g1242">
    <path
       id="path1209"
       opacity=".2"
       fill="url(#a)"
       d="m32.517262 29.816046c0 1.149816-4.261024 2.081925-9.517262 2.081925-5.256239 0-9.517262-.932109-9.517262-2.081925 0-1.149815 4.261023-2.081924 9.517262-2.081924 5.256238 0 9.517262.932109 9.517262 2.081924z" />
    <path
       id="path1211"
       fill="url(#c)"
       d="m22 14.5c-.554 0-1 .446-1 1v1.886719a5.9661016 5.9661016 0 0 0 -.556641.228515l-1.332031-1.332031c-.391737-.391737-1.022325-.391737-1.414062 0l-1.414063 1.414063c-.391737.391737-.391737 1.022325 0 1.414062l1.333985 1.333984a5.9661016 5.9661016 0 0 0 -.230469.554688h-1.886719c-.554 0-1 .446-1 1v2c0 .554.446 1 1 1h1.886719a5.9661016 5.9661016 0 0 0 .228515.556641l-1.332031 1.332031c-.391737.391737-.391737 1.022325 0 1.414062l1.414063 1.414063c.391737.391737 1.022325.391737 1.414062 0l1.333984-1.333985a5.9661016 5.9661016 0 0 0 .554688.230469v1.886719c0 .554.446 1 1 1h2c.554 0 1-.446 1-1v-1.886719a5.9661016 5.9661016 0 0 0 .556641-.228515l1.332031 1.332031c.391737.391737 1.022325.391737 1.414062 0l1.414063-1.414063c.391737-.391737.391737-1.022325 0-1.414062l-1.333985-1.333984a5.9661016 5.9661016 0 0 0 .230469-.554688h1.886719c.554 0 1-.446 1-1v-2c0-.554-.446-1-1-1h-1.886719a5.9661016 5.9661016 0 0 0 -.228515-.556641l1.332031-1.332031c.391737-.391737.391737-1.022325 0-1.414062l-1.414063-1.414063c-.391737-.391737-1.022325-.391737-1.414062 0l-1.333984 1.333985a5.9661016 5.9661016 0 0 0 -.554688-.230469v-1.886719c0-.554-.446-1-1-1zm1 6.503906a1.9954157 1.9954157 0 0 1 1.996094 1.996094 1.9954157 1.9954157 0 0 1 -1.996094 1.996094 1.9954157 1.9954157 0 0 1 -1.996094-1.996094 1.9954157 1.9954157 0 0 1 1.996094-1.996094z" />
    <path
       d="m 22,14.5 c -0.554,0 -1,0.446 -1,1 v 1.886719 a 5.9661016,5.9661016 0 0 0 -0.556641,0.228515 l -1.332031,-1.332031 c -0.391737,-0.391737 -1.022325,-0.391737 -1.414062,0 l -1.414063,1.414063 c -0.391737,0.391737 -0.391737,1.022325 0,1.414062 l 1.333985,1.333984 A 5.9661016,5.9661016 0 0 0 17.386719,21 H 15.5 c -0.554,0 -1,0.446 -1,1 v 2 c 0,0.554 0.446,1 1,1 h 1.886719 a 5.9661016,5.9661016 0 0 0 0.228515,0.556641 l -1.332031,1.332031 c -0.391737,0.391737 -0.391737,1.022325 0,1.414062 l 1.414063,1.414063 c 0.391737,0.391737 1.022325,0.391737 1.414062,0 l 1.333984,-1.333985 A 5.9661016,5.9661016 0 0 0 21,28.613281 V 30.5 c 0,0.554 0.446,1 1,1 h 2 c 0.554,0 1,-0.446 1,-1 v -1.886719 a 5.9661016,5.9661016 0 0 0 0.556641,-0.228515 l 1.332031,1.332031 c 0.391737,0.391737 1.022325,0.391737 1.414062,0 l 1.414063,-1.414063 c 0.391737,-0.391737 0.391737,-1.022325 0,-1.414062 L 28.382812,25.554688 A 5.9661016,5.9661016 0 0 0 28.613281,25 H 30.5 c 0.554,0 1,-0.446 1,-1 v -2 c 0,-0.554 -0.446,-1 -1,-1 h -1.886719 a 5.9661016,5.9661016 0 0 0 -0.228515,-0.556641 l 1.332031,-1.332031 c 0.391737,-0.391737 0.391737,-1.022325 0,-1.414062 l -1.414063,-1.414063 c -0.391737,-0.391737 -1.022325,-0.391737 -1.414062,0 l -1.333984,1.333985 A 5.9661016,5.9661016 0 0 0 25,17.386719 V 15.5 c 0,-0.554 -0.446,-1 -1,-1 z m 1,6.503906 A 1.9954157,1.9954157 0 0 1 24.996094,23 1.9954157,1.9954157 0 0 1 23,24.996094 1.9954157,1.9954157 0 0 1 21.003906,23 1.9954157,1.9954157 0 0 1 23,21.003906 Z"
       id="path1213"
       inkscape:connector-curvature="0"
       style="opacity:0.3;fill:none;stroke:#000000;stroke-linecap:square;stroke-linejoin:round" />
    <circle
       cx="23"
       cy="23"
       r="3.998385"
       id="circle1215"
       style="fill:none;stroke:url(#d);stroke-linecap:square;stroke-linejoin:round" />
    <path
       d="m 22,15.5 v 1.886719 a 0.99989607,0.99989607 0 0 1 -0.667969,0.943359 c -0.157521,0.05556 -0.311767,0.118308 -0.46289,0.189453 a 0.99989607,0.99989607 0 0 1 -1.132813,-0.197265 l -1.332031,-1.332032 -1.414063,1.414063 1.333985,1.333984 A 0.99989607,0.99989607 0 0 1 18.519531,20.875 c -0.07165,0.150561 -0.135262,0.303936 -0.191406,0.460938 A 0.99989607,0.99989607 0 0 1 17.386719,22 H 15.5 v 2 h 1.886719 a 0.99989607,0.99989607 0 0 1 0.943359,0.667969 c 0.05556,0.157521 0.118308,0.311767 0.189453,0.46289 a 0.99989607,0.99989607 0 0 1 -0.197265,1.132813 l -1.332032,1.332031 1.414063,1.414063 1.333984,-1.333985 A 0.99989607,0.99989607 0 0 1 20.875,27.480469 c 0.150561,0.07165 0.303936,0.135262 0.460938,0.191406 A 0.99989607,0.99989607 0 0 1 22,28.613281 V 30.5 h 2 v -1.886719 a 0.99989607,0.99989607 0 0 1 0.667969,-0.943359 c 0.157521,-0.05556 0.311767,-0.118308 0.46289,-0.189453 a 0.99989607,0.99989607 0 0 1 1.132813,0.197265 l 1.332031,1.332032 1.414063,-1.414063 -1.333985,-1.333984 A 0.99989607,0.99989607 0 0 1 27.480469,25.125 c 0.07165,-0.150561 0.135262,-0.303936 0.191406,-0.460938 A 0.99989607,0.99989607 0 0 1 28.613281,24 H 30.5 v -2 h -1.886719 a 0.99989607,0.99989607 0 0 1 -0.943359,-0.667969 c -0.05556,-0.157521 -0.118308,-0.311767 -0.189453,-0.46289 a 0.99989607,0.99989607 0 0 1 0.197265,-1.132813 l 1.332032,-1.332031 -1.414063,-1.414063 -1.333984,1.333985 A 0.99989607,0.99989607 0 0 1 25.125,18.519531 c -0.150561,-0.07165 -0.303936,-0.135262 -0.460938,-0.191406 A 0.99989607,0.99989607 0 0 1 24,17.386719 V 15.5 Z m 1,6.503906 c -0.588024,2e-4 0.772067,0.134102 0.195312,0.01953 -0.576754,-0.114571 0.728849,0.281575 0.185547,0.05664 -0.543301,-0.224934 0.66278,0.418444 0.173829,0.0918 -0.488952,-0.326647 0.566186,0.538842 0.15039,0.123047 -0.415795,-0.415796 0.449694,0.639342 0.123047,0.15039 -0.326647,-0.488951 0.316731,0.71713 0.0918,0.173829 -0.224935,-0.543302 0.171211,0.762301 0.05664,0.185547 -0.11457,-0.576755 0.01933,0.783336 0.01953,0.195312 -2e-4,-0.588024 -0.134102,0.772067 -0.01953,0.195312 0.114571,-0.576754 -0.281575,0.728849 -0.05664,0.185547 0.224934,-0.543301 -0.418444,0.66278 -0.0918,0.173829 0.326647,-0.488952 -0.538842,0.566186 -0.123047,0.15039 0.415796,-0.415795 -0.639342,0.449694 -0.15039,0.123047 0.488951,-0.326647 -0.71713,0.316731 -0.173829,0.0918 0.543302,-0.224935 -0.762301,0.171211 -0.185547,0.05664 0.576755,-0.11457 -0.783336,0.01933 -0.195312,0.01953 0.588024,-2e-4 -0.772067,-0.134102 -0.195312,-0.01953 0.576754,0.114571 -0.728849,-0.281575 -0.185547,-0.05664 0.543301,0.224934 -0.66278,-0.418444 -0.173829,-0.0918 0.488952,0.326647 -0.566186,-0.538842 -0.15039,-0.123047 0.415795,0.415796 -0.449694,-0.639342 -0.123047,-0.15039 0.326647,0.488951 -0.316731,-0.71713 -0.0918,-0.173829 0.224935,0.543302 -0.171211,-0.762301 -0.05664,-0.185547 0.11457,0.576755 -0.01933,-0.783336 -0.01953,-0.195312 2e-4,0.588024 0.134102,-0.772067 0.01953,-0.195312 -0.114571,0.576754 0.281575,-0.728849 0.05664,-0.185547 -0.224934,0.543301 0.418444,-0.66278 0.0918,-0.173829 -0.326647,0.488952 0.538842,-0.566186 0.123047,-0.15039 -0.415796,0.415795 0.639342,-0.449694 0.15039,-0.123047 -0.488951,0.326647 0.71713,-0.316731 0.173829,-0.0918 -0.543302,0.224935 0.762301,-0.171211 0.185547,-0.05664 -0.576755,0.11457 0.783336,-0.01933 0.195312,-0.01953 z"
       id="path1217"
       style="fill:none;stroke:url(#e);stroke-linecap:square;stroke-linejoin:round"
       inkscape:connector-curvature="0" />
  </g>
</svg>
