<svg height="32" width="32" xmlns="http://www.w3.org/2000/svg" xmlns:xlink="http://www.w3.org/1999/xlink"><linearGradient id="a"><stop offset="0" stop-color="#fff"/><stop offset="1" stop-color="#fff" stop-opacity="0"/></linearGradient><linearGradient id="b" gradientTransform="matrix(.3841 0 0 .3638 15.74 15.092)" gradientUnits="userSpaceOnUse" x1="34.404" x2="13.759" xlink:href="#a" y1="14.66" y2="46.874"/><clipPath id="c"><path d="m27.728 6.958c-.204.053-.394.17-.535.336-.282.334-.33.814-.107 1.2l2.648 4.75c.093.167.075.458-.242.92-.32.468-.9.99-1.658 1.402-.762.414-1.514.63-2.082.648-.57.02-.847-.13-.94-.297l-2.668-4.78c-.165-.295-.468-.492-.797-.53-.328-.04-.666.078-.898.334-.117.126-.208.283-.25.464a.58.58 0 0 0 0 .003c-.546 2.35-.31 4.998.762 6.914 1.422 2.544 4.333 3.748 7.196 3.332 1.008.348 2.378 1.105 4.045 2.76l1.277 1.267a.58.58 0 0 0 .408.167h4.946a.58.58 0 0 0 .58-.58v-3.238a.58.58 0 0 0 -.172-.412l-2.12-2.103c-1.492-1.482-2.25-2.72-2.648-3.682.316-1.513.17-3.117-.63-4.545-1.07-1.916-3.206-3.5-5.497-4.297-.198-.07-.414-.084-.62-.032z"/></clipPath><radialGradient id="d" cx="605.714" cy="486.648" gradientTransform="matrix(.02304 0 0 .0147 26.36 21.04)" gradientUnits="userSpaceOnUse" r="117.143" xlink:href="#e"/><linearGradient id="e"><stop offset="0"/><stop offset="1" stop-opacity="0"/></linearGradient><linearGradient id="f" gradientUnits="userSpaceOnUse" x1="39.706" x2="41.641" y1="28.005" y2="31.442"><stop offset="0" stop-color="#d4d4d4"/><stop offset="1" stop-color="#d4d4d4" stop-opacity="0"/></linearGradient><linearGradient id="g" gradientUnits="userSpaceOnUse" x1="38.833" x2="40.777" y1="28.152" y2="31.46"><stop offset="0" stop-color="#555761"/><stop offset="1" stop-color="#555761" stop-opacity="0"/></linearGradient><linearGradient id="h" gradientTransform="matrix(1.18112 0 0 1.18045 -332.458 -53.518)" gradientUnits="userSpaceOnUse" x1="302.292" x2="308.649" y1="58.443" y2="60.768"><stop offset="0" stop-color="#abacae"/><stop offset="1" stop-color="#fafafa"/></linearGradient><linearGradient id="i" gradientUnits="userSpaceOnUse" x1="37.789" x2="40.78" xlink:href="#a" y1="27.895" y2="32.102"/><linearGradient id="j" gradientTransform="matrix(.56757 0 0 .72973 2.378 -2.514)" gradientUnits="userSpaceOnUse" x1="9.905" x2="44.262" y1="21.331" y2="21.954"><stop offset="0" stop-color="#fff"/><stop offset=".174" stop-color="#fff" stop-opacity=".235"/><stop offset=".951" stop-color="#fff" stop-opacity=".157"/><stop offset="1" stop-color="#fff" stop-opacity=".392"/></linearGradient><linearGradient id="k" gradientTransform="matrix(.62857 0 0 .6084 .914 -.535)" gradientUnits="userSpaceOnUse" x1="3.318" x2="39.909" y1="30.465" y2="30.465"><stop offset="0" stop-color="#f4f4f4"/><stop offset="1" stop-color="#dbdbdb"/></linearGradient><radialGradient id="l" cx="605.714" cy="486.648" gradientTransform="matrix(.019 0 0 .02024 18.043 18.08)" gradientUnits="userSpaceOnUse" r="117.143" xlink:href="#e"/><radialGradient id="m" cx="605.714" cy="486.648" gradientTransform="matrix(-.019 0 0 .02024 14.134 18.08)" gradientUnits="userSpaceOnUse" r="117.143" xlink:href="#e"/><linearGradient id="n" gradientTransform="matrix(.05555 0 0 .02024 -3.988 18.08)" gradientUnits="userSpaceOnUse" x1="302.857" x2="302.857" y1="366.648" y2="609.505"><stop offset="0" stop-opacity="0"/><stop offset=".5"/><stop offset="1" stop-opacity="0"/></linearGradient><linearGradient id="o" gradientTransform="matrix(.53064 0 0 .5897 39.27 -1.792)" gradientUnits="userSpaceOnUse" x1="-51.786" x2="-51.786" y1="50.786" y2="2.906"><stop offset="0" stop-opacity=".318"/><stop offset="1" stop-opacity=".24"/></linearGradient><path d="m2.678 25.5h26.822v4.915h-26.822z" fill="url(#n)" opacity=".15"/><path d="m2.678 25.5v4.915c-.98.01-2.367-1.1-2.367-2.458s1.093-2.457 2.369-2.457z" fill="url(#m)" opacity=".15"/><path d="m29.5 25.5v4.915c.98.01 2.367-1.1 2.367-2.458s-1.093-2.457-2.367-2.457z" fill="url(#l)" opacity=".15"/><path d="m5 1 22 .002v27.998h-22z" fill="url(#k)" transform="matrix(0 1 -1 0 31 -1)"/><g fill="none" stroke-linejoin="round"><path d="m26.5 28.5h-21v-27h21z" stroke="url(#j)" stroke-linecap="round" transform="matrix(0 1 -1 0 31 -1)"/><path d="m4.5.5 23 .002v28.998h-23z" stroke="url(#o)" transform="matrix(0 1 -1 0 31 -1)"/></g><path d="m17.5 31.5v-15l13.5 7.5z" fill="#9cde4a" fill-rule="evenodd" stroke="#5ca12a" stroke-linecap="round" stroke-linejoin="round"/><path d="m18.466 29.85v-11.666l10.284 5.816z" fill="none" opacity=".41" stroke="url(#b)" stroke-linecap="round"/><g clip-path="url(#c)" transform="matrix(-1 0 0 1 39.414 6.733)"><path d="m40.246 26.43v3.57c1.187.007 2.87-.8 2.87-1.785 0-.986-1.326-1.785-2.87-1.785z" fill="url(#d)" opacity=".3"/><path d="m20.876 11.33c-.054.06-.094.13-.112.207-.514 2.214-.27 4.757.703 6.5 1.332 2.38 4.104 3.517 6.82 3.037 1.11.373 2.58 1.194 4.325 2.926l21.775 21.617 4.102-4.073-21.776-21.617c-1.572-1.56-2.398-2.9-2.82-3.956.367-1.46.217-3.02-.554-4.4-.975-1.742-3.02-3.282-5.186-4.034-.186-.068-.39-.016-.518.134-.126.15-.148.364-.05.534l2.654 4.755c.238.425.114.973-.27 1.534-.388.566-1.033 1.13-1.858 1.58-.826.45-1.65.697-2.34.72-.687.024-1.226-.166-1.465-.594l-2.67-4.78c-.074-.134-.204-.22-.356-.238-.15-.018-.303.037-.404.15z" style="fill-rule:evenodd;stroke-linecap:round;stroke-linejoin:round;stroke-dashoffset:.361;stroke-opacity:.5;fill:url(#f);stroke:url(#g)"/><path d="m28.005 7.94c.022.007.008.036 0 .036l2.657 4.758c.36.64.1 1.4-.332 2.03-.436.636-1.113 1.253-1.993 1.733-.882.48-1.808.712-2.584.738-.774.026-1.5-.195-1.845-.812l-2.658-4.795c-.015-.003-.04.002-.037 0 .025-.026.005.02 0 .037-.49 2.11-.236 4.55.665 6.16 1.23 2.202 3.802 3.254 6.348 2.804 2.534-.455 4.7-2.66 5.24-4.76.343-1.36.197-2.82-.515-4.095-.897-1.605-2.872-3.117-4.945-3.836z" fill="url(#h)" fill-rule="evenodd"/><path d="m29.334 9.267 1.77 3.21c.505.9.16 1.866-.33 2.58-.496.724-1.23 1.367-2.18 1.883-.95.518-1.925.818-2.804.848-.88.03-1.852-.26-2.325-1.107l-1.846-3.32c-.08 1.557.098 3.13.7 4.207 1.11 1.986 3.454 2.96 5.795 2.545.172-.034.352-.02.517.037 1.27.426 2.857 1.317 4.688 3.135l21.777 21.617 2.694-2.656-21.775-21.616c-1.65-1.64-2.548-3.086-3.026-4.28-.072-.187-.085-.396-.037-.59.31-1.238.2-2.58-.442-3.727-.586-1.048-1.827-2.008-3.174-2.766z" fill="none" stroke="url(#i)" stroke-dashoffset=".361" stroke-linecap="round" stroke-linejoin="round"/></g></svg>