<svg height="32" width="32" xmlns="http://www.w3.org/2000/svg" xmlns:xlink="http://www.w3.org/1999/xlink"><radialGradient id="a" cx="38" cy="69" fx="28.603" gradientTransform="matrix(.66667 0 0 .2 -9.333 13.533)" gradientUnits="userSpaceOnUse" r="20" xlink:href="#b"/><linearGradient id="b"><stop offset="0"/><stop offset="1" stop-opacity="0"/></linearGradient><linearGradient id="c" gradientUnits="userSpaceOnUse" x1="17.33376" x2="16.00042" y1="10.66672" y2="5.33336"><stop offset="0" stop-color="#c17d11"/><stop offset="1" stop-color="#e9b96e"/></linearGradient><linearGradient id="d" gradientUnits="userSpaceOnUse" x1="18.88376775" x2="21.33378" y1="6.16069747" y2="12.00006"><stop offset="0" stop-color="#8f5902"/><stop offset="1" stop-color="#73521e"/></linearGradient><linearGradient id="e" gradientUnits="userSpaceOnUse" x1="17.33376" x2="20.96511149" y1="5.33336" y2="11.12405562"><stop offset="0" stop-color="#fff"/><stop offset="1" stop-color="#fff" stop-opacity=".134"/></linearGradient><linearGradient id="f" gradientUnits="userSpaceOnUse" x1="12.62306978" x2="18.80576736" y1="16.70741687" y2="20.49543581"><stop offset="0" stop-color="#fdef72"/><stop offset="1" stop-color="#e2cb0b"/></linearGradient><linearGradient id="g" gradientUnits="userSpaceOnUse" x1="13.5470744" x2="11.32439662" y1="27.97080652" y2="24.68612343"><stop offset="0" stop-color="#fff"/><stop offset="1" stop-color="#fff" stop-opacity=".694"/></linearGradient><linearGradient id="h" gradientUnits="userSpaceOnUse" x1="16.90375785" x2="14.32641163" y1="24.14545406" y2="23.15211576"><stop offset="0" stop-color="#c4a000"/><stop offset="1" stop-color="#c4a000" stop-opacity="0"/></linearGradient><linearGradient id="i" gradientTransform="matrix(.6512 0 0 .66667 -.916 0)" gradientUnits="userSpaceOnUse" x1="27.652" x2="21.591" y1="23.146" y2="20.619"><stop offset="0" stop-color="#919191"/><stop offset="1" stop-color="#cecece"/></linearGradient><linearGradient id="j" gradientTransform="matrix(.56757 0 0 .72973 2.378 -2.514)" gradientUnits="userSpaceOnUse" x1="9.905" x2="44.262" y1="21.331" y2="21.954"><stop offset="0" stop-color="#fff"/><stop offset=".174" stop-color="#fff" stop-opacity=".235"/><stop offset=".951" stop-color="#fff" stop-opacity=".157"/><stop offset="1" stop-color="#fff" stop-opacity=".392"/></linearGradient><linearGradient id="k" gradientTransform="matrix(.62857 0 0 .6084 .914 -.535)" gradientUnits="userSpaceOnUse" x1="3.318" x2="39.909" y1="30.465" y2="30.465"><stop offset="0" stop-color="#f4f4f4"/><stop offset="1" stop-color="#dbdbdb"/></linearGradient><radialGradient id="l" cx="605.714" cy="486.648" gradientTransform="matrix(.019 0 0 .02024 18.043 18.08)" gradientUnits="userSpaceOnUse" r="117.143" xlink:href="#b"/><radialGradient id="m" cx="605.714" cy="486.648" gradientTransform="matrix(-.019 0 0 .02024 14.134 18.08)" gradientUnits="userSpaceOnUse" r="117.143" xlink:href="#b"/><linearGradient id="n" gradientTransform="matrix(.05555 0 0 .02024 -3.988 18.08)" gradientUnits="userSpaceOnUse" x1="302.857" x2="302.857" y1="366.648" y2="609.505"><stop offset="0" stop-opacity="0"/><stop offset=".5"/><stop offset="1" stop-opacity="0"/></linearGradient><linearGradient id="o" gradientTransform="matrix(.53064 0 0 .5897 39.27 -1.792)" gradientUnits="userSpaceOnUse" x1="-51.786" x2="-51.786" y1="50.786" y2="2.906"><stop offset="0" stop-opacity=".318"/><stop offset="1" stop-opacity=".24"/></linearGradient><path d="m2.678 25.5h26.822v4.915h-26.822z" fill="url(#n)" opacity=".15"/><path d="m2.678 25.5v4.915c-.98.01-2.367-1.1-2.367-2.458s1.093-2.457 2.369-2.457z" fill="url(#m)" opacity=".15"/><path d="m29.5 25.5v4.915c.98.01 2.367-1.1 2.367-2.458s-1.093-2.457-2.367-2.457z" fill="url(#l)" opacity=".15"/><path d="m5 1 22 .002v27.998h-22z" fill="url(#k)" transform="matrix(0 1 -1 0 31 -1)"/><g fill="none" stroke-linejoin="round"><path d="m26.5 28.5h-21v-27h21z" stroke="url(#j)" stroke-linecap="round" transform="matrix(0 1 -1 0 31 -1)"/><path d="m4.5.5 23 .002v28.998h-23z" stroke="url(#o)" transform="matrix(0 1 -1 0 31 -1)"/></g><path d="m29.333 27.333a13.333 4 0 1 1 -26.666 0 13.333 4 0 1 1 26.666 0z" fill="url(#a)" opacity=".25" transform="matrix(.6856 0 0 .6856 14.104 10.936)"/><path d="m23.063 1.646c-5.47.07-6.265 10.832-7.834 12.77l2.666.96c1.755-2.916 10.505-12.606 5.709-13.711-.186-.02-.365-.022-.54-.02zm-.688 1.375c.13-.012.245.005.354.063.435.235.482.997.103 1.688-.378.692-1.043 1.07-1.48.834-.434-.235-.48-.996-.103-1.687.284-.52.738-.86 1.125-.896z" fill="url(#c)" fill-rule="evenodd" stroke="url(#d)" stroke-width="1.459" transform="matrix(.6856 0 0 .6856 14.104 10.936)"/><path d="m23.068 2.693c-1.027.014-1.757.48-2.504 1.383-.74.894-1.376 2.205-1.894 3.617-.52 1.415-.94 2.928-1.326 4.227-.223.75-.447 1.328-.69 1.89l.83.297c1.15-1.716 3.262-4.278 4.838-6.83.87-1.408 1.487-2.754 1.614-3.564.064-.412.007-.655-.038-.733-.054-.094-.14-.178-.498-.27-.112-.01-.218-.018-.332-.017z" fill="none" opacity=".267" stroke="url(#e)" stroke-width="1.459" transform="matrix(.6856 0 0 .6856 14.104 10.936)"/><path d="m13.667 11c.473 1.335-.36 2.492-.667 3.333-3.46 1.03-5.858 6.47-9.422 9.303.445.464.968.964 1.422 1.364l2.708-2.354-2.045 3.016c1.473 1.194 3.004 2.005 4.004 2.338l1.833-2.438-1.167 2.77c.968.394 3.324.99 4.667 1l1.336-2.267-.342 2.31c.553.106 1.625.25 2.34.27 2.239-3.665 2.666-9.645 1.332-12.311-.334-1.333 1-3 2-3.666-1.667-1.334-5.47-2.87-8-2.667z" fill="url(#f)" fill-rule="evenodd" transform="matrix(.6856 0 0 .6856 14.104 10.936)"/><path d="m23.474 18.478c.324.915-.248 1.708-.457 2.285-2.373.706-4.016 4.435-6.46 6.378.305.32.664.66.975.936l1.857-1.614-1.403 2.068c1.01.82 2.06 1.374 2.744 1.603l1.258-1.67-.8 1.898c.664.27 2.28.68 3.2.687l.916-1.555-.235 1.584c.38.072 1.114.17 1.603.185 1.537-2.513 1.83-6.612.914-8.44-.228-.914.686-2.057 1.372-2.514-1.144-.914-3.752-1.967-5.486-1.828z" fill="none" opacity=".5" stroke="#ad5f00" stroke-miterlimit="20" stroke-width="1.00029"/><path d="m18.218 28.533c2.2-2.29 2.04-3.293 4.623-5.27-1.362 2.208-1.583 3.356-3.25 6.184z" fill="#c4a000" fill-rule="evenodd" opacity=".267"/><path d="m21.486 30.225 1.986-4.497c.76-1.364 1.307-2.73 2.07-3.816-.732 2.477-2.235 5.54-3.442 8.513z" fill="#c4a000" fill-rule="evenodd" opacity=".416"/><path d="m14.744 12.064c-.074 1.222-.658 2.23-.8 2.622a.36.36 0 0 1 -.003 0c-.106.294-.346.524-.647.617l.03-.01c-1.722.706-2.95 2.073-4.206 3.68-.92 1.176-1.853 2.474-3.004 3.69l4.655-3.938a.36.36 0 0 1 .53.476l-4.187 6.247c.684.518 1.434.96 2.214 1.297l4.483-5.96a.36.36 0 0 1 .623.353l-2.688 6.547c.835.25 1.66.433 2.625.576l2.947-4.905a.36.36 0 0 1 .664.248l-.85 4.897.616.074c.845-1.59 1.293-3.54 1.545-5.515.274-2.155-.03-4.276-.528-5.273a.36.36 0 0 1 -.006-.014c-.025-.055-.048-.12-.065-.19v-.005c-.26-1.057.132-2.06.628-2.853.215-.344.48-.62.737-.905-.688-.418-1.48-.803-2.49-1.168-1.012-.365-1.987-.54-2.82-.588z" fill="none" opacity=".478" stroke="url(#g)" stroke-width="1.459" transform="matrix(.6856 0 0 .6856 14.104 10.936)"/><g fill-rule="evenodd"><path d="m12.646 28.667c1.452-3.835 4.264-6.713 5.344-10.624.035 2.44.167 6.803-1.26 11.145-.214 0-.117-.074-.314-.08l.534-3.816-2.188 3.703c-1.46-.104-.863.022-2.116-.328z" fill="url(#h)" opacity=".247" transform="matrix(.6856 0 0 .6856 14.104 10.936)"/><path d="m23.704 21.27c-.572.282-.943.7-1.364 1.08.56-.323 1.088-.66 1.828-.908zm.916.206-.464.91 1.362-.727zm-.03-2.33-.41.78.715.23zm3.19.879-1.124.84.716.228zm-1.786-.89-.692 1.154.715.23-.023-1.385z" fill="#c4a000" opacity=".482"/><path d="m22.774 21.003c-.26-1.356 4.265.984 5.044 1.368-.003.495 0 .916-.446.916-1.174-.637-2.987-1.648-4.598-2.283z" opacity=".2"/><path d="m12.433 14.333c-.325-.666 0-1.333.652-1.333 2.66.65 4.883 1.47 7.163 2.667.326.666 0 1.333-.65 1.333-2.357-1.243-4.58-2.05-7.165-2.667z" fill="url(#i)" stroke="#464646" stroke-linejoin="round" stroke-width="1.459" transform="matrix(.6856 0 0 .6856 14.104 10.936)"/></g></svg>