<svg height="32" width="32" xmlns="http://www.w3.org/2000/svg" xmlns:xlink="http://www.w3.org/1999/xlink"><linearGradient id="a" gradientTransform="matrix(.3841 0 0 .3638 15.74 15.092)" gradientUnits="userSpaceOnUse" x1="34.404" x2="13.759" y1="14.66" y2="46.874"><stop offset="0" stop-color="#fff"/><stop offset="1" stop-color="#fff" stop-opacity="0"/></linearGradient><linearGradient id="b"><stop offset="0"/><stop offset="1" stop-opacity="0"/></linearGradient><linearGradient id="c" gradientTransform="matrix(.56757 0 0 .72973 2.378 -2.514)" gradientUnits="userSpaceOnUse" x1="9.905" x2="44.262" y1="21.331" y2="21.954"><stop offset="0" stop-color="#fff"/><stop offset=".174" stop-color="#fff" stop-opacity=".235"/><stop offset=".951" stop-color="#fff" stop-opacity=".157"/><stop offset="1" stop-color="#fff" stop-opacity=".392"/></linearGradient><linearGradient id="d" gradientTransform="matrix(.62857 0 0 .6084 .914 -.535)" gradientUnits="userSpaceOnUse" x1="3.318" x2="39.909" y1="30.465" y2="30.465"><stop offset="0" stop-color="#f4f4f4"/><stop offset="1" stop-color="#dbdbdb"/></linearGradient><radialGradient id="e" cx="605.714" cy="486.648" gradientTransform="matrix(.019 0 0 .02024 18.043 18.08)" gradientUnits="userSpaceOnUse" r="117.143" xlink:href="#b"/><radialGradient id="f" cx="605.714" cy="486.648" gradientTransform="matrix(-.019 0 0 .02024 14.134 18.08)" gradientUnits="userSpaceOnUse" r="117.143" xlink:href="#b"/><linearGradient id="g" gradientTransform="matrix(.05555 0 0 .02024 -3.988 18.08)" gradientUnits="userSpaceOnUse" x1="302.857" x2="302.857" y1="366.648" y2="609.505"><stop offset="0" stop-opacity="0"/><stop offset=".5"/><stop offset="1" stop-opacity="0"/></linearGradient><linearGradient id="h" gradientTransform="matrix(.53064 0 0 .5897 39.27 -1.792)" gradientUnits="userSpaceOnUse" x1="-51.786" x2="-51.786" y1="50.786" y2="2.906"><stop offset="0" stop-opacity=".318"/><stop offset="1" stop-opacity=".24"/></linearGradient><path d="m2.678 25.5h26.822v4.915h-26.822z" fill="url(#g)" opacity=".15"/><path d="m2.678 25.5v4.915c-.98.01-2.367-1.1-2.367-2.458s1.093-2.457 2.369-2.457z" fill="url(#f)" opacity=".15"/><path d="m29.5 25.5v4.915c.98.01 2.367-1.1 2.367-2.458s-1.093-2.457-2.367-2.457z" fill="url(#e)" opacity=".15"/><path d="m5 1 22 .002v27.998h-22z" fill="url(#d)" transform="matrix(0 1 -1 0 31 -1)"/><g stroke-linejoin="round"><g fill="none"><path d="m26.5 28.5h-21v-27h21z" stroke="url(#c)" stroke-linecap="round" transform="matrix(0 1 -1 0 31 -1)"/><path d="m4.5.5 23 .002v28.998h-23z" stroke="url(#h)" transform="matrix(0 1 -1 0 31 -1)"/></g><rect fill="#9cde4a" height="15" rx=".331" ry=".559" stroke="#5ca12a" width="3" x="11.5" y="16.5"/><path d="m17.5 31.5v-15l13.5 7.5z" fill="#9cde4a" fill-rule="evenodd" stroke="#5ca12a" stroke-linecap="round"/></g><path d="m18.466 29.85v-11.666l10.284 5.816z" fill="none" opacity=".41" stroke="url(#a)" stroke-linecap="round"/></svg>