<svg xmlns="http://www.w3.org/2000/svg" xmlns:xlink="http://www.w3.org/1999/xlink" width="32" height="32"><defs><linearGradient id="a"><stop offset="0" stop-color="#fff"/><stop offset="0" stop-color="#fff" stop-opacity=".235"/><stop offset="1" stop-color="#fff" stop-opacity=".157"/><stop offset="1" stop-color="#fff" stop-opacity=".392"/></linearGradient><linearGradient id="b"><stop offset="0" stop-color="#f4f4f4"/><stop offset="1" stop-color="#dbdbdb"/></linearGradient><linearGradient id="c"><stop offset="0"/><stop offset="1" stop-opacity="0"/></linearGradient><linearGradient id="d"><stop offset="0" stop-opacity="0"/><stop offset=".5"/><stop offset="1" stop-opacity="0"/></linearGradient><linearGradient x1="24.001" y1="6.381" x2="24.001" y2="41.619" id="p" xlink:href="#a" gradientUnits="userSpaceOnUse" gradientTransform="matrix(.72973 0 0 .56757 -1.515 2.378)"/><linearGradient x1="25.132" y1=".985" x2="25.132" y2="47.013" id="o" xlink:href="#b" gradientUnits="userSpaceOnUse" gradientTransform="matrix(.8 0 0 .47802 -3.2 3.794)"/><radialGradient cx="605.714" cy="486.648" r="117.143" fx="605.714" fy="486.648" id="n" xlink:href="#c" gradientUnits="userSpaceOnUse" gradientTransform="matrix(.01928 0 0 .00824 17.982 23.98)"/><radialGradient cx="605.714" cy="486.648" r="117.143" fx="605.714" fy="486.648" id="m" xlink:href="#c" gradientUnits="userSpaceOnUse" gradientTransform="matrix(-.01928 0 0 .00824 14.018 23.98)"/><linearGradient x1="302.857" y1="366.648" x2="302.857" y2="609.505" id="l" xlink:href="#d" gradientUnits="userSpaceOnUse" gradientTransform="matrix(.05633 0 0 .00824 -4.36 23.98)"/><linearGradient x1="9.61" y1="6.395" x2="9.61" y2="41.619" id="r" xlink:href="#e" gradientUnits="userSpaceOnUse" gradientTransform="matrix(.66892 0 0 .56757 -1.18 2.378)"/><linearGradient id="e"><stop offset="0" stop-color="#fff"/><stop offset="0" stop-color="#fff" stop-opacity=".235"/><stop offset="1" stop-color="#fff" stop-opacity=".157"/><stop offset="1" stop-color="#fff" stop-opacity=".392"/></linearGradient><linearGradient id="f"><stop offset="0" stop-color="#aaa"/><stop offset="1" stop-color="#c8c8c8"/></linearGradient><linearGradient x1="22.004" y1="63.218" x2="22.004" y2="25.647" id="s" xlink:href="#f" gradientUnits="userSpaceOnUse" gradientTransform="matrix(1.33942 0 0 -1.98263 -11.354 93.863)"/><linearGradient id="g"><stop offset="0" stop-opacity=".318"/><stop offset="1" stop-opacity=".24"/></linearGradient><linearGradient xlink:href="#g" id="v" gradientUnits="userSpaceOnUse" gradientTransform="matrix(.74052 0 0 .4677 46.925 2.682)" x1="-51.786" y1="50.786" x2="-51.786" y2="2.906"/><linearGradient xlink:href="#h" id="w" x1="4.334" y1="6.526" x2="4.334" y2="29.474" gradientUnits="userSpaceOnUse" gradientTransform="translate(0 -2)"/><linearGradient id="h"><stop offset="0" stop-color="#ffa154"/><stop offset="1" stop-color="#f37329"/></linearGradient><linearGradient xlink:href="#h" id="q" gradientUnits="userSpaceOnUse" x1="4.334" y1="6.526" x2="4.334" y2="29.474" gradientTransform="translate(0 -2)"/><linearGradient xlink:href="#h" id="t" gradientUnits="userSpaceOnUse" x1="4.334" y1="6.526" x2="4.334" y2="29.474" gradientTransform="translate(0 -2)"/><linearGradient xlink:href="#h" id="u" gradientUnits="userSpaceOnUse" x1="4.334" y1="6.526" x2="4.334" y2="29.474" gradientTransform="translate(0 -2)"/><linearGradient id="i"><stop offset="0" stop-color="#cdf87e"/><stop offset=".262" stop-color="#a2e34f"/><stop offset=".661" stop-color="#68b723"/><stop offset="1" stop-color="#1d7e0d"/></linearGradient><linearGradient id="j"><stop offset="0" stop-color="#fff"/><stop offset=".083" stop-color="#fff" stop-opacity=".235"/><stop offset=".392" stop-color="#fff" stop-opacity=".157"/><stop offset="1" stop-color="#fff" stop-opacity=".392"/></linearGradient><radialGradient xlink:href="#i" id="x" cx="22.389" cy="21.971" fx="22.389" fy="21.971" r="7.25" gradientTransform="matrix(.17862 2.37384 -2.24073 .1686 68.232 -39.835)" gradientUnits="userSpaceOnUse"/><linearGradient xlink:href="#j" id="y" x1="24.075" y1="21.045" x2="19.162" y2="29.53" gradientUnits="userSpaceOnUse"/><linearGradient gradientTransform="translate(2 16)" xlink:href="#k" id="A" y1="3" x2="0" y2="14" gradientUnits="userSpaceOnUse"/><linearGradient id="k"><stop offset="0" stop-color="#fff"/><stop offset=".083" stop-color="#fff" stop-opacity=".235"/><stop offset=".392" stop-color="#fff" stop-opacity=".157"/><stop offset="1" stop-color="#fff" stop-opacity=".392"/></linearGradient><radialGradient xlink:href="#i" id="z" cx="1.076" cy="7.027" fx="1.076" fy="7.027" r="1.347" gradientTransform="matrix(-.34227 13.81304 -12.0143 -.2381 88.37 4.96)" gradientUnits="userSpaceOnUse"/></defs><path overflow="visible" opacity=".15" fill="url(#l)" d="M2.4 27h27.2v2H2.4z"/><path d="M2.4 27v2c-.993.004-2.4-.448-2.4-1s1.108-1 2.4-1z" overflow="visible" opacity=".15" fill="url(#m)"/><path d="M29.6 27v2c.993.004 2.4-.448 2.4-1s-1.108-1-2.4-1z" overflow="visible" opacity=".15" fill="url(#n)"/><path d="M2 5h28v22H2V5z" fill="url(#o)"/><path d="M29.5 26.5h-27v-21h27z" fill="none" stroke="url(#p)" stroke-linecap="round"/><path d="M6 27.5H1.5v-23H6" color="#000" overflow="visible" fill="url(#q)"/><path d="M5.5 26.5h-3v-21h3" opacity=".5" fill="none" stroke="url(#r)" stroke-linecap="square"/><path d="M11 7.5h4m1 0h2m1 0h1m1 0h2" fill="none" stroke="#aaa"/><path style="line-height:normal;-inkscape-font-specification:Sans;text-indent:0;text-align:start;text-decoration-line:none;text-transform:none" d="M7 24v-1h2v1zm3 0v-1h6v1zm-3-4v-1h3v1zm4 0v-1h2v1zm3 0v-1h1v1zm-7-4v-1h3v1zm4 0v-1h1v1zm2 0v-1h2v1zm-6-4v-1h3v1zm4 0v-1h3v1z" color="#000" font-family="Sans" overflow="visible" fill="url(#s)"/><path d="M29 17a6 6 0 1 1-3.174-5.293L23 17z" style="isolation:auto;mix-blend-mode:normal" color="#000" overflow="visible" opacity=".5" solid-color="#000000" fill="url(#t)"/><path style="isolation:auto;mix-blend-mode:normal" d="M29 17.017c0 2.602-1.892 5.09-4.4 5.783-2.506.694-5.407-.466-6.745-2.697-.01.01 5.145-3.086 5.145-3.086z" color="#000" overflow="visible" opacity=".5" solid-color="#000000" fill="url(#u)"/><path d="M6 27.5h24.5v-23H6" fill="none" stroke="url(#v)" stroke-linejoin="round"/><path d="M6 27.5H1.5c0-7.093.02-15.35.02-22.868l.048-.093.118-.04H6" color="#000" overflow="visible" opacity=".4" fill="none" stroke="#cc3b02" stroke-linejoin="round"/><path style="isolation:auto;mix-blend-mode:normal" d="M29 17.004c0 2.6-1.892 5.088-4.4 5.782-.058-.01-1.6-5.782-1.6-5.782z" color="#000" overflow="visible" solid-color="#000000" fill="url(#w)"/><g stroke-linecap="round"><path d="M17.5 31.5v-15L31 24z" fill="url(#x)" fill-rule="evenodd" stroke="#0f5a00" stroke-linejoin="round" stroke-opacity=".49" stroke-width="1.154" transform="translate(1.333 1.2) scale(.86667)"/><path d="M18.466 29.85V18.184L28.75 24z" opacity=".41" fill="none" stroke="url(#y)" transform="translate(1.333 1.2) scale(.86667)"/></g><g color="#000"><path fill="url(#z)" d="M.522 18.537h2.976V31.51H.522z" transform="translate(11 -3.037)"/><path opacity=".5" fill="none" stroke="#0f5a00" stroke-linecap="round" stroke-linejoin="round" d="M11.522 15.5h2.976v13.01h-2.976z"/><path opacity=".5" fill="url(#A)" d="M1 19h2v1H1z" transform="translate(11 -3.037)"/></g></svg>