<svg xmlns="http://www.w3.org/2000/svg" xmlns:xlink="http://www.w3.org/1999/xlink" height="32" width="32"><defs><linearGradient id="d"><stop offset="0" stop-color="#fff"/><stop offset=".429" stop-color="#fff" stop-opacity=".235"/><stop offset=".75" stop-color="#fff" stop-opacity=".157"/><stop offset="1" stop-color="#fff" stop-opacity=".392"/></linearGradient><linearGradient id="a"><stop offset="0" stop-color="#3d3d3d"/><stop offset=".5" stop-color="#686868" stop-opacity=".498"/><stop offset="1" stop-color="#686868" stop-opacity="0"/></linearGradient><radialGradient r="62.769" fy="186.171" fx="99.157" cy="186.171" cx="99.157" gradientTransform="matrix(.17525 0 0 .05576 -1.377 18.12)" gradientUnits="userSpaceOnUse" id="f" xlink:href="#a"/><linearGradient id="e"><stop offset="0" stop-color="#64baff"/><stop offset="1" stop-color="#3689e6"/></linearGradient><linearGradient xlink:href="#b" id="h" gradientUnits="userSpaceOnUse" gradientTransform="matrix(1.0655 0 0 1.06913 -9.488 -22.214)" x1="30.194" y1="27.546" x2="26.541" y2="33.269"/><linearGradient id="b"><stop offset="0" stop-color="#fff"/><stop offset="0" stop-color="#fff" stop-opacity=".235"/><stop offset=".539" stop-color="#fff" stop-opacity=".157"/><stop offset="1" stop-color="#fff" stop-opacity=".392"/></linearGradient><linearGradient y2="39.83" x2="-6.388" y1="22.461" x1="-6.388" gradientTransform="matrix(1.26644 0 0 1.2666 25.86 -21.45)" gradientUnits="userSpaceOnUse" id="i" xlink:href="#c"/><linearGradient id="c"><stop offset="0" stop-color="#fff"/><stop offset=".5" stop-color="#fff" stop-opacity=".235"/><stop offset=".75" stop-color="#fff" stop-opacity=".157"/><stop offset="1" stop-color="#fff" stop-opacity=".392"/></linearGradient><linearGradient y2="22.673" x2="-2.85" y1="39.618" x1="-2.85" gradientTransform="matrix(.82783 0 0 .82617 22.462 -7.732)" gradientUnits="userSpaceOnUse" id="j" xlink:href="#d"/><linearGradient y2="3249.04" x2="2094.899" y1="3215.689" x1="2094.899" gradientTransform="matrix(1.16703 0 0 .8724 -2432.29 -2803.86)" gradientUnits="userSpaceOnUse" id="g" xlink:href="#e"/></defs><path d="M27 28.5a11 3.5 0 1 1-22 0 11 3.5 0 1 1 22 0z" fill="url(#f)"/><path d="M16.5 1.5v4.018A12.5 12.5 0 0 0 16 5.5 12.5 12.5 0 0 0 3.5 18 12.5 12.5 0 0 0 16 30.5a12.5 12.5 0 0 0 12.482-12h-6.007a6.5 6.5 0 0 1-6.475 6A6.5 6.5 0 0 1 9.5 18a6.5 6.5 0 0 1 6.5-6.5 6.5 6.5 0 0 1 .5.025V15.5l11-7z" style="font-variant-east_asian:normal" opacity=".99" fill="url(#g)"/><path style="isolation:auto;mix-blend-mode:normal" d="M17.498 7.086V3.293l8.13 5.22-8.13 5.14v-3.537" color="#000" overflow="visible" opacity=".5" solid-color="#000000" fill="none" stroke="url(#h)"/><path d="M27.32 20.06a11.505 11.503 0 0 1-13.01 9.318 11.505 11.503 0 0 1-9.737-12.696A11.505 11.503 0 0 1 16.946 6.536" opacity=".5" fill="none" stroke="url(#i)" stroke-width=".992"/><path d="M27.878 19.503l-4.568-.006c-.568 3.912-4.84 6.606-8.697 5.874-4.06-.77-6.737-4.663-5.993-8.72.723-3.945 4.418-6.605 8.366-6.09" opacity=".5" fill="none" stroke="url(#j)" stroke-width=".992"/><path d="M16.5 1.5v4.018A12.5 12.5 0 0 0 16 5.5 12.5 12.5 0 0 0 3.5 18 12.5 12.5 0 0 0 16 30.5a12.5 12.5 0 0 0 12.482-12h-6.007a6.5 6.5 0 0 1-6.475 6A6.5 6.5 0 0 1 9.5 18a6.5 6.5 0 0 1 6.5-6.5 6.5 6.5 0 0 1 .5.025V15.5l11-7-11-7z" style="font-variant-east_asian:normal" opacity=".5" fill="none" stroke="#002e99" stroke-linecap="round" stroke-linejoin="round"/></svg>