<svg xmlns="http://www.w3.org/2000/svg" xmlns:xlink="http://www.w3.org/1999/xlink" width="32" height="32"><defs><linearGradient id="a"><stop offset="0" stop-color="#fff"/><stop offset="0" stop-color="#fff" stop-opacity=".235"/><stop offset="1" stop-color="#fff" stop-opacity=".157"/><stop offset="1" stop-color="#fff" stop-opacity=".392"/></linearGradient><linearGradient id="b"><stop offset="0" stop-color="#f4f4f4"/><stop offset="1" stop-color="#dbdbdb"/></linearGradient><linearGradient id="c"><stop offset="0"/><stop offset="1" stop-opacity="0"/></linearGradient><linearGradient id="d"><stop offset="0" stop-opacity="0"/><stop offset=".5"/><stop offset="1" stop-opacity="0"/></linearGradient><linearGradient x1="24.001" y1="6.381" x2="24.001" y2="41.619" id="m" xlink:href="#a" gradientUnits="userSpaceOnUse" gradientTransform="matrix(.72973 0 0 .56757 -1.515 2.378)"/><linearGradient x1="25.132" y1=".985" x2="25.132" y2="47.013" id="l" xlink:href="#b" gradientUnits="userSpaceOnUse" gradientTransform="matrix(.8 0 0 .47802 -3.2 3.794)"/><radialGradient cx="605.714" cy="486.648" r="117.143" fx="605.714" fy="486.648" id="k" xlink:href="#c" gradientUnits="userSpaceOnUse" gradientTransform="matrix(.01928 0 0 .00824 17.982 23.98)"/><radialGradient cx="605.714" cy="486.648" r="117.143" fx="605.714" fy="486.648" id="j" xlink:href="#c" gradientUnits="userSpaceOnUse" gradientTransform="matrix(-.01928 0 0 .00824 14.018 23.98)"/><linearGradient x1="302.857" y1="366.648" x2="302.857" y2="609.505" id="i" xlink:href="#d" gradientUnits="userSpaceOnUse" gradientTransform="matrix(.05633 0 0 .00824 -4.36 23.98)"/><linearGradient x1="9.61" y1="6.395" x2="9.61" y2="41.619" id="o" xlink:href="#e" gradientUnits="userSpaceOnUse" gradientTransform="matrix(.66892 0 0 .56757 -1.18 2.378)"/><linearGradient id="e"><stop offset="0" stop-color="#fff"/><stop offset="0" stop-color="#fff" stop-opacity=".235"/><stop offset="1" stop-color="#fff" stop-opacity=".157"/><stop offset="1" stop-color="#fff" stop-opacity=".392"/></linearGradient><linearGradient id="f"><stop offset="0" stop-color="#aaa"/><stop offset="1" stop-color="#c8c8c8"/></linearGradient><linearGradient x1="22.004" y1="63.218" x2="22.004" y2="25.647" id="p" xlink:href="#f" gradientUnits="userSpaceOnUse" gradientTransform="matrix(1.33942 0 0 -1.98263 -11.354 93.863)"/><linearGradient id="g"><stop offset="0" stop-opacity=".318"/><stop offset="1" stop-opacity=".24"/></linearGradient><linearGradient xlink:href="#g" id="s" gradientUnits="userSpaceOnUse" gradientTransform="matrix(.74052 0 0 .4677 46.925 2.682)" x1="-51.786" y1="50.786" x2="-51.786" y2="2.906"/><linearGradient xlink:href="#h" id="t" x1="4.334" y1="6.526" x2="4.334" y2="29.474" gradientUnits="userSpaceOnUse" gradientTransform="translate(0 -2)"/><linearGradient id="h"><stop offset="0" stop-color="#ffa154"/><stop offset="1" stop-color="#f37329"/></linearGradient><linearGradient xlink:href="#h" id="n" gradientUnits="userSpaceOnUse" x1="4.334" y1="6.526" x2="4.334" y2="29.474" gradientTransform="translate(0 -2)"/><linearGradient xlink:href="#h" id="q" gradientUnits="userSpaceOnUse" x1="4.334" y1="6.526" x2="4.334" y2="29.474" gradientTransform="translate(0 -2)"/><linearGradient xlink:href="#h" id="r" gradientUnits="userSpaceOnUse" x1="4.334" y1="6.526" x2="4.334" y2="29.474" gradientTransform="translate(0 -2)"/><radialGradient id="u" cx="605.714" cy="486.648" gradientTransform="matrix(.019 0 0 .02024 18.043 18.08)" gradientUnits="userSpaceOnUse" r="117.143" xlink:href="#c"/></defs><path overflow="visible" opacity=".15" fill="url(#i)" d="M2.4 27h27.2v2H2.4z"/><path d="M2.4 27v2c-.993.004-2.4-.448-2.4-1s1.108-1 2.4-1z" overflow="visible" opacity=".15" fill="url(#j)"/><path d="M29.6 27v2c.993.004 2.4-.448 2.4-1s-1.108-1-2.4-1z" overflow="visible" opacity=".15" fill="url(#k)"/><path d="M2 5h28v22H2V5z" fill="url(#l)"/><path d="M29.5 26.5h-27v-21h27z" fill="none" stroke="url(#m)" stroke-linecap="round"/><path d="M6 27.5H1.5v-23H6" color="#000" overflow="visible" fill="url(#n)"/><path d="M5.5 26.5h-3v-21h3" opacity=".5" fill="none" stroke="url(#o)" stroke-linecap="square"/><path d="M11 7.5h4m1 0h2m1 0h1m1 0h2" fill="none" stroke="#aaa"/><path style="line-height:normal;-inkscape-font-specification:Sans;text-indent:0;text-align:start;text-decoration-line:none;text-transform:none" d="M7 24v-1h2v1zm3 0v-1h6v1zm-3-4v-1h3v1zm4 0v-1h2v1zm3 0v-1h1v1zm-7-4v-1h3v1zm4 0v-1h1v1zm2 0v-1h2v1zm-6-4v-1h3v1zm4 0v-1h3v1z" color="#000" font-family="Sans" overflow="visible" fill="url(#p)"/><path d="M29 17a6 6 0 1 1-3.174-5.293L23 17z" style="isolation:auto;mix-blend-mode:normal" color="#000" overflow="visible" opacity=".5" solid-color="#000000" fill="url(#q)"/><path style="isolation:auto;mix-blend-mode:normal" d="M29 17.017c0 2.602-1.892 5.09-4.4 5.783-2.506.694-5.407-.466-6.745-2.697-.01.01 5.145-3.086 5.145-3.086z" color="#000" overflow="visible" opacity=".5" solid-color="#000000" fill="url(#r)"/><path d="M6 27.5h24.5v-23H6" fill="none" stroke="url(#s)" stroke-linejoin="round"/><path d="M6 27.5H1.5c0-7.093.02-15.35.02-22.868l.048-.093.118-.04H6" color="#000" overflow="visible" opacity=".4" fill="none" stroke="#cc3b02" stroke-linejoin="round"/><path style="isolation:auto;mix-blend-mode:normal" d="M29 17.004c0 2.6-1.892 5.088-4.4 5.782-.058-.01-1.6-5.782-1.6-5.782z" color="#000" overflow="visible" solid-color="#000000" fill="url(#t)"/><path d="M29.5 25.5v4.915c.98.01 2.367-1.1 2.367-2.458S30.774 25.5 29.5 25.5z" fill="url(#u)" opacity=".15"/><path d="M23 1v3h2l1 1v21l-1 1h-2v3h9v-3h-2l-1-1V5l1-1h2V1z" opacity=".52" fill-rule="evenodd"/><path d="M24 2.51l2.17-.016s1.335-.048 1.333 1.286l-.034 22.853s-.138 1.825-1.47 1.86l-2 .05m7-26.015l-2.187-.034S27.48 2.446 27.48 3.78l-.033 22.853s.1 1.86 1.433 1.86H31" stroke="#fff" fill="none"/></svg>