<svg xmlns="http://www.w3.org/2000/svg" xmlns:xlink="http://www.w3.org/1999/xlink" height="32" width="32"><linearGradient id="a"><stop offset="0"/><stop offset="1" stop-opacity="0"/></linearGradient><linearGradient id="f" gradientTransform="matrix(.56757 0 0 .72973 2.378 -2.514)" gradientUnits="userSpaceOnUse" x1="9.905" x2="44.262" y1="21.331" y2="21.954"><stop offset="0" stop-color="#fff"/><stop offset=".174" stop-color="#fff" stop-opacity=".235"/><stop offset=".951" stop-color="#fff" stop-opacity=".157"/><stop offset="1" stop-color="#fff" stop-opacity=".392"/></linearGradient><linearGradient id="e" gradientTransform="matrix(.62857 0 0 .6084 .914 -.535)" gradientUnits="userSpaceOnUse" x1="3.318" x2="39.909" y1="30.465" y2="30.465"><stop offset="0" stop-color="#f4f4f4"/><stop offset="1" stop-color="#dbdbdb"/></linearGradient><radialGradient id="d" cx="605.714" cy="486.648" gradientTransform="matrix(.019 0 0 .02024 18.043 18.08)" gradientUnits="userSpaceOnUse" r="117.143" xlink:href="#a"/><radialGradient id="c" cx="605.714" cy="486.648" gradientTransform="matrix(-.019 0 0 .02024 14.134 18.08)" gradientUnits="userSpaceOnUse" r="117.143" xlink:href="#a"/><linearGradient id="b" gradientTransform="matrix(.05555 0 0 .02024 -3.988 18.08)" gradientUnits="userSpaceOnUse" x1="302.857" x2="302.857" y1="366.648" y2="609.505"><stop offset="0" stop-opacity="0"/><stop offset=".5"/><stop offset="1" stop-opacity="0"/></linearGradient><linearGradient id="g" gradientTransform="matrix(.53064 0 0 .5897 39.27 -1.792)" gradientUnits="userSpaceOnUse" x1="-51.786" x2="-51.786" y1="50.786" y2="2.906"><stop offset="0" stop-opacity=".318"/><stop offset="1" stop-opacity=".24"/></linearGradient><path d="M2.678 25.5H29.5v4.915H2.678z" fill="url(#b)" opacity=".15"/><path d="M2.678 25.5v4.915c-.98.01-2.367-1.1-2.367-2.458S1.404 25.5 2.68 25.5z" fill="url(#c)" opacity=".15"/><path d="M29.5 25.5v4.915c.98.01 2.367-1.1 2.367-2.458S30.774 25.5 29.5 25.5z" fill="url(#d)" opacity=".15"/><path d="M5 1l22 .002V29H5V1z" fill="url(#e)" transform="rotate(90 16 15)"/><g fill="none" stroke-linejoin="round"><path d="M26.5 28.5h-21v-27h21z" stroke="url(#f)" stroke-linecap="round" transform="rotate(90 16 15)"/><path d="M4.5.5l23 .002V29.5h-23V.5z" stroke="url(#g)" transform="rotate(90 16 15)"/></g><path d="M23 1v3h1.333l1.516 1.333V24.56L24.332 26H23v4h9v-4h-1.333L29 24.76V5.333L30.333 4H32V1z" opacity=".52" fill-rule="evenodd"/><path d="M24 2.51l2.17-.016s1.335-.048 1.333 1.286l-.034 22.853s-.136 1.825-1.47 1.86l-2 .05m7-26.015l-2.185-.034s-1.332-.048-1.333 1.286l-.034 22.853s.1 1.86 1.433 1.86H31" fill="none" stroke="#fff"/></svg>