<?xml version="1.0" encoding="UTF-8" standalone="no"?>
<svg
   xmlns:dc="http://purl.org/dc/elements/1.1/"
   xmlns:cc="http://creativecommons.org/ns#"
   xmlns:rdf="http://www.w3.org/1999/02/22-rdf-syntax-ns#"
   xmlns:svg="http://www.w3.org/2000/svg"
   xmlns="http://www.w3.org/2000/svg"
   xmlns:xlink="http://www.w3.org/1999/xlink"
   xmlns:sodipodi="http://sodipodi.sourceforge.net/DTD/sodipodi-0.dtd"
   xmlns:inkscape="http://www.inkscape.org/namespaces/inkscape"
   height="32"
   width="32"
   version="1.1"
   id="svg54"
   sodipodi:docname="reverseorder.svg"
   inkscape:version="0.92.3 (2405546, 2018-03-11)">
  <metadata
     id="metadata60">
    <rdf:RDF>
      <cc:Work
         rdf:about="">
        <dc:format>image/svg+xml</dc:format>
        <dc:type
           rdf:resource="http://purl.org/dc/dcmitype/StillImage" />
        <dc:title></dc:title>
      </cc:Work>
    </rdf:RDF>
  </metadata>
  <defs
     id="defs58">
    <radialGradient
       inkscape:collect="always"
       xlink:href="#c"
       id="radialGradient907"
       gradientUnits="userSpaceOnUse"
       gradientTransform="matrix(-0.36797,0,0,0.39444,32.308,-2.697)"
       cx="24.837"
       cy="36.421"
       r="15.645" />
    <linearGradient
       inkscape:collect="always"
       xlink:href="#b"
       id="linearGradient909"
       gradientUnits="userSpaceOnUse"
       gradientTransform="matrix(0,-1.33333,-1.33333,0,38.55,36.83)"
       x1="12.249031"
       y1="12.412531"
       x2="21.624054"
       y2="12.412531" />
    <linearGradient
       inkscape:collect="always"
       xlink:href="#a"
       id="linearGradient911"
       gradientUnits="userSpaceOnUse"
       gradientTransform="matrix(0.71627,0,0,0.7691,1.397,-29.832)"
       x1="28.764294"
       y1="63.664268"
       x2="28.764294"
       y2="49.187363" />
    <radialGradient
       inkscape:collect="always"
       xlink:href="#c"
       id="radialGradient929"
       gradientUnits="userSpaceOnUse"
       gradientTransform="matrix(-0.36797,0,0,0.39444,32.308,-2.697)"
       cx="24.837"
       cy="36.421"
       r="15.645" />
    <linearGradient
       inkscape:collect="always"
       xlink:href="#b"
       id="linearGradient931"
       gradientUnits="userSpaceOnUse"
       gradientTransform="matrix(0,-1.33333,-1.33333,0,38.55,36.83)"
       x1="23.176"
       y1="11.581"
       x2="10.566"
       y2="11.979" />
    <linearGradient
       inkscape:collect="always"
       xlink:href="#a"
       id="linearGradient933"
       gradientUnits="userSpaceOnUse"
       gradientTransform="matrix(0.71627,0,0,0.7691,1.397,-29.832)"
       x1="33.06"
       y1="46.71"
       x2="33.018"
       y2="62.913" />
    <linearGradient
       inkscape:collect="always"
       xlink:href="#d"
       id="linearGradient953"
       gradientUnits="userSpaceOnUse"
       gradientTransform="matrix(1.86666,0,0,2,0.562,16.497)"
       x1="7.889"
       y1="3.506"
       x2="7.889"
       y2="5.561" />
    <linearGradient
       inkscape:collect="always"
       xlink:href="#d"
       id="linearGradient966"
       gradientUnits="userSpaceOnUse"
       gradientTransform="matrix(1.86666,0,0,2,0.562,16.497)"
       x1="7.889"
       y1="3.506"
       x2="7.889"
       y2="5.561" />
  </defs>
  <sodipodi:namedview
     pagecolor="#ffffff"
     bordercolor="#666666"
     borderopacity="1"
     objecttolerance="10"
     gridtolerance="10"
     guidetolerance="10"
     inkscape:pageopacity="0"
     inkscape:pageshadow="2"
     inkscape:window-width="1366"
     inkscape:window-height="696"
     id="namedview56"
     showgrid="true"
     inkscape:zoom="20.85965"
     inkscape:cx="7.2821649"
     inkscape:cy="17.523685"
     inkscape:window-x="0"
     inkscape:window-y="0"
     inkscape:window-maximized="1"
     inkscape:current-layer="svg54">
    <inkscape:grid
       type="xygrid"
       id="grid867"
       spacingx="0.5"
       spacingy="0.5" />
  </sodipodi:namedview>
  <linearGradient
     id="a"
     gradientTransform="matrix(0.71627,0,0,0.7691,1.397,-29.832)"
     gradientUnits="userSpaceOnUse"
     x1="33.06"
     x2="33.018"
     y1="46.71"
     y2="62.913">
    <stop
       offset="0"
       stop-color="#fff"
       id="stop2" />
    <stop
       offset=".233"
       stop-color="#fff"
       stop-opacity=".235"
       id="stop4" />
    <stop
       offset="1"
       stop-color="#fff"
       stop-opacity=".157"
       id="stop6" />
    <stop
       offset="1"
       stop-color="#fff"
       stop-opacity=".392"
       id="stop8" />
  </linearGradient>
  <linearGradient
     id="b"
     gradientTransform="matrix(0,-1.33333,-1.33333,0,38.55,36.83)"
     gradientUnits="userSpaceOnUse"
     x1="23.176"
     x2="10.566"
     y1="11.581"
     y2="11.979">
    <stop
       offset="0"
       stop-color="#ffa154"
       id="stop11" />
    <stop
       offset="1"
       stop-color="#f37329"
       id="stop13" />
  </linearGradient>
  <radialGradient
     id="c"
     cx="24.837"
     cy="36.421"
     gradientTransform="matrix(-0.36797,0,0,0.39444,32.308,-2.697)"
     gradientUnits="userSpaceOnUse"
     r="15.645">
    <stop
       offset="0"
       id="stop16" />
    <stop
       offset="1"
       stop-opacity="0"
       id="stop18" />
  </radialGradient>
  <linearGradient
     id="d"
     gradientTransform="matrix(1.86666,0,0,2,0.562,16.497)"
     gradientUnits="userSpaceOnUse"
     x1="7.889"
     x2="7.889"
     y1="3.506"
     y2="5.561">
    <stop
       offset="0"
       stop-color="#cd9ef7"
       id="stop21" />
    <stop
       offset="1"
       stop-color="#a56de2"
       id="stop23" />
  </linearGradient>
  <g
     id="g951"
     transform="translate(0.005,-20.005)">
    <path
       inkscape:connector-curvature="0"
       style="fill:url(#linearGradient953);stroke:#7239b3;stroke-linecap:round;stroke-linejoin:round;stroke-opacity:0.75"
       d="m 1.495,23.497 h 28 l 0.004,3.008 h -28 z"
       id="path947" />
    <path
       style="opacity:0.3;fill:none;stroke:#ffffff;stroke-width:1.00600004"
       inkscape:connector-curvature="0"
       d="m 1.995,24.505 h 27"
       id="path949" />
  </g>
  <g
     id="g964"
     transform="translate(0,2)">
    <g
       id="g945">
      <path
         inkscape:connector-curvature="0"
         style="fill:url(#linearGradient966);stroke:#7239b3;stroke-linecap:round;stroke-linejoin:round;stroke-opacity:0.75"
         d="m 1.495,23.497 h 28 l 0.004,3.008 h -28 z"
         id="path26" />
      <path
         style="opacity:0.3;fill:none;stroke:#ffffff;stroke-width:1.00600004"
         inkscape:connector-curvature="0"
         d="m 1.995,24.505 h 27"
         id="path28" />
    </g>
    <g
       transform="translate(0,2)"
       id="g893">
      <path
         inkscape:connector-curvature="0"
         style="opacity:0.14100001;fill:url(#radialGradient929);fill-rule:evenodd"
         d="m 17.075,11.67 c 0,3.407 2.914,6.17 6.094,6.17 3.178,0 5.755,-2.763 5.755,-6.17 0,-3.41 -2.577,-6.172 -5.756,-6.172 -3.18,0 -6.095,2.763 -6.095,6.17 z"
         id="path30" />
      <path
         inkscape:connector-curvature="0"
         style="display:block;fill:url(#linearGradient931)"
         d="m 15.253,13.498 7.744,9.35 7.75,-9.35 h -4.245 v -8 H 19.5 v 8 z"
         display="block"
         id="path32" />
      <path
         inkscape:connector-curvature="0"
         style="display:block;opacity:0.40100002;fill:none;stroke:url(#linearGradient933);stroke-miterlimit:7"
         id="path34"
         stroke-miterlimit="7"
         display="block"
         d="m 22.984,21.175 a 0.417,0.417 0 0 1 -0.308,-0.15 l -4.93,-5.928 a 0.417,0.417 0 0 1 0.32,-0.682 h 2.35 V 6.83 a 0.417,0.417 0 0 1 0.416,-0.415 h 4.336 a 0.417,0.417 0 0 1 0.416,0.416 v 7.585 h 2.4 a 0.417,0.417 0 0 1 0.32,0.684 l -4.99,5.926 a 0.417,0.417 0 0 1 -0.33,0.15 z" />
      <g
         style="fill:none;stroke-linejoin:round"
         id="g40">
        <path
           style="opacity:0.5;stroke:#a62100"
           inkscape:connector-curvature="0"
           id="path36"
           d="m 15.253,13.498 7.744,9.35 7.75,-9.35 h -4.245 v -8 H 19.5 v 8 z" />
      </g>
    </g>
  </g>
  <g
     id="g905"
     transform="matrix(1,0,0,-1,-14,27.998)">
    <path
       inkscape:connector-curvature="0"
       style="opacity:0.14100001;fill:url(#radialGradient907);fill-rule:evenodd"
       d="m 17.075,11.67 c 0,3.407 2.914,6.17 6.094,6.17 3.178,0 5.755,-2.763 5.755,-6.17 0,-3.41 -2.577,-6.172 -5.756,-6.172 -3.18,0 -6.095,2.763 -6.095,6.17 z"
       id="path895" />
    <path
       inkscape:connector-curvature="0"
       style="display:block;fill:url(#linearGradient909)"
       d="m 15.253,13.498 7.744,9.35 7.75,-9.35 h -4.245 v -8 H 19.5 v 8 z"
       display="block"
       id="path897" />
    <path
       inkscape:connector-curvature="0"
       style="display:block;opacity:0.40100002;fill:none;stroke:url(#linearGradient911);stroke-miterlimit:7"
       id="path899"
       stroke-miterlimit="7"
       display="block"
       d="m 22.984,21.175 a 0.417,0.417 0 0 1 -0.308,-0.15 l -4.93,-5.928 a 0.417,0.417 0 0 1 0.32,-0.682 h 2.35 V 6.83 a 0.417,0.417 0 0 1 0.416,-0.415 h 4.336 a 0.417,0.417 0 0 1 0.416,0.416 v 7.585 h 2.4 a 0.417,0.417 0 0 1 0.32,0.684 l -4.99,5.926 a 0.417,0.417 0 0 1 -0.33,0.15 z" />
    <g
       style="fill:none;stroke-linejoin:round"
       id="g903">
      <path
         style="opacity:0.5;stroke:#a62100"
         inkscape:connector-curvature="0"
         id="path901"
         d="m 15.253,13.498 7.744,9.35 7.75,-9.35 h -4.245 v -8 H 19.5 v 8 z" />
    </g>
  </g>
</svg>
