<svg xmlns="http://www.w3.org/2000/svg" xmlns:xlink="http://www.w3.org/1999/xlink" height="32" width="32"><defs><linearGradient xlink:href="#a" id="f" x1="21.745" y1="3.383" x2="21.525" y2="31.342" gradientUnits="userSpaceOnUse"/><radialGradient gradientTransform="matrix(0 .76662 -.834 0 48.57 -34.3)" gradientUnits="userSpaceOnUse" xlink:href="#b" id="i" fy="48.19" fx="65.08" r="31" cy="48.19" cx="65.08"/><linearGradient id="b"><stop offset="0" stop-color="#cdf87e"/><stop offset=".262" stop-color="#a2e34f"/><stop offset=".661" stop-color="#68b723"/><stop offset="1" stop-color="#1d7e0d"/></linearGradient><linearGradient gradientTransform="matrix(.5089 0 0 .50895 -4.523 10.367)" gradientUnits="userSpaceOnUse" xlink:href="#c" id="j" y2="35.86" x2="17.064" y1="22.856" x1="24.608"/><linearGradient id="c"><stop offset="0" stop-color="#fff"/><stop offset=".103" stop-color="#fff" stop-opacity=".235"/><stop offset=".392" stop-color="#fff" stop-opacity=".157"/><stop offset="1" stop-color="#fff" stop-opacity=".392"/></linearGradient><linearGradient gradientTransform="translate(-41.356 -1.356)" id="a" gradientUnits="userSpaceOnUse" x1="17.036" x2="17.036" y1="2" y2="30.012"><stop offset="0" stop-color="#f6f6f6"/><stop offset="1" stop-color="#d2d2d2"/></linearGradient><linearGradient gradientTransform="translate(-41.356 -1.356)" id="d" gradientUnits="userSpaceOnUse" x1="10.923" x2="10.923" y1="2" y2="30.045"><stop offset="0" stop-color="#aaa"/><stop offset="1" stop-color="#8c8c8c"/></linearGradient><linearGradient xlink:href="#d" id="h" x1="18.087" y1="2" x2="17.574" y2="32" gradientUnits="userSpaceOnUse"/></defs><linearGradient id="g" gradientUnits="userSpaceOnUse" x1="15.614" x2="15.614" y1="2.048" y2="29.853"><stop offset="0" stop-color="#fff"/><stop offset=".508" stop-color="#fff" stop-opacity=".235"/><stop offset=".835" stop-color="#fff" stop-opacity=".157"/><stop offset="1" stop-color="#fff" stop-opacity=".392"/></linearGradient><radialGradient id="e" cx="99.157" cy="186.171" gradientTransform="matrix(.17525 0 0 .05576 -1.377 18.12)" gradientUnits="userSpaceOnUse" r="62.769"><stop offset="0" stop-color="#3d3d3d"/><stop offset=".5" stop-color="#686868" stop-opacity=".498"/><stop offset="1" stop-color="#686868" stop-opacity="0"/></radialGradient><path d="M27 28.5a11 3.5 0 1 1-22 0 11 3.5 0 1 1 22 0z" fill="url(#e)"/><path d="M16 1.5C8 1.5 1.5 8 1.5 16S8 30.5 16 30.5 30.5 24 30.5 16 24 1.5 16 1.5z" fill="url(#f)"/><path d="M29.5 16c0 7.456-6.045 13.5-13.5 13.5-7.456 0-13.5-6.044-13.5-13.5S8.544 2.5 16 2.5c7.455 0 13.5 6.044 13.5 13.5z" fill="none" opacity=".5" stroke="url(#g)" stroke-linecap="round" stroke-linejoin="round"/><path d="M16 1.502C8 1.502 1.502 8 1.502 16S8 30.498 16 30.498 30.498 24 30.498 16 24 1.502 16 1.502z" fill="none" stroke="url(#h)" stroke-linecap="round" stroke-linejoin="round"/><g color="#000"><path style="isolation:auto;mix-blend-mode:normal" d="M1.5 31.5v-15l12 7.5z" overflow="visible" solid-color="#000000" fill="url(#i)" transform="translate(10 -8)"/><path style="isolation:auto;mix-blend-mode:normal" d="M11.5 23.5v-15l12 7.5z" overflow="visible" opacity=".5" solid-color="#000000" fill="none" stroke="#0f5a00" stroke-linecap="round" stroke-linejoin="round"/><path style="isolation:auto;mix-blend-mode:normal" d="M2.5 18.17v11.645l8.88-5.813z" overflow="visible" opacity=".6" solid-color="#000000" fill="none" stroke="url(#j)" stroke-width=".992" transform="translate(10 -8)"/></g></svg>