<svg xmlns="http://www.w3.org/2000/svg" xmlns:xlink="http://www.w3.org/1999/xlink" height="32" width="32"><defs><linearGradient gradientTransform="matrix(.5089 0 0 .50895 5.477 2.367)" gradientUnits="userSpaceOnUse" xlink:href="#a" id="h" y2="35.86" x2="17.064" y1="23.421" x1="25.344"/><linearGradient id="a"><stop offset="0" stop-color="#fff"/><stop offset=".055" stop-color="#fff" stop-opacity=".235"/><stop offset=".392" stop-color="#fff" stop-opacity=".157"/><stop offset="1" stop-color="#fff" stop-opacity=".392"/></linearGradient><linearGradient id="b" gradientTransform="matrix(.4922 0 0 .4584 4.51 -4.794)" gradientUnits="userSpaceOnUse" x1="23.732" x2="23.732" y1="5.394" y2="39.735"><stop offset="0" stop-color="#90dbec"/><stop offset=".262" stop-color="#55c1ec"/><stop offset=".705" stop-color="#3689e6"/><stop offset="1" stop-color="#2b63a0"/></linearGradient><radialGradient gradientTransform="matrix(0 .7666 -.834 0 58.57 -42.3)" gradientUnits="userSpaceOnUse" xlink:href="#b" id="g" fy="48.19" fx="65.08" r="31" cy="48.19" cx="65.08"/></defs><linearGradient id="f" gradientTransform="matrix(.6757 0 0 .6757 -32.47 -1.133)" gradientUnits="userSpaceOnUse" x1="71.204" x2="71.204" y1="6.238" y2="44.341"><stop offset="0" stop-color="#fff"/><stop offset=".508" stop-color="#fff" stop-opacity=".235"/><stop offset=".835" stop-color="#fff" stop-opacity=".157"/><stop offset="1" stop-color="#fff" stop-opacity=".392"/></linearGradient><radialGradient id="d" cx="23.896" cy="3.99" gradientTransform="matrix(0 1.5836 -2.0903 0 24.34 -36.357)" gradientUnits="userSpaceOnUse" r="20.397"><stop offset="0" stop-color="#fff"/><stop offset=".262" stop-color="#ddd"/><stop offset=".661" stop-color="#abacae"/><stop offset="1" stop-color="#89898b"/></radialGradient><linearGradient id="e" gradientTransform="translate(.076 .076) scale(.6635)" gradientUnits="userSpaceOnUse" x1="18.379" x2="18.379" y1="44.98" y2="3.082"><stop offset="0" stop-color="#505050"/><stop offset="1" stop-color="#aaa"/></linearGradient><radialGradient id="c" cx="62.625" cy="4.625" gradientTransform="matrix(1.506 0 0 .3765 -78.306 26.26)" gradientUnits="userSpaceOnUse" r="10.625"><stop offset="0"/><stop offset="1" stop-opacity="0"/></radialGradient><path d="M32 28c0 2.21-7.163 4-16 4S0 30.21 0 28s7.163-4 16-4 16 1.79 16 4z" fill="url(#c)" fill-rule="evenodd" opacity=".3"/><path d="M16 2.502C8.552 2.502 2.502 8.552 2.502 16c0 7.448 6.05 13.498 13.498 13.498 7.448 0 13.498-6.05 13.498-13.498 0-7.448-6.05-13.498-13.498-13.498z" fill="url(#d)" stroke="url(#e)" stroke-linecap="round" stroke-linejoin="round" stroke-width="1.004"/><path d="M28.5 16c0 6.903-5.597 12.5-12.5 12.5-6.904 0-12.5-5.597-12.5-12.5C3.5 9.096 9.096 3.5 16 3.5c6.903 0 12.5 5.596 12.5 12.5z" fill="none" opacity=".8" stroke="url(#f)" stroke-linecap="round" stroke-linejoin="round"/><g color="#000"><path d="M11.5 23.5v-15l12 7.5z" style="isolation:auto;mix-blend-mode:normal" overflow="visible" solid-color="#000000" fill="url(#g)"/><path d="M11.5 23.5v-15l12 7.5z" style="isolation:auto;mix-blend-mode:normal" overflow="visible" opacity=".5" solid-color="#000000" fill="none" stroke="#004372" stroke-linecap="round" stroke-linejoin="round"/><path d="M12.5 10.17v11.645l8.88-5.813z" style="isolation:auto;mix-blend-mode:normal" overflow="visible" opacity=".6" solid-color="#000000" fill="none" stroke="url(#h)" stroke-width=".992"/></g></svg>