<svg xmlns="http://www.w3.org/2000/svg" xmlns:xlink="http://www.w3.org/1999/xlink" height="32" width="32"><defs><linearGradient id="h" gradientTransform="matrix(.04577 0 0 .00824 -.542 25.98)" gradientUnits="userSpaceOnUse" x1="302.857" x2="302.857" y1="366.648" y2="609.505"><stop offset="0" stop-opacity="0"/><stop offset=".5"/><stop offset="1" stop-opacity="0"/></linearGradient><radialGradient id="i" cx="605.714" cy="486.648" gradientTransform="matrix(-.01566 0 0 .00824 14.39 25.98)" gradientUnits="userSpaceOnUse" r="117.143" xlink:href="#a"/><radialGradient id="j" cx="605.714" cy="486.648" gradientTransform="matrix(.01566 0 0 .00824 17.61 25.98)" gradientUnits="userSpaceOnUse" r="117.143" xlink:href="#a"/><linearGradient id="k" gradientTransform="matrix(.62857 0 0 .6084 .914 -.535)" gradientUnits="userSpaceOnUse" x1="25.132" x2="25.132" y1=".985" y2="47.013"><stop offset="0" stop-color="#f4f4f4"/><stop offset="1" stop-color="#dbdbdb"/></linearGradient><linearGradient id="l" gradientTransform="matrix(.56757 0 0 .72973 2.378 -2.514)" gradientUnits="userSpaceOnUse" x1="24" x2="24" y1="6.185" y2="41.815"><stop offset="0" stop-color="#fff"/><stop offset="0" stop-color="#fff" stop-opacity=".235"/><stop offset="1" stop-color="#fff" stop-opacity=".157"/><stop offset="1" stop-color="#fff" stop-opacity=".392"/></linearGradient><linearGradient id="m" gradientTransform="matrix(.53064 0 0 .5897 39.27 -1.792)" gradientUnits="userSpaceOnUse" x1="-51.786" x2="-51.786" y1="50.786" y2="2.906"><stop offset="0" stop-opacity=".318"/><stop offset="1" stop-opacity=".24"/></linearGradient><linearGradient id="n" gradientUnits="userSpaceOnUse" x1="-7.661" x2="-7.661" y1="9.743" y2="30.743" gradientTransform="translate(0 -3.5)"><stop offset="0" stop-color="#90dbec"/><stop offset=".262" stop-color="#55c1ec"/><stop offset=".705" stop-color="#3689e6"/><stop offset="1" stop-color="#2b63a0"/></linearGradient></defs><linearGradient id="a"><stop offset="0"/><stop offset="1" stop-opacity="0"/></linearGradient><radialGradient id="c" cx="1120.375" cy="394.781" gradientTransform="matrix(1.01818 0 0 .14545 -1124.708 -26.392)" gradientUnits="userSpaceOnUse" r="20.625" xlink:href="#a"/><linearGradient id="d" gradientTransform="matrix(9.38854 0 0 .22354 -10.71 -52.755)" gradientUnits="userSpaceOnUse" x1=".612" x2="5.086" xlink:href="#b" y1="372.578" y2="372.578"/><linearGradient id="b"><stop offset="0" stop-color="#474747" stop-opacity="0"/><stop offset=".1" stop-color="#474747"/><stop offset=".9" stop-color="#474747"/><stop offset="1" stop-color="#474747" stop-opacity="0"/></linearGradient><linearGradient id="e" gradientTransform="matrix(9.38854 0 0 .22354 -10.71 -46.835)" gradientUnits="userSpaceOnUse" x1=".612" x2="5.086" xlink:href="#b" y1="372.578" y2="372.578"/><linearGradient id="f" gradientTransform="matrix(3.1119 0 0 .09124 -10.892 18.78)" gradientUnits="userSpaceOnUse" x1="1.642" x2="15.343" y1="117.827" y2="117.827"><stop offset="0" stop-color="#fff" stop-opacity="0"/><stop offset=".108" stop-color="#d9d9d9"/><stop offset=".921" stop-color="#d9d9d9"/><stop offset="1" stop-color="#fff" stop-opacity="0"/></linearGradient><linearGradient id="g" gradientTransform="matrix(.73128 0 0 .697 -1.095 -.848)" gradientUnits="userSpaceOnUse" x1="23.1" x2="23.144" y1="38.297" y2="46.038"><stop offset="0" stop-color="#7a7a7a"/><stop offset=".198" stop-color="#ebebeb"/><stop offset=".599" stop-color="#b9b9b9"/><stop offset="1" stop-color="#878787"/></linearGradient><path d="M37.037 31.03c-.004 4-41.997 4-42 0-.004-4 42.003-4 42 0z" fill="url(#c)" fill-rule="evenodd" opacity=".3" transform="matrix(.66272 0 0 1 5.242 -2)"/><path d="M-4.963 30.03h42v1h-42z" display="block" fill="url(#d)" opacity=".65" transform="matrix(.66272 0 0 1 5.242 -2)"/><path d="M-4.963 28.03h42v1h-42z" display="block" fill="url(#e)" opacity=".65" transform="matrix(.66272 0 0 1 5.242 -2)"/><path d="M-5.213 29.03h41.5v1h-41.5z" display="block" fill="url(#f)" transform="matrix(.66272 0 0 1 5.242 -2)"/><path d="M14.537 23.53h3v2h-3z" fill="#d9d9d9" stroke="#828282"/><path d="M13.815 25.53h-1.233c-.582 0-1.045.428-1.045.965v2.07c0 .538.463.965 1.045.965h6.91c.582 0 1.045-.427 1.045-.964v-2.07c0-.538-.463-.965-1.046-.965h-.82z" display="block" fill="url(#g)" stroke="#5a5c58"/><path d="M13.537 26.28H19.5c.277 0 .5.16.5.36v1c0 .2-.223.36-.5.36h-5.963c-.277 0-.5-.16-.5-.36v-1c0-.2.223-.36.5-.36z" display="block" fill="#fff" fill-opacity=".72"/><path d="M14.287 27.03c0 1-1.5 1-1.5 0s1.5-1 1.5 0z" display="block" fill="#fff" fill-opacity=".72"/><g><path d="M4.95 29h22.1v2H4.95z" opacity=".15" fill="url(#h)"/><path d="M4.95 29v2c-.807.004-1.95-.448-1.95-1s.9-1 1.95-1z" opacity=".15" fill="url(#i)"/><path d="M27.05 29v2c.807.004 1.95-.448 1.95-1s-.9-1-1.95-1z" opacity=".15" fill="url(#j)"/><path d="M5 1l22 .002V23H5V1z" fill="url(#k)"/><path d="M26.5 22.5h-21v-21h21z" fill="none" stroke="url(#l)" stroke-linecap="round"/><g stroke-linejoin="round"><path d="M4.5.5l23 .002V23.5h-23V.5z" fill="none" stroke="url(#m)"/><path d="M22 12l-6 6.5-6-6.5h4.508V5.5h2.99V12z" fill="url(#n)" stroke="#559ac6" stroke-linecap="round"/></g></g></svg>