<svg xmlns="http://www.w3.org/2000/svg" xmlns:xlink="http://www.w3.org/1999/xlink" height="32" width="32"><defs><linearGradient id="k" gradientTransform="matrix(.0352 0 0 .00824 -.725 26.98)" gradientUnits="userSpaceOnUse" x1="302.857" x2="302.857" y1="366.648" y2="609.505"><stop offset="0" stop-opacity="0"/><stop offset=".5"/><stop offset="1" stop-opacity="0"/></linearGradient><radialGradient id="l" cx="605.714" cy="486.648" gradientTransform="matrix(-.01205 0 0 .00824 10.76 26.98)" gradientUnits="userSpaceOnUse" r="117.143" xlink:href="#c"/><linearGradient id="c"><stop offset="0"/><stop offset="1" stop-opacity="0"/></linearGradient><radialGradient id="m" cx="605.714" cy="486.648" gradientTransform="matrix(.01205 0 0 .00824 13.24 26.98)" gradientUnits="userSpaceOnUse" r="117.143" xlink:href="#c"/><linearGradient id="n" gradientTransform="matrix(.45714 0 0 .43457 1.03 8.904)" gradientUnits="userSpaceOnUse" x1="25.132" x2="25.132" y1=".985" y2="47.013"><stop offset="0" stop-color="#f4f4f4"/><stop offset="1" stop-color="#dbdbdb"/></linearGradient><linearGradient id="o" gradientTransform="matrix(.4054 0 0 .5135 2.27 7.676)" gradientUnits="userSpaceOnUse" x1="24" x2="24" y1="6.583" y2="41.507"><stop offset="0" stop-color="#fff"/><stop offset=".012" stop-color="#fff" stop-opacity=".235"/><stop offset=".989" stop-color="#fff" stop-opacity=".157"/><stop offset="1" stop-color="#fff" stop-opacity=".392"/></linearGradient><linearGradient gradientTransform="translate(0 8)" id="p" gradientUnits="userSpaceOnUse" x1="16.57" x2="16.57" y1="1.607" y2="22.542"><stop offset="0" stop-opacity=".239"/><stop offset="1" stop-opacity=".318"/></linearGradient><linearGradient gradientTransform="translate(0 8)" id="q" gradientUnits="userSpaceOnUse" x1="11.99" x2="11.735" y1="4.85" y2="29.718"><stop offset="0" stop-color="#90dbec"/><stop offset=".262" stop-color="#55c1ec"/><stop offset=".705" stop-color="#3689e6"/><stop offset="1" stop-color="#2b63a0"/></linearGradient><linearGradient gradientTransform="translate(0 8)" id="r" gradientUnits="userSpaceOnUse" x1="11.704" x2="11.704" y1="19.199" y2="12.501"><stop offset="0" stop-color="#fff"/><stop offset="1" stop-color="#fff" stop-opacity="0"/></linearGradient></defs><linearGradient id="d"><stop offset="0"/><stop offset="1" stop-opacity="0"/></linearGradient><linearGradient id="e" gradientTransform="matrix(.0845 0 0 .0123 -6.54 38.47)" gradientUnits="userSpaceOnUse" x1="302.857" x2="302.857" y1="366.648" y2="609.505"><stop offset="0" stop-opacity="0"/><stop offset=".5"/><stop offset="1" stop-opacity="0"/></linearGradient><radialGradient id="f" cx="605.714" cy="486.648" gradientTransform="matrix(-.0193 0 0 .0165 16.018 20.96)" gradientUnits="userSpaceOnUse" r="117.143" xlink:href="#d"/><radialGradient id="g" cx="605.714" cy="486.648" gradientTransform="matrix(.0193 0 0 .0165 13.982 20.96)" gradientUnits="userSpaceOnUse" r="117.143" xlink:href="#d"/><linearGradient id="i" gradientTransform="matrix(.7152 0 0 .5084 47.363 .524)" gradientUnits="userSpaceOnUse" x1="-67.622" x2="-18.684" y1="28.48" y2="28.48"><stop offset="0" stop-opacity=".318"/><stop offset="1" stop-opacity=".24"/></linearGradient><linearGradient id="j" gradientTransform="matrix(.7838 0 0 .6216 -2.81 .08)" gradientUnits="userSpaceOnUse" x1="39.467" x2="4.861" y1="25.46" y2="25.614"><stop offset="0" stop-color="#fff"/><stop offset=".036" stop-color="#fff" stop-opacity=".235"/><stop offset=".951" stop-color="#fff" stop-opacity=".157"/><stop offset="1" stop-color="#fff" stop-opacity=".392"/></linearGradient><linearGradient id="h" gradientTransform="matrix(.857 0 0 .5215 -4.57 1.684)" gradientUnits="userSpaceOnUse" x1="37.946" x2="4.725" y1="27.247" y2="28.292"><stop offset="0" stop-color="#f4f4f4"/><stop offset="1" stop-color="#dbdbdb"/></linearGradient><linearGradient id="b" gradientTransform="matrix(.1088 0 0 .1085 26.793 11.848)" gradientUnits="userSpaceOnUse" x1="-184.924" x2="-175.253" y1="113.979" y2="88.801"><stop offset="0" stop-color="#7a0f01"/><stop offset="1" stop-color="#d31807"/></linearGradient><linearGradient id="a" gradientTransform="matrix(.1102 .0085 -.009 .1038 31.66 14.157)" gradientUnits="userSpaceOnUse" x1="-211.289" x2="-208.497" y1="88.75" y2="75.191"><stop offset="0" stop-color="#ec4502"/><stop offset="1" stop-color="#fe7617"/></linearGradient><g opacity=".4"><path fill="url(#e)" d="M6.6 43h31.8v3H6.6z" transform="matrix(.6667 0 0 1.3333 1 -29.333)"/><path transform="translate(1 1)" fill="url(#f)" d="M4.4 27v4c-.993.008-2.4-.896-2.4-2s1.108-2 2.4-2z"/><path transform="translate(1 1)" fill="url(#g)" d="M25.6 27v4c.993.008 2.4-.896 2.4-2s-1.108-2-2.4-2z"/></g><path fill="url(#h)" d="M1 5l28 .002V27H1z" transform="rotate(-90 15.5 15.5)"/><path stroke-linejoin="round" stroke="url(#i)" fill="none" d="M.5 4.5l29 .002V27.5H.5z" transform="rotate(-90 15.5 15.5)"/><path stroke-linejoin="round" stroke-linecap="round" stroke="url(#j)" fill="none" d="M28.5 26.5h-27v-21h27z" transform="rotate(-90 15.5 15.5)"/><path d="M3.5 30h17v2h-17z" opacity=".15" fill="url(#k)" transform="translate(11 1)"/><path d="M3.5 30v2c-.62.004-1.5-.448-1.5-1s.692-1 1.5-1z" opacity=".15" fill="url(#l)" transform="translate(11 1)"/><path d="M20.5 30v2c.62.004 1.5-.448 1.5-1s-.692-1-1.5-1z" opacity=".15" fill="url(#m)" transform="translate(11 1)"/><path d="M4 10h16v20H4V10z" fill="url(#n)" transform="translate(11 1)"/><path d="M19.5 29.5h-15v-19h15z" fill="none" stroke="url(#o)" stroke-linecap="round" transform="translate(11 1)"/><path d="M3.5 9.5h17v21h-17v-21z" fill="none" stroke="url(#p)" stroke-linejoin="round" transform="translate(11 1)"/><path d="M16.5 20.522l-4.5 5-4.5-5h3V15.5h3v5.022z" fill="url(#q)" stroke="#559ac6" stroke-linecap="round" stroke-linejoin="round" transform="translate(11 1)"/><path d="M10.28 14.468c-.596.112-.915.737-.843 1.304v3.697c-.58.034-2.26-.15-2.71.327-.465.452-.353 1.232.12 1.63 1.474 1.633 2.94 3.272 4.415 4.9.474.476 1.303.332 1.665-.206 1.482-1.653 2.98-3.294 4.452-4.956.512-.66-.044-1.735-.88-1.696H14.56c-.005-1.016.01-3.032-.007-4.047-.052-.633-.698-1.034-1.297-.954h-2.98z" opacity=".6" fill="none" stroke="url(#r)" stroke-linecap="round" transform="translate(11 1)"/></svg>