<svg xmlns="http://www.w3.org/2000/svg" xmlns:xlink="http://www.w3.org/1999/xlink" height="32" width="32"><defs><linearGradient gradientTransform="matrix(0 -.71625 .76905 0 -34.83 43.993)" gradientUnits="userSpaceOnUse" xlink:href="#a" id="r" y2="46.971" x2="18.681" y1="46.971" x1="40.958"/><linearGradient id="a"><stop offset="0" stop-color="#fff"/><stop offset=".45" stop-color="#fff" stop-opacity=".235"/><stop offset=".65" stop-color="#fff" stop-opacity=".157"/><stop offset="1" stop-color="#fff" stop-opacity=".392"/></linearGradient><linearGradient gradientUnits="userSpaceOnUse" y2="17.211" x2="17.151" y1="5.88" x1="17.151" id="q" xlink:href="#b" gradientTransform="matrix(-1.3333 0 0 1.3333 31.833 6.84)"/><linearGradient id="b" gradientTransform="matrix(.4922 0 0 .4584 4.51 11.206)" gradientUnits="userSpaceOnUse" x1="23.732" x2="23.732" y1="5.394" y2="39.735"><stop offset="0" stop-color="#90dbec"/><stop offset=".262" stop-color="#55c1ec"/><stop offset=".705" stop-color="#3689e6"/><stop offset="1" stop-color="#2b63a0"/></linearGradient><radialGradient gradientTransform="matrix(.368 0 0 -.3944 -.597 39.932)" gradientUnits="userSpaceOnUse" xlink:href="#c" id="p" fy="36.421" fx="24.837" r="15.645" cy="36.421" cx="24.837"/><linearGradient id="c"><stop offset="0"/><stop offset="1" stop-opacity="0"/></linearGradient></defs><linearGradient id="m" gradientTransform="matrix(.458 0 0 .439 -31.62 14.933)" gradientUnits="userSpaceOnUse" spreadMethod="reflect" x1="102.308" x2="102.308" y1="-2.393" y2="-24.582"><stop offset="0" stop-color="#a5a6a8"/><stop offset="1" stop-color="#e8e8e8"/></linearGradient><linearGradient id="n" gradientTransform="matrix(.458 0 0 .439 -31.62 14.933)" gradientUnits="userSpaceOnUse" x1="109.956" x2="109.956" y1="-24.911" y2="-2.376"><stop offset="0" stop-color="#b3b3b3"/><stop offset="1" stop-color="#dadada"/></linearGradient><linearGradient id="k" gradientTransform="matrix(.4578 0 0 .4323 -31.592 18.912)" gradientUnits="userSpaceOnUse" spreadMethod="reflect" x1="103.95" x2="89.424" xlink:href="#d" y1="-7.666" y2="-7.666"/><linearGradient id="d"><stop offset="0" stop-color="#868688"/><stop offset="1" stop-color="#d9d9da"/></linearGradient><linearGradient id="l" gradientUnits="userSpaceOnUse" x1="10.861" x2="10.861" xlink:href="#e" y1="12.991" y2="18"/><linearGradient id="e"><stop offset="0" stop-color="#a0a0a0"/><stop offset="1" stop-color="#4a4a4a"/></linearGradient><linearGradient id="i" gradientTransform="matrix(.4578 0 0 .4323 -31.592 24.912)" gradientUnits="userSpaceOnUse" spreadMethod="reflect" x1="103.95" x2="89.424" xlink:href="#d" y1="-7.666" y2="-7.666"/><linearGradient id="j" gradientUnits="userSpaceOnUse" x1="10.861" x2="10.861" xlink:href="#e" y1="18.991" y2="24"/><linearGradient id="g" gradientTransform="matrix(.4578 0 0 .4323 -31.592 30.912)" gradientUnits="userSpaceOnUse" spreadMethod="reflect" x1="103.95" x2="89.424" xlink:href="#d" y1="-7.666" y2="-7.666"/><linearGradient id="h" gradientUnits="userSpaceOnUse" x1="10.861" x2="10.861" xlink:href="#e" y1="24.991" y2="30"/><linearGradient id="o" gradientTransform="matrix(.6 0 0 .6053 1.6 2.17)" gradientUnits="userSpaceOnUse" x1="21.381" x2="21.381" y1="5.052" y2="44.137"><stop offset="0" stop-color="#fff"/><stop offset=".081" stop-color="#fff" stop-opacity=".235"/><stop offset=".923" stop-color="#fff" stop-opacity=".157"/><stop offset="1" stop-color="#fff" stop-opacity=".392"/></linearGradient><radialGradient id="f" cx="23.335" cy="41.636" gradientTransform="matrix(.5745 0 0 .221 2.594 17.8)" gradientUnits="userSpaceOnUse" r="22.627"><stop offset="0"/><stop offset="1" stop-opacity="0"/></radialGradient><path d="M29 27c0 2.76-5.82 5-13 5S3 29.76 3 27s5.82-5 13-5 13 2.24 13 5z" fill="url(#f)" fill-rule="evenodd" opacity=".3"/><path d="M27.49 25.068c0 2.446-5.15 4.432-11.493 4.432S4.505 27.514 4.505 25.068c.114-5.47-1.405-4.34 11.492-4.433 13.193-.095 11.33-1.126 11.493 4.433z" fill="url(#g)" stroke="url(#h)"/><path d="M27.5 21c0 2.485-5.15 4.5-11.5 4.5S4.5 23.485 4.5 21s5.15-4.5 11.5-4.5 11.5 2.015 11.5 4.5z" fill="#868688" stroke="#d8d8d8"/><path d="M27.49 19.068c0 2.446-5.15 4.432-11.493 4.432S4.505 21.514 4.505 19.068c.114-5.47-1.405-4.34 11.492-4.433 13.193-.095 11.33-1.126 11.493 4.433z" fill="url(#i)" stroke="url(#j)"/><path d="M27.5 15c0 2.485-5.15 4.5-11.5 4.5S4.5 17.485 4.5 15s5.15-4.5 11.5-4.5 11.5 2.015 11.5 4.5z" fill="#868688" stroke="#d8d8d8"/><path d="M27.49 13.068c0 2.446-5.15 4.432-11.493 4.432S4.505 15.514 4.505 13.068c.114-5.47-1.405-4.34 11.492-4.432C29.19 8.54 27.327 7.51 27.49 13.068z" fill="url(#k)" stroke="url(#l)"/><path d="M27.5 9c0 2.485-5.15 4.5-11.5 4.5S4.5 11.485 4.5 9 9.65 4.5 16 4.5 27.5 6.515 27.5 9z" fill="url(#m)" stroke="url(#n)"/><rect fill="none" height="23" opacity=".5" rx="17.5" ry="4" stroke="url(#o)" width="21" x="5.5" y="5.5"/><path overflow="visible" d="M14.302 25.23c0-8.23-11.51-8.23-11.514 0 0 3.407 2.573 6.507 5.752 6.507 3.177 0 5.76-3.1 5.76-6.506z" opacity=".141" fill="url(#p)" fill-rule="evenodd"/><path overflow="visible" display="block" d="M8.502 29.467l9.2-7.472-9.202-7.35v4.864h-8l.004 4.997h8z" color="#000" fill="url(#q)"/><path stroke-miterlimit="7" overflow="visible" display="block" d="M9.836 26.652l5.777-4.657-5.78-4.587v3.435h-8l.004 2.33h8z" color="#000" opacity=".401" fill="none" stroke="url(#r)"/><path overflow="visible" d="M8.502 29.467l9.2-7.472-9.202-7.35v4.864h-8l.004 4.997h8z" style="isolation:auto;mix-blend-mode:normal" color="#000" opacity=".5" solid-color="#000000" fill="none" stroke="#004372" stroke-linejoin="round"/></svg>