<svg xmlns="http://www.w3.org/2000/svg" xmlns:xlink="http://www.w3.org/1999/xlink" height="32" viewBox="0 0 8.4666665 8.4666668" width="32"><defs><linearGradient id="a"><stop offset="0" stop-color="#fff"/><stop offset=".429" stop-color="#fff" stop-opacity=".235"/><stop offset=".75" stop-color="#fff" stop-opacity=".157"/><stop offset="1" stop-color="#fff" stop-opacity=".392"/></linearGradient><linearGradient id="b"><stop offset="0" stop-color="#fff"/><stop offset=".5" stop-color="#fff" stop-opacity=".235"/><stop offset=".75" stop-color="#fff" stop-opacity=".157"/><stop offset="1" stop-color="#fff" stop-opacity=".392"/></linearGradient><linearGradient id="c"><stop offset="0" stop-color="#fff"/><stop offset="0" stop-color="#fff" stop-opacity=".235"/><stop offset=".539" stop-color="#fff" stop-opacity=".157"/><stop offset="1" stop-color="#fff" stop-opacity=".392"/></linearGradient><linearGradient id="d"><stop offset="0" stop-color="#64baff"/><stop offset="1" stop-color="#3689e6"/></linearGradient><linearGradient id="e"><stop offset="0" stop-color="#3d3d3d"/><stop offset=".5" stop-color="#686868" stop-opacity=".498"/><stop offset="1" stop-color="#686868" stop-opacity="0"/></linearGradient><linearGradient id="f"><stop offset="0"/><stop offset="1" stop-opacity="0"/></linearGradient><radialGradient id="m" cx="17.814" cy="24.149" gradientTransform="matrix(-2.61 0 0 2.5017 55.337 -55.274)" gradientUnits="userSpaceOnUse" r="9.125"><stop offset="0" stop-color="#fff"/><stop offset="1" stop-color="#b6b6b6"/></radialGradient><linearGradient id="n" gradientUnits="userSpaceOnUse" x1="15.422" x2="17.753" y1="3.426" y2="30.176"><stop offset="0" stop-color="#fff"/><stop offset="1" stop-color="#fff" stop-opacity="0"/></linearGradient></defs><linearGradient id="l" gradientTransform="matrix(.2728 0 0 .308 -.107 290.402)" gradientUnits="userSpaceOnUse" x1="11.001" x2="11.001" xlink:href="#g" y1="2.269" y2="19.728"/><linearGradient id="g"><stop offset="0" stop-color="#fff"/><stop offset=".063" stop-color="#fff" stop-opacity=".235"/><stop offset=".951" stop-color="#fff" stop-opacity=".157"/><stop offset="1" stop-color="#fff" stop-opacity=".392"/></linearGradient><linearGradient id="k" gradientTransform="matrix(.2745 0 0 .2807 -.113 290.553)" gradientUnits="userSpaceOnUse" x1="8.295" x2="8.295" y1="-4.284" y2="16.85"><stop offset="0" stop-color="#cdf87e"/><stop offset=".262" stop-color="#a2e34f"/><stop offset=".661" stop-color="#68b723"/><stop offset="1" stop-color="#1d7e0d"/></linearGradient><linearGradient id="j" gradientTransform="matrix(.1323 0 0 .066 -.265 291.444)" gradientUnits="userSpaceOnUse" x1="23.954" x2="23.954" y1="15.999" y2="19.963"><stop offset="0"/><stop offset="1" stop-opacity="0"/></linearGradient><linearGradient id="i" gradientTransform="matrix(.1347 0 0 .1464 -.198 290.374)" gradientUnits="userSpaceOnUse" x1="24" x2="24" xlink:href="#g" y1="5" y2="43"/><linearGradient id="h" gradientTransform="matrix(.118 0 0 .119 .212 290.644)" gradientUnits="userSpaceOnUse" x1="25.132" x2="25.132" y1="15.5" y2="48.396"><stop offset="0" stop-color="#fafafa"/><stop offset="1" stop-color="#e2e1de"/></linearGradient><g transform="matrix(1.3333 0 0 1.3333 .176 -387.532)"><rect height="5.556" rx=".198" width="1.191" x=".463" y="291.047" fill="url(#h)"/><path d="M.543 291.18l.896-.132.016 5.555-.896.132z" fill="none" stroke="url(#i)" stroke-width=".201" stroke-linecap="round" stroke-linejoin="round"/><path d="M.265 292.436H5.82v.198H.266z" fill="url(#j)" opacity=".15"/><path d="M.364 292.24l-.005 4.143c0 .152.154.317.306.317h.87" opacity=".3" fill="none" stroke="#000" stroke-width=".201"/><path d="M1.455 292.436h.2v4.167h-.2zm-.992.794h.992v.198H.463zM1.654 293.23v.198zm-1.19 1.19h.99v.2h-.99zm1.19 0v.2zm-1.19 1.19h.99v.2h-.99zm1.19 0v.2z" opacity=".321"/><path d="M.592 290.944c-.158 0-.226.17-.226.33v.964H5.72v-.963c0-.162-.118-.322-.276-.322z" fill="url(#k)"/><path d="M.68 290.948c-.152 0-.316.184-.316.336v1.048l5.357.004v-1.055c0-.15-.143-.33-.295-.33z" fill="none" opacity=".4" stroke="#126400" stroke-linecap="round" stroke-width=".201"/><path d="M.56 291.14l.002 1.002 4.975.01v-1.002z" opacity=".5" fill="none" stroke-width=".201" stroke-linecap="round" stroke-linejoin="round" stroke="url(#l)"/><path d="M1.455 291.047h.2v1.19h-.2zm1.39 0h.2v1.19h-.2zm1.388 0h.2v1.19h-.2z" fill="#126400" opacity=".4"/></g><g stroke-width="1.279"><path d="M7.733 2.89l16.78 16.286-7.65.246 3.21 6.663c.986 2.962-3.456 4.072-4.196 1.85l-2.962-6.662-5.43 5.8z" transform="matrix(.207 0 0 .207 2.735 2.312)" fill="url(#m)" fill-rule="evenodd" stroke="#666" stroke-linejoin="round"/><path d="M9.27 6.313c-.126.004-.238.118-.24.244l-.28 16.617c0 .098.062.193.152.23.09.038.205.016.274-.054l3.793-3.846a.308.308 0 0 1 .5.09l3.525 7.773c.11.245.366.427.586.477.244.053.478.012.698-.09a.308.308 0 0 1 0-.002c.22-.1.405-.253.52-.48.107-.21.13-.527.013-.786l-3.46-7.66a.308.308 0 0 1 .263-.435l5.266-.286a.308.308 0 0 1 .002 0c.096-.005.185-.07.22-.16.032-.09.01-.198-.06-.265L9.45 6.38c-.047-.044-.112-.068-.177-.067z" transform="matrix(.207 0 0 .207 2.735 2.312)" fill="none" stroke="url(#n)" stroke-opacity=".787"/></g></svg>