<svg xmlns="http://www.w3.org/2000/svg" xmlns:xlink="http://www.w3.org/1999/xlink" height="32" width="32" version="1"><defs><radialGradient id="h" gradientUnits="userSpaceOnUse" cy="486.65" cx="605.71" gradientTransform="matrix(-.06553 0 0 .0247 -21.83 10.577)" r="117.14"><stop offset="0" stop-color="#1e1e1e"/><stop offset="1" stop-color="#1e1e1e" stop-opacity="0"/></radialGradient><radialGradient id="g" gradientUnits="userSpaceOnUse" cy="486.65" cx="605.71" gradientTransform="matrix(.06553 0 0 .0247 -69.175 10.577)" r="117.14"><stop offset="0" stop-color="#1e1e1e"/><stop offset="1" stop-color="#1e1e1e" stop-opacity="0"/></radialGradient><linearGradient id="f" y2="609.51" gradientUnits="userSpaceOnUse" x2="302.86" gradientTransform="matrix(.06553 0 0 .0247 -69.188 10.577)" y1="366.65" x1="302.86"><stop offset="0" stop-color="#1e1e1e" stop-opacity="0"/><stop offset=".5" stop-color="#1e1e1e"/><stop offset="1" stop-color="#1e1e1e" stop-opacity="0"/></linearGradient><linearGradient id="j" y2="14.038" gradientUnits="userSpaceOnUse" x2="28.103" gradientTransform="matrix(.46667 0 0 .50064 .8 -3.725)" y1="45" x1="28.103"><stop offset="0" stop-color="#727272"/><stop offset="1" stop-color="#bebebe"/></linearGradient><linearGradient id="i" y2="45.6" gradientUnits="userSpaceOnUse" x2="19.875" gradientTransform="matrix(.46667 0 0 .45455 .8 -1.673)" y1="8.163" x1="20.053"><stop offset="0" stop-color="#fff"/><stop offset=".874" stop-color="#cfcfcf"/><stop offset="1" stop-color="#999"/></linearGradient><linearGradient id="k" y2="44.001" gradientUnits="userSpaceOnUse" x2="25.577" gradientTransform="matrix(.44186 0 0 .4643 1.395 -2.642)" y1="15" x1="25.577"><stop offset="0" stop-color="#fff"/><stop offset="1" stop-color="#fff" stop-opacity="0"/></linearGradient><linearGradient id="l" y2="45.531" xlink:href="#a" gradientUnits="userSpaceOnUse" x2="23.929" gradientTransform="matrix(.46574 0 0 .4851 .822 -3.048)" y1="30.773" x1="23.929"/><linearGradient id="a"><stop offset="0" stop-color="#1e1e1e"/><stop offset="1" stop-color="#1e1e1e" stop-opacity="0"/></linearGradient><linearGradient id="m" y2="16.007" xlink:href="#a" gradientUnits="userSpaceOnUse" x2="23.904" gradientTransform="matrix(.46574 0 0 .4851 .822 -1.414)" y1="35.75" x1="23.904"/><linearGradient id="b"><stop offset="0" stop-opacity="0"/><stop offset=".5"/><stop offset="1" stop-opacity="0"/></linearGradient><linearGradient id="c"><stop offset="0"/><stop offset="1" stop-opacity="0"/></linearGradient><linearGradient id="d"><stop offset="0" stop-color="#f4f4f4"/><stop offset="1" stop-color="#dbdbdb"/></linearGradient><linearGradient id="e"><stop offset="0" stop-color="#fff"/><stop offset="0" stop-color="#fff" stop-opacity=".235"/><stop offset="1" stop-color="#fff" stop-opacity=".157"/><stop offset="1" stop-color="#fff" stop-opacity=".392"/></linearGradient></defs><g transform="translate(0 -.938) scale(1.33333)"><g stroke-width="1.03"><path opacity=".402" fill="url(#f)" d="M-61.324 19.636h31.644v6h-31.644z" transform="matrix(.5004 0 0 .5 34.77 7.636)"/><path d="M-29.68 19.636v6c3.375.01 8.16-1.344 8.16-3s-3.767-3-8.16-3z" opacity=".402" fill="url(#g)" transform="matrix(.5004 0 0 .5 34.77 7.636)"/><path d="M-61.324 19.636v6c-3.375.01-8.16-1.344-8.16-3s3.767-3 8.16-3z" opacity=".402" fill="url(#h)" transform="matrix(.5004 0 0 .5 34.77 7.636)"/></g><rect rx=".467" ry=".406" height="12.711" width="20.268" y="5.599" x="1.888" fill="url(#i)" fill-rule="evenodd" stroke="url(#j)" stroke-width=".75" stroke-linecap="square" stroke-linejoin="round"/><rect rx=".036" ry=".035" height="11.141" width="19" y="6.413" x="2.5" opacity=".4" fill="none" stroke="url(#k)" stroke-linecap="square"/><path d="M8.622 13.067L2.66 18.132m12.81-5.245l6.195 5.294" opacity=".5" fill="none" stroke="url(#l)" stroke-width=".75"/><path d="M2.337 6.2L12 15.336l9.742-9.087" opacity=".5" fill="none" stroke="url(#m)" stroke-width=".75"/></g></svg>