<svg xmlns="http://www.w3.org/2000/svg" xmlns:xlink="http://www.w3.org/1999/xlink" height="32" viewBox="0 0 8.4666665 8.4666668" width="32"><defs><linearGradient id="c"><stop offset="0"/><stop offset="1" stop-opacity="0"/></linearGradient><linearGradient id="a"><stop offset="0" stop-color="#fff"/><stop offset=".273" stop-color="#fff" stop-opacity=".235"/><stop offset=".818" stop-color="#fff" stop-opacity=".157"/><stop offset="1" stop-color="#fff" stop-opacity=".392"/></linearGradient><linearGradient id="b"><stop offset="0" stop-color="#cd9ef7"/><stop offset="1" stop-color="#a56de2"/></linearGradient><radialGradient gradientTransform="matrix(-.0974 0 0 -.1044 8.36 8.45)" gradientUnits="userSpaceOnUse" xlink:href="#c" id="g" fy="36.421" fx="24.837" r="15.645" cy="36.421" cx="24.837"/><linearGradient id="h" gradientUnits="userSpaceOnUse" x1="13.09" x2="15.404" y1=".185" y2="31.771"><stop offset="0" stop-color="#cdf87e"/><stop offset=".262" stop-color="#a2e34f"/><stop offset=".661" stop-color="#68b723"/><stop offset="1" stop-color="#1d7e0d"/></linearGradient><linearGradient id="i" gradientUnits="userSpaceOnUse" x1="13.663" x2="13.663" y1="2.669" y2="30.502"><stop offset="0" stop-color="#fff"/><stop offset="1" stop-color="#fff" stop-opacity="0"/></linearGradient></defs><linearGradient id="d"><stop offset="0" stop-color="#fff"/><stop offset=".063" stop-color="#fff" stop-opacity=".235"/><stop offset=".951" stop-color="#fff" stop-opacity=".157"/><stop offset="1" stop-color="#fff" stop-opacity=".392"/></linearGradient><linearGradient id="f" gradientTransform="matrix(.1796 0 0 .1952 -.087 -.368)" gradientUnits="userSpaceOnUse" x1="24" x2="24" xlink:href="#d" y1="5" y2="43"/><linearGradient id="e" gradientTransform="matrix(.5946 0 0 .5997 1.738 -.03)" gradientUnits="userSpaceOnUse" x1="25.132" x2="25.132" y1="15.5" y2="48.396"><stop offset="0" stop-color="#fafafa"/><stop offset="1" stop-color="#e2e1de"/></linearGradient><path transform="translate(0 -1.058) scale(.2646)" d="M3 13v5.002c0 .553.445.998.998.998h24.004c.553 0 .998-.445.998-.998V13z" fill="url(#e)"/><path d="M.53 2.382v1.852h.264V2.382zm.266 0v.263H2.38l.002 1.324v.265h1.852V3.97H2.648l-.002-1.324H4.23v1.588h.27v.002h3.173v-.002h.264V2.382zM2.382 3.97H.796v.266h1.586zM4.5 2.645h1.586V3.97H4.5zm1.853 0h1.32V3.97h-1.32z" opacity=".321"/><path d="M.9 3.848H7.52l.048 1.047H.925z" fill="none" stroke="url(#f)" stroke-width=".268" stroke-linecap="round" stroke-linejoin="round" transform="translate(0 -1.058)"/><path overflow="visible" d="M4.418 4.56c0-2.178 3.046-2.178 3.047 0 0 .9-.68 1.72-1.522 1.72-.84 0-1.524-.82-1.524-1.72z" transform="rotate(-90 7.144 4.763)" opacity=".141" fill="url(#g)" fill-rule="evenodd"/><g stroke-width="1.272" stroke-linecap="round" stroke-linejoin="round"><path d="M22.47 2.316c-.373-.038-.744.145-.936.496l-8.17 14.947-5.25-4.18c-.47-.255-1.052-.09-1.308.377L4.45 16.982c-.255.468-.083 1.05.385 1.307 0 0 9.59 7.92 9.6 7.924.11.06.226.09.342.105.38.05.77-.13.966-.49L26.76 5.675c.257-.468.085-1.05-.383-1.307l-3.535-1.94c-.117-.063-.247-.1-.37-.11z" transform="matrix(.208 0 0 .208 2.618 2.654)" fill="url(#h)" stroke="#699536"/><path d="M21.958 3.463l-4.14 7.604-3.688 6.708c-.12.12-.082.502-.6.635-.36.092-.426-.042-.804-.285l-4.634-3.662c-.515-.414-.5-.393-.865-.025l-1.86 2.348c-.5.536-.424.86.2 1.26 0 0 8.72 7.187 8.73 7.192.105.057.06.076.506.386.286.198.54-.432.723-.77l10.6-19.342c.24-.44.222-.434-.22-.676L22.744 3.16c-.456-.248-.458-.245-.786.303z" transform="matrix(.208 0 0 .208 2.618 2.654)" opacity=".4" fill="none" stroke="url(#i)"/></g></svg>