<svg xmlns="http://www.w3.org/2000/svg" xmlns:xlink="http://www.w3.org/1999/xlink" height="32" viewBox="0 0 8.4666665 8.4666668" width="32"><defs><linearGradient id="a"><stop offset="0" stop-color="#fff"/><stop offset=".45" stop-color="#fff" stop-opacity=".235"/><stop offset=".65" stop-color="#fff" stop-opacity=".157"/><stop offset="1" stop-color="#fff" stop-opacity=".392"/></linearGradient><linearGradient id="b" gradientTransform="matrix(.4922 0 0 .4584 4.51 11.206)" gradientUnits="userSpaceOnUse" x1="23.732" x2="23.732" y1="5.394" y2="39.735"><stop offset="0" stop-color="#90dbec"/><stop offset=".262" stop-color="#55c1ec"/><stop offset=".705" stop-color="#3689e6"/><stop offset="1" stop-color="#2b63a0"/></linearGradient><linearGradient id="c"><stop offset="0"/><stop offset="1" stop-opacity="0"/></linearGradient><linearGradient id="j" gradientUnits="userSpaceOnUse" x1="13.09" x2="15.404" y1=".185" y2="31.771"><stop offset="0" stop-color="#cdf87e"/><stop offset=".262" stop-color="#a2e34f"/><stop offset=".661" stop-color="#68b723"/><stop offset="1" stop-color="#1d7e0d"/></linearGradient><linearGradient id="k" gradientUnits="userSpaceOnUse" x1="13.663" x2="13.663" y1="2.669" y2="30.502"><stop offset="0" stop-color="#fff"/><stop offset="1" stop-color="#fff" stop-opacity="0"/></linearGradient></defs><linearGradient id="i" gradientTransform="matrix(.2728 0 0 .308 -.107 290.402)" gradientUnits="userSpaceOnUse" x1="11.001" x2="11.001" xlink:href="#d" y1="2.269" y2="19.728"/><linearGradient id="d"><stop offset="0" stop-color="#fff"/><stop offset=".063" stop-color="#fff" stop-opacity=".235"/><stop offset=".951" stop-color="#fff" stop-opacity=".157"/><stop offset="1" stop-color="#fff" stop-opacity=".392"/></linearGradient><linearGradient id="h" gradientTransform="matrix(.2745 0 0 .2807 -.113 290.553)" gradientUnits="userSpaceOnUse" x1="8.295" x2="8.295" y1="-4.284" y2="16.85"><stop offset="0" stop-color="#cdf87e"/><stop offset=".262" stop-color="#a2e34f"/><stop offset=".661" stop-color="#68b723"/><stop offset="1" stop-color="#1d7e0d"/></linearGradient><linearGradient id="g" gradientTransform="matrix(.1323 0 0 .066 -.265 291.444)" gradientUnits="userSpaceOnUse" x1="23.954" x2="23.954" y1="15.999" y2="19.963"><stop offset="0"/><stop offset="1" stop-opacity="0"/></linearGradient><linearGradient id="f" gradientTransform="matrix(.1347 0 0 .1464 -.198 290.374)" gradientUnits="userSpaceOnUse" x1="24" x2="24" xlink:href="#d" y1="5" y2="43"/><linearGradient id="e" gradientTransform="matrix(.118 0 0 .119 .212 290.644)" gradientUnits="userSpaceOnUse" x1="25.132" x2="25.132" y1="15.5" y2="48.396"><stop offset="0" stop-color="#fafafa"/><stop offset="1" stop-color="#e2e1de"/></linearGradient><g transform="matrix(1.3333 0 0 1.3333 -4.586 -387.532)"><rect height="5.556" rx=".198" width="1.19" x="4.432" y="291.047" fill="url(#e)"/><path d="M4.54 291.174l.986.006v5.336l-.986-.006z" fill="none" stroke="url(#f)" stroke-width=".201" stroke-linecap="round" stroke-linejoin="round"/><path d="M4.24 292.44l1.58-.004v.198l-1.58.003z" opacity=".15" fill="url(#g)"/><path d="M4.338 292.243l-.005 4.143c0 .152.155.318.307.317l.77-.003c.152 0 .307-.166.308-.318l.004-4.145" opacity=".3" fill="none" stroke="#000" stroke-width=".201"/><path d="M4.233 293.23v.198zm.2 0h1.19v.198h-1.19zm-.2 1.19v.2zm.2 0h1.19v.2h-1.19zm-.2 1.19v.2zm.2 0h1.19v.2h-1.19z" opacity=".321"/><path d="M4.566 290.947c-.158 0-.226.17-.226.33v.964l1.38-.002v-.963c0-.162-.118-.322-.276-.322z" fill="url(#h)"/><path d="M4.654 290.95c-.152 0-.316.185-.316.337v1.048H5.72v-1.054c0-.15-.143-.33-.295-.33z" opacity=".4" fill="none" stroke="#126400" stroke-width=".201" stroke-linecap="round"/><path d="M4.534 291.143l.002 1.002 1 .007v-1.002z" opacity=".5" fill="none" stroke="url(#i)" stroke-width=".201" stroke-linecap="round" stroke-linejoin="round"/></g><g stroke-width="1.272" stroke-linecap="round" stroke-linejoin="round"><path d="M22.47 2.316c-.373-.038-.744.145-.936.496l-8.17 14.947-5.25-4.18c-.47-.255-1.052-.09-1.308.377L4.45 16.982c-.255.468-.083 1.05.385 1.307 0 0 9.59 7.92 9.6 7.924.11.06.226.09.342.105.38.05.77-.13.966-.49L26.76 5.675c.257-.468.085-1.05-.383-1.307l-3.535-1.94c-.117-.063-.247-.1-.37-.11z" transform="matrix(.208 0 0 .208 2.618 2.654)" fill="url(#j)" stroke="#699536"/><path d="M21.958 3.463l-4.14 7.604-3.688 6.708c-.12.12-.082.502-.6.635-.36.092-.426-.042-.804-.285l-4.634-3.662c-.515-.414-.5-.393-.865-.025l-1.86 2.348c-.5.536-.424.86.2 1.26 0 0 8.72 7.187 8.73 7.192.105.057.06.076.506.386.286.198.54-.432.723-.77l10.6-19.342c.24-.44.222-.434-.22-.676L22.744 3.16c-.456-.248-.458-.245-.786.303z" transform="matrix(.208 0 0 .208 2.618 2.654)" opacity=".4" fill="none" stroke="url(#k)"/></g></svg>