<?xml version="1.0" encoding="UTF-8" standalone="no"?>
<svg
   xmlns:dc="http://purl.org/dc/elements/1.1/"
   xmlns:cc="http://creativecommons.org/ns#"
   xmlns:rdf="http://www.w3.org/1999/02/22-rdf-syntax-ns#"
   xmlns:svg="http://www.w3.org/2000/svg"
   xmlns="http://www.w3.org/2000/svg"
   xmlns:sodipodi="http://sodipodi.sourceforge.net/DTD/sodipodi-0.dtd"
   xmlns:inkscape="http://www.inkscape.org/namespaces/inkscape"
   height="32"
   viewBox="0 0 8.4666665 8.4666669"
   width="32"
   version="1.1"
   id="svg76"
   sodipodi:docname="showpropbrowser.svg"
   inkscape:version="0.92.3 (2405546, 2018-03-11)">
  <metadata
     id="metadata82">
    <rdf:RDF>
      <cc:Work
         rdf:about="">
        <dc:format>image/svg+xml</dc:format>
        <dc:type
           rdf:resource="http://purl.org/dc/dcmitype/StillImage" />
        <dc:title></dc:title>
      </cc:Work>
    </rdf:RDF>
  </metadata>
  <defs
     id="defs80">
    <linearGradient
       id="a-3"
       gradientUnits="userSpaceOnUse"
       x1="2.6401429"
       x2="2.6401429"
       y1="7.9144511"
       y2="2.6796851">
      <stop
         offset="0"
         id="stop2-6" />
      <stop
         offset="1"
         stop-color="#333"
         id="stop4-7" />
    </linearGradient>
    <linearGradient
       id="b-5"
       gradientUnits="userSpaceOnUse"
       x1="14"
       x2="6"
       y1="8"
       y2="16">
      <stop
         offset="0"
         stop-color="#fff"
         id="stop7-3" />
      <stop
         offset=".125"
         stop-color="#fff"
         stop-opacity="0"
         id="stop9-5" />
      <stop
         offset="1"
         stop-color="#fff"
         stop-opacity="0"
         id="stop11" />
    </linearGradient>
    <clipPath
       id="c-6">
      <path
         inkscape:connector-curvature="0"
         d="M 8,2.6855469 V 16.685547 l 3.132812,-3.820313 2.066407,4.986328 a 1.0001,1.0001 0 1 0 1.847656,-0.765624 L 12.935547,11.990234 17.314453,12 Z"
         id="path14" />
    </clipPath>
  </defs>
  <sodipodi:namedview
     pagecolor="#ffffff"
     bordercolor="#666666"
     borderopacity="1"
     objecttolerance="10"
     gridtolerance="10"
     guidetolerance="10"
     inkscape:pageopacity="0"
     inkscape:pageshadow="2"
     inkscape:window-width="1366"
     inkscape:window-height="696"
     id="namedview78"
     showgrid="false"
     inkscape:zoom="7.375"
     inkscape:cx="16"
     inkscape:cy="16"
     inkscape:window-x="0"
     inkscape:window-y="0"
     inkscape:window-maximized="1"
     inkscape:current-layer="svg76" />
  <linearGradient
     id="a"
     gradientTransform="matrix(.8048 0 0 .60166 -516.818 -396.08)"
     gradientUnits="userSpaceOnUse"
     x1="731.05701"
     x2="731.05701"
     y1="654.815"
     y2="619.30701">
    <stop
       offset="0"
       stop-color="#55c1ec"
       id="stop2" />
    <stop
       offset="1"
       stop-color="#3689e6"
       id="stop4" />
  </linearGradient>
  <linearGradient
     id="b"
     gradientTransform="matrix(.04846 0 0 .5238 -20.405 -108.176)"
     gradientUnits="userSpaceOnUse"
     x1="292.85699"
     x2="292.85699"
     y1="211.076"
     y2="233.827">
    <stop
       offset="0"
       id="stop7" />
    <stop
       offset="1"
       stop-opacity="0"
       id="stop9" />
  </linearGradient>
  <radialGradient
     id="c"
     cx="65.325226"
     cy="48.709068"
     gradientTransform="matrix(0 .68597915 -.7462606 0 60.288383 -27.737493)"
     gradientUnits="userSpaceOnUse"
     r="31.000002">
    <stop
       offset="0"
       stop-color="#cdf87e"
       id="stop12" />
    <stop
       offset=".26238"
       stop-color="#a2e34f"
       id="stop14" />
    <stop
       offset=".66093999"
       stop-color="#68b723"
       id="stop16" />
    <stop
       offset="1"
       stop-color="#1d7e0d"
       id="stop18" />
  </radialGradient>
  <linearGradient
     id="d"
     gradientTransform="matrix(.42269325 0 0 .38513145 14.544843 15.082967)"
     gradientUnits="userSpaceOnUse"
     x1="24.138529"
     x2="24.138529"
     y1="10.170639"
     y2="36.135799">
    <stop
       offset="0"
       stop-color="#fff"
       id="stop21" />
    <stop
       offset="0"
       stop-color="#fff"
       stop-opacity=".235294"
       id="stop23" />
    <stop
       offset="1"
       stop-color="#fff"
       stop-opacity=".156863"
       id="stop25" />
    <stop
       offset="1"
       stop-color="#fff"
       stop-opacity=".392157"
       id="stop27" />
  </linearGradient>
  <linearGradient
     id="e"
     gradientTransform="matrix(.38833389 0 0 .41842122 15.301011 14.318351)"
     gradientUnits="userSpaceOnUse"
     x1="24.138529"
     x2="24.138529"
     y1="20.748587"
     y2="25.52846">
    <stop
       offset="0"
       stop-color="#fff"
       id="stop30" />
    <stop
       offset=".00000003"
       stop-color="#fff"
       stop-opacity=".235294"
       id="stop32" />
    <stop
       offset="1"
       stop-color="#fff"
       stop-opacity=".156863"
       id="stop34" />
    <stop
       offset="1"
       stop-color="#fff"
       stop-opacity=".392157"
       id="stop36" />
  </linearGradient>
  <linearGradient
     id="f"
     gradientUnits="userSpaceOnUse"
     x1="3.104041"
     x2="3.659887"
     y1="292.48022"
     y2="295.11829">
    <stop
       offset="0"
       stop-color="#64baff"
       id="stop39" />
    <stop
       offset="1"
       stop-color="#3689e6"
       id="stop41" />
  </linearGradient>
  <g
     transform="translate(2.377167 -290.91051)"
     id="g50">
    <circle
       cx="3.175"
       cy="293.82501"
       fill="#fdfdfb"
       r="2.782"
       stroke="#8c8c8c"
       stroke-linecap="round"
       stroke-linejoin="round"
       stroke-width=".265"
       id="circle44" />
    <circle
       cx="3.175"
       cy="293.82501"
       fill="url(#f)"
       r="1.717"
       id="circle46" />
    <circle
       cx="3.175"
       cy="293.82501"
       r="1.717"
       style="opacity:.5;fill:none;stroke:#002e99;stroke-width:.265;stroke-linecap:round;stroke-linejoin:round"
       id="circle48" />
  </g>
  <g
     transform="matrix(.3763173 0 0 .3763173 -.505943 2.949651)"
     id="g62">
    <rect
       fill="url(#a)"
       height="12"
       opacity=".99"
       rx="1.658"
       ry="1.716"
       transform="scale(-1)"
       width="12"
       x="-14"
       y="-14"
       id="rect52" />
    <rect
       height="12.608"
       rx="2"
       style="opacity:.3;fill:none;stroke:#000;stroke-width:.703086;stroke-linecap:round;stroke-linejoin:round"
       transform="scale(-1 1)"
       width="12.603"
       x="-14.299"
       y="1.701"
       id="rect54" />
    <path
       d="m11.695 3.57 1.888 1.698-6.343 8.382-4.91-4.23 1.624-2.15 2.87 2.49z"
       fill="#2f78c7"
       fill-opacity=".992"
       id="path56" />
    <path
       d="m11.695 2.63 1.888 1.7-6.344 8.382-4.91-4.23 1.624-2.15 2.87 2.49z"
       fill="#fff"
       id="path58" />
    <rect
       height="11.404"
       rx="1.604"
       ry="1.302"
       style="opacity:.05;fill:none;stroke-width:.6;stroke-linecap:round;stroke-linejoin:round;stroke:url(#b)"
       transform="scale(-1 1)"
       width="11.384"
       x="-13.683"
       y="2.296"
       id="rect60" />
  </g>
  <g
     transform="translate(2.3812499)"
     id="g81">
    <g
       style="fill-rule:evenodd;stroke:#000000;stroke-linejoin:round"
       transform="matrix(0.26458333,0,0,0.26458333,0,2.116667)"
       id="g73">
      <path
         style="opacity:0.02000002;stroke-width:6"
         inkscape:connector-curvature="0"
         d="m 8.9892474,4.784611 v 13.849462 l 3.0991256,-3.779234 2.044188,4.932711 a 0.98934621,0.98934621 0 1 0 1.827789,-0.757391 l -2.088626,-5.040912 4.331821,0.0097 z"
         id="path67" />
      <path
         style="opacity:0.2;stroke-width:2"
         inkscape:connector-curvature="0"
         d="m 8.9892474,4.784611 v 13.849462 l 3.0991256,-3.779234 2.044188,4.932711 a 0.98934621,0.98934621 0 1 0 1.827789,-0.757391 l -2.088626,-5.040912 4.331821,0.0097 z"
         id="path69" />
      <path
         style="opacity:0.05;stroke-width:4"
         inkscape:connector-curvature="0"
         d="m 8.9892474,4.784611 v 13.849462 l 3.0991256,-3.779234 2.044188,4.932711 a 0.98934621,0.98934621 0 1 0 1.827789,-0.757391 l -2.088626,-5.040912 4.331821,0.0097 z"
         id="path71" />
    </g>
    <path
       style="fill:none;stroke:#ffffff;stroke-width:0.529167"
       inkscape:connector-curvature="0"
       d="m 2.1166666,3.1208571 v 3.664337 L 2.9366437,5.7852715 3.4775018,7.0903846 A 0.26176451,0.26176451 0 1 0 3.961104,6.8899916 l -0.5526153,-1.333741 1.1461274,0.00257 z"
       id="path75" />
    <path
       style="fill:url(#a-3);fill-rule:evenodd;stroke-width:0.26458299"
       inkscape:connector-curvature="0"
       d="m 2.1166666,3.1208571 v 3.664337 L 2.9366437,5.7852715 3.4775018,7.0903846 A 0.26176451,0.26176451 0 1 0 3.961104,6.8899916 l -0.5526153,-1.333741 1.1461274,0.00257 z"
       id="path77" />
    <path
       style="opacity:0.4;fill:none;stroke:url(#b-5);stroke-width:2.69565201"
       inkscape:connector-curvature="0"
       clip-path="url(#c-6)"
       d="M 8,2.6855469 V 16.685547 l 3.132812,-3.820313 2.066407,4.986328 a 1.0001,1.0001 0 1 0 1.847656,-0.765624 L 12.935547,11.990234 17.314453,12 Z"
       transform="matrix(0.26173834,0,0,0.26173834,0.02276,2.417947)"
       id="path79" />
  </g>
</svg>
