<svg xmlns="http://www.w3.org/2000/svg" xmlns:xlink="http://www.w3.org/1999/xlink" height="32" width="32"><defs><linearGradient id="f"><stop offset="0" stop-color="#fff"/><stop offset=".063" stop-color="#fff" stop-opacity=".235"/><stop offset=".951" stop-color="#fff" stop-opacity=".157"/><stop offset="1" stop-color="#fff" stop-opacity=".392"/></linearGradient><linearGradient id="e"><stop offset="0" stop-color="#55c1ec"/><stop offset="1" stop-color="#3689e6"/></linearGradient><linearGradient id="g"><stop offset="0" stop-color="#fafafa"/><stop offset="1" stop-color="#e1e1e1"/></linearGradient><linearGradient id="a"><stop offset="0" stop-color="#181818"/><stop offset="1" stop-color="#181818" stop-opacity="0"/></linearGradient><linearGradient id="b"><stop offset="0" stop-color="#181818" stop-opacity="0"/><stop offset=".5" stop-color="#181818"/><stop offset="1" stop-color="#181818" stop-opacity="0"/></linearGradient><linearGradient id="h"><stop offset="0" stop-opacity=".322"/><stop offset="1" stop-opacity=".278"/></linearGradient><linearGradient id="c"><stop offset="0" stop-color="#fff"/><stop offset=".508" stop-color="#fff" stop-opacity=".235"/><stop offset=".835" stop-color="#fff" stop-opacity=".157"/><stop offset="1" stop-color="#fff" stop-opacity=".392"/></linearGradient><linearGradient id="d"><stop offset="0" stop-color="#e9e9e9"/><stop offset="1" stop-color="#fff"/></linearGradient><linearGradient y2="5.176" x2="-95.838" y1="54.2" x1="-95.838" gradientTransform="matrix(.8075 0 0 .83374 106.877 -.07)" gradientUnits="userSpaceOnUse" id="E" xlink:href="#h"/><linearGradient y2="43" x2="24" y1="5" x1="24" gradientTransform="translate(0 1)" gradientUnits="userSpaceOnUse" id="D" xlink:href="#f"/><radialGradient r="27.5" fy="4.342" fx="32" cy="4.342" cx="32" gradientTransform="rotate(90 38.597 -7.538) scale(1.6258)" gradientUnits="userSpaceOnUse" id="C" xlink:href="#g"/><radialGradient r="2" fy="1024.837" fx="13.631" cy="1024.837" cx="13.631" gradientTransform="matrix(0 3.03215 -2.74933 0 2831.745 -29.358)" gradientUnits="userSpaceOnUse" id="S" xlink:href="#i"/><linearGradient id="i"><stop offset="0" stop-color="#b3b3b3"/><stop offset="1" stop-color="#8e8e8e"/></linearGradient><linearGradient gradientTransform="translate(.5 -1012.862)" y2="1029.698" x2="11" y1="1024.893" x1="11" gradientUnits="userSpaceOnUse" id="T" xlink:href="#j"/><linearGradient id="j"><stop offset="0" stop-color="#7d7d7d"/><stop offset="1" stop-color="#a0a0a0"/></linearGradient><linearGradient gradientTransform="translate(.5 -1012.862)" y2="1023.424" x2="10.758" y1="1030.266" x1="10.758" gradientUnits="userSpaceOnUse" id="R" xlink:href="#k"/><linearGradient id="k"><stop offset="0" stop-color="#fff"/><stop offset="1" stop-color="#fff" stop-opacity="0"/></linearGradient><linearGradient gradientTransform="translate(.5 -1002.862)" gradientUnits="userSpaceOnUse" y2="1017.869" x2="22.914" y1="1016.069" x1="22.914" id="Q" xlink:href="#l"/><linearGradient id="l"><stop offset="0" stop-color="#696969"/><stop offset="1" stop-color="#949494"/></linearGradient><radialGradient gradientTransform="matrix(0 3.03215 -2.74933 0 2831.745 -19.358)" gradientUnits="userSpaceOnUse" r="2" fy="1024.837" fx="13.631" cy="1024.837" cx="13.631" id="O" xlink:href="#i"/><linearGradient gradientTransform="translate(.5 -1002.862)" gradientUnits="userSpaceOnUse" y2="1029.698" x2="11" y1="1024.893" x1="11" id="P" xlink:href="#j"/><linearGradient gradientTransform="translate(.5 -1002.862)" gradientUnits="userSpaceOnUse" y2="1023.424" x2="10.758" y1="1030.266" x1="10.758" id="N" xlink:href="#k"/><linearGradient gradientTransform="translate(.5 -992.862)" y2="1017.869" x2="22.914" y1="1016.069" x1="22.914" gradientUnits="userSpaceOnUse" id="M" xlink:href="#l"/><linearGradient gradientTransform="translate(.5 -1012.862)" y2="1034.458" x2="31.705" y1="1039.888" x1="31.705" gradientUnits="userSpaceOnUse" id="L" xlink:href="#k"/><linearGradient gradientTransform="translate(.5 -1003.862)" y2="1037.333" x2="28.554" y1="1038.703" x1="28.554" gradientUnits="userSpaceOnUse" id="K" xlink:href="#m"/><linearGradient id="m"><stop offset="0" stop-color="#34b2f4"/><stop offset="1" stop-color="#136ebc"/></linearGradient><linearGradient gradientTransform="translate(.5 -1002.862)" gradientUnits="userSpaceOnUse" y2="1034.458" x2="31.705" y1="1039.888" x1="31.705" id="J" xlink:href="#k"/><radialGradient r="20" fy="8.45" fx=".753" cy="8.45" cx=".753" gradientTransform="matrix(0 .47014 -.32038 0 16.207 29.7)" gradientUnits="userSpaceOnUse" id="H" xlink:href="#n"/><linearGradient id="n"><stop offset="0" stop-color="#90dbec"/><stop offset=".262" stop-color="#55c1ec"/><stop offset=".705" stop-color="#3689e6"/><stop offset="1" stop-color="#2b63a0"/></linearGradient><linearGradient gradientTransform="translate(.5 -1002.862)" gradientUnits="userSpaceOnUse" y2="1041.218" x2="9.684" y1="1034.521" x1="9.684" id="I" xlink:href="#o"/><linearGradient id="o"><stop offset="0" stop-color="#0e73c8"/><stop offset="1" stop-color="#40a5e4"/></linearGradient><linearGradient gradientTransform="translate(.5 -1002.862)" gradientUnits="userSpaceOnUse" y2="1033.185" x2="11.904" y1="1040.672" x1="11.904" id="G" xlink:href="#k"/><linearGradient y2="1034.458" x2="31.705" y1="1039.888" x1="31.705" gradientTransform="translate(.5 -1022.862)" gradientUnits="userSpaceOnUse" id="F" xlink:href="#k"/><linearGradient xlink:href="#f" id="t" x1="278.737" y1="275.478" x2="278.904" y2="293.593" gradientUnits="userSpaceOnUse"/><linearGradient xlink:href="#g" id="p" x1="282.654" y1="275.593" x2="283.404" y2="295.843" gradientUnits="userSpaceOnUse"/><linearGradient xlink:href="#n" id="r" x1="276.654" y1="271.843" x2="276.654" y2="277.843" gradientUnits="userSpaceOnUse"/><linearGradient xlink:href="#o" id="s" x1="281.154" y1="272.593" x2="281.154" y2="275.593" gradientUnits="userSpaceOnUse"/><linearGradient xlink:href="#j" id="y" x1="3.372" y1="6.995" x2="5.612" y2="6.995" gradientUnits="userSpaceOnUse"/><linearGradient xlink:href="#j" id="z" gradientUnits="userSpaceOnUse" x1="3.372" y1="6.995" x2="5.612" y2="6.995" gradientTransform="translate(0 4.5)"/><linearGradient xlink:href="#j" id="A" gradientUnits="userSpaceOnUse" gradientTransform="translate(0 9)" x1="3.372" y1="6.995" x2="5.612" y2="6.995"/><linearGradient xlink:href="#j" id="B" gradientUnits="userSpaceOnUse" gradientTransform="translate(0 13.5)" x1="3.372" y1="6.995" x2="5.612" y2="6.995"/><linearGradient xlink:href="#l" id="x" x1="10.868" y1="6.624" x2="10.868" y2="7.374" gradientUnits="userSpaceOnUse"/><linearGradient xlink:href="#l" id="u" gradientUnits="userSpaceOnUse" x1="10.868" y1="6.624" x2="10.868" y2="7.374" gradientTransform="translate(0 4.5)"/><linearGradient xlink:href="#l" id="v" gradientUnits="userSpaceOnUse" gradientTransform="translate(0 9)" x1="10.868" y1="6.624" x2="10.868" y2="7.374"/><linearGradient xlink:href="#l" id="w" gradientUnits="userSpaceOnUse" gradientTransform="translate(0 13.5)" x1="10.868" y1="6.624" x2="10.868" y2="7.374"/></defs><linearGradient id="q" gradientUnits="userSpaceOnUse" x1="277.054" x2="277.054" y1="294.668" y2="274.769"><stop offset="0" stop-color="#9c9c9c"/><stop offset="1" stop-color="#afafaf"/></linearGradient><g transform="translate(3.51 -.832) scale(1.33333)"><g stroke-width=".75"><path d="M285.458 274.482c.743 0 1.4.164 1.32 1.343v17.902c.018.866-.9 1.053-1.577.976h-12.426c-.863.018-1.05-.903-.972-1.584v-18.935c.325-.69 5.868-.285 10.113.27 1.008 0 2.57-.018 3.543.027z" fill="url(#p)" stroke="url(#q)" transform="translate(-270.286 -271.22)"/><path d="M271.786 275.22l.007-2.016c.002-.545.424-.986.952-.984l8.01.03c.528.002.783.43.782.974l-.007 2.016" fill="url(#r)" stroke="url(#s)" transform="translate(-270.286 -271.22)"/><path d="M273.014 272.93l7.342.03c.608.062.413.6.445 1.025 0 .355-.008 1.022.003 1.215 1.015 0 2.432-.017 4.144-.017 1.712 0 1.073.19 1.074.754l.02 17.593c-.06.616-.75.418-1.17.45h-11.842c-.608-.06-.413-.76-.445-1.185l-.014-19.414c-.007-.24.205-.456.444-.45z" fill="none" opacity=".6" stroke="url(#t)" transform="translate(-270.286 -271.22)"/></g><rect y="11.124" x="7.118" width="7.5" ry=".375" rx=".286" height=".75" fill="url(#u)"/><rect height=".75" rx=".286" ry=".375" width="7.5" x="7.118" y="15.624" fill="url(#v)"/><rect y="20.124" x="7.118" width="7.5" ry=".375" rx=".286" height=".75" fill="url(#w)"/><rect height=".75" rx=".286" ry=".375" width="7.5" x="7.118" y="6.624" fill="url(#x)"/><g stroke-linecap="round" stroke-width=".75" stroke="#2e3436" fill="#a2a2a2"><rect height="1.486" rx=".417" ry=".421" width="1.49" x="3.747" y="6.252" stroke="url(#y)"/><rect y="10.752" x="3.747" width="1.49" ry=".421" rx=".417" height="1.486" stroke="url(#z)"/><rect height="1.486" rx=".417" ry=".421" width="1.49" x="3.747" y="15.252" stroke="url(#A)"/><rect y="19.752" x="3.747" width="1.49" ry=".421" rx=".417" height="1.486" stroke="url(#B)"/></g></g><text style="line-height:0%" y="10.722" x="930.44" font-size="12.666" font-family="Bitstream Vera Sans" opacity=".8" transform="translate(29.492 -10.237)"/><text style="line-height:0%" y="-30.019" x="954.401" font-size="12.666" font-family="Bitstream Vera Sans" opacity=".8" transform="translate(29.492 -10.237)"/><text style="line-height:0%" y="-60.098" x="-516.158" font-size="12.666" font-family="Bitstream Vera Sans" opacity=".8" transform="translate(29.492 -10.237)"/><text style="line-height:0%" y="685.456" x="-2339.844" font-size="12.666" font-family="Bitstream Vera Sans" opacity=".8" transform="translate(29.492 -10.237)"/><text style="line-height:0%" y="-445.419" x="-401.667" font-size="12.666" font-family="Bitstream Vera Sans" opacity=".8" transform="translate(29.492 -10.237)"/><text style="line-height:0%" y="-858.889" x="405.936" font-size="12.666" font-family="Bitstream Vera Sans" opacity=".8" transform="translate(29.492 -10.237)"/><text style="line-height:0%" y="-899.63" x="429.897" font-size="12.666" font-family="Bitstream Vera Sans" opacity=".8" transform="translate(29.492 -10.237)"/><text style="line-height:0%" y="-906.84" x="-1061.567" font-size="12.666" font-family="Bitstream Vera Sans" opacity=".8" transform="translate(29.492 -10.237)"/><text style="line-height:0%" y="-1180.074" x="398.976" font-size="12.666" font-family="Bitstream Vera Sans" opacity=".8" transform="translate(29.492 -10.237)"/><text style="line-height:0%" y="-553.383" x="1885.1" font-size="12.666" font-family="Bitstream Vera Sans" opacity=".8" transform="translate(29.492 -10.237)"/><text style="line-height:0%" y="-594.125" x="1909.06" font-size="12.666" font-family="Bitstream Vera Sans" opacity=".8" transform="translate(29.492 -10.237)"/><text style="line-height:0%" y="-601.335" x="417.597" font-size="12.666" font-family="Bitstream Vera Sans" opacity=".8" transform="translate(29.492 -10.237)"/><text style="line-height:0%" y="-874.569" x="1878.14" font-size="12.666" font-family="Bitstream Vera Sans" opacity=".8" transform="translate(29.492 -10.237)"/><text style="line-height:0%" y="-649.426" x="-520.219" font-size="12.666" font-family="Bitstream Vera Sans" opacity=".8" transform="translate(29.492 -10.237)"/><text style="line-height:0%" y="96.128" x="-2343.905" font-size="12.666" font-family="Bitstream Vera Sans" opacity=".8" transform="translate(29.492 -10.237)"/><text style="line-height:0%" y="189" x="-629.149" font-size="12.666" font-family="Bitstream Vera Sans" opacity=".8" transform="translate(29.492 -10.237)"/><text style="line-height:0%" y="9.817" x="479.875" font-size="12.666" font-family="Bitstream Vera Sans" opacity=".8" transform="translate(29.492 -10.237)"/><text style="line-height:0%" y="-30.924" x="503.836" font-size="12.666" font-family="Bitstream Vera Sans" opacity=".8" transform="translate(29.492 -10.237)"/><text style="line-height:0%" y="-38.134" x="-987.627" font-size="12.666" font-family="Bitstream Vera Sans" opacity=".8" transform="translate(29.492 -10.237)"/><text style="line-height:0%" y="-311.368" x="472.916" font-size="12.666" font-family="Bitstream Vera Sans" opacity=".8" transform="translate(29.492 -10.237)"/><text style="line-height:0%" y="-40.848" x="-554.819" font-size="12.666" font-family="Bitstream Vera Sans" opacity=".8" transform="translate(29.492 -10.237)"/><text style="line-height:0%" y="704.705" x="-2378.505" font-size="12.666" font-family="Bitstream Vera Sans" opacity=".8" transform="translate(29.492 -10.237)"/><text style="line-height:0%" y="-902.379" x="-403.726" font-size="12.666" font-family="Bitstream Vera Sans" opacity=".8" transform="translate(29.492 -10.237)"/><text style="line-height:0%" y="-1315.849" x="403.876" font-size="12.666" font-family="Bitstream Vera Sans" opacity=".8" transform="translate(29.492 -10.237)"/><text style="line-height:0%" y="-1356.591" x="427.837" font-size="12.666" font-family="Bitstream Vera Sans" opacity=".8" transform="translate(29.492 -10.237)"/><text style="line-height:0%" y="-1363.801" x="-1063.626" font-size="12.666" font-family="Bitstream Vera Sans" opacity=".8" transform="translate(29.492 -10.237)"/><text style="line-height:0%" y="-1637.035" x="396.917" font-size="12.666" font-family="Bitstream Vera Sans" opacity=".8" transform="translate(29.492 -10.237)"/><text style="line-height:0%" y="-1010.344" x="1883.04" font-size="12.666" font-family="Bitstream Vera Sans" opacity=".8" transform="translate(29.492 -10.237)"/><text style="line-height:0%" y="-1051.085" x="1907.001" font-size="12.666" font-family="Bitstream Vera Sans" opacity=".8" transform="translate(29.492 -10.237)"/><text style="line-height:0%" y="-1058.295" x="415.538" font-size="12.666" font-family="Bitstream Vera Sans" opacity=".8" transform="translate(29.492 -10.237)"/><text style="line-height:0%" y="-1331.529" x="1876.081" font-size="12.666" font-family="Bitstream Vera Sans" opacity=".8" transform="translate(29.492 -10.237)"/><text style="line-height:0%" y="-1106.387" x="-522.279" font-size="12.666" font-family="Bitstream Vera Sans" opacity=".8" transform="translate(29.492 -10.237)"/><text style="line-height:0%" y="-360.833" x="-2345.964" font-size="12.666" font-family="Bitstream Vera Sans" opacity=".8" transform="translate(29.492 -10.237)"/><text style="line-height:0%" y="-267.961" x="-631.209" font-size="12.666" font-family="Bitstream Vera Sans" opacity=".8" transform="translate(29.492 -10.237)"/><text style="line-height:0%" y="-27.047" x="208.806" font-size="12.666" font-family="Bitstream Vera Sans" opacity=".8" transform="translate(29.492 -10.237)"/><text style="line-height:0%" y="-67.788" x="232.767" font-size="12.666" font-family="Bitstream Vera Sans" opacity=".8" transform="translate(29.492 -10.237)"/><text style="line-height:0%" y="-261.817" x="-1037.05" font-size="12.666" font-family="Bitstream Vera Sans" opacity=".8" transform="translate(29.492 -10.237)"/><text style="line-height:0%" y="-675.287" x="-229.448" font-size="12.666" font-family="Bitstream Vera Sans" opacity=".8" transform="translate(29.492 -10.237)"/><text style="line-height:0%" y="-716.029" x="-205.487" font-size="12.666" font-family="Bitstream Vera Sans" opacity=".8" transform="translate(29.492 -10.237)"/><text style="line-height:0%" y="-723.239" x="-1696.95" font-size="12.666" font-family="Bitstream Vera Sans" opacity=".8" transform="translate(29.492 -10.237)"/><text style="line-height:0%" y="-996.473" x="-236.407" font-size="12.666" font-family="Bitstream Vera Sans" opacity=".8" transform="translate(29.492 -10.237)"/><text style="line-height:0%" y="-369.781" x="1249.716" font-size="12.666" font-family="Bitstream Vera Sans" opacity=".8" transform="translate(29.492 -10.237)"/><text style="line-height:0%" y="-410.523" x="1273.677" font-size="12.666" font-family="Bitstream Vera Sans" opacity=".8" transform="translate(29.492 -10.237)"/><text style="line-height:0%" y="-417.733" x="-217.786" font-size="12.666" font-family="Bitstream Vera Sans" opacity=".8" transform="translate(29.492 -10.237)"/><text style="line-height:0%" y="-690.967" x="1242.757" font-size="12.666" font-family="Bitstream Vera Sans" opacity=".8" transform="translate(29.492 -10.237)"/><text style="line-height:0%" y="-465.824" x="-1155.602" font-size="12.666" font-family="Bitstream Vera Sans" opacity=".8" transform="translate(29.492 -10.237)"/><text style="line-height:0%" y="279.729" x="-2979.288" font-size="12.666" font-family="Bitstream Vera Sans" opacity=".8" transform="translate(29.492 -10.237)"/><text style="line-height:0%" y="1159.415" x="-664.274" font-size="14" font-family="Bitstream Vera Sans" opacity=".8" transform="matrix(.90475 0 0 .90475 -634.04 -686.616)"/><text style="line-height:0%" y="17.96" x="930.44" font-size="12.666" font-family="Bitstream Vera Sans" opacity=".8" transform="translate(29.492 -10.237)"/><text style="line-height:0%" y="-22.781" x="954.401" font-size="12.666" font-family="Bitstream Vera Sans" opacity=".8" transform="translate(29.492 -10.237)"/><text style="line-height:0%" y="-52.86" x="-516.158" font-size="12.666" font-family="Bitstream Vera Sans" opacity=".8" transform="translate(29.492 -10.237)"/><text style="line-height:0%" y="692.694" x="-2339.844" font-size="12.666" font-family="Bitstream Vera Sans" opacity=".8" transform="translate(29.492 -10.237)"/><text style="line-height:0%" y="-438.181" x="-401.667" font-size="12.666" font-family="Bitstream Vera Sans" opacity=".8" transform="translate(29.492 -10.237)"/><text style="line-height:0%" y="-851.651" x="405.936" font-size="12.666" font-family="Bitstream Vera Sans" opacity=".8" transform="translate(29.492 -10.237)"/><text style="line-height:0%" y="-892.392" x="429.897" font-size="12.666" font-family="Bitstream Vera Sans" opacity=".8" transform="translate(29.492 -10.237)"/><text style="line-height:0%" y="-899.602" x="-1061.567" font-size="12.666" font-family="Bitstream Vera Sans" opacity=".8" transform="translate(29.492 -10.237)"/><text style="line-height:0%" y="-1172.836" x="398.976" font-size="12.666" font-family="Bitstream Vera Sans" opacity=".8" transform="translate(29.492 -10.237)"/><text style="line-height:0%" y="-546.145" x="1885.1" font-size="12.666" font-family="Bitstream Vera Sans" opacity=".8" transform="translate(29.492 -10.237)"/><text style="line-height:0%" y="-586.887" x="1909.06" font-size="12.666" font-family="Bitstream Vera Sans" opacity=".8" transform="translate(29.492 -10.237)"/><text style="line-height:0%" y="-594.097" x="417.597" font-size="12.666" font-family="Bitstream Vera Sans" opacity=".8" transform="translate(29.492 -10.237)"/><text style="line-height:0%" y="-867.331" x="1878.14" font-size="12.666" font-family="Bitstream Vera Sans" opacity=".8" transform="translate(29.492 -10.237)"/><text style="line-height:0%" y="-642.188" x="-520.219" font-size="12.666" font-family="Bitstream Vera Sans" opacity=".8" transform="translate(29.492 -10.237)"/><text style="line-height:0%" y="103.365" x="-2343.905" font-size="12.666" font-family="Bitstream Vera Sans" opacity=".8" transform="translate(29.492 -10.237)"/><text style="line-height:0%" y="196.238" x="-629.149" font-size="12.666" font-family="Bitstream Vera Sans" opacity=".8" transform="translate(29.492 -10.237)"/><text style="line-height:0%" y="17.055" x="479.875" font-size="12.666" font-family="Bitstream Vera Sans" opacity=".8" transform="translate(29.492 -10.237)"/><text style="line-height:0%" y="-23.686" x="503.836" font-size="12.666" font-family="Bitstream Vera Sans" opacity=".8" transform="translate(29.492 -10.237)"/><text style="line-height:0%" y="-30.896" x="-987.627" font-size="12.666" font-family="Bitstream Vera Sans" opacity=".8" transform="translate(29.492 -10.237)"/><text style="line-height:0%" y="-304.13" x="472.916" font-size="12.666" font-family="Bitstream Vera Sans" opacity=".8" transform="translate(29.492 -10.237)"/><text style="line-height:0%" y="-33.61" x="-554.819" font-size="12.666" font-family="Bitstream Vera Sans" opacity=".8" transform="translate(29.492 -10.237)"/><text style="line-height:0%" y="711.943" x="-2378.505" font-size="12.666" font-family="Bitstream Vera Sans" opacity=".8" transform="translate(29.492 -10.237)"/><text style="line-height:0%" y="-895.141" x="-403.726" font-size="12.666" font-family="Bitstream Vera Sans" opacity=".8" transform="translate(29.492 -10.237)"/><text style="line-height:0%" y="-1308.611" x="403.876" font-size="12.666" font-family="Bitstream Vera Sans" opacity=".8" transform="translate(29.492 -10.237)"/><text style="line-height:0%" y="-1349.353" x="427.837" font-size="12.666" font-family="Bitstream Vera Sans" opacity=".8" transform="translate(29.492 -10.237)"/><text style="line-height:0%" y="-1356.563" x="-1063.626" font-size="12.666" font-family="Bitstream Vera Sans" opacity=".8" transform="translate(29.492 -10.237)"/><text style="line-height:0%" y="-1629.797" x="396.917" font-size="12.666" font-family="Bitstream Vera Sans" opacity=".8" transform="translate(29.492 -10.237)"/><text style="line-height:0%" y="-1003.106" x="1883.04" font-size="12.666" font-family="Bitstream Vera Sans" opacity=".8" transform="translate(29.492 -10.237)"/><text style="line-height:0%" y="-1043.847" x="1907.001" font-size="12.666" font-family="Bitstream Vera Sans" opacity=".8" transform="translate(29.492 -10.237)"/><text style="line-height:0%" y="-1051.057" x="415.538" font-size="12.666" font-family="Bitstream Vera Sans" opacity=".8" transform="translate(29.492 -10.237)"/><text style="line-height:0%" y="-1324.291" x="1876.081" font-size="12.666" font-family="Bitstream Vera Sans" opacity=".8" transform="translate(29.492 -10.237)"/><text style="line-height:0%" y="-1099.148" x="-522.279" font-size="12.666" font-family="Bitstream Vera Sans" opacity=".8" transform="translate(29.492 -10.237)"/><text style="line-height:0%" y="-353.595" x="-2345.964" font-size="12.666" font-family="Bitstream Vera Sans" opacity=".8" transform="translate(29.492 -10.237)"/><text style="line-height:0%" y="-260.723" x="-631.209" font-size="12.666" font-family="Bitstream Vera Sans" opacity=".8" transform="translate(29.492 -10.237)"/><text style="line-height:0%" y="-19.809" x="208.806" font-size="12.666" font-family="Bitstream Vera Sans" opacity=".8" transform="translate(29.492 -10.237)"/><text style="line-height:0%" y="-60.55" x="232.767" font-size="12.666" font-family="Bitstream Vera Sans" opacity=".8" transform="translate(29.492 -10.237)"/><text style="line-height:0%" y="-254.579" x="-1037.05" font-size="12.666" font-family="Bitstream Vera Sans" opacity=".8" transform="translate(29.492 -10.237)"/><text style="line-height:0%" y="-668.049" x="-229.448" font-size="12.666" font-family="Bitstream Vera Sans" opacity=".8" transform="translate(29.492 -10.237)"/><text style="line-height:0%" y="-708.791" x="-205.487" font-size="12.666" font-family="Bitstream Vera Sans" opacity=".8" transform="translate(29.492 -10.237)"/><text style="line-height:0%" y="-716.001" x="-1696.95" font-size="12.666" font-family="Bitstream Vera Sans" opacity=".8" transform="translate(29.492 -10.237)"/><text style="line-height:0%" y="-989.235" x="-236.407" font-size="12.666" font-family="Bitstream Vera Sans" opacity=".8" transform="translate(29.492 -10.237)"/><text style="line-height:0%" y="-362.544" x="1249.716" font-size="12.666" font-family="Bitstream Vera Sans" opacity=".8" transform="translate(29.492 -10.237)"/><text style="line-height:0%" y="-403.285" x="1273.677" font-size="12.666" font-family="Bitstream Vera Sans" opacity=".8" transform="translate(29.492 -10.237)"/><text style="line-height:0%" y="-410.495" x="-217.786" font-size="12.666" font-family="Bitstream Vera Sans" opacity=".8" transform="translate(29.492 -10.237)"/><text style="line-height:0%" y="-683.729" x="1242.757" font-size="12.666" font-family="Bitstream Vera Sans" opacity=".8" transform="translate(29.492 -10.237)"/><text style="line-height:0%" y="-458.586" x="-1155.602" font-size="12.666" font-family="Bitstream Vera Sans" opacity=".8" transform="translate(29.492 -10.237)"/><text style="line-height:0%" y="286.967" x="-2979.288" font-size="12.666" font-family="Bitstream Vera Sans" opacity=".8" transform="translate(29.492 -10.237)"/><text style="line-height:0%" y="1159.415" x="-664.274" font-size="14" font-family="Bitstream Vera Sans" opacity=".8" transform="matrix(.90475 0 0 .90475 -634.04 -679.378)"/><text style="line-height:0%;-inkscape-font-specification:'Droid Sans'" y="-361.316" x="489.118" font-size="12.666" font-family="Droid Sans" transform="translate(29.492 -10.237)"/><text style="line-height:0%" y="-843.36" x="954.302" font-size="12.666" font-family="Bitstream Vera Sans" opacity=".8" transform="translate(29.492 -10.237)"/><text style="line-height:0%" y="-97.807" x="-869.384" font-size="12.666" font-family="Bitstream Vera Sans" opacity=".8" transform="translate(29.492 -10.237)"/><text style="line-height:0%" y="-1128.356" x="1681.381" font-size="12.666" font-family="Bitstream Vera Sans" opacity=".8" transform="translate(29.492 -10.237)"/><text style="line-height:0%" y="-1169.098" x="1705.342" font-size="12.666" font-family="Bitstream Vera Sans" opacity=".8" transform="translate(29.492 -10.237)"/><text style="line-height:0%" y="-1176.308" x="213.879" font-size="12.666" font-family="Bitstream Vera Sans" opacity=".8" transform="translate(29.492 -10.237)"/><text style="line-height:0%" y="-1449.542" x="1674.422" font-size="12.666" font-family="Bitstream Vera Sans" opacity=".8" transform="translate(29.492 -10.237)"/><g transform="translate(29.492 -11.237)"><rect y="6" x="5" ry="1.5" rx="1.5" height="38" width="38" color="#000" overflow="visible" fill="url(#C)"/><rect y="6.5" x="5.5" ry="1" rx="1" height="37" width="37" fill="none" stroke="url(#D)" stroke-linecap="round" stroke-linejoin="round"/><rect y="5.5" x="4.5" ry="2" rx="2" height="39" width="39" color="#000" overflow="visible" opacity=".8" fill="none" stroke="url(#E)"/><g transform="translate(-.5 .5)"><rect width="18" height="2" x="19.5" y="13.5" rx="1" ry="1" opacity=".6" fill="none" stroke="url(#F)" stroke-width="2"/><rect y="32" x="11" ry=".385" rx=".385" height="5" width="5" color="#000" overflow="visible" opacity=".7" fill="none" stroke="url(#G)" stroke-width="3" stroke-linecap="round" stroke-linejoin="round"/><rect width="5" height="5" rx=".385" ry=".385" x="11" y="32" color="#000" overflow="visible" fill="url(#H)" stroke="url(#I)" stroke-linecap="round" stroke-linejoin="round"/><rect width="18" height="2" x="19.5" y="33.5" rx="1" ry="1" opacity=".6" fill="none" stroke="url(#J)" stroke-width="2"/><rect ry="1" rx="1" y="33.5" x="19.5" height="2" width="18" fill="url(#K)"/><rect ry="1" rx="1" y="23.5" x="19.5" height="2" width="18" opacity=".6" fill="none" stroke="url(#L)" stroke-width="2"/><rect width="18" height="2" x="19.5" y="23.5" rx="1" ry="1" fill="url(#M)"/><rect width="3" height="3" rx=".231" ry=".231" x="12" y="23" color="#000" overflow="visible" opacity=".6" fill="none" stroke="url(#N)" stroke-width="3" stroke-linecap="round" stroke-linejoin="round"/><rect y="23" x="12" ry=".231" rx=".231" height="3" width="3" color="#000" overflow="visible" fill="url(#O)" stroke="url(#P)" stroke-linecap="round" stroke-linejoin="round"/><rect ry="1" rx="1" y="13.5" x="19.5" height="2" width="18" fill="url(#Q)"/><rect y="13" x="12" ry=".231" rx=".231" height="3" width="3" color="#000" overflow="visible" opacity=".6" fill="none" stroke="url(#R)" stroke-width="3" stroke-linecap="round" stroke-linejoin="round"/><rect width="3" height="3" rx=".231" ry=".231" x="12" y="13" color="#000" overflow="visible" fill="url(#S)" stroke="url(#T)" stroke-linecap="round" stroke-linejoin="round"/></g></g></svg>