<svg xmlns="http://www.w3.org/2000/svg" xmlns:xlink="http://www.w3.org/1999/xlink" height="32" width="32"><defs><linearGradient xlink:href="#a" id="n" gradientUnits="userSpaceOnUse" gradientTransform="matrix(.04577 0 0 .00824 -.542 25.98)" x1="302.857" y1="366.648" x2="302.857" y2="609.505"/><radialGradient xlink:href="#b" id="o" gradientUnits="userSpaceOnUse" gradientTransform="matrix(-.01566 0 0 .00824 14.39 25.98)" cx="605.714" cy="486.648" r="117.143"/><radialGradient xlink:href="#b" id="p" gradientUnits="userSpaceOnUse" gradientTransform="matrix(.01566 0 0 .00824 17.61 25.98)" cx="605.714" cy="486.648" r="117.143"/><linearGradient xlink:href="#c" id="q" gradientUnits="userSpaceOnUse" gradientTransform="matrix(.62857 0 0 .6084 .914 -.535)" x1="25.132" y1=".985" x2="25.132" y2="47.013"/><linearGradient xlink:href="#d" id="r" gradientUnits="userSpaceOnUse" gradientTransform="matrix(.56757 0 0 .72973 2.378 -2.514)" x1="24" y1="5.564" x2="24" y2="43"/><linearGradient xlink:href="#e" id="s" gradientUnits="userSpaceOnUse" gradientTransform="matrix(.53064 0 0 .5897 39.27 -1.792)" x1="-51.786" y1="50.786" x2="-51.786" y2="2.906"/><linearGradient xlink:href="#a" id="g" gradientUnits="userSpaceOnUse" gradientTransform="matrix(.04577 0 0 .00824 -.542 25.98)" x1="302.857" y1="366.648" x2="302.857" y2="609.505"/><linearGradient xlink:href="#c" id="j" gradientUnits="userSpaceOnUse" gradientTransform="matrix(.62857 0 0 .6084 .914 -.535)" x1="25.132" y1=".985" x2="25.132" y2="47.013"/><linearGradient xlink:href="#d" id="k" gradientUnits="userSpaceOnUse" gradientTransform="matrix(.56757 0 0 .72973 2.378 -2.514)" x1="24" y1="5.564" x2="24" y2="43"/><linearGradient xlink:href="#e" id="l" gradientUnits="userSpaceOnUse" gradientTransform="matrix(.53064 0 0 .5897 39.27 -1.792)" x1="-51.786" y1="50.786" x2="-51.786" y2="2.906"/><clipPath id="m"><path fill="#7a36b1" d="M4 0h15v31H4z"/></clipPath><clipPath id="f"><path fill="#7a36b1" d="M13 0h15v31H13z"/></clipPath></defs><linearGradient id="b"><stop offset="0"/><stop offset="1" stop-opacity="0"/></linearGradient><linearGradient id="d" gradientTransform="matrix(.56757 0 0 .72973 2.378 -2.514)" gradientUnits="userSpaceOnUse" x1="24" x2="24" y1="5.564" y2="43"><stop offset="0" stop-color="#fff"/><stop offset=".036" stop-color="#fff" stop-opacity=".235"/><stop offset=".951" stop-color="#fff" stop-opacity=".157"/><stop offset="1" stop-color="#fff" stop-opacity=".392"/></linearGradient><linearGradient id="c" gradientTransform="matrix(.62857 0 0 .6084 .914 -.535)" gradientUnits="userSpaceOnUse" x1="25.132" x2="25.132" y1=".985" y2="47.013"><stop offset="0" stop-color="#f4f4f4"/><stop offset="1" stop-color="#dbdbdb"/></linearGradient><radialGradient id="i" cx="605.714" cy="486.648" gradientTransform="matrix(.01566 0 0 .00824 17.61 25.98)" gradientUnits="userSpaceOnUse" r="117.143" xlink:href="#b"/><radialGradient id="h" cx="605.714" cy="486.648" gradientTransform="matrix(-.01566 0 0 .00824 14.39 25.98)" gradientUnits="userSpaceOnUse" r="117.143" xlink:href="#b"/><linearGradient id="a" gradientTransform="matrix(.04577 0 0 .00824 -.542 25.98)" gradientUnits="userSpaceOnUse" x1="302.857" x2="302.857" y1="366.648" y2="609.505"><stop offset="0" stop-opacity="0"/><stop offset=".5"/><stop offset="1" stop-opacity="0"/></linearGradient><linearGradient id="e" gradientTransform="matrix(.53064 0 0 .5897 39.27 -1.792)" gradientUnits="userSpaceOnUse" x1="-51.786" x2="-51.786" y1="50.786" y2="2.906"><stop offset="0" stop-opacity=".318"/><stop offset="1" stop-opacity=".24"/></linearGradient><g transform="translate(-13)" clip-path="url(#f)"><path d="M4.95 29h22.1v2H4.95z" opacity=".15" fill="url(#g)"/><path d="M4.95 29v2c-.807.004-1.95-.448-1.95-1s.9-1 1.95-1z" opacity=".15" fill="url(#h)"/><path d="M27.05 29v2c.807.004 1.95-.448 1.95-1s-.9-1-1.95-1z" opacity=".15" fill="url(#i)"/><path d="M5 1l22 .002V29H5V1z" fill="url(#j)"/><g fill="none" stroke-linejoin="round"><path d="M26.5 28.5h-21v-27h21z" stroke="url(#k)" stroke-linecap="round"/><path d="M4.5.5l23 .002V29.5h-23V.5z" stroke="url(#l)"/></g></g><g transform="translate(13)" clip-path="url(#m)"><path d="M4.95 29h22.1v2H4.95z" opacity=".15" fill="url(#n)"/><path d="M4.95 29v2c-.807.004-1.95-.448-1.95-1s.9-1 1.95-1z" opacity=".15" fill="url(#o)"/><path d="M27.05 29v2c.807.004 1.95-.448 1.95-1s-.9-1-1.95-1z" opacity=".15" fill="url(#p)"/><path d="M5 1l22 .002V29H5V1z" fill="url(#q)"/><g fill="none" stroke-linejoin="round"><path d="M26.5 28.5h-21v-27h21z" stroke="url(#r)" stroke-linecap="round"/><path d="M4.5.5l23 .002V29.5h-23V.5z" stroke="url(#s)"/></g></g></svg>