<svg xmlns="http://www.w3.org/2000/svg" xmlns:xlink="http://www.w3.org/1999/xlink" height="32" width="32"><defs><linearGradient xlink:href="#c" id="f" gradientUnits="userSpaceOnUse" gradientTransform="matrix(.62857 0 0 .6084 .914 -.535)" x1="25.132" y1=".985" x2="25.132" y2="47.013"/><linearGradient xlink:href="#d" id="g" gradientUnits="userSpaceOnUse" gradientTransform="matrix(.56757 0 0 .72973 2.378 -2.514)" x1="24" y1="5.564" x2="24" y2="43"/><linearGradient xlink:href="#e" id="h" gradientUnits="userSpaceOnUse" gradientTransform="matrix(.53064 0 0 .5897 39.27 -1.792)" x1="-51.786" y1="50.786" x2="-51.786" y2="2.906"/><linearGradient xlink:href="#c" id="i" gradientUnits="userSpaceOnUse" gradientTransform="matrix(.62857 0 0 .6084 .914 16.465)" x1="25.132" y1=".985" x2="25.132" y2="47.013"/><linearGradient xlink:href="#d" id="j" gradientUnits="userSpaceOnUse" gradientTransform="matrix(.56757 0 0 .72973 2.378 -2.514)" x1="24" y1="5.564" x2="24" y2="43"/><linearGradient xlink:href="#e" id="k" gradientUnits="userSpaceOnUse" gradientTransform="matrix(.53064 0 0 .5897 39.27 -1.792)" x1="-51.786" y1="50.786" x2="-51.786" y2="2.906"/><linearGradient xlink:href="#c" id="l" gradientUnits="userSpaceOnUse" gradientTransform="matrix(.62857 0 0 .6084 -18.086 -.535)" x1="25.132" y1=".985" x2="25.132" y2="47.013"/><linearGradient xlink:href="#d" id="m" gradientUnits="userSpaceOnUse" gradientTransform="matrix(.56757 0 0 .72973 2.378 -2.514)" x1="24" y1="5.564" x2="24" y2="43"/><linearGradient xlink:href="#e" id="n" gradientUnits="userSpaceOnUse" gradientTransform="matrix(.53064 0 0 .5897 39.27 -1.792)" x1="-51.786" y1="50.786" x2="-51.786" y2="2.906"/><linearGradient xlink:href="#c" id="o" gradientUnits="userSpaceOnUse" gradientTransform="matrix(.62857 0 0 .6084 -18.086 16.465)" x1="25.132" y1=".985" x2="25.132" y2="47.013"/><linearGradient xlink:href="#d" id="p" gradientUnits="userSpaceOnUse" gradientTransform="matrix(.56757 0 0 .72973 2.378 -2.514)" x1="24" y1="5.564" x2="24" y2="43"/><linearGradient xlink:href="#e" id="q" gradientUnits="userSpaceOnUse" gradientTransform="matrix(.53064 0 0 .5897 39.27 -1.792)" x1="-51.786" y1="50.786" x2="-51.786" y2="2.906"/></defs><linearGradient id="b"><stop offset="0"/><stop offset="1" stop-opacity="0"/></linearGradient><linearGradient id="d" gradientTransform="matrix(.56757 0 0 .72973 2.378 -2.514)" gradientUnits="userSpaceOnUse" x1="24" x2="24" y1="5.564" y2="43"><stop offset="0" stop-color="#fff"/><stop offset=".036" stop-color="#fff" stop-opacity=".235"/><stop offset=".951" stop-color="#fff" stop-opacity=".157"/><stop offset="1" stop-color="#fff" stop-opacity=".392"/></linearGradient><linearGradient id="c" gradientTransform="matrix(.62857 0 0 .6084 .914 -.535)" gradientUnits="userSpaceOnUse" x1="25.132" x2="25.132" y1=".985" y2="47.013"><stop offset="0" stop-color="#f4f4f4"/><stop offset="1" stop-color="#dbdbdb"/></linearGradient><linearGradient id="a" gradientTransform="matrix(.04577 0 0 .00824 -.542 25.98)" gradientUnits="userSpaceOnUse" x1="302.857" x2="302.857" y1="366.648" y2="609.505"><stop offset="0" stop-opacity="0"/><stop offset=".5"/><stop offset="1" stop-opacity="0"/></linearGradient><linearGradient id="e" gradientTransform="matrix(.53064 0 0 .5897 39.27 -1.792)" gradientUnits="userSpaceOnUse" x1="-51.786" x2="-51.786" y1="50.786" y2="2.906"><stop offset="0" stop-opacity=".318"/><stop offset="1" stop-opacity=".24"/></linearGradient><path d="M8 1h11v12.998L8 14z" fill="url(#f)" transform="translate(10)"/><g fill="none" stroke-linejoin="round"><path d="M18.5 13.498l-10 .002v-12l10-.002z" stroke="url(#g)" stroke-linecap="round" transform="translate(10)"/><path d="M7.5.5h12v13.998l-12 .002z" stroke="url(#h)" transform="translate(10)"/></g><path d="M8 18h11v12.998L8 31z" fill="url(#i)" transform="translate(10)"/><g fill="none" stroke-linejoin="round"><path d="M18.5 13.498l-10 .002v-12l10-.002z" stroke="url(#j)" stroke-linecap="round" transform="translate(10 17)"/><path d="M7.5.5h12v13.998l-12 .002z" stroke="url(#k)" transform="translate(10 17)"/></g><g><path d="M-11 1H0v12.998L-11 14z" fill="url(#l)" transform="translate(14)"/><g fill="none" stroke-linejoin="round"><path d="M18.5 13.498l-10 .002v-12l10-.002z" stroke="url(#m)" stroke-linecap="round" transform="translate(-5)"/><path d="M7.5.5h12v13.998l-12 .002z" stroke="url(#n)" transform="translate(-5)"/></g><path d="M-11 18H0v12.998L-11 31z" fill="url(#o)" transform="translate(14)"/><g fill="none" stroke-linejoin="round"><path d="M18.5 13.498l-10 .002v-12l10-.002z" stroke="url(#p)" stroke-linecap="round" transform="translate(-5 17)"/><path d="M7.5.5h12v13.998l-12 .002z" stroke="url(#q)" transform="translate(-5 17)"/></g></g></svg>