<svg xmlns="http://www.w3.org/2000/svg" xmlns:xlink="http://www.w3.org/1999/xlink" height="32" width="32"><linearGradient id="b" gradientTransform="matrix(.0328 0 0 .01647 .15 20.963)" gradientUnits="userSpaceOnUse" x1="302.857" x2="302.857" y1="366.648" y2="609.505"><stop offset="0" stop-opacity="0"/><stop offset=".5"/><stop offset="1" stop-opacity="0"/></linearGradient><radialGradient id="c" cx="605.714" cy="486.648" gradientTransform="matrix(.0328 0 0 .01647 .154 20.963)" gradientUnits="userSpaceOnUse" r="117.143" xlink:href="#a"/><linearGradient id="a"><stop offset="0"/><stop offset="1" stop-opacity="0"/></linearGradient><radialGradient id="d" cx="605.714" cy="486.648" gradientTransform="matrix(-.0328 0 0 .01647 23.846 20.963)" gradientUnits="userSpaceOnUse" r="117.143" xlink:href="#a"/><linearGradient id="e" gradientTransform="matrix(.57576 0 0 .62295 -2.394 4.893)" gradientUnits="userSpaceOnUse" x1="25" x2="25" y1="17.829" y2="8.197"><stop offset="0" stop-color="#cdcdcd"/><stop offset="1" stop-color="#fff"/></linearGradient><path d="M4.082 27l15.593-.013v4L4.082 31z" opacity=".236" fill="url(#b)" transform="translate(.18 -10.828) scale(1.33333)"/><path d="M19.675 26.987v4c1.69.008 4.082-.896 4.082-2s-1.883-2-4.08-2z" opacity=".236" fill="url(#c)" transform="translate(.18 -10.828) scale(1.33333)"/><path d="M4.082 27v4C2.392 31.01 0 30.105 0 29c0-1.103 1.883-2 4.08-2z" opacity=".236" fill="url(#d)" transform="translate(.18 -10.828) scale(1.33333)"/><path d="M4.487 10.743c-1.108 0-2 .892-2 2L2.5 29.5l18.757-.013-.013-16.758c0-1.11-.892-2.002-2-2z" fill="url(#e)" stroke="#8c8c8c" stroke-width=".75" transform="translate(.18 -10.828) scale(1.33333)"/><path d="M27.49 9.967l-.006-4.12c0-.738-.594-1.334-1.333-1.333l-20.3.034c-.74 0-1.335.594-1.334 1.333L4.523 10" opacity=".8" fill="none" stroke="#fff" stroke-width=".9999974999999999"/><path d="M4.18 10.505l23.676-.018V27.82l-23.676.02z" fill="#fff"/><path d="M17 11h11v17H17z" fill="#eee"/><path d="M4 10.49l24-.012" fill="none" stroke="#a0a0a0" stroke-width=".9999974999999999"/><g fill="gray"><path d="M16.495 11l.015 17" stroke="#b3b3b3" stroke-width=".9999974999999999"/><path d="M6 6h1v1H6zm2 0h1v1H8zm2 0h1v1h-1z" opacity=".6"/></g><path d="M4 11.504l24-.017" opacity=".05" fill="none" stroke="#000" stroke-width=".9999974999999999"/></svg>