<svg xmlns="http://www.w3.org/2000/svg" xmlns:xlink="http://www.w3.org/1999/xlink" width="32" height="32"><defs><linearGradient id="f" gradientTransform="matrix(.3712 0 0 .40353 .212 8.052)" gradientUnits="userSpaceOnUse" x1="25.029" x2="24" xlink:href="#a" y1="6.925" y2="43"/><linearGradient xlink:href="#b" id="g" x1="46.985" y1="10" x2="46.985" y2="23" gradientUnits="userSpaceOnUse"/><linearGradient id="b"><stop offset="0" stop-color="#c6262e"/><stop offset="1" stop-color="#b5232a"/></linearGradient><linearGradient xlink:href="#c" id="h" x1="46.985" y1="11.47" x2="46.985" y2="20" gradientUnits="userSpaceOnUse"/><linearGradient id="c" gradientTransform="matrix(0 -.59172 -.63517 0 9.814 30.722)" gradientUnits="userSpaceOnUse" x1="38.941" x2="20.576" y1="15.991" y2="15.991"><stop offset="0" stop-color="#fff"/><stop offset=".125" stop-color="#fff" stop-opacity=".235"/><stop offset=".939" stop-color="#fff" stop-opacity=".157"/><stop offset="1" stop-color="#fff" stop-opacity=".392"/></linearGradient></defs><linearGradient id="e" gradientTransform="matrix(.44577 0 0 .44994 .802 7.975)" gradientUnits="userSpaceOnUse" x1="25.132" x2="25.132" y1="15.5" y2="48.396"><stop offset="0" stop-color="#fafafa"/><stop offset="1" stop-color="#e2e1de"/></linearGradient><linearGradient id="d" gradientTransform="matrix(.48484 0 0 .52706 -.165 7.6)" gradientUnits="userSpaceOnUse" x1="24" x2="24" xlink:href="#a" y1="5" y2="43"/><linearGradient id="a"><stop offset="0" stop-color="#fff"/><stop offset=".063" stop-color="#fff" stop-opacity=".235"/><stop offset=".951" stop-color="#fff" stop-opacity=".157"/><stop offset="1" stop-color="#fff" stop-opacity=".392"/></linearGradient><path d="M2.252 10.272l19.922.014.028 19.156-19.922-.014z" fill="none" stroke="url(#d)" stroke-width=".766" stroke-linecap="round" stroke-linejoin="round" transform="translate(.522 -9.892) scale(1.30612)"/><path d="M2.47 9.895l19.588.017c.293 0 .53.248.528.556l-.03 18.768c0 .308-.236.556-.528.556L2.44 29.774c-.293 0-.53-.248-.528-.556l.03-18.767c0-.306.236-.555.53-.554z" fill="url(#e)" transform="translate(.522 -9.892) scale(1.30612)"/><path d="M3.87 2.516c-.75 0-1.35.604-1.352 1.355l-.01 4.736H2.48l.014 7.4-.014 7.4h.028l.01 4.736c0 .752.603 1.354 1.353 1.354h25.3c.75 0 1.355-.602 1.353-1.35l-.023-12.14.02-12.136c.003-.75-.602-1.354-1.352-1.354H3.87z" opacity=".5" fill="none" stroke="#2a70a7"/><path d="M2.252 10.272l19.922.014.028 19.156-19.922-.014z" fill="none" stroke="url(#f)" stroke-width=".842" stroke-linecap="round" stroke-linejoin="round" transform="translate(.522 -9.892) scale(1.30612)"/><g font-weight="bold" letter-spacing="0" word-spacing="0" font-family="Aharoni"><path d="M46.39 10.484c.606-.002 1.125.05 1.554.148 2.437.56 3.51 2.657 3.54 4.92-.18 2.407-.828 3.926-2.86 4.76-.443.11-1.494.177-2.244.18l-4.892.015V16.47l4.537-.016c2-.052 1.988-1.91.01-1.968l-4.537.016V10.5z" style="line-height:1.25;-inkscape-font-specification:'Aharoni Bold'" transform="translate(-37.653 .66) scale(1.33333)" fill="url(#g)" stroke="#2a0303" stroke-opacity=".49"/><path d="M17.678 14.66v5.336l3.336-.01V14.66zm3.336 7.95l-3.336.01v4.707h3.336z" style="line-height:1.25;-inkscape-font-specification:'Aharoni Bold'" fill="#eee" fill-opacity=".761"/><path d="M24.198 14.64l-6.52.02v1.333l6.52-.02c.81-.003 1.503.066 2.076.197 2.96.68 4.397 3.066 4.66 5.77.02-.182.045-.356.06-.543-.042-3.02-1.472-5.813-4.72-6.56-.573-.132-1.266-.2-2.076-.198zm1.21 7.317c-.31.35-.853.62-1.694.643l-6.05.02.003 1.334 6.047-.02c1.827-.048 2.362-1.215 1.693-1.977z" style="line-height:1.25;-inkscape-font-specification:'Aharoni Bold'" opacity=".1" fill="#206b00" stroke="#fff"/><path style="line-height:1.25;-inkscape-font-specification:'Aharoni Bold'" d="M46.393 11.47l-3.91.012v2.032l3.546-.012h.03c.65.018 1.22.183 1.67.516.453.332.776.872.777 1.453 0 .58-.32 1.126-.776 1.46-.453.332-1.027.493-1.68.51h-.022l-3.555.012.02 2.06 3.905-.012c.663-.002 1.66-.094 1.92-.143.788-.337 1.23-.566 1.56-1.197.334-.636.523-1.525.61-2.63-.02-.963-.252-1.86-.695-2.534-.45-.684-1.083-1.175-2.07-1.402-.334-.077-.783-.125-1.332-.123z" transform="translate(-37.653 .66) scale(1.33333)" opacity=".53" fill="none" stroke="url(#h)" stroke-width=".75" stroke-opacity=".915"/></g></svg>