<?xml version="1.0" encoding="UTF-8" standalone="no"?>
<svg
   xmlns:dc="http://purl.org/dc/elements/1.1/"
   xmlns:cc="http://creativecommons.org/ns#"
   xmlns:rdf="http://www.w3.org/1999/02/22-rdf-syntax-ns#"
   xmlns:svg="http://www.w3.org/2000/svg"
   xmlns="http://www.w3.org/2000/svg"
   xmlns:xlink="http://www.w3.org/1999/xlink"
   xmlns:sodipodi="http://sodipodi.sourceforge.net/DTD/sodipodi-0.dtd"
   xmlns:inkscape="http://www.inkscape.org/namespaces/inkscape"
   height="32"
   width="32"
   version="1.1"
   id="svg71"
   sodipodi:docname="snapborder.svg"
   inkscape:version="0.92.3 (unknown)">
  <metadata
     id="metadata77">
    <rdf:RDF>
      <cc:Work
         rdf:about="">
        <dc:format>image/svg+xml</dc:format>
        <dc:type
           rdf:resource="http://purl.org/dc/dcmitype/StillImage" />
      </cc:Work>
    </rdf:RDF>
  </metadata>
  <defs
     id="defs75" />
  <sodipodi:namedview
     pagecolor="#ffffff"
     bordercolor="#666666"
     borderopacity="1"
     objecttolerance="10"
     gridtolerance="10"
     guidetolerance="10"
     inkscape:pageopacity="0"
     inkscape:pageshadow="2"
     inkscape:window-width="1366"
     inkscape:window-height="706"
     id="namedview73"
     showgrid="false"
     inkscape:zoom="7.375"
     inkscape:cx="-2.3050847"
     inkscape:cy="14.915254"
     inkscape:window-x="0"
     inkscape:window-y="0"
     inkscape:window-maximized="1"
     inkscape:current-layer="svg71" />
  <linearGradient
     id="a"
     gradientUnits="userSpaceOnUse"
     x1="46.985"
     x2="46.985"
     y1="10"
     y2="23">
    <stop
       offset="0"
       stop-color="#c6262e"
       id="stop2" />
    <stop
       offset="1"
       stop-color="#b5232a"
       id="stop4" />
  </linearGradient>
  <linearGradient
     id="b"
     gradientTransform="matrix(0 -.59172 -.63517 0 9.814 30.722)"
     gradientUnits="userSpaceOnUse"
     x1="46.985"
     x2="46.985"
     y1="11.47"
     y2="20">
    <stop
       offset="0"
       stop-color="#fff"
       id="stop7" />
    <stop
       offset=".125"
       stop-color="#fff"
       stop-opacity=".235"
       id="stop9" />
    <stop
       offset=".939"
       stop-color="#fff"
       stop-opacity=".157"
       id="stop11" />
    <stop
       offset="1"
       stop-color="#fff"
       stop-opacity=".392"
       id="stop13" />
  </linearGradient>
  <linearGradient
     id="c">
    <stop
       offset="0"
       id="stop16" />
    <stop
       offset="1"
       stop-opacity="0"
       id="stop18" />
  </linearGradient>
  <linearGradient
     id="d"
     gradientTransform="matrix(.56757 0 0 .72973 2.378 -2.514)"
     gradientUnits="userSpaceOnUse"
     x1="24"
     x2="24"
     y1="5.564"
     y2="43">
    <stop
       offset="0"
       stop-color="#fff"
       id="stop21" />
    <stop
       offset=".036"
       stop-color="#fff"
       stop-opacity=".235"
       id="stop23" />
    <stop
       offset=".951"
       stop-color="#fff"
       stop-opacity=".157"
       id="stop25" />
    <stop
       offset="1"
       stop-color="#fff"
       stop-opacity=".392"
       id="stop27" />
  </linearGradient>
  <linearGradient
     id="e"
     gradientTransform="matrix(.62857 0 0 .6084 .914 -.535)"
     gradientUnits="userSpaceOnUse"
     x1="25.132"
     x2="25.132"
     y1=".985"
     y2="47.013">
    <stop
       offset="0"
       stop-color="#f4f4f4"
       id="stop30" />
    <stop
       offset="1"
       stop-color="#dbdbdb"
       id="stop32" />
  </linearGradient>
  <radialGradient
     id="f"
     cx="605.714"
     cy="486.648"
     gradientTransform="matrix(.01566 0 0 .00824 17.61 25.98)"
     gradientUnits="userSpaceOnUse"
     r="117.143"
     xlink:href="#c" />
  <radialGradient
     id="g"
     cx="605.714"
     cy="486.648"
     gradientTransform="matrix(-.01566 0 0 .00824 14.39 25.98)"
     gradientUnits="userSpaceOnUse"
     r="117.143"
     xlink:href="#c" />
  <linearGradient
     id="h"
     gradientTransform="matrix(.04577 0 0 .00824 -.542 25.98)"
     gradientUnits="userSpaceOnUse"
     x1="302.857"
     x2="302.857"
     y1="366.648"
     y2="609.505">
    <stop
       offset="0"
       stop-opacity="0"
       id="stop37" />
    <stop
       offset=".5"
       id="stop39" />
    <stop
       offset="1"
       stop-opacity="0"
       id="stop41" />
  </linearGradient>
  <linearGradient
     id="i"
     gradientTransform="matrix(.53064 0 0 .5897 39.27 -1.792)"
     gradientUnits="userSpaceOnUse"
     x1="-51.786"
     x2="-51.786"
     y1="50.786"
     y2="2.906">
    <stop
       offset="0"
       stop-opacity=".318"
       id="stop44" />
    <stop
       offset="1"
       stop-opacity=".24"
       id="stop46" />
  </linearGradient>
  <g
     id="g902">
    <path
       id="path49"
       opacity=".15"
       fill="url(#h)"
       d="m4.95 29h22.1v2h-22.1z" />
    <path
       id="path51"
       opacity=".15"
       fill="url(#g)"
       d="m4.95 29v2c-.807.004-1.95-.448-1.95-1s.9-1 1.95-1z" />
    <path
       id="path53"
       opacity=".15"
       fill="url(#f)"
       d="m27.05 29v2c.807.004 1.95-.448 1.95-1s-.9-1-1.95-1z" />
    <path
       id="path55"
       fill="url(#e)"
       d="m5 1 22 .002v27.998h-22z" />
    <g
       id="g61"
       stroke-linejoin="round"
       fill="none">
      <path
         id="path57"
         stroke-linecap="round"
         stroke="url(#d)"
         d="m26.5 28.5h-21v-27h21z" />
      <path
         id="path59"
         stroke="url(#i)"
         d="m4.5.5 23 .002v28.998h-23z" />
    </g>
  </g>
  <g
     id="g893">
    <path
       id="path63"
       transform="matrix(1.33333 0 0 1.33333 -37.653 .66)"
       stroke-opacity=".49"
       stroke="#2a0303"
       fill="url(#a)"
       d="m46.39 10.484c.606-.002 1.125.05 1.554.148 2.437.56 3.51 2.657 3.54 4.92-.18 2.407-.828 3.926-2.86 4.76-.443.11-1.494.177-2.244.18l-4.892.015v-4.037l4.537-.016c2-.052 1.988-1.91.01-1.968l-4.537.016v-4.002z" />
    <path
       id="path65"
       fill-opacity=".761"
       fill="#eee"
       d="m17.678 14.66v5.336l3.336-.01v-5.326zm3.336 7.95-3.336.01v4.707h3.336z" />
    <path
       id="path67"
       stroke-width=".999997"
       stroke="#fff"
       opacity=".1"
       fill="#206b00"
       d="m24.198 14.64-6.52.02v1.333l6.52-.02c.81-.003 1.503.066 2.076.197 2.96.68 4.397 3.066 4.66 5.77.02-.182.045-.356.06-.543-.042-3.02-1.472-5.813-4.72-6.56-.573-.132-1.266-.2-2.076-.198zm1.21 7.317c-.31.35-.853.62-1.694.643l-6.05.02.003 1.334 6.047-.02c1.827-.048 2.362-1.215 1.693-1.977z" />
    <path
       id="path69"
       transform="matrix(1.33333 0 0 1.33333 -37.653 .66)"
       stroke-width=".75"
       stroke-opacity=".915"
       stroke="url(#b)"
       opacity=".53"
       fill="none"
       d="m46.393 11.47-3.91.012v2.032l3.546-.012h.03c.65.018 1.22.183 1.672.516.452.332.775.872.776 1.453 0 .58-.32 1.125-.776 1.458-.454.333-1.028.494-1.68.51-.008.002-.016.002-.023 0l-3.555.013.02 2.06 3.905-.012c.663-.002 1.66-.094 1.92-.143.788-.337 1.23-.566 1.56-1.197.334-.636.523-1.525.61-2.63-.02-.963-.252-1.86-.695-2.534-.45-.684-1.083-1.175-2.07-1.402-.334-.077-.783-.125-1.332-.123z" />
  </g>
</svg>
