<?xml version="1.0" encoding="UTF-8" standalone="no"?>
<svg
   xmlns:dc="http://purl.org/dc/elements/1.1/"
   xmlns:cc="http://creativecommons.org/ns#"
   xmlns:rdf="http://www.w3.org/1999/02/22-rdf-syntax-ns#"
   xmlns:svg="http://www.w3.org/2000/svg"
   xmlns="http://www.w3.org/2000/svg"
   xmlns:xlink="http://www.w3.org/1999/xlink"
   xmlns:sodipodi="http://sodipodi.sourceforge.net/DTD/sodipodi-0.dtd"
   xmlns:inkscape="http://www.inkscape.org/namespaces/inkscape"
   height="32"
   width="32"
   version="1.1"
   id="svg89"
   sodipodi:docname="snappoints.svg"
   inkscape:version="0.92.3 (unknown)">
  <metadata
     id="metadata95">
    <rdf:RDF>
      <cc:Work
         rdf:about="">
        <dc:format>image/svg+xml</dc:format>
        <dc:type
           rdf:resource="http://purl.org/dc/dcmitype/StillImage" />
        <dc:title></dc:title>
      </cc:Work>
    </rdf:RDF>
  </metadata>
  <defs
     id="defs93">
    <linearGradient
       inkscape:collect="always"
       xlink:href="#n"
       id="linearGradient936"
       gradientUnits="userSpaceOnUse"
       gradientTransform="matrix(1.96316,0,0,1.00005,32.088,-395.874)"
       x1="-16"
       y1="423.455"
       x2="-5.521"
       y2="423.353" />
    <linearGradient
       inkscape:collect="always"
       xlink:href="#o"
       id="linearGradient938"
       gradientUnits="userSpaceOnUse"
       gradientTransform="matrix(1.96316,0,0,1,11.76,-395.863)"
       x1="-5.913"
       y1="423.373"
       x2="4.452"
       y2="423.363" />
    <linearGradient
       inkscape:collect="always"
       xlink:href="#a"
       id="linearGradient940"
       gradientUnits="userSpaceOnUse"
       gradientTransform="matrix(0.97222,0,0,0.9722,-21.625,34.187)"
       x1="12.198"
       y1="401.096"
       x2="15.699"
       y2="404.598" />
    <linearGradient
       inkscape:collect="always"
       xlink:href="#h"
       id="linearGradient942"
       gradientUnits="userSpaceOnUse"
       gradientTransform="matrix(0.875,0,0,0.87507,-20.313,73.283)"
       x1="12.816"
       y1="400.389"
       x2="12.816"
       y2="406.511" />
    <linearGradient
       id="a-0"
       gradientUnits="userSpaceOnUse"
       x1="46.985001"
       x2="46.985001"
       y1="10"
       y2="23">
      <stop
         offset="0"
         stop-color="#c6262e"
         id="stop2-4" />
      <stop
         offset="1"
         stop-color="#b5232a"
         id="stop4-8" />
    </linearGradient>
    <linearGradient
       id="b-0"
       gradientTransform="matrix(0,-0.59172,-0.63517,0,9.814,30.722)"
       gradientUnits="userSpaceOnUse"
       x1="46.985001"
       x2="46.985001"
       y1="11.47"
       y2="20">
      <stop
         offset="0"
         stop-color="#fff"
         id="stop7" />
      <stop
         offset=".125"
         stop-color="#fff"
         stop-opacity=".235"
         id="stop9" />
      <stop
         offset=".939"
         stop-color="#fff"
         stop-opacity=".157"
         id="stop11" />
      <stop
         offset="1"
         stop-color="#fff"
         stop-opacity=".392"
         id="stop13" />
    </linearGradient>
  </defs>
  <sodipodi:namedview
     pagecolor="#ffffff"
     bordercolor="#666666"
     borderopacity="1"
     objecttolerance="10"
     gridtolerance="10"
     guidetolerance="10"
     inkscape:pageopacity="0"
     inkscape:pageshadow="2"
     inkscape:window-width="1366"
     inkscape:window-height="706"
     id="namedview91"
     showgrid="true"
     inkscape:zoom="7.375"
     inkscape:cx="-18.2201"
     inkscape:cy="24.12075"
     inkscape:window-x="0"
     inkscape:window-y="0"
     inkscape:window-maximized="1"
     inkscape:current-layer="svg89">
    <inkscape:grid
       type="xygrid"
       id="grid902"
       spacingx="0.5"
       spacingy="0.5" />
  </sodipodi:namedview>
  <linearGradient
     id="a"
     gradientTransform="matrix(.97222 0 0 .9722 -21.625 34.187)"
     gradientUnits="userSpaceOnUse"
     x1="12.198"
     x2="15.699"
     y1="401.096"
     y2="404.598">
    <stop
       offset="0"
       stop-color="#d3d7cf"
       id="stop2" />
    <stop
       offset="1"
       stop-color="#fafbfa"
       id="stop4" />
  </linearGradient>
  <linearGradient
     id="b"
     gradientTransform="matrix(.875 0 0 .87507 -20.313 73.283)"
     gradientUnits="userSpaceOnUse"
     x1="12.816"
     x2="12.816"
     xlink:href="#h"
     y1="400.389"
     y2="406.511" />
  <linearGradient
     id="c"
     gradientTransform="matrix(1.96316 0 0 1.00005 32.088 -395.874)"
     gradientUnits="userSpaceOnUse"
     x1="-16"
     x2="-5.521"
     xlink:href="#n"
     y1="423.455"
     y2="423.353" />
  <linearGradient
     id="d"
     gradientTransform="matrix(1.96316 0 0 1 11.76 -395.863)"
     gradientUnits="userSpaceOnUse"
     x1="-5.913"
     x2="4.452"
     xlink:href="#o"
     y1="423.373"
     y2="423.363" />
  <linearGradient
     id="e"
     gradientUnits="userSpaceOnUse"
     x1="9.151"
     x2="9.151"
     y1="8.541"
     y2="1.818">
    <stop
       offset="0"
       stop-color="#fcaf3e"
       id="stop10" />
    <stop
       offset="1"
       stop-color="#fcaf3e"
       stop-opacity="0"
       id="stop12" />
  </linearGradient>
  <linearGradient
     id="f"
     gradientUnits="userSpaceOnUse"
     x1="12.336"
     x2="12.336"
     y1="6.005"
     y2="1.279">
    <stop
       offset="0"
       stop-color="#ce5c00"
       id="stop15" />
    <stop
       offset="1"
       stop-color="#ce5c00"
       stop-opacity="0"
       id="stop17" />
  </linearGradient>
  <linearGradient
     id="g"
     gradientUnits="userSpaceOnUse"
     x1="10.85"
     x2="10.85"
     xlink:href="#h"
     y1="6.949"
     y2="3.167" />
  <linearGradient
     id="h">
    <stop
       offset="0"
       stop-color="#fff"
       id="stop21" />
    <stop
       offset="1"
       stop-color="#fff"
       stop-opacity="0"
       id="stop23" />
  </linearGradient>
  <linearGradient
     id="i"
     gradientTransform="matrix(1.29412 0 0 1.00005 1.706 1.98)"
     gradientUnits="userSpaceOnUse"
     x1="-16"
     x2="-11.806"
     xlink:href="#n"
     y1="423.455"
     y2="423.455" />
  <linearGradient
     id="j"
     gradientTransform="matrix(1.29412 0 0 1 1.706 2)"
     gradientUnits="userSpaceOnUse"
     x1="-16"
     x2="-11.467"
     xlink:href="#o"
     y1="423.586"
     y2="423.586" />
  <linearGradient
     id="k"
     gradientTransform="matrix(1.29412 0 0 1 21.303 -396.613)"
     gradientUnits="userSpaceOnUse"
     x1="-16"
     x2="-11.467"
     xlink:href="#o"
     y1="423.586"
     y2="423.586" />
  <linearGradient
     id="l"
     gradientTransform="matrix(1.29412 0 0 1.00005 21.303 -411.633)"
     gradientUnits="userSpaceOnUse"
     x1="-16"
     x2="-11.371"
     xlink:href="#n"
     y1="423.455"
     y2="423.362" />
  <linearGradient
     id="m"
     gradientTransform="matrix(1.29412 0 0 1 7.902 -411.622)"
     gradientUnits="userSpaceOnUse"
     x1="-5.913"
     x2="-1.277"
     xlink:href="#o"
     y1="423.373"
     y2="423.373" />
  <linearGradient
     id="n">
    <stop
       offset="0"
       stop-color="#555753"
       stop-opacity="0"
       id="stop31" />
    <stop
       offset=".2"
       stop-color="#555753"
       id="stop33" />
    <stop
       offset=".8"
       stop-color="#555753"
       id="stop35" />
    <stop
       offset="1"
       stop-color="#555753"
       stop-opacity="0"
       id="stop37" />
  </linearGradient>
  <linearGradient
     id="o">
    <stop
       offset="0"
       stop-color="#babdb6"
       stop-opacity="0"
       id="stop40" />
    <stop
       offset=".2"
       stop-color="#babdb6"
       id="stop42" />
    <stop
       offset=".844"
       stop-color="#babdb6"
       id="stop44" />
    <stop
       offset="1"
       stop-color="#babdb6"
       stop-opacity="0"
       id="stop46" />
  </linearGradient>
  <g
     opacity=".5"
     id="g59">
    <path
       d="m 0.15,26.01 9.849775,-0.0097 v 3 L 0.15,29.01 Z"
       transform="matrix(1.33333,0,0,1.33333,0.667,-29.667)"
       id="path49"
       inkscape:connector-curvature="0"
       style="fill:url(#c)"
       sodipodi:nodetypes="ccccc" />
    <path
       d="m 0.3,26.75 9.699775,3.38e-4 v 1.5 L 0.3,28.25 Z"
       transform="matrix(1.33333,0,0,1.33333,0.667,-29.667)"
       id="path51"
       inkscape:connector-curvature="0"
       style="fill:url(#d)"
       sodipodi:nodetypes="ccccc" />
    <g
       stroke-linecap="round"
       stroke-width=".875"
       id="g57">
      <path
         d="m -16.627848,422.57177 h 6.113 l 0.015,6.11 h -6.112 z"
         transform="matrix(1.14285,0,0,1.14285,25.51,-479.435)"
         id="path53"
         inkscape:connector-curvature="0"
         style="fill:url(#a);stroke:#888a85;stroke-linejoin:round"
         sodipodi:nodetypes="ccccc" />
      <path
         d="m -15.758848,423.44577 4.393,0.01 -0.02,4.37 -4.346,-0.034 z"
         transform="matrix(1.14285,0,0,1.14285,25.51,-479.435)"
         id="path55"
         inkscape:connector-curvature="0"
         style="fill:none;stroke:url(#b)"
         sodipodi:nodetypes="ccccc" />
    </g>
  </g>
  <path
     d="m-19.153 424.137h9v3h-9z"
     fill="url(#i)"
     transform="matrix(-1.33333 0 0 -1.33333 5.46 592.514)"
     id="path67" />
  <path
     d="m-19.153 424.887h9v1.5h-9z"
     fill="url(#j)"
     transform="matrix(-1.33333 0 0 -1.33333 5.46 592.514)"
     id="path69" />
  <path
     d="m13.75 26 8.9.01-.053 1.377-8.847.113z"
     fill="url(#k)"
     transform="matrix(1.33333 0 0 1.33333 .667 -10.667)"
     id="path71" />
  <g
     stroke-linecap="round"
     stroke-width=".875"
     id="g77">
    <path
       d="m-11.386 422.57h6.113l.015 6.11h-6.112z"
       fill="url(#a)"
       stroke="#888a85"
       stroke-linejoin="round"
       transform="matrix(1.14285 0 0 1.14285 32.51 -461.435)"
       id="path73" />
    <path
       d="m-10.517 423.444 4.393.01-.02 4.37-4.346-.034z"
       fill="none"
       stroke="url(#b)"
       transform="matrix(1.14285 0 0 1.14285 32.51 -461.435)"
       id="path75" />
  </g>
  <path
     d="m.25 10.25h6.75v3h-6.75z"
     fill="url(#l)"
     transform="matrix(1.33333 0 0 1.33333 .667 9.333)"
     id="path79" />
  <path
     d="m.35 10.99 8.9.01-.054 1.378-8.847.113z"
     fill="url(#m)"
     transform="matrix(1.33333 0 0 1.33333 .667 9.333)"
     id="path81" />
  <g
     stroke-linecap="round"
     stroke-width=".875"
     id="g87">
    <path
       d="m-11.386 422.57h6.113l.015 6.11h-6.112z"
       fill="url(#a)"
       stroke="#888a85"
       stroke-linejoin="round"
       transform="matrix(1.14285 0 0 1.14285 18.51 -461.435)"
       id="path83" />
    <path
       d="m-10.517 423.444 4.393.01-.02 4.37-4.346-.034z"
       fill="none"
       stroke="url(#b)"
       transform="matrix(1.14285 0 0 1.14285 18.51 -461.435)"
       id="path85" />
  </g>
  <g
     id="g934"
     transform="matrix(-1,0,0,1,32.877245,0)"
     style="opacity:0.5">
    <path
       sodipodi:nodetypes="ccccc"
       style="fill:url(#linearGradient936)"
       inkscape:connector-curvature="0"
       id="path924"
       transform="matrix(1.33333,0,0,1.33333,0.667,-29.667)"
       d="m 0.15,26.01 9.849775,-0.0097 v 3 L 0.15,29.01 Z" />
    <path
       sodipodi:nodetypes="ccccc"
       style="fill:url(#linearGradient938)"
       inkscape:connector-curvature="0"
       id="path926"
       transform="matrix(1.33333,0,0,1.33333,0.667,-29.667)"
       d="m 0.3,26.75 9.699775,3.38e-4 v 1.5 L 0.3,28.25 Z" />
    <g
       id="g932"
       style="stroke-width:0.875;stroke-linecap:round">
      <path
         sodipodi:nodetypes="ccccc"
         style="fill:url(#linearGradient940);stroke:#888a85;stroke-linejoin:round"
         inkscape:connector-curvature="0"
         id="path928"
         transform="matrix(1.14285,0,0,1.14285,25.51,-479.435)"
         d="m -16.627848,422.57177 h 6.113 l 0.015,6.11 h -6.112 z" />
      <path
         sodipodi:nodetypes="ccccc"
         style="fill:none;stroke:url(#linearGradient942)"
         inkscape:connector-curvature="0"
         id="path930"
         transform="matrix(1.14285,0,0,1.14285,25.51,-479.435)"
         d="m -15.758848,423.44577 4.393,0.01 -0.02,4.37 -4.346,-0.034 z" />
    </g>
  </g>
  <g
     id="g893">
    <path
       style="fill:url(#a-0);stroke:#2a0303;stroke-opacity:0.49000005"
       inkscape:connector-curvature="0"
       id="path63"
       transform="matrix(1.33333,0,0,1.33333,-37.653,0.66)"
       d="m 46.39,10.484 c 0.606,-0.002 1.125,0.05 1.554,0.148 2.437,0.56 3.51,2.657 3.54,4.92 -0.18,2.407 -0.828,3.926 -2.86,4.76 -0.443,0.11 -1.494,0.177 -2.244,0.18 l -4.892,0.015 V 16.47 l 4.537,-0.016 c 2,-0.052 1.988,-1.91 0.01,-1.968 l -4.537,0.016 V 10.5 Z" />
    <path
       style="fill:#eeeeee;fill-opacity:0.76099997"
       inkscape:connector-curvature="0"
       id="path65"
       d="m 17.678,14.66 v 5.336 l 3.336,-0.01 V 14.66 Z m 3.336,7.95 -3.336,0.01 v 4.707 h 3.336 z" />
    <path
       style="opacity:0.1;fill:#206b00;stroke:#ffffff;stroke-width:0.99999702"
       inkscape:connector-curvature="0"
       id="path67-4"
       d="m 24.198,14.64 -6.52,0.02 v 1.333 l 6.52,-0.02 c 0.81,-0.003 1.503,0.066 2.076,0.197 2.96,0.68 4.397,3.066 4.66,5.77 0.02,-0.182 0.045,-0.356 0.06,-0.543 -0.042,-3.02 -1.472,-5.813 -4.72,-6.56 -0.573,-0.132 -1.266,-0.2 -2.076,-0.198 z m 1.21,7.317 c -0.31,0.35 -0.853,0.62 -1.694,0.643 l -6.05,0.02 0.003,1.334 6.047,-0.02 c 1.827,-0.048 2.362,-1.215 1.693,-1.977 z" />
    <path
       style="opacity:0.52999998;fill:none;stroke:url(#b-0);stroke-width:0.75;stroke-opacity:0.91500005"
       inkscape:connector-curvature="0"
       id="path69-2"
       transform="matrix(1.33333,0,0,1.33333,-37.653,0.66)"
       d="m 46.393,11.47 -3.91,0.012 v 2.032 l 3.546,-0.012 h 0.03 c 0.65,0.018 1.22,0.183 1.672,0.516 0.452,0.332 0.775,0.872 0.776,1.453 0,0.58 -0.32,1.125 -0.776,1.458 -0.454,0.333 -1.028,0.494 -1.68,0.51 -0.008,0.002 -0.016,0.002 -0.023,0 l -3.555,0.013 0.02,2.06 3.905,-0.012 c 0.663,-0.002 1.66,-0.094 1.92,-0.143 0.788,-0.337 1.23,-0.566 1.56,-1.197 0.334,-0.636 0.523,-1.525 0.61,-2.63 -0.02,-0.963 -0.252,-1.86 -0.695,-2.534 -0.45,-0.684 -1.083,-1.175 -2.07,-1.402 -0.334,-0.077 -0.783,-0.125 -1.332,-0.123 z" />
  </g>
</svg>
