<svg xmlns="http://www.w3.org/2000/svg" xmlns:xlink="http://www.w3.org/1999/xlink" height="32" width="32"><defs><linearGradient xlink:href="#a" id="j" x1="46.985" y1="10" x2="46.985" y2="23" gradientUnits="userSpaceOnUse"/><linearGradient id="a"><stop offset="0" stop-color="#c6262e"/><stop offset="1" stop-color="#b5232a"/></linearGradient><linearGradient xlink:href="#b" id="k" x1="46.985" y1="11.47" x2="46.985" y2="20" gradientUnits="userSpaceOnUse"/><linearGradient id="b" gradientTransform="matrix(0 -.59172 -.63517 0 9.814 30.722)" gradientUnits="userSpaceOnUse" x1="38.941" x2="20.576" y1="15.991" y2="15.991"><stop offset="0" stop-color="#fff"/><stop offset=".125" stop-color="#fff" stop-opacity=".235"/><stop offset=".939" stop-color="#fff" stop-opacity=".157"/><stop offset="1" stop-color="#fff" stop-opacity=".392"/></linearGradient></defs><linearGradient id="c"><stop offset="0"/><stop offset="1" stop-opacity="0"/></linearGradient><linearGradient id="h" gradientTransform="matrix(.56757 0 0 .72973 2.378 -2.514)" gradientUnits="userSpaceOnUse" x1="24" x2="24" y1="5.564" y2="43"><stop offset="0" stop-color="#fff"/><stop offset=".036" stop-color="#fff" stop-opacity=".235"/><stop offset=".951" stop-color="#fff" stop-opacity=".157"/><stop offset="1" stop-color="#fff" stop-opacity=".392"/></linearGradient><linearGradient id="g" gradientTransform="matrix(.62857 0 0 .6084 .914 -.535)" gradientUnits="userSpaceOnUse" x1="25.132" x2="25.132" y1=".985" y2="47.013"><stop offset="0" stop-color="#f4f4f4"/><stop offset="1" stop-color="#dbdbdb"/></linearGradient><radialGradient id="f" cx="605.714" cy="486.648" gradientTransform="matrix(.01566 0 0 .00824 17.61 25.98)" gradientUnits="userSpaceOnUse" r="117.143" xlink:href="#c"/><radialGradient id="e" cx="605.714" cy="486.648" gradientTransform="matrix(-.01566 0 0 .00824 14.39 25.98)" gradientUnits="userSpaceOnUse" r="117.143" xlink:href="#c"/><linearGradient id="d" gradientTransform="matrix(.04577 0 0 .00824 -.542 25.98)" gradientUnits="userSpaceOnUse" x1="302.857" x2="302.857" y1="366.648" y2="609.505"><stop offset="0" stop-opacity="0"/><stop offset=".5"/><stop offset="1" stop-opacity="0"/></linearGradient><linearGradient id="i" gradientTransform="matrix(.53064 0 0 .5897 39.27 -1.792)" gradientUnits="userSpaceOnUse" x1="-51.786" x2="-51.786" y1="50.786" y2="2.906"><stop offset="0" stop-opacity=".318"/><stop offset="1" stop-opacity=".24"/></linearGradient><path d="M4.95 29h22.1v2H4.95z" fill="url(#d)" opacity=".15"/><path d="M4.95 29v2c-.807.004-1.95-.448-1.95-1s.9-1 1.95-1z" fill="url(#e)" opacity=".15"/><path d="M27.05 29v2c.807.004 1.95-.448 1.95-1s-.9-1-1.95-1z" fill="url(#f)" opacity=".15"/><path d="M5 1l22 .002V29H5V1z" fill="url(#g)"/><g fill="none" stroke-linejoin="round"><path d="M26.5 28.5h-21v-27h21z" stroke="url(#h)" stroke-linecap="round"/><path d="M4.5.5l23 .002V29.5h-23V.5z" stroke="url(#i)"/></g><g font-weight="bold" font-family="Aharoni" letter-spacing="0" word-spacing="0"><path d="M46.39 10.484c.606-.002 1.125.05 1.554.148 2.437.56 3.51 2.657 3.54 4.92-.18 2.407-.828 3.926-2.86 4.76-.443.11-1.494.177-2.244.18l-4.892.015V16.47l4.537-.016c2-.052 1.988-1.91.01-1.968l-4.537.016V10.5z" style="line-height:1.25;-inkscape-font-specification:'Aharoni Bold'" fill="url(#j)" stroke="#2a0303" stroke-opacity=".49" transform="translate(-37.653 .66) scale(1.33333)"/><path d="M17.678 14.66v5.336l3.336-.01V14.66zm3.336 7.95l-3.336.01v4.707h3.336z" style="line-height:1.25;-inkscape-font-specification:'Aharoni Bold'" fill="#eee" fill-opacity=".761"/><path d="M24.198 14.64l-6.52.02v1.333l6.52-.02c.81-.003 1.503.066 2.076.197 2.96.68 4.397 3.066 4.66 5.77.02-.182.045-.356.06-.543-.042-3.02-1.472-5.813-4.72-6.56-.573-.132-1.266-.2-2.076-.198zm1.21 7.317c-.31.35-.853.62-1.694.643l-6.05.02.003 1.334 6.047-.02c1.827-.048 2.362-1.215 1.693-1.977z" style="line-height:1.25;-inkscape-font-specification:'Aharoni Bold'" opacity=".1" fill="#206b00" stroke="#fff" stroke-width=".9999974999999999"/><path style="line-height:1.25;-inkscape-font-specification:'Aharoni Bold'" d="M46.393 11.47l-3.91.012v2.032l3.546-.012h.03c.65.018 1.22.183 1.672.516.452.332.775.872.776 1.453 0 .58-.32 1.125-.776 1.458-.454.333-1.028.494-1.68.51-.008.002-.016.002-.023 0l-3.555.013.02 2.06 3.905-.012c.663-.002 1.66-.094 1.92-.143.788-.337 1.23-.566 1.56-1.197.334-.636.523-1.525.61-2.63-.02-.963-.252-1.86-.695-2.534-.45-.684-1.083-1.175-2.07-1.402-.334-.077-.783-.125-1.332-.123z" opacity=".53" fill="none" stroke="url(#k)" stroke-width=".75" stroke-opacity=".915" transform="translate(-37.653 .66) scale(1.33333)"/></g></svg>