<svg xmlns="http://www.w3.org/2000/svg" xmlns:xlink="http://www.w3.org/1999/xlink" width="32" height="32"><defs><linearGradient id="d"><stop offset="0" stop-color="#fff"/><stop offset=".52" stop-color="#fff" stop-opacity=".235"/><stop offset=".52" stop-color="#fff" stop-opacity=".157"/><stop offset="1" stop-color="#fff" stop-opacity=".392"/></linearGradient><linearGradient id="a"><stop offset="0"/><stop offset="1" stop-opacity="0"/></linearGradient><radialGradient r="8.063" fy="19.031" fx="11.25" cy="19.031" cx="11.25" gradientTransform="matrix(2.60465 0 0 .37206 -5.302 15.92)" gradientUnits="userSpaceOnUse" id="h" xlink:href="#a"/><linearGradient id="c"><stop offset="0" stop-color="#d1ff82"/><stop offset="1" stop-color="#68b723"/></linearGradient><linearGradient id="b"><stop offset="0" stop-color="#fff"/><stop offset="0" stop-color="#fff" stop-opacity=".235"/><stop offset="1" stop-color="#fff" stop-opacity=".157"/><stop offset="1" stop-color="#fff" stop-opacity=".392"/></linearGradient><linearGradient xlink:href="#b" id="j" gradientUnits="userSpaceOnUse" gradientTransform="matrix(-1.00464 0 0 1 53.044 -17.992)" x1="34.883" y1="22.992" x2="34.883" y2="28.992"/><linearGradient xlink:href="#c" id="i" x1="4.715" y1="22.595" x2="43.601" y2="22.595" gradientUnits="userSpaceOnUse" gradientTransform="matrix(0 1 1 0 2 -16)"/><linearGradient xlink:href="#d" id="k" gradientUnits="userSpaceOnUse" gradientTransform="matrix(-1.00464 0 0 1 53.044 -17.992)" x1="34.883" y1="12.992" x2="34.883" y2="37.992"/><radialGradient gradientTransform="matrix(.08508 0 0 .02707 .074 10.927)" gradientUnits="userSpaceOnUse" xlink:href="#e" id="l" fy="186.171" fx="99.157" r="62.769" cy="186.171" cx="99.157"/><linearGradient id="e"><stop offset="0" stop-color="#3d3d3d"/><stop offset=".5" stop-color="#686868" stop-opacity=".498"/><stop offset="1" stop-color="#686868" stop-opacity="0"/></linearGradient><linearGradient x1="2035.165" y1="3208.074" x2="2035.165" y2="3241.997" id="m" xlink:href="#f" gradientUnits="userSpaceOnUse" gradientTransform="matrix(.61402 0 0 .45904 -1243.367 -1471.69)"/><linearGradient id="f"><stop offset="0" stop-color="#64baff"/><stop offset="1" stop-color="#3689e6"/></linearGradient><linearGradient x1="71.204" y1="6.238" x2="71.204" y2="44.341" id="n" xlink:href="#g" gradientUnits="userSpaceOnUse" gradientTransform="matrix(.3918 0 0 .3918 -19.593 -1.424)"/><linearGradient id="g"><stop offset="0" stop-color="#fff"/><stop offset=".508" stop-color="#fff" stop-opacity=".235"/><stop offset=".835" stop-color="#fff" stop-opacity=".157"/><stop offset="1" stop-color="#fff" stop-opacity=".392"/></linearGradient></defs><path d="M44.5 22.906C44.5 26.906 3 27 3 23s41.5-4.094 41.5-.094z" overflow="visible" opacity=".163" fill="url(#h)" transform="translate(3.488 15.18) scale(.66667)"/><path d="M24.107-6.478l16.9 14.43L24.09 22.373v-9.87L7.505 12.6V3.545l16.602-.017z" overflow="visible" fill="url(#i)" transform="translate(3.488 15.18) scale(.66667)"/><path d="M24.5 11.434L8.497 11.5l.007-6.95 16.014-.018" overflow="visible" opacity=".6" fill="none" stroke="url(#j)" transform="translate(3.488 15.18) scale(.66667)"/><path d="M8.488 17.513l11.01-.01v-6.668l11.328 9.645-11.337 9.637V23.45l-11.002.063z" overflow="visible" opacity=".5" fill="none" stroke="#206b00" stroke-width="1.000005"/><path d="M25.017 4.983v-9.32L39.59 7.973 25 20.173l.017-9.19" overflow="visible" opacity=".6" fill="none" stroke="url(#k)" stroke-width="1.5" transform="translate(3.488 15.18) scale(.66667)"/><g><path d="M13.852 15.967a5.34 1.7 0 0 1-10.682 0 5.34 1.7 0 1 1 10.682 0z" fill="url(#l)"/><path d="M8.51.5C4.09.5.5 4.09.5 8.51s3.59 8.012 8.01 8.012 8.012-3.59 8.012-8.01S12.932.5 8.512.5z" color="#000" overflow="visible" opacity=".99" fill="url(#m)"/><path style="isolation:auto;mix-blend-mode:normal" d="M8.51.5C4.09.5.5 4.09.5 8.51s3.59 8.012 8.01 8.012 8.012-3.59 8.012-8.01S12.932.5 8.512.5z" color="#000" overflow="visible" opacity=".5" solid-color="#000000" fill="none" stroke="#002e99" stroke-linecap="round" stroke-linejoin="round"/><path d="M15.76 8.51c0 4.004-3.246 7.25-7.25 7.25-4.002 0-7.247-3.246-7.247-7.25 0-4.002 3.245-7.247 7.248-7.247 4.004 0 7.25 3.245 7.25 7.248z" color="#000" overflow="visible" opacity=".5" fill="none" stroke="url(#n)" stroke-linecap="round" stroke-linejoin="round"/><path style="isolation:auto;mix-blend-mode:normal" d="M9.202 4.005c-.82-.11-1.673-.038-2.455.238-.79.28-1.534.758-1.884 1.574-.223.5-.213 1.04 0 1.55s.78 1 1.478 1c.395 0 .79-.136 1.05-.38s.392-.566.43-.86c.047-.37-.062-.524-.12-.666.038-.042.1-.098.096-.095.042-.024.1-.036.143-.047.02-.006.03.003.047 0 .016-.004-.017-.003.07-.024.46-.11 1.012.197 1.145.405.003.003.033.064-.047.31-.08.244-.258.6-.5.953-.542.784-1.244 1.765-1.24 3.004 0 .322-.02.454.023.74.035.22.168.403.286.5.02.015.03.01.048.023-.34.15-.632.39-.81.692-.29.49-.3 1.183.095 1.717l-.024.022c.01.017.036.01.048.024.004.005-.003.02 0 .024.41.553 1.075.72 1.646.644.575-.078 1.188-.428 1.406-1.097.003-.007-.002-.017 0-.024.004-.01.02-.012.024-.024h-.024c.277-.8-.143-1.574-.834-1.932a.758.758 0 0 0 .334-.667c-.022-.773.098-1.315.715-1.764a.758.758 0 0 0 .024-.024c.477-.37.95-.807 1.336-1.335.377-.516.67-1.16.62-1.883v-.048h-.024c-.036-.763-.483-1.393-1.05-1.812-.57-.423-1.28-.667-2.026-.74-.008 0-.016.002-.024 0z" color="#000" font-weight="bold" font-size="72" font-family="Standard Symbols L" overflow="visible" opacity=".05" solid-color="#000000" fill="#002e99"/><path style="isolation:auto;mix-blend-mode:normal" d="M8.858 11.625c-.025-.9.177-1.773 1.027-2.392.898-.7 1.763-1.575 1.67-2.607-.02-.995-1.178-1.775-2.428-1.887-1.405-.196-3.106.285-3.577 1.383-.24.534-.017 1.49.784 1.49.47 0 .685-.3.72-.578.027-.21-.06-.397-.11-.57-.058-.198.19-.58.458-.736.225-.13.46-.175.496-.183.808-.194 1.613.235 1.95.757.335.522-.035 1.314-.567 2.084-.53.77-1.1 1.644-1.1 2.573 0 .355-.03.475-.008.618.018.115.396.1.686.047zm-.368 1.21c-.773-.04-1.308.835-.844 1.393.415.616 1.577.464 1.776-.233.207-.543-.29-1.168-.932-1.16z" color="#000" font-weight="bold" font-size="72" font-family="Standard Symbols L" overflow="visible" opacity=".15" solid-color="#000000" fill="#002e99"/><path d="M8.858 10.862c-.025-.9.177-1.773 1.027-2.392.898-.7 1.763-1.575 1.67-2.607-.02-.995-1.178-1.775-2.428-1.887C7.722 3.78 6.02 4.262 5.55 5.36c-.24.534-.017 1.49.784 1.49.47 0 .685-.3.72-.578.027-.21-.06-.397-.11-.57-.058-.198.19-.58.458-.736.225-.13.46-.174.496-.182.808-.194 1.613.235 1.95.757.335.523-.035 1.315-.567 2.085-.53.77-1.1 1.645-1.1 2.574 0 .352-.03.472-.008.615.018.115.396.1.686.047zm-.368 1.21c-.773-.04-1.308.835-.844 1.393.415.617 1.577.464 1.776-.233.207-.543-.29-1.168-.932-1.16z" font-weight="bold" font-size="72" font-family="Standard Symbols L" fill="#fff"/></g></svg>