<svg xmlns="http://www.w3.org/2000/svg" xmlns:xlink="http://www.w3.org/1999/xlink" height="32" width="32"><defs><radialGradient xlink:href="#a" id="c" cx="21" cy="4.911" fx="21" fy="4.911" r="9.482" gradientTransform="matrix(0 2.53104 -1.4237 0 27.99 -53.152)" gradientUnits="userSpaceOnUse"/></defs><linearGradient id="b" gradientTransform="matrix(.44364 0 0 .4085 -.75 .17)" gradientUnits="userSpaceOnUse" x1="23.306" x2="14.389" y1="24.844" y2="9.59"><stop offset="0" stop-color="#1f1f1f"/><stop offset="1" stop-color="#5c5c5c"/></linearGradient><radialGradient id="a" cx="7" cy="4.992" gradientTransform="rotate(90 34.09 8.126) scale(4.1846)" gradientUnits="userSpaceOnUse" r="7.01"><stop offset="0" stop-color="#737373"/><stop offset=".262" stop-color="#636363"/><stop offset=".705" stop-color="#4b4b4b"/><stop offset="1" stop-color="#3f3f3f"/></radialGradient><path d="M12.678 14.68h-6.69l-1.15 2.89h-3.08L8.066 2.43h2.866l6.084 15.14h-3.22zm-5.894-2.29h5.025L9.566 5.542z" opacity=".66" fill="url(#b)" stroke="#000" stroke-linecap="round" stroke-linejoin="round"/><path d="M20.432 3c-.24 0-.432.237-.432.533v23.754l-6.773-6.773c-.392-.392-1.023-.392-1.415 0-.39.39-.39 1.022 0 1.414l7.778 7.78c.215.214.5.298.78.276.022.004.04.016.062.016h1.136c.023 0 .043-.01.065-.016.28.02.563-.067.777-.28l7.78-7.778c.39-.392.39-1.023 0-1.414-.392-.392-1.023-.392-1.415 0L22 27.285V3.533c0-.296-.192-.533-.432-.533h-1.136z" fill="url(#c)"/></svg>