<svg xmlns="http://www.w3.org/2000/svg" xmlns:xlink="http://www.w3.org/1999/xlink" height="32" width="32"><defs><radialGradient xlink:href="#a" id="b" cx="21" cy="4.911" fx="21" fy="4.911" r="9.482" gradientTransform="matrix(0 -2.53104 -1.4237 0 27.99 85.152)" gradientUnits="userSpaceOnUse"/><linearGradient id="c" gradientTransform="matrix(1.10678 0 0 1.12636 44.72 8.423)" gradientUnits="userSpaceOnUse" x1="-31" x2="-36" y1="12" y2="6"><stop offset="0" stop-color="#1f1f1f"/><stop offset="1" stop-color="#5c5c5c"/></linearGradient></defs><radialGradient id="a" cx="7" cy="4.992" gradientTransform="rotate(90 34.09 8.126) scale(4.1846)" gradientUnits="userSpaceOnUse" r="7.01"><stop offset="0" stop-color="#737373"/><stop offset=".262" stop-color="#636363"/><stop offset=".705" stop-color="#4b4b4b"/><stop offset="1" stop-color="#3f3f3f"/></radialGradient><path d="M20.432 29c-.24 0-.432-.237-.432-.533V4.713l-6.773 6.773c-.392.392-1.023.392-1.414 0-.392-.39-.392-1.022 0-1.414l7.777-7.78c.215-.214.5-.298.78-.276.022-.004.04-.016.062-.016h1.136c.023 0 .043.01.065.016.28-.02.563.067.777.28l7.78 7.778c.39.392.39 1.023 0 1.414-.392.392-1.023.392-1.415 0L22 4.715v23.752c0 .296-.192.533-.432.533z" fill="url(#b)"/><path d="M14.504 29.5H3.62v-2.046l7.013-10.23H3.81v-2.607h10.504v2.036L7.31 26.893h7.194z" opacity=".66" fill="url(#c)" stroke="#000" stroke-linecap="round" stroke-linejoin="round"/></svg>