<svg xmlns="http://www.w3.org/2000/svg" xmlns:xlink="http://www.w3.org/1999/xlink" height="32" viewBox="0 0 8.4666665 8.4666669" width="32"><defs><radialGradient xlink:href="#f" id="u" gradientUnits="userSpaceOnUse" gradientTransform="matrix(0 .68598 -.74626 0 60.288 -27.737)" cx="65.325" cy="48.709" r="31"/><linearGradient xlink:href="#g" id="v" gradientUnits="userSpaceOnUse" gradientTransform="matrix(.34578 0 0 .43493 16.29 13.936)" x1="24.139" y1="20.749" x2="24.139" y2="25.528"/><linearGradient id="i" gradientTransform="matrix(.11794 0 0 .11905 .212 290.644)" gradientUnits="userSpaceOnUse" x1="25.132" x2="25.132" y1="15.5" y2="48.396"><stop offset="0" stop-color="#fafafa"/><stop offset="1" stop-color="#e2e1de"/></linearGradient><linearGradient id="m" gradientTransform="matrix(.1347 0 0 .14642 -.198 290.374)" gradientUnits="userSpaceOnUse" x1="24" x2="24" xlink:href="#h" y1="5" y2="43"/><linearGradient id="h"><stop offset="0" stop-color="#fff"/><stop offset=".063" stop-color="#fff" stop-opacity=".235"/><stop offset=".951" stop-color="#fff" stop-opacity=".157"/><stop offset="1" stop-color="#fff" stop-opacity=".392"/></linearGradient><linearGradient id="j" gradientTransform="matrix(.1323 0 0 .06615 -.265 291.444)" gradientUnits="userSpaceOnUse" x1="23.954" x2="23.954" y1="15.999" y2="19.963"><stop offset="0"/><stop offset="1" stop-opacity="0"/></linearGradient><linearGradient id="k" gradientTransform="matrix(.27447 0 0 .28068 -.113 290.553)" gradientUnits="userSpaceOnUse" x1="8.295" x2="8.295" y1="-4.284" y2="16.85"><stop offset="0" stop-color="#cdf87e"/><stop offset=".262" stop-color="#a2e34f"/><stop offset=".661" stop-color="#68b723"/><stop offset="1" stop-color="#1d7e0d"/></linearGradient><linearGradient id="n" gradientTransform="matrix(.27278 0 0 .3079 -.107 290.402)" gradientUnits="userSpaceOnUse" x1="11.001" x2="11.001" xlink:href="#h" y1="2.269" y2="19.728"/><linearGradient xlink:href="#i" id="p" gradientUnits="userSpaceOnUse" gradientTransform="matrix(.11794 0 0 .11905 .212 290.644)" x1="25.132" y1="15.5" x2="25.132" y2="48.396"/><linearGradient xlink:href="#h" id="q" gradientUnits="userSpaceOnUse" gradientTransform="matrix(.1347 0 0 .14642 -.198 290.374)" x1="24" y1="5" x2="24" y2="43"/><linearGradient xlink:href="#j" id="r" gradientUnits="userSpaceOnUse" gradientTransform="matrix(.1323 0 0 .06615 -.265 291.444)" x1="23.954" y1="15.999" x2="23.954" y2="19.963"/><linearGradient xlink:href="#k" id="s" gradientUnits="userSpaceOnUse" gradientTransform="matrix(.27447 0 0 .28068 -.113 290.553)" x1="8.295" y1="-4.284" x2="8.295" y2="16.85"/><linearGradient xlink:href="#h" id="t" gradientUnits="userSpaceOnUse" gradientTransform="matrix(.27278 0 0 .3079 -.107 290.402)" x1="11.001" y1="2.269" x2="11.001" y2="19.728"/><clipPath id="o"><path d="M.265 294.42H4.63v2.38H.266z" stroke-width=".773"/></clipPath><clipPath id="l"><path d="M.265 290.848H4.63v2.38H.266z" stroke-width=".786"/></clipPath></defs><linearGradient id="e" gradientTransform="matrix(.1404 0 0 .15602 10.39 288.06)" gradientUnits="userSpaceOnUse" x1="-51.786" x2="-51.786" y1="50.786" y2="2.906"><stop offset="0" stop-opacity=".318"/><stop offset="1" stop-opacity=".24"/></linearGradient><linearGradient id="d" gradientTransform="matrix(.15017 0 0 .19307 .63 287.868)" gradientUnits="userSpaceOnUse" x1="24" x2="24" y1="5.564" y2="43"><stop offset="0" stop-color="#fff"/><stop offset=".036" stop-color="#fff" stop-opacity=".235"/><stop offset=".951" stop-color="#fff" stop-opacity=".157"/><stop offset="1" stop-color="#fff" stop-opacity=".392"/></linearGradient><linearGradient id="c" gradientTransform="matrix(.1663 0 0 .16097 .242 288.392)" gradientUnits="userSpaceOnUse" x1="25.132" x2="25.132" y1=".985" y2="47.013"><stop offset="0" stop-color="#f4f4f4"/><stop offset="1" stop-color="#dbdbdb"/></linearGradient><radialGradient id="b" cx="605.714" cy="486.648" gradientTransform="matrix(-.00414 0 0 .00218 3.807 295.407)" gradientUnits="userSpaceOnUse" r="117.143"><stop offset="0"/><stop offset="1" stop-opacity="0"/></radialGradient><linearGradient id="a" gradientTransform="matrix(.0121 0 0 .00218 -.143 295.407)" gradientUnits="userSpaceOnUse" x1="302.857" x2="302.857" y1="366.648" y2="609.505"><stop offset="0" stop-opacity="0"/><stop offset=".5"/><stop offset="1" stop-opacity="0"/></linearGradient><radialGradient id="f" cx="65.325" cy="48.709" gradientTransform="matrix(0 .68598 -.74626 0 60.288 -27.737)" gradientUnits="userSpaceOnUse" r="31"><stop offset="0" stop-color="#cdf87e"/><stop offset=".262" stop-color="#a2e34f"/><stop offset=".661" stop-color="#68b723"/><stop offset="1" stop-color="#1d7e0d"/></radialGradient><linearGradient id="w" gradientTransform="matrix(.4227 0 0 .38513 14.545 15.083)" gradientUnits="userSpaceOnUse" x1="24.371" x2="24.139" y1="10.483" y2="36.136"><stop offset="0" stop-color="#fff"/><stop offset=".014" stop-color="#fff" stop-opacity=".235"/><stop offset="1" stop-color="#fff" stop-opacity=".157"/><stop offset="1" stop-color="#fff" stop-opacity=".392"/></linearGradient><linearGradient id="g" gradientTransform="matrix(.34578 0 0 .43493 16.29 13.936)" gradientUnits="userSpaceOnUse" x1="24.139" x2="24.139" y1="20.749" y2="25.528"><stop offset="0" stop-color="#fff"/><stop offset="0" stop-color="#fff" stop-opacity=".235"/><stop offset="1" stop-color="#fff" stop-opacity=".157"/><stop offset="1" stop-color="#fff" stop-opacity=".392"/></linearGradient><g transform="translate(2.293 -382.505) scale(1.33333)" clip-path="url(#l)"><rect height="5.556" rx=".198" width="5.159" x=".463" y="291.047" fill="url(#i)"/><path d="M.543 291.18h4.983l.017 5.555H.56z" fill="none" stroke="url(#m)" stroke-width=".201" stroke-linecap="round" stroke-linejoin="round"/><path d="M.265 292.436H5.82v.198H.266z" opacity=".15" fill="url(#j)"/><path d="M.364 292.24l-.005 4.143c0 .152.154.317.306.317H5.41c.152 0 .307-.166.308-.318l.004-4.145" opacity=".3" fill="none" stroke="#000" stroke-width=".201"/><path d="M1.455 292.436h.2v4.167h-.2zm1.39 0h.2v4.167h-.2zm1.388 0h.2v4.167h-.2zm-3.77.794h.992v.198H.463z" opacity=".321"/><path d="M1.654 293.23h1.19v.198h-1.19zm1.39 0h1.19v.198h-1.19zm1.388 0h1.19v.198h-1.19zm-3.97 1.19h.993v.2H.463zm1.192 0h1.19v.2h-1.19zm1.39 0h1.19v.2h-1.19zm1.388 0h1.19v.2h-1.19zm-3.97 1.19h.993v.2H.463zm1.192 0h1.19v.2h-1.19zm1.39 0h1.19v.2h-1.19zm1.388 0h1.19v.2h-1.19z" opacity=".321"/><path d="M.592 290.944c-.158 0-.226.17-.226.33v.964H5.72v-.963c0-.162-.118-.322-.276-.322z" fill="url(#k)"/><path d="M.68 290.948c-.152 0-.316.184-.316.336v1.048l5.357.004v-1.055c0-.15-.143-.33-.295-.33z" opacity=".4" fill="none" stroke="#126400" stroke-width=".201" stroke-linecap="round"/><path d="M.56 291.14l.002 1.002 4.975.01v-1.002z" opacity=".5" fill="none" stroke="url(#n)" stroke-width=".201" stroke-linecap="round" stroke-linejoin="round"/><path d="M1.455 291.047h.2v1.19h-.2zm1.39 0h.2v1.19h-.2zm1.388 0h.2v1.19h-.2z" opacity=".4" fill="#126400"/></g><g transform="translate(2.293 -392.56) scale(1.33333)" clip-path="url(#o)"><rect y="291.047" x=".463" width="5.159" rx=".198" height="5.556" fill="url(#p)"/><path d="M.543 291.18h4.983l.017 5.555H.56z" fill="none" stroke="url(#q)" stroke-width=".201" stroke-linecap="round" stroke-linejoin="round"/><path d="M.265 292.436H5.82v.198H.266z" opacity=".15" fill="url(#r)"/><path d="M.364 292.24l-.005 4.143c0 .152.154.317.306.317H5.41c.152 0 .307-.166.308-.318l.004-4.145" opacity=".3" fill="none" stroke="#000" stroke-width=".201"/><path d="M1.455 292.436h.2v4.167h-.2zm1.39 0h.2v4.167h-.2zm1.388 0h.2v4.167h-.2zm-3.77.794h.992v.198H.463z" opacity=".321"/><path d="M1.654 293.23h1.19v.198h-1.19zm1.39 0h1.19v.198h-1.19zm1.388 0h1.19v.198h-1.19zm-3.97 1.19h.993v.2H.463zm1.192 0h1.19v.2h-1.19zm1.39 0h1.19v.2h-1.19zm1.388 0h1.19v.2h-1.19zm-3.97 1.19h.993v.2H.463zm1.192 0h1.19v.2h-1.19zm1.39 0h1.19v.2h-1.19zm1.388 0h1.19v.2h-1.19z" opacity=".321"/><path d="M.592 290.944c-.158 0-.226.17-.226.33v.964H5.72v-.963c0-.162-.118-.322-.276-.322z" fill="url(#s)"/><path d="M.68 290.948c-.152 0-.316.184-.316.336v1.048l5.357.004v-1.055c0-.15-.143-.33-.295-.33z" opacity=".4" fill="none" stroke="#126400" stroke-width=".201" stroke-linecap="round"/><path d="M.56 291.14l.002 1.002 4.975.01v-1.002z" opacity=".5" fill="none" stroke="url(#t)" stroke-width=".201" stroke-linecap="round" stroke-linejoin="round"/><path d="M1.455 291.047h.2v1.19h-.2zm1.39 0h.2v1.19h-.2zm1.388 0h.2v1.19h-.2z" opacity=".4" fill="#126400"/></g><path d="M21.92 21.93v-4.18h4.198v4.177h4.098v4.132h-4.098v4.17H21.92v-4.17h-4.132v-4.13z" fill="url(#u)" transform="translate(-2.95 -.304) scale(.18912)"/><g fill="none"><path d="M1.19 3.836l-.003-.794h.8v.794h.793v.79l-.794.003v.803H1.19l.003-.807L.4 4.63l-.003-.79z" opacity=".5" stroke="#0f5a00" stroke-width=".268" stroke-linecap="round" stroke-linejoin="round"/><path d="M25.76 23.29l3.116-.013-.042 1.453-3.116.01m-3.562 0l-3.116-.01.042-1.453 3.116.012" opacity=".5" stroke="url(#v)" stroke-width="1.363" transform="translate(-2.95 -.304) scale(.18912)"/><path d="M23.335 22.988l-.045-3.885 1.42.006.064 3.886m0 2.003v3.865h-1.44V25" opacity=".5" stroke="url(#w)" stroke-width="1.417" transform="translate(-2.95 -.304) scale(.18912)"/></g><path d="M23.2 21.945v4.133l-5.412-.016V21.93z" fill="url(#f)" transform="translate(.49 -.304) scale(.18912)"/><g fill="none"><path d="M4.893 3.838v.79l-1.053.004-.003-.792z" opacity=".5" stroke="#0f5a00" stroke-linecap="round" stroke-linejoin="round" stroke-width=".268"/><path d="M21.86 23.294l-.043 1.452m-2.777-.016l.042-1.453" opacity=".5" stroke="url(#g)" stroke-width="1.363" transform="translate(.49 -.304) scale(.18912)"/></g><path d="M23.2 21.945v4.133l-5.412-.016V21.93z" fill="url(#f)" transform="translate(2.078 -.304) scale(.18912)"/><g fill="none"><path d="M6.48 3.838v.79l-1.052.004-.003-.792z" opacity=".5" stroke="#0f5a00" stroke-linecap="round" stroke-linejoin="round" stroke-width=".268"/><path d="M21.86 23.294l-.043 1.452m-2.777-.016l.042-1.453" opacity=".5" stroke="url(#g)" stroke-width="1.363" transform="translate(2.078 -.304) scale(.18912)"/></g><g><path d="M23.2 21.945v4.133l-5.412-.016V21.93z" fill="url(#f)" transform="translate(3.665 -.304) scale(.18912)"/><g fill="none"><path d="M8.068 3.838v.79l-1.053.004-.003-.792z" opacity=".5" stroke="#0f5a00" stroke-linecap="round" stroke-linejoin="round" stroke-width=".268"/><path d="M21.86 23.294l-.043 1.452m-2.777-.016l.042-1.453" opacity=".5" stroke="url(#g)" stroke-width="1.363" transform="translate(3.665 -.304) scale(.18912)"/></g></g></svg>