<svg xmlns="http://www.w3.org/2000/svg" xmlns:xlink="http://www.w3.org/1999/xlink" height="32" width="32"><defs><radialGradient id="a" cx="65.325" cy="48.709" gradientTransform="matrix(0 .68598 -.74626 0 60.288 -27.737)" gradientUnits="userSpaceOnUse" r="31"><stop offset="0" stop-color="#cdf87e"/><stop offset=".262" stop-color="#a2e34f"/><stop offset=".661" stop-color="#68b723"/><stop offset="1" stop-color="#1d7e0d"/></radialGradient><linearGradient id="b" gradientTransform="matrix(.34578 0 0 .43493 16.29 13.936)" gradientUnits="userSpaceOnUse" x1="24.139" x2="24.139" y1="20.749" y2="25.528"><stop offset="0" stop-color="#fff"/><stop offset="0" stop-color="#fff" stop-opacity=".235"/><stop offset="1" stop-color="#fff" stop-opacity=".157"/><stop offset="1" stop-color="#fff" stop-opacity=".392"/></linearGradient><linearGradient id="q" gradientTransform="matrix(.4227 0 0 .38513 14.545 15.083)" gradientUnits="userSpaceOnUse" x1="24.371" x2="24.139" y1="10.483" y2="36.136"><stop offset="0" stop-color="#fff"/><stop offset=".014" stop-color="#fff" stop-opacity=".235"/><stop offset="1" stop-color="#fff" stop-opacity=".157"/><stop offset="1" stop-color="#fff" stop-opacity=".392"/></linearGradient><radialGradient r="31" cy="48.709" cx="65.325" gradientTransform="matrix(0 .68598 -.74626 0 60.288 -27.737)" gradientUnits="userSpaceOnUse" id="o" xlink:href="#a"/><linearGradient y2="25.528" x2="24.139" y1="20.749" x1="24.139" gradientTransform="matrix(.34578 0 0 .43493 16.29 13.936)" gradientUnits="userSpaceOnUse" id="w" xlink:href="#b"/><radialGradient r="31" cy="48.709" cx="65.325" gradientTransform="matrix(0 .68598 -.74626 0 60.288 -27.737)" gradientUnits="userSpaceOnUse" id="r" xlink:href="#a"/><radialGradient r="31" cy="48.709" cx="65.325" gradientTransform="matrix(0 .68598 -.74626 0 60.288 -27.737)" gradientUnits="userSpaceOnUse" id="t" xlink:href="#a"/><radialGradient r="31" cy="48.709" cx="65.325" gradientTransform="matrix(0 .68598 -.74626 0 60.288 -27.737)" gradientUnits="userSpaceOnUse" id="v" xlink:href="#a"/><linearGradient xlink:href="#b" id="p" gradientUnits="userSpaceOnUse" gradientTransform="matrix(.34578 0 0 .43493 16.29 13.936)" x1="24.139" y1="20.749" x2="24.139" y2="25.528"/><linearGradient xlink:href="#b" id="s" gradientUnits="userSpaceOnUse" gradientTransform="matrix(.34578 0 0 .43493 16.29 13.936)" x1="24.139" y1="20.749" x2="24.139" y2="25.528"/><linearGradient xlink:href="#b" id="u" gradientUnits="userSpaceOnUse" gradientTransform="matrix(.34578 0 0 .43493 16.29 13.936)" x1="24.139" y1="20.749" x2="24.139" y2="25.528"/><radialGradient xlink:href="#c" id="y" gradientUnits="userSpaceOnUse" gradientTransform="matrix(2.00378 0 0 1.4 29.346 -17.4)" cx="4.993" cy="43.5" r="2.5"/><radialGradient xlink:href="#c" id="z" gradientUnits="userSpaceOnUse" gradientTransform="matrix(2.00378 0 0 1.4 -18.655 -104.4)" cx="4.993" cy="43.5" r="2.5"/><linearGradient xlink:href="#d" id="A" gradientUnits="userSpaceOnUse" gradientTransform="matrix(1.09696 0 0 1 -2.327 0)" x1="25.058" y1="47.028" x2="25.058" y2="39.999"/><radialGradient xlink:href="#e" id="B" gradientUnits="userSpaceOnUse" gradientTransform="matrix(0 1.7 -1.60202 0 26.497 -40.5)" cx="25.588" cy="6.552" r="20"/><linearGradient xlink:href="#f" id="C" gradientUnits="userSpaceOnUse" x1="16" y1="5" x2="16" y2="8"/><linearGradient xlink:href="#g" id="D" gradientUnits="userSpaceOnUse" x1="25.829" y1="5" x2="25.829" y2="27.946"/><radialGradient xlink:href="#a" id="E" gradientUnits="userSpaceOnUse" gradientTransform="matrix(0 .68598 -.74626 0 60.288 -27.737)" cx="65.325" cy="48.709" r="31"/><linearGradient xlink:href="#b" id="F" gradientUnits="userSpaceOnUse" gradientTransform="matrix(.34578 0 0 .43493 16.29 13.936)" x1="24.139" y1="20.749" x2="24.139" y2="25.528"/><linearGradient xlink:href="#d" id="k" gradientUnits="userSpaceOnUse" gradientTransform="matrix(1.09696 0 0 1 -2.327 0)" x1="25.058" y1="47.028" x2="25.058" y2="39.999"/><radialGradient xlink:href="#e" id="l" gradientUnits="userSpaceOnUse" gradientTransform="matrix(0 1.7 -1.60202 0 26.497 -40.5)" cx="25.588" cy="6.552" r="20"/><linearGradient xlink:href="#f" id="m" gradientUnits="userSpaceOnUse" x1="16" y1="5" x2="16" y2="8"/><linearGradient xlink:href="#g" id="n" gradientUnits="userSpaceOnUse" x1="25.829" y1="5" x2="25.829" y2="27.946"/><clipPath id="x"><path fill="#7a36b1" stroke-opacity=".49" d="M18 3h13v25H18z"/></clipPath><clipPath id="h"><path fill="#7a36b1" stroke-opacity=".49" d="M1 3h13v25H1z"/></clipPath></defs><linearGradient id="g" gradientUnits="userSpaceOnUse" x1="25.829" x2="25.829" y1="5" y2="27.946"><stop offset="0" stop-color="#fff"/><stop offset=".038" stop-color="#fff" stop-opacity=".235"/><stop offset=".962" stop-color="#fff" stop-opacity=".157"/><stop offset="1" stop-color="#fff" stop-opacity=".392"/></linearGradient><radialGradient id="i" cx="4.993" cy="43.5" gradientTransform="matrix(2.00378 0 0 1.4 29.346 -17.4)" gradientUnits="userSpaceOnUse" r="2.5" xlink:href="#c"/><linearGradient id="c"><stop offset="0" stop-color="#181818"/><stop offset="1" stop-color="#181818" stop-opacity="0"/></linearGradient><radialGradient id="j" cx="4.993" cy="43.5" gradientTransform="matrix(2.00378 0 0 1.4 -18.655 -104.4)" gradientUnits="userSpaceOnUse" r="2.5" xlink:href="#c"/><linearGradient id="d" gradientTransform="matrix(1.09696 0 0 1 -2.327 0)" gradientUnits="userSpaceOnUse" x1="25.058" x2="25.058" y1="47.028" y2="39.999"><stop offset="0" stop-color="#181818" stop-opacity="0"/><stop offset=".5" stop-color="#181818"/><stop offset="1" stop-color="#181818" stop-opacity="0"/></linearGradient><radialGradient id="e" cx="25.588" cy="6.552" gradientTransform="matrix(0 1.7 -1.60202 0 26.497 -40.5)" gradientUnits="userSpaceOnUse" r="20"><stop offset="0" stop-color="#f4f4f4"/><stop offset="1" stop-color="#d0d0d0"/></radialGradient><linearGradient id="f" gradientUnits="userSpaceOnUse" x1="16" x2="16" y1="5" y2="8"><stop offset="0" stop-color="#e5e5e5"/><stop offset="1" stop-color="#d4d4d4"/></linearGradient><g transform="translate(18 4)" clip-path="url(#h)"><g opacity=".4"><path d="M39.357 40h5v7h-5z" fill="url(#i)" transform="matrix(.73684 0 0 .42857 -1.684 10.857)"/><path transform="matrix(-.73684 0 0 -.42857 -1.684 10.857)" d="M-8.643-47h5v7h-5z" fill="url(#j)"/><path d="M8.643 40h30.714v7H8.643z" fill="url(#k)" transform="matrix(.73684 0 0 .42857 -1.684 10.857)"/></g><rect y="4" x="2" width="28" rx="1.5" height="25" fill="url(#l)"/><path d="M3.66 3.5c-1.196 0-2.16.964-2.16 2.16V10h28.992V5.66c0-1.196-.963-2.16-2.16-2.16z" fill="url(#m)"/><g fill="none"><rect y="4.5" x="2.5" width="27" rx="1" height="24" opacity=".7" stroke="url(#n)" stroke-linecap="round" stroke-linejoin="round"/><rect y="3.5" x="1.5" width="29" rx="2" height="26" opacity=".3" stroke="#0e141f" stroke-linecap="round" stroke-linejoin="round"/><path d="M2 9.5h28" opacity=".2" stroke="#000"/></g><g fill="none"><g opacity=".25" stroke="#fff"><path d="M4.354 7.354l1.292 1.292M5.646 7.354L4.354 8.646"/></g><path d="M4.354 6.354l1.292 1.292M5.646 6.354L4.354 7.646" stroke="#8a8a8a"/><path d="M27.646 7.354l-1.292 1.292" opacity=".25" stroke="#fff"/><path d="M27.646 6.354l-1.292 1.292" stroke="#8a8a8a"/><path d="M13 6.5h6" opacity=".7" stroke="#8a8a8a"/><path d="M13 7.5h6" opacity=".25" stroke="#fff"/></g></g><path d="M21.92 21.93V17.75h4.198v4.177h4.098v4.132h-4.098v4.17H21.92v-4.17H17.788V21.93z" fill="url(#o)" transform="translate(-1.154 -12.136) scale(.7148)"/><g fill="none"><path d="M14.495 3.51L14.483.513l3.022-.006L17.5 3.51l3.004-.002v2.99l-3.003.01v3.044h-3.005l.01-3.05-2.998.018-.01-2.992z" opacity=".5" stroke="#0f5a00" stroke-width="1.0128716" stroke-linecap="round" stroke-linejoin="round"/><path d="M25.76 23.29l3.116-.013-.042 1.453-3.116.01m-3.562 0l-3.116-.01.042-1.453 3.116.012" opacity=".5" stroke="url(#p)" stroke-width="1.363" transform="translate(-1.154 -12.136) scale(.7148)"/><path d="M23.335 22.988l-.045-3.885 1.42.006.064 3.887m0 2.003v3.866h-1.44V25" opacity=".5" stroke="url(#q)" stroke-width="1.417" transform="translate(-1.154 -12.136) scale(.7148)"/></g><path d="M23.2 21.945v4.133l-5.412-.016V21.93z" fill="url(#r)" transform="rotate(-90 19.494 20.65) scale(.7148)"/><g fill="none"><path d="M14.5 23.502h2.99l.01 3.98-2.992.012z" opacity=".5" stroke="#0f5a00" stroke-width="1.0128716" stroke-linecap="round" stroke-linejoin="round"/><path d="M21.86 23.294l-.043 1.452m-2.777-.016l.042-1.453" opacity=".5" stroke="url(#s)" stroke-width="1.363" transform="rotate(-90 19.494 20.65) scale(.7148)"/></g><path d="M23.2 21.945v4.133l-5.412-.016V21.93z" fill="url(#t)" transform="rotate(-90 16.494 17.65) scale(.7148)"/><g fill="none"><path d="M14.5 17.502h2.99l.01 3.98-2.992.012z" opacity=".5" stroke="#0f5a00" stroke-width="1.0128716" stroke-linecap="round" stroke-linejoin="round"/><path d="M21.86 23.294l-.043 1.452m-2.777-.016l.042-1.453" opacity=".5" stroke="url(#u)" stroke-width="1.363" transform="rotate(-90 16.494 17.65) scale(.7148)"/></g><g><path d="M23.2 21.945v4.133l-5.412-.016V21.93z" fill="url(#v)" transform="rotate(-90 13.494 14.65) scale(.7148)"/><g fill="none"><path d="M14.5 11.502h2.99l.01 3.98-2.992.012z" opacity=".5" stroke="#0f5a00" stroke-width="1.0128716" stroke-linecap="round" stroke-linejoin="round"/><path d="M21.86 23.294l-.043 1.452m-2.777-.016l.042-1.453" opacity=".5" stroke="url(#w)" stroke-width="1.363" transform="rotate(-90 13.494 14.65) scale(.7148)"/></g></g><g transform="translate(-18 4)" clip-path="url(#x)"><g opacity=".4"><path d="M39.357 40h5v7h-5z" fill="url(#y)" transform="matrix(.7368 0 0 .4286 -1.684 10.857)"/><path d="M-8.643-47h5v7h-5z" transform="matrix(-.7368 0 0 -.4286 -1.684 10.857)" fill="url(#z)"/><path d="M8.643 40h30.714v7H8.643z" fill="url(#A)" transform="matrix(.7368 0 0 .4286 -1.684 10.857)"/></g><rect height="25" rx="1.5" width="28" x="2" y="4" fill="url(#B)"/><path d="M3.66 3.5c-1.196 0-2.16.964-2.16 2.16V10h28.992V5.66c0-1.196-.963-2.16-2.16-2.16z" fill="url(#C)"/><g fill="none"><rect height="24" rx="1" width="27" x="2.5" y="4.5" opacity=".7" stroke="url(#D)" stroke-linecap="round" stroke-linejoin="round"/><rect height="26" rx="2" width="29" x="1.5" y="3.5" opacity=".3" stroke="#0e141f" stroke-linecap="round" stroke-linejoin="round"/><path d="M2 9.5h28" opacity=".2" stroke="#000"/></g><g fill="none"><g opacity=".25" stroke="#fff"><path d="M4.354 7.354l1.292 1.292M5.646 7.354L4.354 8.646"/></g><path d="M4.354 6.354l1.292 1.292M5.646 6.354L4.354 7.646" stroke="#8a8a8a"/><path d="M27.646 7.354l-1.292 1.292" opacity=".25" stroke="#fff"/><path d="M27.646 6.354l-1.292 1.292" stroke="#8a8a8a"/><path d="M13 6.5h6" opacity=".7" stroke="#8a8a8a"/><path d="M13 7.5h6" opacity=".25" stroke="#fff"/></g></g><g><path d="M23.2 21.945v4.133l-2.737.02v-4.132z" fill="url(#E)" transform="rotate(-90 22.494 23.65) scale(.7148)"/><g fill="none"><path d="M14.5 29.502h2.99l.01 2.015-2.992.01z" opacity=".5" stroke="#0f5a00" stroke-width="1.0128716" stroke-linecap="round" stroke-linejoin="round"/><path d="M21.86 23.294l-.043 1.452m0 0l.042-1.452" opacity=".5" stroke="url(#F)" stroke-width="1.363" transform="rotate(-90 22.494 23.65) scale(.7148)"/></g></g></svg>