<svg xmlns="http://www.w3.org/2000/svg" height="32" viewBox="0 0 8.4666665 8.4666669" width="32"><defs><linearGradient id="j" gradientTransform="rotate(-45 10.218 -1.43) scale(.0788 .07732)" gradientUnits="userSpaceOnUse" x1="32.326" x2="7.347" y1="5.02" y2="39.696"><stop offset="0" stop-color="#fff"/><stop offset="1" stop-color="#fff" stop-opacity="0"/></linearGradient><linearGradient id="i" gradientTransform="rotate(-45 10.218 -1.43) scale(.0788 .07732)" gradientUnits="userSpaceOnUse" x1="39.401" x2="-33.299" y1="-5.302" y2="68.803"><stop offset="0" stop-color="#90dbec"/><stop offset=".262" stop-color="#55c1ec"/><stop offset=".705" stop-color="#3689e6"/><stop offset="1" stop-color="#2b63a0"/></linearGradient></defs><radialGradient id="c" cx="23.335" cy="41.636" gradientTransform="matrix(.25725 0 0 .076 .347 291.587)" gradientUnits="userSpaceOnUse" r="22.627"><stop offset="0"/><stop offset="1" stop-opacity="0"/></radialGradient><linearGradient id="d" gradientTransform="matrix(.26458 0 0 .26474 .46 283.77)" gradientUnits="userSpaceOnUse" x1="28.059" x2="33.437" y1="18.868" y2="23.743"><stop offset="0" stop-color="#6e3d09"/><stop offset=".242" stop-color="#ea8113"/><stop offset=".621" stop-color="#5c3307"/><stop offset="1" stop-color="#e07c12"/></linearGradient><linearGradient id="e" gradientTransform="matrix(.26458 0 0 .26474 .46 283.77)" gradientUnits="userSpaceOnUse" x1="19.395" x2="23.109" y1="30.001" y2="33.439"><stop offset="0" stop-color="#bdbdbd"/><stop offset=".333" stop-color="#e2e2e2"/><stop offset=".667" stop-color="#a3a3a3"/><stop offset="1" stop-color="#ddd"/></linearGradient><filter id="f" height="1.306" width="1.198" x="-.099" y="-.153"><feGaussianBlur stdDeviation=".52"/></filter><radialGradient id="g" cx="15.415" cy="35.357" gradientTransform="matrix(.26317 0 0 .2566 .28 284.292)" gradientUnits="userSpaceOnUse" r="7.579"><stop offset="0" stop-color="#561300"/><stop offset=".5" stop-color="#922d12"/><stop offset="1" stop-color="#fd68ff"/></radialGradient><linearGradient id="h" gradientTransform="matrix(.2255 0 0 .22563 1.05 285.242)" gradientUnits="userSpaceOnUse" x1="13.236" x2="7.752" y1="37.752" y2="42.282"><stop offset="0" stop-color="#fff"/><stop offset="1" stop-color="#fff" stop-opacity="0"/></linearGradient><radialGradient id="b" cx="4.333" cy="288.644" gradientTransform="matrix(-2.36637 .0798 -.0789 -2.33915 37.355 964.564)" gradientUnits="userSpaceOnUse" r="2.799"><stop offset="0" stop-color="#737373"/><stop offset=".262" stop-color="#636363"/><stop offset=".705" stop-color="#4b4b4b"/><stop offset="1" stop-color="#3f3f3f"/></radialGradient><linearGradient id="a"><stop offset="0" stop-color="#fff"/><stop offset="0" stop-color="#fff" stop-opacity=".235"/><stop offset="1" stop-color="#fff" stop-opacity=".157"/><stop offset="1" stop-color="#fff" stop-opacity=".392"/></linearGradient><path d="M5.384 294.538H3.046l-.403 1.01H1.566l2.206-5.292h1l2.128 5.292H5.775zm-2.06-.8H5.08l-.784-2.395z" transform="translate(-.794 -289.327)" stroke="#000" stroke-width=".265" stroke-linecap="round" stroke-linejoin="round" stroke-opacity=".537" fill="url(#b)"/><path d="M2.978.93L.772 6.22h.11l2.096-5.027h1L6 6.22h.106L3.98.93zm-.34 3.48l-.11.265h1.758L4.2 4.41z" fill="#fff" opacity=".1"/><path d="M12.17 294.75c0 .95-2.605 1.72-5.82 1.72s-5.82-.77-5.82-1.72 2.605-1.72 5.82-1.72 5.82.77 5.82 1.72z" fill="url(#c)" fill-rule="evenodd" opacity=".3" transform="translate(.97 -204.683) scale(.72162)"/><path d="M6.692 290.228l1.076 1.006c.857-.842 1.896-2.213 2.78-3.466l.122-1.826c-1.206 1.262-2.957 3.113-3.978 4.286z" fill="url(#d)" stroke="#673907" stroke-linecap="round" stroke-width=".367" transform="translate(.97 -204.683) scale(.72162)"/><path d="M4.68 292.935l.596.512 2.247-1.95.072-.187.29-.005c-.116-.413-.778-1.16-1.274-1.16l.023.288-.177.1-1.774 2.402z" fill="url(#e)" stroke="#787a75" stroke-linecap="round" stroke-width=".367" transform="translate(.97 -204.683) scale(.72162)"/><path d="M5.8 40.945c6.605 0 11.618.787 12.567-4.02.765-3.876-4.56-5.733-7.2-2.274-2.54 3.335-5.367 6.296-5.367 6.296z" filter="url(#f)" opacity=".5" transform="translate(1.353 .512) scale(.19093)"/><path d="M1.958 295.03c1.748 0 3.074.208 3.325-1.065.202-1.025-1.207-1.516-1.905-.6-.672.88-1.42 1.665-1.42 1.665z" fill="url(#g)" transform="translate(.97 -204.683) scale(.72162)"/><path d="M4.204 7.075c0 .112-.09.203-.203.203-.11 0-.202-.09-.2-.203 0-.113.09-.204.202-.204s.204.093.204.206z" fill="#fff" opacity=".528"/><path d="M6.106 5.216c0 .104-.084.188-.188.188s-.188-.084-.188-.188.084-.188.188-.188.188.084.188.188z" fill="#fff" opacity=".6"/><path d="M5.664 5.48L4.65 6.652" opacity=".6" fill="none" stroke="#fff" stroke-width=".191" stroke-linecap="round" stroke-linejoin="round"/><path d="M2.305 294.856s.884-.435 1.26-1.082c.134-.23.436-.033.25.195-.4.49-1.51.885-1.51.885z" fill="url(#h)" opacity=".428" transform="translate(.97 -204.683) scale(.72162)"/><path d="M9.788.795c0 .032-.025.057-.056.057-.032 0-.057-.025-.057-.057 0-.03.025-.057.057-.057.03 0 .056.026.056.057z" fill="#fff" opacity=".533"/><path d="M6.654 4.572l-.002.456c-.425.008-.828.148-1.15.465-.658.643-.677 1.7-.03 2.323.503.484.982.466 1.162.47.24.008 1.34-.146 1.627-1.326h-.645c-.02.423-1.217.872-1.626.35-.247-.316-.35-.954-.004-1.29.14-.135.473-.31.666-.316l.002.485.534-.422v-.1h.126l.326-.256z" fill="url(#i)" transform="translate(-.418 -.117)"/><path d="M6.236 4.454l-.002.457c-.425.01-.828.15-1.15.466-.658.643-.657 1.68-.03 2.323.314.32.722.468 1.134.473.07 0 .137-.002.2-.008C7.42 8.072 7.8 7.22 7.873 6.843H7.18c-.085.408-1.16.93-1.61.35-.243-.317-.348-.953 0-1.29.138-.135.472-.31.665-.316l.002.485.986-.777-.986-.84z" fill="none" stroke="#559ac6" stroke-width=".265" stroke-linejoin="round"/><path d="M6.886 5.06v.144a.072.072 0 0 1-.075.072c-.418-.02-.85.087-1.154.392-.567.567-.533 1.47-.012 1.99.304.305.683.383.913.405.494.05.903-.144 1.18-.41.25-.24.377-.536.374-.746l-.28.044c-.02.128-.083.256-.19.375-.126.14-.3.267-.498.355-.397.178-.91.193-1.312-.2-.226-.223-.328-.54-.325-.847.004-.307.11-.61.32-.803.17-.155.447-.35.99-.35a.072.072 0 0 1 .07.072v.167l.412-.31z" opacity=".4" fill="none" stroke="url(#j)" stroke-width=".265" transform="translate(-.418 -.117)"/></svg>