<svg height="32" viewBox="0 0 8.4666665 8.4666669" width="32" xmlns="http://www.w3.org/2000/svg" xmlns:xlink="http://www.w3.org/1999/xlink"><radialGradient id="a" cx="4.332552" cy="288.64429" gradientTransform="matrix(-2.3663732 .07980548 -.07888746 -2.3391532 35.921324 964.03219)" gradientUnits="userSpaceOnUse" r="2.799255"><stop offset="0" stop-color="#737373"/><stop offset=".26238" stop-color="#636363"/><stop offset=".704952" stop-color="#4b4b4b"/><stop offset="1" stop-color="#3f3f3f"/></radialGradient><g transform="translate(0 -288.53332)"><path d="m3.9498835 294.006h-2.3384463l-.4025843 1.00961h-1.07656785l2.20526695-5.29167h1.0018404l2.1268318 5.29167h-1.125767zm-2.0606164-.80071h1.7565545l-.7837061-2.39386z" style="stroke:#000;stroke-width:.264583;stroke-linecap:round;stroke-linejoin:round;stroke-opacity:.536765;fill:url(#a)"/><path d="m8.8339844 4.5-8.3339844 20h.8339844l7.5-18h3.7871096l7.234375 18h.804687l-8.039062-20zm-.8808594 13.158203-.8125 2h6.638672l-.654297-2z" fill="#fff" opacity=".2" transform="matrix(.26458333 0 0 .26458333 0 288.53332)"/><path d="m8.3343752 296.86771h-3.018148v-.66147l1.0583516-1.14142q.1999792-.21537.3630392-.39689.16306-.18151.2799709-.3538.116911-.17229.1815196-.35074.064609-.17844.064609-.38457 0-.22767-.1384471-.35381-.1353706-.12614-.3661159-.12614-.2430516 0-.4676437.11998-.224592.11999-.4707203.34151l-.5168694-.61225q.1384472-.12614.2892008-.23997.1507535-.11691.3322731-.20613.1815196-.0892.3999585-.14153.2184388-.0554.4891799-.0554.3230434 0 .5784014.0892.2584347.0892.4399543.25536.1815196.16306.2768943.39688.098451.23383.098451.5261 0 .26459-.092298.50764-.092298.23998-.2522814.4738-.1599834.23075-.372269.46149-.2092091.22767-.4491841.46457l-.5414822.54456v.0431h1.8336556z" fill="#ffc27d" stroke="#f37329" stroke-width=".311275" transform="matrix(.7225 0 0 .7225 1.281088 77.455348)"/></g></svg>