<svg xmlns="http://www.w3.org/2000/svg" xmlns:xlink="http://www.w3.org/1999/xlink" width="32" height="32"><linearGradient id="b" gradientTransform="matrix(.44577 0 0 .44994 .802 7.975)" gradientUnits="userSpaceOnUse" x1="25.132" x2="25.132" y1="15.5" y2="48.396"><stop offset="0" stop-color="#fafafa"/><stop offset="1" stop-color="#e2e1de"/></linearGradient><linearGradient id="c" gradientTransform="matrix(.48484 0 0 .52706 -.165 7.6)" gradientUnits="userSpaceOnUse" x1="24" x2="24" xlink:href="#a" y1="5" y2="43"/><linearGradient id="a"><stop offset="0" stop-color="#fff"/><stop offset=".063" stop-color="#fff" stop-opacity=".235"/><stop offset=".951" stop-color="#fff" stop-opacity=".157"/><stop offset="1" stop-color="#fff" stop-opacity=".392"/></linearGradient><linearGradient id="d" gradientTransform="matrix(.5 0 0 .25 -1 11)" gradientUnits="userSpaceOnUse" x1="23.954" x2="23.954" y1="15.999" y2="19.963"><stop offset="0"/><stop offset="1" stop-opacity="0"/></linearGradient><linearGradient id="e" gradientTransform="matrix(0 .9738 -1.34684 0 23.58 1.692)" gradientUnits="userSpaceOnUse" x1="6.689" x2="13.722" y1="8.85" y2="8.761"><stop offset="0" stop-color="#90dbec"/><stop offset=".262" stop-color="#55c1ec"/><stop offset=".705" stop-color="#3689e6"/><stop offset="1" stop-color="#2b63a0"/></linearGradient><linearGradient id="f" gradientUnits="userSpaceOnUse" x1="11.001" x2="11.001" xlink:href="#a" y1="2.269" y2="19.728"/><g transform="translate(-.473 -11.14) scale(1.33333)"><rect y="10" x="2" width="20" ry=".556" rx=".528" height="20" fill="url(#b)"/><path d="M2.5 10.5h18.94V30H2.5z" fill="none" stroke="url(#c)" stroke-width="1.1" stroke-linecap="round" stroke-linejoin="round"/><path d="M1 15h22v1H1z" opacity=".15" fill="url(#d)"/><path d="M1.5 14.163v15.3c0 .575.462 1.037 1.036 1.037h18.928c.574 0 1.036-.462 1.036-1.036v-15.3" opacity=".3" fill="none" stroke="#000" stroke-width=".75"/><path d="M2.536 9.5c-.574 0-1.036.462-1.036 1.036V14.5h21v-3.964c0-.574-.462-1.036-1.036-1.036z" fill="url(#e)"/><g stroke-linecap="round" stroke-width=".75"><path d="M2.536 9.5c-.574 0-1.036.462-1.036 1.036V14.5h21v-3.964c0-.574-.462-1.036-1.036-1.036z" opacity=".8" fill="none" stroke="#2a70a7"/><path d="M2.176 2.203l.04 3.755 19.526.04V2.245z" opacity=".5" fill="none" stroke="url(#f)" stroke-linejoin="round" transform="translate(0 8)"/><g stroke="#a4a4a4" fill="#e9e9e9" stroke-linejoin="round" transform="translate(0 8)"><rect y="9.729" x="4.484" width="3.015" ry=".833" rx=".792" height="3.012"/><rect y="15.738" x="4.49" width="2.981" ry=".833" rx=".792" height="3"/></g></g><g stroke="#565656" stroke-linecap="round" stroke-width=".753"><path d="M10.505 13.9V2" fill="#565656" fill-rule="evenodd" stroke-linejoin="round" transform="matrix(.9998 0 0 -.99154 6 30.29)"/><path d="M6.505 5l4-4 4 4" fill="none" transform="matrix(.9998 0 0 -.99154 6 30.29)"/></g></g></svg>