<?xml version="1.0" encoding="UTF-8" standalone="no"?>
<svg
   xmlns:dc="http://purl.org/dc/elements/1.1/"
   xmlns:cc="http://creativecommons.org/ns#"
   xmlns:rdf="http://www.w3.org/1999/02/22-rdf-syntax-ns#"
   xmlns:svg="http://www.w3.org/2000/svg"
   xmlns="http://www.w3.org/2000/svg"
   xmlns:xlink="http://www.w3.org/1999/xlink"
   xmlns:sodipodi="http://sodipodi.sourceforge.net/DTD/sodipodi-0.dtd"
   xmlns:inkscape="http://www.inkscape.org/namespaces/inkscape"
   height="32"
   viewBox="0 0 8.4666665 8.4666669"
   width="32"
   version="1.1"
   id="svg22"
   sodipodi:docname="text.svg"
   inkscape:version="0.92.4 (unknown)"
   inkscape:export-filename="/home/rizmut/Dokumen/Rizmut/Github/libreoffice-style-elementary/images_elementary/cmd/32/text.png"
   inkscape:export-xdpi="96"
   inkscape:export-ydpi="96">
  <metadata
     id="metadata28">
    <rdf:RDF>
      <cc:Work
         rdf:about="">
        <dc:format>image/svg+xml</dc:format>
        <dc:type
           rdf:resource="http://purl.org/dc/dcmitype/StillImage" />
      </cc:Work>
    </rdf:RDF>
  </metadata>
  <defs
     id="defs26">
    <radialGradient
       id="a-3"
       cx="14.984537"
       cy="-4.5691686"
       gradientTransform="matrix(-0.62110937,1.4034772e-8,-1.4544911e-8,-0.55573059,5.0737023,285.72919)"
       gradientUnits="userSpaceOnUse"
       r="8.0937004"
       fx="14.984537"
       fy="-4.5691686">
      <stop
         offset="0"
         stop-color="#737373"
         id="stop2" />
      <stop
         offset=".26238"
         stop-color="#636363"
         id="stop4" />
      <stop
         offset=".70495"
         stop-color="#4b4b4b"
         id="stop6" />
      <stop
         offset="1"
         stop-color="#3f3f3f"
         id="stop8" />
    </radialGradient>
    <radialGradient
       inkscape:collect="always"
       xlink:href="#a-3"
       id="radialGradient853"
       cx="3.7041676"
       cy="289.56888"
       fx="3.7041676"
       fy="289.56888"
       r="2.7994936"
       gradientTransform="matrix(-1.0439124,-1.1495399e-5,2.6011534e-5,-2.3627411,7.563461,973.76769)"
       gradientUnits="userSpaceOnUse" />
  </defs>
  <sodipodi:namedview
     pagecolor="#ffffff"
     bordercolor="#666666"
     borderopacity="1"
     objecttolerance="10"
     gridtolerance="10"
     guidetolerance="10"
     inkscape:pageopacity="0"
     inkscape:pageshadow="2"
     inkscape:window-width="1366"
     inkscape:window-height="714"
     id="namedview24"
     showgrid="true"
     inkscape:zoom="10.429825"
     inkscape:cx="-14.46649"
     inkscape:cy="16.797039"
     inkscape:window-x="0"
     inkscape:window-y="28"
     inkscape:window-maximized="1"
     inkscape:current-layer="g20">
    <inkscape:grid
       type="xygrid"
       id="grid835" />
  </sodipodi:namedview>
  <linearGradient
     id="a"
     gradientTransform="matrix(0.1551,0,0,0.1428,0.69,289.2)"
     gradientUnits="userSpaceOnUse"
     x1="23.306"
     x2="14.389"
     xlink:href="#a-3"
     y1="24.844"
     y2="9.5900002" />
  <linearGradient
     id="b">
    <stop
       offset="0"
       stop-color="#1f1f1f"
       id="stop3" />
    <stop
       offset="1"
       stop-color="#5c5c5c"
       id="stop5" />
  </linearGradient>
  <linearGradient
     id="c"
     gradientUnits="userSpaceOnUse"
     x1="2"
     x2="30"
     xlink:href="#b"
     y1="16"
     y2="16" />
  <g
     transform="translate(0 -288.533)"
     id="g20">
    <path
       d="m5.384 294.273h-2.338l-.403 1.01h-1.077l2.206-5.292h1l2.128 5.293h-1.125zm-2.06-.8h1.756l-.784-2.394z"
       style="stroke:#000;stroke-width:0.265;stroke-linecap:round;stroke-linejoin:round;stroke-opacity:0.56;fill:url(#radialGradient853);fill-opacity:1"
       id="path9" />
    <path
       d="m5 2c-1.662 0-3 1.338-3 3h1c0-1.108.892-2 2-2zm1 0v1h3v-1zm4 0v1h3v-1zm4 0v1h3v-1zm4 0v1h3v-1zm4 0v1h3v-1zm4 0v1h1c1.108 0 2 .892 2 2h1c0-1.662-1.338-3-3-3zm-24 4v3h1v-3zm27 0v3h1v-3zm-27 4v3h1v-3zm27 0v3h1v-3zm-27 4v3h1v-3zm27 0v3h1v-3zm-27 4v3h1v-3zm27 0v3h1v-3zm-27 4v3h1v-3zm27 0v3h1v-3zm-27 4v1c0 1.662 1.338 3 3 3v-1c-1.108 0-2-.892-2-2v-1zm27 0v1c0 1.108-.892 2-2 2h-1v1h1c1.662 0 3-1.338 3-3v-1zm-23 3v1h3v-1zm4 0v1h3v-1zm4 0v1h3v-1zm4 0v1h3v-1zm4 0v1h3v-1z"
       transform="matrix(.26458 0 0 .26458 0 288.533)"
       id="path11"
       fill="url(#c)"
       opacity=".867" />
    <path
       id="d"
       d="M 7.0114584,288.66529 8.334,288.666 l 3.75e-4,1.32221 H 7.0114584 Z"
       inkscape:connector-curvature="0"
       style="fill:#ffc27d;stroke:#a62100;stroke-width:0.26499999;stroke-opacity:0.43000004"
       sodipodi:nodetypes="ccccc" />
    <use
       id="e"
       height="100%"
       transform="translate(0 6.89)"
       width="100%"
       xlink:href="#d" />
    <use
       id="f"
       height="100%"
       transform="translate(-6.8789584,-0.01104329)"
       width="100%"
       xlink:href="#e"
       x="0"
       y="0" />
    <use
       height="100%"
       transform="translate(0,-6.8786756)"
       width="100%"
       xlink:href="#f"
       id="use16"
       x="0"
       y="0" />
    <path
       d="m3.772 289.99-2.206 5.293h.11l2.096-5.027h1l2.022 5.027h.106l-2.127-5.292h-1zm-.34 3.483-.11.264h1.758l-.087-.264h-1.563z"
       id="path18"
       fill="#fff"
       opacity=".1" />
  </g>
</svg>
