<svg xmlns="http://www.w3.org/2000/svg" xmlns:xlink="http://www.w3.org/1999/xlink" height="32" width="32"><defs><radialGradient id="n" cx="17.814" cy="24.149" gradientTransform="matrix(-2.61 0 0 2.5017 55.337 -55.274)" gradientUnits="userSpaceOnUse" r="9.125"><stop offset="0" stop-color="#fff"/><stop offset="1" stop-color="#b6b6b6"/></radialGradient><linearGradient id="o" gradientUnits="userSpaceOnUse" x1="15.422" x2="17.753" y1="3.426" y2="30.176"><stop offset="0" stop-color="#fff"/><stop offset="1" stop-color="#fff" stop-opacity="0"/></linearGradient></defs><linearGradient id="a"><stop offset="0" stop-color="#fff"/><stop offset=".508" stop-color="#fff" stop-opacity=".235"/><stop offset=".835" stop-color="#fff" stop-opacity=".157"/><stop offset="1" stop-color="#fff" stop-opacity=".392"/></linearGradient><linearGradient id="b" gradientTransform="matrix(.6757 0 0 .6757 -32.47 -1.133)" gradientUnits="userSpaceOnUse" x1="71.204" x2="71.204" xlink:href="#a" y1="6.238" y2="44.341"/><linearGradient id="k" gradientTransform="matrix(.3514 0 0 -.3514 -9.204 24.91)" gradientUnits="userSpaceOnUse" x1="71.204" x2="71.204" xlink:href="#a" y1="6.238" y2="44.341"/><radialGradient id="i" cx="23.896" cy="3.99" gradientTransform="matrix(0 .645 -.8514 0 19.397 -5.326)" gradientUnits="userSpaceOnUse" r="20.397"><stop offset="0" stop-color="#f8b17e"/><stop offset=".262" stop-color="#e35d4f"/><stop offset=".661" stop-color="#c6262e"/><stop offset="1" stop-color="#690b54"/></radialGradient><linearGradient id="j" gradientTransform="matrix(.2703 0 0 .2703 9.514 9.514)" gradientUnits="userSpaceOnUse" x1="7.078" x2="7.078" y1="3.082" y2="45.369"><stop offset="0" stop-color="#791235"/><stop offset="1" stop-color="#c7321f"/></linearGradient><linearGradient id="h" gradientTransform="matrix(.6757 0 0 .6757 -32.47 -1.133)" gradientUnits="userSpaceOnUse" x1="71.204" x2="71.204" xlink:href="#b" y1="6.238" y2="44.341"/><radialGradient id="f" cx="23.896" cy="3.99" gradientTransform="matrix(0 1.5836 -2.0903 0 24.34 -36.357)" gradientUnits="userSpaceOnUse" r="20.397"><stop offset="0" stop-color="#fff"/><stop offset=".262" stop-color="#ddd"/><stop offset=".661" stop-color="#abacae"/><stop offset="1" stop-color="#89898b"/></radialGradient><linearGradient id="g" gradientTransform="translate(.076 .076) scale(.6635)" gradientUnits="userSpaceOnUse" x1="18.379" x2="18.379" y1="44.98" y2="3.082"><stop offset="0" stop-color="#505050"/><stop offset="1" stop-color="#aaa"/></linearGradient><linearGradient id="c"><stop offset="0"/><stop offset="1" stop-opacity="0"/></linearGradient><radialGradient id="e" cx="62.625" cy="4.625" gradientTransform="matrix(1.506 0 0 .3765 -78.306 26.26)" gradientUnits="userSpaceOnUse" r="10.625" xlink:href="#c"/><linearGradient id="l" gradientTransform="matrix(.2432 0 0 .2432 -1.45 9.832)" gradientUnits="userSpaceOnUse" x1="71.204" x2="71.204" xlink:href="#b" y1="6.238" y2="44.341"/><linearGradient id="d"><stop offset="0" stop-color="#fff"/><stop offset="1" stop-color="#fff" stop-opacity="0"/></linearGradient><linearGradient id="m" gradientUnits="userSpaceOnUse" x1="68.313" x2="68.313" xlink:href="#d" y1="52.925" y2="65.922"/><path d="M32 28c0 2.21-7.163 4-16 4S0 30.21 0 28s7.163-4 16-4 16 1.79 16 4z" fill="url(#e)" fill-rule="evenodd" opacity=".3"/><g stroke-linecap="round" stroke-linejoin="round"><path d="M16 2.502C8.552 2.502 2.502 8.552 2.502 16c0 7.448 6.05 13.498 13.498 13.498 7.448 0 13.498-6.05 13.498-13.498 0-7.448-6.05-13.498-13.498-13.498z" fill="url(#f)" stroke="url(#g)" stroke-width="1.004"/><path d="M28.5 16c0 6.903-5.597 12.5-12.5 12.5-6.904 0-12.5-5.597-12.5-12.5C3.5 9.096 9.096 3.5 16 3.5c6.903 0 12.5 5.596 12.5 12.5z" fill="none" opacity=".8" stroke="url(#h)"/><path d="M16 10.502c-3.034 0-5.498 2.465-5.498 5.498s2.464 5.498 5.498 5.498 5.498-2.464 5.498-5.498-2.464-5.498-5.498-5.498z" fill="url(#i)" stroke="url(#j)" stroke-width="1.004"/><g fill="none"><path d="M22.5 16c0-3.59-2.91-6.5-6.5-6.5S9.5 12.41 9.5 16s2.91 6.5 6.5 6.5 6.5-2.91 6.5-6.5z" opacity=".5" stroke="url(#k)"/><path d="M20.5 16c0 2.485-2.015 4.5-4.5 4.5s-4.5-2.015-4.5-4.5 2.015-4.5 4.5-4.5 4.5 2.015 4.5 4.5z" opacity=".5" stroke="url(#l)"/></g></g><path d="M78.34 64.35a11.424 11.424 0 1 1-22.85 0 11.424 11.424 0 1 1 22.85 0z" fill="url(#m)" opacity=".4" transform="matrix(.2626 0 0 .2626 -1.57 -1.898)"/><g stroke-width="1.279"><path d="M7.733 2.89l16.78 16.286-7.65.246 3.21 6.663c.986 2.962-3.456 4.072-4.196 1.85l-2.962-6.662-5.43 5.8z" fill="url(#n)" fill-rule="evenodd" stroke="#666" stroke-linejoin="round" transform="translate(12.335 8.74) scale(.7818)"/><path d="M9.27 6.313c-.126.004-.238.118-.24.244L8.75 23.174c0 .098.062.193.152.23.09.038.205.016.274-.054l3.793-3.846a.308.308 0 0 1 .5.09l3.526 7.773c.11.245.366.427.586.477.243.053.477.012.697-.09a.308.308 0 0 1 0-.002c.22-.1.405-.253.52-.48.107-.21.13-.527.013-.786l-3.46-7.66a.308.308 0 0 1 .262-.435l5.266-.287a.308.308 0 0 1 .003 0c.096-.005.185-.07.22-.16.032-.09.01-.198-.06-.265L9.45 6.38c-.047-.044-.112-.068-.177-.067H9.27z" fill="none" stroke="url(#o)" stroke-opacity=".787" transform="translate(12.335 8.74) scale(.7818)"/></g></svg>