<svg xmlns="http://www.w3.org/2000/svg" xmlns:xlink="http://www.w3.org/1999/xlink" height="32" width="32"><defs><linearGradient xlink:href="#a" id="d" gradientUnits="userSpaceOnUse" gradientTransform="matrix(.27962 0 0 -.26116 5.022 18.693)" x1="25.469" y1="32.841" x2="25.469" y2="2.724"/><linearGradient xlink:href="#b" id="e" gradientUnits="userSpaceOnUse" gradientTransform="matrix(0 .30606 .3277 0 5.52 4.564)" x1="20.797" y1="20.649" x2="37.474" y2="20.649"/><linearGradient xlink:href="#a" id="f" gradientUnits="userSpaceOnUse" gradientTransform="matrix(.27962 0 0 -.26116 5.022 18.693)" x1="25.469" y1="32.841" x2="25.469" y2="2.724"/><linearGradient xlink:href="#b" id="g" gradientUnits="userSpaceOnUse" gradientTransform="matrix(0 .30606 .3277 0 5.52 4.564)" x1="20.797" y1="20.649" x2="37.474" y2="20.649"/></defs><linearGradient id="c" gradientTransform="rotate(135 8.168 10.184) scale(.38705 .3192)" gradientUnits="userSpaceOnUse" x1="23.598" x2="37.747" y1="23.992" y2="39.486"><stop offset="0" stop-color="#eeeeec"/><stop offset="1" stop-color="#e0e0de"/></linearGradient><linearGradient id="a" gradientTransform="matrix(.27962 0 0 -.26116 5.022 18.693)" gradientUnits="userSpaceOnUse" x1="25.469" x2="25.469" y1="32.841" y2="2.724"><stop offset="0" stop-color="#cdf87e"/><stop offset=".262" stop-color="#a2e34f"/><stop offset=".661" stop-color="#68b723"/><stop offset="1" stop-color="#1d7e0d"/></linearGradient><linearGradient id="b" gradientTransform="matrix(0 .30606 .3277 0 5.52 4.564)" gradientUnits="userSpaceOnUse" x1="20.797" x2="37.474" y1="20.649" y2="20.649"><stop offset="0" stop-color="#fff"/><stop offset=".512" stop-color="#fff" stop-opacity=".235"/><stop offset=".585" stop-color="#fff" stop-opacity=".157"/><stop offset="1" stop-color="#fff" stop-opacity=".392"/></linearGradient><g stroke-width=".75"><path d="M3.484 8.484h13.032v10.032H3.484z" fill="url(#c)" stroke="#888a85" stroke-linecap="round" stroke-linejoin="round" transform="rotate(-135 14.492 16.565) scale(1.33333)"/><path d="M17.453 25.654a.407.407 0 0 0 .574 0l7.583-7.583a.407.407 0 0 0 0-.573L15.2 7.085a.407.407 0 0 0-.575 0l-7.583 7.583a.407.407 0 0 0 0 .575l10.41 10.41z" fill="none" stroke="#fdfdfb" stroke-width=".9999974999999999"/></g><path d="M9.303 8.59c-3.55 2.404-1.418 7.017 2.2 7.017v1.91l5-3.57-5-3.34v2c-2.553.1-3.67-2.34-1.844-4.018z" display="block" fill="url(#d)" transform="rotate(-98.27 29.665 6.972) scale(1.3318)"/><path d="M8.62 9.833c-1.252 1.47-.124 5.31 3.883 4.785v.99l2.33-1.66-2.33-1.51v.79c-4.397.236-4.256-2.8-3.882-3.395z" display="block" opacity=".8" fill="none" stroke="url(#e)" stroke-width=".751" stroke-miterlimit="7" transform="rotate(-98.27 29.665 6.972) scale(1.3318)"/><path d="M36.57 23.425c3.85 4.22 9.52.525 8.828-4.243l2.52-.366-5.666-5.906-3.443 7.23 2.635-.384c.62 3.345-2.382 5.283-4.943 3.2z" opacity=".5" fill="none" stroke="#0f5a00" stroke-linecap="round" stroke-linejoin="round" stroke-width="1.0001818"/><g><path d="M9.303 8.59c-3.55 2.404-1.418 7.017 2.2 7.017v1.91l5-3.57-5-3.34v2c-2.553.1-3.67-2.34-1.844-4.018z" display="block" fill="url(#f)" transform="rotate(79.07 4.94 .423) scale(1.33333)"/><path d="M8.62 9.833c-1.252 1.47-.124 5.31 3.883 4.785v.99l2.33-1.66-2.33-1.51v.79c-4.397.236-4.256-2.8-3.882-3.395z" display="block" opacity=".8" fill="none" stroke="url(#g)" stroke-width=".75" stroke-miterlimit="7" transform="rotate(79.07 4.94 .423) scale(1.33333)"/><path d="M-4.474 9.842c-4.046-4.04-9.546-.08-8.63 4.655l-2.503.483 5.94 5.643 3.107-7.39-2.618.505c-.775-3.316 2.136-5.393 4.794-3.43z" opacity=".5" fill="none" stroke="#0f5a00" stroke-linecap="round" stroke-linejoin="round" stroke-width=".9999974999999999"/></g></svg>