<?xml version="1.0" encoding="UTF-8" standalone="no"?>
<svg
   xmlns:dc="http://purl.org/dc/elements/1.1/"
   xmlns:cc="http://creativecommons.org/ns#"
   xmlns:rdf="http://www.w3.org/1999/02/22-rdf-syntax-ns#"
   xmlns:svg="http://www.w3.org/2000/svg"
   xmlns="http://www.w3.org/2000/svg"
   xmlns:xlink="http://www.w3.org/1999/xlink"
   xmlns:sodipodi="http://sodipodi.sourceforge.net/DTD/sodipodi-0.dtd"
   xmlns:inkscape="http://www.inkscape.org/namespaces/inkscape"
   height="32"
   width="32"
   version="1.1"
   id="svg68"
   sodipodi:docname="toolsmacroedit.svg"
   inkscape:version="0.92.3 (unknown)">
  <metadata
     id="metadata72">
    <rdf:RDF>
      <cc:Work
         rdf:about="">
        <dc:format>image/svg+xml</dc:format>
        <dc:type
           rdf:resource="http://purl.org/dc/dcmitype/StillImage" />
        <dc:title></dc:title>
      </cc:Work>
    </rdf:RDF>
  </metadata>
  <sodipodi:namedview
     pagecolor="#ffffff"
     bordercolor="#666666"
     borderopacity="1"
     objecttolerance="10"
     gridtolerance="10"
     guidetolerance="10"
     inkscape:pageopacity="0"
     inkscape:pageshadow="2"
     inkscape:window-width="1366"
     inkscape:window-height="706"
     id="namedview70"
     showgrid="false"
     inkscape:zoom="7.375"
     inkscape:cx="-1.4237288"
     inkscape:cy="14.915254"
     inkscape:window-x="0"
     inkscape:window-y="0"
     inkscape:window-maximized="1"
     inkscape:current-layer="svg68" />
  <defs
     id="defs31">
    <radialGradient
       gradientTransform="matrix(0 .76662 -.834 0 48.57 -34.3)"
       gradientUnits="userSpaceOnUse"
       xlink:href="#a"
       id="i"
       fy="48.19"
       fx="65.08"
       r="31"
       cy="48.19"
       cx="65.08" />
    <linearGradient
       gradientTransform="matrix(.5089 0 0 .50895 -4.523 10.367)"
       gradientUnits="userSpaceOnUse"
       xlink:href="#b"
       id="j"
       y2="35.86"
       x2="17.064"
       y1="23.421"
       x1="25.344" />
    <linearGradient
       id="b">
      <stop
         offset="0"
         stop-color="#fff"
         id="stop4" />
      <stop
         offset=".055"
         stop-color="#fff"
         stop-opacity=".235"
         id="stop6" />
      <stop
         offset=".392"
         stop-color="#fff"
         stop-opacity=".157"
         id="stop8" />
      <stop
         offset="1"
         stop-color="#fff"
         stop-opacity=".392"
         id="stop10" />
    </linearGradient>
    <linearGradient
       id="a"
       gradientTransform="matrix(.4922 0 0 .4584 4.51 -4.794)"
       gradientUnits="userSpaceOnUse"
       x1="23.732"
       x2="23.732"
       y1="5.394"
       y2="39.735">
      <stop
         offset="0"
         stop-color="#90dbec"
         id="stop13" />
      <stop
         offset=".262"
         stop-color="#55c1ec"
         id="stop15" />
      <stop
         offset=".705"
         stop-color="#3689e6"
         id="stop17" />
      <stop
         offset="1"
         stop-color="#2b63a0"
         id="stop19" />
    </linearGradient>
    <linearGradient
       id="c">
      <stop
         offset="0"
         stop-color="#fff"
         id="stop22" />
      <stop
         offset=".002"
         stop-color="#fff"
         stop-opacity=".235"
         id="stop24" />
      <stop
         offset=".392"
         stop-color="#fff"
         stop-opacity=".157"
         id="stop26" />
      <stop
         offset="1"
         stop-color="#fff"
         stop-opacity=".392"
         id="stop28" />
    </linearGradient>
    <linearGradient
       x1="23.576"
       y1="25.357"
       x2="23.576"
       y2="31.211"
       id="m-3"
       xlink:href="#a-6"
       gradientUnits="userSpaceOnUse"
       gradientTransform="matrix(0.65657,-0.6598,0.73452,0.73087,-21.95,5.314)" />
    <linearGradient
       id="a-6">
      <stop
         offset="0"
         stop-color="#181818"
         id="stop1362" />
      <stop
         offset=".135"
         stop-color="#dbdbdb"
         id="stop1364" />
      <stop
         offset=".202"
         stop-color="#a4a4a4"
         id="stop1366" />
      <stop
         offset=".27"
         stop-color="#fff"
         id="stop1368" />
      <stop
         offset=".447"
         stop-color="#8d8d8d"
         id="stop1370" />
      <stop
         offset=".571"
         stop-color="#959595"
         id="stop1372" />
      <stop
         offset=".72"
         stop-color="#cecece"
         id="stop1374" />
      <stop
         offset="1"
         stop-color="#181818"
         id="stop1376" />
    </linearGradient>
    <linearGradient
       x1="30.038"
       y1="24.99"
       x2="30.038"
       y2="30"
       id="n-7"
       xlink:href="#b-5"
       gradientUnits="userSpaceOnUse"
       gradientTransform="matrix(0.638,-0.64114,0.85963,0.85535,-24.357,1.938)" />
    <linearGradient
       id="b-5">
      <stop
         offset="0"
         stop-color="#565656"
         id="stop1380" />
      <stop
         offset=".5"
         stop-color="#9a9a9a"
         id="stop1382" />
      <stop
         offset="1"
         stop-color="#545454"
         id="stop1384" />
    </linearGradient>
    <linearGradient
       x1="30.038"
       y1="24.99"
       x2="30.038"
       y2="30"
       id="o-3"
       xlink:href="#c-5"
       gradientUnits="userSpaceOnUse"
       gradientTransform="matrix(0.638,-0.64114,0.85963,0.85535,-24.54,2.122)" />
    <linearGradient
       id="c-5">
      <stop
         offset="0"
         stop-color="#b1b1b1"
         id="stop1388" />
      <stop
         offset=".5"
         stop-color="#fff"
         id="stop1390" />
      <stop
         offset="1"
         stop-color="#8f8f8f"
         id="stop1392" />
    </linearGradient>
    <linearGradient
       x1="30.038"
       y1="24.99"
       x2="30.038"
       y2="30"
       id="p-6"
       xlink:href="#b-5"
       gradientUnits="userSpaceOnUse"
       gradientTransform="matrix(0.638,-0.64114,0.85963,0.85535,-23.722,1.3)" />
    <linearGradient
       x1="30.038"
       y1="24.99"
       x2="30.038"
       y2="30"
       id="q-2"
       xlink:href="#c-5"
       gradientUnits="userSpaceOnUse"
       gradientTransform="matrix(0.638,-0.64114,0.85963,0.85535,-23.905,1.484)" />
    <linearGradient
       x1="30.038"
       y1="24.99"
       x2="30.038"
       y2="30"
       id="r"
       xlink:href="#b-5"
       gradientUnits="userSpaceOnUse"
       gradientTransform="matrix(0.638,-0.64114,0.85963,0.85535,-23.084,0.66)" />
    <linearGradient
       x1="30.038"
       y1="24.99"
       x2="30.038"
       y2="30"
       id="s"
       xlink:href="#c-5"
       gradientUnits="userSpaceOnUse"
       gradientTransform="matrix(0.638,-0.64114,0.85963,0.85535,-23.267,0.843)" />
    <linearGradient
       x1="9"
       y1="29.056999"
       x2="9"
       y2="26.030001"
       id="t"
       xlink:href="#d-9"
       gradientUnits="userSpaceOnUse"
       gradientTransform="matrix(0.638,-0.64114,0.85963,0.85535,-24.6,2.182)" />
    <linearGradient
       id="d-9">
      <stop
         offset="0"
         stop-color="#ece5a5"
         id="stop1400" />
      <stop
         offset="1"
         stop-color="#fcfbf2"
         id="stop1402" />
    </linearGradient>
    <linearGradient
       x1="5.5180001"
       y1="37.372002"
       x2="9.5220003"
       y2="41.391998"
       id="u"
       xlink:href="#e-1"
       gradientUnits="userSpaceOnUse"
       gradientTransform="matrix(0.56036,0.0242,0.02416,0.55967,-1.392,-1.445)" />
    <linearGradient
       id="e-1">
      <stop
         offset="0"
         stop-color="#dbce48"
         id="stop1406" />
      <stop
         offset="1"
         stop-color="#c5b625"
         id="stop1408" />
    </linearGradient>
  </defs>
  <linearGradient
     id="d">
    <stop
       offset="0"
       stop-color="#fff"
       id="stop33" />
    <stop
       offset="1"
       stop-color="#fff"
       stop-opacity="0"
       id="stop35" />
  </linearGradient>
  <linearGradient
     id="h"
     gradientUnits="userSpaceOnUse"
     x1="15.321"
     x2="15.321"
     xlink:href="#d"
     y1="3"
     y2="29.045" />
  <linearGradient
     id="f"
     gradientUnits="userSpaceOnUse"
     x1="17.036"
     x2="17.036"
     y1="2"
     y2="30.012">
    <stop
       offset="0"
       stop-color="#f6f6f6"
       id="stop39" />
    <stop
       offset="1"
       stop-color="#d2d2d2"
       id="stop41" />
  </linearGradient>
  <linearGradient
     id="g"
     gradientUnits="userSpaceOnUse"
     x1="10.923"
     x2="10.923"
     y1="2"
     y2="30.045">
    <stop
       offset="0"
       stop-color="#aaa"
       id="stop44" />
    <stop
       offset="1"
       stop-color="#8c8c8c"
       id="stop46" />
  </linearGradient>
  <radialGradient
     id="e"
     cx="6.703"
     cy="73.616"
     gradientTransform="matrix(2.2135 0 0 .4842 1.164 -7.145)"
     gradientUnits="userSpaceOnUse"
     r="7.228">
    <stop
       offset="0"
       id="stop49" />
    <stop
       offset="1"
       stop-opacity="0"
       id="stop51" />
  </radialGradient>
  <path
     d="M32 28.5c0 1.933-7.164 3.5-16 3.5S0 30.433 0 28.5 7.164 25 16 25s16 1.567 16 3.5z"
     fill="url(#e)"
     opacity=".2"
     id="path54" />
  <path
     d="M13.875 2.5c-.75 0-1.375.595-1.375 1.344v1.75c-.473.16-.933.343-1.375.562l-1.22-1.22C9.378 4.41 8.53 4.41 8 4.937L4.938 7.97c-.53.528-.53 1.376 0 1.905l1.218 1.22c-.224.45-.4.923-.562 1.405h-1.72c-.748 0-1.374.595-1.374 1.344v4.312c0 .75.626 1.344 1.375 1.344h1.72c.16.482.337.956.56 1.406l-1.217 1.22c-.53.528-.53 1.376 0 1.905L8 27.063c.53.53 1.377.53 1.906 0l1.22-1.218c.44.22.9.403 1.374.562v1.75c0 .75.626 1.344 1.375 1.344h4.28c.75 0 1.345-.595 1.345-1.344v-1.75c.482-.162.956-.338 1.406-.562l1.22 1.218c.528.53 1.376.53 1.905 0l3.064-3.03c.53-.53.53-1.378 0-1.907l-1.25-1.25c.22-.442.403-.902.562-1.375h1.75c.75 0 1.344-.595 1.344-1.344v-4.312c0-.75-.595-1.344-1.344-1.344h-1.75c-.16-.473-.343-.933-.562-1.375l1.25-1.25c.53-.53.53-1.377 0-1.906L24.03 4.936c-.528-.53-1.376-.53-1.905 0l-1.22 1.22c-.45-.225-.923-.4-1.405-.563v-1.75c0-.75-.595-1.344-1.344-1.344zM16 12.5c1.932 0 3.5 1.568 3.5 3.5s-1.568 3.5-3.5 3.5-3.5-1.568-3.5-3.5 1.568-3.5 3.5-3.5z"
     display="block"
     fill="url(#f)"
     stroke="url(#g)"
     stroke-linejoin="round"
     id="path56" />
  <path
     d="M13.875 3.5c-.64.14-.28.97-.375 1.447.046.597.012 1.387-.688 1.584-.765.162-1.646 1.02-2.374.314-.506-.426-.888-1.06-1.485-1.335-.54.274-.93.875-1.415 1.284-.654.678-1.377 1.302-1.988 2.014-.038.54.616.81.907 1.212.5.38.917 1.057.504 1.658-.34.66-.388 1.82-1.366 1.822-.658.053-1.37-.114-1.99.1-.222.62-.05 1.344-.104 2.01.018.892-.036 1.793.027 2.682.377.39 1.024.133 1.525.208.638-.094 1.423.122 1.537.86.175.712.93 1.558.254 2.234-.42.5-1.05.88-1.322 1.467.285.6.922.986 1.357 1.494.644.63 1.297 1.297 1.934 1.908.55.04.828-.62 1.237-.92.38-.5 1.06-.917 1.662-.5.65.34 1.788.4 1.788 1.364.056.66-.12 1.38.104 1.995.71.212 1.51.048 2.257.1.814-.015 1.633.03 2.444-.022.378-.363.12-1.01.196-1.498-.055-.578.023-1.325.688-1.51.777-.15 1.668-1.023 2.406-.314.505.426.887 1.06 1.484 1.335.54-.274.93-.875 1.416-1.284.654-.678 1.377-1.302 1.987-2.014.04-.54-.615-.81-.906-1.21-.506-.39-.962-1.074-.533-1.694.342-.65.4-1.788 1.366-1.788.664-.047 1.375.1 2.006-.088.19-.734.04-1.548.088-2.315-.014-.8.03-1.604-.022-2.4-.363-.38-1.01-.12-1.498-.197-.643.09-1.446-.1-1.567-.85-.188-.703-.928-1.542-.257-2.212.436-.463.93-.877 1.33-1.37.026-.542-.62-.807-.916-1.208-.784-.77-1.577-1.572-2.353-2.322-.55-.04-.827.62-1.236.92-.38.5-1.057.916-1.658.503-.66-.34-1.82-.388-1.822-1.366-.047-.664.1-1.375-.088-2.006-.734-.19-1.548-.04-2.315-.088h-2.222z"
     display="block"
     opacity=".8"
     stroke="url(#h)"
     stroke-linejoin="round"
     fill="none"
     id="path58" />
  <g
     color="#000"
     id="g66">
    <path
       style="isolation:auto;mix-blend-mode:normal"
       d="M1.5 31.5v-15l12 7.5z"
       overflow="visible"
       solid-color="#000000"
       fill="url(#i)"
       transform="translate(10 -8)"
       id="path60" />
    <path
       style="isolation:auto;mix-blend-mode:normal"
       d="M11.5 23.5v-15l12 7.5z"
       overflow="visible"
       opacity=".5"
       solid-color="#000000"
       fill="none"
       stroke="#004372"
       stroke-linecap="round"
       stroke-linejoin="round"
       id="path62" />
    <path
       style="isolation:auto;mix-blend-mode:normal"
       d="M2.5 18.17v11.645l8.88-5.813z"
       overflow="visible"
       opacity=".6"
       solid-color="#000000"
       fill="none"
       stroke="url(#j)"
       stroke-width=".992"
       transform="translate(10 -8)"
       id="path64" />
  </g>
  <g
     id="g2054"
     transform="translate(-7.3780664e-4,7.7902832)">
    <path
       style="opacity:0.15;fill:#0c0c0c;fill-rule:evenodd"
       inkscape:connector-curvature="0"
       id="path1460"
       d="m 28.036,18.017 c -0.2,-0.03 -0.355,-0.015 -0.46,0.01 L 13.726,21.213 11.178,21.801 11.1,21.815 8,24 l 7.396,-0.196 0.062,-0.014 2.565,-0.586 13.848,-3.21 c 0.417,-0.097 -0.204,-0.614 -1.393,-1.162 -0.89,-0.41 -1.843,-0.727 -2.44,-0.815 z" />
    <path
       style="fill:url(#m-3);stroke:#0c0c0c;stroke-width:0.5;stroke-linejoin:round"
       inkscape:connector-curvature="0"
       id="path1462"
       transform="translate(7.23,-0.01)"
       d="m 3.996,16.48 c 0.446,-0.335 1.697,0.293 2.847,1.437 1.147,1.14 1.75,2.362 1.424,2.813 0,0 0.028,0.025 0.027,0.026 L 24.304,4.668 C 24.71,4.258 24.079,2.968 22.894,1.788 21.705,0.608 20.41,-0.017 20.005,0.39 Z" />
    <path
       style="opacity:0.8;fill:#ffb6ed;stroke:#e28ccd;stroke-width:0.5;stroke-linejoin:round"
       inkscape:connector-curvature="0"
       id="path1464"
       d="m 25.282,2.344 c 0.446,-0.334 1.697,0.294 2.847,1.438 1.146,1.14 1.75,2.362 1.423,2.813 0,0 0.028,0.025 0.027,0.026 l 1.954,-1.962 0.04,-0.04 C 31.573,4.617 31.545,4.594 31.546,4.592 31.873,4.142 31.269,2.922 30.122,1.78 28.973,0.634 27.723,0.006 27.276,0.34 l -0.04,0.04 z" />
    <path
       style="opacity:0.6;fill:#0c0c0c"
       inkscape:connector-curvature="0"
       id="path1466"
       d="m 11.226,16.47 c 0.446,-0.335 1.697,0.293 2.847,1.437 1.147,1.14 1.75,2.362 1.424,2.813 0,0 0.028,0.025 0.027,0.026 L 26.55,9.666 26.59,9.626 c 0,0 -0.03,-0.024 -0.028,-0.026 C 26.89,9.15 26.285,7.928 25.138,6.787 23.988,5.643 22.738,5.015 22.291,5.35 l -0.04,0.04 z" />
    <path
       style="fill:url(#n-7)"
       inkscape:connector-curvature="0"
       id="path1468"
       transform="translate(7.23,-0.01)"
       d="m 15.862,4.555 c 0.446,-0.334 1.697,0.293 2.847,1.437 1.146,1.142 1.75,2.363 1.423,2.813 0,0.002 0.028,0.025 0.027,0.027 l 0.2,-0.2 C 20.359,8.63 20.329,8.607 20.331,8.605 20.658,8.155 20.054,6.933 18.907,5.792 17.757,4.648 16.507,4.02 16.06,4.355 Z" />
    <path
       style="fill:url(#o-3)"
       inkscape:connector-curvature="0"
       id="path1470"
       transform="translate(7.23,-0.01)"
       d="m 15.68,4.74 c 0.445,-0.336 1.696,0.292 2.846,1.436 1.147,1.14 1.75,2.363 1.424,2.813 0,0 0.028,0.024 0.027,0.026 l 0.2,-0.2 C 20.177,8.813 20.147,8.789 20.15,8.788 20.477,8.336 19.872,7.115 18.725,5.974 17.575,4.83 16.325,4.202 15.878,4.537 Z" />
    <path
       style="fill:url(#p-6)"
       inkscape:connector-curvature="0"
       id="path1472"
       transform="translate(7.23,-0.01)"
       d="m 16.497,3.917 c 0.446,-0.334 1.697,0.293 2.847,1.437 1.147,1.142 1.75,2.363 1.424,2.813 0,0.002 0.028,0.025 0.027,0.027 l 0.2,-0.2 c 0,-0.002 -0.03,-0.025 -0.028,-0.027 C 21.294,7.517 20.69,6.295 19.543,5.154 18.393,4.01 17.143,3.382 16.696,3.717 Z" />
    <path
       style="fill:url(#q-2)"
       inkscape:connector-curvature="0"
       id="path1474"
       transform="translate(7.23,-0.01)"
       d="m 16.314,4.1 c 0.446,-0.334 1.697,0.294 2.847,1.438 1.148,1.14 1.752,2.363 1.425,2.813 0,0.003 0.028,0.026 0.027,0.028 l 0.2,-0.2 c 0,-0.002 -0.03,-0.026 -0.027,-0.027 0.327,-0.45 -0.278,-1.67 -1.425,-2.812 -1.15,-1.144 -2.4,-1.772 -2.847,-1.437 z" />
    <path
       style="fill:url(#r)"
       inkscape:connector-curvature="0"
       id="path1476"
       transform="translate(7.23,-0.01)"
       d="m 17.135,3.276 c 0.446,-0.334 1.697,0.293 2.847,1.437 1.147,1.142 1.75,2.363 1.424,2.813 0,0.002 0.028,0.025 0.027,0.027 l 0.2,-0.2 c 0,-0.002 -0.03,-0.025 -0.028,-0.027 0.327,-0.45 -0.277,-1.672 -1.424,-2.813 -1.15,-1.144 -2.4,-1.772 -2.846,-1.437 z" />
    <path
       style="fill:url(#s)"
       inkscape:connector-curvature="0"
       id="path1478"
       transform="translate(7.23,-0.01)"
       d="m 16.952,3.46 c 0.446,-0.335 1.697,0.293 2.847,1.437 1.146,1.14 1.75,2.362 1.423,2.813 0,0 0.028,0.025 0.027,0.026 l 0.2,-0.2 c 0,-0.002 -0.03,-0.025 -0.027,-0.027 0.327,-0.45 -0.278,-1.672 -1.425,-2.813 -1.15,-1.145 -2.4,-1.772 -2.847,-1.438 z" />
    <path
       style="fill:url(#t);fill-rule:evenodd;stroke:url(#u);stroke-width:0.5"
       inkscape:connector-curvature="0"
       id="path1480"
       transform="translate(7.23,-0.01)"
       d="M 0.928,23.76 8.211,20.79 8.274,20.73 C 8.601,20.278 7.989,19.057 6.842,17.916 5.692,16.772 4.444,16.146 3.998,16.482 Z" />
    <path
       style="fill:#0c0c0c;fill-rule:evenodd;stroke:#0c0c0c;stroke-width:0.5"
       inkscape:connector-curvature="0"
       id="path1482"
       d="m 8.99,21.78 -0.833,1.964 1.987,-0.815 C 9.984,22.737 9.838,22.544 9.646,22.354 9.426,22.134 9.21,21.957 8.989,21.779 Z" />
  </g>
</svg>
