<?xml version="1.0" encoding="UTF-8" standalone="no"?>
<svg
   xmlns:dc="http://purl.org/dc/elements/1.1/"
   xmlns:cc="http://creativecommons.org/ns#"
   xmlns:rdf="http://www.w3.org/1999/02/22-rdf-syntax-ns#"
   xmlns:svg="http://www.w3.org/2000/svg"
   xmlns="http://www.w3.org/2000/svg"
   xmlns:xlink="http://www.w3.org/1999/xlink"
   xmlns:sodipodi="http://sodipodi.sourceforge.net/DTD/sodipodi-0.dtd"
   xmlns:inkscape="http://www.inkscape.org/namespaces/inkscape"
   viewBox="0 0 32 32"
   version="1.1"
   id="svg43"
   sodipodi:docname="torus.svg"
   inkscape:export-filename="/home/rizmut/Documents/Rizmut/Github/libreoffice-style-elementary/images_elementary/cmd/lc_torus.png"
   inkscape:export-xdpi="96"
   inkscape:export-ydpi="96"
   width="32"
   height="32"
   inkscape:version="0.92.3 (2405546, 2018-03-11)">
  <metadata
     id="metadata47">
    <rdf:RDF>
      <cc:Work
         rdf:about="">
        <dc:format>image/svg+xml</dc:format>
        <dc:type
           rdf:resource="http://purl.org/dc/dcmitype/StillImage" />
        <dc:title></dc:title>
      </cc:Work>
    </rdf:RDF>
  </metadata>
  <sodipodi:namedview
     pagecolor="#ffffff"
     bordercolor="#666666"
     borderopacity="1"
     objecttolerance="10"
     gridtolerance="10"
     guidetolerance="10"
     inkscape:pageopacity="0"
     inkscape:pageshadow="2"
     inkscape:window-width="1366"
     inkscape:window-height="696"
     id="namedview45"
     showgrid="false"
     inkscape:zoom="4.9166667"
     inkscape:cx="-26.40425"
     inkscape:cy="-13.849455"
     inkscape:window-x="0"
     inkscape:window-y="0"
     inkscape:window-maximized="1"
     inkscape:current-layer="svg43" />
  <defs
     id="defs25">
    <radialGradient
       id="a"
       cx="15"
       cy="1037.3622"
       gradientTransform="matrix(-0.64403343,-0.48884694,0.31038244,-0.40891466,-297.31851,1468.8874)"
       gradientUnits="userSpaceOnUse"
       r="8">
      <stop
         offset="0"
         stop-color="#b3b3b3"
         id="stop2" />
      <stop
         offset="1"
         stop-color="#4d4d4d"
         stop-opacity="0"
         id="stop4" />
    </radialGradient>
    <radialGradient
       id="b"
       cx="13.039179"
       cy="1037.7168"
       gradientTransform="matrix(0.64403343,0.4277412,-0.31038244,0.35780044,360.31851,-362.08465)"
       gradientUnits="userSpaceOnUse"
       r="8"
       xlink:href="#a-3">
      <stop
         offset="0"
         stop-color="#f6f6f6"
         id="stop7" />
      <stop
         offset="1"
         stop-color="#c8c8c4"
         id="stop9" />
    </radialGradient>
    <radialGradient
       id="c"
       cx="11"
       cy="1041.3622"
       gradientTransform="matrix(-1.0000002,1.075e-5,-1.076e-5,-1.0000128,22.01121,2082.7375)"
       gradientUnits="userSpaceOnUse"
       r="8">
      <stop
         offset="0"
         stop-color="#b3b3b3"
         stop-opacity="0"
         id="stop12" />
      <stop
         offset=".795008"
         stop-color="#4d4d4d"
         id="stop14" />
      <stop
         offset="1"
         stop-color="#4d4d4d"
         stop-opacity="0"
         id="stop16" />
    </radialGradient>
    <path
       id="d"
       d="m 11,1033.3622 a 8,8 0 0 0 -8,8 8,8 0 0 0 8,8 8,8 0 0 0 8,-8 8,8 0 0 0 -8,-8 m 0,4 a 4,4 0 0 1 4,4 4,4 0 0 1 -4,4 4,4 0 0 1 -4,-4 4,4 0 0 1 4,-4"
       inkscape:connector-curvature="0" />
    <radialGradient
       id="e"
       cx="2.25"
       cy="16"
       gradientTransform="matrix(0.479894,0,0,0.11633788,10.772975,27.175389)"
       gradientUnits="userSpaceOnUse"
       r="16.875">
      <stop
         offset="0"
         id="stop20" />
      <stop
         offset="1"
         stop-opacity="0"
         id="stop22" />
    </radialGradient>
    <linearGradient
       id="a-3"
       gradientTransform="matrix(0.2502023,-0.7175237,0.7175237,0.2502023,-474.2609,139.20483)"
       gradientUnits="userSpaceOnUse"
       x1="371.03683"
       x2="345.4321"
       y1="501.16919"
       y2="510.09763">
      <stop
         offset="0"
         stop-color="#cd9ef7"
         id="stop1124" />
      <stop
         offset="1"
         stop-color="#a56de2"
         id="stop1126" />
    </linearGradient>
    <linearGradient
       id="d-3"
       gradientUnits="userSpaceOnUse"
       x1="3.5"
       x2="31.37711"
       xlink:href="#a-3"
       y1="8.0000134"
       y2="21.470341"
       gradientTransform="matrix(0.94117731,0,0,0.94117731,-23.8365,-6.0737959)" />
    <linearGradient
       id="b-6"
       gradientTransform="matrix(0.86174054,0,0,0.86384326,-22.812767,-5.2014649)"
       gradientUnits="userSpaceOnUse"
       x1="10.485164"
       x2="10.945673"
       y1="5.032969"
       y2="9.7070646">
      <stop
         offset="0"
         stop-color="#fff"
         id="stop1129" />
      <stop
         offset=".5"
         stop-color="#fff"
         stop-opacity=".235294"
         id="stop1131" />
      <stop
         offset=".81289846"
         stop-color="#fff"
         stop-opacity=".156863"
         id="stop1133" />
      <stop
         offset="1"
         stop-color="#fff"
         stop-opacity=".392157"
         id="stop1135" />
    </linearGradient>
    <radialGradient
       inkscape:collect="always"
       xlink:href="#a-3"
       id="radialGradient895"
       cx="47.246006"
       cy="14.616977"
       fx="47.246006"
       fy="14.616977"
       r="8.5"
       gradientTransform="matrix(1,0,0,0.88235318,0,1.4117638)"
       gradientUnits="userSpaceOnUse" />
  </defs>
  <g
     id="g905"
     transform="matrix(1.33333,0,0,1.33333,4.0000009e-5,-12.745022)">
    <ellipse
       style="display:block;opacity:0.24500002;fill:url(#e);fill-rule:evenodd"
       id="ellipse27"
       ry="1.963204"
       rx="8.0982113"
       display="block"
       cy="29.036797"
       cx="11.852736" />
    <g
       style="stroke:#888a85"
       id="g41"
       transform="matrix(1.0588235,0,0,1.0588235,-43.058822,8.852923)">
      <use
         y="0"
         x="0"
         style="fill:#4d4d4d;fill-opacity:0.835294"
         id="use29"
         xlink:href="#d"
         width="100%"
         transform="matrix(1,0,0,0.87500027,41,-899.19219)"
         height="100%" />
      <path
         style="fill:#4d4d4d;fill-opacity:0.470588"
         inkscape:connector-curvature="0"
         id="path31"
         d="M 46.845703,6.6560395 A 8,7.0000022 0 0 0 44,12.000016 8,7.0000022 0 0 0 52,19.000018 8,7.0000022 0 0 0 58.158203,16.46558 8,7.0000022 0 0 1 53,18.125018 8,7.0000022 0 0 1 45,11.125016 8,7.0000022 0 0 1 46.845703,6.6560395" />
      <use
         y="0"
         x="0"
         style="fill:url(#c)"
         id="use33"
         xlink:href="#d"
         width="100%"
         transform="matrix(1,0,0,0.87500027,41,-899.19219)"
         height="100%" />
      <use
         y="0"
         x="0"
         style="fill:url(#a)"
         id="use35"
         xlink:href="#d"
         width="100%"
         transform="matrix(1,0,0,0.87500027,41,-899.19219)"
         height="100%" />
      <path
         inkscape:connector-curvature="0"
         style="opacity:0.89200003;fill:url(#radialGradient895);fill-opacity:1;stroke:#7239b3;stroke-width:0.7083351;stroke-miterlimit:4;stroke-dasharray:none;stroke-opacity:0.66274498"
         id="path37"
         d="m 52,19.000018 a 8,7.0000022 0 0 0 8,-7.000002 8,7.0000022 0 0 0 -8,-7.000002 8,7.0000022 0 0 0 -8,7.000002 8,7.0000022 0 0 0 8,7.000002 m 0,-3.500001 a 4,3.5000011 0 0 1 -4,-3.500001 4,3.5000011 0 0 1 4,-3.5000009 4,3.5000011 0 0 1 4,3.5000009 4,3.5000011 0 0 1 -4,3.500001" />
      <path
         inkscape:connector-curvature="0"
         style="opacity:0.89200003;fill:#fdfdfb;stroke:#7239b3;stroke-width:0.7083351;stroke-miterlimit:4;stroke-dasharray:none;stroke-opacity:0.66274498"
         id="path39"
         d="M 57,11.562516 A 4.5,3.9375012 0 0 0 52.5,7.6250148 4.5,3.9375012 0 0 0 48,11.562516 a 4.5,3.9375012 0 0 0 0.0098,0.24955 4,3.5000011 0 0 1 3.990234,-3.3120509 4,3.5000011 0 0 1 4,3.5000009 4,3.5000011 0 0 1 -3.707031,3.489764 4.5,3.9375012 0 0 0 0.207031,0.0105 4.5,3.9375012 0 0 0 4.5,-3.937501 z" />
    </g>
  </g>
</svg>
