<?xml version="1.0" encoding="UTF-8" standalone="no"?>
<svg
   xmlns:dc="http://purl.org/dc/elements/1.1/"
   xmlns:cc="http://creativecommons.org/ns#"
   xmlns:rdf="http://www.w3.org/1999/02/22-rdf-syntax-ns#"
   xmlns:svg="http://www.w3.org/2000/svg"
   xmlns="http://www.w3.org/2000/svg"
   xmlns:xlink="http://www.w3.org/1999/xlink"
   xmlns:sodipodi="http://sodipodi.sourceforge.net/DTD/sodipodi-0.dtd"
   xmlns:inkscape="http://www.inkscape.org/namespaces/inkscape"
   height="32"
   width="32"
   version="1.1"
   id="svg53"
   sodipodi:docname="underlinedouble.svg"
   inkscape:version="0.92.4 (unknown)"
   inkscape:export-filename="/home/rizmut/Dokumen/Rizmut/Github/libreoffice-style-elementary/images_elementary/cmd/32/underlinedouble.png"
   inkscape:export-xdpi="96"
   inkscape:export-ydpi="96">
  <metadata
     id="metadata59">
    <rdf:RDF>
      <cc:Work
         rdf:about="">
        <dc:format>image/svg+xml</dc:format>
        <dc:type
           rdf:resource="http://purl.org/dc/dcmitype/StillImage" />
      </cc:Work>
    </rdf:RDF>
  </metadata>
  <defs
     id="defs57">
    <radialGradient
       inkscape:collect="always"
       xlink:href="#a"
       id="radialGradient844"
       cx="10.903473"
       cy="14.502974"
       fx="10.903473"
       fy="14.502974"
       r="6.2253389"
       gradientTransform="matrix(-1.2196885,0.08040792,-0.11059577,-2.3622884,25.806282,45.146631)"
       gradientUnits="userSpaceOnUse" />
    <linearGradient
       id="linearGradient860">
      <stop
         offset="0"
         stop-color="#555"
         id="stop2-0" />
      <stop
         offset="1"
         stop-color="#666"
         id="stop4-2" />
    </linearGradient>
    <radialGradient
       inkscape:collect="always"
       xlink:href="#a"
       id="radialGradient867"
       cx="10.903473"
       cy="14.502974"
       fx="10.903473"
       fy="14.502974"
       r="6.2253389"
       gradientTransform="matrix(-1.2196885,0.08040792,-0.11059577,-2.3622884,25.806282,45.108252)"
       gradientUnits="userSpaceOnUse" />
  </defs>
  <sodipodi:namedview
     pagecolor="#ffffff"
     bordercolor="#666666"
     borderopacity="1"
     objecttolerance="10"
     gridtolerance="10"
     guidetolerance="10"
     inkscape:pageopacity="0"
     inkscape:pageshadow="2"
     inkscape:window-width="1366"
     inkscape:window-height="714"
     id="namedview55"
     showgrid="true"
     inkscape:zoom="10.429825"
     inkscape:cx="-3.3771858"
     inkscape:cy="15.63722"
     inkscape:window-x="0"
     inkscape:window-y="28"
     inkscape:window-maximized="1"
     inkscape:current-layer="g43">
    <inkscape:grid
       type="xygrid"
       id="grid840" />
  </sodipodi:namedview>
  <linearGradient
     id="a">
    <stop
       offset="0"
       stop-color="#555"
       id="stop2" />
    <stop
       offset="1"
       stop-color="#666"
       id="stop4" />
  </linearGradient>
  <linearGradient
     id="b"
     gradientUnits="userSpaceOnUse"
     x1="12.761326"
     x2="12.761326"
     xlink:href="#a"
     y1="33.638302"
     y2="11.638302" />
  <linearGradient
     id="c">
    <stop
       offset="0"
       id="stop8" />
    <stop
       offset="1"
       stop-opacity="0"
       id="stop10" />
  </linearGradient>
  <radialGradient
     id="d"
     cx="40"
     cy="43.5"
     gradientTransform="matrix(.87733142 0 0 .75 -17.142285 -3.625)"
     gradientUnits="userSpaceOnUse"
     r="2"
     xlink:href="#c" />
  <radialGradient
     id="e"
     cx="9"
     cy="43.5"
     gradientTransform="matrix(.87733142 0 0 .75 -1.350319 -3.625)"
     gradientUnits="userSpaceOnUse"
     r="2"
     xlink:href="#c" />
  <linearGradient
     id="f"
     gradientTransform="matrix(.87733142 0 0 1 -5.736976 -14.5)"
     gradientUnits="userSpaceOnUse"
     x1="25"
     x2="25"
     y1="45"
     y2="42">
    <stop
       offset="0"
       stop-opacity="0"
       id="stop15" />
    <stop
       offset=".5"
       id="stop17" />
    <stop
       offset="1"
       stop-opacity="0"
       id="stop19" />
  </linearGradient>
  <linearGradient
     id="g"
     gradientTransform="matrix(.98244026 0 0 1.0032268 .121605 8.047357)"
     gradientUnits="userSpaceOnUse"
     x1="12.02772"
     x2="11.427851"
     xlink:href="#a"
     y1="25.544678"
     y2="4.392136" />
  <g
     transform="matrix(1.33333 0 0 1.33333 .163341 -11.350962)"
     id="g29">
    <path
       d="m1.752716 29.885566.017578 2.234376h19.504467l-.01758-2.234376z"
       fill="url(#b)"
       id="path23" />
    <path
       d="m1.752716 29.885566.00414 2.252736h19.50447l-.0041-2.252736z"
       fill="none"
       opacity=".61"
       stroke="#000"
       stroke-width=".750002"
       id="path25" />
    <path
       d="m2.1302176 30.242557-.00272.769013h18.7500494l-.01548-.759479z"
       fill="#fff"
       opacity=".2"
       id="path27" />
  </g>
  <g
     transform="matrix(1.33333 0 0 1.33333 .163341 -16.358889)"
     id="g43">
    <g
       aria-label="U"
       transform="scale(1.089334,0.9179921)"
       style="font-style:normal;font-weight:normal;font-size:22.58528137px;line-height:1.25;font-family:sans-serif;letter-spacing:0px;word-spacing:0px;fill:url(#radialGradient844);fill-opacity:1;stroke:#000000;stroke-width:0.75000185;stroke-miterlimit:4;stroke-dasharray:none;stroke-opacity:0.6"
       id="text836">
      <path
         d="m 16.752301,13.773756 v 10.454515 q 0,1.257188 -0.363923,2.337929 -0.363923,1.080741 -1.102797,1.874755 -0.727846,0.794014 -1.841671,1.246161 -1.102797,0.452146 -2.602601,0.452146 -1.4115797,0 -2.4923207,-0.419062 Q 7.2682473,29.290109 6.5293733,28.507123 5.8015274,27.724137 5.4265764,26.632368 5.0516254,25.529571 5.0516254,24.184159 V 13.795812 h 2.0622303 v 10.498627 q 0,1.929894 0.9484054,2.988579 0.9594333,1.058685 2.8893279,1.058685 0.981489,0 1.687279,-0.297755 0.70579,-0.297755 1.157937,-0.838125 0.452147,-0.540371 0.672706,-1.290273 0.22056,-0.749902 0.231588,-1.643167 V 13.773756 Z"
         style="font-style:normal;font-variant:normal;font-weight:normal;font-stretch:normal;font-family:'Droid Sans';-inkscape-font-specification:'Droid Sans';fill:url(#radialGradient844);fill-opacity:1;stroke:#000000;stroke-width:0.75000185;stroke-miterlimit:4;stroke-dasharray:none;stroke-opacity:0.6"
         id="path866" />
    </g>
    <path
       inkscape:connector-curvature="0"
       style="font-style:normal;font-weight:normal;font-size:22.58528137px;line-height:1.25;font-family:sans-serif;letter-spacing:0px;word-spacing:0px;opacity:0.2;fill:#ffffff;fill-opacity:1;stroke:none;stroke-width:0.75000185;stroke-miterlimit:4;stroke-dasharray:none;stroke-opacity:0.6"
       d="m 16.014254,12.644188 v 1.125003 h 2.233892 v -1.125003 z m -10.5117459,0.02051 v 1.125003 h 2.2470761 v -1.125005 z m 10.5117459,9.616721 c -0.008,0.546674 -0.09178,1.049857 -0.251953,1.508793 -0.160176,0.458936 -0.404065,0.854357 -0.732425,1.185062 -0.328359,0.330703 -0.748673,0.58682 -1.261234,0.769044 -0.51256,0.182225 -1.125603,0.272462 -1.838384,0.272462 -1.401533,0 -2.4511942,-0.323284 -3.1479565,-0.971194 -0.6887537,-0.64791 -1.0327173,-1.562574 -1.0327173,-2.743659 v 1.125003 c 0,1.181085 0.3439636,2.095749 1.0327173,2.743659 0.6967623,0.64791 1.7464235,0.971194 3.1479565,0.971194 0.712781,0 1.325824,-0.09024 1.838384,-0.272462 0.512561,-0.182224 0.932875,-0.438341 1.261234,-0.769044 0.32836,-0.330705 0.572249,-0.726126 0.732425,-1.185062 0.160174,-0.458937 0.243944,-0.96212 0.251953,-1.508793 z"
       id="text848" />
  </g>
  <g
     transform="matrix(1.33333 0 0 1.33333 .163341 -17.350962)"
     id="g51">
    <path
       d="m1.752716 29.885566.017578 2.234376h19.504467l-.01758-2.234376z"
       fill="url(#b)"
       id="path45" />
    <path
       d="m1.752716 29.885566.00414 2.252736h19.50447l-.0041-2.252736z"
       fill="none"
       opacity=".61"
       stroke="#000"
       stroke-width=".750002"
       id="path47" />
    <path
       d="m2.1302176 30.242557-.00272.769013h18.7500494l-.01548-.759479z"
       fill="#fff"
       opacity=".2"
       id="path49" />
  </g>
</svg>
