<svg xmlns="http://www.w3.org/2000/svg" xmlns:xlink="http://www.w3.org/1999/xlink" height="32" width="32"><defs><linearGradient id="k"><stop offset="0" stop-color="#fff"/><stop offset=".572" stop-color="#fff" stop-opacity=".235"/><stop offset="1" stop-color="#fff" stop-opacity=".157"/><stop offset="1" stop-color="#fff" stop-opacity=".392"/></linearGradient><linearGradient id="a"><stop offset="0" stop-color="#abacae"/><stop offset=".5" stop-color="#fafafa"/><stop offset="1" stop-color="#abacae"/></linearGradient><linearGradient id="h"><stop offset="0" stop-color="#fff"/><stop offset="0" stop-color="#fff" stop-opacity=".235"/><stop offset="1" stop-color="#fff" stop-opacity=".157"/><stop offset="1" stop-color="#fff" stop-opacity=".392"/></linearGradient><linearGradient id="f"><stop offset="0" stop-color="#fff"/><stop offset="1" stop-color="#fff" stop-opacity="0"/></linearGradient><linearGradient id="i"><stop offset="0" stop-color="#d88f22"/><stop offset="1" stop-color="#d88f22" stop-opacity="0"/></linearGradient><linearGradient id="b"><stop offset="0" stop-color="#fff"/><stop offset="1" stop-color="#fff" stop-opacity="0"/></linearGradient><linearGradient gradientTransform="matrix(.5586 0 0 .62755 2.58 .038)" gradientUnits="userSpaceOnUse" xlink:href="#a" id="l" y2="17.47" x2="27.192" y1="2.914" x1="10.651" spreadMethod="reflect"/><linearGradient id="c"><stop offset="0" stop-color="#181818" stop-opacity="0"/><stop offset=".5" stop-color="#181818"/><stop offset="1" stop-color="#181818" stop-opacity="0"/></linearGradient><linearGradient id="d"><stop offset="0" stop-color="#181818"/><stop offset="1" stop-color="#181818" stop-opacity="0"/></linearGradient><linearGradient id="e"><stop offset="0" stop-color="#181818"/><stop offset="1" stop-color="#181818" stop-opacity="0"/></linearGradient><radialGradient gradientTransform="matrix(.6265 0 0 .62755 .6 1.222)" gradientUnits="userSpaceOnUse" xlink:href="#b" id="m" fy="6.281" fx="18.031" r="3.182" cy="6.281" cx="18.031"/><linearGradient gradientTransform="matrix(.64286 0 0 .42857 .57 10.857)" gradientUnits="userSpaceOnUse" xlink:href="#c" id="q" y2="39.999" x2="25.058" y1="47.028" x1="25.058"/><radialGradient gradientTransform="matrix(1.20227 0 0 .6 -13.007 -55.6)" gradientUnits="userSpaceOnUse" xlink:href="#d" id="p" fy="43.5" fx="4.993" r="2.5" cy="43.5" cx="4.993"/><radialGradient gradientTransform="matrix(1.20227 0 0 .6 18.993 3.4)" gradientUnits="userSpaceOnUse" xlink:href="#e" id="o" fy="43.5" fx="4.993" r="2.5" cy="43.5" cx="4.993"/><linearGradient id="g"><stop offset="0" stop-color="#7d511a" stop-opacity=".1"/><stop offset="1" stop-color="#b69464" stop-opacity=".029"/></linearGradient><linearGradient id="j"><stop offset="0" stop-color="#f0dab6"/><stop offset="1" stop-color="#dfa751"/></linearGradient><linearGradient gradientTransform="matrix(-1.24477 0 0 1 35.524 -11)" gradientUnits="userSpaceOnUse" xlink:href="#f" id="t" y2="27.5" x2="23.3" y1="27.5" x1="8.643"/><linearGradient gradientTransform="matrix(-1.24477 0 0 1 35.524 -10)" gradientUnits="userSpaceOnUse" xlink:href="#g" id="s" y2="27.5" x2="22.8" y1="27.5" x1="9.143"/><linearGradient gradientTransform="matrix(1 0 0 .92857 0 2.036)" gradientUnits="userSpaceOnUse" xlink:href="#h" id="w" y2="27.962" x2="21.771" y1="15.038" x1="21.771"/><linearGradient gradientTransform="matrix(.66667 0 0 .93333 1.833 1.933)" gradientUnits="userSpaceOnUse" xlink:href="#i" id="u" y2="14" x2="9" y1="29" x1="9"/><linearGradient gradientTransform="matrix(.66667 0 0 .93333 18.833 1.933)" gradientUnits="userSpaceOnUse" xlink:href="#i" id="v" y2="14" x2="9" y1="29" x1="9"/><linearGradient xlink:href="#j" id="r" x1="-11.443" y1="10.514" x2="-11.443" y2="25.323" gradientUnits="userSpaceOnUse" gradientTransform="translate(28.476 4.048)"/><linearGradient xlink:href="#k" id="n" gradientUnits="userSpaceOnUse" gradientTransform="matrix(1 0 0 .92857 0 2.036)" x1="21.977" y1="1.623" x2="21.977" y2="14.202"/></defs><path d="M8.523 15.945v-5.6c0-4.938 2.937-7.284 7.474-7.223 4.562.062 7.53 2.227 7.53 7.224v5.756c0 1.226-3.067 1.382-3.067 0v-4.5c0-1.256.317-5.317-4.43-5.317-4.71 0-4.367 4.086-4.35 5.31v4.37c0 1.48-3.157 1.472-3.157-.02z" fill="url(#l)" fill-rule="evenodd" transform="translate(8)"/><path d="M13.89 5.164c0 1.103-.89 1.997-1.992 1.997-1.102 0-1.994-.893-1.994-1.996s.892-1.997 1.994-1.997c1.1 0 1.993.894 1.993 1.997z" overflow="visible" fill="url(#m)" fill-rule="evenodd" transform="translate(8)"/><path d="M20.763 5.164c0 .48-.387.867-.865.867-.48 0-.866-.387-.866-.866 0-.48.387-.868.866-.868.478 0 .866.39.865.868z" overflow="visible" fill="#fff" fill-rule="evenodd"/><path d="M16.523 15.945v-5.6c0-4.938 2.937-7.284 7.474-7.223 4.562.062 7.53 2.227 7.53 7.224v5.756H28.46v-4.5c0-1.256.317-5.317-4.43-5.317-4.71 0-4.367 4.086-4.35 5.31v4.37z" opacity=".5" fill="none" stroke="#555761"/><path d="M9.5 14.917v-4.744C9.5 5.987 12.045 4 15.976 4.05c3.952.054 6.524 1.888 6.524 6.123v4.877" fill="none" stroke="url(#n)" stroke-linejoin="round" transform="translate(8)"/><g transform="translate(-5)"><path opacity=".3" fill="url(#o)" d="M25 28h3v3h-3z"/><path transform="scale(-1)" opacity=".3" fill="url(#p)" d="M-7-31h3v3h-3z"/><path opacity=".3" fill="url(#q)" d="M7 28h18v3H7z"/><rect width="21" height="15" rx="1" ry="1" x="5.5" y="14.5" color="#000" overflow="visible" fill="url(#r)"/><rect width="21" height="15" rx="1" ry="1" x="5.5" y="14.5" color="#000" overflow="visible" opacity=".5" fill="none" stroke="#7d511a"/><path d="M7.143 17.5h17m-17 2h17m-17 2h17m-17 2h17m-17 2h17m-17 2h17" fill="none" stroke="url(#s)"/><path d="M7.143 16.5h17m-17 2h17m-17 2h17m-17 2h17m-17 2h17m-17 2h17" opacity=".2" fill="none" stroke="url(#t)"/><rect width="1" height="14" rx="1.6" ry="1" x="7" y="15" color="#000" overflow="visible" opacity=".5" fill="url(#u)"/><rect width="1" height="14" rx="1.6" ry="1" x="24" y="15" color="#000" overflow="visible" opacity=".5" fill="url(#v)"/><path color="#000" overflow="visible" opacity=".6" fill="none" stroke="url(#w)" stroke-linejoin="round" d="M6.5 15.5h19v13h-19z"/></g></svg>