<?xml version="1.0" encoding="UTF-8" standalone="no"?>
<svg
   xmlns:dc="http://purl.org/dc/elements/1.1/"
   xmlns:cc="http://creativecommons.org/ns#"
   xmlns:rdf="http://www.w3.org/1999/02/22-rdf-syntax-ns#"
   xmlns:svg="http://www.w3.org/2000/svg"
   xmlns="http://www.w3.org/2000/svg"
   xmlns:xlink="http://www.w3.org/1999/xlink"
   xmlns:sodipodi="http://sodipodi.sourceforge.net/DTD/sodipodi-0.dtd"
   xmlns:inkscape="http://www.inkscape.org/namespaces/inkscape"
   height="32"
   width="32.000004"
   version="1.1"
   id="svg51"
   sodipodi:docname="updatecurindex.svg"
   inkscape:version="0.92.4 (unknown)"
   inkscape:export-filename="/home/rizmut/Dokumen/Rizmut/Github/libreoffice-style-elementary/images_elementary/cmd/32/updatecurindex.png"
   inkscape:export-xdpi="96"
   inkscape:export-ydpi="96">
  <metadata
     id="metadata57">
    <rdf:RDF>
      <cc:Work
         rdf:about="">
        <dc:format>image/svg+xml</dc:format>
        <dc:type
           rdf:resource="http://purl.org/dc/dcmitype/StillImage" />
        <dc:title></dc:title>
      </cc:Work>
    </rdf:RDF>
  </metadata>
  <defs
     id="defs55">
    <radialGradient
       id="h"
       cx="99.156998"
       cy="186.17101"
       gradientTransform="matrix(0.10025,0,0,0.0319,14.328001,24.094)"
       gradientUnits="userSpaceOnUse"
       r="62.769001">
      <stop
         offset="0"
         stop-color="#3d3d3d"
         id="stop35" />
      <stop
         offset=".5"
         stop-color="#686868"
         stop-opacity=".498"
         id="stop37" />
      <stop
         offset="1"
         stop-color="#686868"
         stop-opacity="0"
         id="stop39" />
    </radialGradient>
    <linearGradient
       id="i"
       gradientTransform="matrix(0.66762,0,0,0.49907,-1376.31,-1590.258)"
       gradientUnits="userSpaceOnUse"
       x1="2094.8989"
       x2="2094.8989"
       y1="3215.689"
       y2="3249.04">
      <stop
         offset="0"
         stop-color="#64baff"
         id="stop42" />
      <stop
         offset="1"
         stop-color="#3689e6"
         id="stop44" />
    </linearGradient>
    <linearGradient
       id="j"
       gradientTransform="matrix(0.60953,0,0,0.6116,9.688,1.02)"
       gradientUnits="userSpaceOnUse"
       x1="30.194"
       x2="26.541"
       y1="27.546"
       y2="33.269001">
      <stop
         offset="0"
         stop-color="#fff"
         id="stop47" />
      <stop
         offset="0"
         stop-color="#fff"
         stop-opacity=".235"
         id="stop49" />
      <stop
         offset=".539"
         stop-color="#fff"
         stop-opacity=".157"
         id="stop51" />
      <stop
         offset="1"
         stop-color="#fff"
         stop-opacity=".392"
         id="stop53" />
    </linearGradient>
    <linearGradient
       id="k"
       gradientTransform="matrix(0.72448,0,0,0.72458,29.91,1.457)"
       gradientUnits="userSpaceOnUse"
       x1="-6.388"
       x2="-6.388"
       y1="22.461"
       y2="39.830002">
      <stop
         offset="0"
         stop-color="#fff"
         id="stop56" />
      <stop
         offset=".5"
         stop-color="#fff"
         stop-opacity=".235"
         id="stop58" />
      <stop
         offset=".75"
         stop-color="#fff"
         stop-opacity=".157"
         id="stop60" />
      <stop
         offset="1"
         stop-color="#fff"
         stop-opacity=".392"
         id="stop62" />
    </linearGradient>
    <linearGradient
       id="l"
       gradientTransform="matrix(0.47357,0,0,0.47262,27.965,9.305)"
       gradientUnits="userSpaceOnUse"
       x1="-2.8499999"
       x2="-2.8499999"
       y1="39.618"
       y2="22.673">
      <stop
         offset="0"
         stop-color="#fff"
         id="stop65" />
      <stop
         offset=".429"
         stop-color="#fff"
         stop-opacity=".235"
         id="stop67" />
      <stop
         offset=".75"
         stop-color="#fff"
         stop-opacity=".157"
         id="stop69" />
      <stop
         offset="1"
         stop-color="#fff"
         stop-opacity=".392"
         id="stop71" />
    </linearGradient>
  </defs>
  <sodipodi:namedview
     pagecolor="#ffffff"
     bordercolor="#666666"
     borderopacity="1"
     objecttolerance="10"
     gridtolerance="10"
     guidetolerance="10"
     inkscape:pageopacity="0"
     inkscape:pageshadow="2"
     inkscape:window-width="1366"
     inkscape:window-height="706"
     id="namedview53"
     showgrid="false"
     inkscape:zoom="7.375"
     inkscape:cx="-1.0847439"
     inkscape:cy="16"
     inkscape:window-x="0"
     inkscape:window-y="0"
     inkscape:window-maximized="1"
     inkscape:current-layer="svg51" />
  <filter
     id="a"
     color-interpolation-filters="sRGB"
     height="1.090767"
     width="1.013828"
     x="-.006914"
     y="-.045383">
    <feGaussianBlur
       stdDeviation=".029150602"
       id="feGaussianBlur2" />
  </filter>
  <linearGradient
     id="b">
    <stop
       offset="0"
       stop-color="#737373"
       id="stop5" />
    <stop
       offset=".26238"
       stop-color="#636363"
       id="stop7" />
    <stop
       offset=".704952"
       stop-color="#4b4b4b"
       id="stop9" />
    <stop
       offset="1"
       stop-color="#3f3f3f"
       id="stop11" />
  </linearGradient>
  <radialGradient
     id="c"
     cx="9.72272"
     cy="-91.022446"
     gradientTransform="matrix(-3.7910092 -.00000022 .0000002 -3.3609145 50.296794 -313.85665)"
     gradientUnits="userSpaceOnUse"
     r="7"
     xlink:href="#b" />
  <radialGradient
     id="d"
     cx="-1.473815"
     cy="-42.064499"
     gradientTransform="matrix(-1.3567669 .00000019 -.00000007 -2.1857141 10.474057 -91.012398)"
     gradientUnits="userSpaceOnUse"
     r="10"
     xlink:href="#b" />
  <radialGradient
     id="e"
     cx="11.284193"
     cy="-2.343429"
     gradientTransform="matrix(-8.6734192 -.00000046 .0000005 -9.529287 109.91325 -25.099575)"
     gradientUnits="userSpaceOnUse"
     r="2"
     xlink:href="#b" />
  <g
     id="g960">
    <g
       id="g49"
       transform="matrix(1.33333 0 0 1.33333 1.000039 2.000036)">
      <path
         id="path17"
         opacity=".35"
         filter="url(#a)"
         fill="#fff"
         d="m16.624988 8.124544c-.0021-.2690776-.288334-.499541-.625-.499541h-8.7499998c-.336666 0-.6271077.2304633-.625.499541l.00392.5004411c.00211.2690779.288334.499541.625.499541.0014.0041 8.7499998 0 8.7499998 0 .336666 0 .627107-.2304632.625-.499541z" />
      <path
         id="path19"
         stroke-width=".750002"
         stroke-linejoin="round"
         stroke-linecap="round"
         stroke="url(#d)"
         fill="none"
         d="m7.1249883 7.124991v.7734428.00195c3.0000007-.00999 6.0000007-.015401 8.9999997-.025391v-.7500018z" />
      <path
         id="path21"
         opacity=".35"
         fill="#fff"
         d="m20.611395 4.1249835c0-.2691161-.403658-.4995969-.87498-.4995969h-12.1114471c-.4713219 0-.8749806.2304808-.8749806.4995969v.7500019c0 .2691161.4036587.4995969.8749806.4995969.00196.0041 12.1114481 0 12.1114481 0 .471322 0 .87498-.2304808.87498-.4995969z" />
      <g
         id="g31"
         stroke-width=".750002"
         stroke-linejoin="round"
         stroke-linecap="round"
         fill="none">
        <path
           id="path23"
           stroke="url(#c)"
           d="m7.1249882 3.3749337-.0000001.7734398v.002c4.3333339-.01 9.1667009-.01539 13.5000339-.02539v-.7500018h-13.5000338z" />
        <g
           id="g29"
           stroke="#000">
          <path
             id="path25"
             opacity=".1"
             d="m7.1249883 7.124991.0000117.7734332v.00195c3.000001-.00999 6.000001-.015401 9-.025391l-.000012-.7499922z" />
          <path
             id="path27"
             opacity=".1"
             d="m7.1249883 3.3749817.0000109.7460652v.00195c4.3333338-.00999 9.1667018-.015401 13.5000338-.025391l-.000011-.7226242z" />
        </g>
      </g>
      <path
         id="path33"
         opacity=".35"
         fill="#fff"
         d="m21.000023 12.125812c0-.269116-.403658-.499597-.87498-.499597h-12.5000751c-.4713219 0-.8749806.230481-.8749806.499597v.624193c0 .269116.4036587.499597.8749806.499597.00196.0041 12.5000751 0 12.5000751 0 .471322 0 .87498-.230481.87498-.499597z" />
      <path
         id="path35"
         style="fill:#fcaf3e;stroke:#ce5c00;stroke-width:.750002;stroke-linecap:round;stroke-linejoin:round;stroke-opacity:.666667"
         d="m7.1249883 11.124951v.735356.514697c4.3333337-.01 9.1667007-.01539 13.5000337-.02539v-1.474615h-13.5000337z" />
      <circle
         id="circle37"
         r="1.5"
         opacity=".35"
         fill="#fff"
         cy="5.5"
         cx="3.5" />
      <circle
         id="circle39"
         r="1.5"
         fill="url(#e)"
         cy="4.499981"
         cx="3.5" />
      <circle
         id="circle41"
         r="1.5"
         opacity=".35"
         fill="#fff"
         cy="13.5"
         cx="3.5" />
      <circle
         id="circle43"
         stroke-width=".750002"
         stroke-opacity=".668605"
         stroke="#ce5c00"
         r="1.5"
         fill="#fcaf3e"
         cy="12.374999"
         cx="3.5" />
      <path
         id="path45"
         opacity=".35"
         fill="#fff"
         d="m17 16.499555c0-.269086-.288334-.499541-.625-.499541h-8.7499999c-.336666 0-.625.230455-.625.499541v.999082c0 .269086.288334.499541.625.499541.0014.0041 8.7499999 0 8.7499999 0 .336666 0 .625-.230455.625-.499541z" />
      <path
         id="path47"
         style="fill:#fcaf3e;stroke:#ce5c00;stroke-width:.750002;stroke-linecap:round;stroke-linejoin:round;stroke-opacity:.666667"
         d="m7.1249883 15.625014.0000227.760744v.514647c3.000001-.01 6.000001-.0154 9-.02539l-.000023-1.500003h-8.9999997z" />
    </g>
    <g
       id="g933">
      <path
         inkscape:connector-curvature="0"
         style="fill:url(#h)"
         d="m 30.56,30.032 a 6.293,2.002 0 1 1 -12.583999,0 6.293,2.002 0 1 1 12.584999,0 z"
         id="path96" />
      <path
         inkscape:connector-curvature="0"
         style="opacity:0.98999999;fill:url(#i)"
         d="m 24.554001,14.586 v 2.3 a 7.15,7.15 0 0 0 -0.286,-0.012 7.15,7.15 0 0 0 -7.15,7.15 7.15,7.15 0 0 0 7.15,7.152 7.15,7.15 0 0 0 7.139999,-6.865 h -3.436 a 3.718,3.718 0 0 1 -3.703999,3.433 3.718,3.718 0 0 1 -3.718,-3.718 3.718,3.718 0 0 1 3.718,-3.718 3.718,3.718 0 0 1 0.286,0.014 v 2.275 L 30.847,18.592 Z"
         id="path98" />
      <g
         style="fill:none"
         id="g108">
        <path
           style="opacity:0.5;stroke:url(#j)"
           inkscape:connector-curvature="0"
           d="m 25.125,17.782 v -2.17 l 4.65,2.986 -4.65,2.94 v -2.023"
           id="path100" />
        <path
           style="opacity:0.5;stroke:url(#k)"
           inkscape:connector-curvature="0"
           d="m 30.744,25.203 a 6.582,6.58 0 0 1 -7.442,5.33 6.582,6.58 0 0 1 -5.57,-7.262 6.582,6.58 0 0 1 7.078,-5.803"
           id="path102" />
        <path
           style="opacity:0.5;stroke:url(#l)"
           inkscape:connector-curvature="0"
           d="M 31.063,24.885 28.45,24.881 c -0.325,2.24 -2.77,3.78 -4.975,3.362 -2.323,-0.44 -3.854,-2.668 -3.428,-4.99 0.413,-2.255 2.527,-3.777 4.785,-3.483"
           id="path104" />
        <path
           style="opacity:0.5;stroke:#002e99;stroke-linecap:round;stroke-linejoin:round"
           inkscape:connector-curvature="0"
           d="m 24.554,14.586 v 2.3 a 7.15,7.15 0 0 0 -0.286,-0.012 7.15,7.15 0 0 0 -7.15,7.15 7.15,7.15 0 0 0 7.15,7.152 7.15,7.15 0 0 0 7.14,-6.865 h -3.436 a 3.718,3.718 0 0 1 -3.704,3.433 3.718,3.718 0 0 1 -3.718,-3.718 3.718,3.718 0 0 1 3.718,-3.718 3.718,3.718 0 0 1 0.286,0.014 v 2.275 l 6.293,-4.005 z"
           id="path106" />
      </g>
    </g>
  </g>
</svg>
