<svg xmlns="http://www.w3.org/2000/svg" xmlns:xlink="http://www.w3.org/1999/xlink" height="32" width="32"><defs><linearGradient gradientTransform="translate(7.45 -6.186) scale(1.33333)" xlink:href="#a" id="i" x1="6.967" y1="10.384" x2="6.817" y2="21.386" gradientUnits="userSpaceOnUse"/><linearGradient id="a"><stop offset="0" stop-color="#fcaf3e"/><stop offset=".262" stop-color="#fcaf3e"/><stop offset=".705" stop-color="#fb9c0f"/><stop offset="1" stop-color="#fb9909"/></linearGradient></defs><linearGradient id="b"><stop offset="0"/><stop offset="1" stop-opacity="0"/></linearGradient><linearGradient id="g" gradientTransform="matrix(.56757 0 0 .72973 2.378 -2.514)" gradientUnits="userSpaceOnUse" x1="24" x2="24" y1="5.564" y2="43"><stop offset="0" stop-color="#fff"/><stop offset=".036" stop-color="#fff" stop-opacity=".235"/><stop offset=".951" stop-color="#fff" stop-opacity=".157"/><stop offset="1" stop-color="#fff" stop-opacity=".392"/></linearGradient><linearGradient id="f" gradientTransform="matrix(.62857 0 0 .6084 .914 -.535)" gradientUnits="userSpaceOnUse" x1="25.132" x2="25.132" y1=".985" y2="47.013"><stop offset="0" stop-color="#f4f4f4"/><stop offset="1" stop-color="#dbdbdb"/></linearGradient><radialGradient id="e" cx="605.714" cy="486.648" gradientTransform="matrix(.01566 0 0 .00824 17.61 25.98)" gradientUnits="userSpaceOnUse" r="117.143" xlink:href="#b"/><radialGradient id="d" cx="605.714" cy="486.648" gradientTransform="matrix(-.01566 0 0 .00824 14.39 25.98)" gradientUnits="userSpaceOnUse" r="117.143" xlink:href="#b"/><linearGradient id="c" gradientTransform="matrix(.04577 0 0 .00824 -.542 25.98)" gradientUnits="userSpaceOnUse" x1="302.857" x2="302.857" y1="366.648" y2="609.505"><stop offset="0" stop-opacity="0"/><stop offset=".5"/><stop offset="1" stop-opacity="0"/></linearGradient><linearGradient id="h" gradientTransform="matrix(.53064 0 0 .5897 39.27 -1.792)" gradientUnits="userSpaceOnUse" x1="-51.786" x2="-51.786" y1="50.786" y2="2.906"><stop offset="0" stop-opacity=".318"/><stop offset="1" stop-opacity=".24"/></linearGradient><path d="M4.95 29h22.1v2H4.95z" fill="url(#c)" opacity=".15"/><path d="M4.95 29v2c-.807.004-1.95-.448-1.95-1s.9-1 1.95-1z" fill="url(#d)" opacity=".15"/><path d="M27.05 29v2c.807.004 1.95-.448 1.95-1s-.9-1-1.95-1z" fill="url(#e)" opacity=".15"/><path d="M5 1l22 .002V29H5V1z" fill="url(#f)"/><g fill="none" stroke-linejoin="round"><path d="M26.5 28.5h-21v-27h21z" stroke="url(#g)" stroke-linecap="round"/><path d="M4.5.5l23 .002V29.5h-23V.5z" stroke="url(#h)"/></g><path d="M19.24 22.545l-.627-1.67h-.085q-.818 1.066-1.69 1.483-.86.407-2.25.407-1.71 0-2.698-1.01-.978-1.013-.978-2.882 0-1.956 1.318-2.88 1.327-.934 3.993-1.033l2.06-.066v-.54q0-1.868-1.847-1.868-1.424 0-3.346.89l-1.073-2.264q2.05-1.11 4.546-1.11 2.39 0 3.664 1.077 1.275 1.077 1.275 3.275v8.19zm-.956-5.694l-1.254.045q-1.412.044-2.103.527-.69.484-.69 1.473 0 1.42 1.572 1.42 1.125 0 1.794-.672.68-.67.68-1.78z" fill="url(#i)" stroke="#cc3b02" stroke-linejoin="round" stroke-opacity=".49"/></svg>