<svg height="32" viewBox="0 0 32 32" width="32" xmlns="http://www.w3.org/2000/svg" xmlns:xlink="http://www.w3.org/1999/xlink"><linearGradient id="a" gradientTransform="translate(-15.70417 8.40678)" gradientUnits="userSpaceOnUse" x1="11" x2="12" y1="-4" y2="21"><stop offset="0" stop-color="#737373"/><stop offset=".262" stop-color="#636363"/><stop offset=".705" stop-color="#4b4b4b"/><stop offset="1" stop-color="#3f3f3f"/></linearGradient><linearGradient id="b" gradientTransform="matrix(.98658696 0 0 1.0135954 .449113 .341369)" gradientUnits="userSpaceOnUse" x1="20.271908" x2="20.271908" xlink:href="#a" y1="5.919522" y2="22.6915"/><linearGradient id="c" gradientTransform="matrix(1.0076913 0 0 .99236738 .375001 0)" gradientUnits="userSpaceOnUse" x1="6.946572" x2="7.531537" xlink:href="#a" y1="-3.023074" y2="13.679376"/><linearGradient id="d" gradientTransform="matrix(1.0076913 0 0 .99236738 7.125018 0)" gradientUnits="userSpaceOnUse" x1="6.946572" x2="7.531537" xlink:href="#a" y1="-3.023074" y2="13.679376"/><g stroke="#000" stroke-linejoin="round" stroke-opacity=".490196" stroke-width=".750002" transform="matrix(1.33333 0 0 1.33333 -.000205 -.677455)"><path d="m7.1251719 13.633125h-5.2500131v-1.342263l1.5000038-.532742-.0000001-7.5000183-1.5000037-.5327421v-1.3422627h5.2500131v1.3422627l-1.5000038.5327421.0000001 7.5000183 1.5000037.532742z" fill="url(#c)"/><path d="m21.677588 16.633133-.515386 2.250005h1.713009v1.875005h-2.002947l-.45366 2.541477h-1.537175l.461093-2.541477h-1.837832l-.446225 2.541477h-1.470267l.431356-2.541477h-2.272473v-1.875005h2.562411l.515386-2.250005h-2.071579v-1.500004h2.346648l.525251-3.000008h1.500004l-.52525 3.000008h1.867569l.532686-3.000008h1.500003l-.532685 3.000008h1.785796v1.500004zm-3.88296 2.250005h1.852701l.515386-2.250005h-1.852701z" fill="url(#b)" stroke-linecap="round"/><path d="m13.875189 13.633125h-5.2500133v-1.342263l1.5000033-.532742v-7.5000183l-1.5000033-.5327421v-1.3422627h5.2500133v1.3422627l-1.500004.5327421v7.5000183l1.500004.532742z" fill="url(#d)"/></g></svg>