<?xml version="1.0" encoding="UTF-8" standalone="no"?>
<svg
   xmlns:dc="http://purl.org/dc/elements/1.1/"
   xmlns:cc="http://creativecommons.org/ns#"
   xmlns:rdf="http://www.w3.org/1999/02/22-rdf-syntax-ns#"
   xmlns:svg="http://www.w3.org/2000/svg"
   xmlns="http://www.w3.org/2000/svg"
   xmlns:sodipodi="http://sodipodi.sourceforge.net/DTD/sodipodi-0.dtd"
   xmlns:inkscape="http://www.inkscape.org/namespaces/inkscape"
   height="32"
   viewBox="0 0 8.4666665 8.4666669"
   width="32"
   version="1.1"
   id="svg50"
   sodipodi:docname="wrapthrough.svg"
   inkscape:version="0.92.4 (unknown)">
  <metadata
     id="metadata56">
    <rdf:RDF>
      <cc:Work
         rdf:about="">
        <dc:format>image/svg+xml</dc:format>
        <dc:type
           rdf:resource="http://purl.org/dc/dcmitype/StillImage" />
      </cc:Work>
    </rdf:RDF>
  </metadata>
  <defs
     id="defs54" />
  <sodipodi:namedview
     pagecolor="#ffffff"
     bordercolor="#666666"
     borderopacity="1"
     objecttolerance="10"
     gridtolerance="10"
     guidetolerance="10"
     inkscape:pageopacity="0"
     inkscape:pageshadow="2"
     inkscape:window-width="1366"
     inkscape:window-height="706"
     id="namedview52"
     showgrid="false"
     inkscape:zoom="14.75"
     inkscape:cx="13.132697"
     inkscape:cy="20.552777"
     inkscape:window-x="0"
     inkscape:window-y="0"
     inkscape:window-maximized="1"
     inkscape:current-layer="svg50" />
  <linearGradient
     id="a"
     gradientTransform="matrix(.49388712 0 0 .52916666 .148696 2.512748)"
     gradientUnits="userSpaceOnUse"
     x1="8.270387"
     x2="8.270387"
     y1="-.2485"
     y2="6.7515">
    <stop
       offset="0"
       stop-color="#cd9ef7"
       id="stop2" />
    <stop
       offset="1"
       stop-color="#a56de2"
       id="stop4" />
  </linearGradient>
  <linearGradient
     id="b"
     gradientUnits="userSpaceOnUse"
     x1="3.96875"
     x2="7.9375"
     y1="290.12082"
     y2="290.12082">
    <stop
       offset="0"
       stop-color="#737373"
       id="stop7" />
    <stop
       offset=".26238"
       stop-color="#636363"
       id="stop9" />
    <stop
       offset=".704952"
       stop-color="#4b4b4b"
       id="stop11" />
    <stop
       offset="1"
       stop-color="#3f3f3f"
       id="stop13" />
  </linearGradient>
  <g
     transform="matrix(1.8666667 0 0 1 -6.879167 -285.88748)"
     id="g24">
    <path
       d="m7.9375001 290.12081h-3.96875l-.0000001.52917h3.9687501z"
       fill="#fff"
       opacity=".35"
       stroke-width=".308188"
       id="path20" />
    <path
       d="m3.96875 289.85623h3.9687501v.52917h-3.9687501z"
       fill="url(#b)"
       id="path22" />
  </g>
  <g
     transform="matrix(1.8666667 0 0 1 -6.879167 -284.564563)"
     id="g30">
    <path
       d="m7.9375002 290.1213h-3.9687501v.52868h3.9687501z"
       fill="#fff"
       opacity=".35"
       stroke-width=".308188"
       id="path26" />
    <path
       d="m3.96875 289.85623h3.9687501v.52917h-3.9687501z"
       fill="url(#b)"
       id="path28" />
  </g>
  <g
     transform="matrix(1.8666667 0 0 1 -6.879167 -288.53332)"
     id="g36">
    <path
       d="m7.9375 290.25329c0-.0712-.2070112-.13217-.4487234-.13217h-2.9908599c-.2417118 0-.5291667.061-.5291667.13217v.26434c0 .0712.2874549.13217.5291667.13217.00101.001 2.9908599 0 2.9908599 0 .2417122 0 .4487234-.061.4487234-.13217z"
       fill="#fff"
       opacity=".35"
       stroke-width=".308188"
       id="path32" />
    <path
       d="m3.96875 289.85623h3.96875v.52917h-3.96875z"
       fill="url(#b)"
       id="path34" />
  </g>
  <g
     transform="matrix(1.8666667 0 0 1 -6.879167 -287.2104)"
     id="g42">
    <path
       d="m7.9375001 290.25329h-3.9687501v.39669h3.9687501z"
       fill="#fff"
       opacity=".35"
       stroke-width=".308188"
       id="path38" />
    <path
       d="m3.96875 289.85623h3.9687501v.52917h-3.9687501z"
       fill="url(#b)"
       id="path40" />
  </g>
  <g
     transform="matrix(1.8666667 0 0 1 -6.879167 -283.241647)"
     id="g48">
    <path
       d="m7.9375 290.25329c0-.0712-.2070112-.13217-.4487234-.13217h-2.9908599c-.2417118 0-.5291667.061-.5291667.13217v.26434c0 .0712.2874549.13217.5291667.13217.00101.001 2.9908599 0 2.9908599 0 .2417122 0 .4487234-.061.4487234-.13217z"
       fill="#fff"
       opacity=".35"
       stroke-width=".308188"
       id="path44" />
    <path
       d="m3.96875 289.85623h3.96875v.52917h-3.96875z"
       fill="url(#b)"
       id="path46" />
  </g>
  <path
     d="m2.2485195 2.5146529 3.9664588-.00121.00277 3.4403141-3.96646.00121z"
     style="stroke:#7239b3;stroke-width:.264583;stroke-linecap:round;stroke-linejoin:round;stroke-opacity:.75;fill:url(#a)"
     id="path16" />
  <path
     d="m2.3808112 2.7813529 3.7018755-.00121"
     fill="none"
     opacity=".3"
     stroke="#fff"
     stroke-width=".266171"
     id="path18" />
</svg>
