<svg xmlns="http://www.w3.org/2000/svg" xmlns:xlink="http://www.w3.org/1999/xlink" width="32" height="32" viewBox="0 0 8.4666665 8.4666669"><defs><linearGradient id="a"><stop offset="0" stop-color="#737373"/><stop offset=".262" stop-color="#636363"/><stop offset=".705" stop-color="#4b4b4b"/><stop offset="1" stop-color="#3f3f3f"/></linearGradient><linearGradient xlink:href="#a" id="g" x1="3.969" y1="290.121" x2="7.938" y2="290.121" gradientUnits="userSpaceOnUse"/><linearGradient xlink:href="#a" id="h" gradientUnits="userSpaceOnUse" x1="3.969" y1="290.121" x2="7.938" y2="290.121"/><linearGradient xlink:href="#a" id="e" gradientUnits="userSpaceOnUse" x1="3.969" y1="290.121" x2="7.938" y2="290.121" gradientTransform="matrix(.86667 0 0 1 -2.91 -285.887)"/><linearGradient xlink:href="#a" id="f" gradientUnits="userSpaceOnUse" x1="3.969" y1="290.121" x2="7.938" y2="290.121" gradientTransform="matrix(.86676 0 0 1 -2.91 -284.565)"/><linearGradient x1="38.941" y1="15.991" x2="20.576" y2="15.991" id="k" xlink:href="#b" gradientUnits="userSpaceOnUse" gradientTransform="matrix(0 -.1047 .11324 0 1.694 8.177)"/><linearGradient id="b"><stop offset="0" stop-color="#fff"/><stop offset=".512" stop-color="#fff" stop-opacity=".235"/><stop offset=".585" stop-color="#fff" stop-opacity=".157"/><stop offset="1" stop-color="#fff" stop-opacity=".392"/></linearGradient><linearGradient gradientTransform="matrix(.10378 0 0 -.09674 1.277 6.658)" gradientUnits="userSpaceOnUse" xlink:href="#c" id="j" y2="-1.184" x2="27.974" y1="36.128" x1="27.974"/><linearGradient id="c"><stop offset="0" stop-color="#cdf87e"/><stop offset=".262" stop-color="#a2e34f"/><stop offset=".661" stop-color="#68b723"/><stop offset="1" stop-color="#1d7e0d"/></linearGradient><radialGradient gradientTransform="matrix(-.10147 0 0 -.06765 5.894 8.304)" gradientUnits="userSpaceOnUse" xlink:href="#d" id="i" fy="36.421" fx="24.837" r="15.645" cy="36.421" cx="24.837"/><linearGradient id="d"><stop offset="0"/><stop offset="1" stop-opacity="0"/></linearGradient></defs><path d="M7.938 4.366c0-.07-.387-.132-.838-.132H1.517c-.45 0-.988.06-.988.132v.264c0 .07.534.132.985.132H7.1c.45 0 .838-.06.838-.132z" opacity=".35" fill="#fff"/><path d="M.53 3.97h3.44v.53H.53z" fill="url(#e)"/><path d="M5.82 5.69c0-.072-.275-.133-.597-.133H1.235c-.323 0-.706.06-.706.132v.26c0 .07.38.133.703.133H5.22c.323 0 .6-.06.6-.132z" opacity=".35" fill="#fff"/><path d="M.53 5.29h3.44v.53H.53z" fill="url(#f)"/><path d="M7.938 1.72c0-.07-.387-.132-.838-.132H1.517c-.45 0-.988.06-.988.132v.264c0 .072.534.132.985.132H7.1c.45 0 .838-.06.838-.132z" opacity=".35" fill="#fff"/><path d="M3.97 289.856h3.967v.53H3.97z" fill="url(#g)" transform="matrix(1.86667 0 0 1 -6.88 -288.533)"/><path d="M5.82 3.043c0-.07-.275-.132-.597-.132H1.235c-.323 0-.706.064-.706.135v.264c0 .07.38.13.703.13H5.22c.323 0 .6-.06.6-.132z" opacity=".35" fill="#fff"/><path d="M3.97 289.856h3.967v.53H3.97z" fill="url(#h)" transform="matrix(1.33333 0 0 1 -4.763 -287.21)"/><path d="M1.786 5.84a1.587 1.058 0 1 1 3.175 0 1.587 1.058 0 0 1-3.174 0z" overflow="visible" opacity=".141" fill="url(#i)" fill-rule="evenodd" transform="matrix(-1 0 0 1 9.986 0)"/><path d="M2.866 2.915c-1.318.89-.543 2.527.926 2.514v.792L5.644 4.9 3.792 3.577v.787c-.947.037-1.47-.827-.794-1.45z" display="block" overflow="visible" fill="url(#j)" transform="matrix(-1 0 0 1 9.986 0)"/><path style="isolation:auto;mix-blend-mode:normal" d="M2.613 3.376c-.465.545-.06 1.967 1.427 1.772l.017.582 1.156-.83-1.156-.81v.544c-1.632.087-1.583-1.038-1.444-1.258z" color="#000" display="block" overflow="visible" opacity=".8" solid-color="#000000" fill="none" stroke="url(#k)" stroke-width=".255" stroke-miterlimit="7" transform="matrix(-1 0 0 1 9.986 0)"/><path style="isolation:auto;mix-blend-mode:normal" d="M7.12 2.915c1.318.89.543 2.527-.926 2.514v.792L4.342 4.9l1.852-1.323v.787c.947.037 1.47-.827.794-1.45z" color="#000" overflow="visible" opacity=".5" solid-color="#000000" fill="none" stroke="#0f5a00" stroke-width=".265" stroke-linecap="round" stroke-linejoin="round"/></svg>