<svg xmlns="http://www.w3.org/2000/svg" xmlns:xlink="http://www.w3.org/1999/xlink" height="32" width="32"><defs><linearGradient id="a"><stop offset="0" stop-color="#fff"/><stop offset=".036" stop-color="#fff" stop-opacity=".235"/><stop offset=".951" stop-color="#fff" stop-opacity=".157"/><stop offset="1" stop-color="#fff" stop-opacity=".392"/></linearGradient><linearGradient id="b"><stop offset="0" stop-color="#f4f4f4"/><stop offset="1" stop-color="#dbdbdb"/></linearGradient><linearGradient id="c"><stop offset="0"/><stop offset="1" stop-opacity="0"/></linearGradient><linearGradient id="d"><stop offset="0" stop-opacity="0"/><stop offset=".5"/><stop offset="1" stop-opacity="0"/></linearGradient><linearGradient gradientTransform="matrix(.56757 0 0 .72973 2.378 -2.514)" gradientUnits="userSpaceOnUse" xlink:href="#a" id="o" y2="43" x2="24" y1="5.564" x1="24"/><linearGradient gradientTransform="matrix(.62857 0 0 .6084 .914 -.535)" gradientUnits="userSpaceOnUse" xlink:href="#b" id="n" y2="47.013" x2="25.132" y1=".985" x1="25.132"/><radialGradient gradientTransform="matrix(.01566 0 0 .00824 17.61 25.98)" gradientUnits="userSpaceOnUse" xlink:href="#c" id="m" fy="486.648" fx="605.714" r="117.143" cy="486.648" cx="605.714"/><radialGradient gradientTransform="matrix(-.01566 0 0 .00824 14.39 25.98)" gradientUnits="userSpaceOnUse" xlink:href="#c" id="l" fy="486.648" fx="605.714" r="117.143" cy="486.648" cx="605.714"/><linearGradient gradientTransform="matrix(.04577 0 0 .00824 -.542 25.98)" gradientUnits="userSpaceOnUse" xlink:href="#d" id="k" y2="609.505" x2="302.857" y1="366.648" x1="302.857"/><linearGradient id="e"><stop offset="0" stop-opacity=".318"/><stop offset="1" stop-opacity=".24"/></linearGradient><linearGradient y2="2.906" x2="-51.786" y1="50.786" x1="-51.786" gradientTransform="matrix(.53064 0 0 .5897 39.27 -1.792)" gradientUnits="userSpaceOnUse" id="p" xlink:href="#e"/><linearGradient id="f"><stop offset="0" stop-color="#cdf87e"/><stop offset=".262" stop-color="#a2e34f"/><stop offset=".661" stop-color="#68b723"/><stop offset="1" stop-color="#1d7e0d"/></linearGradient><linearGradient id="g"><stop offset="0" stop-color="#fff"/><stop offset="0" stop-color="#fff" stop-opacity=".235"/><stop offset="1" stop-color="#fff" stop-opacity=".157"/><stop offset="1" stop-color="#fff" stop-opacity=".392"/></linearGradient><linearGradient id="h"><stop offset="0" stop-color="#fff"/><stop offset="0" stop-color="#fff" stop-opacity=".235"/><stop offset="1" stop-color="#fff" stop-opacity=".157"/><stop offset="1" stop-color="#fff" stop-opacity=".392"/></linearGradient><radialGradient cx="11.25" cy="19.031" r="8.063" fx="11.25" fy="19.031" id="q" xlink:href="#c" gradientUnits="userSpaceOnUse" gradientTransform="matrix(1.9845 0 0 .54877 -6.326 17.445)"/><linearGradient x1="25" y1="11.923" x2="25" y2="40.322" id="r" xlink:href="#i" gradientUnits="userSpaceOnUse" gradientTransform="matrix(.8179 0 0 .81725 -3.387 -3.323)"/><linearGradient id="i"><stop stop-color="#90dbec" offset="0"/><stop stop-color="#55c1ec" offset=".262"/><stop stop-color="#3689e6" offset=".705"/><stop stop-color="#2b63a0" offset="1"/></linearGradient><linearGradient x1="58.749" y1="2.048" x2="105.324" y2="58.048" id="s" xlink:href="#j" gradientUnits="userSpaceOnUse" gradientTransform="matrix(.89764 0 0 .89244 -54.77 -8.33)"/><linearGradient id="j"><stop stop-color="#fff" offset="0"/><stop stop-opacity="0" stop-color="#fff" offset="1"/></linearGradient></defs><path opacity=".15" fill="url(#k)" overflow="visible" d="M4.95 29h22.1v2H4.95z"/><path d="M4.95 29v2c-.807.004-1.95-.448-1.95-1s.9-1 1.95-1z" opacity=".15" fill="url(#l)" overflow="visible"/><path d="M27.05 29v2c.807.004 1.95-.448 1.95-1s-.9-1-1.95-1z" opacity=".15" fill="url(#m)" overflow="visible"/><path d="M5 1l22 .002V29H5V1z" fill="url(#n)"/><path d="M26.5 28.5h-21v-27h21z" fill="none" stroke="url(#o)" stroke-linecap="round" stroke-linejoin="round"/><path d="M4.5.5l23 .002V29.5h-23V.5z" fill="none" stroke="url(#p)" stroke-linejoin="round"/><path d="M32 27.89c0 5.9-32 5.9-32 0s32-5.9 32 0z" overflow="visible" opacity=".163" fill="url(#q)"/><path d="M31.374 17.538l-9.844 11.42-9.794-11.42h4.982c1.675-4.484-1.764-6.963-5.75-6.963-2.833 0-6.677 1.995-7.975 5.866-.676 2.014-1.865 1.132-1.82-.618.18-6.752 5.19-12.152 12.67-12.152 7.478 0 13.033 4.99 12.614 13.868z" overflow="visible" fill="url(#r)" stroke="#00537d" stroke-linejoin="round" stroke-opacity=".498"/><path d="M29.132 18.62l-7.52 8.678-7.476-8.677h3.192c2.8-6.227-1.308-9.07-6.855-9.185C7.556 9.375 4 12 2 15.812c1-6 4.424-11.126 11.256-11.14 6.903-.012 13.176 3.9 12.156 13.95z" overflow="visible" opacity=".354" fill="none" stroke="url(#s)"/></svg>