<?xml version="1.0" encoding="UTF-8" standalone="no"?>
<svg
   xmlns:dc="http://purl.org/dc/elements/1.1/"
   xmlns:cc="http://creativecommons.org/ns#"
   xmlns:rdf="http://www.w3.org/1999/02/22-rdf-syntax-ns#"
   xmlns:svg="http://www.w3.org/2000/svg"
   xmlns="http://www.w3.org/2000/svg"
   xmlns:xlink="http://www.w3.org/1999/xlink"
   xmlns:sodipodi="http://sodipodi.sourceforge.net/DTD/sodipodi-0.dtd"
   xmlns:inkscape="http://www.inkscape.org/namespaces/inkscape"
   height="32"
   width="32"
   version="1.1"
   id="svg43"
   sodipodi:docname="underline.svg"
   inkscape:version="0.92.4 (unknown)"
   inkscape:export-filename="/home/rizmut/Dokumen/Rizmut/Github/libreoffice-style-elementary/images_elementary/cmd/32/nl/underline.png"
   inkscape:export-xdpi="96"
   inkscape:export-ydpi="96">
  <metadata
     id="metadata49">
    <rdf:RDF>
      <cc:Work
         rdf:about="">
        <dc:format>image/svg+xml</dc:format>
        <dc:type
           rdf:resource="http://purl.org/dc/dcmitype/StillImage" />
        <dc:title />
      </cc:Work>
    </rdf:RDF>
  </metadata>
  <defs
     id="defs47">
    <radialGradient
       inkscape:collect="always"
       xlink:href="#a"
       id="radialGradient844"
       cx="10.903473"
       cy="14.502974"
       fx="10.903473"
       fy="14.502974"
       r="6.2253389"
       gradientTransform="matrix(-1.1900889,0.07845656,-0.1079118,-2.3049599,25.087591,44.455556)"
       gradientUnits="userSpaceOnUse" />
  </defs>
  <sodipodi:namedview
     pagecolor="#ffffff"
     bordercolor="#666666"
     borderopacity="1"
     objecttolerance="10"
     gridtolerance="10"
     guidetolerance="10"
     inkscape:pageopacity="0"
     inkscape:pageshadow="2"
     inkscape:window-width="1366"
     inkscape:window-height="714"
     id="namedview45"
     showgrid="true"
     inkscape:zoom="11.313708"
     inkscape:cx="11.904329"
     inkscape:cy="12.085425"
     inkscape:window-x="0"
     inkscape:window-y="28"
     inkscape:window-maximized="1"
     inkscape:current-layer="g41">
    <inkscape:grid
       type="xygrid"
       id="grid832" />
  </sodipodi:namedview>
  <linearGradient
     id="a">
    <stop
       offset="0"
       stop-color="#555"
       id="stop2" />
    <stop
       offset="1"
       stop-color="#666"
       id="stop4" />
  </linearGradient>
  <linearGradient
     id="b"
     gradientUnits="userSpaceOnUse"
     x1="12.761326"
     x2="12.761326"
     xlink:href="#a"
     y1="33.638302"
     y2="11.638302" />
  <linearGradient
     id="c">
    <stop
       offset="0"
       id="stop8" />
    <stop
       offset="1"
       stop-opacity="0"
       id="stop10" />
  </linearGradient>
  <radialGradient
     id="d"
     cx="40"
     cy="43.5"
     gradientTransform="matrix(.87733142 0 0 .75 -17.142285 -3.625)"
     gradientUnits="userSpaceOnUse"
     r="2"
     xlink:href="#c" />
  <radialGradient
     id="e"
     cx="9"
     cy="43.5"
     gradientTransform="matrix(.87733142 0 0 .75 -1.350319 -3.625)"
     gradientUnits="userSpaceOnUse"
     r="2"
     xlink:href="#c" />
  <linearGradient
     id="f"
     gradientTransform="matrix(.87733142 0 0 1 -5.736976 -14.5)"
     gradientUnits="userSpaceOnUse"
     x1="25"
     x2="25"
     y1="45"
     y2="42">
    <stop
       offset="0"
       stop-opacity="0"
       id="stop15" />
    <stop
       offset=".5"
       id="stop17" />
    <stop
       offset="1"
       stop-opacity="0"
       id="stop19" />
  </linearGradient>
  <linearGradient
     id="g"
     gradientTransform="matrix(.98244026 0 0 1.0032268 .121605 8.047357)"
     gradientUnits="userSpaceOnUse"
     x1="12.02772"
     x2="11.427851"
     xlink:href="#a"
     y1="25.544678"
     y2="4.392136" />
  <g
     transform="matrix(1.33333 0 0 1.33333 .163341 -11.350962)"
     id="g41">
    <g
       aria-label="O"
       transform="scale(1.0774428,0.92812349)"
       style="font-style:normal;font-weight:normal;font-size:22.03717422px;line-height:1.25;font-family:sans-serif;letter-spacing:0px;word-spacing:0px;fill:url(#radialGradient844);fill-opacity:1;stroke:#000000;stroke-width:0.75000191;stroke-miterlimit:4;stroke-dasharray:none;stroke-opacity:0.6"
       id="text836">
      <path
         d="m 17.845863,21.709853 q 0,1.818497 -0.441174,3.314184 -0.430413,1.495687 -1.29124,2.560961 -0.860827,1.065273 -2.141308,1.646332 -1.26972,0.581058 -2.937572,0.581058 -1.7539355,0 -3.0451762,-0.581058 Q 6.7089125,28.650271 5.8588457,27.584998 5.0195393,26.519724 4.6106464,25.024037 4.2017535,23.51759 4.2017535,21.688332 q 0,-1.829257 0.4088929,-3.314184 0.4088929,-1.495687 1.2589597,-2.550201 0.8500667,-1.054513 2.1413074,-1.624811 1.2912407,-0.581058 3.0451755,-0.581058 1.667853,0 2.926813,0.581058 1.26972,0.570298 2.130547,1.635572 0.860827,1.054513 1.29124,2.5502 0.441174,1.484927 0.441174,3.324945 z m -11.5243227,0 q 0,1.474166 0.2797688,2.657804 0.2797688,1.172877 0.8500668,2.001423 0.5810583,0.817785 1.4634061,1.258959 0.8931081,0.430414 2.119787,0.430414 1.226678,0 2.109026,-0.430414 0.893108,-0.441174 1.463406,-1.258959 0.581059,-0.828546 0.850067,-2.001423 0.269009,-1.183638 0.269009,-2.657804 0,-1.484927 -0.269009,-2.657804 -0.269008,-1.172877 -0.839306,-1.979902 -0.570298,-0.817786 -1.452646,-1.2482 -0.882348,-0.441173 -2.109027,-0.441173 -1.2266782,0 -2.1197863,0.441173 -0.8931082,0.430414 -1.4741665,1.2482 -0.5810583,0.807025 -0.8608271,1.979902 -0.2797688,1.172877 -0.2797688,2.657804 z"
         style="font-style:normal;font-variant:normal;font-weight:normal;font-stretch:normal;font-family:'Droid Sans';-inkscape-font-specification:'Droid Sans';fill:url(#radialGradient844);fill-opacity:1;stroke:#000000;stroke-width:0.75000191;stroke-miterlimit:4;stroke-dasharray:none;stroke-opacity:0.6"
         id="path837" />
    </g>
    <path
       d="m1.752716 29.885566.017578 2.234376h19.504467l-.01758-2.234376z"
       fill="url(#b)"
       id="path25" />
    <path
       d="m1.752716 29.885566.00414 2.252736h19.50447l-.0041-2.252736z"
       fill="none"
       opacity=".61"
       stroke="#000"
       stroke-width=".750002"
       id="path27" />
    <path
       d="m2.1302176 30.242557-.00272.769013h18.7500494l-.01548-.759479z"
       fill="#fff"
       opacity=".2"
       id="path29" />
    <path
       style="font-style:normal;font-weight:normal;font-size:22.03717422px;line-height:1.25;font-family:sans-serif;letter-spacing:0px;word-spacing:0px;fill:#fffbfe;fill-opacity:1;stroke:none;stroke-width:1;stroke-miterlimit:4;stroke-dasharray:none;stroke-opacity:0.6;opacity:0.2"
       d="M 16.046875 5.5019531 C 14.367088 5.5019531 12.908528 5.741332 11.671875 6.2207031 C 10.435222 6.691197 9.4098329 7.3604989 8.5957031 8.2304688 C 7.7815733 9.1004386 7.1787161 10.152782 6.7871094 11.386719 C 6.3955026 12.611778 6.1992188 13.97915 6.1992188 15.488281 C 6.1992188 15.743798 6.2133831 15.990399 6.2246094 16.238281 C 6.279765 15.025128 6.4619242 13.903992 6.7871094 12.886719 C 7.1787161 11.652782 7.7815733 10.600439 8.5957031 9.7304688 C 9.4098329 8.8604989 10.435222 8.191197 11.671875 7.7207031 C 12.908528 7.241332 14.367088 7.0019531 16.046875 7.0019531 C 17.644218 7.0019531 19.046217 7.241332 20.251953 7.7207031 C 21.467995 8.191197 22.488065 8.8652936 23.3125 9.7441406 C 24.136935 10.61411 24.753798 11.666454 25.166016 12.900391 C 25.516878 13.917677 25.71393 15.042426 25.773438 16.261719 C 25.785596 16.014888 25.800781 15.770119 25.800781 15.515625 C 25.800781 13.997616 25.588539 12.62545 25.166016 11.400391 C 24.753798 10.166454 24.136935 9.1141104 23.3125 8.2441406 C 22.488065 7.3652936 21.467995 6.691197 20.251953 6.2207031 C 19.046217 5.741332 17.644218 5.5019531 16.046875 5.5019531 z M 9.265625 16.263672 C 9.2537915 16.509753 9.2441406 16.758174 9.2441406 17.015625 C 9.2441406 18.231807 9.3785429 19.328191 9.6464844 20.304688 C 9.9144258 21.272307 10.320999 22.097702 10.867188 22.78125 C 11.423681 23.45592 12.125657 23.973924 12.970703 24.337891 C 13.826055 24.69298 14.840805 24.871094 16.015625 24.871094 C 17.190445 24.871094 18.199876 24.69298 19.044922 24.337891 C 19.900273 23.973924 20.602249 23.45592 21.148438 22.78125 C 21.704931 22.097702 22.111505 21.272307 22.369141 20.304688 C 22.626777 19.328191 22.755859 18.231807 22.755859 17.015625 C 22.755859 16.758174 22.745753 16.509753 22.734375 16.263672 C 22.691567 17.184095 22.57256 18.033685 22.369141 18.804688 C 22.111505 19.772307 21.704931 20.597702 21.148438 21.28125 C 20.602249 21.95592 19.900273 22.473924 19.044922 22.837891 C 18.199876 23.19298 17.190445 23.371094 16.015625 23.371094 C 14.840805 23.371094 13.826055 23.19298 12.970703 22.837891 C 12.125657 22.473924 11.423681 21.95592 10.867188 21.28125 C 10.320999 20.597702 9.9144258 19.772307 9.6464844 18.804688 C 9.4349286 18.033685 9.3101449 17.184095 9.265625 16.263672 z "
       transform="matrix(0.75000188,0,0,0.75000188,-0.12250606,8.5132428)"
       id="text936" />
  </g>
</svg>
