<?xml version="1.0" encoding="UTF-8" standalone="no"?>
<svg
   xmlns:dc="http://purl.org/dc/elements/1.1/"
   xmlns:cc="http://creativecommons.org/ns#"
   xmlns:rdf="http://www.w3.org/1999/02/22-rdf-syntax-ns#"
   xmlns:svg="http://www.w3.org/2000/svg"
   xmlns="http://www.w3.org/2000/svg"
   xmlns:xlink="http://www.w3.org/1999/xlink"
   xmlns:sodipodi="http://sodipodi.sourceforge.net/DTD/sodipodi-0.dtd"
   xmlns:inkscape="http://www.inkscape.org/namespaces/inkscape"
   height="32"
   width="32"
   version="1.1"
   id="svg43"
   sodipodi:docname="underlinedouble.svg"
   inkscape:version="0.92.4 (unknown)"
   inkscape:export-filename="/home/rizmut/Dokumen/Rizmut/Github/libreoffice-style-elementary/images_elementary/cmd/32/nl/underlinedouble.png"
   inkscape:export-xdpi="96"
   inkscape:export-ydpi="96">
  <metadata
     id="metadata49">
    <rdf:RDF>
      <cc:Work
         rdf:about="">
        <dc:format>image/svg+xml</dc:format>
        <dc:type
           rdf:resource="http://purl.org/dc/dcmitype/StillImage" />
        <dc:title></dc:title>
      </cc:Work>
    </rdf:RDF>
  </metadata>
  <defs
     id="defs47">
    <radialGradient
       inkscape:collect="always"
       xlink:href="#a"
       id="radialGradient844"
       cx="10.903473"
       cy="14.502974"
       fx="10.903473"
       fy="14.502974"
       r="6.2253389"
       gradientTransform="matrix(-1.1900889,0.07845656,-0.1079118,-2.3049599,25.087591,44.455556)"
       gradientUnits="userSpaceOnUse" />
    <radialGradient
       inkscape:collect="always"
       xlink:href="#a"
       id="radialGradient845"
       gradientUnits="userSpaceOnUse"
       gradientTransform="matrix(-1.1900889,0.07845656,-0.1079118,-2.3049599,25.087591,44.455556)"
       cx="10.903473"
       cy="14.502974"
       fx="10.903473"
       fy="14.502974"
       r="6.2253389" />
    <linearGradient
       inkscape:collect="always"
       xlink:href="#a"
       id="linearGradient860"
       gradientUnits="userSpaceOnUse"
       x1="12.761326"
       y1="33.638302"
       x2="12.761326"
       y2="11.638302" />
  </defs>
  <sodipodi:namedview
     pagecolor="#ffffff"
     bordercolor="#666666"
     borderopacity="1"
     objecttolerance="10"
     gridtolerance="10"
     guidetolerance="10"
     inkscape:pageopacity="0"
     inkscape:pageshadow="2"
     inkscape:window-width="1366"
     inkscape:window-height="714"
     id="namedview45"
     showgrid="true"
     inkscape:zoom="11.313708"
     inkscape:cx="14.518475"
     inkscape:cy="7.6251396"
     inkscape:window-x="0"
     inkscape:window-y="28"
     inkscape:window-maximized="1"
     inkscape:current-layer="g41">
    <inkscape:grid
       type="xygrid"
       id="grid832" />
  </sodipodi:namedview>
  <linearGradient
     id="a">
    <stop
       offset="0"
       stop-color="#555"
       id="stop2" />
    <stop
       offset="1"
       stop-color="#666"
       id="stop4" />
  </linearGradient>
  <linearGradient
     id="b"
     gradientUnits="userSpaceOnUse"
     x1="12.761326"
     x2="12.761326"
     xlink:href="#a"
     y1="33.638302"
     y2="11.638302" />
  <linearGradient
     id="c">
    <stop
       offset="0"
       id="stop8" />
    <stop
       offset="1"
       stop-opacity="0"
       id="stop10" />
  </linearGradient>
  <radialGradient
     id="d"
     cx="40"
     cy="43.5"
     gradientTransform="matrix(.87733142 0 0 .75 -17.142285 -3.625)"
     gradientUnits="userSpaceOnUse"
     r="2"
     xlink:href="#c" />
  <radialGradient
     id="e"
     cx="9"
     cy="43.5"
     gradientTransform="matrix(.87733142 0 0 .75 -1.350319 -3.625)"
     gradientUnits="userSpaceOnUse"
     r="2"
     xlink:href="#c" />
  <linearGradient
     id="f"
     gradientTransform="matrix(.87733142 0 0 1 -5.736976 -14.5)"
     gradientUnits="userSpaceOnUse"
     x1="25"
     x2="25"
     y1="45"
     y2="42">
    <stop
       offset="0"
       stop-opacity="0"
       id="stop15" />
    <stop
       offset=".5"
       id="stop17" />
    <stop
       offset="1"
       stop-opacity="0"
       id="stop19" />
  </linearGradient>
  <linearGradient
     id="g"
     gradientTransform="matrix(.98244026 0 0 1.0032268 .121605 8.047357)"
     gradientUnits="userSpaceOnUse"
     x1="12.02772"
     x2="11.427851"
     xlink:href="#a"
     y1="25.544678"
     y2="4.392136" />
  <g
     transform="matrix(1.33333 0 0 1.33333 .163341 -11.350962)"
     id="g41">
    <g
       id="g850">
      <path
         id="path25"
         fill="url(#b)"
         d="m1.752716 29.885566.017578 2.234376h19.504467l-.01758-2.234376z" />
      <path
         id="path27"
         stroke-width=".750002"
         stroke="#000"
         opacity=".61"
         fill="none"
         d="m1.752716 29.885566.00414 2.252736h19.50447l-.0041-2.252736z" />
      <path
         id="path29"
         opacity=".2"
         fill="#fff"
         d="m2.1302176 30.242557-.00272.769013h18.7500494l-.01548-.759479z" />
    </g>
    <g
       id="g843"
       transform="translate(0,-3.7779681)">
      <g
         id="text836"
         style="font-style:normal;font-weight:normal;font-size:22.03717422px;line-height:1.25;font-family:sans-serif;letter-spacing:0px;word-spacing:0px;fill:url(#radialGradient844);fill-opacity:1;stroke:#000000;stroke-width:0.75000191;stroke-miterlimit:4;stroke-dasharray:none;stroke-opacity:0.6"
         transform="scale(1.0774428,0.92812349)"
         aria-label="O">
        <path
           id="path837"
           style="font-style:normal;font-variant:normal;font-weight:normal;font-stretch:normal;font-family:'Droid Sans';-inkscape-font-specification:'Droid Sans';fill:url(#radialGradient845);fill-opacity:1;stroke:#000000;stroke-width:0.75000191;stroke-miterlimit:4;stroke-dasharray:none;stroke-opacity:0.6"
           d="m 17.845863,21.709853 q 0,1.818497 -0.441174,3.314184 -0.430413,1.495687 -1.29124,2.560961 -0.860827,1.065273 -2.141308,1.646332 -1.26972,0.581058 -2.937572,0.581058 -1.7539355,0 -3.0451762,-0.581058 Q 6.7089125,28.650271 5.8588457,27.584998 5.0195393,26.519724 4.6106464,25.024037 4.2017535,23.51759 4.2017535,21.688332 q 0,-1.829257 0.4088929,-3.314184 0.4088929,-1.495687 1.2589597,-2.550201 0.8500667,-1.054513 2.1413074,-1.624811 1.2912407,-0.581058 3.0451755,-0.581058 1.667853,0 2.926813,0.581058 1.26972,0.570298 2.130547,1.635572 0.860827,1.054513 1.29124,2.5502 0.441174,1.484927 0.441174,3.324945 z m -11.5243227,0 q 0,1.474166 0.2797688,2.657804 0.2797688,1.172877 0.8500668,2.001423 0.5810583,0.817785 1.4634061,1.258959 0.8931081,0.430414 2.119787,0.430414 1.226678,0 2.109026,-0.430414 0.893108,-0.441174 1.463406,-1.258959 0.581059,-0.828546 0.850067,-2.001423 0.269009,-1.183638 0.269009,-2.657804 0,-1.484927 -0.269009,-2.657804 -0.269008,-1.172877 -0.839306,-1.979902 -0.570298,-0.817786 -1.452646,-1.2482 -0.882348,-0.441173 -2.109027,-0.441173 -1.2266782,0 -2.1197863,0.441173 -0.8931082,0.430414 -1.4741665,1.2482 -0.5810583,0.807025 -0.8608271,1.979902 -0.2797688,1.172877 -0.2797688,2.657804 z"
           inkscape:connector-curvature="0" />
      </g>
      <path
         id="text936"
         transform="matrix(0.75000188,0,0,0.75000188,-0.12250606,8.5132428)"
         d="m 16.046875,5.5019531 c -1.679787,0 -3.138347,0.2393789 -4.375,0.71875 C 10.435222,6.691197 9.4098329,7.3604989 8.5957031,8.2304688 7.7815733,9.1004386 7.1787161,10.152782 6.7871094,11.386719 6.3955026,12.611778 6.1992188,13.97915 6.1992188,15.488281 c 0,0.255517 0.014164,0.502118 0.025391,0.75 0.055156,-1.213153 0.2373148,-2.334289 0.5625,-3.351562 0.3916067,-1.233937 0.9944639,-2.28628 1.8085937,-3.1562502 0.8141298,-0.8699699 1.8395189,-1.5392718 3.0761719,-2.0097657 1.236653,-0.4793711 2.695213,-0.71875 4.375,-0.71875 1.597343,0 2.999342,0.2393789 4.205078,0.71875 1.216042,0.4704939 2.236112,1.1445905 3.060547,2.0234375 0.824435,0.8699694 1.441298,1.9223134 1.853516,3.1562504 0.350862,1.017286 0.547914,2.142035 0.607422,3.361328 0.01216,-0.246831 0.02734,-0.4916 0.02734,-0.746094 0,-1.518009 -0.212242,-2.890175 -0.634765,-4.115234 C 24.753798,10.166454 24.136935,9.1141104 23.3125,8.2441406 22.488065,7.3652936 21.467995,6.691197 20.251953,6.2207031 19.046217,5.741332 17.644218,5.5019531 16.046875,5.5019531 Z M 9.265625,16.263672 c -0.011833,0.246081 -0.021484,0.494502 -0.021484,0.751953 0,1.216182 0.1344023,2.312566 0.4023438,3.289063 0.2679414,0.967619 0.6745146,1.793014 1.2207036,2.476562 0.556493,0.67467 1.258469,1.192674 2.103515,1.556641 0.855352,0.355089 1.870102,0.533203 3.044922,0.533203 1.17482,0 2.184251,-0.178114 3.029297,-0.533203 0.855351,-0.363967 1.557327,-0.881971 2.103516,-1.556641 0.556493,-0.683548 0.963067,-1.508943 1.220703,-2.476562 0.257636,-0.976497 0.386718,-2.072881 0.386718,-3.289063 0,-0.257451 -0.01011,-0.505872 -0.02148,-0.751953 -0.04281,0.920423 -0.161815,1.770013 -0.365234,2.541016 -0.257636,0.967619 -0.66421,1.793014 -1.220703,2.476562 -0.546189,0.67467 -1.248165,1.192674 -2.103516,1.556641 -0.845046,0.355089 -1.854477,0.533203 -3.029297,0.533203 -1.17482,0 -2.18957,-0.178114 -3.044922,-0.533203 C 12.125657,22.473924 11.423681,21.95592 10.867188,21.28125 10.320999,20.597702 9.9144258,19.772307 9.6464844,18.804688 9.4349286,18.033685 9.3101449,17.184095 9.265625,16.263672 Z"
         style="font-style:normal;font-weight:normal;font-size:22.03717422px;line-height:1.25;font-family:sans-serif;letter-spacing:0px;word-spacing:0px;opacity:0.2;fill:#fffbfe;fill-opacity:1;stroke:none;stroke-width:1;stroke-miterlimit:4;stroke-dasharray:none;stroke-opacity:0.6"
         inkscape:connector-curvature="0" />
    </g>
    <g
       id="g858"
       transform="translate(1.9687489e-6,-4.4982822)">
      <path
         d="m 1.752716,29.885566 0.017578,2.234376 h 19.504467 l -0.01758,-2.234376 z"
         id="path852"
         style="fill:url(#linearGradient860)"
         inkscape:connector-curvature="0" />
      <path
         d="m 1.752716,29.885566 0.00414,2.252736 h 19.50447 l -0.0041,-2.252736 z"
         id="path854"
         inkscape:connector-curvature="0"
         style="opacity:0.61000001;fill:none;stroke:#000000;stroke-width:0.75000203" />
      <path
         d="m 2.1302176,30.242557 -0.00272,0.769013 H 20.877547 l -0.01548,-0.759479 z"
         id="path856"
         inkscape:connector-curvature="0"
         style="opacity:0.2;fill:#ffffff" />
    </g>
  </g>
</svg>
