<?xml version="1.0" encoding="UTF-8" standalone="no"?>
<svg
   xmlns:dc="http://purl.org/dc/elements/1.1/"
   xmlns:cc="http://creativecommons.org/ns#"
   xmlns:rdf="http://www.w3.org/1999/02/22-rdf-syntax-ns#"
   xmlns:svg="http://www.w3.org/2000/svg"
   xmlns="http://www.w3.org/2000/svg"
   xmlns:xlink="http://www.w3.org/1999/xlink"
   xmlns:sodipodi="http://sodipodi.sourceforge.net/DTD/sodipodi-0.dtd"
   xmlns:inkscape="http://www.inkscape.org/namespaces/inkscape"
   height="24"
   width="24"
   version="1.1"
   id="svg39"
   sodipodi:docname="lc_bold.svg"
   inkscape:version="0.92.4 (unknown)"
   inkscape:export-filename="/home/rizmut/Dokumen/Rizmut/Github/libreoffice-style-elementary/images_elementary/cmd/fr/lc_bold.png"
   inkscape:export-xdpi="96"
   inkscape:export-ydpi="96">
  <metadata
     id="metadata45">
    <rdf:RDF>
      <cc:Work
         rdf:about="">
        <dc:format>image/svg+xml</dc:format>
        <dc:type
           rdf:resource="http://purl.org/dc/dcmitype/StillImage" />
        <dc:title />
      </cc:Work>
    </rdf:RDF>
  </metadata>
  <defs
     id="defs43">
    <radialGradient
       inkscape:collect="always"
       xlink:href="#c"
       id="radialGradient884"
       cx="11.904744"
       cy="4.3610497"
       fx="11.904744"
       fy="4.3610497"
       r="6.7582979"
       gradientTransform="matrix(0.01573161,2.8798982,-2.2923052,0.01252185,22.539987,-31.159544)"
       gradientUnits="userSpaceOnUse" />
    <radialGradient
       id="d-0"
       cx="40"
       cy="43.5"
       gradientTransform="matrix(1,0,0,0.75,-21,12.375)"
       gradientUnits="userSpaceOnUse"
       r="2"
       xlink:href="#a" />
    <linearGradient
       id="linearGradient1091">
      <stop
         offset="0"
         id="stop2-9" />
      <stop
         offset="1"
         stop-opacity="0"
         id="stop4-3" />
    </linearGradient>
    <radialGradient
       id="e-6"
       cx="9"
       cy="43.5"
       gradientTransform="matrix(1,0,0,0.75,-4,12.375)"
       gradientUnits="userSpaceOnUse"
       r="2"
       xlink:href="#a" />
    <linearGradient
       id="b-0"
       gradientUnits="userSpaceOnUse"
       x1="17"
       x2="17"
       y1="46.5"
       y2="43.5">
      <stop
         offset="0"
         stop-opacity="0"
         id="stop7-6" />
      <stop
         offset=".5"
         id="stop9-2" />
      <stop
         offset="1"
         stop-opacity="0"
         id="stop11-6" />
    </linearGradient>
  </defs>
  <sodipodi:namedview
     pagecolor="#ffffff"
     bordercolor="#666666"
     borderopacity="1"
     objecttolerance="10"
     gridtolerance="10"
     guidetolerance="10"
     inkscape:pageopacity="0"
     inkscape:pageshadow="2"
     inkscape:window-width="1366"
     inkscape:window-height="714"
     id="namedview41"
     showgrid="true"
     inkscape:snap-global="true"
     inkscape:zoom="16"
     inkscape:cx="16.168357"
     inkscape:cy="5.9086042"
     inkscape:window-x="0"
     inkscape:window-y="28"
     inkscape:window-maximized="1"
     inkscape:current-layer="svg39">
    <inkscape:grid
       type="xygrid"
       id="grid852" />
  </sodipodi:namedview>
  <linearGradient
     id="a">
    <stop
       offset="0"
       id="stop2" />
    <stop
       offset="1"
       stop-opacity="0"
       id="stop4" />
  </linearGradient>
  <linearGradient
     id="b"
     gradientUnits="userSpaceOnUse"
     x1="17"
     x2="17"
     y1="46.5"
     y2="43.5">
    <stop
       offset="0"
       stop-opacity="0"
       id="stop7" />
    <stop
       offset=".5"
       id="stop9" />
    <stop
       offset="1"
       stop-opacity="0"
       id="stop11" />
  </linearGradient>
  <radialGradient
     id="c"
     cx="13.325464"
     cy="8.331412"
     gradientTransform="matrix(-3.7117719,0.11187051,-0.21033005,-6.7825606,47.356407,56.934853)"
     gradientUnits="userSpaceOnUse"
     r="5.349211">
    <stop
       offset="0"
       stop-color="#737373"
       id="stop14" />
    <stop
       offset=".26238"
       stop-color="#636363"
       id="stop16" />
    <stop
       offset=".704952"
       stop-color="#4b4b4b"
       id="stop18" />
    <stop
       offset="1"
       stop-color="#3f3f3f"
       id="stop20" />
  </radialGradient>
  <radialGradient
     id="d"
     cx="40"
     cy="43.5"
     gradientTransform="matrix(1,0,0,0.75,-32.283838,12.375)"
     gradientUnits="userSpaceOnUse"
     r="2"
     xlink:href="#a" />
  <radialGradient
     id="e"
     cx="9"
     cy="43.5"
     gradientTransform="matrix(1,0,0,0.75,-4,12.375)"
     gradientUnits="userSpaceOnUse"
     r="2"
     xlink:href="#a" />
  <g
     transform="matrix(0.73633307,0,0,1,4.020185,-24)"
     id="g31">
    <path
       style="opacity:0.2;fill:url(#d-0)"
       inkscape:connector-curvature="0"
       d="m 19,43.5 v 3 h 0.5 c 0.831,0 1.5,-0.669 1.5,-1.5 0,-0.831 -0.669,-1.5 -1.5,-1.5 z"
       id="path25" />
    <path
       style="opacity:0.2;fill:url(#e-6)"
       inkscape:connector-curvature="0"
       d="M 4.40625,43.5 C 3.6271875,43.5 3,44.127187 3,44.90625 v 0.1875 C 3,45.872813 3.6271875,46.5 4.40625,46.5 H 5 v -3 z"
       id="path27" />
    <path
       style="opacity:0.2;fill:url(#b-0)"
       inkscape:connector-curvature="0"
       d="m 5,43.5 h 14 v 3 H 5 Z"
       id="path29" />
  </g>
  <g
     aria-label="G"
     transform="scale(1.0137358,0.98645032)"
     style="font-style:normal;font-weight:normal;font-size:22.13213158px;line-height:1.25;font-family:sans-serif;letter-spacing:0px;word-spacing:0px;fill:url(#radialGradient884);fill-opacity:1;stroke:#0a0a0a;stroke-width:1.00034225;stroke-miterlimit:4;stroke-dasharray:none;stroke-opacity:0.6"
     id="text856">
    <path
       d="m 12.404091,11.719843 6.83169,-0.06188 v 8.191482 c -0.417859,0.136885 -0.839321,0.262963 -1.264385,0.378235 -0.425063,0.108067 -1.431939,0.263606 -1.893026,0.342855 -0.453881,0.07205 -0.932978,0.129681 -1.437291,0.172908 -0.497109,0.04323 -1.026637,0.06484 -1.588586,0.06484 -1.181533,0 -2.229784,-0.172907 -3.1447511,-0.518722 C 8.9999787,19.936541 8.2327027,19.41782 7.6059138,18.733395 6.9863294,18.041766 6.5144366,17.191638 6.1902354,16.183012 5.8660343,15.167182 5.7039337,13.996456 5.7039337,12.670833 c 0,-1.239169 0.1801118,-2.359464 0.5403353,-3.3608851 C 6.6044925,8.3085266 7.134021,7.4583992 7.8328546,6.7595656 8.5388927,6.0535275 9.4034291,5.5131923 10.426464,5.1385599 c 1.030239,-0.3818369 2.20817,-0.5727554 3.533792,-0.5727554 0.842923,0 1.667835,0.090056 2.474736,0.2701676 0.806901,0.1801117 1.545359,0.414257 2.215374,0.7024358 l -1.11309,2.6800628 C 17.047372,7.9735188 16.492628,7.7681914 15.873043,7.6024886 c -0.61238,-0.1657028 -1.25718,-0.2485542 -1.9344,-0.2485542 -0.734856,0 -1.397667,0.1296804 -1.988434,0.3890413 -0.583562,0.2521565 -1.084273,0.61238 -1.502132,1.0806705 -0.417859,0.4682905 -0.738458,1.0338415 -0.9617966,1.6966528 -0.2233385,0.662811 -0.3350078,1.401269 -0.3350078,2.215374 0,0.778083 0.075647,1.491326 0.2269408,2.139728 0.1584983,0.641198 0.4034502,1.195942 0.7348556,1.664233 0.331406,0.46829 0.75647,0.832116 1.275191,1.091477 0.525927,0.259361 1.152716,0.389041 1.880367,0.389041 0.475495,0 0.875343,-0.02161 1.199544,-0.06484 0.331406,-0.04323 0.641198,-0.09366 0.929377,-0.151294 v -3.296045 h -2.993457 z"
       style="font-style:normal;font-variant:normal;font-weight:bold;font-stretch:normal;font-family:'Droid Sans';-inkscape-font-specification:'Droid Sans Bold';fill:url(#radialGradient884);fill-opacity:1;stroke:#0a0a0a;stroke-width:1.00034225;stroke-miterlimit:4;stroke-dasharray:none;stroke-opacity:0.6"
       id="path845"
       inkscape:connector-curvature="0"
       sodipodi:nodetypes="ccccccscccssscsscccscssscccsccccc" />
  </g>
  <path
     style="font-style:normal;font-weight:normal;font-size:22.41456604px;line-height:1.25;font-family:sans-serif;letter-spacing:0px;word-spacing:0px;opacity:0.2;fill:#ffffff;fill-opacity:1;stroke:none;stroke-width:1;stroke-miterlimit:4;stroke-dasharray:none;stroke-opacity:1"
     d="m 14.150391,4.2695312 c -1.342539,0 -2.534739,0.1933685 -3.578125,0.5800782 C 9.5361757,5.2290226 8.6603605,5.7751864 7.9453125,6.4902344 7.2375609,7.197986 6.7007579,8.060018 6.3359375,9.0742188 5.9711171,10.088419 5.7890625,11.223533 5.7890625,12.478516 c 0,0.273206 0.011793,0.534708 0.025391,0.794922 0.05651,-0.977215 0.2265683,-1.879353 0.5214844,-2.699219 0.3648204,-1.014201 0.9016234,-1.876233 1.609375,-2.5839846 0.715048,-0.715048 1.5908632,-1.2612118 2.6269535,-1.640625 1.043386,-0.3867097 2.235586,-0.5800782 3.578125,-0.5800782 0.853679,0 1.688661,0.091027 2.505859,0.2734376 0.611466,0.1364878 1.171229,0.3139549 1.705078,0.5117187 L 18.900391,5.2539062 C 18.221825,4.9620499 17.473448,4.725379 16.65625,4.5429688 15.839052,4.3605585 15.00407,4.2695312 14.150391,4.2695312 Z m -1.576172,7.2441408 v 1.5 L 19.5,13 v -1.5 z m -3.2500002,1.90625 c -0.015772,0.207031 -0.044922,0.405332 -0.044922,0.623047 0,0.788012 0.077244,1.511292 0.2304687,2.167969 0.160521,0.64938 0.4085059,1.21128 0.7441404,1.685546 0.335635,0.474267 0.765674,0.842798 1.291016,1.105469 0.532638,0.262671 1.16736,0.392578 1.904297,0.392578 0.481563,0 0.886505,-0.02067 1.214843,-0.06445 0.335635,-0.04378 0.64955,-0.09593 0.941407,-0.154297 v -1.5 c -0.291857,0.05837 -0.605772,0.110519 -0.941407,0.154297 -0.328338,0.04378 -0.73328,0.06445 -1.214843,0.06445 -0.736937,0 -1.371659,-0.129907 -1.904297,-0.392578 C 11.01958,17.239282 10.589541,16.870751 10.253906,16.396484 9.9182715,15.922218 9.6702866,15.360318 9.5097656,14.710938 9.415848,14.308433 9.3605704,13.871768 9.3242188,13.419922 Z"
     id="text1061"
     inkscape:connector-curvature="0"
     sodipodi:nodetypes="scssscsscssccssccccccscscsccccscscc" />
</svg>
