<?xml version="1.0" encoding="UTF-8" standalone="no"?>
<svg
   xmlns:dc="http://purl.org/dc/elements/1.1/"
   xmlns:cc="http://creativecommons.org/ns#"
   xmlns:rdf="http://www.w3.org/1999/02/22-rdf-syntax-ns#"
   xmlns:svg="http://www.w3.org/2000/svg"
   xmlns="http://www.w3.org/2000/svg"
   xmlns:xlink="http://www.w3.org/1999/xlink"
   xmlns:sodipodi="http://sodipodi.sourceforge.net/DTD/sodipodi-0.dtd"
   xmlns:inkscape="http://www.inkscape.org/namespaces/inkscape"
   height="24"
   width="24"
   version="1.1"
   id="svg146"
   sodipodi:docname="lc_graphicfiltermosaic.svg"
   inkscape:version="0.92.5 (2060ec1f9f, 2020-04-08)">
  <metadata
     id="metadata152">
    <rdf:RDF>
      <cc:Work
         rdf:about="">
        <dc:format>image/svg+xml</dc:format>
        <dc:type
           rdf:resource="http://purl.org/dc/dcmitype/StillImage" />
        <dc:title></dc:title>
      </cc:Work>
    </rdf:RDF>
  </metadata>
  <defs
     id="defs150" />
  <sodipodi:namedview
     pagecolor="#ffffff"
     bordercolor="#666666"
     borderopacity="1"
     objecttolerance="10"
     gridtolerance="10"
     guidetolerance="10"
     inkscape:pageopacity="0"
     inkscape:pageshadow="2"
     inkscape:window-width="1366"
     inkscape:window-height="699"
     id="namedview148"
     showgrid="true"
     inkscape:zoom="9.8333333"
     inkscape:cx="15.346821"
     inkscape:cy="19.417324"
     inkscape:window-x="0"
     inkscape:window-y="0"
     inkscape:window-maximized="1"
     inkscape:current-layer="svg146">
    <inkscape:grid
       type="xygrid"
       id="grid959" />
  </sodipodi:namedview>
  <radialGradient
     id="a"
     cx="605.71"
     cy="486.65"
     gradientTransform="matrix(.028917 0 0 .012353 26.973 38.471)"
     gradientUnits="userSpaceOnUse"
     r="117.14"
     xlink:href="#b" />
  <linearGradient
     id="b">
    <stop
       offset="0"
       id="stop3" />
    <stop
       offset="1"
       stop-opacity="0"
       id="stop5" />
  </linearGradient>
  <radialGradient
     id="c"
     cx="605.71"
     cy="486.65"
     gradientTransform="matrix(-.028917 0 0 .012353 21.027 38.471)"
     gradientUnits="userSpaceOnUse"
     r="117.14"
     xlink:href="#b" />
  <linearGradient
     id="d"
     gradientTransform="matrix(.084497 0 0 .012353 -6.5396 38.471)"
     gradientUnits="userSpaceOnUse"
     x1="302.86"
     x2="302.86"
     y1="366.65"
     y2="609.51">
    <stop
       offset="0"
       stop-opacity="0"
       id="stop9" />
    <stop
       offset=".5"
       id="stop11" />
    <stop
       offset="1"
       stop-opacity="0"
       id="stop13" />
  </linearGradient>
  <linearGradient
     id="e"
     gradientTransform="matrix(.39078 0 0 .48796 2.6029 2.2127)"
     gradientUnits="userSpaceOnUse"
     x1="16.626"
     x2="20.055"
     y1="15.298"
     y2="24.628">
    <stop
       offset="0"
       stop-color="#fff"
       id="stop16" />
    <stop
       offset="1"
       stop-color="#fff"
       stop-opacity="0"
       id="stop18" />
  </linearGradient>
  <linearGradient
     id="f"
     gradientTransform="matrix(.51351 0 0 .43243 -.32432 2.1217)"
     gradientUnits="userSpaceOnUse"
     x1="24"
     x2="24"
     y1="5.5641"
     y2="43">
    <stop
       offset="0"
       stop-color="#fff"
       id="stop21" />
    <stop
       offset=".036262"
       stop-color="#fff"
       stop-opacity=".23529"
       id="stop23" />
    <stop
       offset=".95056"
       stop-color="#fff"
       stop-opacity=".15686"
       id="stop25" />
    <stop
       offset="1"
       stop-color="#fff"
       stop-opacity=".39216"
       id="stop27" />
  </linearGradient>
  <linearGradient
     id="g"
     gradientTransform="matrix(.6 0 0 .39111 -2.4 2.5134)"
     gradientUnits="userSpaceOnUse"
     x1="25.132"
     x2="25.132"
     y1=".98521"
     y2="47.013">
    <stop
       offset="0"
       stop-color="#f4f4f4"
       id="stop30" />
    <stop
       offset="1"
       stop-color="#dbdbdb"
       id="stop32" />
  </linearGradient>
  <linearGradient
     id="h"
     gradientTransform="matrix(.4845 0 0 .36602 33.246 2.0775)"
     gradientUnits="userSpaceOnUse"
     x1="-51.786"
     x2="-51.786"
     y1="50.786"
     y2="2.9062">
    <stop
       offset="0"
       stop-color="#a0a0a0"
       id="stop35" />
    <stop
       offset="1"
       stop-color="#bebebe"
       id="stop37" />
  </linearGradient>
  <linearGradient
     id="i"
     gradientTransform="matrix(.48571 0 0 .51852 -.33944 1.4986)"
     gradientUnits="userSpaceOnUse"
     x1="-24.032"
     x2="-24.098"
     y1="-13.091"
     y2="-40.164">
    <stop
       offset="0"
       stop-color="#1d1d1d"
       id="stop40" />
    <stop
       offset="1"
       id="stop42" />
  </linearGradient>
  <radialGradient
     id="j"
     cx="65.297"
     cy="48.216"
     gradientTransform="matrix(0 .52545 -.57163 0 46.193 -21.124)"
     gradientUnits="userSpaceOnUse"
     r="31">
    <stop
       offset="0"
       stop-color="#cdf87e"
       id="stop45" />
    <stop
       offset=".26238"
       stop-color="#a2e34f"
       id="stop47" />
    <stop
       offset=".66094"
       stop-color="#68b723"
       id="stop49" />
    <stop
       offset="1"
       stop-color="#1d7e0d"
       id="stop51" />
  </radialGradient>
  <linearGradient
     id="k"
     gradientTransform="matrix(.2818 0 0 .2801 12.197 12.015)"
     gradientUnits="userSpaceOnUse"
     x1="24.139"
     x2="24.139"
     y1="10.631"
     y2="35.623">
    <stop
       offset="0"
       stop-color="#fff"
       id="stop54" />
    <stop
       offset=".00000002"
       stop-color="#fff"
       stop-opacity=".23529"
       id="stop56" />
    <stop
       offset="1"
       stop-color="#fff"
       stop-opacity=".15686"
       id="stop58" />
    <stop
       offset="1"
       stop-color="#fff"
       stop-opacity=".39216"
       id="stop60" />
  </linearGradient>
  <linearGradient
     id="l"
     gradientTransform="matrix(.2818 0 0 .2801 12.179 12.022)"
     gradientUnits="userSpaceOnUse"
     x1="24.139"
     x2="24.139"
     y1="21.342"
     y2="24.912">
    <stop
       offset="0"
       stop-color="#fff"
       id="stop63" />
    <stop
       offset=".00000019"
       stop-color="#fff"
       stop-opacity=".23529"
       id="stop65" />
    <stop
       offset="1"
       stop-color="#fff"
       stop-opacity=".15686"
       id="stop67" />
    <stop
       offset="1"
       stop-color="#fff"
       stop-opacity=".39216"
       id="stop69" />
  </linearGradient>
  <linearGradient
     id="m"
     gradientTransform="matrix(0.07503,0,0,0.07559,21.87,9.858)"
     gradientUnits="userSpaceOnUse"
     x1="-184.92"
     x2="-175.25"
     y1="113.98"
     y2="88.801">
    <stop
       offset="0"
       stop-color="#7a0f01"
       id="stop72" />
    <stop
       offset="1"
       stop-color="#d31807"
       id="stop74" />
  </linearGradient>
  <linearGradient
     id="n"
     gradientTransform="matrix(0.075111,0.0058678,-0.0061939,0.071505,25.005,11.547)"
     gradientUnits="userSpaceOnUse"
     x1="-211.29"
     x2="-208.5"
     y1="88.75"
     y2="75.191">
    <stop
       offset="0"
       stop-color="#ec4502"
       id="stop77" />
    <stop
       offset="1"
       stop-color="#fe7617"
       id="stop79" />
  </linearGradient>
  <linearGradient
     id="o"
     gradientTransform="matrix(0.11183,0,0,0.11949,27.052,9.6136)"
     gradientUnits="userSpaceOnUse"
     x1="-107.46"
     x2="-107.46"
     y1="-37.385"
     y2="38.561">
    <stop
       offset="0"
       stop-color="#0b85e9"
       id="stop82" />
    <stop
       offset="1"
       stop-color="#69d1ef"
       id="stop84" />
  </linearGradient>
  <linearGradient
     id="p"
     gradientTransform="matrix(0.11183,0,0,0.11095,27.052,9.4336)"
     gradientUnits="userSpaceOnUse"
     x1="-96.557"
     x2="-96.557"
     y1="110.92"
     y2="39.992">
    <stop
       offset="0"
       stop-color="#e89c42"
       id="stop87" />
    <stop
       offset="1"
       stop-color="#faca67"
       id="stop89" />
  </linearGradient>
  <g
     opacity=".4"
     transform="matrix(.5 0 0 .5 0 -.5)"
     id="g98">
    <path
       d="m3.6 43h40.8v3h-40.8z"
       fill="url(#d)"
       id="path92" />
    <path
       d="m3.6 43v2.9998c-1.4891.006-3.6-.672-3.6-1.5s1.6618-1.5 3.6-1.5z"
       fill="url(#c)"
       id="path94" />
    <path
       d="m44.4 43v2.9998c1.4891.0056 3.6-.67211 3.6-1.5001 0-.828-1.6618-1.4997-3.6-1.4997z"
       fill="url(#a)"
       id="path96" />
  </g>
  <path
     d="m1.5 3.5001c4.8122 0 21 .0011 21 .0011l.000024 17.999h-21v-18z"
     fill="url(#g)"
     stroke="url(#h)"
     stroke-linejoin="round"
     stroke-width=".99992"
     id="path100" />
  <path
     style="fill:#f0b052;fill-opacity:1;stroke:none;stroke-width:1px;stroke-linecap:butt;stroke-linejoin:miter;stroke-opacity:1"
     d="m 20,12 h -3 v 1 h -3 v -2 h -4 v 1 H 8 V 11 H 4 v 8 h 16 z"
     id="path985"
     inkscape:connector-curvature="0"
     sodipodi:nodetypes="ccccccccccccc" />
  <path
     d="m21.5 20.5h-19v-16h19z"
     fill="none"
     stroke="url(#f)"
     stroke-linecap="round"
     id="path102" />
  <g
     transform="matrix(1.0578,0,0,1.1506,-22.090448,-3.3492971)"
     id="g128">
    <path
       d="M 4,7 V 20 H 21 V 7 Z"
       id="path104"
       style="fill:url(#p)"
       inkscape:connector-curvature="0" />
    <path
       d="m 8.1084,14.363 c -0.072735,-0.0055 -0.15451,9.6e-5 -0.23697,0.02791 -0.32184,0.10858 -0.35875,0.32248 -0.38749,0.42515 -0.028735,0.10266 -0.03468,0.18245 -0.039352,0.26664 -0.00934,0.16837 -0.00208,0.34534 0.00586,0.5222 0.00651,0.14527 0.012305,0.2742 0.015154,0.38807 -0.11099,0.02573 -0.2333,0.05337 -0.37416,0.08352 -0.17654,0.03779 -0.355,0.07562 -0.51961,0.12742 -0.082303,0.02591 -0.15962,0.05205 -0.25784,0.10808 -0.049113,0.02801 -0.10568,0.06133 -0.1719,0.13469 -0.066224,0.07336 -0.14646,0.21132 -0.14189,0.37801 0.00892,0.32542 0.21049,0.42382 0.30432,0.4814 0.093829,0.05758 0.16951,0.08689 0.25228,0.11698 0.16554,0.06019 0.34815,0.10899 0.52756,0.15617 0.14786,0.03889 0.2774,0.07553 0.39239,0.10803 -0.00861,0.1083 -0.020522,0.22799 -0.033877,0.36434 -0.016818,0.17167 -0.033277,0.34305 -0.032406,0.50816 4.358e-4,0.08255 0.00232,0.16128 0.027923,0.26747 0.012793,0.0531 0.030065,0.11401 0.082828,0.1966 0.052764,0.08259 0.16349,0.19963 0.33159,0.24698 0.32751,0.09226 0.48855,-0.05824 0.57516,-0.1253 0.086609,-0.06705 0.13995,-0.12918 0.19568,-0.19474 0.11147,-0.13111 0.21535,-0.28071 0.3181,-0.42836 0.08451,-0.12144 0.15964,-0.22882 0.22766,-0.32267 0.10568,0.04112 0.22197,0.08844 0.35456,0.14266 0.16612,0.06793 0.33419,0.1372 0.49933,0.18713 0.08257,0.02496 0.15975,0.0473 0.27375,0.05676 0.057,0.0047 0.12539,0.0089 0.2241,-0.01344 0.09871,-0.02238 0.24778,-0.0876 0.34692,-0.22492 0.19336,-0.26784 0.09361,-0.46266 0.05331,-0.56179 -0.0403,-0.09913 -0.08453,-0.16528 -0.13284,-0.23588 -0.09661,-0.14119 -0.21482,-0.28105 -0.33059,-0.41934 -0.09508,-0.11357 -0.17728,-0.21445 -0.24995,-0.30472 0.07386,-0.08297 0.15631,-0.17336 0.25154,-0.27659 0.11944,-0.12948 0.2395,-0.25933 0.34062,-0.39344 0.05056,-0.06705 0.09837,-0.13172 0.14318,-0.232 0.0224,-0.05014 0.04672,-0.10941 0.05498,-0.20573 0.0083,-0.09632 -0.01097,-0.25274 -0.1176,-0.38502 -0.2079,-0.2579 -0.43156,-0.22503 -0.54299,-0.21928 -0.11143,0.0058 -0.19251,0.02499 -0.27808,0.04681 -0.17114,0.04364 -0.34872,0.10504 -0.52303,0.16695 -0.14369,0.05103 -0.27,0.0958 -0.38314,0.13366 C 9.09357,15.36922 9.02894,15.26561 8.95541,15.14764 8.86321,14.99972 8.77005,14.85122 8.66748,14.71836 8.616195,14.65193 8.569133,14.58976 8.48278,14.51823 c -0.0432,-0.035 -0.0961,-0.077 -0.1898,-0.114 -0.0469,-0.019 -0.1119,-0.035 -0.1846,-0.041 z m 0.8408,1.1512 c 0.0025,-3.58e-4 0.01724,0.0039 0.02057,0.0038 -0.0059,0.0015 -0.02274,0.0061 -0.02613,0.0068 -0.0083,0.0017 -0.01458,-0.0077 0.0056,-0.01062 z m 0.30724,0.09917 c 0.0256,0.02035 0.02393,0.02946 0.01886,0.02358 C 9.273,15.63425 9.26101,15.61923 9.25644,15.61337 Z m -1.5929,0.31992 c 0.020658,-0.0093 0.022418,0.0032 0.015768,0.0057 -0.00348,0.0013 -0.023299,0.0062 -0.030936,0.0086 0.003,-0.0018 0.012711,-0.01318 0.015173,-0.01429 z m -0.1976,0.244 c -3.811e-4,0.0061 4.039e-4,0.02313 2.04e-5,0.02653 -0.00102,0.0091 -0.00917,0.0022 -2.04e-5,-0.02653 z m 2.6127,0.48046 c -0.0047,-0.0078 0.0064,-0.0064 0.01674,0.02121 -0.0035,-0.0052 -0.01495,-0.01826 -0.01674,-0.02121 z m 0.008,0.31013 c -0.01235,0.02884 -0.02274,0.03152 -0.01843,0.02509 0.002,-0.003 0.01389,-0.01901 0.01843,-0.02509 z m -2.6007,0.50649 c 2.138e-4,0.0035 -4.271e-4,0.02329 -3.604e-4,0.03092 -0.00801,-0.03061 -1.219e-4,-0.03857 3.604e-4,-0.03092 z m 0.17419,0.26785 c 0.00559,0.0021 0.021678,0.0073 0.024803,0.0086 0.00882,0.0037 0.00116,0.0086 -0.024803,-0.0086 z m 1.64,0.2895 c 0.0065,-0.0069 0.0075,0.0045 -0.01824,0.02289 0.0046,-0.0053 0.01564,-0.02015 0.01824,-0.02289 z m -0.33801,0.09519 c 0.0038,9.19e-4 0.02335,0.0089 0.03153,0.01131 C 8.96086,18.13602 8.95436,18.125 8.96212,18.12691 Z"
       id="path106"
       inkscape:connector-curvature="0"
       style="opacity:0.05" />
    <path
       d="m 4,6.9997 v 7.7637 c 0.37971,0.10787 0.87211,0.19607 1.4585,0.19607 1.4952,0 1.2818,-0.53661 2.5693,-0.53661 1.2875,0 2.0458,0.87715 3.7864,0.87715 2.1558,0 2.6506,-1.4138 4.3562,-1.4138 1.3319,0 1.4319,0.77396 2.8977,0.77396 0.99024,0 1.3191,-0.40659 1.9318,-0.67076 v -6.9893 z"
       id="path108"
       inkscape:connector-curvature="0"
       style="opacity:0.07000002" />
    <path
       d="m 4,6.9928 v 7.1445 c 0.25243,0.12435 0.57207,0.23735 0.91761,0.23735 0.78911,0 1.5608,-0.68108 2.8784,-0.68108 1.3176,0 2.3086,0.85651 3.9699,0.85651 1.6613,0 2.0352,-1.2383 4.1534,-1.2383 2.1182,0 1.9191,0.78428 3.2455,0.78428 0.91365,0 1.3038,-0.34092 1.8352,-0.55725 v -6.5462 z"
       id="path110"
       style="fill:url(#o)"
       inkscape:connector-curvature="0" />
    <g
       transform="translate(0,4.2e-5)"
       id="g118"
       style="fill:#ffffff">
      <path
         d="m 15.919,11.807 c -1.1128,0 -1.8127,0.33663 -2.3858,0.65012 -0.57306,0.31349 -1.0054,0.58821 -1.7676,0.58821 -0.78332,0 -1.4024,-0.19996 -2.0188,-0.41278 -0.61633,-0.21282 -1.2327,-0.44374 -1.9511,-0.44374 -0.70624,0 -1.274,0.17748 -1.7386,0.35086 -0.46461,0.17338 -0.82443,0.33022 -1.1398,0.33022 -0.28552,0 -0.56384,-0.10428 -0.79204,-0.21671 A 0.29416,0.31427 0 0 0 3.99969,12.62222 v 1.3518 c 0.39113,0.10457 0.88178,0.18575 1.4585,0.18575 0.78051,0 1.1776,-0.15218 1.4778,-0.28894 0.30023,-0.13676 0.48598,-0.24766 1.0915,-0.24766 0.58122,0 1.0488,0.20154 1.6227,0.4231 0.5751,0.222 1.2481,0.454 2.1641,0.454 1.1381,0 1.879,-0.38564 2.492,-0.743 0.61309,-0.35735 1.0874,-0.67076 1.8642,-0.67076 0.61261,0 0.89719,0.1661 1.275,0.36118 0.3778,0.19508 0.84135,0.41278 1.6227,0.41278 0.99506,0 1.4312,-0.39443 1.9318,-0.6398 v -1.186 a 0.29416,0.31427 0 0 0 -0.10625,0.02064 c -0.58271,0.23722 -0.88381,0.53661 -1.729,0.53661 -0.60894,0 -0.79899,-0.15586 -1.1977,-0.36118 -0.39874,-0.20532 -0.95463,-0.4231 -2.0477,-0.4231 z"
         id="path112"
         inkscape:connector-curvature="0"
         style="opacity:0.1" />
      <path
         d="m 15.919,12.426 c -2.1182,0 -2.4921,1.2383 -4.1534,1.2383 -1.6613,0 -2.6523,-0.85651 -3.9699,-0.85651 -1.3176,0 -2.0893,0.68108 -2.8784,0.68108 -0.34554,0 -0.66519,-0.11299 -0.91761,-0.23735 v 0.71204 c 0.37971,0.10787 0.87211,0.19607 1.4585,0.19607 1.4952,0 1.2818,-0.53661 2.5693,-0.53661 1.2875,0 2.0458,0.87715 3.7864,0.87715 2.1558,0 2.6506,-1.4138 4.3562,-1.4138 1.3319,0 1.4319,0.77396 2.8977,0.77396 0.99024,0 1.3191,-0.40659 1.9318,-0.67076 v -0.53661 c -0.53139,0.21633 -0.92158,0.55725 -1.8352,0.55725 -1.3264,0 -1.1272,-0.78428 -3.2455,-0.78428 z"
         id="path114"
         inkscape:connector-curvature="0"
         style="opacity:0.3" />
      <path
         d="m 15.919,12.926 c -2.1182,0 -2.4921,1.2383 -4.1534,1.2383 -1.6613,0 -2.6523,-0.85651 -3.9699,-0.85651 -1.3176,0 -2.0893,0.68108 -2.8784,0.68108 -0.34554,0 -0.66519,-0.11299 -0.91761,-0.23735 v 0.71204 c 0.37971,0.10787 0.87211,0.19607 1.4585,0.19607 1.4952,0 1.2818,-0.53661 2.5693,-0.53661 1.2875,0 2.0458,0.87715 3.7864,0.87715 2.1558,0 2.6506,-1.4138 4.3562,-1.4138 1.3319,0 1.4319,0.77396 2.8977,0.77396 0.99024,0 1.3191,-0.40659 1.9318,-0.67076 v -0.53661 c -0.53139,0.21633 -0.92158,0.55725 -1.8352,0.55725 -1.3264,0 -1.1272,-0.78428 -3.2455,-0.78428 z"
         id="path116"
         inkscape:connector-curvature="0" />
    </g>
    <path
       d="m 7.9702,14.845 c -0.18011,0.06076 0.030127,1.3677 -0.083875,1.5137 -0.11007,0.14097 -1.4643,0.28389 -1.4595,0.45944 0.00498,0.18182 1.378,0.39306 1.4886,0.54133 0.10678,0.14316 -0.16909,1.4148 0.00778,1.4646 0.18319,0.0516 0.8198,-1.1245 1.0021,-1.1788 0.17606,-0.05249 1.3596,0.58747 1.4641,0.44271 0.10823,-0.14992 -0.87019,-1.0868 -0.86809,-1.2687 0.002,-0.1756 1.009,-1.05 0.89675,-1.1893 -0.11629,-0.14426 -1.3577,0.45057 -1.5388,0.39253 -0.17481,-0.05604 -0.73516,-1.2361 -0.90906,-1.1775 z"
       id="path120"
       inkscape:connector-curvature="0"
       style="opacity:0.15" />
    <path
       d="m 8.0218,14.505 c 0.17396,-0.05869 0.73612,1.123 0.91099,1.1791 0.18111,0.05806 1.4218,-0.5383 1.5381,-0.39399 0.11232,0.13934 -0.89478,1.0139 -0.89681,1.1896 -0.0021,0.18193 0.97661,1.1207 0.86834,1.2707 -0.10454,0.14481 -1.2891,-0.4964 -1.4652,-0.44389 -0.18241,0.05438 -0.81823,1.2309 -1.0015,1.1793 -0.17693,-0.04984 0.098058,-1.3207 -0.00876,-1.4639 -0.1105,-0.149 -1.4822,-0.36 -1.4872,-0.542 -0.0048,-0.176 1.3497,-0.32 1.4598,-0.461 0.11404,-0.14605 -0.097885,-1.4534 0.082282,-1.5142 z"
       id="path122"
       style="fill:url(#n)"
       inkscape:connector-curvature="0" />
    <path
       d="m 8.0393,14.471 -0.04821,0.04636 c -3.44e-4,0.0011 -0.0019,0.0014 -0.0019,0.0021 -0.096792,0.23422 0.058261,1.2592 -0.03946,1.3843 -0.0042,0.0052 -0.01001,0.01243 -0.017541,0.01766 l 0.039461,0.0265 c 0.79033,0.23672 0.098571,-1.4277 0.07889,-1.4748 -0.0037,-6.98e-4 -0.0074,-0.0025 -0.01094,-0.0021 z"
       id="path124"
       inkscape:connector-curvature="0"
       style="opacity:0.5;fill:#9d0f06" />
    <path
       d="M 6.7536,16.427 C 6.58726,16.4285 6.491,16.4364 6.491,16.4364 v 0.04 c 0.097563,0.17932 1.3904,0.3845 1.4982,0.52913 0.10805,0.14487 -0.1696,1.4307 0.00936,1.4811 0.18536,0.05222 0.82838,-1.1379 1.0129,-1.1929 0.17705,-0.05278 1.3609,0.58692 1.4795,0.45118 l -0.002,-0.0022 c -0.9983,-1.223 -3.0144,-1.321 -3.7352,-1.315 z"
       id="path126"
       style="opacity:0.75;fill:url(#m)"
       inkscape:connector-curvature="0" />
  </g>
  <path
     d="m-20.513-19.514h16.968v13.932h-16.968z"
     fill="none"
     opacity=".3"
     stroke="url(#i)"
     stroke-linecap="round"
     transform="matrix(-.99999 .0040203 .00228 -1 0 0)"
     id="path130" />
  <path
     d="m3 5 .00592 9c.5178-.009 17.601-3.318 17.994-3.477l-.000061-5.5233z"
     id="path132"
     fill-rule="evenodd"
     fill="url(#e)"
     opacity=".15" />
  <rect
     style="opacity:1;fill:#c72105;fill-opacity:1;stroke:none;stroke-width:0.77459669;stroke-linecap:round;stroke-linejoin:round;stroke-miterlimit:4;stroke-dasharray:none;stroke-opacity:0.25614038"
     id="rect961"
     width="1"
     height="3"
     x="6"
     y="14" />
  <rect
     y="15"
     x="7"
     height="1"
     width="1"
     id="rect963"
     style="opacity:1;fill:#c72105;fill-opacity:1;stroke:none;stroke-width:0.44721362;stroke-linecap:round;stroke-linejoin:round;stroke-miterlimit:4;stroke-dasharray:none;stroke-opacity:0.25614038" />
  <rect
     style="opacity:1;fill:#f3590a;fill-opacity:1;stroke:none;stroke-width:0.44721362;stroke-linecap:round;stroke-linejoin:round;stroke-miterlimit:4;stroke-dasharray:none;stroke-opacity:0.25614038"
     id="rect965"
     width="1"
     height="1"
     x="8"
     y="14" />
  <rect
     y="14"
     x="5"
     height="1"
     width="1"
     id="rect967"
     style="opacity:1;fill:#c72105;fill-opacity:1;stroke:none;stroke-width:0.44721362;stroke-linecap:round;stroke-linejoin:round;stroke-miterlimit:4;stroke-dasharray:none;stroke-opacity:0.25614038" />
  <rect
     style="opacity:1;fill:#c72105;fill-opacity:1;stroke:none;stroke-width:0.44721362;stroke-linecap:round;stroke-linejoin:round;stroke-miterlimit:4;stroke-dasharray:none;stroke-opacity:0.25614038"
     id="rect969"
     width="1"
     height="1"
     x="8"
     y="16" />
  <rect
     y="13"
     x="8"
     height="1"
     width="1"
     id="rect971"
     style="opacity:1;fill:#f3590a;fill-opacity:1;stroke:none;stroke-width:0.44721362;stroke-linecap:round;stroke-linejoin:round;stroke-miterlimit:4;stroke-dasharray:none;stroke-opacity:0.25614038" />
  <rect
     style="opacity:1;fill:#f3590a;fill-opacity:1;stroke:none;stroke-width:0.44721362;stroke-linecap:round;stroke-linejoin:round;stroke-miterlimit:4;stroke-dasharray:none;stroke-opacity:0.25614038"
     id="rect973"
     width="1"
     height="1"
     x="9"
     y="13" />
  <rect
     style="opacity:1;fill:#c72105;fill-opacity:1;stroke:none;stroke-width:0.44721362;stroke-linecap:round;stroke-linejoin:round;stroke-miterlimit:4;stroke-dasharray:none;stroke-opacity:0.25614038"
     id="rect975"
     width="1"
     height="1"
     x="7"
     y="14" />
  <rect
     y="13"
     x="7"
     height="1"
     width="1"
     id="rect977"
     style="opacity:1;fill:#f3590a;fill-opacity:1;stroke:none;stroke-width:0.44721362;stroke-linecap:round;stroke-linejoin:round;stroke-miterlimit:4;stroke-dasharray:none;stroke-opacity:0.25614038" />
  <rect
     style="opacity:1;fill:#f3590a;fill-opacity:1;stroke:none;stroke-width:0.44721362;stroke-linecap:round;stroke-linejoin:round;stroke-miterlimit:4;stroke-dasharray:none;stroke-opacity:0.25614038"
     id="rect979"
     width="1"
     height="1"
     x="6"
     y="13" />
  <rect
     y="12"
     x="6"
     height="1"
     width="1"
     id="rect981"
     style="opacity:1;fill:#f3590a;fill-opacity:1;stroke:none;stroke-width:0.44721362;stroke-linecap:round;stroke-linejoin:round;stroke-miterlimit:4;stroke-dasharray:none;stroke-opacity:0.25614038" />
  <path
     style="opacity:1;fill:#2399eb;fill-opacity:1;stroke:none;stroke-width:1;stroke-linecap:round;stroke-linejoin:round;stroke-miterlimit:4;stroke-dasharray:none;stroke-opacity:0.25614038"
     d="m 4,6 v 5 h 4 v 1 h 2 v -1 h 4 v 2 h 3 v -1 h 3 V 6 Z"
     id="rect987"
     inkscape:connector-curvature="0"
     sodipodi:nodetypes="ccccccccccccc" />
  <path
     style="opacity:1;fill:#ffffff;fill-opacity:1;stroke:none;stroke-width:1;stroke-linecap:round;stroke-linejoin:round;stroke-miterlimit:4;stroke-dasharray:none;stroke-opacity:0.25614038"
     d="M 4 10 L 4 11 L 8 11 L 8 12 L 10 12 L 10 11 L 9 11 L 9 10 L 4 10 z M 10 11 L 14 11 L 14 13 L 15 13 L 17 13 L 17 12 L 15 12 L 15 10 L 14 10 L 10 10 L 10 11 z M 17 12 L 20 12 L 20 11 L 17 11 L 17 12 z "
     id="rect992" />
</svg>
