<svg height="24" viewBox="0 0 6.3499998 6.3500002" width="24" xmlns="http://www.w3.org/2000/svg" xmlns:xlink="http://www.w3.org/1999/xlink"><radialGradient id="a" cx="65.297462" cy="48.216358" gradientTransform="matrix(0 .52544994 -.5716256 0 46.193389 -21.123812)" gradientUnits="userSpaceOnUse" r="31.000002"><stop offset="0" stop-color="#cdf87e"/><stop offset=".26238" stop-color="#a2e34f"/><stop offset=".66093999" stop-color="#68b723"/><stop offset="1" stop-color="#1d7e0d"/></radialGradient><linearGradient id="b" gradientTransform="matrix(.2817955 0 0 .2800956 12.196562 12.014885)" gradientUnits="userSpaceOnUse" x1="24.138529" x2="24.138529" y1="10.631441" y2="35.62291"><stop offset="0" stop-color="#fff"/><stop offset=".00000002" stop-color="#fff" stop-opacity=".235294"/><stop offset="1" stop-color="#fff" stop-opacity=".156863"/><stop offset="1" stop-color="#fff" stop-opacity=".392157"/></linearGradient><linearGradient id="c" gradientTransform="matrix(.2817955 0 0 .2800956 12.178741 12.02218)" gradientUnits="userSpaceOnUse" x1="24.138529" x2="24.138529" y1="21.34207" y2="24.912279"><stop offset="0" stop-color="#fff"/><stop offset=".00000019" stop-color="#fff" stop-opacity=".235294"/><stop offset="1" stop-color="#fff" stop-opacity=".156863"/><stop offset="1" stop-color="#fff" stop-opacity=".392157"/></linearGradient><linearGradient id="d" gradientTransform="matrix(-.00271019 .50014348 -.5122065 -.00277662 4.86774 282.63105)" gradientUnits="userSpaceOnUse" x1="17.114876" x2="36.742191" y1="4.247354" y2="4.223197"><stop offset="0" stop-color="#fff394"/><stop offset=".262" stop-color="#ffe16b"/><stop offset=".661" stop-color="#f9c440"/><stop offset="1" stop-color="#d48e15"/></linearGradient><linearGradient id="e" gradientTransform="matrix(.1727615 -.01573307 .01698853 .18816575 .773424 285.38418)" gradientUnits="userSpaceOnUse" x1="2.640396" x2=".446104" y1="36.642403" y2="58.956825"><stop offset="0" stop-color="#fff"/><stop offset="0" stop-color="#fff" stop-opacity=".235"/><stop offset=".99999732" stop-color="#fff" stop-opacity=".157"/><stop offset="1" stop-color="#fff" stop-opacity=".392"/></linearGradient><linearGradient id="f" gradientTransform="matrix(.26133509 0 0 .26235993 .079139 294.15808)" gradientUnits="userSpaceOnUse" x1="10.833898" x2="8.809039" y1="8.815129" y2="5.789705"><stop offset="0" stop-color="#ffe16b"/><stop offset="1" stop-color="#fff"/></linearGradient><g transform="translate(1.5875 -291.17915)"><path d="m-.79375001 291.84063h4.76250001c.07329 0 .1322917.059.1322917.13229v3.83644c-.4105345.50423-.8093896.8783-2.5135417 1.05833h-2.38125001c-.0732896 0-.13229166-.059-.13229166-.13229v-4.76248c0-.0733.0590021-.13229.13229166-.13229z" style="stroke:#ad5f00;stroke-width:.264583;stroke-linecap:round;stroke-linejoin:round;stroke-opacity:.501961;fill:url(#d)"/><path d="m12.306641 5.9394531c-.285286.0267868-.583578.0877244-.894532.1914063-1.119211.3734173-1.7949202 1.1825374-2.0878902 1.59375-.5579226.7831181-.7679269 1.3527772-.9824219 1.7128906-.4321255.725518-2.280735 3.059939-4.6367188 4.044922-.00493.0025-.00876.004-.013672.0078-.71664.305386-1.5275034.852908-1.7871093 1.904297-.050443.204289-.061415.403431-.056641.597657h4.1542969a.49814426.49814426 0 0 0 .050781 0c3.2522751-.343597 5.2987283-.87002 6.7539063-1.585938 1.455177-.71588 2.292487-1.624465 3.080078-2.591797a.49814426.49814426 0 0 0 .109375-.316406v-3.5781131c-.414707-.4667242-.905517-.9777046-1.513671-1.5605469-.584756-.2766614-1.319925-.5002823-2.175781-.4199219z" fill="#ad5f00" opacity=".05" transform="matrix(.26458333 0 0 .26458333 0 292.76665)"/><path d="m12.464844 7.8417969c-.151221.01164-.305234.039859-.455078.089844-.599378.199937-.936241.6002317-1.144532.8925782-.416581.5847307-.574385 1.0458419-.8925778 1.5800779-.6363866 1.068472-2.6023137 3.603092-5.5371093 4.830078-.5084266.216615-.7093291.488462-.6972657.757813h2.2636719a.49814426.49814426 0 0 0 .050781 0c3.2522751-.343597 5.2987289-.87002 6.7539069-1.585938 1.455177-.71588 2.292487-1.624465 3.080078-2.591797a.49814426.49814426 0 0 0 .109375-.316406v-.638672c-.255697-.306501-.569775-.609464-.996094-.859375.128693.053291-.317803.381065-.427734-.6660156-.058541-.5493922-.39993-1.027577-.900391-1.2617188-.312834-.1479685-.753369-.265388-1.207031-.2304687z" fill="#ad5f00" opacity=".15" transform="matrix(.26458333 0 0 .26458333 0 292.76665)"/><g stroke-width=".264583"><path d="m-.66145833 292.10519h4.49791663v3.57188c-.1322916.52916-1.0583333.79375-1.7197917.92604h-2.77812493z" fill="none" opacity=".5" stroke="url(#e)"/><path d="m1.5875 296.86769c1.7047378-.71273 1.4375695-1.78375 1.8520833-1.5875.076367.72738.5291667.66146.6614584.52917-.034011-.0797.052003.73173-2.5135417 1.05833z" fill="url(#f)" stroke="#ad5f00" stroke-opacity=".501961"/></g></g><g transform="scale(.26458333)"><path d="m16.482179 16.507295v-3h4v3h3v4h-3v2.999991h-4v-2.999991h-2.989465v-4z" fill="url(#a)"/><g fill="none"><path d="m17.5 18.004404v-3.504404h2v3.5m0 1v3.5h-2v-3.5" opacity=".5" stroke="url(#b)"/><path d="m16.482179 16.507295v-3h4v3h3v4h-3v2.999991h-4v-2.999991h-2.989465v-4z" opacity=".5" stroke="#0f5a00" stroke-linecap="round" stroke-linejoin="round"/><path d="m20 17.507295 2.482179-.0073v2l-2.482179.0073m-3 0-2.5-.0073v-2l2.5.0073" opacity=".5" stroke="url(#c)"/></g></g></svg>