<?xml version="1.0" encoding="UTF-8" standalone="no"?>
<svg
   xmlns:dc="http://purl.org/dc/elements/1.1/"
   xmlns:cc="http://creativecommons.org/ns#"
   xmlns:rdf="http://www.w3.org/1999/02/22-rdf-syntax-ns#"
   xmlns:svg="http://www.w3.org/2000/svg"
   xmlns="http://www.w3.org/2000/svg"
   xmlns:xlink="http://www.w3.org/1999/xlink"
   xmlns:sodipodi="http://sodipodi.sourceforge.net/DTD/sodipodi-0.dtd"
   xmlns:inkscape="http://www.inkscape.org/namespaces/inkscape"
   height="24"
   width="24"
   version="1.1"
   id="svg27"
   sodipodi:docname="lc_movepageup.svg"
   inkscape:version="0.92.5 (2060ec1f9f, 2020-04-08)">
  <metadata
     id="metadata33">
    <rdf:RDF>
      <cc:Work
         rdf:about="">
        <dc:format>image/svg+xml</dc:format>
        <dc:type
           rdf:resource="http://purl.org/dc/dcmitype/StillImage" />
        <dc:title></dc:title>
      </cc:Work>
    </rdf:RDF>
  </metadata>
  <defs
     id="defs31">
    <linearGradient
       id="m"
       gradientTransform="matrix(0.0207,0,0,0.00618,7.515,19.235)"
       gradientUnits="userSpaceOnUse"
       x1="302.85999"
       x2="302.85999"
       xlink:href="#l"
       y1="366.64999"
       y2="609.51001" />
    <linearGradient
       id="l">
      <stop
         offset="0"
         stop-opacity="0"
         id="stop53" />
      <stop
         offset=".5"
         id="stop55" />
      <stop
         offset="1"
         stop-opacity="0"
         id="stop57" />
    </linearGradient>
    <radialGradient
       id="k"
       cx="605.71002"
       cy="486.64999"
       gradientTransform="matrix(-0.00803,0,0,0.00618,14.84,19.235)"
       gradientUnits="userSpaceOnUse"
       r="117.14"
       xlink:href="#a-3" />
    <linearGradient
       id="j"
       xlink:href="#a-3" />
    <linearGradient
       id="a-3">
      <stop
         offset="0"
         id="stop2-6" />
      <stop
         offset="1"
         stop-opacity="0"
         id="stop4-7" />
    </linearGradient>
    <radialGradient
       id="i"
       cx="605.71002"
       cy="486.64999"
       gradientTransform="matrix(0.00803,0,0,0.00618,15.16,19.235)"
       gradientUnits="userSpaceOnUse"
       r="117.14"
       xlink:href="#a-3" />
    <linearGradient
       id="f"
       gradientTransform="matrix(0.3143,0,0,0.32593,0.457,-0.322)"
       gradientUnits="userSpaceOnUse"
       x1="25.132"
       x2="25.132"
       y1="0.98500001"
       y2="47.013">
      <stop
         offset="0"
         stop-color="#f4f4f4"
         id="stop31" />
      <stop
         offset="1"
         stop-color="#dbdbdb"
         id="stop33" />
    </linearGradient>
    <linearGradient
       id="g"
       gradientTransform="matrix(0.2538,0,0,0.30502,19.13,-0.685)"
       gradientUnits="userSpaceOnUse"
       x1="-51.785999"
       x2="-51.785999"
       y1="50.785999"
       y2="2.9059999">
      <stop
         offset="0"
         stop-color="#a0a0a0"
         id="stop36" />
      <stop
         offset="1"
         stop-color="#bebebe"
         id="stop38" />
    </linearGradient>
    <linearGradient
       id="h"
       gradientTransform="matrix(0.24324,0,0,0.35135,2.162,-0.432)"
       gradientUnits="userSpaceOnUse"
       x1="24"
       x2="24"
       y1="5.5640001"
       y2="43">
      <stop
         offset="0"
         stop-color="#fff"
         id="stop41" />
      <stop
         offset=".036"
         stop-color="#fff"
         stop-opacity=".235"
         id="stop43" />
      <stop
         offset=".951"
         stop-color="#fff"
         stop-opacity=".157"
         id="stop45" />
      <stop
         offset="1"
         stop-color="#fff"
         stop-opacity=".392"
         id="stop47" />
    </linearGradient>
    <linearGradient
       inkscape:collect="always"
       xlink:href="#l"
       id="linearGradient935"
       gradientUnits="userSpaceOnUse"
       gradientTransform="matrix(0.0207,0,0,0.00618,7.515,19.235)"
       x1="302.85999"
       y1="366.64999"
       x2="302.85999"
       y2="609.51001" />
    <radialGradient
       inkscape:collect="always"
       xlink:href="#a-3"
       id="radialGradient937"
       gradientUnits="userSpaceOnUse"
       gradientTransform="matrix(-0.00803,0,0,0.00618,14.84,19.235)"
       cx="605.71002"
       cy="486.64999"
       r="117.14" />
    <radialGradient
       inkscape:collect="always"
       xlink:href="#a-3"
       id="radialGradient939"
       gradientUnits="userSpaceOnUse"
       gradientTransform="matrix(0.00803,0,0,0.00618,15.16,19.235)"
       cx="605.71002"
       cy="486.64999"
       r="117.14" />
    <linearGradient
       inkscape:collect="always"
       xlink:href="#f"
       id="linearGradient941"
       gradientUnits="userSpaceOnUse"
       gradientTransform="matrix(0.3143,0,0,0.32593,0.457,-0.322)"
       x1="25.132"
       y1="0.98500001"
       x2="25.132"
       y2="47.013" />
    <linearGradient
       inkscape:collect="always"
       xlink:href="#g"
       id="linearGradient943"
       gradientUnits="userSpaceOnUse"
       gradientTransform="matrix(0.2538,0,0,0.30502,19.13,-0.685)"
       x1="-51.785999"
       y1="50.785999"
       x2="-51.785999"
       y2="2.9059999" />
    <linearGradient
       inkscape:collect="always"
       xlink:href="#h"
       id="linearGradient945"
       gradientUnits="userSpaceOnUse"
       gradientTransform="matrix(0.24324,0,0,0.35135,2.162,-0.432)"
       x1="24"
       y1="5.5640001"
       x2="24"
       y2="43" />
    <radialGradient
       id="b-5"
       cx="24.837126"
       cy="36.421127"
       gradientTransform="matrix(-0.52995454,0,0,-0.35307735,22.512547,21.835677)"
       gradientUnits="userSpaceOnUse"
       r="15.644737">
      <stop
         offset="0"
         id="stop7-3" />
      <stop
         offset="1"
         stop-opacity="0"
         id="stop9-5" />
    </radialGradient>
    <linearGradient
       id="linearGradient997"
       gradientTransform="matrix(0,-1,-1,0,23.002927,24.000361)"
       gradientUnits="userSpaceOnUse"
       x1="21.110256"
       x2="1.935627"
       y1="6.0029268"
       y2="6.0029268">
      <stop
         offset="0"
         stop-color="#64baff"
         id="stop2-62" />
      <stop
         offset="1"
         stop-color="#3689e6"
         id="stop4-9" />
    </linearGradient>
    <linearGradient
       id="linearGradient1003"
       gradientTransform="matrix(0,1.004639,1,0,-41.537059,-15.538205)"
       gradientUnits="userSpaceOnUse"
       x1="20.443369"
       x2="35.374104"
       y1="54.037033"
       y2="54.037033">
      <stop
         offset="0"
         stop-color="#fff"
         id="stop12-1" />
      <stop
         offset=".46875"
         stop-color="#fff"
         stop-opacity=".235294"
         id="stop14-2" />
      <stop
         offset="1"
         stop-color="#fff"
         stop-opacity=".156863"
         id="stop16-7" />
      <stop
         offset="1"
         stop-color="#fff"
         stop-opacity=".392157"
         id="stop18-0" />
    </linearGradient>
  </defs>
  <sodipodi:namedview
     pagecolor="#ffffff"
     bordercolor="#666666"
     borderopacity="1"
     objecttolerance="10"
     gridtolerance="10"
     guidetolerance="10"
     inkscape:pageopacity="0"
     inkscape:pageshadow="2"
     inkscape:window-width="1366"
     inkscape:window-height="699"
     id="namedview29"
     showgrid="true"
     inkscape:zoom="19.666667"
     inkscape:cx="11.649011"
     inkscape:cy="13.482761"
     inkscape:window-x="0"
     inkscape:window-y="0"
     inkscape:window-maximized="1"
     inkscape:current-layer="svg27">
    <inkscape:grid
       type="xygrid"
       id="grid914" />
  </sodipodi:namedview>
  <linearGradient
     id="a"
     gradientTransform="matrix(0,-1,-1,0,23.002927,24.000361)"
     gradientUnits="userSpaceOnUse"
     x1="21.110256"
     x2="1.935627"
     y1="6.002927"
     y2="6.002927">
    <stop
       offset="0"
       stop-color="#64baff"
       id="stop2" />
    <stop
       offset="1"
       stop-color="#3689e6"
       id="stop4" />
  </linearGradient>
  <radialGradient
     id="b"
     cx="24.837126"
     cy="36.421127"
     gradientTransform="matrix(-.52995454 0 0 -.35307735 22.512547 21.835677)"
     gradientUnits="userSpaceOnUse"
     r="15.644737">
    <stop
       offset="0"
       id="stop7" />
    <stop
       offset="1"
       stop-opacity="0"
       id="stop9" />
  </radialGradient>
  <linearGradient
     id="c"
     gradientTransform="matrix(0,1.004639,1,0,-41.537059,-15.538205)"
     gradientUnits="userSpaceOnUse"
     x1="20.443369"
     x2="35.374104"
     y1="54.037033"
     y2="54.037033">
    <stop
       offset="0"
       stop-color="#fff"
       id="stop12" />
    <stop
       offset=".46875"
       stop-color="#fff"
       stop-opacity=".235294"
       id="stop14" />
    <stop
       offset="1"
       stop-color="#fff"
       stop-opacity=".156863"
       id="stop16" />
    <stop
       offset="1"
       stop-color="#fff"
       stop-opacity=".392157"
       id="stop18" />
  </linearGradient>
  <g
     id="g979">
    <g
       id="g933"
       transform="translate(-6,-4)">
      <path
         style="opacity:0.15;fill:url(#linearGradient935)"
         inkscape:connector-curvature="0"
         id="path923"
         d="M 10,21.5 H 20 V 23 H 10 Z" />
      <path
         style="opacity:0.15;fill:url(#radialGradient937)"
         inkscape:connector-curvature="0"
         id="path925"
         d="M 10,21.5 V 23 C 9.586,23.003 9,22.664 9,22.25 9,21.836 9.462,21.5 10,21.5 Z" />
      <path
         style="opacity:0.15;fill:url(#radialGradient939)"
         inkscape:connector-curvature="0"
         id="path927"
         d="M 20,21.5 V 23 c 0.414,0.003 1,-0.336 1,-0.75 0,-0.414 -0.462,-0.75 -1,-0.75 z" />
      <path
         style="fill:url(#linearGradient941);stroke:url(#linearGradient943);stroke-linejoin:round"
         inkscape:connector-curvature="0"
         id="path929"
         transform="translate(7,6)"
         d="m 2.5,0.5 h 11 v 15 h -11 z" />
      <path
         style="fill:none;stroke:url(#linearGradient945);stroke-linecap:round"
         inkscape:connector-curvature="0"
         id="path931"
         transform="translate(7,6)"
         d="m 12.5,14.5 h -9 v -13 h 9 z" />
    </g>
    <path
       style="opacity:0.5;fill:#000000;fill-opacity:1;stroke:none"
       d="M 9.5 5.9941406 C 9.4271987 5.9941406 9.3591482 6.0113233 9.296875 6.0390625 C 9.2390124 6.064837 9.186241 6.0979647 9.1425781 6.1425781 C 9.0499288 6.2332346 8.9921875 6.3595351 8.9921875 6.5 C 8.9921875 7.0473832 8.9954875 7.6758465 8.9921875 8.25 C 8.9921875 8.6655 9.2151875 9 9.4921875 9 C 9.7691875 9 9.9921875 8.6655 9.9921875 8.25 L 9.9921875 7.3027344 C 9.9932957 7.2822651 10 7.2650526 10 7.2441406 L 10 7 L 10.492188 7 C 10.502575 7 10.511258 6.9947589 10.521484 6.9941406 L 11.5 6.9941406 C 11.777 6.9941406 12 6.7711406 12 6.4941406 C 12 6.2171406 11.777 5.9941406 11.5 5.9941406 L 9.5 5.9941406 z M 14.75 5.9941406 C 14.734759 5.9941406 14.722042 5.9994082 14.707031 6 L 13.742188 6 C 13.326687 6 12.992188 6.223 12.992188 6.5 C 12.992188 6.777 13.326688 7 13.742188 7 L 15.242188 7 C 15.452486 7 15.641413 6.9419501 15.777344 6.8496094 C 15.842838 6.8051179 15.896671 6.753703 15.933594 6.6953125 C 15.975016 6.6331553 16 6.5667687 16 6.4941406 C 16 6.2171406 15.6655 5.9941406 15.25 5.9941406 L 14.75 5.9941406 z M 20.560547 5.9941406 C 20.451482 5.989192 20.341037 6.00861 20.242188 6 L 18.742188 6 C 18.326687 6 17.992188 6.223 17.992188 6.5 C 17.992188 6.777 18.326687 7 18.742188 7 L 19.992188 7 L 19.992188 8 C 19.992188 8.554 20.215187 9 20.492188 9 C 20.769188 9 20.992188 8.554 20.992188 8 L 20.992188 7 C 20.992188 6.6685409 21.047726 6.3539983 20.867188 6.1367188 C 20.776917 6.0280786 20.669612 5.9990906 20.560547 5.9941406 z M 9.5 9.9941406 C 9.223 9.9941406 9 10.3302 9 10.748047 L 9 11.240234 C 9 11.658081 9.223 11.994141 9.5 11.994141 C 9.777 11.994141 10 11.658081 10 11.240234 L 10 10.748047 C 10 10.3302 9.777 9.9941406 9.5 9.9941406 z M 20.492188 11 C 20.215187 11 19.992188 11.3345 19.992188 11.75 L 19.992188 13.25 C 19.992188 13.6655 20.215187 14 20.492188 14 C 20.769188 14 20.992188 13.6655 20.992188 13.25 L 20.992188 11.75 C 20.992188 11.3345 20.769188 11 20.492188 11 z M 9.5 13.994141 C 9.223 13.994141 9 14.328641 9 14.744141 L 9 16.244141 C 9 16.659641 9.223 16.994141 9.5 16.994141 C 9.777 16.994141 10 16.659641 10 16.244141 L 10 14.744141 C 10 14.328641 9.777 13.994141 9.5 13.994141 z M 20.492188 16 C 20.215187 16 19.992188 16.336059 19.992188 16.753906 L 19.992188 17.246094 C 19.992188 17.663941 20.215187 18 20.492188 18 C 20.769188 18 20.992188 17.663941 20.992188 17.246094 L 20.992188 16.753906 C 20.992188 16.336059 20.769188 16 20.492188 16 z M 9.5 18.994141 C 9.223 18.994141 9 19.440141 9 19.994141 L 9 20.994141 C 9 21.3256 8.944461 21.640142 9.125 21.857422 C 9.21527 21.96606 9.3225756 21.9951 9.4316406 22 C 9.5407056 22.00491 9.65115 21.985541 9.75 21.994141 L 11.25 21.994141 C 11.6655 21.994141 12 21.771141 12 21.494141 C 12 21.217141 11.6655 20.994141 11.25 20.994141 L 10 20.994141 L 10 19.994141 C 10 19.440141 9.777 18.994141 9.5 18.994141 z M 20.5 18.994141 C 20.223 18.994141 20 19.328641 20 19.744141 L 20 20.691406 C 19.998906 20.711745 19.992188 20.729225 19.992188 20.75 L 19.992188 20.994141 L 19.5 20.994141 C 19.489612 20.994141 19.48093 20.999382 19.470703 21 L 18.492188 21 C 18.215187 21 17.992188 21.223 17.992188 21.5 C 17.992188 21.777 18.215187 22 18.492188 22 L 20.492188 22 C 20.56497 22 20.633052 21.982804 20.695312 21.955078 C 20.752118 21.931131 20.801989 21.895553 20.845703 21.853516 C 20.846085 21.853134 20.845323 21.851946 20.845703 21.851562 C 20.939716 21.760756 21 21.635776 21 21.494141 C 21 20.946758 20.9967 20.318295 21 19.744141 C 21 19.328641 20.777 18.994141 20.5 18.994141 z M 14.75 20.994141 C 14.537183 20.994141 14.347192 21.052188 14.210938 21.146484 C 14.14607 21.18973 14.096205 21.242041 14.058594 21.298828 C 14.017604 21.360716 13.992188 21.427774 13.992188 21.5 C 13.992187 21.777 14.326688 22 14.742188 22 L 15.242188 22 C 15.257429 22 15.270146 21.994732 15.285156 21.994141 L 16.25 21.994141 C 16.6655 21.994141 17 21.771141 17 21.494141 C 17 21.217141 16.6655 20.994141 16.25 20.994141 L 14.75 20.994141 z "
       id="rect4043" />
  </g>
  <g
     id="g846"
     transform="translate(0,-3)">
    <path
       style="opacity:0.14117599;fill:url(#b-5);fill-rule:evenodd"
       inkscape:connector-curvature="0"
       id="path21"
       transform="matrix(-1,0,0,1,20.85018,8.547609)"
       d="m 1.059,8.976195 a 8.2909995,5.5238047 0 1 1 16.581999,0 8.2909995,5.5238047 0 0 1 -16.581999,0 z" />
    <path
       style="fill:url(#a);stroke:#002e99;stroke-linecap:round;stroke-linejoin:round;stroke-opacity:0.50196078"
       inkscape:connector-curvature="0"
       id="path23"
       d="m 19.489256,11.952413 h -0.0039 c 0,-0.162386 -0.06441,-0.29734 -0.167969,-0.394532 -0.0074,-0.0067 -0.01451,-0.01441 -0.02148,-0.02149 L 12.346677,3.644532 C 12.255697,3.553632 12.132571,3.5 11.997068,3.5 11.862532,3.5 11.7462,3.55363 11.649411,3.644532 l -6.949218,7.891864 c -0.007,0.0071 -0.01412,0.01484 -0.02148,0.02149 -0.1035639,0.09719 -0.1679689,0.232145 -0.1679689,0.394532 0,0.301717 0.215491,0.527343 0.505858,0.527343 h 3.988275 c 0.271008,-1.89e-4 0.49805,0.237748 0.49805,0.529297 v 7.97727 c 0,0.285849 0.214151,0.5 0.4999999,0.5 h 4.000001 c 0.285849,0 0.5,-0.214151 0.5,-0.5 v -8.026103 c 0.02501,-0.267637 0.241068,-0.480647 0.496091,-0.480469 h 3.990234 c 0.290366,0 0.500003,-0.225626 0.500003,-0.527343 z" />
    <path
       style="opacity:0.6;fill:none;stroke:url(#c)"
       inkscape:connector-curvature="0"
       id="path25"
       d="M 11.999974,4.7050783 6.1193447,11.501953 H 9.0019115 C 9.8291499,11.502221 10.499691,12.172762 10.499959,13 h 0.002 v 7.5 h 2.987202 V 13 h 0.002 c 2.21e-4,-0.827238 0.670762,-1.497779 1.498,-1.498047 h 2.883743 z" />
  </g>
</svg>
