<svg xmlns="http://www.w3.org/2000/svg" xmlns:xlink="http://www.w3.org/1999/xlink" height="24" width="24"><defs><linearGradient id="e"><stop offset="0" stop-color="#cd9ef7"/><stop offset="1" stop-color="#a56de2"/></linearGradient><linearGradient gradientTransform="matrix(.45946 0 0 .45946 .974 .972)" gradientUnits="userSpaceOnUse" xlink:href="#a" id="j" y2="41.414" x2="24" y1="6.591" x1="24"/><linearGradient id="a"><stop offset="0" stop-color="#fff"/><stop offset="0" stop-color="#fff" stop-opacity=".235"/><stop offset="1" stop-color="#fff" stop-opacity=".157"/><stop offset="1" stop-color="#fff" stop-opacity=".392"/></linearGradient><radialGradient gradientTransform="matrix(2.00378 0 0 1.4 27.988 -17.4)" gradientUnits="userSpaceOnUse" xlink:href="#b" id="f" fy="43.5" fx="4.993" r="2.5" cy="43.5" cx="4.993"/><linearGradient id="b"><stop offset="0" stop-color="#181818"/><stop offset="1" stop-color="#181818" stop-opacity="0"/></linearGradient><radialGradient gradientTransform="matrix(2.00378 0 0 1.4 -20.012 -104.4)" gradientUnits="userSpaceOnUse" xlink:href="#c" id="g" fy="43.5" fx="4.993" r="2.5" cy="43.5" cx="4.993"/><linearGradient id="c"><stop offset="0" stop-color="#181818"/><stop offset="1" stop-color="#181818" stop-opacity="0"/></linearGradient><linearGradient gradientUnits="userSpaceOnUse" xlink:href="#d" id="h" y2="39.999" x2="25.058" y1="47.028" x1="25.058"/><linearGradient id="d"><stop offset="0" stop-color="#181818" stop-opacity="0"/><stop offset=".5" stop-color="#181818"/><stop offset="1" stop-color="#181818" stop-opacity="0"/></linearGradient><linearGradient gradientUnits="userSpaceOnUse" y2="21.532" x2="13.608" y1="2.546" x1="13.608" id="i" xlink:href="#e"/></defs><g opacity=".4"><path fill="url(#f)" d="M38 40h5v7h-5z" transform="matrix(.57895 0 0 .42857 -1.895 2.857)"/><path transform="matrix(-.57895 0 0 -.42857 -1.895 2.857)" fill="url(#g)" d="M-10-47h5v7h-5z"/><path fill="url(#h)" d="M10 40h28v7H10z" transform="matrix(.57895 0 0 .42857 -1.895 2.857)"/></g><rect width="19" height="19" rx="1" ry="1" x="2.5" y="2.5" color="#000" overflow="visible" fill="url(#i)"/><path opacity=".5" fill="none" stroke="url(#j)" stroke-linecap="round" stroke-linejoin="round" d="M3.5 3.5h17v17h-17z"/><rect width="19" height="19" rx="1" ry="1" x="2.5" y="2.5" color="#000" overflow="visible" opacity=".5" fill="none" stroke="#7239b3" stroke-linecap="round" stroke-linejoin="round"/></svg>