<svg height="24" viewBox="0 0 6.3499999 6.3500002" width="24" xmlns="http://www.w3.org/2000/svg" xmlns:xlink="http://www.w3.org/1999/xlink"><linearGradient id="a" gradientTransform="matrix(.12851221 0 0 .12072849 -5.862408 -1.759769)" gradientUnits="userSpaceOnUse" x1="68.264526" x2="68.264526" y1="14.576253" y2="62.790501"><stop offset="0" stop-color="#f4f4f4"/><stop offset="1" stop-color="#dbdbdb"/></linearGradient><linearGradient id="b" gradientTransform="matrix(.00931521 0 0 -.00217892 -.191783 7.148894)" gradientUnits="userSpaceOnUse" x1="302.85715" x2="302.85715" y1="366.64789" y2="609.50507"><stop offset="0" stop-opacity="0"/><stop offset=".5"/><stop offset="1" stop-opacity="0"/></linearGradient><radialGradient id="c" cx="605.71429" cy="486.64789" gradientTransform="matrix(-.00318786 0 0 -.00217892 2.847237 7.148892)" gradientUnits="userSpaceOnUse" r="117.14286" xlink:href="#d"/><linearGradient id="d"><stop offset="0"/><stop offset="1" stop-opacity="0"/></linearGradient><radialGradient id="e" cx="605.71429" cy="486.64789" gradientTransform="matrix(.00318786 0 0 -.00217892 3.502763 7.148892)" gradientUnits="userSpaceOnUse" r="117.14286" xlink:href="#d"/><linearGradient id="f" gradientTransform="matrix(.10726343 0 0 .13586711 .600522 -.085801)" gradientUnits="userSpaceOnUse" x1="21.534782" x2="21.534782" y1="6.473609" y2="41.526241"><stop offset="0" stop-color="#fff"/><stop offset=".0001" stop-color="#fff" stop-opacity=".235294"/><stop offset=".99989998" stop-color="#fff" stop-opacity=".156863"/><stop offset="1" stop-color="#fff" stop-opacity=".392157"/></linearGradient><linearGradient id="g" gradientTransform="matrix(.13833623 0 0 .14089121 -.390533 .254747)" gradientUnits="userSpaceOnUse" x1="32.892288" x2="36.358372" y1="8.059012" y2="5.456536"><stop offset="0" stop-color="#fefefe"/><stop offset="1" stop-color="#cbcbcb"/></linearGradient><g stroke-width=".264583"><path d="m.92604139 6.3499982h4.49791611v-.5291666h-4.49791611z" fill="url(#b)" opacity=".15"/><path d="m.92604165 6.3499742v-.5291376c-.16416601-.00106-.39687499.1185545-.39687499.2646045s.1831975.2645331.39687499.2645331z" fill="url(#c)" opacity=".15"/><path d="m5.4239583 6.3499742v-.5291376c.1641657-.00106.396875.1185545.396875.2646045s-.1831978.2645331-.396875.2645331z" fill="url(#e)" opacity=".15"/><path d="m3.7041666.39687851c1.2589714.76073499 1.190625 1.05833329 1.7197917 1.58749999v3.9687499h-4.49791665v-5.55624989z" fill="url(#a)"/><path d="m5.1593749 5.6885507h-3.9687499v-5.02708319h2.4386434l1.5301065 1.06676009z" fill="none" stroke="url(#f)" stroke-linecap="round"/></g><path d="m.92603107.39686801 2.70216043.0001905c.2511319 0 1.7957718 1.29284949 1.7957718 1.71961709l.0000053 3.8364637s-2.9986258 0-4.49793753 0c0-1.8520887 0-5.55627129 0-5.55627129z" fill="none" stroke="#000" stroke-linejoin="round" stroke-opacity=".3" stroke-width=".264563"/><g fill-rule="evenodd"><path d="m2.8801615.54101589c.3977561 0 .2948385 2.10482641.2948385 2.10482641s2.1166663-.5630916 2.1166663 0c0-.1371997.025585-.4863571-.00185-.5291667-.1970161-.3075807-1.3134569-1.45411542-1.6207493-1.54457382-.4329615-.04559326-.7889346-.03108589-.7889346-.03108589z" opacity=".05" stroke-width=".264583"/><path d="m3.0670738.52948006c.4160811 0 .3725095 1.85177894.3725095 1.85177894s1.8666113-.3244559 1.8666113.2645833c0-.1435206.011218-.3785897-.017463-.423373-.206094-.3217545-1.358079-1.58720883-1.6795345-1.68183176-.2585535-.02161646-.5421154-.01113896-.5421154-.01113896z" opacity=".18"/><path d="m3.3073128.52917579c.4418198 0 .3955521 1.58749981.3955521 1.58749981s1.586526-.096454 1.586526.5291667c0-.1524344.011906-.5670735-.018574-.6146377-.2377249-.4550171-1.3250248-1.40152948-1.6663664-1.50202881-.070324-.002117-.2269146.003942-.2971589.00002116z" fill="url(#g)" stroke-width=".264583"/></g></svg>