<svg height="16" viewBox="0 0 4.2333333 4.2333335" width="16" xmlns="http://www.w3.org/2000/svg" xmlns:xlink="http://www.w3.org/1999/xlink"><linearGradient id="a" gradientUnits="userSpaceOnUse" x1="3.17548796" x2="5.2921546" xlink:href="#b" y1="296.054554915" y2="296.054554915"/><linearGradient id="b"><stop offset="0" stop-color="#555761"/><stop offset=".3125" stop-color="#abacae" stop-opacity=".988235"/><stop offset=".5625" stop-color="#fafafa" stop-opacity=".988235"/><stop offset=".8125" stop-color="#abacae" stop-opacity=".988235"/><stop offset="1" stop-color="#555761" stop-opacity=".985965"/></linearGradient><linearGradient id="c" gradientUnits="userSpaceOnUse" x1="3.15964796" x2="5.2763146" xlink:href="#b" y1="295.523034915" y2="295.523034915"/><linearGradient id="d" gradientUnits="userSpaceOnUse" x1="3.17499996" x2="5.2916666" xlink:href="#b" y1="295.015604915" y2="295.015604915"/><radialGradient id="e" cx="4.155227" cy="290.8032635" gradientUnits="userSpaceOnUse" r="1.20270375" xlink:href="#f"/><linearGradient id="f"><stop offset="0" stop-color="#fff"/><stop offset="1" stop-color="#fff" stop-opacity="0"/></linearGradient><linearGradient id="g" gradientUnits="userSpaceOnUse" x1="2.11667246083" x2="6.33914142014" y1="293.3619624425" y2="293.3619624425"><stop offset="0" stop-color="#d4d4d4"/><stop offset=".5" stop-color="#fafafa" stop-opacity=".988235"/><stop offset="1" stop-color="#d4d4d4" stop-opacity=".975439"/></linearGradient><linearGradient id="h" gradientUnits="userSpaceOnUse" x1="4.23333328" x2="4.23333328" xlink:href="#f" y1="292.50206995" y2="294.751028255"/><linearGradient id="i" gradientUnits="userSpaceOnUse" x1="4.233334" x2="4.233334" y1="288.90799" y2="292.9552"><stop offset="0" stop-color="#ffe16b"/><stop offset="1" stop-color="#f9c440"/></linearGradient><linearGradient id="j" gradientUnits="userSpaceOnUse" x1="4.233334" x2="4.233334" y1="290.42569" y2="291.69046"><stop offset="0" stop-color="#fff"/><stop offset=".42447853" stop-color="#fff" stop-opacity=".235294"/><stop offset=".82089913" stop-color="#fff" stop-opacity=".156863"/><stop offset="1" stop-color="#fff" stop-opacity=".392157"/></linearGradient><g transform="matrix(.52299524 0 0 .52299524 -.097347 -151.09751)"><g stroke-linecap="round" stroke-linejoin="round" stroke-opacity=".501961" stroke-width=".5059"><path d="m6.0039834 290.93161a1.7706503 1.7706503 0 0 1 -1.7706503 1.77065 1.7706503 1.7706503 0 0 1 -1.7706503-1.77065 1.7706503 1.7706503 0 0 1 1.7706503-1.77065 1.7706503 1.7706503 0 0 1 1.7706503 1.77065z" fill="url(#i)" stroke="#ad5f00"/><path d="m5.4980838 290.93161a1.2647502 1.2647502 0 0 1 -1.2647502 1.26475 1.2647502 1.2647502 0 0 1 -1.2647503-1.26475 1.2647502 1.2647502 0 0 1 1.2647503-1.26475 1.2647502 1.2647502 0 0 1 1.2647502 1.26475z" fill="none" stroke="url(#j)"/><path d="m4.7625002 296.41873a.52916664.33072916 0 0 1 -.5291666.33072.52916664.33072916 0 0 1 -.5291666-.33072.52916664.33072916 0 0 1 .5291666-.33073.52916664.33072916 0 0 1 .5291666.33073z" fill="#1a1a1a" fill-opacity=".988235" stroke="#000"/><path d="m3.4864469 295.76849c.4409723.223 1.0525519.13992 1.4935242.0164.1411484-.0395.1357088.12581.1357088.27239s-.1283679.21045-.2645833.26458c-.4373171.17381-.7871342.17815-1.2318699-.00081-.1359831-.0547-.2645833-.118-.2645833-.26458s.1318035-.43458.1318035-.28801z" fill="url(#a)" stroke="#667885"/><path d="m3.4706067 295.23697c.4409723.22301 1.0525519.13993 1.4935242.0164.1411484-.0395.1357088.12582.1357088.2724 0 .14657-.1283679.21044-.2645833.26458-.4373171.1738-.7871342.17815-1.2318699-.00081-.1359831-.0547-.2645833-.11801-.2645833-.26458 0-.14658.1318035-.43459.1318035-.28802z" fill="url(#c)" stroke="#667885"/><path d="m3.4859587 294.72954c.4409723.22301 1.052552.13993 1.4935243.0164.1411483-.0395.1357087.12582.1357087.2724s-.1283679.21044-.2645833.26458c-.4373171.17381-.7871341.17815-1.2318699-.00081-.1359831-.0547-.2645833-.118-.2645833-.26458s.1318035-.43459.1318035-.28802z" fill="url(#d)" stroke="#667885"/></g><circle cx="4.155228" cy="290.80325" fill="url(#e)" opacity=".683" r="1.202704"/><path d="m2.4364579 291.70887c.3901039 1.00815.8757663 2.11092.983464 2.74816.0005092.003.00341.007.00391.01h-.00195c.00142.006.00207.0129.00195.0195v.0469c.2062234.0593.4951053.10142.8085938.10157.3135889-.00004.6040543-.0408.8105469-.0996v-.0488c-.0007673-.006-.0007673-.013 0-.0195.0002906-.002.00166-.004.00195-.006.1054147-.63128.5866573-1.71976.9755203-2.72277-.5505716.0755-1.2060859.20451-1.7871093.20507-.6687688-.00079-1.213986-.14403-1.796875-.23437z" style="stroke:#7e8087;stroke-width:.5059;stroke-linecap:round;stroke-linejoin:round;stroke-opacity:.501961;fill:url(#g)"/><path d="m3.2606766 292.36121c.2335484.55362.4467537 1.2304.5694015 1.7091.1260548.0272.2457446.0546.4023438.0547.1555382-.00002.276613-.029.4042969-.0566.1228755-.47837.3378257-1.15388.5712234-1.70715-.3130974.0476-.6361504.0895-.9746093.0899-.3623083-.00042-.6750744-.0412-.9726563-.0899z" style="fill:none;stroke-width:.5059;stroke-linecap:round;stroke-linejoin:round;stroke-opacity:.501961;stroke:url(#h)"/></g></svg>