<svg height="16" viewBox="0 0 4.2333332 4.2333335" width="16" xmlns="http://www.w3.org/2000/svg" xmlns:xlink="http://www.w3.org/1999/xlink"><linearGradient id="a" gradientTransform="matrix(-.00271019 .50014348 -.5122065 -.00277662 4.86774 282.63105)" gradientUnits="userSpaceOnUse" x1="17.881542" x2="36.742191" y1="4.647639" y2="4.223197"><stop offset="0" stop-color="#fff394"/><stop offset=".262" stop-color="#ffe16b"/><stop offset=".661" stop-color="#f9c440"/><stop offset="1" stop-color="#d48e15"/></linearGradient><linearGradient id="b" gradientTransform="matrix(.1727615 -.01573307 .01698853 .18816575 .773424 285.38418)" gradientUnits="userSpaceOnUse" x1="2.091823" x2=".446104" y1="42.221008" y2="58.956825"><stop offset="0" stop-color="#fff"/><stop offset="0" stop-color="#fff" stop-opacity=".235"/><stop offset=".99999732" stop-color="#fff" stop-opacity=".157"/><stop offset="1" stop-color="#fff" stop-opacity=".392"/></linearGradient><linearGradient id="c" gradientTransform="matrix(.26133509 0 0 .26235993 .079139 294.15808)" gradientUnits="userSpaceOnUse" x1="10.833898" x2="8.809039" y1="8.815129" y2="5.789705"><stop offset="0" stop-color="#ffe16b"/><stop offset="1" stop-color="#fff"/></linearGradient><g transform="translate(0 -292.76665)"><path d="m.26458332 292.89896h3.70416668c.07329 0 .1322917.059.1322917.13229v2.77811c-.4105345.50423-.8093896.8783-2.5135417 1.05833h-1.32291668c-.0732896 0-.13229166-.059-.13229166-.13229v-3.70415c0-.0733.0590021-.13229.13229166-.13229z" style="stroke:#ad5f00;stroke-width:.264583;stroke-linecap:round;stroke-linejoin:round;stroke-opacity:.501961;fill:url(#a)"/><path d="m12.306641 5.9394531c-.285286.0267868-.583578.0877244-.894532.1914063-1.119211.3734173-1.7949202 1.1825374-2.0878902 1.59375-.5579226.7831181-.7679269 1.3527772-.9824219 1.7128906-.4321255.725518-2.280735 3.059939-4.6367188 4.044922-.0049323.002494-.0087622.004033-.0136719.007812-.71664.305386-1.5275034.852908-1.7871093 1.904297-.0504425.204289-.0614147.403431-.0566407.597657h4.1542969a.49814426.49814426 0 0 0 .0507813 0c3.2522751-.343597 5.2987286-.87002 6.7539066-1.585938 1.455177-.71588 2.292487-1.624465 3.080078-2.591797a.49814426.49814426 0 0 0 .109375-.316406v-3.5781251c-.414708-.4667242-.905518-.9777046-1.513672-1.5605469-.584756-.2766614-1.319925-.5002823-2.175781-.4199219z" fill="#ad5f00" opacity=".05" transform="matrix(.26458333 0 0 .26458333 0 292.76665)"/><path d="m12.464844 7.8417969c-.151221.0116397-.305234.0398595-.455078.0898437-.599378.199937-.936241.6002317-1.144532.8925782-.416581.5847307-.574385 1.0458419-.8925778 1.5800782-.6363866 1.068472-2.6023137 3.603092-5.5371093 4.830078-.5084266.216615-.7093291.488462-.6972657.757813h2.2636719a.49814426.49814426 0 0 0 .0507813 0c3.2522751-.343597 5.2987286-.87002 6.7539066-1.585938 1.455177-.71588 2.292487-1.624465 3.080078-2.591797a.49814426.49814426 0 0 0 .109375-.316406v-.638672c-.255697-.306501-.569775-.609464-.996094-.859375.128693.053291-.317803.381065-.427734-.6660156-.058541-.5493922-.39993-1.027577-.900391-1.2617188-.312834-.1479685-.753369-.265388-1.207031-.2304687z" fill="#ad5f00" opacity=".15" transform="matrix(.26458333 0 0 .26458333 0 292.76665)"/><g stroke-width=".264583"><path d="m.396875 293.16352h3.4395833v2.51355c-.1322916.52916-1.0583333.79375-1.7197917.92604h-1.7197916z" fill="none" opacity=".5" stroke="url(#b)"/><path d="m1.5875 296.86769c1.7047378-.71273 1.4375695-1.78375 1.8520833-1.5875.076367.72738.5291667.66146.6614584.52917-.034011-.0797.052003.73173-2.5135417 1.05833z" fill="url(#c)" stroke="#ad5f00" stroke-opacity=".501961"/></g></g></svg>