<svg height="16" viewBox="0 0 4.2333333 4.2333335" width="16" xmlns="http://www.w3.org/2000/svg" xmlns:xlink="http://www.w3.org/1999/xlink"><linearGradient id="a" gradientUnits="userSpaceOnUse" x1="2.116667" x2="2.116667" y1=".132292" y2="4.101041"><stop offset="0" stop-color="#f4f4f4"/><stop offset="1" stop-color="#dbdbdb"/></linearGradient><linearGradient id="b" gradientTransform="matrix(.09253212 0 0 .09422017 -.356796 .077768)" gradientUnits="userSpaceOnUse" x1="32.892288" x2="36.358372" y1="8.059012" y2="5.456536"><stop offset="0" stop-color="#fefefe"/><stop offset="1" stop-color="#cbcbcb"/></linearGradient><linearGradient id="c" gradientTransform="matrix(.06435811 0 0 .0929617 .572072 -.114409)" gradientUnits="userSpaceOnUse" x1="19.888895" x2="19.888895" y1="6.923023" y2="41.076874"><stop offset="0" stop-color="#fff"/><stop offset=".0001" stop-color="#fff" stop-opacity=".235294"/><stop offset=".99989998" stop-color="#fff" stop-opacity=".156863"/><stop offset="1" stop-color="#fff" stop-opacity=".392157"/></linearGradient><path d="m.66145832.13229845h1.85208328c.4357217.21207288.8124444.62201771 1.0583334.92604165v3.0427083h-2.91041668z" fill="url(#a)"/><path d="m3.3072919 3.8364627h-2.38124998v-3.4395833h1.45492788l.9263221.8835681z" fill="none" stroke="url(#c)" stroke-linecap="round" stroke-width=".264583"/><path d="m.66144801.13228807 1.79060999.00013493c.1624965 0 1.1198252.72268563 1.1198252 1.02752l.0000026 2.941111s-1.9402927 0-2.91043779 0c0-1.322922 0-3.96876593 0-3.96876593z" fill="none" stroke="#000" stroke-linejoin="round" stroke-opacity=".3" stroke-width=".264563"/><g fill-rule="evenodd" stroke-width=".264583"><path d="m1.6330192.26792935c.2955316 0 .2190644 1.31957505.2190644 1.31957505s1.6140906-.1841421 1.6140906.2342356c0-.1019387-.022384-.5386096-.042757-.5704178-.1463831-.2285312-.9758994-.89308519-1.204219-.96029465-.321691-.03387732-.586179-.02309813-.586179-.0230982z" opacity=".05"/><path d="m1.8520836.26129096c.2955316 0 .2645833 1.06163014.2645833 1.06163014s1.325798-.1537944 1.325798.2645833c0-.1019387.00796-.4779169-.012409-.5097251-.1463834-.2285312-.7786476-.74135454-1.0069671-.80856408-.183642-.01534583-.5710052-.00791104-.5710052-.00791104z" opacity=".12"/><path d="m2.1166669.26129096c.2955316 0 .2645833.79704674.2645833.79704674s1.0612147-.15379433 1.0612147.2645834c0-.1019387.00796-.2133336-.012409-.2451418-.1463834-.2285312-.7786476-.74135454-1.0069671-.80856408-.0470403-.00132292-.2594372-.00529167-.3064219-.00791104z" fill="url(#b)"/></g></svg>